<?xml version="1.0" encoding="UTF-8" standalone="no"?><svg xmlns="http://www.w3.org/2000/svg" xmlns:xlink="http://www.w3.org/1999/xlink" clip-rule="evenodd" stroke-miterlimit="10" viewBox="0 0 1920 1080"><desc>SVG generated by Keynote</desc><defs></defs><g transform="matrix(1.00, 0.00, -0.00, -1.00, 0.0, 1080.0)"><path d="M 0.0 1080.0 L 1920.0 1080.0 L 1920.0 0.0 L 0.0 0.0 Z M 0.0 1080.0 " fill="#FEFFFF"></path><image xlink:href="4A3396DE9349AE5C256BE50E2743AC7D.jpeg" width="676.00" height="748.00" transform="matrix(1.30, 0.00, -0.00, -1.30, 973.0, 1025.0)"></image><image xlink:href="361F86E1D955A55D0CB248BD235D67C5.jpeg" width="676.00" height="756.00" transform="matrix(1.30, 0.00, -0.00, -1.30, 68.0, 1031.0)"></image><text xml:space="preserve" font-family="Helvetica-Light,Helvetica" font-size="25.0" fill="#A6AAA8" transform="matrix(1.00, 0.00, -0.00, -1.00, 1687.7, 18.7)">S</text><text xml:space="preserve" font-family="Helvetica-Light,Helvetica" font-size="25.0" fill="#A6AAA8" transform="matrix(1.00, 0.00, -0.00, -1.00, 1702.9, 18.7)">o</text><text xml:space="preserve" font-family="Helvetica-Light,Helvetica" font-size="25.0" fill="#A6AAA8" transform="matrix(1.00, 0.00, -0.00, -1.00, 1716.8, 18.7)">u</text><text xml:space="preserve" font-family="Helvetica-Light,Helvetica" font-size="25.0" fill="#A6AAA8" transform="matrix(1.00, 0.00, -0.00, -1.00, 1730.7, 18.7)">r</text><text xml:space="preserve" font-family="Helvetica-Light,Helvetica" font-size="25.0" fill="#A6AAA8" transform="matrix(1.00, 0.00, -0.00, -1.00, 1738.6, 18.7)">c</text><text xml:space="preserve" font-family="Helvetica-Light,Helvetica" font-size="25.0" fill="#A6AAA8" transform="matrix(1.00, 0.00, -0.00, -1.00, 1752.5, 18.7)">e</text><text xml:space="preserve" font-family="Helvetica-Light,Helvetica" font-size="25.0" fill="#A6AAA8" transform="matrix(1.00, 0.00, -0.00, -1.00, 1766.4, 18.7)">:</text><text xml:space="preserve" font-family="Helvetica-Light,Helvetica" font-size="25.0" fill="#A6AAA8" transform="matrix(1.00, 0.00, -0.00, -1.00, 1773.4, 18.7)"> </text><text xml:space="preserve" font-family="Helvetica-Light,Helvetica" font-size="25.0" fill="#A6AAA8" transform="matrix(1.00, 0.00, -0.00, -1.00, 1780.3, 18.7)">X</text><text xml:space="preserve" font-family="Helvetica-Light,Helvetica" font-size="25.0" fill="#A6AAA8" transform="matrix(1.00, 0.00, -0.00, -1.00, 1795.6, 18.7)">K</text><text xml:space="preserve" font-family="Helvetica-Light,Helvetica" font-size="25.0" fill="#A6AAA8" transform="matrix(1.00, 0.00, -0.00, -1.00, 1812.2, 18.7)">C</text><text xml:space="preserve" font-family="Helvetica-Light,Helvetica" font-size="25.0" fill="#A6AAA8" transform="matrix(1.00, 0.00, -0.00, -1.00, 1830.3, 18.7)">D</text></g></svg>