<?xml version="1.0" encoding="UTF-8" standalone="no"?><svg xmlns="http://www.w3.org/2000/svg" xmlns:xlink="http://www.w3.org/1999/xlink" clip-rule="evenodd" stroke-miterlimit="10" viewBox="0 0 1920 1080"><desc>SVG generated by Keynote</desc><defs><pattern id="93738778-9782-46B6-8460-7E6DE0052B27" patternUnits="userSpaceOnUse" width="600" height="600" viewBox="0 0 600 600"><image xlink:href="../../B49DC77F-09BB-449C-9313-EC11A2C405DF/assets/C3C0FC898C94653CAF8AD846D6CCD108.png" width="600.00" height="600.00"></image></pattern></defs><g transform="matrix(1.00, 0.00, -0.00, -1.00, 0.0, 1080.0)"><path d="M 0.0 1080.0 L 1920.0 1080.0 L 1920.0 0.0 L 0.0 0.0 Z M 0.0 1080.0 " fill="#FEFFFF"></path><image xlink:href="../../B49DC77F-09BB-449C-9313-EC11A2C405DF/assets/1D566995070025D6998FB7C2A51FC97B.png" width="616.00" height="440.00" transform="matrix(1.00, 0.00, -0.00, -1.00, 609.6, 607.7)" opacity="0.50"></image><g><clipPath id="clip0x608000abc380"><path d="M 613.0 607.0 L 1223.0 607.0 L 1223.0 173.0 L 613.0 173.0 Z M 612.6 606.7 "></path></clipPath><g clip-path="url(#clip0x608000abc380)"><path d="M 613.0 173.0 L 1223.0 173.0 L 1223.0 607.0 L 613.0 607.0 Z M 613.0 173.0 " fill="url(#93738778-9782-46B6-8460-7E6DE0052B27)"></path></g></g><g><clipPath id="clip0x608000abc680"><path d="M 602.3 172.6 L 1232.9 172.6 L 1232.9 606.7 L 602.3 606.7 Z M 602.3 172.6 "></path></clipPath><g clip-path="url(#clip0x608000abc680)"><text xml:space="preserve" font-family="Helvetica-Bold,Helvetica" font-weight="bold" font-size="57.0" fill="#FEFFFE" transform="matrix(1.00, 0.00, -0.00, -1.00, 838.4, 368.8)">E</text><text xml:space="preserve" font-family="Helvetica-Bold,Helvetica" font-weight="bold" font-size="57.0" fill="#FEFFFE" transform="matrix(1.00, 0.00, -0.00, -1.00, 876.5, 368.8)">n</text><text xml:space="preserve" font-family="Helvetica-Bold,Helvetica" font-weight="bold" font-size="57.0" fill="#FEFFFE" transform="matrix(1.00, 0.00, -0.00, -1.00, 911.3, 368.8)">t</text><text xml:space="preserve" font-family="Helvetica-Bold,Helvetica" font-weight="bold" font-size="57.0" fill="#FEFFFE" transform="matrix(1.00, 0.00, -0.00, -1.00, 930.2, 368.8)">i</text><text xml:space="preserve" font-family="Helvetica-Bold,Helvetica" font-weight="bold" font-size="57.0" fill="#FEFFFE" transform="matrix(1.00, 0.00, -0.00, -1.00, 946.1, 368.8)">t</text><text xml:space="preserve" font-family="Helvetica-Bold,Helvetica" font-weight="bold" font-size="57.0" fill="#FEFFFE" transform="matrix(1.00, 0.00, -0.00, -1.00, 965.1, 368.8)">y</text></g></g><image xlink:href="../../B49DC77F-09BB-449C-9313-EC11A2C405DF/assets/DD9F4766F9F829B741C74452A3DB3DA0.png" width="270.00" height="106.00" transform="matrix(1.00, 0.00, -0.00, -1.00, 425.3, 841.5)" opacity="0.50"></image><g><clipPath id="clip0x608000abc980"><path d="M 653.6 825.9 C 705.1 806.3 705.1 774.7 653.6 755.2 C 602.0 735.6 518.5 735.6 466.9 755.2 C 415.4 774.7 415.4 806.3 466.9 825.9 C 518.5 845.4 602.0 845.4 653.6 825.9 Z M 653.6 825.9 "></path></clipPath><g clip-path="url(#clip0x608000abc980)"><image xlink:href="../../B49DC77F-09BB-449C-9313-EC11A2C405DF/assets/C3C0FC898C94653CAF8AD846D6CCD108.png" width="600.00" height="600.00" transform="matrix(0.50, 0.00, -0.00, -0.50, 428.3, 840.5)"></image></g></g><g><clipPath id="clip0x600000eac660"><path d="M 428.3 740.5 L 692.3 740.5 L 692.3 840.5 L 428.3 840.5 Z M 428.3 740.5 "></path></clipPath><g clip-path="url(#clip0x600000eac660)"><text xml:space="preserve" font-family="Helvetica-Light,Helvetica" font-size="32.0" fill="#FEFFFE" transform="matrix(1.00, 0.00, -0.00, -1.00, 486.5, 778.4)">P</text><text xml:space="preserve" font-family="Helvetica-Light,Helvetica" font-size="32.0" fill="#FEFFFE" transform="matrix(1.00, 0.00, -0.00, -1.00, 506.0, 778.4)">r</text><text xml:space="preserve" font-family="Helvetica-Light,Helvetica" font-size="32.0" fill="#FEFFFE" transform="matrix(1.00, 0.00, -0.00, -1.00, 516.1, 778.4)">o</text><text xml:space="preserve" font-family="Helvetica-Light,Helvetica" font-size="32.0" fill="#FEFFFE" transform="matrix(1.00, 0.00, -0.00, -1.00, 533.9, 778.4)">p</text><text xml:space="preserve" font-family="Helvetica-Light,Helvetica" font-size="32.0" fill="#FEFFFE" transform="matrix(1.00, 0.00, -0.00, -1.00, 553.5, 778.4)">e</text><text xml:space="preserve" font-family="Helvetica-Light,Helvetica" font-size="32.0" fill="#FEFFFE" transform="matrix(1.00, 0.00, -0.00, -1.00, 571.2, 778.4)">r</text><text xml:space="preserve" font-family="Helvetica-Light,Helvetica" font-size="32.0" fill="#FEFFFE" transform="matrix(1.00, 0.00, -0.00, -1.00, 582.5, 778.4)">t</text><text xml:space="preserve" font-family="Helvetica-Light,Helvetica" font-size="32.0" fill="#FEFFFE" transform="matrix(1.00, 0.00, -0.00, -1.00, 591.4, 778.4)">y</text><text xml:space="preserve" font-family="Helvetica-Light,Helvetica" font-size="32.0" fill="#FEFFFE" transform="matrix(1.00, 0.00, -0.00, -1.00, 607.4, 778.4)"> </text><text xml:space="preserve" font-family="Helvetica-Light,Helvetica" font-size="32.0" fill="#FEFFFE" transform="matrix(1.00, 0.00, -0.00, -1.00, 616.3, 778.4)">1</text></g></g><image xlink:href="../../B49DC77F-09BB-449C-9313-EC11A2C405DF/assets/DD9F4766F9F829B741C74452A3DB3DA0.png" width="270.00" height="106.00" transform="matrix(1.00, 0.00, -0.00, -1.00, 830.8, 849.6)" opacity="0.50"></image><g><clipPath id="clip0x600000ead2c0"><path d="M 1059.1 834.0 C 1110.7 814.5 1110.7 782.8 1059.1 763.3 C 1007.6 743.7 924.0 743.7 872.4 763.3 C 820.9 782.8 820.9 814.5 872.4 834.0 C 924.0 853.5 1007.6 853.5 1059.1 834.0 Z M 1059.1 834.0 "></path></clipPath><g clip-path="url(#clip0x600000ead2c0)"><image xlink:href="../../B49DC77F-09BB-449C-9313-EC11A2C405DF/assets/C3C0FC898C94653CAF8AD846D6CCD108.png" width="600.00" height="600.00" transform="matrix(0.50, 0.00, -0.00, -0.50, 833.8, 848.6)"></image></g></g><g><clipPath id="clip0x600000ead6e0"><path d="M 833.8 748.6 L 1097.8 748.6 L 1097.8 848.6 L 833.8 848.6 Z M 833.8 748.6 "></path></clipPath><g clip-path="url(#clip0x600000ead6e0)"><text xml:space="preserve" font-family="Helvetica-Light,Helvetica" font-size="32.0" fill="#FEFFFE" transform="matrix(1.00, 0.00, -0.00, -1.00, 892.0, 786.5)">P</text><text xml:space="preserve" font-family="Helvetica-Light,Helvetica" font-size="32.0" fill="#FEFFFE" transform="matrix(1.00, 0.00, -0.00, -1.00, 911.6, 786.5)">r</text><text xml:space="preserve" font-family="Helvetica-Light,Helvetica" font-size="32.0" fill="#FEFFFE" transform="matrix(1.00, 0.00, -0.00, -1.00, 921.6, 786.5)">o</text><text xml:space="preserve" font-family="Helvetica-Light,Helvetica" font-size="32.0" fill="#FEFFFE" transform="matrix(1.00, 0.00, -0.00, -1.00, 939.4, 786.5)">p</text><text xml:space="preserve" font-family="Helvetica-Light,Helvetica" font-size="32.0" fill="#FEFFFE" transform="matrix(1.00, 0.00, -0.00, -1.00, 959.0, 786.5)">e</text><text xml:space="preserve" font-family="Helvetica-Light,Helvetica" font-size="32.0" fill="#FEFFFE" transform="matrix(1.00, 0.00, -0.00, -1.00, 976.8, 786.5)">r</text><text xml:space="preserve" font-family="Helvetica-Light,Helvetica" font-size="32.0" fill="#FEFFFE" transform="matrix(1.00, 0.00, -0.00, -1.00, 988.0, 786.5)">t</text><text xml:space="preserve" font-family="Helvetica-Light,Helvetica" font-size="32.0" fill="#FEFFFE" transform="matrix(1.00, 0.00, -0.00, -1.00, 996.9, 786.5)">y</text><text xml:space="preserve" font-family="Helvetica-Light,Helvetica" font-size="32.0" fill="#FEFFFE" transform="matrix(1.00, 0.00, -0.00, -1.00, 1012.9, 786.5)"> </text><text xml:space="preserve" font-family="Helvetica-Light,Helvetica" font-size="32.0" fill="#FEFFFE" transform="matrix(1.00, 0.00, -0.00, -1.00, 1021.8, 786.5)">2</text></g></g><image xlink:href="../../B49DC77F-09BB-449C-9313-EC11A2C405DF/assets/DD9F4766F9F829B741C74452A3DB3DA0.png" width="270.00" height="106.00" transform="matrix(1.00, 0.00, -0.00, -1.00, 1236.3, 841.5)" opacity="0.50"></image><g><clipPath id="clip0x600000eadb60"><path d="M 1464.6 825.9 C 1516.2 806.3 1516.2 774.7 1464.6 755.2 C 1413.1 735.6 1329.5 735.6 1278.0 755.2 C 1226.4 774.7 1226.4 806.3 1278.0 825.9 C 1329.5 845.4 1413.1 845.4 1464.6 825.9 Z M 1464.6 825.9 "></path></clipPath><g clip-path="url(#clip0x600000eadb60)"><image xlink:href="../../B49DC77F-09BB-449C-9313-EC11A2C405DF/assets/C3C0FC898C94653CAF8AD846D6CCD108.png" width="600.00" height="600.00" transform="matrix(0.50, 0.00, -0.00, -0.50, 1239.3, 840.5)"></image></g></g><g><clipPath id="clip0x600000eadf80"><path d="M 1239.3 740.5 L 1503.3 740.5 L 1503.3 840.5 L 1239.3 840.5 Z M 1239.3 740.5 "></path></clipPath><g clip-path="url(#clip0x600000eadf80)"><text xml:space="preserve" font-family="Helvetica-Light,Helvetica" font-size="32.0" fill="#FEFFFE" transform="matrix(1.00, 0.00, -0.00, -1.00, 1297.5, 778.4)">P</text><text xml:space="preserve" font-family="Helvetica-Light,Helvetica" font-size="32.0" fill="#FEFFFE" transform="matrix(1.00, 0.00, -0.00, -1.00, 1317.1, 778.4)">r</text><text xml:space="preserve" font-family="Helvetica-Light,Helvetica" font-size="32.0" fill="#FEFFFE" transform="matrix(1.00, 0.00, -0.00, -1.00, 1327.2, 778.4)">o</text><text xml:space="preserve" font-family="Helvetica-Light,Helvetica" font-size="32.0" fill="#FEFFFE" transform="matrix(1.00, 0.00, -0.00, -1.00, 1345.0, 778.4)">p</text><text xml:space="preserve" font-family="Helvetica-Light,Helvetica" font-size="32.0" fill="#FEFFFE" transform="matrix(1.00, 0.00, -0.00, -1.00, 1364.5, 778.4)">e</text><text xml:space="preserve" font-family="Helvetica-Light,Helvetica" font-size="32.0" fill="#FEFFFE" transform="matrix(1.00, 0.00, -0.00, -1.00, 1382.3, 778.4)">r</text><text xml:space="preserve" font-family="Helvetica-Light,Helvetica" font-size="32.0" fill="#FEFFFE" transform="matrix(1.00, 0.00, -0.00, -1.00, 1393.5, 778.4)">t</text><text xml:space="preserve" font-family="Helvetica-Light,Helvetica" font-size="32.0" fill="#FEFFFE" transform="matrix(1.00, 0.00, -0.00, -1.00, 1402.4, 778.4)">y</text><text xml:space="preserve" font-family="Helvetica-Light,Helvetica" font-size="32.0" fill="#FEFFFE" transform="matrix(1.00, 0.00, -0.00, -1.00, 1418.4, 778.4)"> </text><text xml:space="preserve" font-family="Helvetica-Light,Helvetica" font-size="32.0" fill="#FEFFFE" transform="matrix(1.00, 0.00, -0.00, -1.00, 1427.3, 778.4)">3</text></g></g><path d="M 0.0 0.0 L 114.0 0.0 " fill="none" stroke="#000000" stroke-width="2.00" transform="matrix(-0.61, 0.79, 0.79, 0.61, 635.8, 632.4)"></path><path d="M 0.0 0.0 L 158.4 0.0 " fill="none" stroke="#000000" stroke-width="2.00" transform="matrix(0.71, 0.71, 0.71, -0.71, 1222.0, 621.6)"></path><path d="M 0.1 -0.4 L 107.1 -0.4 " fill="none" stroke="#000000" stroke-width="2.00" transform="matrix(0.00, 1.00, 1.00, 0.00, 962.4, 623.9)"></path><text xml:space="preserve" font-family="Helvetica-Light,Helvetica" font-size="50.0" fill="#000000" transform="matrix(1.00, 0.00, -0.00, -1.00, 536.0, 66.7)">E</text><text xml:space="preserve" font-family="Helvetica-Light,Helvetica" font-size="50.0" fill="#000000" transform="matrix(1.00, 0.00, -0.00, -1.00, 566.6, 66.7)">n</text><text xml:space="preserve" font-family="Helvetica-Light,Helvetica" font-size="50.0" fill="#000000" transform="matrix(1.00, 0.00, -0.00, -1.00, 594.4, 66.7)">t</text><text xml:space="preserve" font-family="Helvetica-Light,Helvetica" font-size="50.0" fill="#000000" transform="matrix(1.00, 0.00, -0.00, -1.00, 608.3, 66.7)">i</text><text xml:space="preserve" font-family="Helvetica-Light,Helvetica" font-size="50.0" fill="#000000" transform="matrix(1.00, 0.00, -0.00, -1.00, 619.4, 66.7)">t</text><text xml:space="preserve" font-family="Helvetica-Light,Helvetica" font-size="50.0" fill="#000000" transform="matrix(1.00, 0.00, -0.00, -1.00, 633.3, 66.7)">y</text><text xml:space="preserve" font-family="Helvetica-Light,Helvetica" font-size="50.0" fill="#000000" transform="matrix(1.00, 0.00, -0.00, -1.00, 658.3, 66.7)"> </text><text xml:space="preserve" font-family="Helvetica-Light,Helvetica" font-size="50.0" fill="#000000" transform="matrix(1.00, 0.00, -0.00, -1.00, 672.2, 66.7)">-</text><text xml:space="preserve" font-family="Helvetica-Light,Helvetica" font-size="50.0" fill="#000000" transform="matrix(1.00, 0.00, -0.00, -1.00, 688.8, 66.7)"> </text><text xml:space="preserve" font-family="Helvetica-Light,Helvetica" font-size="50.0" fill="#000000" transform="matrix(1.00, 0.00, -0.00, -1.00, 702.7, 66.7)">t</text><text xml:space="preserve" font-family="Helvetica-Light,Helvetica" font-size="50.0" fill="#000000" transform="matrix(1.00, 0.00, -0.00, -1.00, 716.6, 66.7)">h</text><text xml:space="preserve" font-family="Helvetica-Light,Helvetica" font-size="50.0" fill="#000000" transform="matrix(1.00, 0.00, -0.00, -1.00, 744.4, 66.7)">e</text><text xml:space="preserve" font-family="Helvetica-Light,Helvetica" font-size="50.0" fill="#000000" transform="matrix(1.00, 0.00, -0.00, -1.00, 772.2, 66.7)"> </text><text xml:space="preserve" font-family="Helvetica-Light,Helvetica" font-size="50.0" fill="#000000" transform="matrix(1.00, 0.00, -0.00, -1.00, 786.1, 66.7)">t</text><text xml:space="preserve" font-family="Helvetica-Light,Helvetica" font-size="50.0" fill="#000000" transform="matrix(1.00, 0.00, -0.00, -1.00, 800.0, 66.7)">h</text><text xml:space="preserve" font-family="Helvetica-Light,Helvetica" font-size="50.0" fill="#000000" transform="matrix(1.00, 0.00, -0.00, -1.00, 827.8, 66.7)">i</text><text xml:space="preserve" font-family="Helvetica-Light,Helvetica" font-size="50.0" fill="#000000" transform="matrix(1.00, 0.00, -0.00, -1.00, 838.9, 66.7)">n</text><text xml:space="preserve" font-family="Helvetica-Light,Helvetica" font-size="50.0" fill="#000000" transform="matrix(1.00, 0.00, -0.00, -1.00, 866.7, 66.7)">g</text><text xml:space="preserve" font-family="Helvetica-Light,Helvetica" font-size="50.0" fill="#000000" transform="matrix(1.00, 0.00, -0.00, -1.00, 897.3, 66.7)"> </text><text xml:space="preserve" font-family="Helvetica-Light,Helvetica" font-size="50.0" fill="#000000" transform="matrix(1.00, 0.00, -0.00, -1.00, 911.2, 66.7)">y</text><text xml:space="preserve" font-family="Helvetica-Light,Helvetica" font-size="50.0" fill="#000000" transform="matrix(1.00, 0.00, -0.00, -1.00, 936.2, 66.7)">o</text><text xml:space="preserve" font-family="Helvetica-Light,Helvetica" font-size="50.0" fill="#000000" transform="matrix(1.00, 0.00, -0.00, -1.00, 964.0, 66.7)">u</text><text xml:space="preserve" font-family="Helvetica-Light,Helvetica" font-size="50.0" fill="#000000" transform="matrix(1.00, 0.00, -0.00, -1.00, 991.8, 66.7)">’</text><text xml:space="preserve" font-family="Helvetica-Light,Helvetica" font-size="50.0" fill="#000000" transform="matrix(1.00, 0.00, -0.00, -1.00, 1002.9, 66.7)">r</text><text xml:space="preserve" font-family="Helvetica-Light,Helvetica" font-size="50.0" fill="#000000" transform="matrix(1.00, 0.00, -0.00, -1.00, 1018.6, 66.7)">e</text><text xml:space="preserve" font-family="Helvetica-Light,Helvetica" font-size="50.0" fill="#000000" transform="matrix(1.00, 0.00, -0.00, -1.00, 1046.4, 66.7)"> </text><text xml:space="preserve" font-family="Helvetica-Light,Helvetica" font-size="50.0" fill="#000000" transform="matrix(1.00, 0.00, -0.00, -1.00, 1060.3, 66.7)">d</text><text xml:space="preserve" font-family="Helvetica-Light,Helvetica" font-size="50.0" fill="#000000" transform="matrix(1.00, 0.00, -0.00, -1.00, 1090.9, 66.7)">e</text><text xml:space="preserve" font-family="Helvetica-Light,Helvetica" font-size="50.0" fill="#000000" transform="matrix(1.00, 0.00, -0.00, -1.00, 1118.7, 66.7)">s</text><text xml:space="preserve" font-family="Helvetica-Light,Helvetica" font-size="50.0" fill="#000000" transform="matrix(1.00, 0.00, -0.00, -1.00, 1143.7, 66.7)">c</text><text xml:space="preserve" font-family="Helvetica-Light,Helvetica" font-size="50.0" fill="#000000" transform="matrix(1.00, 0.00, -0.00, -1.00, 1171.5, 66.7)">r</text><text xml:space="preserve" font-family="Helvetica-Light,Helvetica" font-size="50.0" fill="#000000" transform="matrix(1.00, 0.00, -0.00, -1.00, 1188.1, 66.7)">i</text><text xml:space="preserve" font-family="Helvetica-Light,Helvetica" font-size="50.0" fill="#000000" transform="matrix(1.00, 0.00, -0.00, -1.00, 1199.2, 66.7)">b</text><text xml:space="preserve" font-family="Helvetica-Light,Helvetica" font-size="50.0" fill="#000000" transform="matrix(1.00, 0.00, -0.00, -1.00, 1229.8, 66.7)">i</text><text xml:space="preserve" font-family="Helvetica-Light,Helvetica" font-size="50.0" fill="#000000" transform="matrix(1.00, 0.00, -0.00, -1.00, 1240.9, 66.7)">n</text><text xml:space="preserve" font-family="Helvetica-Light,Helvetica" font-size="50.0" fill="#000000" transform="matrix(1.00, 0.00, -0.00, -1.00, 1268.7, 66.7)">g</text><text xml:space="preserve" font-family="Helvetica-Light,Helvetica" font-size="50.0" fill="#6FBF40" transform="matrix(1.00, 0.00, -0.00, -1.00, 412.6, 939.7)">A</text><text xml:space="preserve" font-family="Helvetica-Light,Helvetica" font-size="50.0" fill="#6FBF40" transform="matrix(1.00, 0.00, -0.00, -1.00, 445.9, 939.7)">t</text><text xml:space="preserve" font-family="Helvetica-Light,Helvetica" font-size="50.0" fill="#6FBF40" transform="matrix(1.00, 0.00, -0.00, -1.00, 459.8, 939.7)">t</text><text xml:space="preserve" font-family="Helvetica-Light,Helvetica" font-size="50.0" fill="#6FBF40" transform="matrix(1.00, 0.00, -0.00, -1.00, 473.7, 939.7)">r</text><text xml:space="preserve" font-family="Helvetica-Light,Helvetica" font-size="50.0" fill="#6FBF40" transform="matrix(1.00, 0.00, -0.00, -1.00, 490.4, 939.7)">i</text><text xml:space="preserve" font-family="Helvetica-Light,Helvetica" font-size="50.0" fill="#6FBF40" transform="matrix(1.00, 0.00, -0.00, -1.00, 501.5, 939.7)">b</text><text xml:space="preserve" font-family="Helvetica-Light,Helvetica" font-size="50.0" fill="#6FBF40" transform="matrix(1.00, 0.00, -0.00, -1.00, 532.0, 939.7)">u</text><text xml:space="preserve" font-family="Helvetica-Light,Helvetica" font-size="50.0" fill="#6FBF40" transform="matrix(1.00, 0.00, -0.00, -1.00, 559.8, 939.7)">t</text><text xml:space="preserve" font-family="Helvetica-Light,Helvetica" font-size="50.0" fill="#6FBF40" transform="matrix(1.00, 0.00, -0.00, -1.00, 573.7, 939.7)">e</text><text xml:space="preserve" font-family="Helvetica-Light,Helvetica" font-size="50.0" fill="#6FBF40" transform="matrix(1.00, 0.00, -0.00, -1.00, 601.5, 939.7)">s</text><text xml:space="preserve" font-family="Helvetica-Light,Helvetica" font-size="50.0" fill="#6FBF40" transform="matrix(1.00, 0.00, -0.00, -1.00, 626.5, 939.7)"> </text><text xml:space="preserve" font-family="Helvetica-Light,Helvetica" font-size="50.0" fill="#6FBF40" transform="matrix(1.00, 0.00, -0.00, -1.00, 640.4, 939.7)">-</text><text xml:space="preserve" font-family="Helvetica-Light,Helvetica" font-size="50.0" fill="#6FBF40" transform="matrix(1.00, 0.00, -0.00, -1.00, 657.1, 939.7)"> </text><text xml:space="preserve" font-family="Helvetica-Light,Helvetica" font-size="50.0" fill="#6FBF40" transform="matrix(1.00, 0.00, -0.00, -1.00, 671.0, 939.7)">t</text><text xml:space="preserve" font-family="Helvetica-Light,Helvetica" font-size="50.0" fill="#6FBF40" transform="matrix(1.00, 0.00, -0.00, -1.00, 684.9, 939.7)">h</text><text xml:space="preserve" font-family="Helvetica-Light,Helvetica" font-size="50.0" fill="#6FBF40" transform="matrix(1.00, 0.00, -0.00, -1.00, 712.7, 939.7)">e</text><text xml:space="preserve" font-family="Helvetica-Light,Helvetica" font-size="50.0" fill="#6FBF40" transform="matrix(1.00, 0.00, -0.00, -1.00, 740.5, 939.7)"> </text><text xml:space="preserve" font-family="Helvetica-Light,Helvetica" font-size="50.0" fill="#6FBF40" transform="matrix(1.00, 0.00, -0.00, -1.00, 754.4, 939.7)">p</text><text xml:space="preserve" font-family="Helvetica-Light,Helvetica" font-size="50.0" fill="#6FBF40" transform="matrix(1.00, 0.00, -0.00, -1.00, 784.9, 939.7)">r</text><text xml:space="preserve" font-family="Helvetica-Light,Helvetica" font-size="50.0" fill="#6FBF40" transform="matrix(1.00, 0.00, -0.00, -1.00, 800.7, 939.7)">o</text><text xml:space="preserve" font-family="Helvetica-Light,Helvetica" font-size="50.0" fill="#6FBF40" transform="matrix(1.00, 0.00, -0.00, -1.00, 828.5, 939.7)">p</text><text xml:space="preserve" font-family="Helvetica-Light,Helvetica" font-size="50.0" fill="#6FBF40" transform="matrix(1.00, 0.00, -0.00, -1.00, 859.0, 939.7)">e</text><text xml:space="preserve" font-family="Helvetica-Light,Helvetica" font-size="50.0" fill="#6FBF40" transform="matrix(1.00, 0.00, -0.00, -1.00, 886.8, 939.7)">r</text><text xml:space="preserve" font-family="Helvetica-Light,Helvetica" font-size="50.0" fill="#6FBF40" transform="matrix(1.00, 0.00, -0.00, -1.00, 904.4, 939.7)">t</text><text xml:space="preserve" font-family="Helvetica-Light,Helvetica" font-size="50.0" fill="#6FBF40" transform="matrix(1.00, 0.00, -0.00, -1.00, 918.3, 939.7)">i</text><text xml:space="preserve" font-family="Helvetica-Light,Helvetica" font-size="50.0" fill="#6FBF40" transform="matrix(1.00, 0.00, -0.00, -1.00, 929.4, 939.7)">e</text><text xml:space="preserve" font-family="Helvetica-Light,Helvetica" font-size="50.0" fill="#6FBF40" transform="matrix(1.00, 0.00, -0.00, -1.00, 957.2, 939.7)">s</text><text xml:space="preserve" font-family="Helvetica-Light,Helvetica" font-size="50.0" fill="#6FBF40" transform="matrix(1.00, 0.00, -0.00, -1.00, 982.2, 939.7)"> </text><text xml:space="preserve" font-family="Helvetica-Light,Helvetica" font-size="50.0" fill="#6FBF40" transform="matrix(1.00, 0.00, -0.00, -1.00, 996.1, 939.7)">t</text><text xml:space="preserve" font-family="Helvetica-Light,Helvetica" font-size="50.0" fill="#6FBF40" transform="matrix(1.00, 0.00, -0.00, -1.00, 1010.0, 939.7)">h</text><text xml:space="preserve" font-family="Helvetica-Light,Helvetica" font-size="50.0" fill="#6FBF40" transform="matrix(1.00, 0.00, -0.00, -1.00, 1037.8, 939.7)">a</text><text xml:space="preserve" font-family="Helvetica-Light,Helvetica" font-size="50.0" fill="#6FBF40" transform="matrix(1.00, 0.00, -0.00, -1.00, 1065.6, 939.7)">t</text><text xml:space="preserve" font-family="Helvetica-Light,Helvetica" font-size="50.0" fill="#6FBF40" transform="matrix(1.00, 0.00, -0.00, -1.00, 1079.5, 939.7)"> </text><text xml:space="preserve" font-family="Helvetica-Light,Helvetica" font-size="50.0" fill="#6FBF40" transform="matrix(1.00, 0.00, -0.00, -1.00, 1093.4, 939.7)">d</text><text xml:space="preserve" font-family="Helvetica-Light,Helvetica" font-size="50.0" fill="#6FBF40" transform="matrix(1.00, 0.00, -0.00, -1.00, 1123.9, 939.7)">e</text><text xml:space="preserve" font-family="Helvetica-Light,Helvetica" font-size="50.0" fill="#6FBF40" transform="matrix(1.00, 0.00, -0.00, -1.00, 1151.7, 939.7)">s</text><text xml:space="preserve" font-family="Helvetica-Light,Helvetica" font-size="50.0" fill="#6FBF40" transform="matrix(1.00, 0.00, -0.00, -1.00, 1176.7, 939.7)">c</text><text xml:space="preserve" font-family="Helvetica-Light,Helvetica" font-size="50.0" fill="#6FBF40" transform="matrix(1.00, 0.00, -0.00, -1.00, 1204.5, 939.7)">r</text><text xml:space="preserve" font-family="Helvetica-Light,Helvetica" font-size="50.0" fill="#6FBF40" transform="matrix(1.00, 0.00, -0.00, -1.00, 1221.2, 939.7)">i</text><text xml:space="preserve" font-family="Helvetica-Light,Helvetica" font-size="50.0" fill="#6FBF40" transform="matrix(1.00, 0.00, -0.00, -1.00, 1232.3, 939.7)">b</text><text xml:space="preserve" font-family="Helvetica-Light,Helvetica" font-size="50.0" fill="#6FBF40" transform="matrix(1.00, 0.00, -0.00, -1.00, 1262.8, 939.7)">e</text><text xml:space="preserve" font-family="Helvetica-Light,Helvetica" font-size="50.0" fill="#6FBF40" transform="matrix(1.00, 0.00, -0.00, -1.00, 1290.6, 939.7)"> </text><text xml:space="preserve" font-family="Helvetica-Light,Helvetica" font-size="50.0" fill="#6FBF40" transform="matrix(1.00, 0.00, -0.00, -1.00, 1304.5, 939.7)">t</text><text xml:space="preserve" font-family="Helvetica-Light,Helvetica" font-size="50.0" fill="#6FBF40" transform="matrix(1.00, 0.00, -0.00, -1.00, 1318.4, 939.7)">h</text><text xml:space="preserve" font-family="Helvetica-Light,Helvetica" font-size="50.0" fill="#6FBF40" transform="matrix(1.00, 0.00, -0.00, -1.00, 1346.2, 939.7)">e</text><text xml:space="preserve" font-family="Helvetica-Light,Helvetica" font-size="50.0" fill="#6FBF40" transform="matrix(1.00, 0.00, -0.00, -1.00, 1374.0, 939.7)"> </text><text xml:space="preserve" font-family="Helvetica-Light,Helvetica" font-size="50.0" fill="#6FBF40" transform="matrix(1.00, 0.00, -0.00, -1.00, 1387.9, 939.7)">e</text><text xml:space="preserve" font-family="Helvetica-Light,Helvetica" font-size="50.0" fill="#6FBF40" transform="matrix(1.00, 0.00, -0.00, -1.00, 1415.7, 939.7)">n</text><text xml:space="preserve" font-family="Helvetica-Light,Helvetica" font-size="50.0" fill="#6FBF40" transform="matrix(1.00, 0.00, -0.00, -1.00, 1443.5, 939.7)">t</text><text xml:space="preserve" font-family="Helvetica-Light,Helvetica" font-size="50.0" fill="#6FBF40" transform="matrix(1.00, 0.00, -0.00, -1.00, 1457.4, 939.7)">i</text><text xml:space="preserve" font-family="Helvetica-Light,Helvetica" font-size="50.0" fill="#6FBF40" transform="matrix(1.00, 0.00, -0.00, -1.00, 1468.5, 939.7)">t</text><text xml:space="preserve" font-family="Helvetica-Light,Helvetica" font-size="50.0" fill="#6FBF40" transform="matrix(1.00, 0.00, -0.00, -1.00, 1482.4, 939.7)">y</text><image xlink:href="2DFEDAD54A2BE719F742D88186A7EB4F.png" width="1741.00" height="392.00" transform="matrix(1.00, 0.00, -0.00, -1.00, 79.3, 1041.8)" opacity="0.50"></image><path d="M -0.3 -0.2 L 1732.7 -0.2 L 1732.7 383.8 L -0.3 383.8 Z M 0.0 0.0 " fill="none" stroke="#6FBF40" stroke-width="2.00" transform="matrix(1.00, 0.00, 0.00, -1.00, 83.3, 1039.8)"></path></g></svg>