<?xml version="1.0" encoding="UTF-8" standalone="no"?><svg xmlns="http://www.w3.org/2000/svg" xmlns:xlink="http://www.w3.org/1999/xlink" clip-rule="evenodd" stroke-miterlimit="10" viewBox="0 0 1920 1080"><desc>SVG generated by Keynote</desc><defs></defs><g transform="matrix(1.00, 0.00, -0.00, -1.00, 0.0, 1080.0)"><path d="M 0.0 1080.0 L 1920.0 1080.0 L 1920.0 0.0 L 0.0 0.0 Z M 0.0 1080.0 " fill="#FEFFFF"></path><text xml:space="preserve" font-family="Helvetica-Bold,Helvetica" font-weight="bold" font-size="60.5" fill="#000000" transform="matrix(1.00, 0.00, -0.00, -1.00, 850.8, 698.8)">S</text><text xml:space="preserve" font-family="Helvetica-Bold,Helvetica" font-weight="bold" font-size="60.5" fill="#000000" transform="matrix(1.00, 0.00, -0.00, -1.00, 891.1, 698.8)">t</text><text xml:space="preserve" font-family="Helvetica-Bold,Helvetica" font-weight="bold" font-size="60.5" fill="#000000" transform="matrix(1.00, 0.00, -0.00, -1.00, 911.2, 698.8)">e</text><text xml:space="preserve" font-family="Helvetica-Bold,Helvetica" font-weight="bold" font-size="60.5" fill="#000000" transform="matrix(1.00, 0.00, -0.00, -1.00, 944.9, 698.8)">p</text><text xml:space="preserve" font-family="Helvetica-Bold,Helvetica" font-weight="bold" font-size="60.5" fill="#000000" transform="matrix(1.00, 0.00, -0.00, -1.00, 981.8, 698.8)"> </text><text xml:space="preserve" font-family="Helvetica-Bold,Helvetica" font-weight="bold" font-size="60.5" fill="#000000" transform="matrix(1.00, 0.00, -0.00, -1.00, 998.6, 698.8)">3</text><text xml:space="preserve" font-family="Helvetica-Bold,Helvetica" font-weight="bold" font-size="60.5" fill="#000000" transform="matrix(1.00, 0.00, -0.00, -1.00, 1032.3, 698.8)">:</text><text xml:space="preserve" font-family="Helvetica-Light,Helvetica" font-size="60.5" fill="#000000" transform="matrix(1.00, 0.00, -0.00, -1.00, 1052.4, 698.8)"> </text><text xml:space="preserve" font-family="Helvetica-Light,Helvetica" font-size="60.5" fill="#000000" transform="matrix(1.00, 0.00, -0.00, -1.00, 1069.2, 698.8)">T</text><text xml:space="preserve" font-family="Helvetica-Light,Helvetica" font-size="60.5" fill="#000000" transform="matrix(1.00, 0.00, -0.00, -1.00, 1097.8, 698.8)">y</text><text xml:space="preserve" font-family="Helvetica-Light,Helvetica" font-size="60.5" fill="#000000" transform="matrix(1.00, 0.00, -0.00, -1.00, 1128.0, 698.8)">p</text><text xml:space="preserve" font-family="Helvetica-Light,Helvetica" font-size="60.5" fill="#000000" transform="matrix(1.00, 0.00, -0.00, -1.00, 1165.0, 698.8)">i</text><text xml:space="preserve" font-family="Helvetica-Light,Helvetica" font-size="60.5" fill="#000000" transform="matrix(1.00, 0.00, -0.00, -1.00, 1178.4, 698.8)">n</text><text xml:space="preserve" font-family="Helvetica-Light,Helvetica" font-size="60.5" fill="#000000" transform="matrix(1.00, 0.00, -0.00, -1.00, 1212.0, 698.8)">g</text><text xml:space="preserve" font-family="Helvetica-Light,Helvetica" font-size="60.5" fill="#000000" transform="matrix(1.00, 0.00, -0.00, -1.00, 1249.0, 698.8)"> </text><text xml:space="preserve" font-family="Helvetica-Light,Helvetica" font-size="60.5" fill="#000000" transform="matrix(1.00, 0.00, -0.00, -1.00, 1265.8, 698.8)">a</text><text xml:space="preserve" font-family="Helvetica-Light,Helvetica" font-size="60.5" fill="#000000" transform="matrix(1.00, 0.00, -0.00, -1.00, 1299.4, 698.8)">n</text><text xml:space="preserve" font-family="Helvetica-Light,Helvetica" font-size="60.5" fill="#000000" transform="matrix(1.00, 0.00, -0.00, -1.00, 1333.0, 698.8)">d</text><text xml:space="preserve" font-family="Helvetica-Light,Helvetica" font-size="60.5" fill="#000000" transform="matrix(1.00, 0.00, -0.00, -1.00, 1370.0, 698.8)"> </text><text xml:space="preserve" font-family="Helvetica-Light,Helvetica" font-size="60.5" fill="#000000" transform="matrix(1.00, 0.00, -0.00, -1.00, 1386.8, 698.8)">s</text><text xml:space="preserve" font-family="Helvetica-Light,Helvetica" font-size="60.5" fill="#000000" transform="matrix(1.00, 0.00, -0.00, -1.00, 1417.0, 698.8)">e</text><text xml:space="preserve" font-family="Helvetica-Light,Helvetica" font-size="60.5" fill="#000000" transform="matrix(1.00, 0.00, -0.00, -1.00, 1450.7, 698.8)">l</text><text xml:space="preserve" font-family="Helvetica-Light,Helvetica" font-size="60.5" fill="#000000" transform="matrix(1.00, 0.00, -0.00, -1.00, 1464.1, 698.8)">e</text><text xml:space="preserve" font-family="Helvetica-Light,Helvetica" font-size="60.5" fill="#000000" transform="matrix(1.00, 0.00, -0.00, -1.00, 1497.7, 698.8)">c</text><text xml:space="preserve" font-family="Helvetica-Light,Helvetica" font-size="60.5" fill="#000000" transform="matrix(1.00, 0.00, -0.00, -1.00, 1531.3, 698.8)">t</text><text xml:space="preserve" font-family="Helvetica-Light,Helvetica" font-size="60.5" fill="#000000" transform="matrix(1.00, 0.00, -0.00, -1.00, 1548.2, 698.8)">i</text><text xml:space="preserve" font-family="Helvetica-Light,Helvetica" font-size="60.5" fill="#000000" transform="matrix(1.00, 0.00, -0.00, -1.00, 1561.6, 698.8)">n</text><text xml:space="preserve" font-family="Helvetica-Light,Helvetica" font-size="60.5" fill="#000000" transform="matrix(1.00, 0.00, -0.00, -1.00, 1595.2, 698.8)">g</text><text xml:space="preserve" font-family="Helvetica-Light,Helvetica" font-size="38.6" fill="#000000" transform="matrix(1.00, 0.00, -0.00, -1.00, 850.8, 559.7)">•</text><text xml:space="preserve" font-family="Helvetica-Light,Helvetica" font-size="51.5" fill="#000000" transform="matrix(1.00, 0.00, -0.00, -1.00, 900.3, 555.2)">J</text><text xml:space="preserve" font-family="Helvetica-Light,Helvetica" font-size="51.5" fill="#000000" transform="matrix(1.00, 0.00, -0.00, -1.00, 926.0, 555.2)">u</text><text xml:space="preserve" font-family="Helvetica-Light,Helvetica" font-size="51.5" fill="#000000" transform="matrix(1.00, 0.00, -0.00, -1.00, 954.6, 555.2)">s</text><text xml:space="preserve" font-family="Helvetica-Light,Helvetica" font-size="51.5" fill="#000000" transform="matrix(1.00, 0.00, -0.00, -1.00, 980.4, 555.2)">t</text><text xml:space="preserve" font-family="Helvetica-Light,Helvetica" font-size="51.5" fill="#000000" transform="matrix(1.00, 0.00, -0.00, -1.00, 994.7, 555.2)"> </text><text xml:space="preserve" font-family="Helvetica-Light,Helvetica" font-size="51.5" fill="#000000" transform="matrix(1.00, 0.00, -0.00, -1.00, 1009.0, 555.2)">t</text><text xml:space="preserve" font-family="Helvetica-Light,Helvetica" font-size="51.5" fill="#000000" transform="matrix(1.00, 0.00, -0.00, -1.00, 1023.3, 555.2)">y</text><text xml:space="preserve" font-family="Helvetica-Light,Helvetica" font-size="51.5" fill="#000000" transform="matrix(1.00, 0.00, -0.00, -1.00, 1049.0, 555.2)">p</text><text xml:space="preserve" font-family="Helvetica-Light,Helvetica" font-size="51.5" fill="#000000" transform="matrix(1.00, 0.00, -0.00, -1.00, 1080.5, 555.2)">e</text><text xml:space="preserve" font-family="Helvetica-Light,Helvetica" font-size="51.5" fill="#000000" transform="matrix(1.00, 0.00, -0.00, -1.00, 1109.1, 555.2)"> </text><text xml:space="preserve" font-family="Helvetica-Light,Helvetica" font-size="51.5" fill="#000000" transform="matrix(1.00, 0.00, -0.00, -1.00, 1123.4, 555.2)">a</text><text xml:space="preserve" font-family="Helvetica-Light,Helvetica" font-size="51.5" fill="#000000" transform="matrix(1.00, 0.00, -0.00, -1.00, 1152.1, 555.2)">s</text><text xml:space="preserve" font-family="Helvetica-Light,Helvetica" font-size="51.5" fill="#000000" transform="matrix(1.00, 0.00, -0.00, -1.00, 1177.8, 555.2)"> </text><text xml:space="preserve" font-family="Helvetica-Light,Helvetica" font-size="51.5" fill="#000000" transform="matrix(1.00, 0.00, -0.00, -1.00, 1192.1, 555.2)">i</text><text xml:space="preserve" font-family="Helvetica-Light,Helvetica" font-size="51.5" fill="#000000" transform="matrix(1.00, 0.00, -0.00, -1.00, 1203.5, 555.2)">f</text><text xml:space="preserve" font-family="Helvetica-Light,Helvetica" font-size="51.5" fill="#000000" transform="matrix(1.00, 0.00, -0.00, -1.00, 1217.8, 555.2)"> </text><text xml:space="preserve" font-family="Helvetica-Light,Helvetica" font-size="51.5" fill="#000000" transform="matrix(1.00, 0.00, -0.00, -1.00, 1232.2, 555.2)">y</text><text xml:space="preserve" font-family="Helvetica-Light,Helvetica" font-size="51.5" fill="#000000" transform="matrix(1.00, 0.00, -0.00, -1.00, 1257.9, 555.2)">o</text><text xml:space="preserve" font-family="Helvetica-Light,Helvetica" font-size="51.5" fill="#000000" transform="matrix(1.00, 0.00, -0.00, -1.00, 1286.5, 555.2)">u</text><text xml:space="preserve" font-family="Helvetica-Light,Helvetica" font-size="51.5" fill="#000000" transform="matrix(1.00, 0.00, -0.00, -1.00, 1315.1, 555.2)"> </text><text xml:space="preserve" font-family="Helvetica-Light,Helvetica" font-size="51.5" fill="#000000" transform="matrix(1.00, 0.00, -0.00, -1.00, 1329.5, 555.2)">r</text><text xml:space="preserve" font-family="Helvetica-Light,Helvetica" font-size="51.5" fill="#000000" transform="matrix(1.00, 0.00, -0.00, -1.00, 1345.7, 555.2)">e</text><text xml:space="preserve" font-family="Helvetica-Light,Helvetica" font-size="51.5" fill="#000000" transform="matrix(1.00, 0.00, -0.00, -1.00, 1374.3, 555.2)">g</text><text xml:space="preserve" font-family="Helvetica-Light,Helvetica" font-size="51.5" fill="#000000" transform="matrix(1.00, 0.00, -0.00, -1.00, 1405.7, 555.2)">u</text><text xml:space="preserve" font-family="Helvetica-Light,Helvetica" font-size="51.5" fill="#000000" transform="matrix(1.00, 0.00, -0.00, -1.00, 1434.4, 555.2)">l</text><text xml:space="preserve" font-family="Helvetica-Light,Helvetica" font-size="51.5" fill="#000000" transform="matrix(1.00, 0.00, -0.00, -1.00, 1445.8, 555.2)">a</text><text xml:space="preserve" font-family="Helvetica-Light,Helvetica" font-size="51.5" fill="#000000" transform="matrix(1.00, 0.00, -0.00, -1.00, 1474.4, 555.2)">r</text><text xml:space="preserve" font-family="Helvetica-Light,Helvetica" font-size="51.5" fill="#000000" transform="matrix(1.00, 0.00, -0.00, -1.00, 1491.6, 555.2)">l</text><text xml:space="preserve" font-family="Helvetica-Light,Helvetica" font-size="51.5" fill="#000000" transform="matrix(1.00, 0.00, -0.00, -1.00, 1503.0, 555.2)">y</text><text xml:space="preserve" font-family="Helvetica-Light,Helvetica" font-size="51.5" fill="#000000" transform="matrix(1.00, 0.00, -0.00, -1.00, 1528.7, 555.2)"> </text><text xml:space="preserve" font-family="Helvetica-Light,Helvetica" font-size="51.5" fill="#000000" transform="matrix(1.00, 0.00, -0.00, -1.00, 900.3, 493.2)">t</text><text xml:space="preserve" font-family="Helvetica-Light,Helvetica" font-size="51.5" fill="#000000" transform="matrix(1.00, 0.00, -0.00, -1.00, 914.6, 493.2)">y</text><text xml:space="preserve" font-family="Helvetica-Light,Helvetica" font-size="51.5" fill="#000000" transform="matrix(1.00, 0.00, -0.00, -1.00, 940.3, 493.2)">p</text><text xml:space="preserve" font-family="Helvetica-Light,Helvetica" font-size="51.5" fill="#000000" transform="matrix(1.00, 0.00, -0.00, -1.00, 971.8, 493.2)">e</text><text xml:space="preserve" font-family="Helvetica-Light,Helvetica" font-size="51.5" fill="#000000" transform="matrix(1.00, 0.00, -0.00, -1.00, 1000.4, 493.2)"> </text><text xml:space="preserve" font-family="Helvetica-Light,Helvetica" font-size="51.5" fill="#000000" transform="matrix(1.00, 0.00, -0.00, -1.00, 1014.7, 493.2)">o</text><text xml:space="preserve" font-family="Helvetica-Light,Helvetica" font-size="51.5" fill="#000000" transform="matrix(1.00, 0.00, -0.00, -1.00, 1043.3, 493.2)">n</text><text xml:space="preserve" font-family="Helvetica-Light,Helvetica" font-size="51.5" fill="#000000" transform="matrix(1.00, 0.00, -0.00, -1.00, 1072.0, 493.2)"> </text><text xml:space="preserve" font-family="Helvetica-Light,Helvetica" font-size="51.5" fill="#000000" transform="matrix(1.00, 0.00, -0.00, -1.00, 1086.3, 493.2)">y</text><text xml:space="preserve" font-family="Helvetica-Light,Helvetica" font-size="51.5" fill="#000000" transform="matrix(1.00, 0.00, -0.00, -1.00, 1112.0, 493.2)">o</text><text xml:space="preserve" font-family="Helvetica-Light,Helvetica" font-size="51.5" fill="#000000" transform="matrix(1.00, 0.00, -0.00, -1.00, 1140.6, 493.2)">u</text><text xml:space="preserve" font-family="Helvetica-Light,Helvetica" font-size="51.5" fill="#000000" transform="matrix(1.00, 0.00, -0.00, -1.00, 1169.2, 493.2)">r</text><text xml:space="preserve" font-family="Helvetica-Light,Helvetica" font-size="51.5" fill="#000000" transform="matrix(1.00, 0.00, -0.00, -1.00, 1186.4, 493.2)"> </text><text xml:space="preserve" font-family="Helvetica-Light,Helvetica" font-size="51.5" fill="#000000" transform="matrix(1.00, 0.00, -0.00, -1.00, 1200.7, 493.2)">k</text><text xml:space="preserve" font-family="Helvetica-Light,Helvetica" font-size="51.5" fill="#000000" transform="matrix(1.00, 0.00, -0.00, -1.00, 1226.4, 493.2)">e</text><text xml:space="preserve" font-family="Helvetica-Light,Helvetica" font-size="51.5" fill="#000000" transform="matrix(1.00, 0.00, -0.00, -1.00, 1255.1, 493.2)">y</text><text xml:space="preserve" font-family="Helvetica-Light,Helvetica" font-size="51.5" fill="#000000" transform="matrix(1.00, 0.00, -0.00, -1.00, 1280.8, 493.2)">b</text><text xml:space="preserve" font-family="Helvetica-Light,Helvetica" font-size="51.5" fill="#000000" transform="matrix(1.00, 0.00, -0.00, -1.00, 1312.3, 493.2)">o</text><text xml:space="preserve" font-family="Helvetica-Light,Helvetica" font-size="51.5" fill="#000000" transform="matrix(1.00, 0.00, -0.00, -1.00, 1340.9, 493.2)">a</text><text xml:space="preserve" font-family="Helvetica-Light,Helvetica" font-size="51.5" fill="#000000" transform="matrix(1.00, 0.00, -0.00, -1.00, 1369.5, 493.2)">r</text><text xml:space="preserve" font-family="Helvetica-Light,Helvetica" font-size="51.5" fill="#000000" transform="matrix(1.00, 0.00, -0.00, -1.00, 1385.7, 493.2)">d</text><text xml:space="preserve" font-family="Helvetica-Light,Helvetica" font-size="51.5" fill="#000000" transform="matrix(1.00, 0.00, -0.00, -1.00, 1417.2, 493.2)"> </text><text xml:space="preserve" font-family="Helvetica-Light,Helvetica" font-size="38.6" fill="#000000" transform="matrix(1.00, 0.00, -0.00, -1.00, 850.8, 377.3)">•</text><text xml:space="preserve" font-family="Helvetica-Light,Helvetica" font-size="51.5" fill="#000000" transform="matrix(1.00, 0.00, -0.00, -1.00, 900.3, 372.8)">P</text><text xml:space="preserve" font-family="Helvetica-Light,Helvetica" font-size="51.5" fill="#000000" transform="matrix(1.00, 0.00, -0.00, -1.00, 931.7, 372.8)">a</text><text xml:space="preserve" font-family="Helvetica-Light,Helvetica" font-size="51.5" fill="#000000" transform="matrix(1.00, 0.00, -0.00, -1.00, 960.3, 372.8)">g</text><text xml:space="preserve" font-family="Helvetica-Light,Helvetica" font-size="51.5" fill="#000000" transform="matrix(1.00, 0.00, -0.00, -1.00, 991.8, 372.8)">i</text><text xml:space="preserve" font-family="Helvetica-Light,Helvetica" font-size="51.5" fill="#000000" transform="matrix(1.00, 0.00, -0.00, -1.00, 1003.2, 372.8)">n</text><text xml:space="preserve" font-family="Helvetica-Light,Helvetica" font-size="51.5" fill="#000000" transform="matrix(1.00, 0.00, -0.00, -1.00, 1031.8, 372.8)">a</text><text xml:space="preserve" font-family="Helvetica-Light,Helvetica" font-size="51.5" fill="#000000" transform="matrix(1.00, 0.00, -0.00, -1.00, 1060.5, 372.8)">t</text><text xml:space="preserve" font-family="Helvetica-Light,Helvetica" font-size="51.5" fill="#000000" transform="matrix(1.00, 0.00, -0.00, -1.00, 1074.8, 372.8)">e</text><text xml:space="preserve" font-family="Helvetica-Light,Helvetica" font-size="51.5" fill="#000000" transform="matrix(1.00, 0.00, -0.00, -1.00, 1103.4, 372.8)"> </text><text xml:space="preserve" font-family="Helvetica-Light,Helvetica" font-size="51.5" fill="#000000" transform="matrix(1.00, 0.00, -0.00, -1.00, 1117.7, 372.8)">t</text><text xml:space="preserve" font-family="Helvetica-Light,Helvetica" font-size="51.5" fill="#000000" transform="matrix(1.00, 0.00, -0.00, -1.00, 1132.0, 372.8)">h</text><text xml:space="preserve" font-family="Helvetica-Light,Helvetica" font-size="51.5" fill="#000000" transform="matrix(1.00, 0.00, -0.00, -1.00, 1160.7, 372.8)">r</text><text xml:space="preserve" font-family="Helvetica-Light,Helvetica" font-size="51.5" fill="#000000" transform="matrix(1.00, 0.00, -0.00, -1.00, 1176.9, 372.8)">o</text><text xml:space="preserve" font-family="Helvetica-Light,Helvetica" font-size="51.5" fill="#000000" transform="matrix(1.00, 0.00, -0.00, -1.00, 1205.5, 372.8)">u</text><text xml:space="preserve" font-family="Helvetica-Light,Helvetica" font-size="51.5" fill="#000000" transform="matrix(1.00, 0.00, -0.00, -1.00, 1234.1, 372.8)">g</text><text xml:space="preserve" font-family="Helvetica-Light,Helvetica" font-size="51.5" fill="#000000" transform="matrix(1.00, 0.00, -0.00, -1.00, 1265.6, 372.8)">h</text><text xml:space="preserve" font-family="Helvetica-Light,Helvetica" font-size="51.5" fill="#000000" transform="matrix(1.00, 0.00, -0.00, -1.00, 1294.2, 372.8)"> </text><text xml:space="preserve" font-family="Helvetica-Light,Helvetica" font-size="51.5" fill="#000000" transform="matrix(1.00, 0.00, -0.00, -1.00, 1308.5, 372.8)">t</text><text xml:space="preserve" font-family="Helvetica-Light,Helvetica" font-size="51.5" fill="#000000" transform="matrix(1.00, 0.00, -0.00, -1.00, 1322.8, 372.8)">h</text><text xml:space="preserve" font-family="Helvetica-Light,Helvetica" font-size="51.5" fill="#000000" transform="matrix(1.00, 0.00, -0.00, -1.00, 1351.4, 372.8)">e</text><text xml:space="preserve" font-family="Helvetica-Light,Helvetica" font-size="51.5" fill="#000000" transform="matrix(1.00, 0.00, -0.00, -1.00, 1380.1, 372.8)"> </text><text xml:space="preserve" font-family="Helvetica-Light,Helvetica" font-size="51.5" fill="#000000" transform="matrix(1.00, 0.00, -0.00, -1.00, 1394.4, 372.8)">s</text><text xml:space="preserve" font-family="Helvetica-Light,Helvetica" font-size="51.5" fill="#000000" transform="matrix(1.00, 0.00, -0.00, -1.00, 1420.1, 372.8)">u</text><text xml:space="preserve" font-family="Helvetica-Light,Helvetica" font-size="51.5" fill="#000000" transform="matrix(1.00, 0.00, -0.00, -1.00, 1448.7, 372.8)">g</text><text xml:space="preserve" font-family="Helvetica-Light,Helvetica" font-size="51.5" fill="#000000" transform="matrix(1.00, 0.00, -0.00, -1.00, 1480.2, 372.8)">g</text><text xml:space="preserve" font-family="Helvetica-Light,Helvetica" font-size="51.5" fill="#000000" transform="matrix(1.00, 0.00, -0.00, -1.00, 1511.6, 372.8)">e</text><text xml:space="preserve" font-family="Helvetica-Light,Helvetica" font-size="51.5" fill="#000000" transform="matrix(1.00, 0.00, -0.00, -1.00, 1540.3, 372.8)">s</text><text xml:space="preserve" font-family="Helvetica-Light,Helvetica" font-size="51.5" fill="#000000" transform="matrix(1.00, 0.00, -0.00, -1.00, 1566.0, 372.8)">t</text><text xml:space="preserve" font-family="Helvetica-Light,Helvetica" font-size="51.5" fill="#000000" transform="matrix(1.00, 0.00, -0.00, -1.00, 1580.3, 372.8)">e</text><text xml:space="preserve" font-family="Helvetica-Light,Helvetica" font-size="51.5" fill="#000000" transform="matrix(1.00, 0.00, -0.00, -1.00, 1608.9, 372.8)">d</text><text xml:space="preserve" font-family="Helvetica-Light,Helvetica" font-size="51.5" fill="#000000" transform="matrix(1.00, 0.00, -0.00, -1.00, 1640.4, 372.8)"> </text><text xml:space="preserve" font-family="Helvetica-Light,Helvetica" font-size="51.5" fill="#000000" transform="matrix(1.00, 0.00, -0.00, -1.00, 900.3, 310.8)">w</text><text xml:space="preserve" font-family="Helvetica-Light,Helvetica" font-size="51.5" fill="#000000" transform="matrix(1.00, 0.00, -0.00, -1.00, 937.4, 310.8)">o</text><text xml:space="preserve" font-family="Helvetica-Light,Helvetica" font-size="51.5" fill="#000000" transform="matrix(1.00, 0.00, -0.00, -1.00, 966.1, 310.8)">r</text><text xml:space="preserve" font-family="Helvetica-Light,Helvetica" font-size="51.5" fill="#000000" transform="matrix(1.00, 0.00, -0.00, -1.00, 982.3, 310.8)">d</text><text xml:space="preserve" font-family="Helvetica-Light,Helvetica" font-size="51.5" fill="#000000" transform="matrix(1.00, 0.00, -0.00, -1.00, 1013.7, 310.8)">s</text><text xml:space="preserve" font-family="Helvetica-Light,Helvetica" font-size="51.5" fill="#000000" transform="matrix(1.00, 0.00, -0.00, -1.00, 1039.5, 310.8)"> </text><text xml:space="preserve" font-family="Helvetica-Light,Helvetica" font-size="51.5" fill="#000000" transform="matrix(1.00, 0.00, -0.00, -1.00, 1053.8, 310.8)">w</text><text xml:space="preserve" font-family="Helvetica-Light,Helvetica" font-size="51.5" fill="#000000" transform="matrix(1.00, 0.00, -0.00, -1.00, 1090.9, 310.8)">i</text><text xml:space="preserve" font-family="Helvetica-Light,Helvetica" font-size="51.5" fill="#000000" transform="matrix(1.00, 0.00, -0.00, -1.00, 1102.4, 310.8)">t</text><text xml:space="preserve" font-family="Helvetica-Light,Helvetica" font-size="51.5" fill="#000000" transform="matrix(1.00, 0.00, -0.00, -1.00, 1116.7, 310.8)">h</text><text xml:space="preserve" font-family="Helvetica-Light,Helvetica" font-size="51.5" fill="#000000" transform="matrix(1.00, 0.00, -0.00, -1.00, 1145.3, 310.8)"> </text><text xml:space="preserve" font-family="Helvetica-Light,Helvetica" font-size="51.5" fill="#000000" transform="matrix(1.00, 0.00, -0.00, -1.00, 1159.6, 310.8)">y</text><text xml:space="preserve" font-family="Helvetica-Light,Helvetica" font-size="51.5" fill="#000000" transform="matrix(1.00, 0.00, -0.00, -1.00, 1185.4, 310.8)">o</text><text xml:space="preserve" font-family="Helvetica-Light,Helvetica" font-size="51.5" fill="#000000" transform="matrix(1.00, 0.00, -0.00, -1.00, 1214.0, 310.8)">u</text><text xml:space="preserve" font-family="Helvetica-Light,Helvetica" font-size="51.5" fill="#000000" transform="matrix(1.00, 0.00, -0.00, -1.00, 1242.6, 310.8)">r</text><text xml:space="preserve" font-family="Helvetica-Light,Helvetica" font-size="51.5" fill="#000000" transform="matrix(1.00, 0.00, -0.00, -1.00, 1259.7, 310.8)"> </text><text xml:space="preserve" font-family="Helvetica-Light,Helvetica" font-size="51.5" fill="#000000" transform="matrix(1.00, 0.00, -0.00, -1.00, 1274.1, 310.8)">t</text><text xml:space="preserve" font-family="Helvetica-Light,Helvetica" font-size="51.5" fill="#000000" transform="matrix(1.00, 0.00, -0.00, -1.00, 1288.4, 310.8)">h</text><text xml:space="preserve" font-family="Helvetica-Light,Helvetica" font-size="51.5" fill="#000000" transform="matrix(1.00, 0.00, -0.00, -1.00, 1317.0, 310.8)">u</text><text xml:space="preserve" font-family="Helvetica-Light,Helvetica" font-size="51.5" fill="#000000" transform="matrix(1.00, 0.00, -0.00, -1.00, 1345.6, 310.8)">m</text><text xml:space="preserve" font-family="Helvetica-Light,Helvetica" font-size="51.5" fill="#000000" transform="matrix(1.00, 0.00, -0.00, -1.00, 1388.5, 310.8)">b</text><text xml:space="preserve" font-family="Helvetica-Light,Helvetica" font-size="51.5" fill="#000000" transform="matrix(1.00, 0.00, -0.00, -1.00, 1420.0, 310.8)">s</text><image xlink:href="678CB89A2ABBA91150CF817A3DFF0688.png" width="405.00" height="720.00" transform="matrix(1.50, 0.00, -0.00, -1.50, -4.3, 1080.0)"></image></g></svg>