<?xml version="1.0" encoding="UTF-8" standalone="no"?><svg xmlns="http://www.w3.org/2000/svg" xmlns:xlink="http://www.w3.org/1999/xlink" clip-rule="evenodd" stroke-miterlimit="10" viewBox="0 0 1920 1080"><desc>SVG generated by Keynote</desc><defs><pattern id="6A1B03A6-90B6-4DE9-B9E5-B7AE07FB9C74" patternUnits="userSpaceOnUse" width="600" height="600" viewBox="0 0 600 600"><image xlink:href="../../B49DC77F-09BB-449C-9313-EC11A2C405DF/assets/C3C0FC898C94653CAF8AD846D6CCD108.png" width="600.00" height="600.00"></image></pattern><pattern id="5AC97937-3B6E-4FE7-8669-4C493FA63EF1" patternUnits="userSpaceOnUse" width="600" height="600" viewBox="0 0 600 600"><image xlink:href="../../B49DC77F-09BB-449C-9313-EC11A2C405DF/assets/C3C0FC898C94653CAF8AD846D6CCD108.png" width="600.00" height="600.00"></image></pattern><pattern id="26F8E203-96BF-4FE7-8F62-415AF761C479" patternUnits="userSpaceOnUse" width="600" height="600" viewBox="0 0 600 600"><image xlink:href="57C63BC369DF2E161F93135AB5988468.png" width="600.00" height="600.00"></image></pattern></defs><g transform="matrix(1.00, 0.00, -0.00, -1.00, 0.0, 1080.0)"><path d="M 0.0 1080.0 L 1920.0 1080.0 L 1920.0 0.0 L 0.0 0.0 Z M 0.0 1080.0 " fill="#FEFFFF"></path><text xml:space="preserve" font-family="Helvetica-Light,Helvetica" font-size="112.0" fill="#000000" transform="matrix(1.00, 0.00, -0.00, -1.00, 623.9, 873.8)">R</text><text xml:space="preserve" font-family="Helvetica-Light,Helvetica" font-size="112.0" fill="#000000" transform="matrix(1.00, 0.00, -0.00, -1.00, 698.6, 873.8)">e</text><text xml:space="preserve" font-family="Helvetica-Light,Helvetica" font-size="112.0" fill="#000000" transform="matrix(1.00, 0.00, -0.00, -1.00, 760.9, 873.8)">l</text><text xml:space="preserve" font-family="Helvetica-Light,Helvetica" font-size="112.0" fill="#000000" transform="matrix(1.00, 0.00, -0.00, -1.00, 785.7, 873.8)">a</text><text xml:space="preserve" font-family="Helvetica-Light,Helvetica" font-size="112.0" fill="#000000" transform="matrix(1.00, 0.00, -0.00, -1.00, 848.0, 873.8)">t</text><text xml:space="preserve" font-family="Helvetica-Light,Helvetica" font-size="112.0" fill="#000000" transform="matrix(1.00, 0.00, -0.00, -1.00, 879.1, 873.8)">i</text><text xml:space="preserve" font-family="Helvetica-Light,Helvetica" font-size="112.0" fill="#000000" transform="matrix(1.00, 0.00, -0.00, -1.00, 904.0, 873.8)">o</text><text xml:space="preserve" font-family="Helvetica-Light,Helvetica" font-size="112.0" fill="#000000" transform="matrix(1.00, 0.00, -0.00, -1.00, 966.3, 873.8)">n</text><text xml:space="preserve" font-family="Helvetica-Light,Helvetica" font-size="112.0" fill="#000000" transform="matrix(1.00, 0.00, -0.00, -1.00, 1028.5, 873.8)">s</text><text xml:space="preserve" font-family="Helvetica-Light,Helvetica" font-size="112.0" fill="#000000" transform="matrix(1.00, 0.00, -0.00, -1.00, 1084.5, 873.8)">h</text><text xml:space="preserve" font-family="Helvetica-Light,Helvetica" font-size="112.0" fill="#000000" transform="matrix(1.00, 0.00, -0.00, -1.00, 1146.8, 873.8)">i</text><text xml:space="preserve" font-family="Helvetica-Light,Helvetica" font-size="112.0" fill="#000000" transform="matrix(1.00, 0.00, -0.00, -1.00, 1171.7, 873.8)">p</text><text xml:space="preserve" font-family="Helvetica-Light,Helvetica" font-size="112.0" fill="#000000" transform="matrix(1.00, 0.00, -0.00, -1.00, 1240.1, 873.8)">s</text><image xlink:href="79F5741BDED5944A045D87127C253F1E.png" width="317.00" height="227.00" transform="matrix(1.00, 0.00, -0.00, -1.00, 164.6, 527.4)" opacity="0.50"></image><g><clipPath id="clip0x608000ea7860"><path d="M 168.0 526.0 L 479.0 526.0 L 479.0 305.0 L 168.0 305.0 Z M 167.6 526.4 "></path></clipPath><g clip-path="url(#clip0x608000ea7860)"><path d="M 168.0 305.0 L 479.0 305.0 L 479.0 526.0 L 168.0 526.0 Z M 168.0 305.0 " fill="url(#6A1B03A6-90B6-4DE9-B9E5-B7AE07FB9C74)"></path></g></g><g><clipPath id="clip0x6000010b4f40"><path d="M 157.3 305.2 L 488.7 305.2 L 488.7 526.4 L 157.3 526.4 Z M 157.3 305.2 "></path></clipPath><g clip-path="url(#clip0x6000010b4f40)"><text xml:space="preserve" font-family="Helvetica-Bold,Helvetica" font-weight="bold" font-size="57.0" fill="#FEFFFE" transform="matrix(1.00, 0.00, -0.00, -1.00, 220.1, 394.5)">E</text><text xml:space="preserve" font-family="Helvetica-Bold,Helvetica" font-weight="bold" font-size="57.0" fill="#FEFFFE" transform="matrix(1.00, 0.00, -0.00, -1.00, 258.1, 394.5)">n</text><text xml:space="preserve" font-family="Helvetica-Bold,Helvetica" font-weight="bold" font-size="57.0" fill="#FEFFFE" transform="matrix(1.00, 0.00, -0.00, -1.00, 292.9, 394.5)">t</text><text xml:space="preserve" font-family="Helvetica-Bold,Helvetica" font-weight="bold" font-size="57.0" fill="#FEFFFE" transform="matrix(1.00, 0.00, -0.00, -1.00, 311.9, 394.5)">i</text><text xml:space="preserve" font-family="Helvetica-Bold,Helvetica" font-weight="bold" font-size="57.0" fill="#FEFFFE" transform="matrix(1.00, 0.00, -0.00, -1.00, 327.7, 394.5)">t</text><text xml:space="preserve" font-family="Helvetica-Bold,Helvetica" font-weight="bold" font-size="57.0" fill="#FEFFFE" transform="matrix(1.00, 0.00, -0.00, -1.00, 346.7, 394.5)">y</text><text xml:space="preserve" font-family="Helvetica-Bold,Helvetica" font-weight="bold" font-size="57.0" fill="#FEFFFE" transform="matrix(1.00, 0.00, -0.00, -1.00, 378.4, 394.5)"> </text><text xml:space="preserve" font-family="Helvetica-Bold,Helvetica" font-weight="bold" font-size="57.0" fill="#FEFFFE" transform="matrix(1.00, 0.00, -0.00, -1.00, 394.3, 394.5)">1</text></g></g><image xlink:href="38C33C4B0DB84208B0D2E809B500ECD0.png" width="141.00" height="57.00" transform="matrix(1.00, 0.00, -0.00, -1.00, 70.7, 646.5)" opacity="0.50"></image><g><clipPath id="clip0x6000010b5360"><path d="M 188.5 638.1 C 214.8 628.1 214.8 612.0 188.5 602.0 C 162.2 592.1 119.7 592.1 93.4 602.0 C 67.1 612.0 67.1 628.1 93.4 638.1 C 119.7 648.0 162.2 648.0 188.5 638.1 Z M 188.5 638.1 "></path></clipPath><g clip-path="url(#clip0x6000010b5360)"><image xlink:href="../../B49DC77F-09BB-449C-9313-EC11A2C405DF/assets/C3C0FC898C94653CAF8AD846D6CCD108.png" width="600.00" height="600.00" transform="matrix(0.50, 0.00, -0.00, -0.50, 73.7, 645.5)"></image></g></g><g><clipPath id="clip0x6000010b5300"><path d="M 73.7 594.6 L 208.2 594.6 L 208.2 645.5 L 73.7 645.5 Z M 73.7 594.6 "></path></clipPath><g clip-path="url(#clip0x6000010b5300)"><text xml:space="preserve" font-family="Helvetica-Light,Helvetica" font-size="14.0" fill="#FEFFFE" transform="matrix(1.00, 0.00, -0.00, -1.00, 108.7, 614.8)">P</text><text xml:space="preserve" font-family="Helvetica-Light,Helvetica" font-size="14.0" fill="#FEFFFE" transform="matrix(1.00, 0.00, -0.00, -1.00, 117.2, 614.8)">r</text><text xml:space="preserve" font-family="Helvetica-Light,Helvetica" font-size="14.0" fill="#FEFFFE" transform="matrix(1.00, 0.00, -0.00, -1.00, 121.6, 614.8)">o</text><text xml:space="preserve" font-family="Helvetica-Light,Helvetica" font-size="14.0" fill="#FEFFFE" transform="matrix(1.00, 0.00, -0.00, -1.00, 129.4, 614.8)">p</text><text xml:space="preserve" font-family="Helvetica-Light,Helvetica" font-size="14.0" fill="#FEFFFE" transform="matrix(1.00, 0.00, -0.00, -1.00, 138.0, 614.8)">e</text><text xml:space="preserve" font-family="Helvetica-Light,Helvetica" font-size="14.0" fill="#FEFFFE" transform="matrix(1.00, 0.00, -0.00, -1.00, 145.8, 614.8)">r</text><text xml:space="preserve" font-family="Helvetica-Light,Helvetica" font-size="14.0" fill="#FEFFFE" transform="matrix(1.00, 0.00, -0.00, -1.00, 150.7, 614.8)">t</text><text xml:space="preserve" font-family="Helvetica-Light,Helvetica" font-size="14.0" fill="#FEFFFE" transform="matrix(1.00, 0.00, -0.00, -1.00, 154.6, 614.8)">y</text><text xml:space="preserve" font-family="Helvetica-Light,Helvetica" font-size="14.0" fill="#FEFFFE" transform="matrix(1.00, 0.00, -0.00, -1.00, 161.6, 614.8)"> </text><text xml:space="preserve" font-family="Helvetica-Light,Helvetica" font-size="14.0" fill="#FEFFFE" transform="matrix(1.00, 0.00, -0.00, -1.00, 165.4, 614.8)">1</text></g></g><image xlink:href="../../8EB76D3D-0DCD-411E-A37A-1DA3BFD3A87D/assets/38C33C4B0DB84208B0D2E809B500ECD0.png" width="141.00" height="57.00" transform="matrix(1.00, 0.00, -0.00, -1.00, 277.3, 650.7)" opacity="0.50"></image><g><clipPath id="clip0x6000010b5b40"><path d="M 395.2 642.2 C 421.4 632.3 421.4 616.1 395.2 606.2 C 368.9 596.2 326.3 596.2 300.0 606.2 C 273.8 616.1 273.8 632.3 300.0 642.2 C 326.3 652.2 368.9 652.2 395.2 642.2 Z M 395.2 642.2 "></path></clipPath><g clip-path="url(#clip0x6000010b5b40)"><image xlink:href="../../B49DC77F-09BB-449C-9313-EC11A2C405DF/assets/C3C0FC898C94653CAF8AD846D6CCD108.png" width="600.00" height="600.00" transform="matrix(0.50, 0.00, -0.00, -0.50, 280.3, 649.7)"></image></g></g><g><clipPath id="clip0x608000ea7500"><path d="M 280.3 598.7 L 414.9 598.7 L 414.9 649.7 L 280.3 649.7 Z M 280.3 598.7 "></path></clipPath><g clip-path="url(#clip0x608000ea7500)"><text xml:space="preserve" font-family="Helvetica-Light,Helvetica" font-size="14.0" fill="#FEFFFE" transform="matrix(1.00, 0.00, -0.00, -1.00, 315.3, 618.9)">P</text><text xml:space="preserve" font-family="Helvetica-Light,Helvetica" font-size="14.0" fill="#FEFFFE" transform="matrix(1.00, 0.00, -0.00, -1.00, 323.9, 618.9)">r</text><text xml:space="preserve" font-family="Helvetica-Light,Helvetica" font-size="14.0" fill="#FEFFFE" transform="matrix(1.00, 0.00, -0.00, -1.00, 328.3, 618.9)">o</text><text xml:space="preserve" font-family="Helvetica-Light,Helvetica" font-size="14.0" fill="#FEFFFE" transform="matrix(1.00, 0.00, -0.00, -1.00, 336.1, 618.9)">p</text><text xml:space="preserve" font-family="Helvetica-Light,Helvetica" font-size="14.0" fill="#FEFFFE" transform="matrix(1.00, 0.00, -0.00, -1.00, 344.6, 618.9)">e</text><text xml:space="preserve" font-family="Helvetica-Light,Helvetica" font-size="14.0" fill="#FEFFFE" transform="matrix(1.00, 0.00, -0.00, -1.00, 352.4, 618.9)">r</text><text xml:space="preserve" font-family="Helvetica-Light,Helvetica" font-size="14.0" fill="#FEFFFE" transform="matrix(1.00, 0.00, -0.00, -1.00, 357.3, 618.9)">t</text><text xml:space="preserve" font-family="Helvetica-Light,Helvetica" font-size="14.0" fill="#FEFFFE" transform="matrix(1.00, 0.00, -0.00, -1.00, 361.2, 618.9)">y</text><text xml:space="preserve" font-family="Helvetica-Light,Helvetica" font-size="14.0" fill="#FEFFFE" transform="matrix(1.00, 0.00, -0.00, -1.00, 368.2, 618.9)"> </text><text xml:space="preserve" font-family="Helvetica-Light,Helvetica" font-size="14.0" fill="#FEFFFE" transform="matrix(1.00, 0.00, -0.00, -1.00, 372.1, 618.9)">2</text></g></g><image xlink:href="../../8EB76D3D-0DCD-411E-A37A-1DA3BFD3A87D/assets/38C33C4B0DB84208B0D2E809B500ECD0.png" width="141.00" height="57.00" transform="matrix(1.00, 0.00, -0.00, -1.00, 484.0, 646.5)" opacity="0.50"></image><g><clipPath id="clip0x6000010b5f60"><path d="M 601.8 638.1 C 628.1 628.1 628.1 612.0 601.8 602.0 C 575.5 592.1 532.9 592.1 506.7 602.0 C 480.4 612.0 480.4 628.1 506.7 638.1 C 532.9 648.0 575.5 648.0 601.8 638.1 Z M 601.8 638.1 "></path></clipPath><g clip-path="url(#clip0x6000010b5f60)"><image xlink:href="../../B49DC77F-09BB-449C-9313-EC11A2C405DF/assets/C3C0FC898C94653CAF8AD846D6CCD108.png" width="600.00" height="600.00" transform="matrix(0.50, 0.00, -0.00, -0.50, 487.0, 645.5)"></image></g></g><g><clipPath id="clip0x608000ea6f00"><path d="M 487.0 594.6 L 621.5 594.6 L 621.5 645.5 L 487.0 645.5 Z M 487.0 594.6 "></path></clipPath><g clip-path="url(#clip0x608000ea6f00)"><text xml:space="preserve" font-family="Helvetica-Light,Helvetica" font-size="14.0" fill="#FEFFFE" transform="matrix(1.00, 0.00, -0.00, -1.00, 522.0, 614.8)">P</text><text xml:space="preserve" font-family="Helvetica-Light,Helvetica" font-size="14.0" fill="#FEFFFE" transform="matrix(1.00, 0.00, -0.00, -1.00, 530.5, 614.8)">r</text><text xml:space="preserve" font-family="Helvetica-Light,Helvetica" font-size="14.0" fill="#FEFFFE" transform="matrix(1.00, 0.00, -0.00, -1.00, 534.9, 614.8)">o</text><text xml:space="preserve" font-family="Helvetica-Light,Helvetica" font-size="14.0" fill="#FEFFFE" transform="matrix(1.00, 0.00, -0.00, -1.00, 542.7, 614.8)">p</text><text xml:space="preserve" font-family="Helvetica-Light,Helvetica" font-size="14.0" fill="#FEFFFE" transform="matrix(1.00, 0.00, -0.00, -1.00, 551.3, 614.8)">e</text><text xml:space="preserve" font-family="Helvetica-Light,Helvetica" font-size="14.0" fill="#FEFFFE" transform="matrix(1.00, 0.00, -0.00, -1.00, 559.0, 614.8)">r</text><text xml:space="preserve" font-family="Helvetica-Light,Helvetica" font-size="14.0" fill="#FEFFFE" transform="matrix(1.00, 0.00, -0.00, -1.00, 564.0, 614.8)">t</text><text xml:space="preserve" font-family="Helvetica-Light,Helvetica" font-size="14.0" fill="#FEFFFE" transform="matrix(1.00, 0.00, -0.00, -1.00, 567.9, 614.8)">y</text><text xml:space="preserve" font-family="Helvetica-Light,Helvetica" font-size="14.0" fill="#FEFFFE" transform="matrix(1.00, 0.00, -0.00, -1.00, 574.9, 614.8)"> </text><text xml:space="preserve" font-family="Helvetica-Light,Helvetica" font-size="14.0" fill="#FEFFFE" transform="matrix(1.00, 0.00, -0.00, -1.00, 578.7, 614.8)">3</text></g></g><path d="M 0.0 0.0 L 58.1 0.0 " fill="none" stroke="#000000" stroke-width="2.00" transform="matrix(-0.61, 0.79, 0.79, 0.61, 179.5, 539.5)"></path><path d="M 0.0 0.0 L 80.7 0.0 " fill="none" stroke="#000000" stroke-width="2.00" transform="matrix(0.71, 0.71, 0.71, -0.71, 478.1, 534.0)"></path><path d="M -0.1 0.1 L 54.9 0.1 " fill="none" stroke="#000000" stroke-width="2.00" transform="matrix(0.00, 1.00, 1.00, 0.00, 345.9, 535.1)"></path><image xlink:href="338A71EB5AE7778546A692C8E01A76A7.png" width="317.00" height="227.00" transform="matrix(1.00, 0.00, -0.00, -1.00, 1382.8, 512.0)" opacity="0.50"></image><g><clipPath id="clip0x608000ea7f80"><path d="M 1386.0 511.0 L 1697.0 511.0 L 1697.0 290.0 L 1386.0 290.0 Z M 1385.8 511.0 "></path></clipPath><g clip-path="url(#clip0x608000ea7f80)"><path d="M 1386.0 290.0 L 1697.0 290.0 L 1697.0 511.0 L 1386.0 511.0 Z M 1386.0 290.0 " fill="url(#5AC97937-3B6E-4FE7-8669-4C493FA63EF1)"></path></g></g><g><clipPath id="clip0x6000010b6200"><path d="M 1375.6 289.7 L 1707.0 289.7 L 1707.0 511.0 L 1375.6 511.0 Z M 1375.6 289.7 "></path></clipPath><g clip-path="url(#clip0x6000010b6200)"><text xml:space="preserve" font-family="Helvetica-Bold,Helvetica" font-weight="bold" font-size="57.0" fill="#FEFFFE" transform="matrix(1.00, 0.00, -0.00, -1.00, 1438.3, 379.1)">E</text><text xml:space="preserve" font-family="Helvetica-Bold,Helvetica" font-weight="bold" font-size="57.0" fill="#FEFFFE" transform="matrix(1.00, 0.00, -0.00, -1.00, 1476.4, 379.1)">n</text><text xml:space="preserve" font-family="Helvetica-Bold,Helvetica" font-weight="bold" font-size="57.0" fill="#FEFFFE" transform="matrix(1.00, 0.00, -0.00, -1.00, 1511.2, 379.1)">t</text><text xml:space="preserve" font-family="Helvetica-Bold,Helvetica" font-weight="bold" font-size="57.0" fill="#FEFFFE" transform="matrix(1.00, 0.00, -0.00, -1.00, 1530.1, 379.1)">i</text><text xml:space="preserve" font-family="Helvetica-Bold,Helvetica" font-weight="bold" font-size="57.0" fill="#FEFFFE" transform="matrix(1.00, 0.00, -0.00, -1.00, 1546.0, 379.1)">t</text><text xml:space="preserve" font-family="Helvetica-Bold,Helvetica" font-weight="bold" font-size="57.0" fill="#FEFFFE" transform="matrix(1.00, 0.00, -0.00, -1.00, 1565.0, 379.1)">y</text><text xml:space="preserve" font-family="Helvetica-Bold,Helvetica" font-weight="bold" font-size="57.0" fill="#FEFFFE" transform="matrix(1.00, 0.00, -0.00, -1.00, 1596.7, 379.1)"> </text><text xml:space="preserve" font-family="Helvetica-Bold,Helvetica" font-weight="bold" font-size="57.0" fill="#FEFFFE" transform="matrix(1.00, 0.00, -0.00, -1.00, 1612.5, 379.1)">2</text></g></g><image xlink:href="../../8EB76D3D-0DCD-411E-A37A-1DA3BFD3A87D/assets/38C33C4B0DB84208B0D2E809B500ECD0.png" width="141.00" height="57.00" transform="matrix(1.00, 0.00, -0.00, -1.00, 1288.9, 631.1)" opacity="0.50"></image><g><clipPath id="clip0x6000010b65c0"><path d="M 1406.7 622.7 C 1433.0 612.7 1433.0 596.6 1406.7 586.6 C 1380.5 576.7 1337.9 576.7 1311.6 586.6 C 1285.3 596.6 1285.3 612.7 1311.6 622.7 C 1337.9 632.6 1380.5 632.6 1406.7 622.7 Z M 1406.7 622.7 "></path></clipPath><g clip-path="url(#clip0x6000010b65c0)"><image xlink:href="../../B49DC77F-09BB-449C-9313-EC11A2C405DF/assets/C3C0FC898C94653CAF8AD846D6CCD108.png" width="600.00" height="600.00" transform="matrix(0.50, 0.00, -0.00, -0.50, 1291.9, 630.1)"></image></g></g><g><clipPath id="clip0x6000010b69e0"><path d="M 1291.9 579.2 L 1426.4 579.2 L 1426.4 630.1 L 1291.9 630.1 Z M 1291.9 579.2 "></path></clipPath><g clip-path="url(#clip0x6000010b69e0)"><text xml:space="preserve" font-family="Helvetica-Light,Helvetica" font-size="14.0" fill="#FEFFFE" transform="matrix(1.00, 0.00, -0.00, -1.00, 1326.9, 599.3)">P</text><text xml:space="preserve" font-family="Helvetica-Light,Helvetica" font-size="14.0" fill="#FEFFFE" transform="matrix(1.00, 0.00, -0.00, -1.00, 1335.4, 599.3)">r</text><text xml:space="preserve" font-family="Helvetica-Light,Helvetica" font-size="14.0" fill="#FEFFFE" transform="matrix(1.00, 0.00, -0.00, -1.00, 1339.9, 599.3)">o</text><text xml:space="preserve" font-family="Helvetica-Light,Helvetica" font-size="14.0" fill="#FEFFFE" transform="matrix(1.00, 0.00, -0.00, -1.00, 1347.6, 599.3)">p</text><text xml:space="preserve" font-family="Helvetica-Light,Helvetica" font-size="14.0" fill="#FEFFFE" transform="matrix(1.00, 0.00, -0.00, -1.00, 1356.2, 599.3)">e</text><text xml:space="preserve" font-family="Helvetica-Light,Helvetica" font-size="14.0" fill="#FEFFFE" transform="matrix(1.00, 0.00, -0.00, -1.00, 1364.0, 599.3)">r</text><text xml:space="preserve" font-family="Helvetica-Light,Helvetica" font-size="14.0" fill="#FEFFFE" transform="matrix(1.00, 0.00, -0.00, -1.00, 1368.9, 599.3)">t</text><text xml:space="preserve" font-family="Helvetica-Light,Helvetica" font-size="14.0" fill="#FEFFFE" transform="matrix(1.00, 0.00, -0.00, -1.00, 1372.8, 599.3)">y</text><text xml:space="preserve" font-family="Helvetica-Light,Helvetica" font-size="14.0" fill="#FEFFFE" transform="matrix(1.00, 0.00, -0.00, -1.00, 1379.8, 599.3)"> </text><text xml:space="preserve" font-family="Helvetica-Light,Helvetica" font-size="14.0" fill="#FEFFFE" transform="matrix(1.00, 0.00, -0.00, -1.00, 1383.7, 599.3)">1</text></g></g><image xlink:href="../../8EB76D3D-0DCD-411E-A37A-1DA3BFD3A87D/assets/38C33C4B0DB84208B0D2E809B500ECD0.png" width="141.00" height="57.00" transform="matrix(1.00, 0.00, -0.00, -1.00, 1495.6, 635.3)" opacity="0.50"></image><g><clipPath id="clip0x6000010b6e60"><path d="M 1613.4 626.8 C 1639.7 616.8 1639.7 600.7 1613.4 590.8 C 1587.1 580.8 1544.5 580.8 1518.3 590.8 C 1492.0 600.7 1492.0 616.8 1518.3 626.8 C 1544.5 636.7 1587.1 636.7 1613.4 626.8 Z M 1613.4 626.8 "></path></clipPath><g clip-path="url(#clip0x6000010b6e60)"><image xlink:href="../../B49DC77F-09BB-449C-9313-EC11A2C405DF/assets/C3C0FC898C94653CAF8AD846D6CCD108.png" width="600.00" height="600.00" transform="matrix(0.50, 0.00, -0.00, -0.50, 1498.6, 634.3)"></image></g></g><g><clipPath id="clip0x6000010b7280"><path d="M 1498.6 583.3 L 1633.1 583.3 L 1633.1 634.3 L 1498.6 634.3 Z M 1498.6 583.3 "></path></clipPath><g clip-path="url(#clip0x6000010b7280)"><text xml:space="preserve" font-family="Helvetica-Light,Helvetica" font-size="14.0" fill="#FEFFFE" transform="matrix(1.00, 0.00, -0.00, -1.00, 1533.5, 603.5)">P</text><text xml:space="preserve" font-family="Helvetica-Light,Helvetica" font-size="14.0" fill="#FEFFFE" transform="matrix(1.00, 0.00, -0.00, -1.00, 1542.1, 603.5)">r</text><text xml:space="preserve" font-family="Helvetica-Light,Helvetica" font-size="14.0" fill="#FEFFFE" transform="matrix(1.00, 0.00, -0.00, -1.00, 1546.5, 603.5)">o</text><text xml:space="preserve" font-family="Helvetica-Light,Helvetica" font-size="14.0" fill="#FEFFFE" transform="matrix(1.00, 0.00, -0.00, -1.00, 1554.3, 603.5)">p</text><text xml:space="preserve" font-family="Helvetica-Light,Helvetica" font-size="14.0" fill="#FEFFFE" transform="matrix(1.00, 0.00, -0.00, -1.00, 1562.8, 603.5)">e</text><text xml:space="preserve" font-family="Helvetica-Light,Helvetica" font-size="14.0" fill="#FEFFFE" transform="matrix(1.00, 0.00, -0.00, -1.00, 1570.6, 603.5)">r</text><text xml:space="preserve" font-family="Helvetica-Light,Helvetica" font-size="14.0" fill="#FEFFFE" transform="matrix(1.00, 0.00, -0.00, -1.00, 1575.5, 603.5)">t</text><text xml:space="preserve" font-family="Helvetica-Light,Helvetica" font-size="14.0" fill="#FEFFFE" transform="matrix(1.00, 0.00, -0.00, -1.00, 1579.4, 603.5)">y</text><text xml:space="preserve" font-family="Helvetica-Light,Helvetica" font-size="14.0" fill="#FEFFFE" transform="matrix(1.00, 0.00, -0.00, -1.00, 1586.4, 603.5)"> </text><text xml:space="preserve" font-family="Helvetica-Light,Helvetica" font-size="14.0" fill="#FEFFFE" transform="matrix(1.00, 0.00, -0.00, -1.00, 1590.3, 603.5)">2</text></g></g><image xlink:href="../../8EB76D3D-0DCD-411E-A37A-1DA3BFD3A87D/assets/38C33C4B0DB84208B0D2E809B500ECD0.png" width="141.00" height="57.00" transform="matrix(1.00, 0.00, -0.00, -1.00, 1702.2, 631.1)" opacity="0.50"></image><g><clipPath id="clip0x6000010b7700"><path d="M 1820.0 622.7 C 1846.3 612.7 1846.3 596.6 1820.0 586.6 C 1793.8 576.7 1751.2 576.7 1724.9 586.6 C 1698.6 596.6 1698.6 612.7 1724.9 622.7 C 1751.2 632.6 1793.8 632.6 1820.0 622.7 Z M 1820.0 622.7 "></path></clipPath><g clip-path="url(#clip0x6000010b7700)"><image xlink:href="../../B49DC77F-09BB-449C-9313-EC11A2C405DF/assets/C3C0FC898C94653CAF8AD846D6CCD108.png" width="600.00" height="600.00" transform="matrix(0.50, 0.00, -0.00, -0.50, 1705.2, 630.1)"></image></g></g><g><clipPath id="clip0x608000ea8220"><path d="M 1705.2 579.2 L 1839.7 579.2 L 1839.7 630.1 L 1705.2 630.1 Z M 1705.2 579.2 "></path></clipPath><g clip-path="url(#clip0x608000ea8220)"><text xml:space="preserve" font-family="Helvetica-Light,Helvetica" font-size="14.0" fill="#FEFFFE" transform="matrix(1.00, 0.00, -0.00, -1.00, 1740.2, 599.3)">P</text><text xml:space="preserve" font-family="Helvetica-Light,Helvetica" font-size="14.0" fill="#FEFFFE" transform="matrix(1.00, 0.00, -0.00, -1.00, 1748.7, 599.3)">r</text><text xml:space="preserve" font-family="Helvetica-Light,Helvetica" font-size="14.0" fill="#FEFFFE" transform="matrix(1.00, 0.00, -0.00, -1.00, 1753.2, 599.3)">o</text><text xml:space="preserve" font-family="Helvetica-Light,Helvetica" font-size="14.0" fill="#FEFFFE" transform="matrix(1.00, 0.00, -0.00, -1.00, 1760.9, 599.3)">p</text><text xml:space="preserve" font-family="Helvetica-Light,Helvetica" font-size="14.0" fill="#FEFFFE" transform="matrix(1.00, 0.00, -0.00, -1.00, 1769.5, 599.3)">e</text><text xml:space="preserve" font-family="Helvetica-Light,Helvetica" font-size="14.0" fill="#FEFFFE" transform="matrix(1.00, 0.00, -0.00, -1.00, 1777.3, 599.3)">r</text><text xml:space="preserve" font-family="Helvetica-Light,Helvetica" font-size="14.0" fill="#FEFFFE" transform="matrix(1.00, 0.00, -0.00, -1.00, 1782.2, 599.3)">t</text><text xml:space="preserve" font-family="Helvetica-Light,Helvetica" font-size="14.0" fill="#FEFFFE" transform="matrix(1.00, 0.00, -0.00, -1.00, 1786.1, 599.3)">y</text><text xml:space="preserve" font-family="Helvetica-Light,Helvetica" font-size="14.0" fill="#FEFFFE" transform="matrix(1.00, 0.00, -0.00, -1.00, 1793.1, 599.3)"> </text><text xml:space="preserve" font-family="Helvetica-Light,Helvetica" font-size="14.0" fill="#FEFFFE" transform="matrix(1.00, 0.00, -0.00, -1.00, 1797.0, 599.3)">3</text></g></g><path d="M 0.0 0.0 L 58.1 0.0 " fill="none" stroke="#000000" stroke-width="2.00" transform="matrix(-0.61, 0.79, 0.79, 0.61, 1397.7, 524.1)"></path><path d="M 0.0 0.0 L 80.7 0.0 " fill="none" stroke="#000000" stroke-width="2.00" transform="matrix(0.71, 0.71, 0.71, -0.71, 1696.4, 518.6)"></path><path d="M 0.3 -0.1 L 55.3 -0.1 " fill="none" stroke="#000000" stroke-width="2.00" transform="matrix(0.00, 1.00, 1.00, 0.00, 1564.1, 519.7)"></path><image xlink:href="F48AE92D95300E7B8E65A30D873BE7B0.png" width="429.00" height="331.00" transform="matrix(1.00, 0.00, -0.00, -1.00, 718.6, 581.3)" opacity="0.50"></image><g><clipPath id="clip0x608000ea8940"><path d="M 721.6 415.8 L 932.2 254.3 L 1142.7 415.8 L 932.2 577.3 Z M 721.6 415.8 "></path></clipPath><g clip-path="url(#clip0x608000ea8940)"><path d="M 721.6 254.3 L 1142.7 254.3 L 1142.7 577.3 L 721.6 577.3 Z M 721.6 254.3 " fill="url(#26F8E203-96BF-4FE7-8F62-415AF761C479)"></path></g></g><g><clipPath id="clip0x608000ea8a00"><path d="M 721.6 254.3 L 1142.7 254.3 L 1142.7 577.3 L 721.6 577.3 Z M 721.6 254.3 "></path></clipPath><g clip-path="url(#clip0x608000ea8a00)"><text xml:space="preserve" font-family="Helvetica-Bold,Helvetica" font-weight="bold" font-size="47.0" fill="#FEFFFE" transform="matrix(1.00, 0.00, -0.00, -1.00, 791.1, 398.9)">R</text><text xml:space="preserve" font-family="Helvetica-Bold,Helvetica" font-weight="bold" font-size="47.0" fill="#FEFFFE" transform="matrix(1.00, 0.00, -0.00, -1.00, 825.1, 398.9)">e</text><text xml:space="preserve" font-family="Helvetica-Bold,Helvetica" font-weight="bold" font-size="47.0" fill="#FEFFFE" transform="matrix(1.00, 0.00, -0.00, -1.00, 851.2, 398.9)">l</text><text xml:space="preserve" font-family="Helvetica-Bold,Helvetica" font-weight="bold" font-size="47.0" fill="#FEFFFE" transform="matrix(1.00, 0.00, -0.00, -1.00, 864.3, 398.9)">a</text><text xml:space="preserve" font-family="Helvetica-Bold,Helvetica" font-weight="bold" font-size="47.0" fill="#FEFFFE" transform="matrix(1.00, 0.00, -0.00, -1.00, 890.4, 398.9)">t</text><text xml:space="preserve" font-family="Helvetica-Bold,Helvetica" font-weight="bold" font-size="47.0" fill="#FEFFFE" transform="matrix(1.00, 0.00, -0.00, -1.00, 906.1, 398.9)">i</text><text xml:space="preserve" font-family="Helvetica-Bold,Helvetica" font-weight="bold" font-size="47.0" fill="#FEFFFE" transform="matrix(1.00, 0.00, -0.00, -1.00, 919.1, 398.9)">o</text><text xml:space="preserve" font-family="Helvetica-Bold,Helvetica" font-weight="bold" font-size="47.0" fill="#FEFFFE" transform="matrix(1.00, 0.00, -0.00, -1.00, 947.8, 398.9)">n</text><text xml:space="preserve" font-family="Helvetica-Bold,Helvetica" font-weight="bold" font-size="47.0" fill="#FEFFFE" transform="matrix(1.00, 0.00, -0.00, -1.00, 976.5, 398.9)">s</text><text xml:space="preserve" font-family="Helvetica-Bold,Helvetica" font-weight="bold" font-size="47.0" fill="#FEFFFE" transform="matrix(1.00, 0.00, -0.00, -1.00, 1002.7, 398.9)">h</text><text xml:space="preserve" font-family="Helvetica-Bold,Helvetica" font-weight="bold" font-size="47.0" fill="#FEFFFE" transform="matrix(1.00, 0.00, -0.00, -1.00, 1031.4, 398.9)">i</text><text xml:space="preserve" font-family="Helvetica-Bold,Helvetica" font-weight="bold" font-size="47.0" fill="#FEFFFE" transform="matrix(1.00, 0.00, -0.00, -1.00, 1044.4, 398.9)">p</text></g></g><path d="M -0.1 0.3 L 201.9 0.3 " fill="none" stroke="#000000" stroke-width="2.00" transform="matrix(-1.00, 0.00, 0.00, 1.00, 700.9, 411.7)"></path><path d="M 0.2 0.2 L 202.2 0.2 " fill="none" stroke="#000000" stroke-width="2.00" transform="matrix(-1.00, 0.00, 0.00, 1.00, 1365.2, 415.8)"></path><text xml:space="preserve" font-family="Helvetica-Light,Helvetica" font-size="50.0" fill="#000000" transform="matrix(1.00, 0.00, -0.00, -1.00, 387.5, 76.4)">N</text><text xml:space="preserve" font-family="Helvetica-Light,Helvetica" font-size="50.0" fill="#000000" transform="matrix(1.00, 0.00, -0.00, -1.00, 423.6, 76.4)">e</text><text xml:space="preserve" font-family="Helvetica-Light,Helvetica" font-size="50.0" fill="#000000" transform="matrix(1.00, 0.00, -0.00, -1.00, 451.4, 76.4)">e</text><text xml:space="preserve" font-family="Helvetica-Light,Helvetica" font-size="50.0" fill="#000000" transform="matrix(1.00, 0.00, -0.00, -1.00, 479.2, 76.4)">d</text><text xml:space="preserve" font-family="Helvetica-Light,Helvetica" font-size="50.0" fill="#000000" transform="matrix(1.00, 0.00, -0.00, -1.00, 509.7, 76.4)"> </text><text xml:space="preserve" font-family="Helvetica-Light,Helvetica" font-size="50.0" fill="#000000" transform="matrix(1.00, 0.00, -0.00, -1.00, 523.6, 76.4)">a</text><text xml:space="preserve" font-family="Helvetica-Light,Helvetica" font-size="50.0" fill="#000000" transform="matrix(1.00, 0.00, -0.00, -1.00, 551.4, 76.4)"> </text><text xml:space="preserve" font-family="Helvetica-Light,Helvetica" font-size="50.0" fill="#000000" transform="matrix(1.00, 0.00, -0.00, -1.00, 565.3, 76.4)">w</text><text xml:space="preserve" font-family="Helvetica-Light,Helvetica" font-size="50.0" fill="#000000" transform="matrix(1.00, 0.00, -0.00, -1.00, 601.4, 76.4)">a</text><text xml:space="preserve" font-family="Helvetica-Light,Helvetica" font-size="50.0" fill="#000000" transform="matrix(1.00, 0.00, -0.00, -1.00, 629.2, 76.4)">y</text><text xml:space="preserve" font-family="Helvetica-Light,Helvetica" font-size="50.0" fill="#000000" transform="matrix(1.00, 0.00, -0.00, -1.00, 654.2, 76.4)"> </text><text xml:space="preserve" font-family="Helvetica-Light,Helvetica" font-size="50.0" fill="#000000" transform="matrix(1.00, 0.00, -0.00, -1.00, 668.1, 76.4)">t</text><text xml:space="preserve" font-family="Helvetica-Light,Helvetica" font-size="50.0" fill="#000000" transform="matrix(1.00, 0.00, -0.00, -1.00, 682.0, 76.4)">o</text><text xml:space="preserve" font-family="Helvetica-Light,Helvetica" font-size="50.0" fill="#000000" transform="matrix(1.00, 0.00, -0.00, -1.00, 709.8, 76.4)"> </text><text xml:space="preserve" font-family="Helvetica-Light,Helvetica" font-size="50.0" fill="#000000" transform="matrix(1.00, 0.00, -0.00, -1.00, 723.7, 76.4)">d</text><text xml:space="preserve" font-family="Helvetica-Light,Helvetica" font-size="50.0" fill="#000000" transform="matrix(1.00, 0.00, -0.00, -1.00, 754.3, 76.4)">e</text><text xml:space="preserve" font-family="Helvetica-Light,Helvetica" font-size="50.0" fill="#000000" transform="matrix(1.00, 0.00, -0.00, -1.00, 782.1, 76.4)">s</text><text xml:space="preserve" font-family="Helvetica-Light,Helvetica" font-size="50.0" fill="#000000" transform="matrix(1.00, 0.00, -0.00, -1.00, 807.1, 76.4)">c</text><text xml:space="preserve" font-family="Helvetica-Light,Helvetica" font-size="50.0" fill="#000000" transform="matrix(1.00, 0.00, -0.00, -1.00, 834.9, 76.4)">r</text><text xml:space="preserve" font-family="Helvetica-Light,Helvetica" font-size="50.0" fill="#000000" transform="matrix(1.00, 0.00, -0.00, -1.00, 851.5, 76.4)">i</text><text xml:space="preserve" font-family="Helvetica-Light,Helvetica" font-size="50.0" fill="#000000" transform="matrix(1.00, 0.00, -0.00, -1.00, 862.6, 76.4)">b</text><text xml:space="preserve" font-family="Helvetica-Light,Helvetica" font-size="50.0" fill="#000000" transform="matrix(1.00, 0.00, -0.00, -1.00, 893.2, 76.4)">e</text><text xml:space="preserve" font-family="Helvetica-Light,Helvetica" font-size="50.0" fill="#000000" transform="matrix(1.00, 0.00, -0.00, -1.00, 921.0, 76.4)"> </text><text xml:space="preserve" font-family="Helvetica-Light,Helvetica" font-size="50.0" fill="#000000" transform="matrix(1.00, 0.00, -0.00, -1.00, 934.9, 76.4)">h</text><text xml:space="preserve" font-family="Helvetica-Light,Helvetica" font-size="50.0" fill="#000000" transform="matrix(1.00, 0.00, -0.00, -1.00, 962.7, 76.4)">o</text><text xml:space="preserve" font-family="Helvetica-Light,Helvetica" font-size="50.0" fill="#000000" transform="matrix(1.00, 0.00, -0.00, -1.00, 990.5, 76.4)">w</text><text xml:space="preserve" font-family="Helvetica-Light,Helvetica" font-size="50.0" fill="#000000" transform="matrix(1.00, 0.00, -0.00, -1.00, 1026.6, 76.4)"> </text><text xml:space="preserve" font-family="Helvetica-Light,Helvetica" font-size="50.0" fill="#000000" transform="matrix(1.00, 0.00, -0.00, -1.00, 1040.5, 76.4)">t</text><text xml:space="preserve" font-family="Helvetica-Light,Helvetica" font-size="50.0" fill="#000000" transform="matrix(1.00, 0.00, -0.00, -1.00, 1054.4, 76.4)">h</text><text xml:space="preserve" font-family="Helvetica-Light,Helvetica" font-size="50.0" fill="#000000" transform="matrix(1.00, 0.00, -0.00, -1.00, 1082.2, 76.4)">e</text><text xml:space="preserve" font-family="Helvetica-Light,Helvetica" font-size="50.0" fill="#000000" transform="matrix(1.00, 0.00, -0.00, -1.00, 1110.0, 76.4)"> </text><text xml:space="preserve" font-family="Helvetica-Light,Helvetica" font-size="50.0" fill="#000000" transform="matrix(1.00, 0.00, -0.00, -1.00, 1123.9, 76.4)">e</text><text xml:space="preserve" font-family="Helvetica-Light,Helvetica" font-size="50.0" fill="#000000" transform="matrix(1.00, 0.00, -0.00, -1.00, 1151.7, 76.4)">n</text><text xml:space="preserve" font-family="Helvetica-Light,Helvetica" font-size="50.0" fill="#000000" transform="matrix(1.00, 0.00, -0.00, -1.00, 1179.5, 76.4)">t</text><text xml:space="preserve" font-family="Helvetica-Light,Helvetica" font-size="50.0" fill="#000000" transform="matrix(1.00, 0.00, -0.00, -1.00, 1193.4, 76.4)">i</text><text xml:space="preserve" font-family="Helvetica-Light,Helvetica" font-size="50.0" fill="#000000" transform="matrix(1.00, 0.00, -0.00, -1.00, 1204.5, 76.4)">t</text><text xml:space="preserve" font-family="Helvetica-Light,Helvetica" font-size="50.0" fill="#000000" transform="matrix(1.00, 0.00, -0.00, -1.00, 1218.4, 76.4)">i</text><text xml:space="preserve" font-family="Helvetica-Light,Helvetica" font-size="50.0" fill="#000000" transform="matrix(1.00, 0.00, -0.00, -1.00, 1229.5, 76.4)">e</text><text xml:space="preserve" font-family="Helvetica-Light,Helvetica" font-size="50.0" fill="#000000" transform="matrix(1.00, 0.00, -0.00, -1.00, 1257.3, 76.4)">s</text><text xml:space="preserve" font-family="Helvetica-Light,Helvetica" font-size="50.0" fill="#000000" transform="matrix(1.00, 0.00, -0.00, -1.00, 1282.3, 76.4)"> </text><text xml:space="preserve" font-family="Helvetica-Light,Helvetica" font-size="50.0" fill="#000000" transform="matrix(1.00, 0.00, -0.00, -1.00, 1296.2, 76.4)">i</text><text xml:space="preserve" font-family="Helvetica-Light,Helvetica" font-size="50.0" fill="#000000" transform="matrix(1.00, 0.00, -0.00, -1.00, 1307.3, 76.4)">n</text><text xml:space="preserve" font-family="Helvetica-Light,Helvetica" font-size="50.0" fill="#000000" transform="matrix(1.00, 0.00, -0.00, -1.00, 1335.1, 76.4)">t</text><text xml:space="preserve" font-family="Helvetica-Light,Helvetica" font-size="50.0" fill="#000000" transform="matrix(1.00, 0.00, -0.00, -1.00, 1349.0, 76.4)">e</text><text xml:space="preserve" font-family="Helvetica-Light,Helvetica" font-size="50.0" fill="#000000" transform="matrix(1.00, 0.00, -0.00, -1.00, 1376.8, 76.4)">r</text><text xml:space="preserve" font-family="Helvetica-Light,Helvetica" font-size="50.0" fill="#000000" transform="matrix(1.00, 0.00, -0.00, -1.00, 1393.4, 76.4)">a</text><text xml:space="preserve" font-family="Helvetica-Light,Helvetica" font-size="50.0" fill="#000000" transform="matrix(1.00, 0.00, -0.00, -1.00, 1421.2, 76.4)">c</text><text xml:space="preserve" font-family="Helvetica-Light,Helvetica" font-size="50.0" fill="#000000" transform="matrix(1.00, 0.00, -0.00, -1.00, 1449.0, 76.4)">t</text><text xml:space="preserve" font-family="Helvetica-Light,Helvetica" font-size="50.0" fill="#000000" transform="matrix(1.00, 0.00, -0.00, -1.00, 1462.9, 76.4)">.</text></g></svg>