<?xml version="1.0" encoding="UTF-8" standalone="no"?><svg xmlns="http://www.w3.org/2000/svg" xmlns:xlink="http://www.w3.org/1999/xlink" clip-rule="evenodd" stroke-miterlimit="10" viewBox="0 0 1920 1080"><desc>SVG generated by Keynote</desc><defs></defs><g transform="matrix(1.00, 0.00, -0.00, -1.00, 0.0, 1080.0)"><path d="M 0.0 1080.0 L 1920.0 1080.0 L 1920.0 0.0 L 0.0 0.0 Z M 0.0 1080.0 " fill="#FEFFFF"></path><image xlink:href="../../972DC1DF-4077-40DF-9C31-DA172C909F3C/assets/B0E44C1080A6D04FBB3BC44DDCD67334.png" width="380.00" height="278.00" transform="matrix(0.69, 0.00, -0.00, -0.69, 1350.0, 825.0)"></image><image xlink:href="../../972DC1DF-4077-40DF-9C31-DA172C909F3C/assets/19B1E7025B062F9ED083A17AF14BE2DE.png" width="1400.00" height="1363.00" transform="matrix(0.13, 0.00, -0.00, -0.13, 1635.0, 650.0)"></image><image xlink:href="../../972DC1DF-4077-40DF-9C31-DA172C909F3C/assets/0CE51F8191E65CDBD04D6FA06E214D3E.png" width="220.00" height="220.00" transform="matrix(1.00, 0.00, -0.00, -1.00, 1618.0, 292.0)"></image><image xlink:href="../../972DC1DF-4077-40DF-9C31-DA172C909F3C/assets/33138CD8EB35A2656CB44FFE933BC1DA.png" width="2221.00" height="1666.00" transform="matrix(0.14, 0.00, -0.00, -0.14, 1328.0, 464.0)"></image><text xml:space="preserve" font-family="Helvetica-Light,Helvetica" font-size="65.0" fill="#000000" transform="matrix(1.00, 0.00, -0.00, -1.00, 280.9, 964.9)">R</text><text xml:space="preserve" font-family="Helvetica-Light,Helvetica" font-size="65.0" fill="#000000" transform="matrix(1.00, 0.00, -0.00, -1.00, 324.2, 964.9)">e</text><text xml:space="preserve" font-family="Helvetica-Light,Helvetica" font-size="65.0" fill="#000000" transform="matrix(1.00, 0.00, -0.00, -1.00, 360.4, 964.9)">c</text><text xml:space="preserve" font-family="Helvetica-Light,Helvetica" font-size="65.0" fill="#000000" transform="matrix(1.00, 0.00, -0.00, -1.00, 396.5, 964.9)">i</text><text xml:space="preserve" font-family="Helvetica-Light,Helvetica" font-size="65.0" fill="#000000" transform="matrix(1.00, 0.00, -0.00, -1.00, 410.9, 964.9)">p</text><text xml:space="preserve" font-family="Helvetica-Light,Helvetica" font-size="65.0" fill="#000000" transform="matrix(1.00, 0.00, -0.00, -1.00, 450.6, 964.9)">e</text><text xml:space="preserve" font-family="Helvetica-Light,Helvetica" font-size="65.0" fill="#000000" transform="matrix(1.00, 0.00, -0.00, -1.00, 1404.8, 964.9)">F</text><text xml:space="preserve" font-family="Helvetica-Light,Helvetica" font-size="65.0" fill="#000000" transform="matrix(1.00, 0.00, -0.00, -1.00, 1440.9, 964.9)">o</text><text xml:space="preserve" font-family="Helvetica-Light,Helvetica" font-size="65.0" fill="#000000" transform="matrix(1.00, 0.00, -0.00, -1.00, 1477.1, 964.9)">o</text><text xml:space="preserve" font-family="Helvetica-Light,Helvetica" font-size="65.0" fill="#000000" transform="matrix(1.00, 0.00, -0.00, -1.00, 1513.2, 964.9)">d</text><text xml:space="preserve" font-family="Helvetica-Light,Helvetica" font-size="65.0" fill="#000000" transform="matrix(1.00, 0.00, -0.00, -1.00, 1552.9, 964.9)"> </text><text xml:space="preserve" font-family="Helvetica-Light,Helvetica" font-size="65.0" fill="#000000" transform="matrix(1.00, 0.00, -0.00, -1.00, 1571.0, 964.9)">I</text><text xml:space="preserve" font-family="Helvetica-Light,Helvetica" font-size="65.0" fill="#000000" transform="matrix(1.00, 0.00, -0.00, -1.00, 1589.1, 964.9)">t</text><text xml:space="preserve" font-family="Helvetica-Light,Helvetica" font-size="65.0" fill="#000000" transform="matrix(1.00, 0.00, -0.00, -1.00, 1607.1, 964.9)">e</text><text xml:space="preserve" font-family="Helvetica-Light,Helvetica" font-size="65.0" fill="#000000" transform="matrix(1.00, 0.00, -0.00, -1.00, 1643.3, 964.9)">m</text><text xml:space="preserve" font-family="Helvetica-Light,Helvetica" font-size="65.0" fill="#000000" transform="matrix(1.00, 0.00, -0.00, -1.00, 1697.4, 964.9)">s</text><path d="M 0.4 0.5 L 832.4 0.5 " fill="none" stroke="#A6AAA8" stroke-width="2.00" transform="matrix(1.00, 0.00, 0.00, -1.00, 757.6, 518.5)"></path><path d="M 0.0 0.0 L 905.1 0.0 " fill="none" stroke="#A6AAA8" stroke-width="2.00" transform="matrix(0.98, -0.20, -0.20, -0.98, 757.8, 294.1)"></path><text xml:space="preserve" font-family="Helvetica-Light,Helvetica" font-size="25.0" fill="#000000" transform="matrix(1.00, 0.00, -0.00, -1.00, 1117.7, 711.3)">N</text><text xml:space="preserve" font-family="Helvetica-Light,Helvetica" font-size="25.0" fill="#000000" transform="matrix(1.00, 0.00, -0.00, -1.00, 1135.8, 711.3)">o</text><text xml:space="preserve" font-family="Helvetica-Light,Helvetica" font-size="25.0" fill="#000000" transform="matrix(1.00, 0.00, -0.00, -1.00, 1149.7, 711.3)"> </text><text xml:space="preserve" font-family="Helvetica-Light,Helvetica" font-size="25.0" fill="#000000" transform="matrix(1.00, 0.00, -0.00, -1.00, 1156.6, 711.3)">s</text><text xml:space="preserve" font-family="Helvetica-Light,Helvetica" font-size="25.0" fill="#000000" transform="matrix(1.00, 0.00, -0.00, -1.00, 1169.1, 711.3)">h</text><text xml:space="preserve" font-family="Helvetica-Light,Helvetica" font-size="25.0" fill="#000000" transform="matrix(1.00, 0.00, -0.00, -1.00, 1183.0, 711.3)">e</text><text xml:space="preserve" font-family="Helvetica-Light,Helvetica" font-size="25.0" fill="#000000" transform="matrix(1.00, 0.00, -0.00, -1.00, 1196.9, 711.3)">l</text><text xml:space="preserve" font-family="Helvetica-Light,Helvetica" font-size="25.0" fill="#000000" transform="matrix(1.00, 0.00, -0.00, -1.00, 1202.5, 711.3)">l</text><text xml:space="preserve" font-family="Helvetica-Light,Helvetica" font-size="25.0" fill="#000000" transform="matrix(1.00, 0.00, -0.00, -1.00, 1208.0, 711.3)">s</text><text xml:space="preserve" font-family="Helvetica-Light,Helvetica" font-size="25.0" fill="#000000" transform="matrix(1.00, 0.00, -0.00, -1.00, 1220.5, 711.3)"> </text><text xml:space="preserve" font-family="Helvetica-Light,Helvetica" font-size="25.0" fill="#000000" transform="matrix(1.00, 0.00, -0.00, -1.00, 1227.5, 711.3)">i</text><text xml:space="preserve" font-family="Helvetica-Light,Helvetica" font-size="25.0" fill="#000000" transform="matrix(1.00, 0.00, -0.00, -1.00, 1233.0, 711.3)">n</text><text xml:space="preserve" font-family="Helvetica-Light,Helvetica" font-size="25.0" fill="#000000" transform="matrix(1.00, 0.00, -0.00, -1.00, 1246.9, 711.3)"> </text><text xml:space="preserve" font-family="Helvetica-Light,Helvetica" font-size="25.0" fill="#000000" transform="matrix(1.00, 0.00, -0.00, -1.00, 1253.9, 711.3)">s</text><text xml:space="preserve" font-family="Helvetica-Light,Helvetica" font-size="25.0" fill="#000000" transform="matrix(1.00, 0.00, -0.00, -1.00, 1266.4, 711.3)">o</text><text xml:space="preserve" font-family="Helvetica-Light,Helvetica" font-size="25.0" fill="#000000" transform="matrix(1.00, 0.00, -0.00, -1.00, 1280.3, 711.3)">u</text><text xml:space="preserve" font-family="Helvetica-Light,Helvetica" font-size="25.0" fill="#000000" transform="matrix(1.00, 0.00, -0.00, -1.00, 1294.2, 711.3)">p</text><text xml:space="preserve" font-family="Helvetica-Light,Helvetica" font-size="25.0" fill="#000000" transform="matrix(1.00, 0.00, -0.00, -1.00, 1309.5, 711.3)">!</text><text xml:space="preserve" font-family="Helvetica-Light,Helvetica" font-size="25.0" fill="#000000" transform="matrix(1.00, 0.00, -0.00, -1.00, 1317.8, 711.3)"> </text><text xml:space="preserve" font-family="Helvetica-Light,Helvetica" font-size="25.0" fill="#000000" transform="matrix(1.00, 0.00, -0.00, -1.00, 1111.5, 681.3)">B</text><text xml:space="preserve" font-family="Helvetica-Light,Helvetica" font-size="25.0" fill="#000000" transform="matrix(1.00, 0.00, -0.00, -1.00, 1128.1, 681.3)">u</text><text xml:space="preserve" font-family="Helvetica-Light,Helvetica" font-size="25.0" fill="#000000" transform="matrix(1.00, 0.00, -0.00, -1.00, 1142.0, 681.3)">t</text><text xml:space="preserve" font-family="Helvetica-Light,Helvetica" font-size="25.0" fill="#000000" transform="matrix(1.00, 0.00, -0.00, -1.00, 1149.0, 681.3)"> </text><text xml:space="preserve" font-family="Helvetica-Light,Helvetica" font-size="25.0" fill="#000000" transform="matrix(1.00, 0.00, -0.00, -1.00, 1155.9, 681.3)">s</text><text xml:space="preserve" font-family="Helvetica-Light,Helvetica" font-size="25.0" fill="#000000" transform="matrix(1.00, 0.00, -0.00, -1.00, 1168.4, 681.3)">t</text><text xml:space="preserve" font-family="Helvetica-Light,Helvetica" font-size="25.0" fill="#000000" transform="matrix(1.00, 0.00, -0.00, -1.00, 1175.4, 681.3)">i</text><text xml:space="preserve" font-family="Helvetica-Light,Helvetica" font-size="25.0" fill="#000000" transform="matrix(1.00, 0.00, -0.00, -1.00, 1180.9, 681.3)">l</text><text xml:space="preserve" font-family="Helvetica-Light,Helvetica" font-size="25.0" fill="#000000" transform="matrix(1.00, 0.00, -0.00, -1.00, 1186.5, 681.3)">l</text><text xml:space="preserve" font-family="Helvetica-Light,Helvetica" font-size="25.0" fill="#000000" transform="matrix(1.00, 0.00, -0.00, -1.00, 1192.0, 681.3)"> </text><text xml:space="preserve" font-family="Helvetica-Light,Helvetica" font-size="25.0" fill="#000000" transform="matrix(1.00, 0.00, -0.00, -1.00, 1199.0, 681.3)">a</text><text xml:space="preserve" font-family="Helvetica-Light,Helvetica" font-size="25.0" fill="#000000" transform="matrix(1.00, 0.00, -0.00, -1.00, 1212.9, 681.3)"> </text><text xml:space="preserve" font-family="Helvetica-Light,Helvetica" font-size="25.0" fill="#000000" transform="matrix(1.00, 0.00, -0.00, -1.00, 1219.8, 681.3)">f</text><text xml:space="preserve" font-family="Helvetica-Light,Helvetica" font-size="25.0" fill="#000000" transform="matrix(1.00, 0.00, -0.00, -1.00, 1226.8, 681.3)">o</text><text xml:space="preserve" font-family="Helvetica-Light,Helvetica" font-size="25.0" fill="#000000" transform="matrix(1.00, 0.00, -0.00, -1.00, 1240.7, 681.3)">o</text><text xml:space="preserve" font-family="Helvetica-Light,Helvetica" font-size="25.0" fill="#000000" transform="matrix(1.00, 0.00, -0.00, -1.00, 1254.6, 681.3)">d</text><text xml:space="preserve" font-family="Helvetica-Light,Helvetica" font-size="25.0" fill="#000000" transform="matrix(1.00, 0.00, -0.00, -1.00, 1269.9, 681.3)"> </text><text xml:space="preserve" font-family="Helvetica-Light,Helvetica" font-size="25.0" fill="#000000" transform="matrix(1.00, 0.00, -0.00, -1.00, 1276.8, 681.3)">i</text><text xml:space="preserve" font-family="Helvetica-Light,Helvetica" font-size="25.0" fill="#000000" transform="matrix(1.00, 0.00, -0.00, -1.00, 1282.4, 681.3)">t</text><text xml:space="preserve" font-family="Helvetica-Light,Helvetica" font-size="25.0" fill="#000000" transform="matrix(1.00, 0.00, -0.00, -1.00, 1289.3, 681.3)">e</text><text xml:space="preserve" font-family="Helvetica-Light,Helvetica" font-size="25.0" fill="#000000" transform="matrix(1.00, 0.00, -0.00, -1.00, 1303.2, 681.3)">m</text><image xlink:href="../../6428F1A1-AABB-40DB-A2A2-C2BE70FC2DAC/assets/0896EDF978655674DFD20B97337D706A.png" width="400.00" height="400.00" transform="matrix(1.65, 0.00, -0.00, -1.65, 55.0, 829.0)"></image><path d="M 0.0 0.0 L 566.4 0.0 " fill="none" stroke="#A6AAA8" stroke-width="2.00" transform="matrix(1.00, -0.07, -0.07, -1.00, 757.6, 403.7)"></path></g></svg>