<?xml version="1.0" encoding="UTF-8" standalone="no"?><svg xmlns="http://www.w3.org/2000/svg" xmlns:xlink="http://www.w3.org/1999/xlink" clip-rule="evenodd" stroke-miterlimit="10" viewBox="0 0 1920 1080"><desc>SVG generated by Keynote</desc><defs></defs><g transform="matrix(1.00, 0.00, -0.00, -1.00, 0.0, 1080.0)"><path d="M 0.0 1080.0 L 1920.0 1080.0 L 1920.0 0.0 L 0.0 0.0 Z M 0.0 1080.0 " fill="#FEFFFE"></path><text xml:space="preserve" font-family="Helvetica-Light,Helvetica" font-size="112.0" fill="#000000" transform="matrix(1.00, 0.00, -0.00, -1.00, 627.0, 873.8)">T</text><text xml:space="preserve" font-family="Helvetica-Light,Helvetica" font-size="112.0" fill="#000000" transform="matrix(1.00, 0.00, -0.00, -1.00, 689.3, 873.8)">i</text><text xml:space="preserve" font-family="Helvetica-Light,Helvetica" font-size="112.0" fill="#000000" transform="matrix(1.00, 0.00, -0.00, -1.00, 714.2, 873.8)">p</text><text xml:space="preserve" font-family="Helvetica-Light,Helvetica" font-size="112.0" fill="#000000" transform="matrix(1.00, 0.00, -0.00, -1.00, 782.6, 873.8)">s</text><text xml:space="preserve" font-family="Helvetica-Light,Helvetica" font-size="112.0" fill="#000000" transform="matrix(1.00, 0.00, -0.00, -1.00, 838.6, 873.8)"> </text><text xml:space="preserve" font-family="Helvetica-Light,Helvetica" font-size="112.0" fill="#000000" transform="matrix(1.00, 0.00, -0.00, -1.00, 869.7, 873.8)">f</text><text xml:space="preserve" font-family="Helvetica-Light,Helvetica" font-size="112.0" fill="#000000" transform="matrix(1.00, 0.00, -0.00, -1.00, 900.9, 873.8)">o</text><text xml:space="preserve" font-family="Helvetica-Light,Helvetica" font-size="112.0" fill="#000000" transform="matrix(1.00, 0.00, -0.00, -1.00, 963.1, 873.8)">r</text><text xml:space="preserve" font-family="Helvetica-Light,Helvetica" font-size="112.0" fill="#000000" transform="matrix(1.00, 0.00, -0.00, -1.00, 1000.4, 873.8)"> </text><text xml:space="preserve" font-family="Helvetica-Light,Helvetica" font-size="112.0" fill="#000000" transform="matrix(1.00, 0.00, -0.00, -1.00, 1031.6, 873.8)">c</text><text xml:space="preserve" font-family="Helvetica-Light,Helvetica" font-size="112.0" fill="#000000" transform="matrix(1.00, 0.00, -0.00, -1.00, 1093.8, 873.8)">l</text><text xml:space="preserve" font-family="Helvetica-Light,Helvetica" font-size="112.0" fill="#000000" transform="matrix(1.00, 0.00, -0.00, -1.00, 1118.7, 873.8)">a</text><text xml:space="preserve" font-family="Helvetica-Light,Helvetica" font-size="112.0" fill="#000000" transform="matrix(1.00, 0.00, -0.00, -1.00, 1181.0, 873.8)">s</text><text xml:space="preserve" font-family="Helvetica-Light,Helvetica" font-size="112.0" fill="#000000" transform="matrix(1.00, 0.00, -0.00, -1.00, 1237.0, 873.8)">s</text><text xml:space="preserve" font-family="Helvetica-Light,Helvetica" font-size="33.8" fill="#000000" transform="matrix(1.00, 0.00, -0.00, -1.00, 711.0, 597.8)">•</text><text xml:space="preserve" font-family="Helvetica-Light,Helvetica" font-size="45.0" fill="#000000" transform="matrix(1.00, 0.00, -0.00, -1.00, 755.0, 593.8)">M</text><text xml:space="preserve" font-family="Helvetica-Light,Helvetica" font-size="45.0" fill="#000000" transform="matrix(1.00, 0.00, -0.00, -1.00, 792.5, 593.8)">a</text><text xml:space="preserve" font-family="Helvetica-Light,Helvetica" font-size="45.0" fill="#000000" transform="matrix(1.00, 0.00, -0.00, -1.00, 817.5, 593.8)">k</text><text xml:space="preserve" font-family="Helvetica-Light,Helvetica" font-size="45.0" fill="#000000" transform="matrix(1.00, 0.00, -0.00, -1.00, 840.0, 593.8)">e</text><text xml:space="preserve" font-family="Helvetica-Light,Helvetica" font-size="45.0" fill="#000000" transform="matrix(1.00, 0.00, -0.00, -1.00, 865.0, 593.8)"> </text><text xml:space="preserve" font-family="Helvetica-Light,Helvetica" font-size="45.0" fill="#000000" transform="matrix(1.00, 0.00, -0.00, -1.00, 877.5, 593.8)">f</text><text xml:space="preserve" font-family="Helvetica-Light,Helvetica" font-size="45.0" fill="#000000" transform="matrix(1.00, 0.00, -0.00, -1.00, 890.1, 593.8)">r</text><text xml:space="preserve" font-family="Helvetica-Light,Helvetica" font-size="45.0" fill="#000000" transform="matrix(1.00, 0.00, -0.00, -1.00, 905.0, 593.8)">i</text><text xml:space="preserve" font-family="Helvetica-Light,Helvetica" font-size="45.0" fill="#000000" transform="matrix(1.00, 0.00, -0.00, -1.00, 915.0, 593.8)">e</text><text xml:space="preserve" font-family="Helvetica-Light,Helvetica" font-size="45.0" fill="#000000" transform="matrix(1.00, 0.00, -0.00, -1.00, 940.0, 593.8)">n</text><text xml:space="preserve" font-family="Helvetica-Light,Helvetica" font-size="45.0" fill="#000000" transform="matrix(1.00, 0.00, -0.00, -1.00, 965.1, 593.8)">d</text><text xml:space="preserve" font-family="Helvetica-Light,Helvetica" font-size="45.0" fill="#000000" transform="matrix(1.00, 0.00, -0.00, -1.00, 992.6, 593.8)">s</text><text xml:space="preserve" font-family="Helvetica-Light,Helvetica" font-size="45.0" fill="#000000" transform="matrix(1.00, 0.00, -0.00, -1.00, 1015.1, 593.8)"> </text><text xml:space="preserve" font-family="Helvetica-Light,Helvetica" font-size="33.8" fill="#000000" transform="matrix(1.00, 0.00, -0.00, -1.00, 711.0, 498.8)">•</text><text xml:space="preserve" font-family="Helvetica-Light,Helvetica" font-size="45.0" fill="#000000" transform="matrix(1.00, 0.00, -0.00, -1.00, 755.0, 494.8)">M</text><text xml:space="preserve" font-family="Helvetica-Light,Helvetica" font-size="45.0" fill="#000000" transform="matrix(1.00, 0.00, -0.00, -1.00, 792.5, 494.8)">a</text><text xml:space="preserve" font-family="Helvetica-Light,Helvetica" font-size="45.0" fill="#000000" transform="matrix(1.00, 0.00, -0.00, -1.00, 817.5, 494.8)">x</text><text xml:space="preserve" font-family="Helvetica-Light,Helvetica" font-size="45.0" fill="#000000" transform="matrix(1.00, 0.00, -0.00, -1.00, 840.0, 494.8)">i</text><text xml:space="preserve" font-family="Helvetica-Light,Helvetica" font-size="45.0" fill="#000000" transform="matrix(1.00, 0.00, -0.00, -1.00, 850.0, 494.8)">m</text><text xml:space="preserve" font-family="Helvetica-Light,Helvetica" font-size="45.0" fill="#000000" transform="matrix(1.00, 0.00, -0.00, -1.00, 887.5, 494.8)">i</text><text xml:space="preserve" font-family="Helvetica-Light,Helvetica" font-size="45.0" fill="#000000" transform="matrix(1.00, 0.00, -0.00, -1.00, 897.5, 494.8)">z</text><text xml:space="preserve" font-family="Helvetica-Light,Helvetica" font-size="45.0" fill="#000000" transform="matrix(1.00, 0.00, -0.00, -1.00, 920.0, 494.8)">e</text><text xml:space="preserve" font-family="Helvetica-Light,Helvetica" font-size="45.0" fill="#000000" transform="matrix(1.00, 0.00, -0.00, -1.00, 945.0, 494.8)"> </text><text xml:space="preserve" font-family="Helvetica-Light,Helvetica" font-size="45.0" fill="#000000" transform="matrix(1.00, 0.00, -0.00, -1.00, 957.5, 494.8)">y</text><text xml:space="preserve" font-family="Helvetica-Light,Helvetica" font-size="45.0" fill="#000000" transform="matrix(1.00, 0.00, -0.00, -1.00, 980.0, 494.8)">o</text><text xml:space="preserve" font-family="Helvetica-Light,Helvetica" font-size="45.0" fill="#000000" transform="matrix(1.00, 0.00, -0.00, -1.00, 1005.0, 494.8)">u</text><text xml:space="preserve" font-family="Helvetica-Light,Helvetica" font-size="45.0" fill="#000000" transform="matrix(1.00, 0.00, -0.00, -1.00, 1030.0, 494.8)">r</text><text xml:space="preserve" font-family="Helvetica-Light,Helvetica" font-size="45.0" fill="#000000" transform="matrix(1.00, 0.00, -0.00, -1.00, 1045.0, 494.8)"> </text><text xml:space="preserve" font-family="Helvetica-Light,Helvetica" font-size="45.0" fill="#000000" transform="matrix(1.00, 0.00, -0.00, -1.00, 1057.5, 494.8)">r</text><text xml:space="preserve" font-family="Helvetica-Light,Helvetica" font-size="45.0" fill="#000000" transform="matrix(1.00, 0.00, -0.00, -1.00, 1071.7, 494.8)">e</text><text xml:space="preserve" font-family="Helvetica-Light,Helvetica" font-size="45.0" fill="#000000" transform="matrix(1.00, 0.00, -0.00, -1.00, 1096.7, 494.8)">s</text><text xml:space="preserve" font-family="Helvetica-Light,Helvetica" font-size="45.0" fill="#000000" transform="matrix(1.00, 0.00, -0.00, -1.00, 1119.2, 494.8)">o</text><text xml:space="preserve" font-family="Helvetica-Light,Helvetica" font-size="45.0" fill="#000000" transform="matrix(1.00, 0.00, -0.00, -1.00, 1144.3, 494.8)">u</text><text xml:space="preserve" font-family="Helvetica-Light,Helvetica" font-size="45.0" fill="#000000" transform="matrix(1.00, 0.00, -0.00, -1.00, 1169.3, 494.8)">r</text><text xml:space="preserve" font-family="Helvetica-Light,Helvetica" font-size="45.0" fill="#000000" transform="matrix(1.00, 0.00, -0.00, -1.00, 1183.5, 494.8)">c</text><text xml:space="preserve" font-family="Helvetica-Light,Helvetica" font-size="45.0" fill="#000000" transform="matrix(1.00, 0.00, -0.00, -1.00, 1208.5, 494.8)">e</text><text xml:space="preserve" font-family="Helvetica-Light,Helvetica" font-size="45.0" fill="#000000" transform="matrix(1.00, 0.00, -0.00, -1.00, 1233.5, 494.8)">s</text><text xml:space="preserve" font-family="Helvetica-Light,Helvetica" font-size="45.0" fill="#000000" transform="matrix(1.00, 0.00, -0.00, -1.00, 1256.0, 494.8)"> </text><text xml:space="preserve" font-family="Helvetica-Light,Helvetica" font-size="45.0" fill="#000000" transform="matrix(1.00, 0.00, -0.00, -1.00, 1268.5, 494.8)"> </text><text xml:space="preserve" font-family="Helvetica-Light,Helvetica" font-size="33.8" fill="#000000" transform="matrix(1.00, 0.00, -0.00, -1.00, 711.0, 399.8)">•</text><text xml:space="preserve" font-family="Helvetica-Light,Helvetica" font-size="45.0" fill="#000000" transform="matrix(1.00, 0.00, -0.00, -1.00, 755.0, 395.8)">S</text><text xml:space="preserve" font-family="Helvetica-Light,Helvetica" font-size="45.0" fill="#000000" transform="matrix(1.00, 0.00, -0.00, -1.00, 782.5, 395.8)">e</text><text xml:space="preserve" font-family="Helvetica-Light,Helvetica" font-size="45.0" fill="#000000" transform="matrix(1.00, 0.00, -0.00, -1.00, 807.5, 395.8)">e</text><text xml:space="preserve" font-family="Helvetica-Light,Helvetica" font-size="45.0" fill="#000000" transform="matrix(1.00, 0.00, -0.00, -1.00, 832.5, 395.8)">k</text><text xml:space="preserve" font-family="Helvetica-Light,Helvetica" font-size="45.0" fill="#000000" transform="matrix(1.00, 0.00, -0.00, -1.00, 855.0, 395.8)"> </text><text xml:space="preserve" font-family="Helvetica-Light,Helvetica" font-size="45.0" fill="#000000" transform="matrix(1.00, 0.00, -0.00, -1.00, 867.6, 395.8)">h</text><text xml:space="preserve" font-family="Helvetica-Light,Helvetica" font-size="45.0" fill="#000000" transform="matrix(1.00, 0.00, -0.00, -1.00, 892.6, 395.8)">e</text><text xml:space="preserve" font-family="Helvetica-Light,Helvetica" font-size="45.0" fill="#000000" transform="matrix(1.00, 0.00, -0.00, -1.00, 917.6, 395.8)">l</text><text xml:space="preserve" font-family="Helvetica-Light,Helvetica" font-size="45.0" fill="#000000" transform="matrix(1.00, 0.00, -0.00, -1.00, 927.6, 395.8)">p</text><text xml:space="preserve" font-family="Helvetica-Light,Helvetica" font-size="45.0" fill="#000000" transform="matrix(1.00, 0.00, -0.00, -1.00, 955.1, 395.8)"> </text><text xml:space="preserve" font-family="Helvetica-Light,Helvetica" font-size="45.0" fill="#000000" transform="matrix(1.00, 0.00, -0.00, -1.00, 967.6, 395.8)">w</text><text xml:space="preserve" font-family="Helvetica-Light,Helvetica" font-size="45.0" fill="#000000" transform="matrix(1.00, 0.00, -0.00, -1.00, 1000.1, 395.8)">h</text><text xml:space="preserve" font-family="Helvetica-Light,Helvetica" font-size="45.0" fill="#000000" transform="matrix(1.00, 0.00, -0.00, -1.00, 1025.1, 395.8)">e</text><text xml:space="preserve" font-family="Helvetica-Light,Helvetica" font-size="45.0" fill="#000000" transform="matrix(1.00, 0.00, -0.00, -1.00, 1050.1, 395.8)">n</text><text xml:space="preserve" font-family="Helvetica-Light,Helvetica" font-size="45.0" fill="#000000" transform="matrix(1.00, 0.00, -0.00, -1.00, 1075.1, 395.8)"> </text><text xml:space="preserve" font-family="Helvetica-Light,Helvetica" font-size="45.0" fill="#000000" transform="matrix(1.00, 0.00, -0.00, -1.00, 1087.6, 395.8)">n</text><text xml:space="preserve" font-family="Helvetica-Light,Helvetica" font-size="45.0" fill="#000000" transform="matrix(1.00, 0.00, -0.00, -1.00, 1112.7, 395.8)">e</text><text xml:space="preserve" font-family="Helvetica-Light,Helvetica" font-size="45.0" fill="#000000" transform="matrix(1.00, 0.00, -0.00, -1.00, 1137.7, 395.8)">e</text><text xml:space="preserve" font-family="Helvetica-Light,Helvetica" font-size="45.0" fill="#000000" transform="matrix(1.00, 0.00, -0.00, -1.00, 1162.7, 395.8)">d</text><text xml:space="preserve" font-family="Helvetica-Light,Helvetica" font-size="45.0" fill="#000000" transform="matrix(1.00, 0.00, -0.00, -1.00, 1190.2, 395.8)">e</text><text xml:space="preserve" font-family="Helvetica-Light,Helvetica" font-size="45.0" fill="#000000" transform="matrix(1.00, 0.00, -0.00, -1.00, 1215.2, 395.8)">d</text><text xml:space="preserve" font-family="Helvetica-Light,Helvetica" font-size="45.0" fill="#000000" transform="matrix(1.00, 0.00, -0.00, -1.00, 1242.7, 395.8)"> </text><text xml:space="preserve" font-family="Helvetica-Light,Helvetica" font-size="33.8" fill="#000000" transform="matrix(1.00, 0.00, -0.00, -1.00, 711.0, 300.8)">•</text><text xml:space="preserve" font-family="Helvetica-Light,Helvetica" font-size="45.0" fill="#000000" transform="matrix(1.00, 0.00, -0.00, -1.00, 755.0, 296.8)">T</text><text xml:space="preserve" font-family="Helvetica-Light,Helvetica" font-size="45.0" fill="#000000" transform="matrix(1.00, 0.00, -0.00, -1.00, 775.9, 296.8)">r</text><text xml:space="preserve" font-family="Helvetica-Light,Helvetica" font-size="45.0" fill="#000000" transform="matrix(1.00, 0.00, -0.00, -1.00, 791.7, 296.8)">y</text><text xml:space="preserve" font-family="Helvetica-Light,Helvetica" font-size="45.0" fill="#000000" transform="matrix(1.00, 0.00, -0.00, -1.00, 814.2, 296.8)"> </text><text xml:space="preserve" font-family="Helvetica-Light,Helvetica" font-size="45.0" fill="#000000" transform="matrix(1.00, 0.00, -0.00, -1.00, 826.7, 296.8)">n</text><text xml:space="preserve" font-family="Helvetica-Light,Helvetica" font-size="45.0" fill="#000000" transform="matrix(1.00, 0.00, -0.00, -1.00, 851.7, 296.8)">o</text><text xml:space="preserve" font-family="Helvetica-Light,Helvetica" font-size="45.0" fill="#000000" transform="matrix(1.00, 0.00, -0.00, -1.00, 876.7, 296.8)">t</text><text xml:space="preserve" font-family="Helvetica-Light,Helvetica" font-size="45.0" fill="#000000" transform="matrix(1.00, 0.00, -0.00, -1.00, 889.2, 296.8)"> </text><text xml:space="preserve" font-family="Helvetica-Light,Helvetica" font-size="45.0" fill="#000000" transform="matrix(1.00, 0.00, -0.00, -1.00, 901.8, 296.8)">t</text><text xml:space="preserve" font-family="Helvetica-Light,Helvetica" font-size="45.0" fill="#000000" transform="matrix(1.00, 0.00, -0.00, -1.00, 914.3, 296.8)">o</text><text xml:space="preserve" font-family="Helvetica-Light,Helvetica" font-size="45.0" fill="#000000" transform="matrix(1.00, 0.00, -0.00, -1.00, 939.3, 296.8)"> </text><text xml:space="preserve" font-family="Helvetica-Light,Helvetica" font-size="45.0" fill="#000000" transform="matrix(1.00, 0.00, -0.00, -1.00, 951.8, 296.8)">f</text><text xml:space="preserve" font-family="Helvetica-Light,Helvetica" font-size="45.0" fill="#000000" transform="matrix(1.00, 0.00, -0.00, -1.00, 964.3, 296.8)">a</text><text xml:space="preserve" font-family="Helvetica-Light,Helvetica" font-size="45.0" fill="#000000" transform="matrix(1.00, 0.00, -0.00, -1.00, 989.3, 296.8)">l</text><text xml:space="preserve" font-family="Helvetica-Light,Helvetica" font-size="45.0" fill="#000000" transform="matrix(1.00, 0.00, -0.00, -1.00, 999.3, 296.8)">l</text><text xml:space="preserve" font-family="Helvetica-Light,Helvetica" font-size="45.0" fill="#000000" transform="matrix(1.00, 0.00, -0.00, -1.00, 1009.3, 296.8)"> </text><text xml:space="preserve" font-family="Helvetica-Light,Helvetica" font-size="45.0" fill="#000000" transform="matrix(1.00, 0.00, -0.00, -1.00, 1021.8, 296.8)">b</text><text xml:space="preserve" font-family="Helvetica-Light,Helvetica" font-size="45.0" fill="#000000" transform="matrix(1.00, 0.00, -0.00, -1.00, 1049.3, 296.8)">e</text><text xml:space="preserve" font-family="Helvetica-Light,Helvetica" font-size="45.0" fill="#000000" transform="matrix(1.00, 0.00, -0.00, -1.00, 1074.3, 296.8)">h</text><text xml:space="preserve" font-family="Helvetica-Light,Helvetica" font-size="45.0" fill="#000000" transform="matrix(1.00, 0.00, -0.00, -1.00, 1099.3, 296.8)">i</text><text xml:space="preserve" font-family="Helvetica-Light,Helvetica" font-size="45.0" fill="#000000" transform="matrix(1.00, 0.00, -0.00, -1.00, 1109.3, 296.8)">n</text><text xml:space="preserve" font-family="Helvetica-Light,Helvetica" font-size="45.0" fill="#000000" transform="matrix(1.00, 0.00, -0.00, -1.00, 1134.4, 296.8)">d</text></g></svg>