<?xml version="1.0" encoding="UTF-8" standalone="no"?><svg xmlns="http://www.w3.org/2000/svg" xmlns:xlink="http://www.w3.org/1999/xlink" clip-rule="evenodd" stroke-miterlimit="10" viewBox="0 0 1920 1080"><desc>SVG generated by Keynote</desc><defs></defs><g transform="matrix(1.00, 0.00, -0.00, -1.00, 0.0, 1080.0)"><path d="M 0.0 1080.0 L 1920.0 1080.0 L 1920.0 0.0 L 0.0 0.0 Z M 0.0 1080.0 " fill="#FEFFFF"></path><text xml:space="preserve" font-family="Helvetica-Light,Helvetica" font-size="112.0" fill="#0264C0" transform="matrix(1.00, 0.00, -0.00, -1.00, 490.0, 498.8)">N</text><text xml:space="preserve" font-family="Helvetica-Light,Helvetica" font-size="112.0" fill="#0264C0" transform="matrix(1.00, 0.00, -0.00, -1.00, 570.9, 498.8)">e</text><text xml:space="preserve" font-family="Helvetica-Light,Helvetica" font-size="112.0" fill="#0264C0" transform="matrix(1.00, 0.00, -0.00, -1.00, 633.2, 498.8)">s</text><text xml:space="preserve" font-family="Helvetica-Light,Helvetica" font-size="112.0" fill="#0264C0" transform="matrix(1.00, 0.00, -0.00, -1.00, 689.2, 498.8)">t</text><text xml:space="preserve" font-family="Helvetica-Light,Helvetica" font-size="112.0" fill="#0264C0" transform="matrix(1.00, 0.00, -0.00, -1.00, 720.3, 498.8)">e</text><text xml:space="preserve" font-family="Helvetica-Light,Helvetica" font-size="112.0" fill="#0264C0" transform="matrix(1.00, 0.00, -0.00, -1.00, 782.6, 498.8)">d</text><text xml:space="preserve" font-family="Helvetica-Light,Helvetica" font-size="112.0" fill="#0264C0" transform="matrix(1.00, 0.00, -0.00, -1.00, 851.0, 498.8)"> </text><text xml:space="preserve" font-family="Helvetica-Light,Helvetica" font-size="112.0" fill="#0264C0" transform="matrix(1.00, 0.00, -0.00, -1.00, 882.2, 498.8)">L</text><text xml:space="preserve" font-family="Helvetica-Light,Helvetica" font-size="112.0" fill="#0264C0" transform="matrix(1.00, 0.00, -0.00, -1.00, 944.4, 498.8)">o</text><text xml:space="preserve" font-family="Helvetica-Light,Helvetica" font-size="112.0" fill="#0264C0" transform="matrix(1.00, 0.00, -0.00, -1.00, 1006.7, 498.8)">o</text><text xml:space="preserve" font-family="Helvetica-Light,Helvetica" font-size="112.0" fill="#0264C0" transform="matrix(1.00, 0.00, -0.00, -1.00, 1069.0, 498.8)">p</text><text xml:space="preserve" font-family="Helvetica-Light,Helvetica" font-size="112.0" fill="#0264C0" transform="matrix(1.00, 0.00, -0.00, -1.00, 1137.4, 498.8)"> </text><text xml:space="preserve" font-family="Helvetica-Light,Helvetica" font-size="112.0" fill="#0264C0" transform="matrix(1.00, 0.00, -0.00, -1.00, 1168.5, 498.8)">J</text><text xml:space="preserve" font-family="Helvetica-Light,Helvetica" font-size="112.0" fill="#0264C0" transform="matrix(1.00, 0.00, -0.00, -1.00, 1224.5, 498.8)">o</text><text xml:space="preserve" font-family="Helvetica-Light,Helvetica" font-size="112.0" fill="#0264C0" transform="matrix(1.00, 0.00, -0.00, -1.00, 1286.8, 498.8)">i</text><text xml:space="preserve" font-family="Helvetica-Light,Helvetica" font-size="112.0" fill="#0264C0" transform="matrix(1.00, 0.00, -0.00, -1.00, 1311.7, 498.8)">n</text><text xml:space="preserve" font-family="Helvetica-Light,Helvetica" font-size="112.0" fill="#0264C0" transform="matrix(1.00, 0.00, -0.00, -1.00, 1374.0, 498.8)">s</text></g></svg>