<?xml version="1.0" encoding="UTF-8" standalone="no"?><svg xmlns="http://www.w3.org/2000/svg" xmlns:xlink="http://www.w3.org/1999/xlink" clip-rule="evenodd" stroke-miterlimit="10" viewBox="0 0 1920 1080"><desc>SVG generated by Keynote</desc><defs><pattern id="786257D1-0D62-4F56-B76E-BF2E881077D0" patternUnits="userSpaceOnUse" width="600" height="600" viewBox="0 0 600 600"><image xlink:href="../../B49DC77F-09BB-449C-9313-EC11A2C405DF/assets/C3C0FC898C94653CAF8AD846D6CCD108.png" width="600.00" height="600.00"></image></pattern><pattern id="190E4317-2543-478C-84C7-992FB861B63A" patternUnits="userSpaceOnUse" width="600" height="600" viewBox="0 0 600 600"><image xlink:href="../../B49DC77F-09BB-449C-9313-EC11A2C405DF/assets/C3C0FC898C94653CAF8AD846D6CCD108.png" width="600.00" height="600.00"></image></pattern><pattern id="E878EB80-4A7D-430C-8473-DC9AD84E7525" patternUnits="userSpaceOnUse" width="600" height="600" viewBox="0 0 600 600"><image xlink:href="../../8EB76D3D-0DCD-411E-A37A-1DA3BFD3A87D/assets/57C63BC369DF2E161F93135AB5988468.png" width="600.00" height="600.00"></image></pattern></defs><g transform="matrix(1.00, 0.00, -0.00, -1.00, 0.0, 1080.0)"><path d="M 0.0 1080.0 L 1920.0 1080.0 L 1920.0 0.0 L 0.0 0.0 Z M 0.0 1080.0 " fill="#FEFFFF"></path><image xlink:href="../../33A026F8-D76F-4862-B92A-5425949BEBFF/assets/29258ED7079DFA720EF6B02197E3E8B7.png" width="317.00" height="227.00" transform="matrix(1.00, 0.00, -0.00, -1.00, 167.9, 529.3)" opacity="0.50"></image><g><clipPath id="clip0x6080010a93c0"><path d="M 171.0 528.0 L 482.0 528.0 L 482.0 307.0 L 171.0 307.0 Z M 170.9 528.3 "></path></clipPath><g clip-path="url(#clip0x6080010a93c0)"><path d="M 171.0 307.0 L 482.0 307.0 L 482.0 528.0 L 171.0 528.0 Z M 171.0 307.0 " fill="url(#786257D1-0D62-4F56-B76E-BF2E881077D0)"></path></g></g><g><clipPath id="clip0x6080010a87c0"><path d="M 160.6 307.1 L 492.0 307.1 L 492.0 528.3 L 160.6 528.3 Z M 160.6 307.1 "></path></clipPath><g clip-path="url(#clip0x6080010a87c0)"><text xml:space="preserve" font-family="Helvetica-Bold,Helvetica" font-weight="bold" font-size="57.0" fill="#FEFFFE" transform="matrix(1.00, 0.00, -0.00, -1.00, 232.9, 396.4)">R</text><text xml:space="preserve" font-family="Helvetica-Bold,Helvetica" font-weight="bold" font-size="57.0" fill="#FEFFFE" transform="matrix(1.00, 0.00, -0.00, -1.00, 274.1, 396.4)">e</text><text xml:space="preserve" font-family="Helvetica-Bold,Helvetica" font-weight="bold" font-size="57.0" fill="#FEFFFE" transform="matrix(1.00, 0.00, -0.00, -1.00, 305.8, 396.4)">c</text><text xml:space="preserve" font-family="Helvetica-Bold,Helvetica" font-weight="bold" font-size="57.0" fill="#FEFFFE" transform="matrix(1.00, 0.00, -0.00, -1.00, 337.5, 396.4)">i</text><text xml:space="preserve" font-family="Helvetica-Bold,Helvetica" font-weight="bold" font-size="57.0" fill="#FEFFFE" transform="matrix(1.00, 0.00, -0.00, -1.00, 353.3, 396.4)">p</text><text xml:space="preserve" font-family="Helvetica-Bold,Helvetica" font-weight="bold" font-size="57.0" fill="#FEFFFE" transform="matrix(1.00, 0.00, -0.00, -1.00, 388.2, 396.4)">e</text></g></g><image xlink:href="../../8EB76D3D-0DCD-411E-A37A-1DA3BFD3A87D/assets/38C33C4B0DB84208B0D2E809B500ECD0.png" width="141.00" height="57.00" transform="matrix(1.00, 0.00, -0.00, -1.00, 74.0, 648.5)" opacity="0.50"></image><g><clipPath id="clip0x6080010a9780"><path d="M 191.8 640.0 C 218.1 630.0 218.1 613.9 191.8 604.0 C 165.5 594.0 122.9 594.0 96.7 604.0 C 70.4 613.9 70.4 630.0 96.7 640.0 C 122.9 649.9 165.5 649.9 191.8 640.0 Z M 191.8 640.0 "></path></clipPath><g clip-path="url(#clip0x6080010a9780)"><image xlink:href="../../B49DC77F-09BB-449C-9313-EC11A2C405DF/assets/C3C0FC898C94653CAF8AD846D6CCD108.png" width="600.00" height="600.00" transform="matrix(0.50, 0.00, -0.00, -0.50, 77.0, 647.5)"></image></g></g><g><clipPath id="clip0x6080010a9ba0"><path d="M 77.0 596.5 L 211.5 596.5 L 211.5 647.5 L 77.0 647.5 Z M 77.0 596.5 "></path></clipPath><g clip-path="url(#clip0x6080010a9ba0)"><text xml:space="preserve" font-family="Helvetica-Light,Helvetica" font-size="20.0" fill="#FEFFFE" transform="matrix(1.00, 0.00, -0.00, -1.00, 102.7, 614.6)">r</text><text xml:space="preserve" font-family="Helvetica-Light,Helvetica" font-size="20.0" fill="#FEFFFE" transform="matrix(1.00, 0.00, -0.00, -1.00, 109.0, 614.6)">e</text><text xml:space="preserve" font-family="Helvetica-Light,Helvetica" font-size="20.0" fill="#FEFFFE" transform="matrix(1.00, 0.00, -0.00, -1.00, 120.2, 614.6)">c</text><text xml:space="preserve" font-family="Helvetica-Light,Helvetica" font-size="20.0" fill="#FEFFFE" transform="matrix(1.00, 0.00, -0.00, -1.00, 131.3, 614.6)">i</text><text xml:space="preserve" font-family="Helvetica-Light,Helvetica" font-size="20.0" fill="#FEFFFE" transform="matrix(1.00, 0.00, -0.00, -1.00, 135.7, 614.6)">p</text><text xml:space="preserve" font-family="Helvetica-Light,Helvetica" font-size="20.0" fill="#FEFFFE" transform="matrix(1.00, 0.00, -0.00, -1.00, 147.9, 614.6)">e</text><text xml:space="preserve" font-family="Helvetica-Light,Helvetica" font-size="20.0" fill="#FEFFFE" transform="matrix(1.00, 0.00, -0.00, -1.00, 159.1, 614.6)">_</text><text xml:space="preserve" font-family="Helvetica-Light,Helvetica" font-size="20.0" fill="#FEFFFE" transform="matrix(1.00, 0.00, -0.00, -1.00, 169.1, 614.6)">i</text><text xml:space="preserve" font-family="Helvetica-Light,Helvetica" font-size="20.0" fill="#FEFFFE" transform="matrix(1.00, 0.00, -0.00, -1.00, 173.5, 614.6)">d</text><path d="M 25.8 34.4 L 108.8 34.4 " fill="none" stroke="#FEFFFE" stroke-width="1.00" transform="matrix(1.00, 0.00, 0.00, -1.00, 77.0, 647.5)"></path></g></g><image xlink:href="../../8EB76D3D-0DCD-411E-A37A-1DA3BFD3A87D/assets/38C33C4B0DB84208B0D2E809B500ECD0.png" width="141.00" height="57.00" transform="matrix(1.00, 0.00, -0.00, -1.00, 280.6, 652.6)" opacity="0.50"></image><g><clipPath id="clip0x6000012bd520"><path d="M 398.5 644.1 C 424.7 634.2 424.7 618.0 398.5 608.1 C 372.2 598.1 329.6 598.1 303.3 608.1 C 277.1 618.0 277.1 634.2 303.3 644.1 C 329.6 654.1 372.2 654.1 398.5 644.1 Z M 398.5 644.1 "></path></clipPath><g clip-path="url(#clip0x6000012bd520)"><image xlink:href="../../B49DC77F-09BB-449C-9313-EC11A2C405DF/assets/C3C0FC898C94653CAF8AD846D6CCD108.png" width="600.00" height="600.00" transform="matrix(0.50, 0.00, -0.00, -0.50, 283.6, 651.6)"></image></g></g><g><clipPath id="clip0x6000012be0c0"><path d="M 283.6 600.6 L 418.2 600.6 L 418.2 651.6 L 283.6 651.6 Z M 283.6 600.6 "></path></clipPath><g clip-path="url(#clip0x6000012be0c0)"><text xml:space="preserve" font-family="Helvetica-Light,Helvetica" font-size="20.0" fill="#FEFFFE" transform="matrix(1.00, 0.00, -0.00, -1.00, 325.9, 618.5)">n</text><text xml:space="preserve" font-family="Helvetica-Light,Helvetica" font-size="20.0" fill="#FEFFFE" transform="matrix(1.00, 0.00, -0.00, -1.00, 337.0, 618.5)">a</text><text xml:space="preserve" font-family="Helvetica-Light,Helvetica" font-size="20.0" fill="#FEFFFE" transform="matrix(1.00, 0.00, -0.00, -1.00, 348.1, 618.5)">m</text><text xml:space="preserve" font-family="Helvetica-Light,Helvetica" font-size="20.0" fill="#FEFFFE" transform="matrix(1.00, 0.00, -0.00, -1.00, 364.8, 618.5)">e</text></g></g><image xlink:href="../../8EB76D3D-0DCD-411E-A37A-1DA3BFD3A87D/assets/38C33C4B0DB84208B0D2E809B500ECD0.png" width="141.00" height="57.00" transform="matrix(1.00, 0.00, -0.00, -1.00, 487.3, 648.5)" opacity="0.50"></image><g><clipPath id="clip0x6080010aa080"><path d="M 605.1 640.0 C 631.4 630.0 631.4 613.9 605.1 604.0 C 578.8 594.0 536.2 594.0 510.0 604.0 C 483.7 613.9 483.7 630.0 510.0 640.0 C 536.2 649.9 578.8 649.9 605.1 640.0 Z M 605.1 640.0 "></path></clipPath><g clip-path="url(#clip0x6080010aa080)"><image xlink:href="../../B49DC77F-09BB-449C-9313-EC11A2C405DF/assets/C3C0FC898C94653CAF8AD846D6CCD108.png" width="600.00" height="600.00" transform="matrix(0.50, 0.00, -0.00, -0.50, 490.3, 647.5)"></image></g></g><g><clipPath id="clip0x6080010aa4a0"><path d="M 490.3 596.5 L 624.8 596.5 L 624.8 647.5 L 490.3 647.5 Z M 490.3 596.5 "></path></clipPath><g clip-path="url(#clip0x6080010aa4a0)"><text xml:space="preserve" font-family="Helvetica-Light,Helvetica" font-size="19.0" fill="#FEFFFE" transform="matrix(1.00, 0.00, -0.00, -1.00, 510.0, 614.6)">d</text><text xml:space="preserve" font-family="Helvetica-Light,Helvetica" font-size="19.0" fill="#FEFFFE" transform="matrix(1.00, 0.00, -0.00, -1.00, 521.6, 614.6)">e</text><text xml:space="preserve" font-family="Helvetica-Light,Helvetica" font-size="19.0" fill="#FEFFFE" transform="matrix(1.00, 0.00, -0.00, -1.00, 532.2, 614.6)">s</text><text xml:space="preserve" font-family="Helvetica-Light,Helvetica" font-size="19.0" fill="#FEFFFE" transform="matrix(1.00, 0.00, -0.00, -1.00, 541.7, 614.6)">c</text><text xml:space="preserve" font-family="Helvetica-Light,Helvetica" font-size="19.0" fill="#FEFFFE" transform="matrix(1.00, 0.00, -0.00, -1.00, 552.3, 614.6)">r</text><text xml:space="preserve" font-family="Helvetica-Light,Helvetica" font-size="19.0" fill="#FEFFFE" transform="matrix(1.00, 0.00, -0.00, -1.00, 558.6, 614.6)">i</text><text xml:space="preserve" font-family="Helvetica-Light,Helvetica" font-size="19.0" fill="#FEFFFE" transform="matrix(1.00, 0.00, -0.00, -1.00, 562.8, 614.6)">p</text><text xml:space="preserve" font-family="Helvetica-Light,Helvetica" font-size="19.0" fill="#FEFFFE" transform="matrix(1.00, 0.00, -0.00, -1.00, 574.4, 614.6)">t</text><text xml:space="preserve" font-family="Helvetica-Light,Helvetica" font-size="19.0" fill="#FEFFFE" transform="matrix(1.00, 0.00, -0.00, -1.00, 579.7, 614.6)">i</text><text xml:space="preserve" font-family="Helvetica-Light,Helvetica" font-size="19.0" fill="#FEFFFE" transform="matrix(1.00, 0.00, -0.00, -1.00, 583.9, 614.6)">o</text><text xml:space="preserve" font-family="Helvetica-Light,Helvetica" font-size="19.0" fill="#FEFFFE" transform="matrix(1.00, 0.00, -0.00, -1.00, 594.5, 614.6)">n</text></g></g><path d="M 0.0 0.0 L 58.1 0.0 " fill="none" stroke="#000000" stroke-width="2.00" transform="matrix(-0.61, 0.79, 0.79, 0.61, 182.8, 541.4)"></path><path d="M 0.0 0.0 L 80.7 0.0 " fill="none" stroke="#000000" stroke-width="2.00" transform="matrix(0.71, 0.71, 0.71, -0.71, 481.4, 535.9)"></path><path d="M -0.1 -0.2 L 54.9 -0.2 " fill="none" stroke="#000000" stroke-width="2.00" transform="matrix(0.00, 1.00, 1.00, 0.00, 349.2, 537.1)"></path><image xlink:href="../../33A026F8-D76F-4862-B92A-5425949BEBFF/assets/8D778519D0981E5EEE44355F6FC10038.png" width="317.00" height="227.00" transform="matrix(1.00, 0.00, -0.00, -1.00, 1386.1, 513.9)" opacity="0.50"></image><g><clipPath id="clip0x6080010aab00"><path d="M 1389.0 513.0 L 1700.0 513.0 L 1700.0 292.0 L 1389.0 292.0 Z M 1389.1 512.9 "></path></clipPath><g clip-path="url(#clip0x6080010aab00)"><path d="M 1389.0 292.0 L 1700.0 292.0 L 1700.0 513.0 L 1389.0 513.0 Z M 1389.0 292.0 " fill="url(#190E4317-2543-478C-84C7-992FB861B63A)"></path></g></g><g><clipPath id="clip0x6000012be540"><path d="M 1378.9 291.7 L 1710.3 291.7 L 1710.3 512.9 L 1378.9 512.9 Z M 1378.9 291.7 "></path></clipPath><g clip-path="url(#clip0x6000012be540)"><text xml:space="preserve" font-family="Helvetica-Bold,Helvetica" font-weight="bold" font-size="57.0" fill="#FEFFFE" transform="matrix(1.00, 0.00, -0.00, -1.00, 1408.4, 381.0)">F</text><text xml:space="preserve" font-family="Helvetica-Bold,Helvetica" font-weight="bold" font-size="57.0" fill="#FEFFFE" transform="matrix(1.00, 0.00, -0.00, -1.00, 1443.2, 381.0)">o</text><text xml:space="preserve" font-family="Helvetica-Bold,Helvetica" font-weight="bold" font-size="57.0" fill="#FEFFFE" transform="matrix(1.00, 0.00, -0.00, -1.00, 1478.0, 381.0)">o</text><text xml:space="preserve" font-family="Helvetica-Bold,Helvetica" font-weight="bold" font-size="57.0" fill="#FEFFFE" transform="matrix(1.00, 0.00, -0.00, -1.00, 1512.8, 381.0)">d</text><text xml:space="preserve" font-family="Helvetica-Bold,Helvetica" font-weight="bold" font-size="57.0" fill="#FEFFFE" transform="matrix(1.00, 0.00, -0.00, -1.00, 1547.6, 381.0)"> </text><text xml:space="preserve" font-family="Helvetica-Bold,Helvetica" font-weight="bold" font-size="57.0" fill="#FEFFFE" transform="matrix(1.00, 0.00, -0.00, -1.00, 1563.5, 381.0)">I</text><text xml:space="preserve" font-family="Helvetica-Bold,Helvetica" font-weight="bold" font-size="57.0" fill="#FEFFFE" transform="matrix(1.00, 0.00, -0.00, -1.00, 1579.3, 381.0)">t</text><text xml:space="preserve" font-family="Helvetica-Bold,Helvetica" font-weight="bold" font-size="57.0" fill="#FEFFFE" transform="matrix(1.00, 0.00, -0.00, -1.00, 1598.3, 381.0)">e</text><text xml:space="preserve" font-family="Helvetica-Bold,Helvetica" font-weight="bold" font-size="57.0" fill="#FEFFFE" transform="matrix(1.00, 0.00, -0.00, -1.00, 1630.0, 381.0)">m</text></g></g><image xlink:href="../../8EB76D3D-0DCD-411E-A37A-1DA3BFD3A87D/assets/38C33C4B0DB84208B0D2E809B500ECD0.png" width="141.00" height="57.00" transform="matrix(1.00, 0.00, -0.00, -1.00, 1292.2, 633.0)" opacity="0.50"></image><g><clipPath id="clip0x6080010aada0"><path d="M 1410.0 624.6 C 1436.3 614.6 1436.3 598.5 1410.0 588.5 C 1383.8 578.6 1341.2 578.6 1314.9 588.5 C 1288.6 598.5 1288.6 614.6 1314.9 624.6 C 1341.2 634.5 1383.8 634.5 1410.0 624.6 Z M 1410.0 624.6 "></path></clipPath><g clip-path="url(#clip0x6080010aada0)"><image xlink:href="../../B49DC77F-09BB-449C-9313-EC11A2C405DF/assets/C3C0FC898C94653CAF8AD846D6CCD108.png" width="600.00" height="600.00" transform="matrix(0.50, 0.00, -0.00, -0.50, 1295.2, 632.0)"></image></g></g><g><clipPath id="clip0x6000012beb40"><path d="M 1295.2 581.1 L 1429.7 581.1 L 1429.7 632.0 L 1295.2 632.0 Z M 1295.2 581.1 "></path></clipPath><g clip-path="url(#clip0x6000012beb40)"><text xml:space="preserve" font-family="Helvetica-Light,Helvetica" font-size="20.0" fill="#FEFFFE" transform="matrix(1.00, 0.00, -0.00, -1.00, 1329.1, 599.2)">f</text><text xml:space="preserve" font-family="Helvetica-Light,Helvetica" font-size="20.0" fill="#FEFFFE" transform="matrix(1.00, 0.00, -0.00, -1.00, 1334.7, 599.2)">o</text><text xml:space="preserve" font-family="Helvetica-Light,Helvetica" font-size="20.0" fill="#FEFFFE" transform="matrix(1.00, 0.00, -0.00, -1.00, 1345.8, 599.2)">o</text><text xml:space="preserve" font-family="Helvetica-Light,Helvetica" font-size="20.0" fill="#FEFFFE" transform="matrix(1.00, 0.00, -0.00, -1.00, 1356.9, 599.2)">d</text><text xml:space="preserve" font-family="Helvetica-Light,Helvetica" font-size="20.0" fill="#FEFFFE" transform="matrix(1.00, 0.00, -0.00, -1.00, 1369.1, 599.2)">_</text><text xml:space="preserve" font-family="Helvetica-Light,Helvetica" font-size="20.0" fill="#FEFFFE" transform="matrix(1.00, 0.00, -0.00, -1.00, 1379.1, 599.2)">i</text><text xml:space="preserve" font-family="Helvetica-Light,Helvetica" font-size="20.0" fill="#FEFFFE" transform="matrix(1.00, 0.00, -0.00, -1.00, 1383.6, 599.2)">d</text><path d="M 33.9 34.4 L 100.6 34.4 " fill="none" stroke="#FEFFFE" stroke-width="1.00" transform="matrix(1.00, 0.00, 0.00, -1.00, 1295.2, 632.0)"></path></g></g><image xlink:href="../../8EB76D3D-0DCD-411E-A37A-1DA3BFD3A87D/assets/38C33C4B0DB84208B0D2E809B500ECD0.png" width="141.00" height="57.00" transform="matrix(1.00, 0.00, -0.00, -1.00, 1498.8, 637.2)" opacity="0.50"></image><g><clipPath id="clip0x6000012bef60"><path d="M 1616.7 628.7 C 1642.9 618.8 1642.9 602.6 1616.7 592.7 C 1590.4 582.7 1547.8 582.7 1521.5 592.7 C 1495.3 602.6 1495.3 618.8 1521.5 628.7 C 1547.8 638.7 1590.4 638.7 1616.7 628.7 Z M 1616.7 628.7 "></path></clipPath><g clip-path="url(#clip0x6000012bef60)"><image xlink:href="../../B49DC77F-09BB-449C-9313-EC11A2C405DF/assets/C3C0FC898C94653CAF8AD846D6CCD108.png" width="600.00" height="600.00" transform="matrix(0.50, 0.00, -0.00, -0.50, 1501.8, 636.2)"></image></g></g><g><clipPath id="clip0x6080010aafe0"><path d="M 1501.8 585.2 L 1636.4 585.2 L 1636.4 636.2 L 1501.8 636.2 Z M 1501.8 585.2 "></path></clipPath><g clip-path="url(#clip0x6080010aafe0)"><text xml:space="preserve" font-family="Helvetica-Light,Helvetica" font-size="21.0" fill="#FEFFFE" transform="matrix(1.00, 0.00, -0.00, -1.00, 1542.9, 602.8)">n</text><text xml:space="preserve" font-family="Helvetica-Light,Helvetica" font-size="21.0" fill="#FEFFFE" transform="matrix(1.00, 0.00, -0.00, -1.00, 1554.5, 602.8)">a</text><text xml:space="preserve" font-family="Helvetica-Light,Helvetica" font-size="21.0" fill="#FEFFFE" transform="matrix(1.00, 0.00, -0.00, -1.00, 1566.2, 602.8)">m</text><text xml:space="preserve" font-family="Helvetica-Light,Helvetica" font-size="21.0" fill="#FEFFFE" transform="matrix(1.00, 0.00, -0.00, -1.00, 1583.7, 602.8)">e</text></g></g><image xlink:href="../../8EB76D3D-0DCD-411E-A37A-1DA3BFD3A87D/assets/38C33C4B0DB84208B0D2E809B500ECD0.png" width="141.00" height="57.00" transform="matrix(1.00, 0.00, -0.00, -1.00, 1705.5, 633.0)" opacity="0.50"></image><g><clipPath id="clip0x6080010ab400"><path d="M 1823.3 624.6 C 1849.6 614.6 1849.6 598.5 1823.3 588.5 C 1797.1 578.6 1754.5 578.6 1728.2 588.5 C 1701.9 598.5 1701.9 614.6 1728.2 624.6 C 1754.5 634.5 1797.1 634.5 1823.3 624.6 Z M 1823.3 624.6 "></path></clipPath><g clip-path="url(#clip0x6080010ab400)"><image xlink:href="../../B49DC77F-09BB-449C-9313-EC11A2C405DF/assets/C3C0FC898C94653CAF8AD846D6CCD108.png" width="600.00" height="600.00" transform="matrix(0.50, 0.00, -0.00, -0.50, 1708.5, 632.0)"></image></g></g><g><clipPath id="clip0x6080010ab640"><path d="M 1708.5 581.1 L 1843.0 581.1 L 1843.0 632.0 L 1708.5 632.0 Z M 1708.5 581.1 "></path></clipPath><g clip-path="url(#clip0x6080010ab640)"><text xml:space="preserve" font-family="Helvetica-Light,Helvetica" font-size="20.0" fill="#FEFFFE" transform="matrix(1.00, 0.00, -0.00, -1.00, 1751.3, 599.0)">ﬂ</text><text xml:space="preserve" font-family="Helvetica-Light,Helvetica" font-size="20.0" fill="#FEFFFE" transform="matrix(1.00, 0.00, -0.00, -1.00, 1761.3, 599.0)">a</text><text xml:space="preserve" font-family="Helvetica-Light,Helvetica" font-size="20.0" fill="#FEFFFE" transform="matrix(1.00, 0.00, -0.00, -1.00, 1772.4, 599.0)">v</text><text xml:space="preserve" font-family="Helvetica-Light,Helvetica" font-size="20.0" fill="#FEFFFE" transform="matrix(1.00, 0.00, -0.00, -1.00, 1782.4, 599.0)">o</text><text xml:space="preserve" font-family="Helvetica-Light,Helvetica" font-size="20.0" fill="#FEFFFE" transform="matrix(1.00, 0.00, -0.00, -1.00, 1793.6, 599.0)">r</text></g></g><path d="M 0.0 0.0 L 58.1 0.0 " fill="none" stroke="#000000" stroke-width="2.00" transform="matrix(-0.61, 0.79, 0.79, 0.61, 1401.0, 526.0)"></path><path d="M 0.0 0.0 L 80.7 0.0 " fill="none" stroke="#000000" stroke-width="2.00" transform="matrix(0.71, 0.71, 0.71, -0.71, 1699.7, 520.5)"></path><path d="M 0.3 -0.4 L 54.3 -0.4 " fill="none" stroke="#000000" stroke-width="2.00" transform="matrix(0.00, 1.00, 1.00, 0.00, 1567.4, 521.7)"></path><image xlink:href="../../8EB76D3D-0DCD-411E-A37A-1DA3BFD3A87D/assets/F48AE92D95300E7B8E65A30D873BE7B0.png" width="429.00" height="331.00" transform="matrix(1.00, 0.00, -0.00, -1.00, 721.9, 583.2)" opacity="0.50"></image><g><clipPath id="clip0x6080010abc40"><path d="M 724.9 417.7 L 935.5 256.2 L 1146.0 417.7 L 935.5 579.2 Z M 724.9 417.7 "></path></clipPath><g clip-path="url(#clip0x6080010abc40)"><path d="M 724.9 256.2 L 1146.0 256.2 L 1146.0 579.2 L 724.9 579.2 Z M 724.9 256.2 " fill="url(#E878EB80-4A7D-430C-8473-DC9AD84E7525)"></path></g></g><g><clipPath id="clip0x6080010ac120"><path d="M 724.9 256.2 L 1146.0 256.2 L 1146.0 579.2 L 724.9 579.2 Z M 724.9 256.2 "></path></clipPath><g clip-path="url(#clip0x6080010ac120)"><text xml:space="preserve" font-family="Helvetica-Bold,Helvetica" font-weight="bold" font-size="47.0" fill="#FEFFFE" transform="matrix(1.00, 0.00, -0.00, -1.00, 808.8, 400.6)">I</text><text xml:space="preserve" font-family="Helvetica-Bold,Helvetica" font-weight="bold" font-size="47.0" fill="#FEFFFE" transform="matrix(1.00, 0.00, -0.00, -1.00, 821.8, 400.6)">n</text><text xml:space="preserve" font-family="Helvetica-Bold,Helvetica" font-weight="bold" font-size="47.0" fill="#FEFFFE" transform="matrix(1.00, 0.00, -0.00, -1.00, 850.5, 400.6)">g</text><text xml:space="preserve" font-family="Helvetica-Bold,Helvetica" font-weight="bold" font-size="47.0" fill="#FEFFFE" transform="matrix(1.00, 0.00, -0.00, -1.00, 879.2, 400.6)">r</text><text xml:space="preserve" font-family="Helvetica-Bold,Helvetica" font-weight="bold" font-size="47.0" fill="#FEFFFE" transform="matrix(1.00, 0.00, -0.00, -1.00, 897.5, 400.6)">e</text><text xml:space="preserve" font-family="Helvetica-Bold,Helvetica" font-weight="bold" font-size="47.0" fill="#FEFFFE" transform="matrix(1.00, 0.00, -0.00, -1.00, 923.7, 400.6)">d</text><text xml:space="preserve" font-family="Helvetica-Bold,Helvetica" font-weight="bold" font-size="47.0" fill="#FEFFFE" transform="matrix(1.00, 0.00, -0.00, -1.00, 952.4, 400.6)">i</text><text xml:space="preserve" font-family="Helvetica-Bold,Helvetica" font-weight="bold" font-size="47.0" fill="#FEFFFE" transform="matrix(1.00, 0.00, -0.00, -1.00, 965.4, 400.6)">e</text><text xml:space="preserve" font-family="Helvetica-Bold,Helvetica" font-weight="bold" font-size="47.0" fill="#FEFFFE" transform="matrix(1.00, 0.00, -0.00, -1.00, 991.6, 400.6)">n</text><text xml:space="preserve" font-family="Helvetica-Bold,Helvetica" font-weight="bold" font-size="47.0" fill="#FEFFFE" transform="matrix(1.00, 0.00, -0.00, -1.00, 1020.3, 400.6)">t</text><text xml:space="preserve" font-family="Helvetica-Bold,Helvetica" font-weight="bold" font-size="47.0" fill="#FEFFFE" transform="matrix(1.00, 0.00, -0.00, -1.00, 1035.9, 400.6)">s</text></g></g><path d="M 0.2 0.4 L 202.2 0.4 " fill="none" stroke="#000000" stroke-width="2.00" transform="matrix(-1.00, 0.00, 0.00, 1.00, 704.2, 413.6)"></path><path d="M 0.5 0.3 L 201.5 0.3 " fill="none" stroke="#000000" stroke-width="2.00" transform="matrix(-1.00, 0.00, 0.00, 1.00, 1368.5, 417.7)"></path><image xlink:href="../../F49798D4-0CC2-4941-A241-8EC295A802F5/assets/CBCBD134032B53601A910B9BA2DEE185.png" width="143.00" height="59.00" transform="matrix(1.00, 0.00, -0.00, -1.00, 865.2, 703.4)" opacity="0.50"></image><g><clipPath id="clip0x6000012bf380"><path d="M 983.0 691.9 C 1009.3 682.0 1009.3 665.9 983.0 655.9 C 956.7 646.0 914.2 646.0 887.9 655.9 C 861.6 665.9 861.6 682.0 887.9 691.9 C 914.2 701.9 956.7 701.9 983.0 691.9 Z M 983.0 691.9 "></path></clipPath><g clip-path="url(#clip0x6000012bf380)"><image xlink:href="../../8EB76D3D-0DCD-411E-A37A-1DA3BFD3A87D/assets/57C63BC369DF2E161F93135AB5988468.png" width="600.00" height="600.00" transform="matrix(0.50, 0.00, -0.00, -0.50, 868.2, 699.4)"></image></g></g><g><clipPath id="clip0x6000012bf3e0"><path d="M 868.2 648.4 L 1002.7 648.4 L 1002.7 699.4 L 868.2 699.4 Z M 868.2 648.4 "></path></clipPath><g clip-path="url(#clip0x6000012bf3e0)"><text xml:space="preserve" font-family="Helvetica-Light,Helvetica" font-size="23.0" fill="#FEFFFE" transform="matrix(1.00, 0.00, -0.00, -1.00, 894.5, 665.5)">q</text><text xml:space="preserve" font-family="Helvetica-Light,Helvetica" font-size="23.0" fill="#FEFFFE" transform="matrix(1.00, 0.00, -0.00, -1.00, 908.6, 665.5)">u</text><text xml:space="preserve" font-family="Helvetica-Light,Helvetica" font-size="23.0" fill="#FEFFFE" transform="matrix(1.00, 0.00, -0.00, -1.00, 921.4, 665.5)">a</text><text xml:space="preserve" font-family="Helvetica-Light,Helvetica" font-size="23.0" fill="#FEFFFE" transform="matrix(1.00, 0.00, -0.00, -1.00, 934.2, 665.5)">n</text><text xml:space="preserve" font-family="Helvetica-Light,Helvetica" font-size="23.0" fill="#FEFFFE" transform="matrix(1.00, 0.00, -0.00, -1.00, 947.0, 665.5)">t</text><text xml:space="preserve" font-family="Helvetica-Light,Helvetica" font-size="23.0" fill="#FEFFFE" transform="matrix(1.00, 0.00, -0.00, -1.00, 953.4, 665.5)">i</text><text xml:space="preserve" font-family="Helvetica-Light,Helvetica" font-size="23.0" fill="#FEFFFE" transform="matrix(1.00, 0.00, -0.00, -1.00, 958.5, 665.5)">t</text><text xml:space="preserve" font-family="Helvetica-Light,Helvetica" font-size="23.0" fill="#FEFFFE" transform="matrix(1.00, 0.00, -0.00, -1.00, 964.9, 665.5)">y</text></g></g><path d="M 0.1 0.3 L 55.1 0.3 " fill="none" stroke="#000000" stroke-width="2.00" transform="matrix(0.00, 1.00, 1.00, 0.00, 933.7, 584.9)"></path><text xml:space="preserve" font-family="Helvetica-Light,Helvetica" font-size="50.0" fill="#000000" transform="matrix(1.00, 0.00, -0.00, -1.00, 256.4, 134.4)">E</text><text xml:space="preserve" font-family="Helvetica-Light,Helvetica" font-size="50.0" fill="#000000" transform="matrix(1.00, 0.00, -0.00, -1.00, 287.0, 134.4)">x</text><text xml:space="preserve" font-family="Helvetica-Light,Helvetica" font-size="50.0" fill="#000000" transform="matrix(1.00, 0.00, -0.00, -1.00, 312.0, 134.4)">a</text><text xml:space="preserve" font-family="Helvetica-Light,Helvetica" font-size="50.0" fill="#000000" transform="matrix(1.00, 0.00, -0.00, -1.00, 339.8, 134.4)">m</text><text xml:space="preserve" font-family="Helvetica-Light,Helvetica" font-size="50.0" fill="#000000" transform="matrix(1.00, 0.00, -0.00, -1.00, 381.4, 134.4)">p</text><text xml:space="preserve" font-family="Helvetica-Light,Helvetica" font-size="50.0" fill="#000000" transform="matrix(1.00, 0.00, -0.00, -1.00, 412.0, 134.4)">l</text><text xml:space="preserve" font-family="Helvetica-Light,Helvetica" font-size="50.0" fill="#000000" transform="matrix(1.00, 0.00, -0.00, -1.00, 423.1, 134.4)">e</text><text xml:space="preserve" font-family="Helvetica-Light,Helvetica" font-size="50.0" fill="#000000" transform="matrix(1.00, 0.00, -0.00, -1.00, 450.9, 134.4)">:</text><text xml:space="preserve" font-family="Helvetica-Light,Helvetica" font-size="50.0" fill="#000000" transform="matrix(1.00, 0.00, -0.00, -1.00, 464.8, 134.4)"> </text><text xml:space="preserve" font-family="Helvetica-Light,Helvetica" font-size="50.0" fill="#000000" transform="matrix(1.00, 0.00, -0.00, -1.00, 478.7, 134.4)">T</text><text xml:space="preserve" font-family="Helvetica-Light,Helvetica" font-size="50.0" fill="#000000" transform="matrix(1.00, 0.00, -0.00, -1.00, 506.5, 134.4)">h</text><text xml:space="preserve" font-family="Helvetica-Light,Helvetica" font-size="50.0" fill="#000000" transform="matrix(1.00, 0.00, -0.00, -1.00, 534.3, 134.4)">e</text><text xml:space="preserve" font-family="Helvetica-Light,Helvetica" font-size="50.0" fill="#000000" transform="matrix(1.00, 0.00, -0.00, -1.00, 562.1, 134.4)"> </text><text xml:space="preserve" font-family="Helvetica-Light,Helvetica" font-size="50.0" fill="#000000" transform="matrix(1.00, 0.00, -0.00, -1.00, 576.0, 134.4)">r</text><text xml:space="preserve" font-family="Helvetica-Light,Helvetica" font-size="50.0" fill="#000000" transform="matrix(1.00, 0.00, -0.00, -1.00, 591.7, 134.4)">e</text><text xml:space="preserve" font-family="Helvetica-Light,Helvetica" font-size="50.0" fill="#000000" transform="matrix(1.00, 0.00, -0.00, -1.00, 619.5, 134.4)">c</text><text xml:space="preserve" font-family="Helvetica-Light,Helvetica" font-size="50.0" fill="#000000" transform="matrix(1.00, 0.00, -0.00, -1.00, 647.3, 134.4)">i</text><text xml:space="preserve" font-family="Helvetica-Light,Helvetica" font-size="50.0" fill="#000000" transform="matrix(1.00, 0.00, -0.00, -1.00, 658.4, 134.4)">p</text><text xml:space="preserve" font-family="Helvetica-Light,Helvetica" font-size="50.0" fill="#000000" transform="matrix(1.00, 0.00, -0.00, -1.00, 689.0, 134.4)">e</text><text xml:space="preserve" font-family="Helvetica-Light,Helvetica" font-size="50.0" fill="#000000" transform="matrix(1.00, 0.00, -0.00, -1.00, 716.8, 134.4)"> </text><text xml:space="preserve" font-family="Helvetica-Light,Helvetica" font-size="50.0" fill="#000000" transform="matrix(1.00, 0.00, -0.00, -1.00, 730.7, 134.4)">m</text><text xml:space="preserve" font-family="Helvetica-Light,Helvetica" font-size="50.0" fill="#000000" transform="matrix(1.00, 0.00, -0.00, -1.00, 772.3, 134.4)">a</text><text xml:space="preserve" font-family="Helvetica-Light,Helvetica" font-size="50.0" fill="#000000" transform="matrix(1.00, 0.00, -0.00, -1.00, 800.1, 134.4)">c</text><text xml:space="preserve" font-family="Helvetica-Light,Helvetica" font-size="50.0" fill="#000000" transform="matrix(1.00, 0.00, -0.00, -1.00, 827.9, 134.4)"> </text><text xml:space="preserve" font-family="Helvetica-Light,Helvetica" font-size="50.0" fill="#000000" transform="matrix(1.00, 0.00, -0.00, -1.00, 841.8, 134.4)">&amp;</text><text xml:space="preserve" font-family="Helvetica-Light,Helvetica" font-size="50.0" fill="#000000" transform="matrix(1.00, 0.00, -0.00, -1.00, 875.2, 134.4)"> </text><text xml:space="preserve" font-family="Helvetica-Light,Helvetica" font-size="50.0" fill="#000000" transform="matrix(1.00, 0.00, -0.00, -1.00, 889.1, 134.4)">c</text><text xml:space="preserve" font-family="Helvetica-Light,Helvetica" font-size="50.0" fill="#000000" transform="matrix(1.00, 0.00, -0.00, -1.00, 916.9, 134.4)">h</text><text xml:space="preserve" font-family="Helvetica-Light,Helvetica" font-size="50.0" fill="#000000" transform="matrix(1.00, 0.00, -0.00, -1.00, 944.7, 134.4)">e</text><text xml:space="preserve" font-family="Helvetica-Light,Helvetica" font-size="50.0" fill="#000000" transform="matrix(1.00, 0.00, -0.00, -1.00, 972.5, 134.4)">e</text><text xml:space="preserve" font-family="Helvetica-Light,Helvetica" font-size="50.0" fill="#000000" transform="matrix(1.00, 0.00, -0.00, -1.00, 1000.3, 134.4)">s</text><text xml:space="preserve" font-family="Helvetica-Light,Helvetica" font-size="50.0" fill="#000000" transform="matrix(1.00, 0.00, -0.00, -1.00, 1025.3, 134.4)">e</text><text xml:space="preserve" font-family="Helvetica-Light,Helvetica" font-size="50.0" fill="#000000" transform="matrix(1.00, 0.00, -0.00, -1.00, 1053.1, 134.4)"> </text><text xml:space="preserve" font-family="Helvetica-Light,Helvetica" font-size="50.0" fill="#000000" transform="matrix(1.00, 0.00, -0.00, -1.00, 1067.0, 134.4)">h</text><text xml:space="preserve" font-family="Helvetica-Light,Helvetica" font-size="50.0" fill="#000000" transform="matrix(1.00, 0.00, -0.00, -1.00, 1094.8, 134.4)">a</text><text xml:space="preserve" font-family="Helvetica-Light,Helvetica" font-size="50.0" fill="#000000" transform="matrix(1.00, 0.00, -0.00, -1.00, 1122.6, 134.4)">s</text><text xml:space="preserve" font-family="Helvetica-Light,Helvetica" font-size="50.0" fill="#000000" transform="matrix(1.00, 0.00, -0.00, -1.00, 1147.6, 134.4)"> </text><text xml:space="preserve" font-family="Helvetica-Light,Helvetica" font-size="50.0" fill="#000000" transform="matrix(1.00, 0.00, -0.00, -1.00, 1161.5, 134.4)">a</text><text xml:space="preserve" font-family="Helvetica-Light,Helvetica" font-size="50.0" fill="#000000" transform="matrix(1.00, 0.00, -0.00, -1.00, 1189.3, 134.4)">n</text><text xml:space="preserve" font-family="Helvetica-Light,Helvetica" font-size="50.0" fill="#000000" transform="matrix(1.00, 0.00, -0.00, -1.00, 1217.1, 134.4)"> </text><text xml:space="preserve" font-family="Helvetica-Light,Helvetica" font-size="50.0" fill="#000000" transform="matrix(1.00, 0.00, -0.00, -1.00, 1231.0, 134.4)">i</text><text xml:space="preserve" font-family="Helvetica-Light,Helvetica" font-size="50.0" fill="#000000" transform="matrix(1.00, 0.00, -0.00, -1.00, 1242.1, 134.4)">n</text><text xml:space="preserve" font-family="Helvetica-Light,Helvetica" font-size="50.0" fill="#000000" transform="matrix(1.00, 0.00, -0.00, -1.00, 1269.9, 134.4)">g</text><text xml:space="preserve" font-family="Helvetica-Light,Helvetica" font-size="50.0" fill="#000000" transform="matrix(1.00, 0.00, -0.00, -1.00, 1300.4, 134.4)">r</text><text xml:space="preserve" font-family="Helvetica-Light,Helvetica" font-size="50.0" fill="#000000" transform="matrix(1.00, 0.00, -0.00, -1.00, 1316.2, 134.4)">e</text><text xml:space="preserve" font-family="Helvetica-Light,Helvetica" font-size="50.0" fill="#000000" transform="matrix(1.00, 0.00, -0.00, -1.00, 1344.0, 134.4)">d</text><text xml:space="preserve" font-family="Helvetica-Light,Helvetica" font-size="50.0" fill="#000000" transform="matrix(1.00, 0.00, -0.00, -1.00, 1374.5, 134.4)">i</text><text xml:space="preserve" font-family="Helvetica-Light,Helvetica" font-size="50.0" fill="#000000" transform="matrix(1.00, 0.00, -0.00, -1.00, 1385.6, 134.4)">e</text><text xml:space="preserve" font-family="Helvetica-Light,Helvetica" font-size="50.0" fill="#000000" transform="matrix(1.00, 0.00, -0.00, -1.00, 1413.4, 134.4)">n</text><text xml:space="preserve" font-family="Helvetica-Light,Helvetica" font-size="50.0" fill="#000000" transform="matrix(1.00, 0.00, -0.00, -1.00, 1441.2, 134.4)">t</text><text xml:space="preserve" font-family="Helvetica-Light,Helvetica" font-size="50.0" fill="#000000" transform="matrix(1.00, 0.00, -0.00, -1.00, 1455.1, 134.4)"> </text><text xml:space="preserve" font-family="Helvetica-Light,Helvetica" font-size="50.0" fill="#000000" transform="matrix(1.00, 0.00, -0.00, -1.00, 1469.0, 134.4)">o</text><text xml:space="preserve" font-family="Helvetica-Light,Helvetica" font-size="50.0" fill="#000000" transform="matrix(1.00, 0.00, -0.00, -1.00, 1496.8, 134.4)">f</text><text xml:space="preserve" font-family="Helvetica-Light,Helvetica" font-size="50.0" fill="#000000" transform="matrix(1.00, 0.00, -0.00, -1.00, 1510.7, 134.4)"> </text><text xml:space="preserve" font-family="Helvetica-Light,Helvetica" font-size="50.0" fill="#000000" transform="matrix(1.00, 0.00, -0.00, -1.00, 1524.6, 134.4)">1</text><text xml:space="preserve" font-family="Helvetica-Light,Helvetica" font-size="50.0" fill="#000000" transform="matrix(1.00, 0.00, -0.00, -1.00, 1552.4, 134.4)"> </text><text xml:space="preserve" font-family="Helvetica-Light,Helvetica" font-size="50.0" fill="#000000" transform="matrix(1.00, 0.00, -0.00, -1.00, 1566.3, 134.4)">l</text><text xml:space="preserve" font-family="Helvetica-Light,Helvetica" font-size="50.0" fill="#000000" transform="matrix(1.00, 0.00, -0.00, -1.00, 1577.4, 134.4)">b</text><text xml:space="preserve" font-family="Helvetica-Light,Helvetica" font-size="50.0" fill="#000000" transform="matrix(1.00, 0.00, -0.00, -1.00, 1608.0, 134.4)"> </text><text xml:space="preserve" font-family="Helvetica-Light,Helvetica" font-size="50.0" fill="#000000" transform="matrix(1.00, 0.00, -0.00, -1.00, 1621.9, 134.4)">o</text><text xml:space="preserve" font-family="Helvetica-Light,Helvetica" font-size="50.0" fill="#000000" transform="matrix(1.00, 0.00, -0.00, -1.00, 1649.7, 134.4)">f</text><text xml:space="preserve" font-family="Helvetica-Light,Helvetica" font-size="50.0" fill="#000000" transform="matrix(1.00, 0.00, -0.00, -1.00, 1663.6, 134.4)"> </text><text xml:space="preserve" font-family="Helvetica-Light,Helvetica" font-size="50.0" fill="#000000" transform="matrix(1.00, 0.00, -0.00, -1.00, 778.5, 74.4)">m</text><text xml:space="preserve" font-family="Helvetica-Light,Helvetica" font-size="50.0" fill="#000000" transform="matrix(1.00, 0.00, -0.00, -1.00, 820.1, 74.4)">a</text><text xml:space="preserve" font-family="Helvetica-Light,Helvetica" font-size="50.0" fill="#000000" transform="matrix(1.00, 0.00, -0.00, -1.00, 847.9, 74.4)">c</text><text xml:space="preserve" font-family="Helvetica-Light,Helvetica" font-size="50.0" fill="#000000" transform="matrix(1.00, 0.00, -0.00, -1.00, 875.7, 74.4)">a</text><text xml:space="preserve" font-family="Helvetica-Light,Helvetica" font-size="50.0" fill="#000000" transform="matrix(1.00, 0.00, -0.00, -1.00, 903.5, 74.4)">r</text><text xml:space="preserve" font-family="Helvetica-Light,Helvetica" font-size="50.0" fill="#000000" transform="matrix(1.00, 0.00, -0.00, -1.00, 919.2, 74.4)">o</text><text xml:space="preserve" font-family="Helvetica-Light,Helvetica" font-size="50.0" fill="#000000" transform="matrix(1.00, 0.00, -0.00, -1.00, 947.1, 74.4)">n</text><text xml:space="preserve" font-family="Helvetica-Light,Helvetica" font-size="50.0" fill="#000000" transform="matrix(1.00, 0.00, -0.00, -1.00, 974.9, 74.4)">i</text><text xml:space="preserve" font-family="Helvetica-Light,Helvetica" font-size="50.0" fill="#000000" transform="matrix(1.00, 0.00, -0.00, -1.00, 986.0, 74.4)"> </text><text xml:space="preserve" font-family="Helvetica-Light,Helvetica" font-size="50.0" fill="#000000" transform="matrix(1.00, 0.00, -0.00, -1.00, 999.9, 74.4)">s</text><text xml:space="preserve" font-family="Helvetica-Light,Helvetica" font-size="50.0" fill="#000000" transform="matrix(1.00, 0.00, -0.00, -1.00, 1024.9, 74.4)">h</text><text xml:space="preserve" font-family="Helvetica-Light,Helvetica" font-size="50.0" fill="#000000" transform="matrix(1.00, 0.00, -0.00, -1.00, 1052.7, 74.4)">e</text><text xml:space="preserve" font-family="Helvetica-Light,Helvetica" font-size="50.0" fill="#000000" transform="matrix(1.00, 0.00, -0.00, -1.00, 1080.5, 74.4)">l</text><text xml:space="preserve" font-family="Helvetica-Light,Helvetica" font-size="50.0" fill="#000000" transform="matrix(1.00, 0.00, -0.00, -1.00, 1091.6, 74.4)">l</text><text xml:space="preserve" font-family="Helvetica-Light,Helvetica" font-size="50.0" fill="#000000" transform="matrix(1.00, 0.00, -0.00, -1.00, 1102.7, 74.4)">s</text><text xml:space="preserve" font-family="Helvetica-Light,Helvetica" font-size="50.0" fill="#000000" transform="matrix(1.00, 0.00, -0.00, -1.00, 1127.7, 74.4)">.</text><image xlink:href="../../2180DC56-5219-475B-9046-D882D08002DE/assets/2014BDBABB609DE09D58D13BCB7C28F2.png" width="550.00" height="825.00" transform="matrix(0.33, 0.00, -0.00, -0.33, 206.0, 1031.0)"></image><text xml:space="preserve" font-family="Helvetica-Light,Helvetica" font-size="58.0" fill="#000000" transform="matrix(1.00, 0.00, -0.00, -1.00, 825.7, 872.9)">1</text><text xml:space="preserve" font-family="Helvetica-Light,Helvetica" font-size="58.0" fill="#000000" transform="matrix(1.00, 0.00, -0.00, -1.00, 858.0, 872.9)"> </text><text xml:space="preserve" font-family="Helvetica-Light,Helvetica" font-size="58.0" fill="#000000" transform="matrix(1.00, 0.00, -0.00, -1.00, 874.1, 872.9)">p</text><text xml:space="preserve" font-family="Helvetica-Light,Helvetica" font-size="58.0" fill="#000000" transform="matrix(1.00, 0.00, -0.00, -1.00, 909.5, 872.9)">o</text><text xml:space="preserve" font-family="Helvetica-Light,Helvetica" font-size="58.0" fill="#000000" transform="matrix(1.00, 0.00, -0.00, -1.00, 941.8, 872.9)">u</text><text xml:space="preserve" font-family="Helvetica-Light,Helvetica" font-size="58.0" fill="#000000" transform="matrix(1.00, 0.00, -0.00, -1.00, 974.0, 872.9)">n</text><text xml:space="preserve" font-family="Helvetica-Light,Helvetica" font-size="58.0" fill="#000000" transform="matrix(1.00, 0.00, -0.00, -1.00, 1006.3, 872.9)">d</text><image xlink:href="../../972DC1DF-4077-40DF-9C31-DA172C909F3C/assets/B0E44C1080A6D04FBB3BC44DDCD67334.png" width="380.00" height="278.00" transform="matrix(0.69, 0.00, -0.00, -0.69, 1480.0, 991.0)"></image><text xml:space="preserve" font-family="Helvetica-Light,Helvetica" font-size="50.0" fill="#A6AAA8" transform="matrix(1.00, 0.00, -0.00, -1.00, 563.0, 876.1)">h</text><text xml:space="preserve" font-family="Helvetica-Light,Helvetica" font-size="50.0" fill="#A6AAA8" transform="matrix(1.00, 0.00, -0.00, -1.00, 590.8, 876.1)">a</text><text xml:space="preserve" font-family="Helvetica-Light,Helvetica" font-size="50.0" fill="#A6AAA8" transform="matrix(1.00, 0.00, -0.00, -1.00, 618.6, 876.1)">s</text><text xml:space="preserve" font-family="Helvetica-Light,Helvetica" font-size="50.0" fill="#A6AAA8" transform="matrix(1.00, 0.00, -0.00, -1.00, 1246.7, 876.1)">o</text><text xml:space="preserve" font-family="Helvetica-Light,Helvetica" font-size="50.0" fill="#A6AAA8" transform="matrix(1.00, 0.00, -0.00, -1.00, 1274.5, 876.1)">f</text></g></svg>