<?xml version="1.0" encoding="UTF-8" standalone="no"?><svg xmlns="http://www.w3.org/2000/svg" xmlns:xlink="http://www.w3.org/1999/xlink" clip-rule="evenodd" stroke-miterlimit="10" viewBox="0 0 1920 1080"><desc>SVG generated by Keynote</desc><defs></defs><g transform="matrix(1.00, 0.00, -0.00, -1.00, 0.0, 1080.0)"><path d="M 0.0 1080.0 L 1920.0 1080.0 L 1920.0 0.0 L 0.0 0.0 Z M 0.0 1080.0 " fill="#FEFFFF"></path><text xml:space="preserve" font-family="Courier,Courier" font-size="87.4" fill="#51A7F9" transform="matrix(1.00, 0.00, -0.00, -1.00, 435.8, 862.6)">S</text><text xml:space="preserve" font-family="Courier,Courier" font-size="87.4" fill="#51A7F9" transform="matrix(1.00, 0.00, -0.00, -1.00, 488.2, 862.6)">E</text><text xml:space="preserve" font-family="Courier,Courier" font-size="87.4" fill="#51A7F9" transform="matrix(1.00, 0.00, -0.00, -1.00, 540.6, 862.6)">L</text><text xml:space="preserve" font-family="Courier,Courier" font-size="87.4" fill="#51A7F9" transform="matrix(1.00, 0.00, -0.00, -1.00, 593.1, 862.6)">E</text><text xml:space="preserve" font-family="Courier,Courier" font-size="87.4" fill="#51A7F9" transform="matrix(1.00, 0.00, -0.00, -1.00, 645.5, 862.6)">C</text><text xml:space="preserve" font-family="Courier,Courier" font-size="87.4" fill="#51A7F9" transform="matrix(1.00, 0.00, -0.00, -1.00, 697.9, 862.6)">T</text><text xml:space="preserve" font-family="Courier,Courier" font-size="87.4" fill="#A6AAA8" transform="matrix(1.00, 0.00, -0.00, -1.00, 750.3, 862.6)"> </text><text xml:space="preserve" font-family="Courier,Courier" font-size="87.4" fill="#0264C0" transform="matrix(1.00, 0.00, -0.00, -1.00, 802.7, 862.6)">a</text><text xml:space="preserve" font-family="Courier,Courier" font-size="87.4" fill="#0264C0" transform="matrix(1.00, 0.00, -0.00, -1.00, 855.2, 862.6)">n</text><text xml:space="preserve" font-family="Courier,Courier" font-size="87.4" fill="#0264C0" transform="matrix(1.00, 0.00, -0.00, -1.00, 907.6, 862.6)">n</text><text xml:space="preserve" font-family="Courier,Courier" font-size="87.4" fill="#0264C0" transform="matrix(1.00, 0.00, -0.00, -1.00, 960.0, 862.6)">u</text><text xml:space="preserve" font-family="Courier,Courier" font-size="87.4" fill="#0264C0" transform="matrix(1.00, 0.00, -0.00, -1.00, 1012.5, 862.6)">a</text><text xml:space="preserve" font-family="Courier,Courier" font-size="87.4" fill="#0264C0" transform="matrix(1.00, 0.00, -0.00, -1.00, 1064.9, 862.6)">l</text><text xml:space="preserve" font-family="Courier,Courier" font-size="87.4" fill="#0264C0" transform="matrix(1.00, 0.00, -0.00, -1.00, 1117.3, 862.6)">_</text><text xml:space="preserve" font-family="Courier,Courier" font-size="87.4" fill="#0264C0" transform="matrix(1.00, 0.00, -0.00, -1.00, 1169.8, 862.6)">i</text><text xml:space="preserve" font-family="Courier,Courier" font-size="87.4" fill="#0264C0" transform="matrix(1.00, 0.00, -0.00, -1.00, 1222.2, 862.6)">n</text><text xml:space="preserve" font-family="Courier,Courier" font-size="87.4" fill="#0264C0" transform="matrix(1.00, 0.00, -0.00, -1.00, 1274.6, 862.6)">c</text><text xml:space="preserve" font-family="Courier,Courier" font-size="87.4" fill="#0264C0" transform="matrix(1.00, 0.00, -0.00, -1.00, 1327.1, 862.6)">o</text><text xml:space="preserve" font-family="Courier,Courier" font-size="87.4" fill="#0264C0" transform="matrix(1.00, 0.00, -0.00, -1.00, 1379.5, 862.6)">m</text><text xml:space="preserve" font-family="Courier,Courier" font-size="87.4" fill="#0264C0" transform="matrix(1.00, 0.00, -0.00, -1.00, 1431.9, 862.6)">e</text><text xml:space="preserve" font-family="Courier,Courier" font-size="87.4" fill="#F38F18" transform="matrix(1.00, 0.00, -0.00, -1.00, 147.4, 758.6)">F</text><text xml:space="preserve" font-family="Courier,Courier" font-size="87.4" fill="#F38F18" transform="matrix(1.00, 0.00, -0.00, -1.00, 199.9, 758.6)">R</text><text xml:space="preserve" font-family="Courier,Courier" font-size="87.4" fill="#F38F18" transform="matrix(1.00, 0.00, -0.00, -1.00, 252.3, 758.6)">O</text><text xml:space="preserve" font-family="Courier,Courier" font-size="87.4" fill="#F38F18" transform="matrix(1.00, 0.00, -0.00, -1.00, 304.7, 758.6)">M</text><text xml:space="preserve" font-family="Courier,Courier" font-size="87.4" fill="#A6AAA8" transform="matrix(1.00, 0.00, -0.00, -1.00, 357.1, 758.6)"> </text><text xml:space="preserve" font-family="Courier,Courier" font-size="87.4" fill="#DE6A10" transform="matrix(1.00, 0.00, -0.00, -1.00, 409.5, 758.6)">P</text><text xml:space="preserve" font-family="Courier,Courier" font-size="87.4" fill="#DE6A10" transform="matrix(1.00, 0.00, -0.00, -1.00, 462.0, 758.6)">e</text><text xml:space="preserve" font-family="Courier,Courier" font-size="87.4" fill="#DE6A10" transform="matrix(1.00, 0.00, -0.00, -1.00, 514.4, 758.6)">o</text><text xml:space="preserve" font-family="Courier,Courier" font-size="87.4" fill="#DE6A10" transform="matrix(1.00, 0.00, -0.00, -1.00, 566.8, 758.6)">p</text><text xml:space="preserve" font-family="Courier,Courier" font-size="87.4" fill="#DE6A10" transform="matrix(1.00, 0.00, -0.00, -1.00, 619.3, 758.6)">l</text><text xml:space="preserve" font-family="Courier,Courier" font-size="87.4" fill="#DE6A10" transform="matrix(1.00, 0.00, -0.00, -1.00, 671.7, 758.6)">e</text><text xml:space="preserve" font-family="Courier,Courier" font-size="87.4" fill="#DE6A10" transform="matrix(1.00, 0.00, -0.00, -1.00, 724.1, 758.6)"> </text><text xml:space="preserve" font-family="Courier,Courier" font-size="87.4" fill="#DE6A10" transform="matrix(1.00, 0.00, -0.00, -1.00, 776.6, 758.6)">N</text><text xml:space="preserve" font-family="Courier,Courier" font-size="87.4" fill="#DE6A10" transform="matrix(1.00, 0.00, -0.00, -1.00, 829.0, 758.6)">A</text><text xml:space="preserve" font-family="Courier,Courier" font-size="87.4" fill="#DE6A10" transform="matrix(1.00, 0.00, -0.00, -1.00, 881.4, 758.6)">T</text><text xml:space="preserve" font-family="Courier,Courier" font-size="87.4" fill="#DE6A10" transform="matrix(1.00, 0.00, -0.00, -1.00, 933.9, 758.6)">U</text><text xml:space="preserve" font-family="Courier,Courier" font-size="87.4" fill="#DE6A10" transform="matrix(1.00, 0.00, -0.00, -1.00, 986.3, 758.6)">R</text><text xml:space="preserve" font-family="Courier,Courier" font-size="87.4" fill="#DE6A10" transform="matrix(1.00, 0.00, -0.00, -1.00, 1038.7, 758.6)">A</text><text xml:space="preserve" font-family="Courier,Courier" font-size="87.4" fill="#DE6A10" transform="matrix(1.00, 0.00, -0.00, -1.00, 1091.2, 758.6)">L</text><text xml:space="preserve" font-family="Courier,Courier" font-size="87.4" fill="#DE6A10" transform="matrix(1.00, 0.00, -0.00, -1.00, 1143.6, 758.6)"> </text><text xml:space="preserve" font-family="Courier,Courier" font-size="87.4" fill="#DE6A10" transform="matrix(1.00, 0.00, -0.00, -1.00, 1196.0, 758.6)">J</text><text xml:space="preserve" font-family="Courier,Courier" font-size="87.4" fill="#DE6A10" transform="matrix(1.00, 0.00, -0.00, -1.00, 1248.5, 758.6)">O</text><text xml:space="preserve" font-family="Courier,Courier" font-size="87.4" fill="#DE6A10" transform="matrix(1.00, 0.00, -0.00, -1.00, 1300.9, 758.6)">I</text><text xml:space="preserve" font-family="Courier,Courier" font-size="87.4" fill="#DE6A10" transform="matrix(1.00, 0.00, -0.00, -1.00, 1353.3, 758.6)">N</text><text xml:space="preserve" font-family="Courier,Courier" font-size="87.4" fill="#DE6A10" transform="matrix(1.00, 0.00, -0.00, -1.00, 1405.8, 758.6)"> </text><text xml:space="preserve" font-family="Courier,Courier" font-size="87.4" fill="#DE6A10" transform="matrix(1.00, 0.00, -0.00, -1.00, 1458.2, 758.6)">I</text><text xml:space="preserve" font-family="Courier,Courier" font-size="87.4" fill="#DE6A10" transform="matrix(1.00, 0.00, -0.00, -1.00, 1510.6, 758.6)">n</text><text xml:space="preserve" font-family="Courier,Courier" font-size="87.4" fill="#DE6A10" transform="matrix(1.00, 0.00, -0.00, -1.00, 1563.1, 758.6)">c</text><text xml:space="preserve" font-family="Courier,Courier" font-size="87.4" fill="#DE6A10" transform="matrix(1.00, 0.00, -0.00, -1.00, 1615.5, 758.6)">o</text><text xml:space="preserve" font-family="Courier,Courier" font-size="87.4" fill="#DE6A10" transform="matrix(1.00, 0.00, -0.00, -1.00, 1667.9, 758.6)">m</text><text xml:space="preserve" font-family="Courier,Courier" font-size="87.4" fill="#DE6A10" transform="matrix(1.00, 0.00, -0.00, -1.00, 1720.4, 758.6)">e</text><text xml:space="preserve" font-family="Courier,Courier" font-size="87.4" fill="#A6AAA8" transform="matrix(1.00, 0.00, -0.00, -1.00, 1772.6, 758.6)"> </text><text xml:space="preserve" font-family="Courier,Courier" font-size="87.4" fill="#6FBF40" transform="matrix(1.00, 0.00, -0.00, -1.00, 173.6, 654.6)">W</text><text xml:space="preserve" font-family="Courier,Courier" font-size="87.4" fill="#6FBF40" transform="matrix(1.00, 0.00, -0.00, -1.00, 226.1, 654.6)">H</text><text xml:space="preserve" font-family="Courier,Courier" font-size="87.4" fill="#6FBF40" transform="matrix(1.00, 0.00, -0.00, -1.00, 278.5, 654.6)">E</text><text xml:space="preserve" font-family="Courier,Courier" font-size="87.4" fill="#6FBF40" transform="matrix(1.00, 0.00, -0.00, -1.00, 330.9, 654.6)">R</text><text xml:space="preserve" font-family="Courier,Courier" font-size="87.4" fill="#6FBF40" transform="matrix(1.00, 0.00, -0.00, -1.00, 383.4, 654.6)">E</text><text xml:space="preserve" font-family="Courier,Courier" font-size="87.4" fill="#A6AAA8" transform="matrix(1.00, 0.00, -0.00, -1.00, 435.8, 654.6)"> </text><text xml:space="preserve" font-family="Courier,Courier" font-size="87.4" fill="#00872A" transform="matrix(1.00, 0.00, -0.00, -1.00, 488.2, 654.6)">a</text><text xml:space="preserve" font-family="Courier,Courier" font-size="87.4" fill="#00872A" transform="matrix(1.00, 0.00, -0.00, -1.00, 540.6, 654.6)">n</text><text xml:space="preserve" font-family="Courier,Courier" font-size="87.4" fill="#00872A" transform="matrix(1.00, 0.00, -0.00, -1.00, 593.0, 654.6)">n</text><text xml:space="preserve" font-family="Courier,Courier" font-size="87.4" fill="#00872A" transform="matrix(1.00, 0.00, -0.00, -1.00, 645.5, 654.6)">u</text><text xml:space="preserve" font-family="Courier,Courier" font-size="87.4" fill="#00872A" transform="matrix(1.00, 0.00, -0.00, -1.00, 697.9, 654.6)">a</text><text xml:space="preserve" font-family="Courier,Courier" font-size="87.4" fill="#00872A" transform="matrix(1.00, 0.00, -0.00, -1.00, 750.3, 654.6)">l</text><text xml:space="preserve" font-family="Courier,Courier" font-size="87.4" fill="#00872A" transform="matrix(1.00, 0.00, -0.00, -1.00, 802.8, 654.6)">_</text><text xml:space="preserve" font-family="Courier,Courier" font-size="87.4" fill="#00872A" transform="matrix(1.00, 0.00, -0.00, -1.00, 855.2, 654.6)">i</text><text xml:space="preserve" font-family="Courier,Courier" font-size="87.4" fill="#00872A" transform="matrix(1.00, 0.00, -0.00, -1.00, 907.6, 654.6)">n</text><text xml:space="preserve" font-family="Courier,Courier" font-size="87.4" fill="#00872A" transform="matrix(1.00, 0.00, -0.00, -1.00, 960.1, 654.6)">c</text><text xml:space="preserve" font-family="Courier,Courier" font-size="87.4" fill="#00872A" transform="matrix(1.00, 0.00, -0.00, -1.00, 1012.5, 654.6)">o</text><text xml:space="preserve" font-family="Courier,Courier" font-size="87.4" fill="#00872A" transform="matrix(1.00, 0.00, -0.00, -1.00, 1064.9, 654.6)">m</text><text xml:space="preserve" font-family="Courier,Courier" font-size="87.4" fill="#00872A" transform="matrix(1.00, 0.00, -0.00, -1.00, 1117.4, 654.6)">e</text><text xml:space="preserve" font-family="Courier,Courier" font-size="87.4" fill="#00872A" transform="matrix(1.00, 0.00, -0.00, -1.00, 1169.8, 654.6)"> </text><text xml:space="preserve" font-family="Courier,Courier" font-size="87.4" fill="#00872A" transform="matrix(1.00, 0.00, -0.00, -1.00, 1222.2, 654.6)">&gt;</text><text xml:space="preserve" font-family="Courier,Courier" font-size="87.4" fill="#00872A" transform="matrix(1.00, 0.00, -0.00, -1.00, 1274.7, 654.6)"> </text><text xml:space="preserve" font-family="Courier,Courier" font-size="87.4" fill="#00872A" transform="matrix(1.00, 0.00, -0.00, -1.00, 1327.1, 654.6)">1</text><text xml:space="preserve" font-family="Courier,Courier" font-size="87.4" fill="#00872A" transform="matrix(1.00, 0.00, -0.00, -1.00, 1379.5, 654.6)">0</text><text xml:space="preserve" font-family="Courier,Courier" font-size="87.4" fill="#00872A" transform="matrix(1.00, 0.00, -0.00, -1.00, 1432.0, 654.6)">0</text><text xml:space="preserve" font-family="Courier,Courier" font-size="87.4" fill="#00872A" transform="matrix(1.00, 0.00, -0.00, -1.00, 1484.4, 654.6)">0</text><text xml:space="preserve" font-family="Courier,Courier" font-size="87.4" fill="#00872A" transform="matrix(1.00, 0.00, -0.00, -1.00, 1536.8, 654.6)">0</text><text xml:space="preserve" font-family="Courier,Courier" font-size="87.4" fill="#00872A" transform="matrix(1.00, 0.00, -0.00, -1.00, 1589.3, 654.6)">0</text><text xml:space="preserve" font-family="Courier,Courier" font-size="87.4" fill="#00872A" transform="matrix(1.00, 0.00, -0.00, -1.00, 1641.7, 654.6)">0</text><text xml:space="preserve" font-family="Courier,Courier" font-size="87.4" fill="#A6AAA8" transform="matrix(1.00, 0.00, -0.00, -1.00, 1693.9, 654.6)">;</text><text xml:space="preserve" font-family="Courier,Courier" font-size="87.4" fill="#A6AAA8" transform="matrix(1.00, 0.00, -0.00, -1.00, 1746.4, 654.6)"> </text></g></svg>