<?xml version="1.0" encoding="UTF-8" standalone="no"?><svg xmlns="http://www.w3.org/2000/svg" xmlns:xlink="http://www.w3.org/1999/xlink" clip-rule="evenodd" stroke-miterlimit="10" viewBox="0 0 1920 1080"><desc>SVG generated by Keynote</desc><defs></defs><g transform="matrix(1.00, 0.00, -0.00, -1.00, 0.0, 1080.0)"><path d="M 0.0 1080.0 L 1920.0 1080.0 L 1920.0 0.0 L 0.0 0.0 Z M 0.0 1080.0 " fill="#FEFFFF"></path><text xml:space="preserve" font-family="Courier,Courier" font-size="98.6" fill="#51A7F9" transform="matrix(1.00, 0.00, -0.00, -1.00, 309.4, 872.4)">S</text><text xml:space="preserve" font-family="Courier,Courier" font-size="98.6" fill="#51A7F9" transform="matrix(1.00, 0.00, -0.00, -1.00, 368.6, 872.4)">E</text><text xml:space="preserve" font-family="Courier,Courier" font-size="98.6" fill="#51A7F9" transform="matrix(1.00, 0.00, -0.00, -1.00, 427.7, 872.4)">L</text><text xml:space="preserve" font-family="Courier,Courier" font-size="98.6" fill="#51A7F9" transform="matrix(1.00, 0.00, -0.00, -1.00, 486.9, 872.4)">E</text><text xml:space="preserve" font-family="Courier,Courier" font-size="98.6" fill="#51A7F9" transform="matrix(1.00, 0.00, -0.00, -1.00, 546.0, 872.4)">C</text><text xml:space="preserve" font-family="Courier,Courier" font-size="98.6" fill="#51A7F9" transform="matrix(1.00, 0.00, -0.00, -1.00, 605.2, 872.4)">T</text><text xml:space="preserve" font-family="Courier,Courier" font-size="98.6" fill="#A6AAA8" transform="matrix(1.00, 0.00, -0.00, -1.00, 664.3, 872.4)"> </text><text xml:space="preserve" font-family="Courier,Courier" font-size="98.6" fill="#0264C0" transform="matrix(1.00, 0.00, -0.00, -1.00, 723.4, 872.4)">I</text><text xml:space="preserve" font-family="Courier,Courier" font-size="98.6" fill="#0264C0" transform="matrix(1.00, 0.00, -0.00, -1.00, 782.6, 872.4)">.</text><text xml:space="preserve" font-family="Courier,Courier" font-size="98.6" fill="#0264C0" transform="matrix(1.00, 0.00, -0.00, -1.00, 841.7, 872.4)">a</text><text xml:space="preserve" font-family="Courier,Courier" font-size="98.6" fill="#0264C0" transform="matrix(1.00, 0.00, -0.00, -1.00, 900.9, 872.4)">n</text><text xml:space="preserve" font-family="Courier,Courier" font-size="98.6" fill="#0264C0" transform="matrix(1.00, 0.00, -0.00, -1.00, 960.0, 872.4)">n</text><text xml:space="preserve" font-family="Courier,Courier" font-size="98.6" fill="#0264C0" transform="matrix(1.00, 0.00, -0.00, -1.00, 1019.2, 872.4)">u</text><text xml:space="preserve" font-family="Courier,Courier" font-size="98.6" fill="#0264C0" transform="matrix(1.00, 0.00, -0.00, -1.00, 1078.4, 872.4)">a</text><text xml:space="preserve" font-family="Courier,Courier" font-size="98.6" fill="#0264C0" transform="matrix(1.00, 0.00, -0.00, -1.00, 1137.5, 872.4)">l</text><text xml:space="preserve" font-family="Courier,Courier" font-size="98.6" fill="#0264C0" transform="matrix(1.00, 0.00, -0.00, -1.00, 1196.7, 872.4)">_</text><text xml:space="preserve" font-family="Courier,Courier" font-size="98.6" fill="#0264C0" transform="matrix(1.00, 0.00, -0.00, -1.00, 1255.8, 872.4)">i</text><text xml:space="preserve" font-family="Courier,Courier" font-size="98.6" fill="#0264C0" transform="matrix(1.00, 0.00, -0.00, -1.00, 1315.0, 872.4)">n</text><text xml:space="preserve" font-family="Courier,Courier" font-size="98.6" fill="#0264C0" transform="matrix(1.00, 0.00, -0.00, -1.00, 1374.1, 872.4)">c</text><text xml:space="preserve" font-family="Courier,Courier" font-size="98.6" fill="#0264C0" transform="matrix(1.00, 0.00, -0.00, -1.00, 1433.3, 872.4)">o</text><text xml:space="preserve" font-family="Courier,Courier" font-size="98.6" fill="#0264C0" transform="matrix(1.00, 0.00, -0.00, -1.00, 1492.4, 872.4)">m</text><text xml:space="preserve" font-family="Courier,Courier" font-size="98.6" fill="#0264C0" transform="matrix(1.00, 0.00, -0.00, -1.00, 1551.6, 872.4)">e</text><text xml:space="preserve" font-family="Courier,Courier" font-size="98.6" fill="#F38F18" transform="matrix(1.00, 0.00, -0.00, -1.00, 279.8, 754.4)">F</text><text xml:space="preserve" font-family="Courier,Courier" font-size="98.6" fill="#F38F18" transform="matrix(1.00, 0.00, -0.00, -1.00, 339.0, 754.4)">R</text><text xml:space="preserve" font-family="Courier,Courier" font-size="98.6" fill="#F38F18" transform="matrix(1.00, 0.00, -0.00, -1.00, 398.1, 754.4)">O</text><text xml:space="preserve" font-family="Courier,Courier" font-size="98.6" fill="#F38F18" transform="matrix(1.00, 0.00, -0.00, -1.00, 457.3, 754.4)">M</text><text xml:space="preserve" font-family="Courier,Courier" font-size="98.6" fill="#A6AAA8" transform="matrix(1.00, 0.00, -0.00, -1.00, 516.4, 754.4)"> </text><text xml:space="preserve" font-family="Courier,Courier" font-size="98.6" fill="#DE6A10" transform="matrix(1.00, 0.00, -0.00, -1.00, 575.6, 754.4)">P</text><text xml:space="preserve" font-family="Courier,Courier" font-size="98.6" fill="#DE6A10" transform="matrix(1.00, 0.00, -0.00, -1.00, 634.7, 754.4)">e</text><text xml:space="preserve" font-family="Courier,Courier" font-size="98.6" fill="#DE6A10" transform="matrix(1.00, 0.00, -0.00, -1.00, 693.9, 754.4)">o</text><text xml:space="preserve" font-family="Courier,Courier" font-size="98.6" fill="#DE6A10" transform="matrix(1.00, 0.00, -0.00, -1.00, 753.0, 754.4)">p</text><text xml:space="preserve" font-family="Courier,Courier" font-size="98.6" fill="#DE6A10" transform="matrix(1.00, 0.00, -0.00, -1.00, 812.2, 754.4)">l</text><text xml:space="preserve" font-family="Courier,Courier" font-size="98.6" fill="#DE6A10" transform="matrix(1.00, 0.00, -0.00, -1.00, 871.3, 754.4)">e</text><text xml:space="preserve" font-family="Courier,Courier" font-size="98.6" fill="#DE6A10" transform="matrix(1.00, 0.00, -0.00, -1.00, 930.5, 754.4)"> </text><text xml:space="preserve" font-family="Courier,Courier" font-size="98.6" fill="#DE6A10" transform="matrix(1.00, 0.00, -0.00, -1.00, 989.6, 754.4)">P</text><text xml:space="preserve" font-family="Courier,Courier" font-size="98.6" fill="#DE6A10" transform="matrix(1.00, 0.00, -0.00, -1.00, 1048.8, 754.4)">,</text><text xml:space="preserve" font-family="Courier,Courier" font-size="98.6" fill="#DE6A10" transform="matrix(1.00, 0.00, -0.00, -1.00, 1108.0, 754.4)"> </text><text xml:space="preserve" font-family="Courier,Courier" font-size="98.6" fill="#DE6A10" transform="matrix(1.00, 0.00, -0.00, -1.00, 1167.1, 754.4)">I</text><text xml:space="preserve" font-family="Courier,Courier" font-size="98.6" fill="#DE6A10" transform="matrix(1.00, 0.00, -0.00, -1.00, 1226.3, 754.4)">n</text><text xml:space="preserve" font-family="Courier,Courier" font-size="98.6" fill="#DE6A10" transform="matrix(1.00, 0.00, -0.00, -1.00, 1285.4, 754.4)">c</text><text xml:space="preserve" font-family="Courier,Courier" font-size="98.6" fill="#DE6A10" transform="matrix(1.00, 0.00, -0.00, -1.00, 1344.6, 754.4)">o</text><text xml:space="preserve" font-family="Courier,Courier" font-size="98.6" fill="#DE6A10" transform="matrix(1.00, 0.00, -0.00, -1.00, 1403.7, 754.4)">m</text><text xml:space="preserve" font-family="Courier,Courier" font-size="98.6" fill="#DE6A10" transform="matrix(1.00, 0.00, -0.00, -1.00, 1462.9, 754.4)">e</text><text xml:space="preserve" font-family="Courier,Courier" font-size="98.6" fill="#DE6A10" transform="matrix(1.00, 0.00, -0.00, -1.00, 1522.0, 754.4)"> </text><text xml:space="preserve" font-family="Courier,Courier" font-size="98.6" fill="#DE6A10" transform="matrix(1.00, 0.00, -0.00, -1.00, 1581.2, 754.4)">I</text><text xml:space="preserve" font-family="Courier,Courier" font-size="98.6" fill="#A6AAA8" transform="matrix(1.00, 0.00, -0.00, -1.00, 1640.2, 754.4)"> </text><text xml:space="preserve" font-family="Courier,Courier" font-size="98.6" fill="#6FBF40" transform="matrix(1.00, 0.00, -0.00, -1.00, 368.5, 636.4)">W</text><text xml:space="preserve" font-family="Courier,Courier" font-size="98.6" fill="#6FBF40" transform="matrix(1.00, 0.00, -0.00, -1.00, 427.7, 636.4)">H</text><text xml:space="preserve" font-family="Courier,Courier" font-size="98.6" fill="#6FBF40" transform="matrix(1.00, 0.00, -0.00, -1.00, 486.9, 636.4)">E</text><text xml:space="preserve" font-family="Courier,Courier" font-size="98.6" fill="#6FBF40" transform="matrix(1.00, 0.00, -0.00, -1.00, 546.0, 636.4)">R</text><text xml:space="preserve" font-family="Courier,Courier" font-size="98.6" fill="#6FBF40" transform="matrix(1.00, 0.00, -0.00, -1.00, 605.2, 636.4)">E</text><text xml:space="preserve" font-family="Courier,Courier" font-size="98.6" fill="#A6AAA8" transform="matrix(1.00, 0.00, -0.00, -1.00, 664.3, 636.4)"> </text><text xml:space="preserve" font-family="Courier,Courier" font-size="98.6" fill="#00872A" transform="matrix(1.00, 0.00, -0.00, -1.00, 723.4, 636.4)">P</text><text xml:space="preserve" font-family="Courier,Courier" font-size="98.6" fill="#00872A" transform="matrix(1.00, 0.00, -0.00, -1.00, 782.6, 636.4)">.</text><text xml:space="preserve" font-family="Courier,Courier" font-size="98.6" fill="#00872A" transform="matrix(1.00, 0.00, -0.00, -1.00, 841.7, 636.4)">S</text><text xml:space="preserve" font-family="Courier,Courier" font-size="98.6" fill="#00872A" transform="matrix(1.00, 0.00, -0.00, -1.00, 900.9, 636.4)">S</text><text xml:space="preserve" font-family="Courier,Courier" font-size="98.6" fill="#00872A" transform="matrix(1.00, 0.00, -0.00, -1.00, 960.0, 636.4)">N</text><text xml:space="preserve" font-family="Courier,Courier" font-size="98.6" fill="#00872A" transform="matrix(1.00, 0.00, -0.00, -1.00, 1019.2, 636.4)"> </text><text xml:space="preserve" font-family="Courier,Courier" font-size="98.6" fill="#00872A" transform="matrix(1.00, 0.00, -0.00, -1.00, 1078.4, 636.4)">=</text><text xml:space="preserve" font-family="Courier,Courier" font-size="98.6" fill="#00872A" transform="matrix(1.00, 0.00, -0.00, -1.00, 1137.5, 636.4)"> </text><text xml:space="preserve" font-family="Courier,Courier" font-size="98.6" fill="#00872A" transform="matrix(1.00, 0.00, -0.00, -1.00, 1196.7, 636.4)">I</text><text xml:space="preserve" font-family="Courier,Courier" font-size="98.6" fill="#00872A" transform="matrix(1.00, 0.00, -0.00, -1.00, 1255.8, 636.4)">.</text><text xml:space="preserve" font-family="Courier,Courier" font-size="98.6" fill="#00872A" transform="matrix(1.00, 0.00, -0.00, -1.00, 1315.0, 636.4)">S</text><text xml:space="preserve" font-family="Courier,Courier" font-size="98.6" fill="#00872A" transform="matrix(1.00, 0.00, -0.00, -1.00, 1374.1, 636.4)">S</text><text xml:space="preserve" font-family="Courier,Courier" font-size="98.6" fill="#00872A" transform="matrix(1.00, 0.00, -0.00, -1.00, 1433.3, 636.4)">N</text><text xml:space="preserve" font-family="Courier,Courier" font-size="98.6" fill="#A6AAA8" transform="matrix(1.00, 0.00, -0.00, -1.00, 1492.3, 636.4)">;</text><text xml:space="preserve" font-family="Courier,Courier" font-size="98.6" fill="#A6AAA8" transform="matrix(1.00, 0.00, -0.00, -1.00, 1551.5, 636.4)"> </text><text xml:space="preserve" font-family="Courier,Courier" font-size="100.0" fill="#51A7F9" transform="matrix(1.00, 0.00, -0.00, -1.00, 393.9, 144.6)">π</text><text xml:space="preserve" font-family="Courier,Courier" font-size="66.7" fill="#51A7F9" transform="matrix(1.00, 0.00, -0.00, -1.00, 448.7, 136.4)">a</text><text xml:space="preserve" font-family="Courier,Courier" font-size="66.7" fill="#51A7F9" transform="matrix(1.00, 0.00, -0.00, -1.00, 488.8, 136.4)">n</text><text xml:space="preserve" font-family="Courier,Courier" font-size="66.7" fill="#51A7F9" transform="matrix(1.00, 0.00, -0.00, -1.00, 528.8, 136.4)">n</text><text xml:space="preserve" font-family="Courier,Courier" font-size="66.7" fill="#51A7F9" transform="matrix(1.00, 0.00, -0.00, -1.00, 568.8, 136.4)">u</text><text xml:space="preserve" font-family="Courier,Courier" font-size="66.7" fill="#51A7F9" transform="matrix(1.00, 0.00, -0.00, -1.00, 608.8, 136.4)">a</text><text xml:space="preserve" font-family="Courier,Courier" font-size="66.7" fill="#51A7F9" transform="matrix(1.00, 0.00, -0.00, -1.00, 648.8, 136.4)">l</text><text xml:space="preserve" font-family="Courier,Courier" font-size="66.7" fill="#51A7F9" transform="matrix(1.00, 0.00, -0.00, -1.00, 688.8, 136.4)">_</text><text xml:space="preserve" font-family="Courier,Courier" font-size="66.7" fill="#51A7F9" transform="matrix(1.00, 0.00, -0.00, -1.00, 728.8, 136.4)">i</text><text xml:space="preserve" font-family="Courier,Courier" font-size="66.7" fill="#51A7F9" transform="matrix(1.00, 0.00, -0.00, -1.00, 768.8, 136.4)">n</text><text xml:space="preserve" font-family="Courier,Courier" font-size="66.7" fill="#51A7F9" transform="matrix(1.00, 0.00, -0.00, -1.00, 808.9, 136.4)">c</text><text xml:space="preserve" font-family="Courier,Courier" font-size="66.7" fill="#51A7F9" transform="matrix(1.00, 0.00, -0.00, -1.00, 848.9, 136.4)">o</text><text xml:space="preserve" font-family="Courier,Courier" font-size="66.7" fill="#51A7F9" transform="matrix(1.00, 0.00, -0.00, -1.00, 888.9, 136.4)">m</text><text xml:space="preserve" font-family="Courier,Courier" font-size="66.7" fill="#51A7F9" transform="matrix(1.00, 0.00, -0.00, -1.00, 928.9, 136.4)">e</text><text xml:space="preserve" font-family="Courier,Courier" font-size="100.0" fill="#6FBF40" transform="matrix(1.00, 0.00, -0.00, -1.00, 968.8, 144.6)">(</text><text xml:space="preserve" font-family="Courier,Courier" font-size="100.0" fill="#6FBF40" transform="matrix(1.00, 0.00, -0.00, -1.00, 1028.8, 144.6)">P</text><text xml:space="preserve" font-family="Courier,Courier" font-size="100.0" fill="#6FBF40" transform="matrix(1.00, 0.00, -0.00, -1.00, 1088.9, 144.6)"> </text><text xml:space="preserve" font-family="AppleSymbols,Apple Symbols" font-size="100.0" fill="#6FBF40" transform="matrix(1.00, 0.00, -0.00, -1.00, 1148.9, 144.6)">⋈</text><text xml:space="preserve" font-family="Courier,Courier" font-size="66.7" fill="#6FBF40" transform="matrix(1.00, 0.00, -0.00, -1.00, 1226.1, 136.4)">S</text><text xml:space="preserve" font-family="Courier,Courier" font-size="66.7" fill="#6FBF40" transform="matrix(1.00, 0.00, -0.00, -1.00, 1266.1, 136.4)">S</text><text xml:space="preserve" font-family="Courier,Courier" font-size="66.7" fill="#6FBF40" transform="matrix(1.00, 0.00, -0.00, -1.00, 1306.1, 136.4)">N</text><text xml:space="preserve" font-family="Courier,Courier" font-size="100.0" fill="#6FBF40" transform="matrix(1.00, 0.00, -0.00, -1.00, 1346.1, 144.6)"> </text><text xml:space="preserve" font-family="Courier,Courier" font-size="100.0" fill="#6FBF40" transform="matrix(1.00, 0.00, -0.00, -1.00, 1406.1, 144.6)">I</text><text xml:space="preserve" font-family="Courier,Courier" font-size="100.0" fill="#6FBF40" transform="matrix(1.00, 0.00, -0.00, -1.00, 1466.2, 144.6)">)</text><text xml:space="preserve" font-family="Courier,Courier" font-size="100.0" fill="#000000" transform="matrix(1.00, 0.00, -0.00, -1.00, 1526.1, 144.6)"> </text><text xml:space="preserve" font-family="Courier,Courier" font-size="100.0" fill="#51A7F9" transform="matrix(1.00, 0.00, -0.00, -1.00, 148.5, 370.7)">π</text><text xml:space="preserve" font-family="Courier,Courier" font-size="66.7" fill="#51A7F9" transform="matrix(1.00, 0.00, -0.00, -1.00, 203.3, 362.5)">a</text><text xml:space="preserve" font-family="Courier,Courier" font-size="66.7" fill="#51A7F9" transform="matrix(1.00, 0.00, -0.00, -1.00, 243.3, 362.5)">n</text><text xml:space="preserve" font-family="Courier,Courier" font-size="66.7" fill="#51A7F9" transform="matrix(1.00, 0.00, -0.00, -1.00, 283.4, 362.5)">n</text><text xml:space="preserve" font-family="Courier,Courier" font-size="66.7" fill="#51A7F9" transform="matrix(1.00, 0.00, -0.00, -1.00, 323.4, 362.5)">u</text><text xml:space="preserve" font-family="Courier,Courier" font-size="66.7" fill="#51A7F9" transform="matrix(1.00, 0.00, -0.00, -1.00, 363.4, 362.5)">a</text><text xml:space="preserve" font-family="Courier,Courier" font-size="66.7" fill="#51A7F9" transform="matrix(1.00, 0.00, -0.00, -1.00, 403.4, 362.5)">l</text><text xml:space="preserve" font-family="Courier,Courier" font-size="66.7" fill="#51A7F9" transform="matrix(1.00, 0.00, -0.00, -1.00, 443.4, 362.5)">_</text><text xml:space="preserve" font-family="Courier,Courier" font-size="66.7" fill="#51A7F9" transform="matrix(1.00, 0.00, -0.00, -1.00, 483.4, 362.5)">i</text><text xml:space="preserve" font-family="Courier,Courier" font-size="66.7" fill="#51A7F9" transform="matrix(1.00, 0.00, -0.00, -1.00, 523.4, 362.5)">n</text><text xml:space="preserve" font-family="Courier,Courier" font-size="66.7" fill="#51A7F9" transform="matrix(1.00, 0.00, -0.00, -1.00, 563.5, 362.5)">c</text><text xml:space="preserve" font-family="Courier,Courier" font-size="66.7" fill="#51A7F9" transform="matrix(1.00, 0.00, -0.00, -1.00, 603.5, 362.5)">o</text><text xml:space="preserve" font-family="Courier,Courier" font-size="66.7" fill="#51A7F9" transform="matrix(1.00, 0.00, -0.00, -1.00, 643.5, 362.5)">m</text><text xml:space="preserve" font-family="Courier,Courier" font-size="66.7" fill="#51A7F9" transform="matrix(1.00, 0.00, -0.00, -1.00, 683.5, 362.5)">e</text><text xml:space="preserve" font-family="Courier,Courier" font-size="100.0" fill="#6FBF40" transform="matrix(1.00, 0.00, -0.00, -1.00, 723.4, 370.7)">(</text><text xml:space="preserve" font-family="LucidaGrande,Lucida Grande" font-size="100.0" fill="#6FBF40" transform="matrix(1.00, 0.00, -0.00, -1.00, 783.4, 370.7)">σ</text><text xml:space="preserve" font-family="Courier,Courier" font-size="66.7" fill="#6FBF40" transform="matrix(1.00, 0.00, -0.00, -1.00, 851.4, 362.5)">P</text><text xml:space="preserve" font-family="Courier,Courier" font-size="66.7" fill="#6FBF40" transform="matrix(1.00, 0.00, -0.00, -1.00, 891.4, 362.5)">.</text><text xml:space="preserve" font-family="Courier,Courier" font-size="66.7" fill="#6FBF40" transform="matrix(1.00, 0.00, -0.00, -1.00, 931.4, 362.5)">S</text><text xml:space="preserve" font-family="Courier,Courier" font-size="66.7" fill="#6FBF40" transform="matrix(1.00, 0.00, -0.00, -1.00, 971.4, 362.5)">S</text><text xml:space="preserve" font-family="Courier,Courier" font-size="66.7" fill="#6FBF40" transform="matrix(1.00, 0.00, -0.00, -1.00, 1011.5, 362.5)">N</text><text xml:space="preserve" font-family="Courier,Courier" font-size="66.7" fill="#6FBF40" transform="matrix(1.00, 0.00, -0.00, -1.00, 1051.5, 362.5)">=</text><text xml:space="preserve" font-family="Courier,Courier" font-size="66.7" fill="#6FBF40" transform="matrix(1.00, 0.00, -0.00, -1.00, 1091.5, 362.5)">I</text><text xml:space="preserve" font-family="Courier,Courier" font-size="66.7" fill="#6FBF40" transform="matrix(1.00, 0.00, -0.00, -1.00, 1131.5, 362.5)">.</text><text xml:space="preserve" font-family="Courier,Courier" font-size="66.7" fill="#6FBF40" transform="matrix(1.00, 0.00, -0.00, -1.00, 1171.5, 362.5)">S</text><text xml:space="preserve" font-family="Courier,Courier" font-size="66.7" fill="#6FBF40" transform="matrix(1.00, 0.00, -0.00, -1.00, 1211.5, 362.5)">S</text><text xml:space="preserve" font-family="Courier,Courier" font-size="66.7" fill="#6FBF40" transform="matrix(1.00, 0.00, -0.00, -1.00, 1251.5, 362.5)">N</text><text xml:space="preserve" font-family="Courier,Courier" font-size="100.0" fill="#F38F18" transform="matrix(1.00, 0.00, -0.00, -1.00, 1291.5, 370.7)">(</text><text xml:space="preserve" font-family="Courier,Courier" font-size="100.0" fill="#F38F18" transform="matrix(1.00, 0.00, -0.00, -1.00, 1351.5, 370.7)">P</text><text xml:space="preserve" font-family="Courier,Courier" font-size="100.0" fill="#F38F18" transform="matrix(1.00, 0.00, -0.00, -1.00, 1411.5, 370.7)"> </text><text xml:space="preserve" font-family="Courier,Courier" font-size="100.0" fill="#F38F18" transform="matrix(1.00, 0.00, -0.00, -1.00, 1471.5, 370.7)">×</text><text xml:space="preserve" font-family="Courier,Courier" font-size="100.0" fill="#F38F18" transform="matrix(1.00, 0.00, -0.00, -1.00, 1531.5, 370.7)"> </text><text xml:space="preserve" font-family="Courier,Courier" font-size="100.0" fill="#F38F18" transform="matrix(1.00, 0.00, -0.00, -1.00, 1591.6, 370.7)">I</text><text xml:space="preserve" font-family="Courier,Courier" font-size="100.0" fill="#F38F18" transform="matrix(1.00, 0.00, -0.00, -1.00, 1651.6, 370.7)">)</text><text xml:space="preserve" font-family="Courier,Courier" font-size="100.0" fill="#6FBF40" transform="matrix(1.00, 0.00, -0.00, -1.00, 1711.5, 370.7)">)</text><text xml:space="preserve" font-family="Courier,Courier" font-size="100.0" fill="#000000" transform="matrix(1.00, 0.00, -0.00, -1.00, 1771.5, 370.7)"> </text><text xml:space="preserve" font-family="Helvetica-Light,Helvetica" font-size="50.0" fill="#000000" transform="matrix(1.00, 0.00, -0.00, -1.00, 719.6, 251.3)">w</text><text xml:space="preserve" font-family="Helvetica-Light,Helvetica" font-size="50.0" fill="#000000" transform="matrix(1.00, 0.00, -0.00, -1.00, 755.7, 251.3)">h</text><text xml:space="preserve" font-family="Helvetica-Light,Helvetica" font-size="50.0" fill="#000000" transform="matrix(1.00, 0.00, -0.00, -1.00, 783.5, 251.3)">i</text><text xml:space="preserve" font-family="Helvetica-Light,Helvetica" font-size="50.0" fill="#000000" transform="matrix(1.00, 0.00, -0.00, -1.00, 794.6, 251.3)">c</text><text xml:space="preserve" font-family="Helvetica-Light,Helvetica" font-size="50.0" fill="#000000" transform="matrix(1.00, 0.00, -0.00, -1.00, 822.4, 251.3)">h</text><text xml:space="preserve" font-family="Helvetica-Light,Helvetica" font-size="50.0" fill="#000000" transform="matrix(1.00, 0.00, -0.00, -1.00, 850.2, 251.3)"> </text><text xml:space="preserve" font-family="Helvetica-Light,Helvetica" font-size="50.0" fill="#000000" transform="matrix(1.00, 0.00, -0.00, -1.00, 864.1, 251.3)">i</text><text xml:space="preserve" font-family="Helvetica-Light,Helvetica" font-size="50.0" fill="#000000" transform="matrix(1.00, 0.00, -0.00, -1.00, 875.2, 251.3)">s</text><text xml:space="preserve" font-family="Helvetica-Light,Helvetica" font-size="50.0" fill="#000000" transform="matrix(1.00, 0.00, -0.00, -1.00, 900.2, 251.3)"> </text><text xml:space="preserve" font-family="Helvetica-Light,Helvetica" font-size="50.0" fill="#000000" transform="matrix(1.00, 0.00, -0.00, -1.00, 914.1, 251.3)">e</text><text xml:space="preserve" font-family="Helvetica-Light,Helvetica" font-size="50.0" fill="#000000" transform="matrix(1.00, 0.00, -0.00, -1.00, 941.9, 251.3)">q</text><text xml:space="preserve" font-family="Helvetica-Light,Helvetica" font-size="50.0" fill="#000000" transform="matrix(1.00, 0.00, -0.00, -1.00, 972.5, 251.3)">u</text><text xml:space="preserve" font-family="Helvetica-Light,Helvetica" font-size="50.0" fill="#000000" transform="matrix(1.00, 0.00, -0.00, -1.00, 1000.3, 251.3)">i</text><text xml:space="preserve" font-family="Helvetica-Light,Helvetica" font-size="50.0" fill="#000000" transform="matrix(1.00, 0.00, -0.00, -1.00, 1011.4, 251.3)">v</text><text xml:space="preserve" font-family="Helvetica-Light,Helvetica" font-size="50.0" fill="#000000" transform="matrix(1.00, 0.00, -0.00, -1.00, 1036.4, 251.3)">a</text><text xml:space="preserve" font-family="Helvetica-Light,Helvetica" font-size="50.0" fill="#000000" transform="matrix(1.00, 0.00, -0.00, -1.00, 1064.2, 251.3)">l</text><text xml:space="preserve" font-family="Helvetica-Light,Helvetica" font-size="50.0" fill="#000000" transform="matrix(1.00, 0.00, -0.00, -1.00, 1075.3, 251.3)">e</text><text xml:space="preserve" font-family="Helvetica-Light,Helvetica" font-size="50.0" fill="#000000" transform="matrix(1.00, 0.00, -0.00, -1.00, 1103.1, 251.3)">n</text><text xml:space="preserve" font-family="Helvetica-Light,Helvetica" font-size="50.0" fill="#000000" transform="matrix(1.00, 0.00, -0.00, -1.00, 1130.9, 251.3)">t</text><text xml:space="preserve" font-family="Helvetica-Light,Helvetica" font-size="50.0" fill="#000000" transform="matrix(1.00, 0.00, -0.00, -1.00, 1144.8, 251.3)"> </text><text xml:space="preserve" font-family="Helvetica-Light,Helvetica" font-size="50.0" fill="#000000" transform="matrix(1.00, 0.00, -0.00, -1.00, 1158.7, 251.3)">t</text><text xml:space="preserve" font-family="Helvetica-Light,Helvetica" font-size="50.0" fill="#000000" transform="matrix(1.00, 0.00, -0.00, -1.00, 1172.6, 251.3)">o</text></g></svg>