<?xml version="1.0" encoding="UTF-8" standalone="no"?><svg xmlns="http://www.w3.org/2000/svg" xmlns:xlink="http://www.w3.org/1999/xlink" clip-rule="evenodd" stroke-miterlimit="10" viewBox="0 0 1417 322"><desc>SVG generated by Keynote</desc><defs></defs><g transform="matrix(1.00, 0.00, -0.00, -1.00, 0.0, 322.0)"><text xml:space="preserve" font-family="Courier,Courier" font-size="98.6" fill="#51A7F9" transform="matrix(1.00, 0.00, -0.00, -1.00, 26.4, 253.4)">S</text><text xml:space="preserve" font-family="Courier,Courier" font-size="98.6" fill="#51A7F9" transform="matrix(1.00, 0.00, -0.00, -1.00, 85.6, 253.4)">E</text><text xml:space="preserve" font-family="Courier,Courier" font-size="98.6" fill="#51A7F9" transform="matrix(1.00, 0.00, -0.00, -1.00, 144.7, 253.4)">L</text><text xml:space="preserve" font-family="Courier,Courier" font-size="98.6" fill="#51A7F9" transform="matrix(1.00, 0.00, -0.00, -1.00, 203.9, 253.4)">E</text><text xml:space="preserve" font-family="Courier,Courier" font-size="98.6" fill="#51A7F9" transform="matrix(1.00, 0.00, -0.00, -1.00, 263.0, 253.4)">C</text><text xml:space="preserve" font-family="Courier,Courier" font-size="98.6" fill="#51A7F9" transform="matrix(1.00, 0.00, -0.00, -1.00, 322.2, 253.4)">T</text><text xml:space="preserve" font-family="Courier,Courier" font-size="98.6" fill="#A6AAA8" transform="matrix(1.00, 0.00, -0.00, -1.00, 381.3, 253.4)"> </text><text xml:space="preserve" font-family="Courier,Courier" font-size="98.6" fill="#0264C0" transform="matrix(1.00, 0.00, -0.00, -1.00, 440.4, 253.4)">I</text><text xml:space="preserve" font-family="Courier,Courier" font-size="98.6" fill="#0264C0" transform="matrix(1.00, 0.00, -0.00, -1.00, 499.6, 253.4)">.</text><text xml:space="preserve" font-family="Courier,Courier" font-size="98.6" fill="#0264C0" transform="matrix(1.00, 0.00, -0.00, -1.00, 558.7, 253.4)">a</text><text xml:space="preserve" font-family="Courier,Courier" font-size="98.6" fill="#0264C0" transform="matrix(1.00, 0.00, -0.00, -1.00, 617.9, 253.4)">n</text><text xml:space="preserve" font-family="Courier,Courier" font-size="98.6" fill="#0264C0" transform="matrix(1.00, 0.00, -0.00, -1.00, 677.0, 253.4)">n</text><text xml:space="preserve" font-family="Courier,Courier" font-size="98.6" fill="#0264C0" transform="matrix(1.00, 0.00, -0.00, -1.00, 736.2, 253.4)">u</text><text xml:space="preserve" font-family="Courier,Courier" font-size="98.6" fill="#0264C0" transform="matrix(1.00, 0.00, -0.00, -1.00, 795.4, 253.4)">a</text><text xml:space="preserve" font-family="Courier,Courier" font-size="98.6" fill="#0264C0" transform="matrix(1.00, 0.00, -0.00, -1.00, 854.5, 253.4)">l</text><text xml:space="preserve" font-family="Courier,Courier" font-size="98.6" fill="#0264C0" transform="matrix(1.00, 0.00, -0.00, -1.00, 913.7, 253.4)">_</text><text xml:space="preserve" font-family="Courier,Courier" font-size="98.6" fill="#0264C0" transform="matrix(1.00, 0.00, -0.00, -1.00, 972.8, 253.4)">i</text><text xml:space="preserve" font-family="Courier,Courier" font-size="98.6" fill="#0264C0" transform="matrix(1.00, 0.00, -0.00, -1.00, 1032.0, 253.4)">n</text><text xml:space="preserve" font-family="Courier,Courier" font-size="98.6" fill="#0264C0" transform="matrix(1.00, 0.00, -0.00, -1.00, 1091.1, 253.4)">c</text><text xml:space="preserve" font-family="Courier,Courier" font-size="98.6" fill="#0264C0" transform="matrix(1.00, 0.00, -0.00, -1.00, 1150.3, 253.4)">o</text><text xml:space="preserve" font-family="Courier,Courier" font-size="98.6" fill="#0264C0" transform="matrix(1.00, 0.00, -0.00, -1.00, 1209.4, 253.4)">m</text><text xml:space="preserve" font-family="Courier,Courier" font-size="98.6" fill="#0264C0" transform="matrix(1.00, 0.00, -0.00, -1.00, 1268.6, 253.4)">e</text><text xml:space="preserve" font-family="Courier,Courier" font-size="98.6" fill="#F38F18" transform="matrix(1.00, 0.00, -0.00, -1.00, -3.2, 135.4)">F</text><text xml:space="preserve" font-family="Courier,Courier" font-size="98.6" fill="#F38F18" transform="matrix(1.00, 0.00, -0.00, -1.00, 56.0, 135.4)">R</text><text xml:space="preserve" font-family="Courier,Courier" font-size="98.6" fill="#F38F18" transform="matrix(1.00, 0.00, -0.00, -1.00, 115.1, 135.4)">O</text><text xml:space="preserve" font-family="Courier,Courier" font-size="98.6" fill="#F38F18" transform="matrix(1.00, 0.00, -0.00, -1.00, 174.3, 135.4)">M</text><text xml:space="preserve" font-family="Courier,Courier" font-size="98.6" fill="#A6AAA8" transform="matrix(1.00, 0.00, -0.00, -1.00, 233.4, 135.4)"> </text><text xml:space="preserve" font-family="Courier,Courier" font-size="98.6" fill="#DE6A10" transform="matrix(1.00, 0.00, -0.00, -1.00, 292.6, 135.4)">P</text><text xml:space="preserve" font-family="Courier,Courier" font-size="98.6" fill="#DE6A10" transform="matrix(1.00, 0.00, -0.00, -1.00, 351.7, 135.4)">e</text><text xml:space="preserve" font-family="Courier,Courier" font-size="98.6" fill="#DE6A10" transform="matrix(1.00, 0.00, -0.00, -1.00, 410.9, 135.4)">o</text><text xml:space="preserve" font-family="Courier,Courier" font-size="98.6" fill="#DE6A10" transform="matrix(1.00, 0.00, -0.00, -1.00, 470.0, 135.4)">p</text><text xml:space="preserve" font-family="Courier,Courier" font-size="98.6" fill="#DE6A10" transform="matrix(1.00, 0.00, -0.00, -1.00, 529.2, 135.4)">l</text><text xml:space="preserve" font-family="Courier,Courier" font-size="98.6" fill="#DE6A10" transform="matrix(1.00, 0.00, -0.00, -1.00, 588.3, 135.4)">e</text><text xml:space="preserve" font-family="Courier,Courier" font-size="98.6" fill="#DE6A10" transform="matrix(1.00, 0.00, -0.00, -1.00, 647.5, 135.4)"> </text><text xml:space="preserve" font-family="Courier,Courier" font-size="98.6" fill="#DE6A10" transform="matrix(1.00, 0.00, -0.00, -1.00, 706.6, 135.4)">P</text><text xml:space="preserve" font-family="Courier,Courier" font-size="98.6" fill="#DE6A10" transform="matrix(1.00, 0.00, -0.00, -1.00, 765.8, 135.4)">,</text><text xml:space="preserve" font-family="Courier,Courier" font-size="98.6" fill="#DE6A10" transform="matrix(1.00, 0.00, -0.00, -1.00, 825.0, 135.4)"> </text><text xml:space="preserve" font-family="Courier,Courier" font-size="98.6" fill="#DE6A10" transform="matrix(1.00, 0.00, -0.00, -1.00, 884.1, 135.4)">I</text><text xml:space="preserve" font-family="Courier,Courier" font-size="98.6" fill="#DE6A10" transform="matrix(1.00, 0.00, -0.00, -1.00, 943.3, 135.4)">n</text><text xml:space="preserve" font-family="Courier,Courier" font-size="98.6" fill="#DE6A10" transform="matrix(1.00, 0.00, -0.00, -1.00, 1002.4, 135.4)">c</text><text xml:space="preserve" font-family="Courier,Courier" font-size="98.6" fill="#DE6A10" transform="matrix(1.00, 0.00, -0.00, -1.00, 1061.6, 135.4)">o</text><text xml:space="preserve" font-family="Courier,Courier" font-size="98.6" fill="#DE6A10" transform="matrix(1.00, 0.00, -0.00, -1.00, 1120.7, 135.4)">m</text><text xml:space="preserve" font-family="Courier,Courier" font-size="98.6" fill="#DE6A10" transform="matrix(1.00, 0.00, -0.00, -1.00, 1179.9, 135.4)">e</text><text xml:space="preserve" font-family="Courier,Courier" font-size="98.6" fill="#DE6A10" transform="matrix(1.00, 0.00, -0.00, -1.00, 1239.0, 135.4)"> </text><text xml:space="preserve" font-family="Courier,Courier" font-size="98.6" fill="#DE6A10" transform="matrix(1.00, 0.00, -0.00, -1.00, 1298.2, 135.4)">I</text><text xml:space="preserve" font-family="Courier,Courier" font-size="98.6" fill="#A6AAA8" transform="matrix(1.00, 0.00, -0.00, -1.00, 1357.2, 135.4)"> </text><text xml:space="preserve" font-family="Courier,Courier" font-size="98.6" fill="#6FBF40" transform="matrix(1.00, 0.00, -0.00, -1.00, 85.5, 17.4)">W</text><text xml:space="preserve" font-family="Courier,Courier" font-size="98.6" fill="#6FBF40" transform="matrix(1.00, 0.00, -0.00, -1.00, 144.7, 17.4)">H</text><text xml:space="preserve" font-family="Courier,Courier" font-size="98.6" fill="#6FBF40" transform="matrix(1.00, 0.00, -0.00, -1.00, 203.9, 17.4)">E</text><text xml:space="preserve" font-family="Courier,Courier" font-size="98.6" fill="#6FBF40" transform="matrix(1.00, 0.00, -0.00, -1.00, 263.0, 17.4)">R</text><text xml:space="preserve" font-family="Courier,Courier" font-size="98.6" fill="#6FBF40" transform="matrix(1.00, 0.00, -0.00, -1.00, 322.2, 17.4)">E</text><text xml:space="preserve" font-family="Courier,Courier" font-size="98.6" fill="#A6AAA8" transform="matrix(1.00, 0.00, -0.00, -1.00, 381.3, 17.4)"> </text><text xml:space="preserve" font-family="Courier,Courier" font-size="98.6" fill="#00872A" transform="matrix(1.00, 0.00, -0.00, -1.00, 440.4, 17.4)">P</text><text xml:space="preserve" font-family="Courier,Courier" font-size="98.6" fill="#00872A" transform="matrix(1.00, 0.00, -0.00, -1.00, 499.6, 17.4)">.</text><text xml:space="preserve" font-family="Courier,Courier" font-size="98.6" fill="#00872A" transform="matrix(1.00, 0.00, -0.00, -1.00, 558.7, 17.4)">S</text><text xml:space="preserve" font-family="Courier,Courier" font-size="98.6" fill="#00872A" transform="matrix(1.00, 0.00, -0.00, -1.00, 617.9, 17.4)">S</text><text xml:space="preserve" font-family="Courier,Courier" font-size="98.6" fill="#00872A" transform="matrix(1.00, 0.00, -0.00, -1.00, 677.0, 17.4)">N</text><text xml:space="preserve" font-family="Courier,Courier" font-size="98.6" fill="#00872A" transform="matrix(1.00, 0.00, -0.00, -1.00, 736.2, 17.4)"> </text><text xml:space="preserve" font-family="Courier,Courier" font-size="98.6" fill="#00872A" transform="matrix(1.00, 0.00, -0.00, -1.00, 795.4, 17.4)">=</text><text xml:space="preserve" font-family="Courier,Courier" font-size="98.6" fill="#00872A" transform="matrix(1.00, 0.00, -0.00, -1.00, 854.5, 17.4)"> </text><text xml:space="preserve" font-family="Courier,Courier" font-size="98.6" fill="#00872A" transform="matrix(1.00, 0.00, -0.00, -1.00, 913.7, 17.4)">I</text><text xml:space="preserve" font-family="Courier,Courier" font-size="98.6" fill="#00872A" transform="matrix(1.00, 0.00, -0.00, -1.00, 972.8, 17.4)">.</text><text xml:space="preserve" font-family="Courier,Courier" font-size="98.6" fill="#00872A" transform="matrix(1.00, 0.00, -0.00, -1.00, 1032.0, 17.4)">S</text><text xml:space="preserve" font-family="Courier,Courier" font-size="98.6" fill="#00872A" transform="matrix(1.00, 0.00, -0.00, -1.00, 1091.1, 17.4)">S</text><text xml:space="preserve" font-family="Courier,Courier" font-size="98.6" fill="#00872A" transform="matrix(1.00, 0.00, -0.00, -1.00, 1150.3, 17.4)">N</text><text xml:space="preserve" font-family="Courier,Courier" font-size="98.6" fill="#A6AAA8" transform="matrix(1.00, 0.00, -0.00, -1.00, 1209.3, 17.4)">;</text><text xml:space="preserve" font-family="Courier,Courier" font-size="98.6" fill="#A6AAA8" transform="matrix(1.00, 0.00, -0.00, -1.00, 1268.5, 17.4)"> </text></g></svg>