<?xml version="1.0" encoding="UTF-8" standalone="no"?><svg xmlns="http://www.w3.org/2000/svg" xmlns:xlink="http://www.w3.org/1999/xlink" clip-rule="evenodd" stroke-miterlimit="10" viewBox="0 0 1920 1080"><desc>SVG generated by Keynote</desc><defs></defs><g transform="matrix(1.00, 0.00, -0.00, -1.00, 0.0, 1080.0)"><path d="M 0.0 1080.0 L 1920.0 1080.0 L 1920.0 0.0 L 0.0 0.0 Z M 0.0 1080.0 " fill="#FEFFFF"></path><text xml:space="preserve" font-family="Courier,Courier" font-size="87.4" fill="#51A7F9" transform="matrix(1.00, 0.00, -0.00, -1.00, 435.8, 862.6)">S</text><text xml:space="preserve" font-family="Courier,Courier" font-size="87.4" fill="#51A7F9" transform="matrix(1.00, 0.00, -0.00, -1.00, 488.2, 862.6)">E</text><text xml:space="preserve" font-family="Courier,Courier" font-size="87.4" fill="#51A7F9" transform="matrix(1.00, 0.00, -0.00, -1.00, 540.6, 862.6)">L</text><text xml:space="preserve" font-family="Courier,Courier" font-size="87.4" fill="#51A7F9" transform="matrix(1.00, 0.00, -0.00, -1.00, 593.1, 862.6)">E</text><text xml:space="preserve" font-family="Courier,Courier" font-size="87.4" fill="#51A7F9" transform="matrix(1.00, 0.00, -0.00, -1.00, 645.5, 862.6)">C</text><text xml:space="preserve" font-family="Courier,Courier" font-size="87.4" fill="#51A7F9" transform="matrix(1.00, 0.00, -0.00, -1.00, 697.9, 862.6)">T</text><text xml:space="preserve" font-family="Courier,Courier" font-size="87.4" fill="#A6AAA8" transform="matrix(1.00, 0.00, -0.00, -1.00, 750.3, 862.6)"> </text><text xml:space="preserve" font-family="Courier,Courier" font-size="87.4" fill="#0264C0" transform="matrix(1.00, 0.00, -0.00, -1.00, 802.7, 862.6)">a</text><text xml:space="preserve" font-family="Courier,Courier" font-size="87.4" fill="#0264C0" transform="matrix(1.00, 0.00, -0.00, -1.00, 855.2, 862.6)">n</text><text xml:space="preserve" font-family="Courier,Courier" font-size="87.4" fill="#0264C0" transform="matrix(1.00, 0.00, -0.00, -1.00, 907.6, 862.6)">n</text><text xml:space="preserve" font-family="Courier,Courier" font-size="87.4" fill="#0264C0" transform="matrix(1.00, 0.00, -0.00, -1.00, 960.0, 862.6)">u</text><text xml:space="preserve" font-family="Courier,Courier" font-size="87.4" fill="#0264C0" transform="matrix(1.00, 0.00, -0.00, -1.00, 1012.5, 862.6)">a</text><text xml:space="preserve" font-family="Courier,Courier" font-size="87.4" fill="#0264C0" transform="matrix(1.00, 0.00, -0.00, -1.00, 1064.9, 862.6)">l</text><text xml:space="preserve" font-family="Courier,Courier" font-size="87.4" fill="#0264C0" transform="matrix(1.00, 0.00, -0.00, -1.00, 1117.3, 862.6)">_</text><text xml:space="preserve" font-family="Courier,Courier" font-size="87.4" fill="#0264C0" transform="matrix(1.00, 0.00, -0.00, -1.00, 1169.8, 862.6)">i</text><text xml:space="preserve" font-family="Courier,Courier" font-size="87.4" fill="#0264C0" transform="matrix(1.00, 0.00, -0.00, -1.00, 1222.2, 862.6)">n</text><text xml:space="preserve" font-family="Courier,Courier" font-size="87.4" fill="#0264C0" transform="matrix(1.00, 0.00, -0.00, -1.00, 1274.6, 862.6)">c</text><text xml:space="preserve" font-family="Courier,Courier" font-size="87.4" fill="#0264C0" transform="matrix(1.00, 0.00, -0.00, -1.00, 1327.1, 862.6)">o</text><text xml:space="preserve" font-family="Courier,Courier" font-size="87.4" fill="#0264C0" transform="matrix(1.00, 0.00, -0.00, -1.00, 1379.5, 862.6)">m</text><text xml:space="preserve" font-family="Courier,Courier" font-size="87.4" fill="#0264C0" transform="matrix(1.00, 0.00, -0.00, -1.00, 1431.9, 862.6)">e</text><text xml:space="preserve" font-family="Courier,Courier" font-size="87.4" fill="#F38F18" transform="matrix(1.00, 0.00, -0.00, -1.00, 147.4, 758.6)">F</text><text xml:space="preserve" font-family="Courier,Courier" font-size="87.4" fill="#F38F18" transform="matrix(1.00, 0.00, -0.00, -1.00, 199.9, 758.6)">R</text><text xml:space="preserve" font-family="Courier,Courier" font-size="87.4" fill="#F38F18" transform="matrix(1.00, 0.00, -0.00, -1.00, 252.3, 758.6)">O</text><text xml:space="preserve" font-family="Courier,Courier" font-size="87.4" fill="#F38F18" transform="matrix(1.00, 0.00, -0.00, -1.00, 304.7, 758.6)">M</text><text xml:space="preserve" font-family="Courier,Courier" font-size="87.4" fill="#A6AAA8" transform="matrix(1.00, 0.00, -0.00, -1.00, 357.1, 758.6)"> </text><text xml:space="preserve" font-family="Courier,Courier" font-size="87.4" fill="#DE6A10" transform="matrix(1.00, 0.00, -0.00, -1.00, 409.5, 758.6)">P</text><text xml:space="preserve" font-family="Courier,Courier" font-size="87.4" fill="#DE6A10" transform="matrix(1.00, 0.00, -0.00, -1.00, 462.0, 758.6)">e</text><text xml:space="preserve" font-family="Courier,Courier" font-size="87.4" fill="#DE6A10" transform="matrix(1.00, 0.00, -0.00, -1.00, 514.4, 758.6)">o</text><text xml:space="preserve" font-family="Courier,Courier" font-size="87.4" fill="#DE6A10" transform="matrix(1.00, 0.00, -0.00, -1.00, 566.8, 758.6)">p</text><text xml:space="preserve" font-family="Courier,Courier" font-size="87.4" fill="#DE6A10" transform="matrix(1.00, 0.00, -0.00, -1.00, 619.3, 758.6)">l</text><text xml:space="preserve" font-family="Courier,Courier" font-size="87.4" fill="#DE6A10" transform="matrix(1.00, 0.00, -0.00, -1.00, 671.7, 758.6)">e</text><text xml:space="preserve" font-family="Courier,Courier" font-size="87.4" fill="#DE6A10" transform="matrix(1.00, 0.00, -0.00, -1.00, 724.1, 758.6)"> </text><text xml:space="preserve" font-family="Courier,Courier" font-size="87.4" fill="#DE6A10" transform="matrix(1.00, 0.00, -0.00, -1.00, 776.6, 758.6)">N</text><text xml:space="preserve" font-family="Courier,Courier" font-size="87.4" fill="#DE6A10" transform="matrix(1.00, 0.00, -0.00, -1.00, 829.0, 758.6)">A</text><text xml:space="preserve" font-family="Courier,Courier" font-size="87.4" fill="#DE6A10" transform="matrix(1.00, 0.00, -0.00, -1.00, 881.4, 758.6)">T</text><text xml:space="preserve" font-family="Courier,Courier" font-size="87.4" fill="#DE6A10" transform="matrix(1.00, 0.00, -0.00, -1.00, 933.9, 758.6)">U</text><text xml:space="preserve" font-family="Courier,Courier" font-size="87.4" fill="#DE6A10" transform="matrix(1.00, 0.00, -0.00, -1.00, 986.3, 758.6)">R</text><text xml:space="preserve" font-family="Courier,Courier" font-size="87.4" fill="#DE6A10" transform="matrix(1.00, 0.00, -0.00, -1.00, 1038.7, 758.6)">A</text><text xml:space="preserve" font-family="Courier,Courier" font-size="87.4" fill="#DE6A10" transform="matrix(1.00, 0.00, -0.00, -1.00, 1091.2, 758.6)">L</text><text xml:space="preserve" font-family="Courier,Courier" font-size="87.4" fill="#DE6A10" transform="matrix(1.00, 0.00, -0.00, -1.00, 1143.6, 758.6)"> </text><text xml:space="preserve" font-family="Courier,Courier" font-size="87.4" fill="#DE6A10" transform="matrix(1.00, 0.00, -0.00, -1.00, 1196.0, 758.6)">J</text><text xml:space="preserve" font-family="Courier,Courier" font-size="87.4" fill="#DE6A10" transform="matrix(1.00, 0.00, -0.00, -1.00, 1248.5, 758.6)">O</text><text xml:space="preserve" font-family="Courier,Courier" font-size="87.4" fill="#DE6A10" transform="matrix(1.00, 0.00, -0.00, -1.00, 1300.9, 758.6)">I</text><text xml:space="preserve" font-family="Courier,Courier" font-size="87.4" fill="#DE6A10" transform="matrix(1.00, 0.00, -0.00, -1.00, 1353.3, 758.6)">N</text><text xml:space="preserve" font-family="Courier,Courier" font-size="87.4" fill="#DE6A10" transform="matrix(1.00, 0.00, -0.00, -1.00, 1405.8, 758.6)"> </text><text xml:space="preserve" font-family="Courier,Courier" font-size="87.4" fill="#DE6A10" transform="matrix(1.00, 0.00, -0.00, -1.00, 1458.2, 758.6)">I</text><text xml:space="preserve" font-family="Courier,Courier" font-size="87.4" fill="#DE6A10" transform="matrix(1.00, 0.00, -0.00, -1.00, 1510.6, 758.6)">n</text><text xml:space="preserve" font-family="Courier,Courier" font-size="87.4" fill="#DE6A10" transform="matrix(1.00, 0.00, -0.00, -1.00, 1563.1, 758.6)">c</text><text xml:space="preserve" font-family="Courier,Courier" font-size="87.4" fill="#DE6A10" transform="matrix(1.00, 0.00, -0.00, -1.00, 1615.5, 758.6)">o</text><text xml:space="preserve" font-family="Courier,Courier" font-size="87.4" fill="#DE6A10" transform="matrix(1.00, 0.00, -0.00, -1.00, 1667.9, 758.6)">m</text><text xml:space="preserve" font-family="Courier,Courier" font-size="87.4" fill="#DE6A10" transform="matrix(1.00, 0.00, -0.00, -1.00, 1720.4, 758.6)">e</text><text xml:space="preserve" font-family="Courier,Courier" font-size="87.4" fill="#A6AAA8" transform="matrix(1.00, 0.00, -0.00, -1.00, 1772.6, 758.6)"> </text><text xml:space="preserve" font-family="Courier,Courier" font-size="87.4" fill="#6FBF40" transform="matrix(1.00, 0.00, -0.00, -1.00, 173.6, 654.6)">W</text><text xml:space="preserve" font-family="Courier,Courier" font-size="87.4" fill="#6FBF40" transform="matrix(1.00, 0.00, -0.00, -1.00, 226.1, 654.6)">H</text><text xml:space="preserve" font-family="Courier,Courier" font-size="87.4" fill="#6FBF40" transform="matrix(1.00, 0.00, -0.00, -1.00, 278.5, 654.6)">E</text><text xml:space="preserve" font-family="Courier,Courier" font-size="87.4" fill="#6FBF40" transform="matrix(1.00, 0.00, -0.00, -1.00, 330.9, 654.6)">R</text><text xml:space="preserve" font-family="Courier,Courier" font-size="87.4" fill="#6FBF40" transform="matrix(1.00, 0.00, -0.00, -1.00, 383.4, 654.6)">E</text><text xml:space="preserve" font-family="Courier,Courier" font-size="87.4" fill="#A6AAA8" transform="matrix(1.00, 0.00, -0.00, -1.00, 435.8, 654.6)"> </text><text xml:space="preserve" font-family="Courier,Courier" font-size="87.4" fill="#00872A" transform="matrix(1.00, 0.00, -0.00, -1.00, 488.2, 654.6)">a</text><text xml:space="preserve" font-family="Courier,Courier" font-size="87.4" fill="#00872A" transform="matrix(1.00, 0.00, -0.00, -1.00, 540.6, 654.6)">n</text><text xml:space="preserve" font-family="Courier,Courier" font-size="87.4" fill="#00872A" transform="matrix(1.00, 0.00, -0.00, -1.00, 593.0, 654.6)">n</text><text xml:space="preserve" font-family="Courier,Courier" font-size="87.4" fill="#00872A" transform="matrix(1.00, 0.00, -0.00, -1.00, 645.5, 654.6)">u</text><text xml:space="preserve" font-family="Courier,Courier" font-size="87.4" fill="#00872A" transform="matrix(1.00, 0.00, -0.00, -1.00, 697.9, 654.6)">a</text><text xml:space="preserve" font-family="Courier,Courier" font-size="87.4" fill="#00872A" transform="matrix(1.00, 0.00, -0.00, -1.00, 750.3, 654.6)">l</text><text xml:space="preserve" font-family="Courier,Courier" font-size="87.4" fill="#00872A" transform="matrix(1.00, 0.00, -0.00, -1.00, 802.8, 654.6)">_</text><text xml:space="preserve" font-family="Courier,Courier" font-size="87.4" fill="#00872A" transform="matrix(1.00, 0.00, -0.00, -1.00, 855.2, 654.6)">i</text><text xml:space="preserve" font-family="Courier,Courier" font-size="87.4" fill="#00872A" transform="matrix(1.00, 0.00, -0.00, -1.00, 907.6, 654.6)">n</text><text xml:space="preserve" font-family="Courier,Courier" font-size="87.4" fill="#00872A" transform="matrix(1.00, 0.00, -0.00, -1.00, 960.1, 654.6)">c</text><text xml:space="preserve" font-family="Courier,Courier" font-size="87.4" fill="#00872A" transform="matrix(1.00, 0.00, -0.00, -1.00, 1012.5, 654.6)">o</text><text xml:space="preserve" font-family="Courier,Courier" font-size="87.4" fill="#00872A" transform="matrix(1.00, 0.00, -0.00, -1.00, 1064.9, 654.6)">m</text><text xml:space="preserve" font-family="Courier,Courier" font-size="87.4" fill="#00872A" transform="matrix(1.00, 0.00, -0.00, -1.00, 1117.4, 654.6)">e</text><text xml:space="preserve" font-family="Courier,Courier" font-size="87.4" fill="#00872A" transform="matrix(1.00, 0.00, -0.00, -1.00, 1169.8, 654.6)"> </text><text xml:space="preserve" font-family="Courier,Courier" font-size="87.4" fill="#00872A" transform="matrix(1.00, 0.00, -0.00, -1.00, 1222.2, 654.6)">&gt;</text><text xml:space="preserve" font-family="Courier,Courier" font-size="87.4" fill="#00872A" transform="matrix(1.00, 0.00, -0.00, -1.00, 1274.7, 654.6)"> </text><text xml:space="preserve" font-family="Courier,Courier" font-size="87.4" fill="#00872A" transform="matrix(1.00, 0.00, -0.00, -1.00, 1327.1, 654.6)">1</text><text xml:space="preserve" font-family="Courier,Courier" font-size="87.4" fill="#00872A" transform="matrix(1.00, 0.00, -0.00, -1.00, 1379.5, 654.6)">0</text><text xml:space="preserve" font-family="Courier,Courier" font-size="87.4" fill="#00872A" transform="matrix(1.00, 0.00, -0.00, -1.00, 1432.0, 654.6)">0</text><text xml:space="preserve" font-family="Courier,Courier" font-size="87.4" fill="#00872A" transform="matrix(1.00, 0.00, -0.00, -1.00, 1484.4, 654.6)">0</text><text xml:space="preserve" font-family="Courier,Courier" font-size="87.4" fill="#00872A" transform="matrix(1.00, 0.00, -0.00, -1.00, 1536.8, 654.6)">0</text><text xml:space="preserve" font-family="Courier,Courier" font-size="87.4" fill="#00872A" transform="matrix(1.00, 0.00, -0.00, -1.00, 1589.3, 654.6)">0</text><text xml:space="preserve" font-family="Courier,Courier" font-size="87.4" fill="#00872A" transform="matrix(1.00, 0.00, -0.00, -1.00, 1641.7, 654.6)">0</text><text xml:space="preserve" font-family="Courier,Courier" font-size="87.4" fill="#A6AAA8" transform="matrix(1.00, 0.00, -0.00, -1.00, 1693.9, 654.6)">;</text><text xml:space="preserve" font-family="Courier,Courier" font-size="87.4" fill="#A6AAA8" transform="matrix(1.00, 0.00, -0.00, -1.00, 1746.4, 654.6)"> </text><text xml:space="preserve" font-family="LucidaGrande,Lucida Grande" font-size="80.0" fill="#6FBF40" transform="matrix(1.00, 0.00, -0.00, -1.00, 111.8, 386.2)">σ</text><text xml:space="preserve" font-family="Courier,Courier" font-size="53.3" fill="#6FBF40" transform="matrix(1.00, 0.00, -0.00, -1.00, 166.2, 379.6)">a</text><text xml:space="preserve" font-family="Courier,Courier" font-size="53.3" fill="#6FBF40" transform="matrix(1.00, 0.00, -0.00, -1.00, 198.2, 379.6)">n</text><text xml:space="preserve" font-family="Courier,Courier" font-size="53.3" fill="#6FBF40" transform="matrix(1.00, 0.00, -0.00, -1.00, 230.2, 379.6)">n</text><text xml:space="preserve" font-family="Courier,Courier" font-size="53.3" fill="#6FBF40" transform="matrix(1.00, 0.00, -0.00, -1.00, 262.2, 379.6)">u</text><text xml:space="preserve" font-family="Courier,Courier" font-size="53.3" fill="#6FBF40" transform="matrix(1.00, 0.00, -0.00, -1.00, 294.3, 379.6)">a</text><text xml:space="preserve" font-family="Courier,Courier" font-size="53.3" fill="#6FBF40" transform="matrix(1.00, 0.00, -0.00, -1.00, 326.3, 379.6)">l</text><text xml:space="preserve" font-family="Courier,Courier" font-size="53.3" fill="#6FBF40" transform="matrix(1.00, 0.00, -0.00, -1.00, 358.3, 379.6)">_</text><text xml:space="preserve" font-family="Courier,Courier" font-size="53.3" fill="#6FBF40" transform="matrix(1.00, 0.00, -0.00, -1.00, 390.3, 379.6)">i</text><text xml:space="preserve" font-family="Courier,Courier" font-size="53.3" fill="#6FBF40" transform="matrix(1.00, 0.00, -0.00, -1.00, 422.3, 379.6)">n</text><text xml:space="preserve" font-family="Courier,Courier" font-size="53.3" fill="#6FBF40" transform="matrix(1.00, 0.00, -0.00, -1.00, 454.3, 379.6)">c</text><text xml:space="preserve" font-family="Courier,Courier" font-size="53.3" fill="#6FBF40" transform="matrix(1.00, 0.00, -0.00, -1.00, 486.3, 379.6)">o</text><text xml:space="preserve" font-family="Courier,Courier" font-size="53.3" fill="#6FBF40" transform="matrix(1.00, 0.00, -0.00, -1.00, 518.3, 379.6)">m</text><text xml:space="preserve" font-family="Courier,Courier" font-size="53.3" fill="#6FBF40" transform="matrix(1.00, 0.00, -0.00, -1.00, 550.3, 379.6)">e</text><text xml:space="preserve" font-family="Courier,Courier" font-size="53.3" fill="#6FBF40" transform="matrix(1.00, 0.00, -0.00, -1.00, 582.3, 379.6)"> </text><text xml:space="preserve" font-family="Courier,Courier" font-size="53.3" fill="#6FBF40" transform="matrix(1.00, 0.00, -0.00, -1.00, 614.4, 379.6)">&gt;</text><text xml:space="preserve" font-family="Courier,Courier" font-size="53.3" fill="#6FBF40" transform="matrix(1.00, 0.00, -0.00, -1.00, 646.4, 379.6)"> </text><text xml:space="preserve" font-family="Courier,Courier" font-size="53.3" fill="#6FBF40" transform="matrix(1.00, 0.00, -0.00, -1.00, 678.4, 379.6)">1</text><text xml:space="preserve" font-family="Courier,Courier" font-size="53.3" fill="#6FBF40" transform="matrix(1.00, 0.00, -0.00, -1.00, 710.4, 379.6)">0</text><text xml:space="preserve" font-family="Courier,Courier" font-size="53.3" fill="#6FBF40" transform="matrix(1.00, 0.00, -0.00, -1.00, 742.4, 379.6)">0</text><text xml:space="preserve" font-family="Courier,Courier" font-size="53.3" fill="#6FBF40" transform="matrix(1.00, 0.00, -0.00, -1.00, 774.4, 379.6)">0</text><text xml:space="preserve" font-family="Courier,Courier" font-size="53.3" fill="#6FBF40" transform="matrix(1.00, 0.00, -0.00, -1.00, 806.4, 379.6)">0</text><text xml:space="preserve" font-family="Courier,Courier" font-size="53.3" fill="#6FBF40" transform="matrix(1.00, 0.00, -0.00, -1.00, 838.4, 379.6)">0</text><text xml:space="preserve" font-family="Courier,Courier" font-size="53.3" fill="#6FBF40" transform="matrix(1.00, 0.00, -0.00, -1.00, 870.4, 379.6)">0</text><text xml:space="preserve" font-family="Courier,Courier" font-size="80.0" fill="#6FBF40" transform="matrix(1.00, 0.00, -0.00, -1.00, 902.3, 386.2)">(</text><text xml:space="preserve" font-family="Courier,Courier" font-size="80.0" fill="#51A7F9" transform="matrix(1.00, 0.00, -0.00, -1.00, 950.3, 386.2)">π</text><text xml:space="preserve" font-family="Courier,Courier" font-size="53.3" fill="#51A7F9" transform="matrix(1.00, 0.00, -0.00, -1.00, 994.2, 379.6)">a</text><text xml:space="preserve" font-family="Courier,Courier" font-size="53.3" fill="#51A7F9" transform="matrix(1.00, 0.00, -0.00, -1.00, 1026.3, 379.6)">n</text><text xml:space="preserve" font-family="Courier,Courier" font-size="53.3" fill="#51A7F9" transform="matrix(1.00, 0.00, -0.00, -1.00, 1058.3, 379.6)">n</text><text xml:space="preserve" font-family="Courier,Courier" font-size="53.3" fill="#51A7F9" transform="matrix(1.00, 0.00, -0.00, -1.00, 1090.3, 379.6)">u</text><text xml:space="preserve" font-family="Courier,Courier" font-size="53.3" fill="#51A7F9" transform="matrix(1.00, 0.00, -0.00, -1.00, 1122.3, 379.6)">a</text><text xml:space="preserve" font-family="Courier,Courier" font-size="53.3" fill="#51A7F9" transform="matrix(1.00, 0.00, -0.00, -1.00, 1154.3, 379.6)">l</text><text xml:space="preserve" font-family="Courier,Courier" font-size="53.3" fill="#51A7F9" transform="matrix(1.00, 0.00, -0.00, -1.00, 1186.3, 379.6)">_</text><text xml:space="preserve" font-family="Courier,Courier" font-size="53.3" fill="#51A7F9" transform="matrix(1.00, 0.00, -0.00, -1.00, 1218.3, 379.6)">i</text><text xml:space="preserve" font-family="Courier,Courier" font-size="53.3" fill="#51A7F9" transform="matrix(1.00, 0.00, -0.00, -1.00, 1250.3, 379.6)">n</text><text xml:space="preserve" font-family="Courier,Courier" font-size="53.3" fill="#51A7F9" transform="matrix(1.00, 0.00, -0.00, -1.00, 1282.3, 379.6)">c</text><text xml:space="preserve" font-family="Courier,Courier" font-size="53.3" fill="#51A7F9" transform="matrix(1.00, 0.00, -0.00, -1.00, 1314.4, 379.6)">o</text><text xml:space="preserve" font-family="Courier,Courier" font-size="53.3" fill="#51A7F9" transform="matrix(1.00, 0.00, -0.00, -1.00, 1346.4, 379.6)">m</text><text xml:space="preserve" font-family="Courier,Courier" font-size="53.3" fill="#51A7F9" transform="matrix(1.00, 0.00, -0.00, -1.00, 1378.4, 379.6)">e</text><text xml:space="preserve" font-family="Courier,Courier" font-size="80.0" fill="#51A7F9" transform="matrix(1.00, 0.00, -0.00, -1.00, 1410.3, 386.2)">(</text><text xml:space="preserve" font-family="Courier,Courier" font-size="80.0" fill="#F38F18" transform="matrix(1.00, 0.00, -0.00, -1.00, 1458.3, 386.2)">P</text><text xml:space="preserve" font-family="Courier,Courier" font-size="80.0" fill="#F38F18" transform="matrix(1.00, 0.00, -0.00, -1.00, 1506.3, 386.2)"> </text><text xml:space="preserve" font-family="AppleSymbols,Apple Symbols" font-size="80.0" fill="#F38F18" transform="matrix(1.00, 0.00, -0.00, -1.00, 1554.3, 386.2)">⋈</text><text xml:space="preserve" font-family="Courier,Courier" font-size="80.0" fill="#F38F18" transform="matrix(1.00, 0.00, -0.00, -1.00, 1616.1, 386.2)"> </text><text xml:space="preserve" font-family="Courier,Courier" font-size="80.0" fill="#F38F18" transform="matrix(1.00, 0.00, -0.00, -1.00, 1664.1, 386.2)">I</text><text xml:space="preserve" font-family="Courier,Courier" font-size="80.0" fill="#51A7F9" transform="matrix(1.00, 0.00, -0.00, -1.00, 1712.1, 386.2)">)</text><text xml:space="preserve" font-family="Courier,Courier" font-size="80.0" fill="#6FBF40" transform="matrix(1.00, 0.00, -0.00, -1.00, 1760.2, 386.2)">)</text><text xml:space="preserve" font-family="Helvetica-Light,Helvetica" font-size="50.0" fill="#000000" transform="matrix(1.00, 0.00, -0.00, -1.00, 147.2, 170.8)">T</text><text xml:space="preserve" font-family="Helvetica-Light,Helvetica" font-size="50.0" fill="#000000" transform="matrix(1.00, 0.00, -0.00, -1.00, 175.0, 170.8)">h</text><text xml:space="preserve" font-family="Helvetica-Light,Helvetica" font-size="50.0" fill="#000000" transform="matrix(1.00, 0.00, -0.00, -1.00, 202.8, 170.8)">e</text><text xml:space="preserve" font-family="Helvetica-Light,Helvetica" font-size="50.0" fill="#000000" transform="matrix(1.00, 0.00, -0.00, -1.00, 230.6, 170.8)">r</text><text xml:space="preserve" font-family="Helvetica-Light,Helvetica" font-size="50.0" fill="#000000" transform="matrix(1.00, 0.00, -0.00, -1.00, 246.4, 170.8)">e</text><text xml:space="preserve" font-family="Helvetica-Light,Helvetica" font-size="50.0" fill="#000000" transform="matrix(1.00, 0.00, -0.00, -1.00, 274.2, 170.8)"> </text><text xml:space="preserve" font-family="Helvetica-Light,Helvetica" font-size="50.0" fill="#000000" transform="matrix(1.00, 0.00, -0.00, -1.00, 288.1, 170.8)">a</text><text xml:space="preserve" font-family="Helvetica-Light,Helvetica" font-size="50.0" fill="#000000" transform="matrix(1.00, 0.00, -0.00, -1.00, 315.9, 170.8)">r</text><text xml:space="preserve" font-family="Helvetica-Light,Helvetica" font-size="50.0" fill="#000000" transform="matrix(1.00, 0.00, -0.00, -1.00, 331.6, 170.8)">e</text><text xml:space="preserve" font-family="Helvetica-Light,Helvetica" font-size="50.0" fill="#000000" transform="matrix(1.00, 0.00, -0.00, -1.00, 359.4, 170.8)"> </text><text xml:space="preserve" font-family="Helvetica-Light,Helvetica" font-size="50.0" fill="#000000" transform="matrix(1.00, 0.00, -0.00, -1.00, 373.3, 170.8)">m</text><text xml:space="preserve" font-family="Helvetica-Light,Helvetica" font-size="50.0" fill="#000000" transform="matrix(1.00, 0.00, -0.00, -1.00, 415.0, 170.8)">u</text><text xml:space="preserve" font-family="Helvetica-Light,Helvetica" font-size="50.0" fill="#000000" transform="matrix(1.00, 0.00, -0.00, -1.00, 442.8, 170.8)">l</text><text xml:space="preserve" font-family="Helvetica-Light,Helvetica" font-size="50.0" fill="#000000" transform="matrix(1.00, 0.00, -0.00, -1.00, 453.9, 170.8)">t</text><text xml:space="preserve" font-family="Helvetica-Light,Helvetica" font-size="50.0" fill="#000000" transform="matrix(1.00, 0.00, -0.00, -1.00, 467.8, 170.8)">i</text><text xml:space="preserve" font-family="Helvetica-Light,Helvetica" font-size="50.0" fill="#000000" transform="matrix(1.00, 0.00, -0.00, -1.00, 478.9, 170.8)">p</text><text xml:space="preserve" font-family="Helvetica-Light,Helvetica" font-size="50.0" fill="#000000" transform="matrix(1.00, 0.00, -0.00, -1.00, 509.4, 170.8)">l</text><text xml:space="preserve" font-family="Helvetica-Light,Helvetica" font-size="50.0" fill="#000000" transform="matrix(1.00, 0.00, -0.00, -1.00, 520.5, 170.8)">e</text><text xml:space="preserve" font-family="Helvetica-Light,Helvetica" font-size="50.0" fill="#000000" transform="matrix(1.00, 0.00, -0.00, -1.00, 548.3, 170.8)"> </text><text xml:space="preserve" font-family="Helvetica-Light,Helvetica" font-size="50.0" fill="#000000" transform="matrix(1.00, 0.00, -0.00, -1.00, 562.2, 170.8)">w</text><text xml:space="preserve" font-family="Helvetica-Light,Helvetica" font-size="50.0" fill="#000000" transform="matrix(1.00, 0.00, -0.00, -1.00, 598.3, 170.8)">a</text><text xml:space="preserve" font-family="Helvetica-Light,Helvetica" font-size="50.0" fill="#000000" transform="matrix(1.00, 0.00, -0.00, -1.00, 626.1, 170.8)">y</text><text xml:space="preserve" font-family="Helvetica-Light,Helvetica" font-size="50.0" fill="#000000" transform="matrix(1.00, 0.00, -0.00, -1.00, 651.1, 170.8)">s</text><text xml:space="preserve" font-family="Helvetica-Light,Helvetica" font-size="50.0" fill="#000000" transform="matrix(1.00, 0.00, -0.00, -1.00, 676.1, 170.8)"> </text><text xml:space="preserve" font-family="Helvetica-Light,Helvetica" font-size="50.0" fill="#000000" transform="matrix(1.00, 0.00, -0.00, -1.00, 690.0, 170.8)">t</text><text xml:space="preserve" font-family="Helvetica-Light,Helvetica" font-size="50.0" fill="#000000" transform="matrix(1.00, 0.00, -0.00, -1.00, 703.9, 170.8)">o</text><text xml:space="preserve" font-family="Helvetica-Light,Helvetica" font-size="50.0" fill="#000000" transform="matrix(1.00, 0.00, -0.00, -1.00, 731.7, 170.8)"> </text><text xml:space="preserve" font-family="Helvetica-Light,Helvetica" font-size="50.0" fill="#000000" transform="matrix(1.00, 0.00, -0.00, -1.00, 745.6, 170.8)">e</text><text xml:space="preserve" font-family="Helvetica-Light,Helvetica" font-size="50.0" fill="#000000" transform="matrix(1.00, 0.00, -0.00, -1.00, 773.4, 170.8)">x</text><text xml:space="preserve" font-family="Helvetica-Light,Helvetica" font-size="50.0" fill="#000000" transform="matrix(1.00, 0.00, -0.00, -1.00, 798.4, 170.8)">p</text><text xml:space="preserve" font-family="Helvetica-Light,Helvetica" font-size="50.0" fill="#000000" transform="matrix(1.00, 0.00, -0.00, -1.00, 829.0, 170.8)">r</text><text xml:space="preserve" font-family="Helvetica-Light,Helvetica" font-size="50.0" fill="#000000" transform="matrix(1.00, 0.00, -0.00, -1.00, 844.7, 170.8)">e</text><text xml:space="preserve" font-family="Helvetica-Light,Helvetica" font-size="50.0" fill="#000000" transform="matrix(1.00, 0.00, -0.00, -1.00, 872.5, 170.8)">s</text><text xml:space="preserve" font-family="Helvetica-Light,Helvetica" font-size="50.0" fill="#000000" transform="matrix(1.00, 0.00, -0.00, -1.00, 897.5, 170.8)">s</text><text xml:space="preserve" font-family="Helvetica-Light,Helvetica" font-size="50.0" fill="#000000" transform="matrix(1.00, 0.00, -0.00, -1.00, 922.5, 170.8)"> </text><text xml:space="preserve" font-family="Helvetica-Light,Helvetica" font-size="50.0" fill="#000000" transform="matrix(1.00, 0.00, -0.00, -1.00, 936.4, 170.8)">t</text><text xml:space="preserve" font-family="Helvetica-Light,Helvetica" font-size="50.0" fill="#000000" transform="matrix(1.00, 0.00, -0.00, -1.00, 950.3, 170.8)">h</text><text xml:space="preserve" font-family="Helvetica-Light,Helvetica" font-size="50.0" fill="#000000" transform="matrix(1.00, 0.00, -0.00, -1.00, 978.1, 170.8)">i</text><text xml:space="preserve" font-family="Helvetica-Light,Helvetica" font-size="50.0" fill="#000000" transform="matrix(1.00, 0.00, -0.00, -1.00, 989.2, 170.8)">s</text><text xml:space="preserve" font-family="Helvetica-Light,Helvetica" font-size="50.0" fill="#000000" transform="matrix(1.00, 0.00, -0.00, -1.00, 1014.2, 170.8)">,</text><text xml:space="preserve" font-family="Helvetica-Light,Helvetica" font-size="50.0" fill="#000000" transform="matrix(1.00, 0.00, -0.00, -1.00, 1028.1, 170.8)"> </text><text xml:space="preserve" font-family="Helvetica-Light,Helvetica" font-size="50.0" fill="#000000" transform="matrix(1.00, 0.00, -0.00, -1.00, 1042.0, 170.8)">b</text><text xml:space="preserve" font-family="Helvetica-Light,Helvetica" font-size="50.0" fill="#000000" transform="matrix(1.00, 0.00, -0.00, -1.00, 1072.6, 170.8)">u</text><text xml:space="preserve" font-family="Helvetica-Light,Helvetica" font-size="50.0" fill="#000000" transform="matrix(1.00, 0.00, -0.00, -1.00, 1100.4, 170.8)">t</text><text xml:space="preserve" font-family="Helvetica-Light,Helvetica" font-size="50.0" fill="#000000" transform="matrix(1.00, 0.00, -0.00, -1.00, 1114.3, 170.8)"> </text><text xml:space="preserve" font-family="Helvetica-Light,Helvetica" font-size="50.0" fill="#000000" transform="matrix(1.00, 0.00, -0.00, -1.00, 1128.2, 170.8)">i</text><text xml:space="preserve" font-family="Helvetica-Light,Helvetica" font-size="50.0" fill="#000000" transform="matrix(1.00, 0.00, -0.00, -1.00, 1139.3, 170.8)">s</text><text xml:space="preserve" font-family="Helvetica-Light,Helvetica" font-size="50.0" fill="#000000" transform="matrix(1.00, 0.00, -0.00, -1.00, 1164.3, 170.8)"> </text><text xml:space="preserve" font-family="Helvetica-Light,Helvetica" font-size="50.0" fill="#000000" transform="matrix(1.00, 0.00, -0.00, -1.00, 1178.2, 170.8)">t</text><text xml:space="preserve" font-family="Helvetica-Light,Helvetica" font-size="50.0" fill="#000000" transform="matrix(1.00, 0.00, -0.00, -1.00, 1192.1, 170.8)">h</text><text xml:space="preserve" font-family="Helvetica-Light,Helvetica" font-size="50.0" fill="#000000" transform="matrix(1.00, 0.00, -0.00, -1.00, 1219.9, 170.8)">i</text><text xml:space="preserve" font-family="Helvetica-Light,Helvetica" font-size="50.0" fill="#000000" transform="matrix(1.00, 0.00, -0.00, -1.00, 1231.0, 170.8)">s</text><text xml:space="preserve" font-family="Helvetica-Light,Helvetica" font-size="50.0" fill="#000000" transform="matrix(1.00, 0.00, -0.00, -1.00, 1256.0, 170.8)"> </text><text xml:space="preserve" font-family="Helvetica-Light,Helvetica" font-size="50.0" fill="#000000" transform="matrix(1.00, 0.00, -0.00, -1.00, 1269.9, 170.8)">t</text><text xml:space="preserve" font-family="Helvetica-Light,Helvetica" font-size="50.0" fill="#000000" transform="matrix(1.00, 0.00, -0.00, -1.00, 1283.8, 170.8)">h</text><text xml:space="preserve" font-family="Helvetica-Light,Helvetica" font-size="50.0" fill="#000000" transform="matrix(1.00, 0.00, -0.00, -1.00, 1311.6, 170.8)">e</text><text xml:space="preserve" font-family="Helvetica-Light,Helvetica" font-size="50.0" fill="#000000" transform="matrix(1.00, 0.00, -0.00, -1.00, 1339.4, 170.8)"> </text><text xml:space="preserve" font-family="Helvetica-Bold,Helvetica" font-weight="bold" font-size="50.0" fill="#000000" transform="matrix(1.00, 0.00, -0.00, -1.00, 1353.3, 170.8)">o</text><text xml:space="preserve" font-family="Helvetica-Bold,Helvetica" font-weight="bold" font-size="50.0" fill="#000000" transform="matrix(1.00, 0.00, -0.00, -1.00, 1383.8, 170.8)">p</text><text xml:space="preserve" font-family="Helvetica-Bold,Helvetica" font-weight="bold" font-size="50.0" fill="#000000" transform="matrix(1.00, 0.00, -0.00, -1.00, 1414.4, 170.8)">t</text><text xml:space="preserve" font-family="Helvetica-Bold,Helvetica" font-weight="bold" font-size="50.0" fill="#000000" transform="matrix(1.00, 0.00, -0.00, -1.00, 1431.0, 170.8)">i</text><text xml:space="preserve" font-family="Helvetica-Bold,Helvetica" font-weight="bold" font-size="50.0" fill="#000000" transform="matrix(1.00, 0.00, -0.00, -1.00, 1444.9, 170.8)">m</text><text xml:space="preserve" font-family="Helvetica-Bold,Helvetica" font-weight="bold" font-size="50.0" fill="#000000" transform="matrix(1.00, 0.00, -0.00, -1.00, 1489.4, 170.8)">a</text><text xml:space="preserve" font-family="Helvetica-Bold,Helvetica" font-weight="bold" font-size="50.0" fill="#000000" transform="matrix(1.00, 0.00, -0.00, -1.00, 1517.2, 170.8)">l</text><text xml:space="preserve" font-family="Helvetica-Bold,Helvetica" font-weight="bold" font-size="50.0" fill="#000000" transform="matrix(1.00, 0.00, -0.00, -1.00, 1531.1, 170.8)"> </text><text xml:space="preserve" font-family="Helvetica-Bold,Helvetica" font-weight="bold" font-size="50.0" fill="#000000" transform="matrix(1.00, 0.00, -0.00, -1.00, 1544.9, 170.8)">o</text><text xml:space="preserve" font-family="Helvetica-Bold,Helvetica" font-weight="bold" font-size="50.0" fill="#000000" transform="matrix(1.00, 0.00, -0.00, -1.00, 1575.5, 170.8)">r</text><text xml:space="preserve" font-family="Helvetica-Bold,Helvetica" font-weight="bold" font-size="50.0" fill="#000000" transform="matrix(1.00, 0.00, -0.00, -1.00, 1594.9, 170.8)">d</text><text xml:space="preserve" font-family="Helvetica-Bold,Helvetica" font-weight="bold" font-size="50.0" fill="#000000" transform="matrix(1.00, 0.00, -0.00, -1.00, 1625.5, 170.8)">e</text><text xml:space="preserve" font-family="Helvetica-Bold,Helvetica" font-weight="bold" font-size="50.0" fill="#000000" transform="matrix(1.00, 0.00, -0.00, -1.00, 1653.3, 170.8)">r</text><text xml:space="preserve" font-family="Helvetica-Bold,Helvetica" font-weight="bold" font-size="50.0" fill="#000000" transform="matrix(1.00, 0.00, -0.00, -1.00, 1672.8, 170.8)">i</text><text xml:space="preserve" font-family="Helvetica-Bold,Helvetica" font-weight="bold" font-size="50.0" fill="#000000" transform="matrix(1.00, 0.00, -0.00, -1.00, 1686.6, 170.8)">n</text><text xml:space="preserve" font-family="Helvetica-Bold,Helvetica" font-weight="bold" font-size="50.0" fill="#000000" transform="matrix(1.00, 0.00, -0.00, -1.00, 1717.2, 170.8)">g</text><text xml:space="preserve" font-family="Helvetica-Light,Helvetica" font-size="50.0" fill="#000000" transform="matrix(1.00, 0.00, -0.00, -1.00, 1747.8, 170.8)">?</text></g></svg>