<?xml version="1.0" encoding="UTF-8" standalone="no"?><svg xmlns="http://www.w3.org/2000/svg" xmlns:xlink="http://www.w3.org/1999/xlink" clip-rule="evenodd" stroke-miterlimit="10" viewBox="0 0 778 61"><desc>SVG generated by Keynote</desc><defs></defs><g transform="matrix(1.00, 0.00, -0.00, -1.00, 0.0, 61.0)"><text xml:space="preserve" font-family="Helvetica-Bold,Helvetica" font-weight="bold" font-size="60.5" fill="#000000" transform="matrix(1.00, 0.00, -0.00, -1.00, -0.2, 14.8)">S</text><text xml:space="preserve" font-family="Helvetica-Bold,Helvetica" font-weight="bold" font-size="60.5" fill="#000000" transform="matrix(1.00, 0.00, -0.00, -1.00, 40.1, 14.8)">t</text><text xml:space="preserve" font-family="Helvetica-Bold,Helvetica" font-weight="bold" font-size="60.5" fill="#000000" transform="matrix(1.00, 0.00, -0.00, -1.00, 60.2, 14.8)">e</text><text xml:space="preserve" font-family="Helvetica-Bold,Helvetica" font-weight="bold" font-size="60.5" fill="#000000" transform="matrix(1.00, 0.00, -0.00, -1.00, 93.9, 14.8)">p</text><text xml:space="preserve" font-family="Helvetica-Bold,Helvetica" font-weight="bold" font-size="60.5" fill="#000000" transform="matrix(1.00, 0.00, -0.00, -1.00, 130.8, 14.8)"> </text><text xml:space="preserve" font-family="Helvetica-Bold,Helvetica" font-weight="bold" font-size="60.5" fill="#000000" transform="matrix(1.00, 0.00, -0.00, -1.00, 147.6, 14.8)">3</text><text xml:space="preserve" font-family="Helvetica-Bold,Helvetica" font-weight="bold" font-size="60.5" fill="#000000" transform="matrix(1.00, 0.00, -0.00, -1.00, 181.3, 14.8)">:</text><text xml:space="preserve" font-family="Helvetica-Light,Helvetica" font-size="60.5" fill="#000000" transform="matrix(1.00, 0.00, -0.00, -1.00, 201.4, 14.8)"> </text><text xml:space="preserve" font-family="Helvetica-Light,Helvetica" font-size="60.5" fill="#000000" transform="matrix(1.00, 0.00, -0.00, -1.00, 218.2, 14.8)">T</text><text xml:space="preserve" font-family="Helvetica-Light,Helvetica" font-size="60.5" fill="#000000" transform="matrix(1.00, 0.00, -0.00, -1.00, 246.8, 14.8)">y</text><text xml:space="preserve" font-family="Helvetica-Light,Helvetica" font-size="60.5" fill="#000000" transform="matrix(1.00, 0.00, -0.00, -1.00, 277.0, 14.8)">p</text><text xml:space="preserve" font-family="Helvetica-Light,Helvetica" font-size="60.5" fill="#000000" transform="matrix(1.00, 0.00, -0.00, -1.00, 314.0, 14.8)">i</text><text xml:space="preserve" font-family="Helvetica-Light,Helvetica" font-size="60.5" fill="#000000" transform="matrix(1.00, 0.00, -0.00, -1.00, 327.4, 14.8)">n</text><text xml:space="preserve" font-family="Helvetica-Light,Helvetica" font-size="60.5" fill="#000000" transform="matrix(1.00, 0.00, -0.00, -1.00, 361.0, 14.8)">g</text><text xml:space="preserve" font-family="Helvetica-Light,Helvetica" font-size="60.5" fill="#000000" transform="matrix(1.00, 0.00, -0.00, -1.00, 398.0, 14.8)"> </text><text xml:space="preserve" font-family="Helvetica-Light,Helvetica" font-size="60.5" fill="#000000" transform="matrix(1.00, 0.00, -0.00, -1.00, 414.8, 14.8)">a</text><text xml:space="preserve" font-family="Helvetica-Light,Helvetica" font-size="60.5" fill="#000000" transform="matrix(1.00, 0.00, -0.00, -1.00, 448.4, 14.8)">n</text><text xml:space="preserve" font-family="Helvetica-Light,Helvetica" font-size="60.5" fill="#000000" transform="matrix(1.00, 0.00, -0.00, -1.00, 482.0, 14.8)">d</text><text xml:space="preserve" font-family="Helvetica-Light,Helvetica" font-size="60.5" fill="#000000" transform="matrix(1.00, 0.00, -0.00, -1.00, 519.0, 14.8)"> </text><text xml:space="preserve" font-family="Helvetica-Light,Helvetica" font-size="60.5" fill="#000000" transform="matrix(1.00, 0.00, -0.00, -1.00, 535.8, 14.8)">s</text><text xml:space="preserve" font-family="Helvetica-Light,Helvetica" font-size="60.5" fill="#000000" transform="matrix(1.00, 0.00, -0.00, -1.00, 566.0, 14.8)">e</text><text xml:space="preserve" font-family="Helvetica-Light,Helvetica" font-size="60.5" fill="#000000" transform="matrix(1.00, 0.00, -0.00, -1.00, 599.7, 14.8)">l</text><text xml:space="preserve" font-family="Helvetica-Light,Helvetica" font-size="60.5" fill="#000000" transform="matrix(1.00, 0.00, -0.00, -1.00, 613.1, 14.8)">e</text><text xml:space="preserve" font-family="Helvetica-Light,Helvetica" font-size="60.5" fill="#000000" transform="matrix(1.00, 0.00, -0.00, -1.00, 646.7, 14.8)">c</text><text xml:space="preserve" font-family="Helvetica-Light,Helvetica" font-size="60.5" fill="#000000" transform="matrix(1.00, 0.00, -0.00, -1.00, 680.3, 14.8)">t</text><text xml:space="preserve" font-family="Helvetica-Light,Helvetica" font-size="60.5" fill="#000000" transform="matrix(1.00, 0.00, -0.00, -1.00, 697.2, 14.8)">i</text><text xml:space="preserve" font-family="Helvetica-Light,Helvetica" font-size="60.5" fill="#000000" transform="matrix(1.00, 0.00, -0.00, -1.00, 710.6, 14.8)">n</text><text xml:space="preserve" font-family="Helvetica-Light,Helvetica" font-size="60.5" fill="#000000" transform="matrix(1.00, 0.00, -0.00, -1.00, 744.2, 14.8)">g</text></g></svg>