<?xml version="1.0" encoding="UTF-8" standalone="no"?><svg xmlns="http://www.w3.org/2000/svg" xmlns:xlink="http://www.w3.org/1999/xlink" clip-rule="evenodd" stroke-miterlimit="10" viewBox="0 0 792 297"><desc>SVG generated by Keynote</desc><defs></defs><g transform="matrix(1.00, 0.00, -0.00, -1.00, 0.0, 297.0)"><text xml:space="preserve" font-family="Helvetica-Light,Helvetica" font-size="38.6" fill="#000000" transform="matrix(1.00, 0.00, -0.00, -1.00, 0.8, 261.7)">•</text><text xml:space="preserve" font-family="Helvetica-Light,Helvetica" font-size="51.5" fill="#000000" transform="matrix(1.00, 0.00, -0.00, -1.00, 50.3, 257.2)">J</text><text xml:space="preserve" font-family="Helvetica-Light,Helvetica" font-size="51.5" fill="#000000" transform="matrix(1.00, 0.00, -0.00, -1.00, 76.0, 257.2)">u</text><text xml:space="preserve" font-family="Helvetica-Light,Helvetica" font-size="51.5" fill="#000000" transform="matrix(1.00, 0.00, -0.00, -1.00, 104.6, 257.2)">s</text><text xml:space="preserve" font-family="Helvetica-Light,Helvetica" font-size="51.5" fill="#000000" transform="matrix(1.00, 0.00, -0.00, -1.00, 130.4, 257.2)">t</text><text xml:space="preserve" font-family="Helvetica-Light,Helvetica" font-size="51.5" fill="#000000" transform="matrix(1.00, 0.00, -0.00, -1.00, 144.7, 257.2)"> </text><text xml:space="preserve" font-family="Helvetica-Light,Helvetica" font-size="51.5" fill="#000000" transform="matrix(1.00, 0.00, -0.00, -1.00, 159.0, 257.2)">t</text><text xml:space="preserve" font-family="Helvetica-Light,Helvetica" font-size="51.5" fill="#000000" transform="matrix(1.00, 0.00, -0.00, -1.00, 173.3, 257.2)">y</text><text xml:space="preserve" font-family="Helvetica-Light,Helvetica" font-size="51.5" fill="#000000" transform="matrix(1.00, 0.00, -0.00, -1.00, 199.0, 257.2)">p</text><text xml:space="preserve" font-family="Helvetica-Light,Helvetica" font-size="51.5" fill="#000000" transform="matrix(1.00, 0.00, -0.00, -1.00, 230.5, 257.2)">e</text><text xml:space="preserve" font-family="Helvetica-Light,Helvetica" font-size="51.5" fill="#000000" transform="matrix(1.00, 0.00, -0.00, -1.00, 259.1, 257.2)"> </text><text xml:space="preserve" font-family="Helvetica-Light,Helvetica" font-size="51.5" fill="#000000" transform="matrix(1.00, 0.00, -0.00, -1.00, 273.4, 257.2)">a</text><text xml:space="preserve" font-family="Helvetica-Light,Helvetica" font-size="51.5" fill="#000000" transform="matrix(1.00, 0.00, -0.00, -1.00, 302.1, 257.2)">s</text><text xml:space="preserve" font-family="Helvetica-Light,Helvetica" font-size="51.5" fill="#000000" transform="matrix(1.00, 0.00, -0.00, -1.00, 327.8, 257.2)"> </text><text xml:space="preserve" font-family="Helvetica-Light,Helvetica" font-size="51.5" fill="#000000" transform="matrix(1.00, 0.00, -0.00, -1.00, 342.1, 257.2)">i</text><text xml:space="preserve" font-family="Helvetica-Light,Helvetica" font-size="51.5" fill="#000000" transform="matrix(1.00, 0.00, -0.00, -1.00, 353.5, 257.2)">f</text><text xml:space="preserve" font-family="Helvetica-Light,Helvetica" font-size="51.5" fill="#000000" transform="matrix(1.00, 0.00, -0.00, -1.00, 367.8, 257.2)"> </text><text xml:space="preserve" font-family="Helvetica-Light,Helvetica" font-size="51.5" fill="#000000" transform="matrix(1.00, 0.00, -0.00, -1.00, 382.2, 257.2)">y</text><text xml:space="preserve" font-family="Helvetica-Light,Helvetica" font-size="51.5" fill="#000000" transform="matrix(1.00, 0.00, -0.00, -1.00, 407.9, 257.2)">o</text><text xml:space="preserve" font-family="Helvetica-Light,Helvetica" font-size="51.5" fill="#000000" transform="matrix(1.00, 0.00, -0.00, -1.00, 436.5, 257.2)">u</text><text xml:space="preserve" font-family="Helvetica-Light,Helvetica" font-size="51.5" fill="#000000" transform="matrix(1.00, 0.00, -0.00, -1.00, 465.1, 257.2)"> </text><text xml:space="preserve" font-family="Helvetica-Light,Helvetica" font-size="51.5" fill="#000000" transform="matrix(1.00, 0.00, -0.00, -1.00, 479.5, 257.2)">r</text><text xml:space="preserve" font-family="Helvetica-Light,Helvetica" font-size="51.5" fill="#000000" transform="matrix(1.00, 0.00, -0.00, -1.00, 495.7, 257.2)">e</text><text xml:space="preserve" font-family="Helvetica-Light,Helvetica" font-size="51.5" fill="#000000" transform="matrix(1.00, 0.00, -0.00, -1.00, 524.3, 257.2)">g</text><text xml:space="preserve" font-family="Helvetica-Light,Helvetica" font-size="51.5" fill="#000000" transform="matrix(1.00, 0.00, -0.00, -1.00, 555.7, 257.2)">u</text><text xml:space="preserve" font-family="Helvetica-Light,Helvetica" font-size="51.5" fill="#000000" transform="matrix(1.00, 0.00, -0.00, -1.00, 584.4, 257.2)">l</text><text xml:space="preserve" font-family="Helvetica-Light,Helvetica" font-size="51.5" fill="#000000" transform="matrix(1.00, 0.00, -0.00, -1.00, 595.8, 257.2)">a</text><text xml:space="preserve" font-family="Helvetica-Light,Helvetica" font-size="51.5" fill="#000000" transform="matrix(1.00, 0.00, -0.00, -1.00, 624.4, 257.2)">r</text><text xml:space="preserve" font-family="Helvetica-Light,Helvetica" font-size="51.5" fill="#000000" transform="matrix(1.00, 0.00, -0.00, -1.00, 641.6, 257.2)">l</text><text xml:space="preserve" font-family="Helvetica-Light,Helvetica" font-size="51.5" fill="#000000" transform="matrix(1.00, 0.00, -0.00, -1.00, 653.0, 257.2)">y</text><text xml:space="preserve" font-family="Helvetica-Light,Helvetica" font-size="51.5" fill="#000000" transform="matrix(1.00, 0.00, -0.00, -1.00, 678.7, 257.2)"> </text><text xml:space="preserve" font-family="Helvetica-Light,Helvetica" font-size="51.5" fill="#000000" transform="matrix(1.00, 0.00, -0.00, -1.00, 50.3, 195.2)">t</text><text xml:space="preserve" font-family="Helvetica-Light,Helvetica" font-size="51.5" fill="#000000" transform="matrix(1.00, 0.00, -0.00, -1.00, 64.6, 195.2)">y</text><text xml:space="preserve" font-family="Helvetica-Light,Helvetica" font-size="51.5" fill="#000000" transform="matrix(1.00, 0.00, -0.00, -1.00, 90.3, 195.2)">p</text><text xml:space="preserve" font-family="Helvetica-Light,Helvetica" font-size="51.5" fill="#000000" transform="matrix(1.00, 0.00, -0.00, -1.00, 121.8, 195.2)">e</text><text xml:space="preserve" font-family="Helvetica-Light,Helvetica" font-size="51.5" fill="#000000" transform="matrix(1.00, 0.00, -0.00, -1.00, 150.4, 195.2)"> </text><text xml:space="preserve" font-family="Helvetica-Light,Helvetica" font-size="51.5" fill="#000000" transform="matrix(1.00, 0.00, -0.00, -1.00, 164.7, 195.2)">o</text><text xml:space="preserve" font-family="Helvetica-Light,Helvetica" font-size="51.5" fill="#000000" transform="matrix(1.00, 0.00, -0.00, -1.00, 193.3, 195.2)">n</text><text xml:space="preserve" font-family="Helvetica-Light,Helvetica" font-size="51.5" fill="#000000" transform="matrix(1.00, 0.00, -0.00, -1.00, 222.0, 195.2)"> </text><text xml:space="preserve" font-family="Helvetica-Light,Helvetica" font-size="51.5" fill="#000000" transform="matrix(1.00, 0.00, -0.00, -1.00, 236.3, 195.2)">y</text><text xml:space="preserve" font-family="Helvetica-Light,Helvetica" font-size="51.5" fill="#000000" transform="matrix(1.00, 0.00, -0.00, -1.00, 262.0, 195.2)">o</text><text xml:space="preserve" font-family="Helvetica-Light,Helvetica" font-size="51.5" fill="#000000" transform="matrix(1.00, 0.00, -0.00, -1.00, 290.6, 195.2)">u</text><text xml:space="preserve" font-family="Helvetica-Light,Helvetica" font-size="51.5" fill="#000000" transform="matrix(1.00, 0.00, -0.00, -1.00, 319.2, 195.2)">r</text><text xml:space="preserve" font-family="Helvetica-Light,Helvetica" font-size="51.5" fill="#000000" transform="matrix(1.00, 0.00, -0.00, -1.00, 336.4, 195.2)"> </text><text xml:space="preserve" font-family="Helvetica-Light,Helvetica" font-size="51.5" fill="#000000" transform="matrix(1.00, 0.00, -0.00, -1.00, 350.7, 195.2)">k</text><text xml:space="preserve" font-family="Helvetica-Light,Helvetica" font-size="51.5" fill="#000000" transform="matrix(1.00, 0.00, -0.00, -1.00, 376.4, 195.2)">e</text><text xml:space="preserve" font-family="Helvetica-Light,Helvetica" font-size="51.5" fill="#000000" transform="matrix(1.00, 0.00, -0.00, -1.00, 405.1, 195.2)">y</text><text xml:space="preserve" font-family="Helvetica-Light,Helvetica" font-size="51.5" fill="#000000" transform="matrix(1.00, 0.00, -0.00, -1.00, 430.8, 195.2)">b</text><text xml:space="preserve" font-family="Helvetica-Light,Helvetica" font-size="51.5" fill="#000000" transform="matrix(1.00, 0.00, -0.00, -1.00, 462.3, 195.2)">o</text><text xml:space="preserve" font-family="Helvetica-Light,Helvetica" font-size="51.5" fill="#000000" transform="matrix(1.00, 0.00, -0.00, -1.00, 490.9, 195.2)">a</text><text xml:space="preserve" font-family="Helvetica-Light,Helvetica" font-size="51.5" fill="#000000" transform="matrix(1.00, 0.00, -0.00, -1.00, 519.5, 195.2)">r</text><text xml:space="preserve" font-family="Helvetica-Light,Helvetica" font-size="51.5" fill="#000000" transform="matrix(1.00, 0.00, -0.00, -1.00, 535.7, 195.2)">d</text><text xml:space="preserve" font-family="Helvetica-Light,Helvetica" font-size="51.5" fill="#000000" transform="matrix(1.00, 0.00, -0.00, -1.00, 567.2, 195.2)"> </text><text xml:space="preserve" font-family="Helvetica-Light,Helvetica" font-size="38.6" fill="#000000" transform="matrix(1.00, 0.00, -0.00, -1.00, 0.8, 79.3)">•</text><text xml:space="preserve" font-family="Helvetica-Light,Helvetica" font-size="51.5" fill="#000000" transform="matrix(1.00, 0.00, -0.00, -1.00, 50.3, 74.8)">P</text><text xml:space="preserve" font-family="Helvetica-Light,Helvetica" font-size="51.5" fill="#000000" transform="matrix(1.00, 0.00, -0.00, -1.00, 81.7, 74.8)">a</text><text xml:space="preserve" font-family="Helvetica-Light,Helvetica" font-size="51.5" fill="#000000" transform="matrix(1.00, 0.00, -0.00, -1.00, 110.3, 74.8)">g</text><text xml:space="preserve" font-family="Helvetica-Light,Helvetica" font-size="51.5" fill="#000000" transform="matrix(1.00, 0.00, -0.00, -1.00, 141.8, 74.8)">i</text><text xml:space="preserve" font-family="Helvetica-Light,Helvetica" font-size="51.5" fill="#000000" transform="matrix(1.00, 0.00, -0.00, -1.00, 153.2, 74.8)">n</text><text xml:space="preserve" font-family="Helvetica-Light,Helvetica" font-size="51.5" fill="#000000" transform="matrix(1.00, 0.00, -0.00, -1.00, 181.8, 74.8)">a</text><text xml:space="preserve" font-family="Helvetica-Light,Helvetica" font-size="51.5" fill="#000000" transform="matrix(1.00, 0.00, -0.00, -1.00, 210.5, 74.8)">t</text><text xml:space="preserve" font-family="Helvetica-Light,Helvetica" font-size="51.5" fill="#000000" transform="matrix(1.00, 0.00, -0.00, -1.00, 224.8, 74.8)">e</text><text xml:space="preserve" font-family="Helvetica-Light,Helvetica" font-size="51.5" fill="#000000" transform="matrix(1.00, 0.00, -0.00, -1.00, 253.4, 74.8)"> </text><text xml:space="preserve" font-family="Helvetica-Light,Helvetica" font-size="51.5" fill="#000000" transform="matrix(1.00, 0.00, -0.00, -1.00, 267.7, 74.8)">t</text><text xml:space="preserve" font-family="Helvetica-Light,Helvetica" font-size="51.5" fill="#000000" transform="matrix(1.00, 0.00, -0.00, -1.00, 282.0, 74.8)">h</text><text xml:space="preserve" font-family="Helvetica-Light,Helvetica" font-size="51.5" fill="#000000" transform="matrix(1.00, 0.00, -0.00, -1.00, 310.7, 74.8)">r</text><text xml:space="preserve" font-family="Helvetica-Light,Helvetica" font-size="51.5" fill="#000000" transform="matrix(1.00, 0.00, -0.00, -1.00, 326.9, 74.8)">o</text><text xml:space="preserve" font-family="Helvetica-Light,Helvetica" font-size="51.5" fill="#000000" transform="matrix(1.00, 0.00, -0.00, -1.00, 355.5, 74.8)">u</text><text xml:space="preserve" font-family="Helvetica-Light,Helvetica" font-size="51.5" fill="#000000" transform="matrix(1.00, 0.00, -0.00, -1.00, 384.1, 74.8)">g</text><text xml:space="preserve" font-family="Helvetica-Light,Helvetica" font-size="51.5" fill="#000000" transform="matrix(1.00, 0.00, -0.00, -1.00, 415.6, 74.8)">h</text><text xml:space="preserve" font-family="Helvetica-Light,Helvetica" font-size="51.5" fill="#000000" transform="matrix(1.00, 0.00, -0.00, -1.00, 444.2, 74.8)"> </text><text xml:space="preserve" font-family="Helvetica-Light,Helvetica" font-size="51.5" fill="#000000" transform="matrix(1.00, 0.00, -0.00, -1.00, 458.5, 74.8)">t</text><text xml:space="preserve" font-family="Helvetica-Light,Helvetica" font-size="51.5" fill="#000000" transform="matrix(1.00, 0.00, -0.00, -1.00, 472.8, 74.8)">h</text><text xml:space="preserve" font-family="Helvetica-Light,Helvetica" font-size="51.5" fill="#000000" transform="matrix(1.00, 0.00, -0.00, -1.00, 501.4, 74.8)">e</text><text xml:space="preserve" font-family="Helvetica-Light,Helvetica" font-size="51.5" fill="#000000" transform="matrix(1.00, 0.00, -0.00, -1.00, 530.1, 74.8)"> </text><text xml:space="preserve" font-family="Helvetica-Light,Helvetica" font-size="51.5" fill="#000000" transform="matrix(1.00, 0.00, -0.00, -1.00, 544.4, 74.8)">s</text><text xml:space="preserve" font-family="Helvetica-Light,Helvetica" font-size="51.5" fill="#000000" transform="matrix(1.00, 0.00, -0.00, -1.00, 570.1, 74.8)">u</text><text xml:space="preserve" font-family="Helvetica-Light,Helvetica" font-size="51.5" fill="#000000" transform="matrix(1.00, 0.00, -0.00, -1.00, 598.7, 74.8)">g</text><text xml:space="preserve" font-family="Helvetica-Light,Helvetica" font-size="51.5" fill="#000000" transform="matrix(1.00, 0.00, -0.00, -1.00, 630.2, 74.8)">g</text><text xml:space="preserve" font-family="Helvetica-Light,Helvetica" font-size="51.5" fill="#000000" transform="matrix(1.00, 0.00, -0.00, -1.00, 661.6, 74.8)">e</text><text xml:space="preserve" font-family="Helvetica-Light,Helvetica" font-size="51.5" fill="#000000" transform="matrix(1.00, 0.00, -0.00, -1.00, 690.3, 74.8)">s</text><text xml:space="preserve" font-family="Helvetica-Light,Helvetica" font-size="51.5" fill="#000000" transform="matrix(1.00, 0.00, -0.00, -1.00, 716.0, 74.8)">t</text><text xml:space="preserve" font-family="Helvetica-Light,Helvetica" font-size="51.5" fill="#000000" transform="matrix(1.00, 0.00, -0.00, -1.00, 730.3, 74.8)">e</text><text xml:space="preserve" font-family="Helvetica-Light,Helvetica" font-size="51.5" fill="#000000" transform="matrix(1.00, 0.00, -0.00, -1.00, 758.9, 74.8)">d</text><text xml:space="preserve" font-family="Helvetica-Light,Helvetica" font-size="51.5" fill="#000000" transform="matrix(1.00, 0.00, -0.00, -1.00, 790.4, 74.8)"> </text><text xml:space="preserve" font-family="Helvetica-Light,Helvetica" font-size="51.5" fill="#000000" transform="matrix(1.00, 0.00, -0.00, -1.00, 50.3, 12.8)">w</text><text xml:space="preserve" font-family="Helvetica-Light,Helvetica" font-size="51.5" fill="#000000" transform="matrix(1.00, 0.00, -0.00, -1.00, 87.4, 12.8)">o</text><text xml:space="preserve" font-family="Helvetica-Light,Helvetica" font-size="51.5" fill="#000000" transform="matrix(1.00, 0.00, -0.00, -1.00, 116.1, 12.8)">r</text><text xml:space="preserve" font-family="Helvetica-Light,Helvetica" font-size="51.5" fill="#000000" transform="matrix(1.00, 0.00, -0.00, -1.00, 132.3, 12.8)">d</text><text xml:space="preserve" font-family="Helvetica-Light,Helvetica" font-size="51.5" fill="#000000" transform="matrix(1.00, 0.00, -0.00, -1.00, 163.7, 12.8)">s</text><text xml:space="preserve" font-family="Helvetica-Light,Helvetica" font-size="51.5" fill="#000000" transform="matrix(1.00, 0.00, -0.00, -1.00, 189.5, 12.8)"> </text><text xml:space="preserve" font-family="Helvetica-Light,Helvetica" font-size="51.5" fill="#000000" transform="matrix(1.00, 0.00, -0.00, -1.00, 203.8, 12.8)">w</text><text xml:space="preserve" font-family="Helvetica-Light,Helvetica" font-size="51.5" fill="#000000" transform="matrix(1.00, 0.00, -0.00, -1.00, 240.9, 12.8)">i</text><text xml:space="preserve" font-family="Helvetica-Light,Helvetica" font-size="51.5" fill="#000000" transform="matrix(1.00, 0.00, -0.00, -1.00, 252.4, 12.8)">t</text><text xml:space="preserve" font-family="Helvetica-Light,Helvetica" font-size="51.5" fill="#000000" transform="matrix(1.00, 0.00, -0.00, -1.00, 266.7, 12.8)">h</text><text xml:space="preserve" font-family="Helvetica-Light,Helvetica" font-size="51.5" fill="#000000" transform="matrix(1.00, 0.00, -0.00, -1.00, 295.3, 12.8)"> </text><text xml:space="preserve" font-family="Helvetica-Light,Helvetica" font-size="51.5" fill="#000000" transform="matrix(1.00, 0.00, -0.00, -1.00, 309.6, 12.8)">y</text><text xml:space="preserve" font-family="Helvetica-Light,Helvetica" font-size="51.5" fill="#000000" transform="matrix(1.00, 0.00, -0.00, -1.00, 335.4, 12.8)">o</text><text xml:space="preserve" font-family="Helvetica-Light,Helvetica" font-size="51.5" fill="#000000" transform="matrix(1.00, 0.00, -0.00, -1.00, 364.0, 12.8)">u</text><text xml:space="preserve" font-family="Helvetica-Light,Helvetica" font-size="51.5" fill="#000000" transform="matrix(1.00, 0.00, -0.00, -1.00, 392.6, 12.8)">r</text><text xml:space="preserve" font-family="Helvetica-Light,Helvetica" font-size="51.5" fill="#000000" transform="matrix(1.00, 0.00, -0.00, -1.00, 409.7, 12.8)"> </text><text xml:space="preserve" font-family="Helvetica-Light,Helvetica" font-size="51.5" fill="#000000" transform="matrix(1.00, 0.00, -0.00, -1.00, 424.1, 12.8)">t</text><text xml:space="preserve" font-family="Helvetica-Light,Helvetica" font-size="51.5" fill="#000000" transform="matrix(1.00, 0.00, -0.00, -1.00, 438.4, 12.8)">h</text><text xml:space="preserve" font-family="Helvetica-Light,Helvetica" font-size="51.5" fill="#000000" transform="matrix(1.00, 0.00, -0.00, -1.00, 467.0, 12.8)">u</text><text xml:space="preserve" font-family="Helvetica-Light,Helvetica" font-size="51.5" fill="#000000" transform="matrix(1.00, 0.00, -0.00, -1.00, 495.6, 12.8)">m</text><text xml:space="preserve" font-family="Helvetica-Light,Helvetica" font-size="51.5" fill="#000000" transform="matrix(1.00, 0.00, -0.00, -1.00, 538.5, 12.8)">b</text><text xml:space="preserve" font-family="Helvetica-Light,Helvetica" font-size="51.5" fill="#000000" transform="matrix(1.00, 0.00, -0.00, -1.00, 570.0, 12.8)">s</text></g></svg>