<?xml version="1.0" encoding="UTF-8" standalone="no"?><svg xmlns="http://www.w3.org/2000/svg" xmlns:xlink="http://www.w3.org/1999/xlink" clip-rule="evenodd" stroke-miterlimit="10" viewBox="0 0 1920 1080"><desc>SVG generated by Keynote</desc><defs></defs><g transform="matrix(1.00, 0.00, -0.00, -1.00, 0.0, 1080.0)"><path d="M 0.0 1080.0 L 1920.0 1080.0 L 1920.0 0.0 L 0.0 0.0 Z M 0.0 1080.0 " fill="#FEFFFF"></path><text xml:space="preserve" font-family="Helvetica-Light,Helvetica" font-size="99.0" fill="#000000" transform="matrix(1.00, 0.00, -0.00, -1.00, 156.8, 502.8)">T</text><text xml:space="preserve" font-family="Helvetica-Light,Helvetica" font-size="99.0" fill="#000000" transform="matrix(1.00, 0.00, -0.00, -1.00, 211.9, 502.8)">i</text><text xml:space="preserve" font-family="Helvetica-Light,Helvetica" font-size="99.0" fill="#000000" transform="matrix(1.00, 0.00, -0.00, -1.00, 233.8, 502.8)">g</text><text xml:space="preserve" font-family="Helvetica-Light,Helvetica" font-size="99.0" fill="#000000" transform="matrix(1.00, 0.00, -0.00, -1.00, 294.3, 502.8)">h</text><text xml:space="preserve" font-family="Helvetica-Light,Helvetica" font-size="99.0" fill="#000000" transform="matrix(1.00, 0.00, -0.00, -1.00, 349.4, 502.8)">t</text><text xml:space="preserve" font-family="Helvetica-Light,Helvetica" font-size="99.0" fill="#000000" transform="matrix(1.00, 0.00, -0.00, -1.00, 376.9, 502.8)">l</text><text xml:space="preserve" font-family="Helvetica-Light,Helvetica" font-size="99.0" fill="#000000" transform="matrix(1.00, 0.00, -0.00, -1.00, 398.9, 502.8)">y</text><text xml:space="preserve" font-family="Helvetica-Light,Helvetica" font-size="99.0" fill="#000000" transform="matrix(1.00, 0.00, -0.00, -1.00, 448.4, 502.8)"> </text><text xml:space="preserve" font-family="Helvetica-Light,Helvetica" font-size="99.0" fill="#000000" transform="matrix(1.00, 0.00, -0.00, -1.00, 475.9, 502.8)">p</text><text xml:space="preserve" font-family="Helvetica-Light,Helvetica" font-size="99.0" fill="#000000" transform="matrix(1.00, 0.00, -0.00, -1.00, 536.4, 502.8)">a</text><text xml:space="preserve" font-family="Helvetica-Light,Helvetica" font-size="99.0" fill="#000000" transform="matrix(1.00, 0.00, -0.00, -1.00, 591.4, 502.8)">c</text><text xml:space="preserve" font-family="Helvetica-Light,Helvetica" font-size="99.0" fill="#000000" transform="matrix(1.00, 0.00, -0.00, -1.00, 646.5, 502.8)">k</text><text xml:space="preserve" font-family="Helvetica-Light,Helvetica" font-size="99.0" fill="#000000" transform="matrix(1.00, 0.00, -0.00, -1.00, 696.0, 502.8)">e</text><text xml:space="preserve" font-family="Helvetica-Light,Helvetica" font-size="99.0" fill="#000000" transform="matrix(1.00, 0.00, -0.00, -1.00, 751.0, 502.8)">d</text><text xml:space="preserve" font-family="Helvetica-Light,Helvetica" font-size="99.0" fill="#000000" transform="matrix(1.00, 0.00, -0.00, -1.00, 811.5, 502.8)"> </text><text xml:space="preserve" font-family="Helvetica-Light,Helvetica" font-size="99.0" fill="#000000" transform="matrix(1.00, 0.00, -0.00, -1.00, 839.0, 502.8)">v</text><text xml:space="preserve" font-family="Helvetica-Light,Helvetica" font-size="99.0" fill="#000000" transform="matrix(1.00, 0.00, -0.00, -1.00, 888.5, 502.8)">s</text><text xml:space="preserve" font-family="Helvetica-Light,Helvetica" font-size="99.0" fill="#000000" transform="matrix(1.00, 0.00, -0.00, -1.00, 938.0, 502.8)"> </text><text xml:space="preserve" font-family="Helvetica-Light,Helvetica" font-size="99.0" fill="#000000" transform="matrix(1.00, 0.00, -0.00, -1.00, 965.5, 502.8)">U</text><text xml:space="preserve" font-family="Helvetica-Light,Helvetica" font-size="99.0" fill="#000000" transform="matrix(1.00, 0.00, -0.00, -1.00, 1037.0, 502.8)">n</text><text xml:space="preserve" font-family="Helvetica-Light,Helvetica" font-size="99.0" fill="#000000" transform="matrix(1.00, 0.00, -0.00, -1.00, 1092.1, 502.8)">p</text><text xml:space="preserve" font-family="Helvetica-Light,Helvetica" font-size="99.0" fill="#000000" transform="matrix(1.00, 0.00, -0.00, -1.00, 1152.6, 502.8)">a</text><text xml:space="preserve" font-family="Helvetica-Light,Helvetica" font-size="99.0" fill="#000000" transform="matrix(1.00, 0.00, -0.00, -1.00, 1207.6, 502.8)">c</text><text xml:space="preserve" font-family="Helvetica-Light,Helvetica" font-size="99.0" fill="#000000" transform="matrix(1.00, 0.00, -0.00, -1.00, 1262.6, 502.8)">k</text><text xml:space="preserve" font-family="Helvetica-Light,Helvetica" font-size="99.0" fill="#000000" transform="matrix(1.00, 0.00, -0.00, -1.00, 1312.1, 502.8)">e</text><text xml:space="preserve" font-family="Helvetica-Light,Helvetica" font-size="99.0" fill="#000000" transform="matrix(1.00, 0.00, -0.00, -1.00, 1367.2, 502.8)">d</text><text xml:space="preserve" font-family="Helvetica-Light,Helvetica" font-size="99.0" fill="#000000" transform="matrix(1.00, 0.00, -0.00, -1.00, 1427.7, 502.8)"> </text><text xml:space="preserve" font-family="Helvetica-Light,Helvetica" font-size="99.0" fill="#000000" transform="matrix(1.00, 0.00, -0.00, -1.00, 1455.2, 502.8)">b</text><text xml:space="preserve" font-family="Helvetica-Light,Helvetica" font-size="99.0" fill="#000000" transform="matrix(1.00, 0.00, -0.00, -1.00, 1515.7, 502.8)">i</text><text xml:space="preserve" font-family="Helvetica-Light,Helvetica" font-size="99.0" fill="#000000" transform="matrix(1.00, 0.00, -0.00, -1.00, 1537.7, 502.8)">t</text><text xml:space="preserve" font-family="Helvetica-Light,Helvetica" font-size="99.0" fill="#000000" transform="matrix(1.00, 0.00, -0.00, -1.00, 1565.2, 502.8)">m</text><text xml:space="preserve" font-family="Helvetica-Light,Helvetica" font-size="99.0" fill="#000000" transform="matrix(1.00, 0.00, -0.00, -1.00, 1647.7, 502.8)">a</text><text xml:space="preserve" font-family="Helvetica-Light,Helvetica" font-size="99.0" fill="#000000" transform="matrix(1.00, 0.00, -0.00, -1.00, 1702.7, 502.8)">p</text><text xml:space="preserve" font-family="Helvetica-Light,Helvetica" font-size="99.0" fill="#000000" transform="matrix(1.00, 0.00, -0.00, -1.00, 1763.2, 502.8)"> </text><text xml:space="preserve" font-family="Helvetica-Light,Helvetica" font-size="50.0" fill="#000000" transform="matrix(1.00, 0.00, -0.00, -1.00, 660.8, 383.7)">(</text><text xml:space="preserve" font-family="Helvetica-Light,Helvetica" font-size="50.0" fill="#000000" transform="matrix(1.00, 0.00, -0.00, -1.00, 677.5, 383.7)">F</text><text xml:space="preserve" font-family="Helvetica-Light,Helvetica" font-size="50.0" fill="#000000" transform="matrix(1.00, 0.00, -0.00, -1.00, 705.3, 383.7)">i</text><text xml:space="preserve" font-family="Helvetica-Light,Helvetica" font-size="50.0" fill="#000000" transform="matrix(1.00, 0.00, -0.00, -1.00, 716.4, 383.7)">x</text><text xml:space="preserve" font-family="Helvetica-Light,Helvetica" font-size="50.0" fill="#000000" transform="matrix(1.00, 0.00, -0.00, -1.00, 741.4, 383.7)">e</text><text xml:space="preserve" font-family="Helvetica-Light,Helvetica" font-size="50.0" fill="#000000" transform="matrix(1.00, 0.00, -0.00, -1.00, 769.2, 383.7)">d</text><text xml:space="preserve" font-family="Helvetica-Light,Helvetica" font-size="50.0" fill="#000000" transform="matrix(1.00, 0.00, -0.00, -1.00, 799.7, 383.7)"> </text><text xml:space="preserve" font-family="Helvetica-Light,Helvetica" font-size="50.0" fill="#000000" transform="matrix(1.00, 0.00, -0.00, -1.00, 813.6, 383.7)">l</text><text xml:space="preserve" font-family="Helvetica-Light,Helvetica" font-size="50.0" fill="#000000" transform="matrix(1.00, 0.00, -0.00, -1.00, 824.7, 383.7)">e</text><text xml:space="preserve" font-family="Helvetica-Light,Helvetica" font-size="50.0" fill="#000000" transform="matrix(1.00, 0.00, -0.00, -1.00, 852.5, 383.7)">n</text><text xml:space="preserve" font-family="Helvetica-Light,Helvetica" font-size="50.0" fill="#000000" transform="matrix(1.00, 0.00, -0.00, -1.00, 880.3, 383.7)">g</text><text xml:space="preserve" font-family="Helvetica-Light,Helvetica" font-size="50.0" fill="#000000" transform="matrix(1.00, 0.00, -0.00, -1.00, 910.9, 383.7)">t</text><text xml:space="preserve" font-family="Helvetica-Light,Helvetica" font-size="50.0" fill="#000000" transform="matrix(1.00, 0.00, -0.00, -1.00, 924.8, 383.7)">h</text><text xml:space="preserve" font-family="Helvetica-Light,Helvetica" font-size="50.0" fill="#000000" transform="matrix(1.00, 0.00, -0.00, -1.00, 952.6, 383.7)"> </text><text xml:space="preserve" font-family="Helvetica-Light,Helvetica" font-size="50.0" fill="#000000" transform="matrix(1.00, 0.00, -0.00, -1.00, 966.5, 383.7)">r</text><text xml:space="preserve" font-family="Helvetica-Light,Helvetica" font-size="50.0" fill="#000000" transform="matrix(1.00, 0.00, -0.00, -1.00, 982.2, 383.7)">e</text><text xml:space="preserve" font-family="Helvetica-Light,Helvetica" font-size="50.0" fill="#000000" transform="matrix(1.00, 0.00, -0.00, -1.00, 1010.0, 383.7)">c</text><text xml:space="preserve" font-family="Helvetica-Light,Helvetica" font-size="50.0" fill="#000000" transform="matrix(1.00, 0.00, -0.00, -1.00, 1037.8, 383.7)">o</text><text xml:space="preserve" font-family="Helvetica-Light,Helvetica" font-size="50.0" fill="#000000" transform="matrix(1.00, 0.00, -0.00, -1.00, 1065.6, 383.7)">r</text><text xml:space="preserve" font-family="Helvetica-Light,Helvetica" font-size="50.0" fill="#000000" transform="matrix(1.00, 0.00, -0.00, -1.00, 1081.4, 383.7)">d</text><text xml:space="preserve" font-family="Helvetica-Light,Helvetica" font-size="50.0" fill="#000000" transform="matrix(1.00, 0.00, -0.00, -1.00, 1111.9, 383.7)">s</text><text xml:space="preserve" font-family="Helvetica-Light,Helvetica" font-size="50.0" fill="#000000" transform="matrix(1.00, 0.00, -0.00, -1.00, 1136.9, 383.7)"> </text><text xml:space="preserve" font-family="Helvetica-Light,Helvetica" font-size="50.0" fill="#000000" transform="matrix(1.00, 0.00, -0.00, -1.00, 1150.8, 383.7)">o</text><text xml:space="preserve" font-family="Helvetica-Light,Helvetica" font-size="50.0" fill="#000000" transform="matrix(1.00, 0.00, -0.00, -1.00, 1178.6, 383.7)">n</text><text xml:space="preserve" font-family="Helvetica-Light,Helvetica" font-size="50.0" fill="#000000" transform="matrix(1.00, 0.00, -0.00, -1.00, 1206.4, 383.7)">l</text><text xml:space="preserve" font-family="Helvetica-Light,Helvetica" font-size="50.0" fill="#000000" transform="matrix(1.00, 0.00, -0.00, -1.00, 1217.5, 383.7)">y</text><text xml:space="preserve" font-family="Helvetica-Light,Helvetica" font-size="50.0" fill="#000000" transform="matrix(1.00, 0.00, -0.00, -1.00, 1242.5, 383.7)">)</text></g></svg>