<?xml version="1.0" encoding="UTF-8" standalone="no"?><svg xmlns="http://www.w3.org/2000/svg" xmlns:xlink="http://www.w3.org/1999/xlink" clip-rule="evenodd" stroke-miterlimit="10" viewBox="0 0 1920 1080"><desc>SVG generated by Keynote</desc><defs><pattern id="C335E148-CCC2-4819-BABC-684CD5AB835E" patternUnits="userSpaceOnUse" width="600" height="600" viewBox="0 0 600 600"><image xlink:href="../../B49DC77F-09BB-449C-9313-EC11A2C405DF/assets/C3C0FC898C94653CAF8AD846D6CCD108.png" width="600.00" height="600.00"></image></pattern><pattern id="ABC32BEF-F939-4DAF-92B5-51E07FEC61CC" patternUnits="userSpaceOnUse" width="600" height="600" viewBox="0 0 600 600"><image xlink:href="../../B49DC77F-09BB-449C-9313-EC11A2C405DF/assets/C3C0FC898C94653CAF8AD846D6CCD108.png" width="600.00" height="600.00"></image></pattern><pattern id="762D02E3-CF4E-4A03-9C2F-F7720473C7B7" patternUnits="userSpaceOnUse" width="600" height="600" viewBox="0 0 600 600"><image xlink:href="../../8EB76D3D-0DCD-411E-A37A-1DA3BFD3A87D/assets/57C63BC369DF2E161F93135AB5988468.png" width="600.00" height="600.00"></image></pattern><pattern id="C966D568-3F5A-4F83-9754-EB5461221C08" patternUnits="userSpaceOnUse" width="600" height="600" viewBox="0 0 600 600"><image xlink:href="../../B49DC77F-09BB-449C-9313-EC11A2C405DF/assets/C3C0FC898C94653CAF8AD846D6CCD108.png" width="600.00" height="600.00"></image></pattern></defs><g transform="matrix(1.00, 0.00, -0.00, -1.00, 0.0, 1080.0)"><path d="M 0.0 1080.0 L 1920.0 1080.0 L 1920.0 0.0 L 0.0 0.0 Z M 0.0 1080.0 " fill="#FEFFFF"></path><image xlink:href="../../D72307DC-1592-412D-ACE1-7A1B39BBAA5E/assets/BAE8B49972D7F36906CB19FC5CE60631.png" width="317.00" height="227.00" transform="matrix(1.00, 0.00, -0.00, -1.00, 167.9, 806.8)" opacity="0.50"></image><g><clipPath id="clip0x6080016b59c0"><path d="M 171.0 806.0 L 482.0 806.0 L 482.0 585.0 L 171.0 585.0 Z M 170.9 805.8 "></path></clipPath><g clip-path="url(#clip0x6080016b59c0)"><path d="M 171.0 585.0 L 482.0 585.0 L 482.0 806.0 L 171.0 806.0 Z M 171.0 585.0 " fill="url(#C335E148-CCC2-4819-BABC-684CD5AB835E)"></path></g></g><g><clipPath id="clip0x6080016b5ea0"><path d="M 160.6 584.6 L 492.0 584.6 L 492.0 805.8 L 160.6 805.8 Z M 160.6 584.6 "></path></clipPath><g clip-path="url(#clip0x6080016b5ea0)"><text xml:space="preserve" font-family="Helvetica-Bold,Helvetica" font-weight="bold" font-size="57.0" fill="#FEFFFE" transform="matrix(1.00, 0.00, -0.00, -1.00, 232.9, 673.9)">R</text><text xml:space="preserve" font-family="Helvetica-Bold,Helvetica" font-weight="bold" font-size="57.0" fill="#FEFFFE" transform="matrix(1.00, 0.00, -0.00, -1.00, 274.1, 673.9)">e</text><text xml:space="preserve" font-family="Helvetica-Bold,Helvetica" font-weight="bold" font-size="57.0" fill="#FEFFFE" transform="matrix(1.00, 0.00, -0.00, -1.00, 305.8, 673.9)">c</text><text xml:space="preserve" font-family="Helvetica-Bold,Helvetica" font-weight="bold" font-size="57.0" fill="#FEFFFE" transform="matrix(1.00, 0.00, -0.00, -1.00, 337.5, 673.9)">i</text><text xml:space="preserve" font-family="Helvetica-Bold,Helvetica" font-weight="bold" font-size="57.0" fill="#FEFFFE" transform="matrix(1.00, 0.00, -0.00, -1.00, 353.3, 673.9)">p</text><text xml:space="preserve" font-family="Helvetica-Bold,Helvetica" font-weight="bold" font-size="57.0" fill="#FEFFFE" transform="matrix(1.00, 0.00, -0.00, -1.00, 388.2, 673.9)">e</text></g></g><image xlink:href="../../8EB76D3D-0DCD-411E-A37A-1DA3BFD3A87D/assets/38C33C4B0DB84208B0D2E809B500ECD0.png" width="141.00" height="57.00" transform="matrix(1.00, 0.00, -0.00, -1.00, 74.0, 925.9)" opacity="0.50"></image><g><clipPath id="clip0x600001caebe0"><path d="M 191.8 917.5 C 218.1 907.5 218.1 891.4 191.8 881.5 C 165.5 871.5 122.9 871.5 96.7 881.5 C 70.4 891.4 70.4 907.5 96.7 917.5 C 122.9 927.4 165.5 927.4 191.8 917.5 Z M 191.8 917.5 "></path></clipPath><g clip-path="url(#clip0x600001caebe0)"><image xlink:href="../../B49DC77F-09BB-449C-9313-EC11A2C405DF/assets/C3C0FC898C94653CAF8AD846D6CCD108.png" width="600.00" height="600.00" transform="matrix(0.50, 0.00, -0.00, -0.50, 77.0, 924.9)"></image></g></g><g><clipPath id="clip0x600001caeca0"><path d="M 77.0 874.0 L 211.5 874.0 L 211.5 924.9 L 77.0 924.9 Z M 77.0 874.0 "></path></clipPath><g clip-path="url(#clip0x600001caeca0)"><text xml:space="preserve" font-family="Helvetica-Light,Helvetica" font-size="20.0" fill="#FEFFFE" transform="matrix(1.00, 0.00, -0.00, -1.00, 102.7, 892.1)">r</text><text xml:space="preserve" font-family="Helvetica-Light,Helvetica" font-size="20.0" fill="#FEFFFE" transform="matrix(1.00, 0.00, -0.00, -1.00, 109.0, 892.1)">e</text><text xml:space="preserve" font-family="Helvetica-Light,Helvetica" font-size="20.0" fill="#FEFFFE" transform="matrix(1.00, 0.00, -0.00, -1.00, 120.2, 892.1)">c</text><text xml:space="preserve" font-family="Helvetica-Light,Helvetica" font-size="20.0" fill="#FEFFFE" transform="matrix(1.00, 0.00, -0.00, -1.00, 131.3, 892.1)">i</text><text xml:space="preserve" font-family="Helvetica-Light,Helvetica" font-size="20.0" fill="#FEFFFE" transform="matrix(1.00, 0.00, -0.00, -1.00, 135.7, 892.1)">p</text><text xml:space="preserve" font-family="Helvetica-Light,Helvetica" font-size="20.0" fill="#FEFFFE" transform="matrix(1.00, 0.00, -0.00, -1.00, 147.9, 892.1)">e</text><text xml:space="preserve" font-family="Helvetica-Light,Helvetica" font-size="20.0" fill="#FEFFFE" transform="matrix(1.00, 0.00, -0.00, -1.00, 159.1, 892.1)">_</text><text xml:space="preserve" font-family="Helvetica-Light,Helvetica" font-size="20.0" fill="#FEFFFE" transform="matrix(1.00, 0.00, -0.00, -1.00, 169.1, 892.1)">i</text><text xml:space="preserve" font-family="Helvetica-Light,Helvetica" font-size="20.0" fill="#FEFFFE" transform="matrix(1.00, 0.00, -0.00, -1.00, 173.5, 892.1)">d</text><path d="M 25.8 34.4 L 108.8 34.4 " fill="none" stroke="#FEFFFE" stroke-width="1.00" transform="matrix(1.00, 0.00, 0.00, -1.00, 77.0, 924.9)"></path></g></g><image xlink:href="../../8EB76D3D-0DCD-411E-A37A-1DA3BFD3A87D/assets/38C33C4B0DB84208B0D2E809B500ECD0.png" width="141.00" height="57.00" transform="matrix(1.00, 0.00, -0.00, -1.00, 280.6, 930.1)" opacity="0.50"></image><g><clipPath id="clip0x600001caee80"><path d="M 398.5 921.6 C 424.7 911.7 424.7 895.5 398.5 885.6 C 372.2 875.6 329.6 875.6 303.3 885.6 C 277.1 895.5 277.1 911.7 303.3 921.6 C 329.6 931.6 372.2 931.6 398.5 921.6 Z M 398.5 921.6 "></path></clipPath><g clip-path="url(#clip0x600001caee80)"><image xlink:href="../../B49DC77F-09BB-449C-9313-EC11A2C405DF/assets/C3C0FC898C94653CAF8AD846D6CCD108.png" width="600.00" height="600.00" transform="matrix(0.50, 0.00, -0.00, -0.50, 283.6, 929.1)"></image></g></g><g><clipPath id="clip0x6080016b6680"><path d="M 283.6 878.1 L 418.2 878.1 L 418.2 929.1 L 283.6 929.1 Z M 283.6 878.1 "></path></clipPath><g clip-path="url(#clip0x6080016b6680)"><text xml:space="preserve" font-family="Helvetica-Light,Helvetica" font-size="20.0" fill="#FEFFFE" transform="matrix(1.00, 0.00, -0.00, -1.00, 325.9, 896.0)">n</text><text xml:space="preserve" font-family="Helvetica-Light,Helvetica" font-size="20.0" fill="#FEFFFE" transform="matrix(1.00, 0.00, -0.00, -1.00, 337.0, 896.0)">a</text><text xml:space="preserve" font-family="Helvetica-Light,Helvetica" font-size="20.0" fill="#FEFFFE" transform="matrix(1.00, 0.00, -0.00, -1.00, 348.1, 896.0)">m</text><text xml:space="preserve" font-family="Helvetica-Light,Helvetica" font-size="20.0" fill="#FEFFFE" transform="matrix(1.00, 0.00, -0.00, -1.00, 364.8, 896.0)">e</text></g></g><image xlink:href="../../8EB76D3D-0DCD-411E-A37A-1DA3BFD3A87D/assets/38C33C4B0DB84208B0D2E809B500ECD0.png" width="141.00" height="57.00" transform="matrix(1.00, 0.00, -0.00, -1.00, 487.3, 925.9)" opacity="0.50"></image><g><clipPath id="clip0x6080016b68c0"><path d="M 605.1 917.5 C 631.4 907.5 631.4 891.4 605.1 881.5 C 578.8 871.5 536.2 871.5 510.0 881.5 C 483.7 891.4 483.7 907.5 510.0 917.5 C 536.2 927.4 578.8 927.4 605.1 917.5 Z M 605.1 917.5 "></path></clipPath><g clip-path="url(#clip0x6080016b68c0)"><image xlink:href="../../B49DC77F-09BB-449C-9313-EC11A2C405DF/assets/C3C0FC898C94653CAF8AD846D6CCD108.png" width="600.00" height="600.00" transform="matrix(0.50, 0.00, -0.00, -0.50, 490.3, 924.9)"></image></g></g><g><clipPath id="clip0x600001caea60"><path d="M 490.3 874.0 L 624.8 874.0 L 624.8 924.9 L 490.3 924.9 Z M 490.3 874.0 "></path></clipPath><g clip-path="url(#clip0x600001caea60)"><text xml:space="preserve" font-family="Helvetica-Light,Helvetica" font-size="19.0" fill="#FEFFFE" transform="matrix(1.00, 0.00, -0.00, -1.00, 510.0, 892.1)">d</text><text xml:space="preserve" font-family="Helvetica-Light,Helvetica" font-size="19.0" fill="#FEFFFE" transform="matrix(1.00, 0.00, -0.00, -1.00, 521.6, 892.1)">e</text><text xml:space="preserve" font-family="Helvetica-Light,Helvetica" font-size="19.0" fill="#FEFFFE" transform="matrix(1.00, 0.00, -0.00, -1.00, 532.2, 892.1)">s</text><text xml:space="preserve" font-family="Helvetica-Light,Helvetica" font-size="19.0" fill="#FEFFFE" transform="matrix(1.00, 0.00, -0.00, -1.00, 541.7, 892.1)">c</text><text xml:space="preserve" font-family="Helvetica-Light,Helvetica" font-size="19.0" fill="#FEFFFE" transform="matrix(1.00, 0.00, -0.00, -1.00, 552.3, 892.1)">r</text><text xml:space="preserve" font-family="Helvetica-Light,Helvetica" font-size="19.0" fill="#FEFFFE" transform="matrix(1.00, 0.00, -0.00, -1.00, 558.6, 892.1)">i</text><text xml:space="preserve" font-family="Helvetica-Light,Helvetica" font-size="19.0" fill="#FEFFFE" transform="matrix(1.00, 0.00, -0.00, -1.00, 562.8, 892.1)">p</text><text xml:space="preserve" font-family="Helvetica-Light,Helvetica" font-size="19.0" fill="#FEFFFE" transform="matrix(1.00, 0.00, -0.00, -1.00, 574.4, 892.1)">t</text><text xml:space="preserve" font-family="Helvetica-Light,Helvetica" font-size="19.0" fill="#FEFFFE" transform="matrix(1.00, 0.00, -0.00, -1.00, 579.7, 892.1)">i</text><text xml:space="preserve" font-family="Helvetica-Light,Helvetica" font-size="19.0" fill="#FEFFFE" transform="matrix(1.00, 0.00, -0.00, -1.00, 583.9, 892.1)">o</text><text xml:space="preserve" font-family="Helvetica-Light,Helvetica" font-size="19.0" fill="#FEFFFE" transform="matrix(1.00, 0.00, -0.00, -1.00, 594.5, 892.1)">n</text></g></g><path d="M 0.0 0.0 L 58.1 0.0 " fill="none" stroke="#000000" stroke-width="2.00" transform="matrix(-0.61, 0.79, 0.79, 0.61, 182.8, 818.9)"></path><path d="M 0.0 0.0 L 80.7 0.0 " fill="none" stroke="#000000" stroke-width="2.00" transform="matrix(0.71, 0.71, 0.71, -0.71, 481.4, 813.4)"></path><path d="M 0.4 -0.2 L 54.4 -0.2 " fill="none" stroke="#000000" stroke-width="2.00" transform="matrix(0.00, 1.00, 1.00, 0.00, 349.2, 814.6)"></path><image xlink:href="../../D72307DC-1592-412D-ACE1-7A1B39BBAA5E/assets/DDA479C5728CC19DE621D7ABC88CD767.png" width="317.00" height="227.00" transform="matrix(1.00, 0.00, -0.00, -1.00, 1386.1, 791.4)" opacity="0.50"></image><g><clipPath id="clip0x6080016b6ce0"><path d="M 1389.0 790.0 L 1700.0 790.0 L 1700.0 569.0 L 1389.0 569.0 Z M 1389.1 790.4 "></path></clipPath><g clip-path="url(#clip0x6080016b6ce0)"><path d="M 1389.0 569.0 L 1700.0 569.0 L 1700.0 790.0 L 1389.0 790.0 Z M 1389.0 569.0 " fill="url(#ABC32BEF-F939-4DAF-92B5-51E07FEC61CC)"></path></g></g><g><clipPath id="clip0x6080016b6fe0"><path d="M 1378.9 569.2 L 1710.3 569.2 L 1710.3 790.4 L 1378.9 790.4 Z M 1378.9 569.2 "></path></clipPath><g clip-path="url(#clip0x6080016b6fe0)"><text xml:space="preserve" font-family="Helvetica-Bold,Helvetica" font-weight="bold" font-size="57.0" fill="#FEFFFE" transform="matrix(1.00, 0.00, -0.00, -1.00, 1408.4, 658.5)">F</text><text xml:space="preserve" font-family="Helvetica-Bold,Helvetica" font-weight="bold" font-size="57.0" fill="#FEFFFE" transform="matrix(1.00, 0.00, -0.00, -1.00, 1443.2, 658.5)">o</text><text xml:space="preserve" font-family="Helvetica-Bold,Helvetica" font-weight="bold" font-size="57.0" fill="#FEFFFE" transform="matrix(1.00, 0.00, -0.00, -1.00, 1478.0, 658.5)">o</text><text xml:space="preserve" font-family="Helvetica-Bold,Helvetica" font-weight="bold" font-size="57.0" fill="#FEFFFE" transform="matrix(1.00, 0.00, -0.00, -1.00, 1512.8, 658.5)">d</text><text xml:space="preserve" font-family="Helvetica-Bold,Helvetica" font-weight="bold" font-size="57.0" fill="#FEFFFE" transform="matrix(1.00, 0.00, -0.00, -1.00, 1547.6, 658.5)"> </text><text xml:space="preserve" font-family="Helvetica-Bold,Helvetica" font-weight="bold" font-size="57.0" fill="#FEFFFE" transform="matrix(1.00, 0.00, -0.00, -1.00, 1563.5, 658.5)">I</text><text xml:space="preserve" font-family="Helvetica-Bold,Helvetica" font-weight="bold" font-size="57.0" fill="#FEFFFE" transform="matrix(1.00, 0.00, -0.00, -1.00, 1579.3, 658.5)">t</text><text xml:space="preserve" font-family="Helvetica-Bold,Helvetica" font-weight="bold" font-size="57.0" fill="#FEFFFE" transform="matrix(1.00, 0.00, -0.00, -1.00, 1598.3, 658.5)">e</text><text xml:space="preserve" font-family="Helvetica-Bold,Helvetica" font-weight="bold" font-size="57.0" fill="#FEFFFE" transform="matrix(1.00, 0.00, -0.00, -1.00, 1630.0, 658.5)">m</text></g></g><image xlink:href="../../8EB76D3D-0DCD-411E-A37A-1DA3BFD3A87D/assets/38C33C4B0DB84208B0D2E809B500ECD0.png" width="141.00" height="57.00" transform="matrix(1.00, 0.00, -0.00, -1.00, 1292.2, 910.5)" opacity="0.50"></image><g><clipPath id="clip0x600001caf6c0"><path d="M 1410.0 902.1 C 1436.3 892.1 1436.3 876.0 1410.0 866.0 C 1383.8 856.1 1341.2 856.1 1314.9 866.0 C 1288.6 876.0 1288.6 892.1 1314.9 902.1 C 1341.2 912.0 1383.8 912.0 1410.0 902.1 Z M 1410.0 902.1 "></path></clipPath><g clip-path="url(#clip0x600001caf6c0)"><image xlink:href="../../B49DC77F-09BB-449C-9313-EC11A2C405DF/assets/C3C0FC898C94653CAF8AD846D6CCD108.png" width="600.00" height="600.00" transform="matrix(0.50, 0.00, -0.00, -0.50, 1295.2, 909.5)"></image></g></g><g><clipPath id="clip0x600001cafae0"><path d="M 1295.2 858.6 L 1429.7 858.6 L 1429.7 909.5 L 1295.2 909.5 Z M 1295.2 858.6 "></path></clipPath><g clip-path="url(#clip0x600001cafae0)"><text xml:space="preserve" font-family="Helvetica-Light,Helvetica" font-size="20.0" fill="#FEFFFE" transform="matrix(1.00, 0.00, -0.00, -1.00, 1329.1, 876.6)">f</text><text xml:space="preserve" font-family="Helvetica-Light,Helvetica" font-size="20.0" fill="#FEFFFE" transform="matrix(1.00, 0.00, -0.00, -1.00, 1334.7, 876.6)">o</text><text xml:space="preserve" font-family="Helvetica-Light,Helvetica" font-size="20.0" fill="#FEFFFE" transform="matrix(1.00, 0.00, -0.00, -1.00, 1345.8, 876.6)">o</text><text xml:space="preserve" font-family="Helvetica-Light,Helvetica" font-size="20.0" fill="#FEFFFE" transform="matrix(1.00, 0.00, -0.00, -1.00, 1356.9, 876.6)">d</text><text xml:space="preserve" font-family="Helvetica-Light,Helvetica" font-size="20.0" fill="#FEFFFE" transform="matrix(1.00, 0.00, -0.00, -1.00, 1369.1, 876.6)">_</text><text xml:space="preserve" font-family="Helvetica-Light,Helvetica" font-size="20.0" fill="#FEFFFE" transform="matrix(1.00, 0.00, -0.00, -1.00, 1379.1, 876.6)">i</text><text xml:space="preserve" font-family="Helvetica-Light,Helvetica" font-size="20.0" fill="#FEFFFE" transform="matrix(1.00, 0.00, -0.00, -1.00, 1383.6, 876.6)">d</text><path d="M 33.9 34.4 L 100.6 34.4 " fill="none" stroke="#FEFFFE" stroke-width="1.00" transform="matrix(1.00, 0.00, 0.00, -1.00, 1295.2, 909.5)"></path></g></g><image xlink:href="../../8EB76D3D-0DCD-411E-A37A-1DA3BFD3A87D/assets/38C33C4B0DB84208B0D2E809B500ECD0.png" width="141.00" height="57.00" transform="matrix(1.00, 0.00, -0.00, -1.00, 1498.8, 914.7)" opacity="0.50"></image><g><clipPath id="clip0x600001cafd80"><path d="M 1616.7 906.2 C 1642.9 896.3 1642.9 880.1 1616.7 870.2 C 1590.4 860.2 1547.8 860.2 1521.5 870.2 C 1495.3 880.1 1495.3 896.3 1521.5 906.2 C 1547.8 916.2 1590.4 916.2 1616.7 906.2 Z M 1616.7 906.2 "></path></clipPath><g clip-path="url(#clip0x600001cafd80)"><image xlink:href="../../B49DC77F-09BB-449C-9313-EC11A2C405DF/assets/C3C0FC898C94653CAF8AD846D6CCD108.png" width="600.00" height="600.00" transform="matrix(0.50, 0.00, -0.00, -0.50, 1501.8, 913.7)"></image></g></g><g><clipPath id="clip0x6080016b75e0"><path d="M 1501.8 862.7 L 1636.4 862.7 L 1636.4 913.7 L 1501.8 913.7 Z M 1501.8 862.7 "></path></clipPath><g clip-path="url(#clip0x6080016b75e0)"><text xml:space="preserve" font-family="Helvetica-Light,Helvetica" font-size="21.0" fill="#FEFFFE" transform="matrix(1.00, 0.00, -0.00, -1.00, 1542.9, 880.2)">n</text><text xml:space="preserve" font-family="Helvetica-Light,Helvetica" font-size="21.0" fill="#FEFFFE" transform="matrix(1.00, 0.00, -0.00, -1.00, 1554.5, 880.2)">a</text><text xml:space="preserve" font-family="Helvetica-Light,Helvetica" font-size="21.0" fill="#FEFFFE" transform="matrix(1.00, 0.00, -0.00, -1.00, 1566.2, 880.2)">m</text><text xml:space="preserve" font-family="Helvetica-Light,Helvetica" font-size="21.0" fill="#FEFFFE" transform="matrix(1.00, 0.00, -0.00, -1.00, 1583.7, 880.2)">e</text></g></g><image xlink:href="../../8EB76D3D-0DCD-411E-A37A-1DA3BFD3A87D/assets/38C33C4B0DB84208B0D2E809B500ECD0.png" width="141.00" height="57.00" transform="matrix(1.00, 0.00, -0.00, -1.00, 1705.5, 910.5)" opacity="0.50"></image><g><clipPath id="clip0x6080016b7820"><path d="M 1823.3 902.1 C 1849.6 892.1 1849.6 876.0 1823.3 866.0 C 1797.1 856.1 1754.5 856.1 1728.2 866.0 C 1701.9 876.0 1701.9 892.1 1728.2 902.1 C 1754.5 912.0 1797.1 912.0 1823.3 902.1 Z M 1823.3 902.1 "></path></clipPath><g clip-path="url(#clip0x6080016b7820)"><image xlink:href="../../B49DC77F-09BB-449C-9313-EC11A2C405DF/assets/C3C0FC898C94653CAF8AD846D6CCD108.png" width="600.00" height="600.00" transform="matrix(0.50, 0.00, -0.00, -0.50, 1708.5, 909.5)"></image></g></g><g><clipPath id="clip0x6080016b7a60"><path d="M 1708.5 858.6 L 1843.0 858.6 L 1843.0 909.5 L 1708.5 909.5 Z M 1708.5 858.6 "></path></clipPath><g clip-path="url(#clip0x6080016b7a60)"><text xml:space="preserve" font-family="Helvetica-Light,Helvetica" font-size="20.0" fill="#FEFFFE" transform="matrix(1.00, 0.00, -0.00, -1.00, 1751.3, 876.4)">ﬂ</text><text xml:space="preserve" font-family="Helvetica-Light,Helvetica" font-size="20.0" fill="#FEFFFE" transform="matrix(1.00, 0.00, -0.00, -1.00, 1761.3, 876.4)">a</text><text xml:space="preserve" font-family="Helvetica-Light,Helvetica" font-size="20.0" fill="#FEFFFE" transform="matrix(1.00, 0.00, -0.00, -1.00, 1772.4, 876.4)">v</text><text xml:space="preserve" font-family="Helvetica-Light,Helvetica" font-size="20.0" fill="#FEFFFE" transform="matrix(1.00, 0.00, -0.00, -1.00, 1782.4, 876.4)">o</text><text xml:space="preserve" font-family="Helvetica-Light,Helvetica" font-size="20.0" fill="#FEFFFE" transform="matrix(1.00, 0.00, -0.00, -1.00, 1793.6, 876.4)">r</text></g></g><path d="M 0.0 0.0 L 58.1 0.0 " fill="none" stroke="#000000" stroke-width="2.00" transform="matrix(-0.61, 0.79, 0.79, 0.61, 1401.0, 803.5)"></path><path d="M 0.0 0.0 L 80.7 0.0 " fill="none" stroke="#000000" stroke-width="2.00" transform="matrix(0.71, 0.71, 0.71, -0.71, 1699.7, 798.0)"></path><path d="M -0.1 -0.4 L 54.9 -0.4 " fill="none" stroke="#000000" stroke-width="2.00" transform="matrix(0.00, 1.00, 1.00, 0.00, 1567.4, 799.1)"></path><image xlink:href="../../8EB76D3D-0DCD-411E-A37A-1DA3BFD3A87D/assets/F48AE92D95300E7B8E65A30D873BE7B0.png" width="429.00" height="331.00" transform="matrix(1.00, 0.00, -0.00, -1.00, 721.9, 860.7)" opacity="0.50"></image><g><clipPath id="clip0x6080016b8060"><path d="M 724.9 695.2 L 935.5 533.7 L 1146.0 695.2 L 935.5 856.7 Z M 724.9 695.2 "></path></clipPath><g clip-path="url(#clip0x6080016b8060)"><path d="M 724.9 533.7 L 1146.0 533.7 L 1146.0 856.7 L 724.9 856.7 Z M 724.9 533.7 " fill="url(#762D02E3-CF4E-4A03-9C2F-F7720473C7B7)"></path></g></g><g><clipPath id="clip0x6080016b8540"><path d="M 724.9 533.7 L 1146.0 533.7 L 1146.0 856.7 L 724.9 856.7 Z M 724.9 533.7 "></path></clipPath><g clip-path="url(#clip0x6080016b8540)"><text xml:space="preserve" font-family="Helvetica-Bold,Helvetica" font-weight="bold" font-size="47.0" fill="#FEFFFE" transform="matrix(1.00, 0.00, -0.00, -1.00, 808.8, 678.1)">I</text><text xml:space="preserve" font-family="Helvetica-Bold,Helvetica" font-weight="bold" font-size="47.0" fill="#FEFFFE" transform="matrix(1.00, 0.00, -0.00, -1.00, 821.8, 678.1)">n</text><text xml:space="preserve" font-family="Helvetica-Bold,Helvetica" font-weight="bold" font-size="47.0" fill="#FEFFFE" transform="matrix(1.00, 0.00, -0.00, -1.00, 850.5, 678.1)">g</text><text xml:space="preserve" font-family="Helvetica-Bold,Helvetica" font-weight="bold" font-size="47.0" fill="#FEFFFE" transform="matrix(1.00, 0.00, -0.00, -1.00, 879.2, 678.1)">r</text><text xml:space="preserve" font-family="Helvetica-Bold,Helvetica" font-weight="bold" font-size="47.0" fill="#FEFFFE" transform="matrix(1.00, 0.00, -0.00, -1.00, 897.5, 678.1)">e</text><text xml:space="preserve" font-family="Helvetica-Bold,Helvetica" font-weight="bold" font-size="47.0" fill="#FEFFFE" transform="matrix(1.00, 0.00, -0.00, -1.00, 923.7, 678.1)">d</text><text xml:space="preserve" font-family="Helvetica-Bold,Helvetica" font-weight="bold" font-size="47.0" fill="#FEFFFE" transform="matrix(1.00, 0.00, -0.00, -1.00, 952.4, 678.1)">i</text><text xml:space="preserve" font-family="Helvetica-Bold,Helvetica" font-weight="bold" font-size="47.0" fill="#FEFFFE" transform="matrix(1.00, 0.00, -0.00, -1.00, 965.4, 678.1)">e</text><text xml:space="preserve" font-family="Helvetica-Bold,Helvetica" font-weight="bold" font-size="47.0" fill="#FEFFFE" transform="matrix(1.00, 0.00, -0.00, -1.00, 991.6, 678.1)">n</text><text xml:space="preserve" font-family="Helvetica-Bold,Helvetica" font-weight="bold" font-size="47.0" fill="#FEFFFE" transform="matrix(1.00, 0.00, -0.00, -1.00, 1020.3, 678.1)">t</text><text xml:space="preserve" font-family="Helvetica-Bold,Helvetica" font-weight="bold" font-size="47.0" fill="#FEFFFE" transform="matrix(1.00, 0.00, -0.00, -1.00, 1035.9, 678.1)">s</text></g></g><path d="M 0.2 -0.1 L 202.2 -0.1 " fill="none" stroke="#000000" stroke-width="8.00" transform="matrix(-1.00, 0.00, 0.00, 1.00, 704.2, 691.1)"></path><path d="M 0.5 -0.2 L 201.5 -0.2 " fill="none" stroke="#000000" stroke-width="2.00" transform="matrix(-1.00, 0.00, 0.00, 1.00, 1368.5, 695.2)"></path><image xlink:href="../../D72307DC-1592-412D-ACE1-7A1B39BBAA5E/assets/81B9DA6591674B1199C20971C576A711.png" width="317.00" height="227.00" transform="matrix(1.00, 0.00, -0.00, -1.00, 777.0, 412.0)" opacity="0.50"></image><g><clipPath id="clip0x6080016b8b40"><path d="M 780.0 411.0 L 1091.0 411.0 L 1091.0 190.0 L 780.0 190.0 Z M 780.0 411.0 "></path></clipPath><g clip-path="url(#clip0x6080016b8b40)"><path d="M 780.0 190.0 L 1091.0 190.0 L 1091.0 411.0 L 780.0 411.0 Z M 780.0 190.0 " fill="url(#C966D568-3F5A-4F83-9754-EB5461221C08)"></path></g></g><g><clipPath id="clip0x600001cb0080"><path d="M 769.8 189.8 L 1101.1 189.8 L 1101.1 411.0 L 769.8 411.0 Z M 769.8 189.8 "></path></clipPath><g clip-path="url(#clip0x600001cb0080)"><text xml:space="preserve" font-family="Helvetica-Bold,Helvetica" font-weight="bold" font-size="57.0" fill="#FEFFFE" transform="matrix(1.00, 0.00, -0.00, -1.00, 819.9, 279.1)">Q</text><text xml:space="preserve" font-family="Helvetica-Bold,Helvetica" font-weight="bold" font-size="57.0" fill="#FEFFFE" transform="matrix(1.00, 0.00, -0.00, -1.00, 864.2, 279.1)">u</text><text xml:space="preserve" font-family="Helvetica-Bold,Helvetica" font-weight="bold" font-size="57.0" fill="#FEFFFE" transform="matrix(1.00, 0.00, -0.00, -1.00, 899.0, 279.1)">a</text><text xml:space="preserve" font-family="Helvetica-Bold,Helvetica" font-weight="bold" font-size="57.0" fill="#FEFFFE" transform="matrix(1.00, 0.00, -0.00, -1.00, 930.7, 279.1)">n</text><text xml:space="preserve" font-family="Helvetica-Bold,Helvetica" font-weight="bold" font-size="57.0" fill="#FEFFFE" transform="matrix(1.00, 0.00, -0.00, -1.00, 965.5, 279.1)">t</text><text xml:space="preserve" font-family="Helvetica-Bold,Helvetica" font-weight="bold" font-size="57.0" fill="#FEFFFE" transform="matrix(1.00, 0.00, -0.00, -1.00, 984.5, 279.1)">i</text><text xml:space="preserve" font-family="Helvetica-Bold,Helvetica" font-weight="bold" font-size="57.0" fill="#FEFFFE" transform="matrix(1.00, 0.00, -0.00, -1.00, 1000.3, 279.1)">t</text><text xml:space="preserve" font-family="Helvetica-Bold,Helvetica" font-weight="bold" font-size="57.0" fill="#FEFFFE" transform="matrix(1.00, 0.00, -0.00, -1.00, 1019.3, 279.1)">y</text></g></g><image xlink:href="../../8EB76D3D-0DCD-411E-A37A-1DA3BFD3A87D/assets/38C33C4B0DB84208B0D2E809B500ECD0.png" width="141.00" height="57.00" transform="matrix(1.00, 0.00, -0.00, -1.00, 656.7, 104.7)" opacity="0.50"></image><g><clipPath id="clip0x6080016b9020"><path d="M 774.5 96.2 C 800.8 86.3 800.8 70.1 774.5 60.2 C 748.2 50.2 705.6 50.2 679.4 60.2 C 653.1 70.1 653.1 86.3 679.4 96.2 C 705.6 106.2 748.2 106.2 774.5 96.2 Z M 774.5 96.2 "></path></clipPath><g clip-path="url(#clip0x6080016b9020)"><image xlink:href="../../B49DC77F-09BB-449C-9313-EC11A2C405DF/assets/C3C0FC898C94653CAF8AD846D6CCD108.png" width="600.00" height="600.00" transform="matrix(0.50, 0.00, -0.00, -0.50, 659.7, 103.7)"></image></g></g><g><clipPath id="clip0x6080016b9260"><path d="M 659.7 52.7 L 794.2 52.7 L 794.2 103.7 L 659.7 103.7 Z M 659.7 52.7 "></path></clipPath><g clip-path="url(#clip0x6080016b9260)"><text xml:space="preserve" font-family="Helvetica-Light,Helvetica" font-size="20.0" fill="#FEFFFE" transform="matrix(1.00, 0.00, -0.00, -1.00, 686.4, 70.8)">m</text><text xml:space="preserve" font-family="Helvetica-Light,Helvetica" font-size="20.0" fill="#FEFFFE" transform="matrix(1.00, 0.00, -0.00, -1.00, 703.0, 70.8)">u</text><text xml:space="preserve" font-family="Helvetica-Light,Helvetica" font-size="20.0" fill="#FEFFFE" transform="matrix(1.00, 0.00, -0.00, -1.00, 714.2, 70.8)">l</text><text xml:space="preserve" font-family="Helvetica-Light,Helvetica" font-size="20.0" fill="#FEFFFE" transform="matrix(1.00, 0.00, -0.00, -1.00, 718.6, 70.8)">t</text><text xml:space="preserve" font-family="Helvetica-Light,Helvetica" font-size="20.0" fill="#FEFFFE" transform="matrix(1.00, 0.00, -0.00, -1.00, 724.2, 70.8)">i</text><text xml:space="preserve" font-family="Helvetica-Light,Helvetica" font-size="20.0" fill="#FEFFFE" transform="matrix(1.00, 0.00, -0.00, -1.00, 728.6, 70.8)">p</text><text xml:space="preserve" font-family="Helvetica-Light,Helvetica" font-size="20.0" fill="#FEFFFE" transform="matrix(1.00, 0.00, -0.00, -1.00, 740.8, 70.8)">l</text><text xml:space="preserve" font-family="Helvetica-Light,Helvetica" font-size="20.0" fill="#FEFFFE" transform="matrix(1.00, 0.00, -0.00, -1.00, 745.3, 70.8)">i</text><text xml:space="preserve" font-family="Helvetica-Light,Helvetica" font-size="20.0" fill="#FEFFFE" transform="matrix(1.00, 0.00, -0.00, -1.00, 749.7, 70.8)">e</text><text xml:space="preserve" font-family="Helvetica-Light,Helvetica" font-size="20.0" fill="#FEFFFE" transform="matrix(1.00, 0.00, -0.00, -1.00, 760.8, 70.8)">r</text></g></g><image xlink:href="../../8EB76D3D-0DCD-411E-A37A-1DA3BFD3A87D/assets/38C33C4B0DB84208B0D2E809B500ECD0.png" width="141.00" height="57.00" transform="matrix(1.00, 0.00, -0.00, -1.00, 865.2, 104.7)" opacity="0.50"></image><g><clipPath id="clip0x6080016b98c0"><path d="M 983.0 96.2 C 1009.3 86.3 1009.3 70.1 983.0 60.2 C 956.7 50.2 914.2 50.2 887.9 60.2 C 861.6 70.1 861.6 86.3 887.9 96.2 C 914.2 106.2 956.7 106.2 983.0 96.2 Z M 983.0 96.2 "></path></clipPath><g clip-path="url(#clip0x6080016b98c0)"><image xlink:href="../../B49DC77F-09BB-449C-9313-EC11A2C405DF/assets/C3C0FC898C94653CAF8AD846D6CCD108.png" width="600.00" height="600.00" transform="matrix(0.50, 0.00, -0.00, -0.50, 868.2, 103.7)"></image></g></g><g><clipPath id="clip0x6080016b9b00"><path d="M 868.2 52.7 L 1002.7 52.7 L 1002.7 103.7 L 868.2 103.7 Z M 868.2 52.7 "></path></clipPath><g clip-path="url(#clip0x6080016b9b00)"><text xml:space="preserve" font-family="Helvetica-Light,Helvetica" font-size="21.0" fill="#FEFFFE" transform="matrix(1.00, 0.00, -0.00, -1.00, 906.3, 70.3)">m</text><text xml:space="preserve" font-family="Helvetica-Light,Helvetica" font-size="21.0" fill="#FEFFFE" transform="matrix(1.00, 0.00, -0.00, -1.00, 923.8, 70.3)">e</text><text xml:space="preserve" font-family="Helvetica-Light,Helvetica" font-size="21.0" fill="#FEFFFE" transform="matrix(1.00, 0.00, -0.00, -1.00, 935.5, 70.3)">t</text><text xml:space="preserve" font-family="Helvetica-Light,Helvetica" font-size="21.0" fill="#FEFFFE" transform="matrix(1.00, 0.00, -0.00, -1.00, 941.3, 70.3)">r</text><text xml:space="preserve" font-family="Helvetica-Light,Helvetica" font-size="21.0" fill="#FEFFFE" transform="matrix(1.00, 0.00, -0.00, -1.00, 948.3, 70.3)">i</text><text xml:space="preserve" font-family="Helvetica-Light,Helvetica" font-size="21.0" fill="#FEFFFE" transform="matrix(1.00, 0.00, -0.00, -1.00, 952.9, 70.3)">c</text></g></g><image xlink:href="../../8EB76D3D-0DCD-411E-A37A-1DA3BFD3A87D/assets/38C33C4B0DB84208B0D2E809B500ECD0.png" width="141.00" height="57.00" transform="matrix(1.00, 0.00, -0.00, -1.00, 1073.7, 104.7)" opacity="0.50"></image><g><clipPath id="clip0x6080016b9fe0"><path d="M 1191.5 96.2 C 1217.8 86.3 1217.8 70.1 1191.5 60.2 C 1165.3 50.2 1122.7 50.2 1096.4 60.2 C 1070.1 70.1 1070.1 86.3 1096.4 96.2 C 1122.7 106.2 1165.3 106.2 1191.5 96.2 Z M 1191.5 96.2 "></path></clipPath><g clip-path="url(#clip0x6080016b9fe0)"><image xlink:href="../../B49DC77F-09BB-449C-9313-EC11A2C405DF/assets/C3C0FC898C94653CAF8AD846D6CCD108.png" width="600.00" height="600.00" transform="matrix(0.50, 0.00, -0.00, -0.50, 1076.7, 103.7)"></image></g></g><g><clipPath id="clip0x6080016ba220"><path d="M 1076.7 52.7 L 1211.2 52.7 L 1211.2 103.7 L 1076.7 103.7 Z M 1076.7 52.7 "></path></clipPath><g clip-path="url(#clip0x6080016ba220)"><text xml:space="preserve" font-family="Helvetica-Light,Helvetica" font-size="20.0" fill="#FEFFFE" transform="matrix(1.00, 0.00, -0.00, -1.00, 1110.6, 70.8)">a</text><text xml:space="preserve" font-family="Helvetica-Light,Helvetica" font-size="20.0" fill="#FEFFFE" transform="matrix(1.00, 0.00, -0.00, -1.00, 1121.8, 70.8)">m</text><text xml:space="preserve" font-family="Helvetica-Light,Helvetica" font-size="20.0" fill="#FEFFFE" transform="matrix(1.00, 0.00, -0.00, -1.00, 1138.4, 70.8)">o</text><text xml:space="preserve" font-family="Helvetica-Light,Helvetica" font-size="20.0" fill="#FEFFFE" transform="matrix(1.00, 0.00, -0.00, -1.00, 1149.5, 70.8)">u</text><text xml:space="preserve" font-family="Helvetica-Light,Helvetica" font-size="20.0" fill="#FEFFFE" transform="matrix(1.00, 0.00, -0.00, -1.00, 1160.7, 70.8)">n</text><text xml:space="preserve" font-family="Helvetica-Light,Helvetica" font-size="20.0" fill="#FEFFFE" transform="matrix(1.00, 0.00, -0.00, -1.00, 1171.8, 70.8)">t</text></g></g><path d="M 0.0 0.0 L 85.8 0.0 " fill="none" stroke="#000000" stroke-width="2.00" transform="matrix(0.79, 0.62, 0.62, -0.79, 740.0, 112.6)"></path><path d="M 0.0 0.0 L 75.5 0.0 " fill="none" stroke="#000000" stroke-width="2.00" transform="matrix(0.71, -0.71, -0.71, -0.71, 1067.7, 169.3)"></path><path d="M 0.3 -0.5 L 54.3 -0.5 " fill="none" stroke="#000000" stroke-width="2.00" transform="matrix(0.00, 1.00, 1.00, 0.00, 935.5, 111.7)"></path><path d="M 0.2 -0.2 L 49.2 -0.2 L 53.2 -0.2 " fill="none" stroke="#000000" stroke-width="8.00" transform="matrix(0.00, 1.00, 1.00, 0.00, 939.2, 421.8)"></path><path d="M 954.6 471.0 L 939.0 502.2 L 923.4 471.0 Z M 954.6 471.0 " fill="#000000"></path><text xml:space="preserve" font-family="Helvetica-Light,Helvetica" font-size="50.0" fill="#000000" transform="matrix(1.00, 0.00, -0.00, -1.00, 88.2, 358.9)">N</text><text xml:space="preserve" font-family="Helvetica-Light,Helvetica" font-size="50.0" fill="#000000" transform="matrix(1.00, 0.00, -0.00, -1.00, 124.3, 358.9)">o</text><text xml:space="preserve" font-family="Helvetica-Light,Helvetica" font-size="50.0" fill="#000000" transform="matrix(1.00, 0.00, -0.00, -1.00, 152.1, 358.9)">t</text><text xml:space="preserve" font-family="Helvetica-Light,Helvetica" font-size="50.0" fill="#000000" transform="matrix(1.00, 0.00, -0.00, -1.00, 166.0, 358.9)">i</text><text xml:space="preserve" font-family="Helvetica-Light,Helvetica" font-size="50.0" fill="#000000" transform="matrix(1.00, 0.00, -0.00, -1.00, 177.1, 358.9)">c</text><text xml:space="preserve" font-family="Helvetica-Light,Helvetica" font-size="50.0" fill="#000000" transform="matrix(1.00, 0.00, -0.00, -1.00, 204.9, 358.9)">e</text><text xml:space="preserve" font-family="Helvetica-Light,Helvetica" font-size="50.0" fill="#000000" transform="matrix(1.00, 0.00, -0.00, -1.00, 232.7, 358.9)"> </text><text xml:space="preserve" font-family="Helvetica-Light,Helvetica" font-size="50.0" fill="#000000" transform="matrix(1.00, 0.00, -0.00, -1.00, 246.6, 358.9)">t</text><text xml:space="preserve" font-family="Helvetica-Light,Helvetica" font-size="50.0" fill="#000000" transform="matrix(1.00, 0.00, -0.00, -1.00, 260.5, 358.9)">h</text><text xml:space="preserve" font-family="Helvetica-Light,Helvetica" font-size="50.0" fill="#000000" transform="matrix(1.00, 0.00, -0.00, -1.00, 288.3, 358.9)">a</text><text xml:space="preserve" font-family="Helvetica-Light,Helvetica" font-size="50.0" fill="#000000" transform="matrix(1.00, 0.00, -0.00, -1.00, 316.1, 358.9)">t</text><text xml:space="preserve" font-family="Helvetica-Light,Helvetica" font-size="50.0" fill="#000000" transform="matrix(1.00, 0.00, -0.00, -1.00, 330.0, 358.9)"> </text><text xml:space="preserve" font-family="Helvetica-Light,Helvetica" font-size="50.0" fill="#000000" transform="matrix(1.00, 0.00, -0.00, -1.00, 343.9, 358.9)">t</text><text xml:space="preserve" font-family="Helvetica-Light,Helvetica" font-size="50.0" fill="#000000" transform="matrix(1.00, 0.00, -0.00, -1.00, 357.8, 358.9)">h</text><text xml:space="preserve" font-family="Helvetica-Light,Helvetica" font-size="50.0" fill="#000000" transform="matrix(1.00, 0.00, -0.00, -1.00, 385.6, 358.9)">e</text><text xml:space="preserve" font-family="Helvetica-Light,Helvetica" font-size="50.0" fill="#000000" transform="matrix(1.00, 0.00, -0.00, -1.00, 413.4, 358.9)"> </text><text xml:space="preserve" font-family="Helvetica-Light,Helvetica" font-size="50.0" fill="#000000" transform="matrix(1.00, 0.00, -0.00, -1.00, 427.3, 358.9)">Q</text><text xml:space="preserve" font-family="Helvetica-Light,Helvetica" font-size="50.0" fill="#000000" transform="matrix(1.00, 0.00, -0.00, -1.00, 466.2, 358.9)">u</text><text xml:space="preserve" font-family="Helvetica-Light,Helvetica" font-size="50.0" fill="#000000" transform="matrix(1.00, 0.00, -0.00, -1.00, 494.0, 358.9)">a</text><text xml:space="preserve" font-family="Helvetica-Light,Helvetica" font-size="50.0" fill="#000000" transform="matrix(1.00, 0.00, -0.00, -1.00, 521.8, 358.9)">n</text><text xml:space="preserve" font-family="Helvetica-Light,Helvetica" font-size="50.0" fill="#000000" transform="matrix(1.00, 0.00, -0.00, -1.00, 549.6, 358.9)">t</text><text xml:space="preserve" font-family="Helvetica-Light,Helvetica" font-size="50.0" fill="#000000" transform="matrix(1.00, 0.00, -0.00, -1.00, 563.5, 358.9)">i</text><text xml:space="preserve" font-family="Helvetica-Light,Helvetica" font-size="50.0" fill="#000000" transform="matrix(1.00, 0.00, -0.00, -1.00, 574.6, 358.9)">t</text><text xml:space="preserve" font-family="Helvetica-Light,Helvetica" font-size="50.0" fill="#000000" transform="matrix(1.00, 0.00, -0.00, -1.00, 588.5, 358.9)">y</text><text xml:space="preserve" font-family="Helvetica-Light,Helvetica" font-size="50.0" fill="#000000" transform="matrix(1.00, 0.00, -0.00, -1.00, 613.5, 358.9)"> </text><text xml:space="preserve" font-family="Helvetica-Light,Helvetica" font-size="50.0" fill="#000000" transform="matrix(1.00, 0.00, -0.00, -1.00, 175.3, 298.9)">i</text><text xml:space="preserve" font-family="Helvetica-Light,Helvetica" font-size="50.0" fill="#000000" transform="matrix(1.00, 0.00, -0.00, -1.00, 186.4, 298.9)">s</text><text xml:space="preserve" font-family="Helvetica-Light,Helvetica" font-size="50.0" fill="#000000" transform="matrix(1.00, 0.00, -0.00, -1.00, 211.4, 298.9)"> </text><text xml:space="preserve" font-family="Helvetica-Light,Helvetica" font-size="50.0" fill="#000000" transform="matrix(1.00, 0.00, -0.00, -1.00, 225.3, 298.9)">a</text><text xml:space="preserve" font-family="Helvetica-Light,Helvetica" font-size="50.0" fill="#000000" transform="matrix(1.00, 0.00, -0.00, -1.00, 253.1, 298.9)"> </text><text xml:space="preserve" font-family="Helvetica-Light,Helvetica" font-size="50.0" fill="#000000" transform="matrix(1.00, 0.00, -0.00, -1.00, 267.0, 298.9)">w</text><text xml:space="preserve" font-family="Helvetica-Light,Helvetica" font-size="50.0" fill="#000000" transform="matrix(1.00, 0.00, -0.00, -1.00, 303.1, 298.9)">e</text><text xml:space="preserve" font-family="Helvetica-Light,Helvetica" font-size="50.0" fill="#000000" transform="matrix(1.00, 0.00, -0.00, -1.00, 330.9, 298.9)">a</text><text xml:space="preserve" font-family="Helvetica-Light,Helvetica" font-size="50.0" fill="#000000" transform="matrix(1.00, 0.00, -0.00, -1.00, 358.7, 298.9)">k</text><text xml:space="preserve" font-family="Helvetica-Light,Helvetica" font-size="50.0" fill="#000000" transform="matrix(1.00, 0.00, -0.00, -1.00, 383.7, 298.9)"> </text><text xml:space="preserve" font-family="Helvetica-Light,Helvetica" font-size="50.0" fill="#000000" transform="matrix(1.00, 0.00, -0.00, -1.00, 397.6, 298.9)">e</text><text xml:space="preserve" font-family="Helvetica-Light,Helvetica" font-size="50.0" fill="#000000" transform="matrix(1.00, 0.00, -0.00, -1.00, 425.4, 298.9)">n</text><text xml:space="preserve" font-family="Helvetica-Light,Helvetica" font-size="50.0" fill="#000000" transform="matrix(1.00, 0.00, -0.00, -1.00, 453.2, 298.9)">t</text><text xml:space="preserve" font-family="Helvetica-Light,Helvetica" font-size="50.0" fill="#000000" transform="matrix(1.00, 0.00, -0.00, -1.00, 467.1, 298.9)">i</text><text xml:space="preserve" font-family="Helvetica-Light,Helvetica" font-size="50.0" fill="#000000" transform="matrix(1.00, 0.00, -0.00, -1.00, 478.2, 298.9)">t</text><text xml:space="preserve" font-family="Helvetica-Light,Helvetica" font-size="50.0" fill="#000000" transform="matrix(1.00, 0.00, -0.00, -1.00, 492.1, 298.9)">y</text><text xml:space="preserve" font-family="Helvetica-Light,Helvetica" font-size="50.0" fill="#000000" transform="matrix(1.00, 0.00, -0.00, -1.00, 512.5, 298.9)">.</text><text xml:space="preserve" font-family="Helvetica-Light,Helvetica" font-size="50.0" fill="#000000" transform="matrix(1.00, 0.00, -0.00, -1.00, 526.4, 298.9)"> </text><text xml:space="preserve" font-family="Helvetica-Light,Helvetica" font-size="39.0" fill="#52575F" transform="matrix(1.00, 0.00, -0.00, -1.00, 90.4, 249.4)">H</text><text xml:space="preserve" font-family="Helvetica-Light,Helvetica" font-size="39.0" fill="#52575F" transform="matrix(1.00, 0.00, -0.00, -1.00, 118.6, 249.4)">a</text><text xml:space="preserve" font-family="Helvetica-Light,Helvetica" font-size="39.0" fill="#52575F" transform="matrix(1.00, 0.00, -0.00, -1.00, 140.2, 249.4)">s</text><text xml:space="preserve" font-family="Helvetica-Light,Helvetica" font-size="39.0" fill="#52575F" transform="matrix(1.00, 0.00, -0.00, -1.00, 159.7, 249.4)"> </text><text xml:space="preserve" font-family="Helvetica-Light,Helvetica" font-size="39.0" fill="#52575F" transform="matrix(1.00, 0.00, -0.00, -1.00, 170.6, 249.4)">t</text><text xml:space="preserve" font-family="Helvetica-Light,Helvetica" font-size="39.0" fill="#52575F" transform="matrix(1.00, 0.00, -0.00, -1.00, 181.4, 249.4)">o</text><text xml:space="preserve" font-family="Helvetica-Light,Helvetica" font-size="39.0" fill="#52575F" transform="matrix(1.00, 0.00, -0.00, -1.00, 203.1, 249.4)"> </text><text xml:space="preserve" font-family="Helvetica-Light,Helvetica" font-size="39.0" fill="#52575F" transform="matrix(1.00, 0.00, -0.00, -1.00, 214.0, 249.4)">c</text><text xml:space="preserve" font-family="Helvetica-Light,Helvetica" font-size="39.0" fill="#52575F" transform="matrix(1.00, 0.00, -0.00, -1.00, 235.6, 249.4)">o</text><text xml:space="preserve" font-family="Helvetica-Light,Helvetica" font-size="39.0" fill="#52575F" transform="matrix(1.00, 0.00, -0.00, -1.00, 257.3, 249.4)">r</text><text xml:space="preserve" font-family="Helvetica-Light,Helvetica" font-size="39.0" fill="#52575F" transform="matrix(1.00, 0.00, -0.00, -1.00, 270.3, 249.4)">r</text><text xml:space="preserve" font-family="Helvetica-Light,Helvetica" font-size="39.0" fill="#52575F" transform="matrix(1.00, 0.00, -0.00, -1.00, 282.6, 249.4)">e</text><text xml:space="preserve" font-family="Helvetica-Light,Helvetica" font-size="39.0" fill="#52575F" transform="matrix(1.00, 0.00, -0.00, -1.00, 304.3, 249.4)">s</text><text xml:space="preserve" font-family="Helvetica-Light,Helvetica" font-size="39.0" fill="#52575F" transform="matrix(1.00, 0.00, -0.00, -1.00, 323.8, 249.4)">p</text><text xml:space="preserve" font-family="Helvetica-Light,Helvetica" font-size="39.0" fill="#52575F" transform="matrix(1.00, 0.00, -0.00, -1.00, 347.6, 249.4)">o</text><text xml:space="preserve" font-family="Helvetica-Light,Helvetica" font-size="39.0" fill="#52575F" transform="matrix(1.00, 0.00, -0.00, -1.00, 369.3, 249.4)">n</text><text xml:space="preserve" font-family="Helvetica-Light,Helvetica" font-size="39.0" fill="#52575F" transform="matrix(1.00, 0.00, -0.00, -1.00, 391.0, 249.4)">d</text><text xml:space="preserve" font-family="Helvetica-Light,Helvetica" font-size="39.0" fill="#52575F" transform="matrix(1.00, 0.00, -0.00, -1.00, 414.8, 249.4)"> </text><text xml:space="preserve" font-family="Helvetica-Light,Helvetica" font-size="39.0" fill="#52575F" transform="matrix(1.00, 0.00, -0.00, -1.00, 425.6, 249.4)">t</text><text xml:space="preserve" font-family="Helvetica-Light,Helvetica" font-size="39.0" fill="#52575F" transform="matrix(1.00, 0.00, -0.00, -1.00, 436.5, 249.4)">o</text><text xml:space="preserve" font-family="Helvetica-Light,Helvetica" font-size="39.0" fill="#52575F" transform="matrix(1.00, 0.00, -0.00, -1.00, 458.2, 249.4)"> </text><text xml:space="preserve" font-family="Helvetica-Light,Helvetica" font-size="39.0" fill="#52575F" transform="matrix(1.00, 0.00, -0.00, -1.00, 469.0, 249.4)">a</text><text xml:space="preserve" font-family="Helvetica-Light,Helvetica" font-size="39.0" fill="#52575F" transform="matrix(1.00, 0.00, -0.00, -1.00, 490.7, 249.4)"> </text><text xml:space="preserve" font-family="Helvetica-Light,Helvetica" font-size="39.0" fill="#52575F" transform="matrix(1.00, 0.00, -0.00, -1.00, 501.5, 249.4)">r</text><text xml:space="preserve" font-family="Helvetica-Light,Helvetica" font-size="39.0" fill="#52575F" transform="matrix(1.00, 0.00, -0.00, -1.00, 513.8, 249.4)">e</text><text xml:space="preserve" font-family="Helvetica-Light,Helvetica" font-size="39.0" fill="#52575F" transform="matrix(1.00, 0.00, -0.00, -1.00, 535.5, 249.4)">c</text><text xml:space="preserve" font-family="Helvetica-Light,Helvetica" font-size="39.0" fill="#52575F" transform="matrix(1.00, 0.00, -0.00, -1.00, 557.2, 249.4)">i</text><text xml:space="preserve" font-family="Helvetica-Light,Helvetica" font-size="39.0" fill="#52575F" transform="matrix(1.00, 0.00, -0.00, -1.00, 565.9, 249.4)">p</text><text xml:space="preserve" font-family="Helvetica-Light,Helvetica" font-size="39.0" fill="#52575F" transform="matrix(1.00, 0.00, -0.00, -1.00, 589.7, 249.4)">e</text><text xml:space="preserve" font-family="Helvetica-Light,Helvetica" font-size="39.0" fill="#52575F" transform="matrix(1.00, 0.00, -0.00, -1.00, 611.4, 249.4)"> </text><text xml:space="preserve" font-family="Helvetica-Light,Helvetica" font-size="39.0" fill="#52575F" transform="matrix(1.00, 0.00, -0.00, -1.00, 225.2, 202.4)">a</text><text xml:space="preserve" font-family="Helvetica-Light,Helvetica" font-size="39.0" fill="#52575F" transform="matrix(1.00, 0.00, -0.00, -1.00, 246.9, 202.4)">n</text><text xml:space="preserve" font-family="Helvetica-Light,Helvetica" font-size="39.0" fill="#52575F" transform="matrix(1.00, 0.00, -0.00, -1.00, 268.5, 202.4)">d</text><text xml:space="preserve" font-family="Helvetica-Light,Helvetica" font-size="39.0" fill="#52575F" transform="matrix(1.00, 0.00, -0.00, -1.00, 292.4, 202.4)"> </text><text xml:space="preserve" font-family="Helvetica-Light,Helvetica" font-size="39.0" fill="#52575F" transform="matrix(1.00, 0.00, -0.00, -1.00, 303.2, 202.4)">f</text><text xml:space="preserve" font-family="Helvetica-Light,Helvetica" font-size="39.0" fill="#52575F" transform="matrix(1.00, 0.00, -0.00, -1.00, 314.1, 202.4)">o</text><text xml:space="preserve" font-family="Helvetica-Light,Helvetica" font-size="39.0" fill="#52575F" transform="matrix(1.00, 0.00, -0.00, -1.00, 335.7, 202.4)">o</text><text xml:space="preserve" font-family="Helvetica-Light,Helvetica" font-size="39.0" fill="#52575F" transform="matrix(1.00, 0.00, -0.00, -1.00, 357.4, 202.4)">d</text><text xml:space="preserve" font-family="Helvetica-Light,Helvetica" font-size="39.0" fill="#52575F" transform="matrix(1.00, 0.00, -0.00, -1.00, 381.2, 202.4)"> </text><text xml:space="preserve" font-family="Helvetica-Light,Helvetica" font-size="39.0" fill="#52575F" transform="matrix(1.00, 0.00, -0.00, -1.00, 392.1, 202.4)">i</text><text xml:space="preserve" font-family="Helvetica-Light,Helvetica" font-size="39.0" fill="#52575F" transform="matrix(1.00, 0.00, -0.00, -1.00, 400.7, 202.4)">t</text><text xml:space="preserve" font-family="Helvetica-Light,Helvetica" font-size="39.0" fill="#52575F" transform="matrix(1.00, 0.00, -0.00, -1.00, 411.6, 202.4)">e</text><text xml:space="preserve" font-family="Helvetica-Light,Helvetica" font-size="39.0" fill="#52575F" transform="matrix(1.00, 0.00, -0.00, -1.00, 433.3, 202.4)">m</text><text xml:space="preserve" font-family="Helvetica-Light,Helvetica" font-size="39.0" fill="#52575F" transform="matrix(1.00, 0.00, -0.00, -1.00, 465.8, 202.4)">.</text></g></svg>