<?xml version="1.0" encoding="UTF-8" standalone="no"?><svg xmlns="http://www.w3.org/2000/svg" xmlns:xlink="http://www.w3.org/1999/xlink" clip-rule="evenodd" stroke-miterlimit="10" viewBox="0 0 1920 1080"><desc>SVG generated by Keynote</desc><defs></defs><g transform="matrix(1.00, 0.00, -0.00, -1.00, 0.0, 1080.0)"><path d="M 0.0 1080.0 L 1920.0 1080.0 L 1920.0 0.0 L 0.0 0.0 Z M 0.0 1080.0 " fill="#FEFFFF"></path><text xml:space="preserve" font-family="Helvetica-Light,Helvetica" font-size="112.0" fill="#000000" transform="matrix(1.00, 0.00, -0.00, -1.00, 791.9, 562.8)">C</text><text xml:space="preserve" font-family="Helvetica-Light,Helvetica" font-size="112.0" fill="#000000" transform="matrix(1.00, 0.00, -0.00, -1.00, 872.8, 562.8)">S</text><text xml:space="preserve" font-family="Helvetica-Light,Helvetica" font-size="112.0" fill="#000000" transform="matrix(1.00, 0.00, -0.00, -1.00, 941.2, 562.8)">1</text><text xml:space="preserve" font-family="Helvetica-Light,Helvetica" font-size="112.0" fill="#000000" transform="matrix(1.00, 0.00, -0.00, -1.00, 1003.5, 562.8)">8</text><text xml:space="preserve" font-family="Helvetica-Light,Helvetica" font-size="112.0" fill="#000000" transform="matrix(1.00, 0.00, -0.00, -1.00, 1065.8, 562.8)">6</text><text xml:space="preserve" font-family="Helvetica-Light,Helvetica" font-size="44.0" fill="#A6AAA8" transform="matrix(1.00, 0.00, -0.00, -1.00, 742.8, 475.6)">G</text><text xml:space="preserve" font-family="Helvetica-Light,Helvetica" font-size="44.0" fill="#A6AAA8" transform="matrix(1.00, 0.00, -0.00, -1.00, 777.0, 475.6)">S</text><text xml:space="preserve" font-family="Helvetica-Light,Helvetica" font-size="44.0" fill="#A6AAA8" transform="matrix(1.00, 0.00, -0.00, -1.00, 803.9, 475.6)">I</text><text xml:space="preserve" font-family="Helvetica-Light,Helvetica" font-size="44.0" fill="#A6AAA8" transform="matrix(1.00, 0.00, -0.00, -1.00, 816.1, 475.6)">:</text><text xml:space="preserve" font-family="Helvetica-Light,Helvetica" font-size="44.0" fill="#A6AAA8" transform="matrix(1.00, 0.00, -0.00, -1.00, 828.3, 475.6)"> </text><text xml:space="preserve" font-family="Helvetica-Light,Helvetica" font-size="44.0" fill="#A6AAA8" transform="matrix(1.00, 0.00, -0.00, -1.00, 840.6, 475.6)">A</text><text xml:space="preserve" font-family="Helvetica-Light,Helvetica" font-size="44.0" fill="#A6AAA8" transform="matrix(1.00, 0.00, -0.00, -1.00, 869.9, 475.6)">n</text><text xml:space="preserve" font-family="Helvetica-Light,Helvetica" font-size="44.0" fill="#A6AAA8" transform="matrix(1.00, 0.00, -0.00, -1.00, 894.4, 475.6)">t</text><text xml:space="preserve" font-family="Helvetica-Light,Helvetica" font-size="44.0" fill="#A6AAA8" transform="matrix(1.00, 0.00, -0.00, -1.00, 906.6, 475.6)">h</text><text xml:space="preserve" font-family="Helvetica-Light,Helvetica" font-size="44.0" fill="#A6AAA8" transform="matrix(1.00, 0.00, -0.00, -1.00, 931.1, 475.6)">o</text><text xml:space="preserve" font-family="Helvetica-Light,Helvetica" font-size="44.0" fill="#A6AAA8" transform="matrix(1.00, 0.00, -0.00, -1.00, 955.5, 475.6)">n</text><text xml:space="preserve" font-family="Helvetica-Light,Helvetica" font-size="44.0" fill="#A6AAA8" transform="matrix(1.00, 0.00, -0.00, -1.00, 980.0, 475.6)">y</text><text xml:space="preserve" font-family="Helvetica-Light,Helvetica" font-size="44.0" fill="#A6AAA8" transform="matrix(1.00, 0.00, -0.00, -1.00, 1002.0, 475.6)"> </text><text xml:space="preserve" font-family="Helvetica-Light,Helvetica" font-size="44.0" fill="#A6AAA8" transform="matrix(1.00, 0.00, -0.00, -1.00, 1014.2, 475.6)">S</text><text xml:space="preserve" font-family="Helvetica-Light,Helvetica" font-size="44.0" fill="#A6AAA8" transform="matrix(1.00, 0.00, -0.00, -1.00, 1041.1, 475.6)">u</text><text xml:space="preserve" font-family="Helvetica-Light,Helvetica" font-size="44.0" fill="#A6AAA8" transform="matrix(1.00, 0.00, -0.00, -1.00, 1065.6, 475.6)">t</text><text xml:space="preserve" font-family="Helvetica-Light,Helvetica" font-size="44.0" fill="#A6AAA8" transform="matrix(1.00, 0.00, -0.00, -1.00, 1077.8, 475.6)">a</text><text xml:space="preserve" font-family="Helvetica-Light,Helvetica" font-size="44.0" fill="#A6AAA8" transform="matrix(1.00, 0.00, -0.00, -1.00, 1102.3, 475.6)">r</text><text xml:space="preserve" font-family="Helvetica-Light,Helvetica" font-size="44.0" fill="#A6AAA8" transform="matrix(1.00, 0.00, -0.00, -1.00, 1116.1, 475.6)">d</text><text xml:space="preserve" font-family="Helvetica-Light,Helvetica" font-size="44.0" fill="#A6AAA8" transform="matrix(1.00, 0.00, -0.00, -1.00, 1143.0, 475.6)">j</text><text xml:space="preserve" font-family="Helvetica-Light,Helvetica" font-size="44.0" fill="#A6AAA8" transform="matrix(1.00, 0.00, -0.00, -1.00, 1152.8, 475.6)">a</text><text xml:space="preserve" font-family="Helvetica-Light,Helvetica" font-size="44.0" fill="#A6AAA8" transform="matrix(1.00, 0.00, -0.00, -1.00, 1177.2, 475.6)"> </text><text xml:space="preserve" font-family="Helvetica-Light,Helvetica" font-size="44.0" fill="#A6AAA8" transform="matrix(1.00, 0.00, -0.00, -1.00, 658.7, 422.6)">a</text><text xml:space="preserve" font-family="Helvetica-Light,Helvetica" font-size="44.0" fill="#A6AAA8" transform="matrix(1.00, 0.00, -0.00, -1.00, 683.2, 422.6)">n</text><text xml:space="preserve" font-family="Helvetica-Light,Helvetica" font-size="44.0" fill="#A6AAA8" transform="matrix(1.00, 0.00, -0.00, -1.00, 707.6, 422.6)">t</text><text xml:space="preserve" font-family="Helvetica-Light,Helvetica" font-size="44.0" fill="#A6AAA8" transform="matrix(1.00, 0.00, -0.00, -1.00, 719.9, 422.6)">h</text><text xml:space="preserve" font-family="Helvetica-Light,Helvetica" font-size="44.0" fill="#A6AAA8" transform="matrix(1.00, 0.00, -0.00, -1.00, 744.3, 422.6)">o</text><text xml:space="preserve" font-family="Helvetica-Light,Helvetica" font-size="44.0" fill="#A6AAA8" transform="matrix(1.00, 0.00, -0.00, -1.00, 768.8, 422.6)">n</text><text xml:space="preserve" font-family="Helvetica-Light,Helvetica" font-size="44.0" fill="#A6AAA8" transform="matrix(1.00, 0.00, -0.00, -1.00, 793.3, 422.6)">y</text><text xml:space="preserve" font-family="Helvetica-Light,Helvetica" font-size="44.0" fill="#A6AAA8" transform="matrix(1.00, 0.00, -0.00, -1.00, 815.3, 422.6)">s</text><text xml:space="preserve" font-family="Helvetica-Light,Helvetica" font-size="44.0" fill="#A6AAA8" transform="matrix(1.00, 0.00, -0.00, -1.00, 837.3, 422.6)">u</text><text xml:space="preserve" font-family="Helvetica-Light,Helvetica" font-size="44.0" fill="#A6AAA8" transform="matrix(1.00, 0.00, -0.00, -1.00, 861.7, 422.6)">t</text><text xml:space="preserve" font-family="Helvetica-Light,Helvetica" font-size="44.0" fill="#A6AAA8" transform="matrix(1.00, 0.00, -0.00, -1.00, 874.0, 422.6)">a</text><text xml:space="preserve" font-family="Helvetica-Light,Helvetica" font-size="44.0" fill="#A6AAA8" transform="matrix(1.00, 0.00, -0.00, -1.00, 898.4, 422.6)">r</text><text xml:space="preserve" font-family="Helvetica-Light,Helvetica" font-size="44.0" fill="#A6AAA8" transform="matrix(1.00, 0.00, -0.00, -1.00, 912.3, 422.6)">d</text><text xml:space="preserve" font-family="Helvetica-Light,Helvetica" font-size="44.0" fill="#A6AAA8" transform="matrix(1.00, 0.00, -0.00, -1.00, 939.2, 422.6)">j</text><text xml:space="preserve" font-family="Helvetica-Light,Helvetica" font-size="44.0" fill="#A6AAA8" transform="matrix(1.00, 0.00, -0.00, -1.00, 948.9, 422.6)">a</text><text xml:space="preserve" font-family="Helvetica-Light,Helvetica" font-size="44.0" fill="#A6AAA8" transform="matrix(1.00, 0.00, -0.00, -1.00, 973.4, 422.6)">@</text><text xml:space="preserve" font-family="Helvetica-Light,Helvetica" font-size="44.0" fill="#A6AAA8" transform="matrix(1.00, 0.00, -0.00, -1.00, 1008.6, 422.6)">b</text><text xml:space="preserve" font-family="Helvetica-Light,Helvetica" font-size="44.0" fill="#A6AAA8" transform="matrix(1.00, 0.00, -0.00, -1.00, 1035.5, 422.6)">e</text><text xml:space="preserve" font-family="Helvetica-Light,Helvetica" font-size="44.0" fill="#A6AAA8" transform="matrix(1.00, 0.00, -0.00, -1.00, 1059.9, 422.6)">r</text><text xml:space="preserve" font-family="Helvetica-Light,Helvetica" font-size="44.0" fill="#A6AAA8" transform="matrix(1.00, 0.00, -0.00, -1.00, 1074.6, 422.6)">k</text><text xml:space="preserve" font-family="Helvetica-Light,Helvetica" font-size="44.0" fill="#A6AAA8" transform="matrix(1.00, 0.00, -0.00, -1.00, 1096.6, 422.6)">e</text><text xml:space="preserve" font-family="Helvetica-Light,Helvetica" font-size="44.0" fill="#A6AAA8" transform="matrix(1.00, 0.00, -0.00, -1.00, 1121.1, 422.6)">l</text><text xml:space="preserve" font-family="Helvetica-Light,Helvetica" font-size="44.0" fill="#A6AAA8" transform="matrix(1.00, 0.00, -0.00, -1.00, 1130.8, 422.6)">e</text><text xml:space="preserve" font-family="Helvetica-Light,Helvetica" font-size="44.0" fill="#A6AAA8" transform="matrix(1.00, 0.00, -0.00, -1.00, 1155.3, 422.6)">y</text><text xml:space="preserve" font-family="Helvetica-Light,Helvetica" font-size="44.0" fill="#A6AAA8" transform="matrix(1.00, 0.00, -0.00, -1.00, 1173.2, 422.6)">.</text><text xml:space="preserve" font-family="Helvetica-Light,Helvetica" font-size="44.0" fill="#A6AAA8" transform="matrix(1.00, 0.00, -0.00, -1.00, 1185.5, 422.6)">e</text><text xml:space="preserve" font-family="Helvetica-Light,Helvetica" font-size="44.0" fill="#A6AAA8" transform="matrix(1.00, 0.00, -0.00, -1.00, 1209.9, 422.6)">d</text><text xml:space="preserve" font-family="Helvetica-Light,Helvetica" font-size="44.0" fill="#A6AAA8" transform="matrix(1.00, 0.00, -0.00, -1.00, 1236.8, 422.6)">u</text><g><clipPath id="clip0x600001ca7c80"><path d="M 657.7 417.2 L 1261.3 417.2 L 1261.3 421.4 L 657.7 421.4 Z M 657.7 417.2 "></path></clipPath><g clip-path="url(#clip0x600001ca7c80)"><path d="M 518.7 103.2 L 1121.3 103.2 " fill="none" stroke="#A6AAA8" stroke-width="2.20" transform="matrix(1.00, 0.00, 0.00, -1.00, 140.0, 522.5)"></path></g></g></g></svg>