<?xml version="1.0" encoding="UTF-8" standalone="no"?><svg xmlns="http://www.w3.org/2000/svg" xmlns:xlink="http://www.w3.org/1999/xlink" clip-rule="evenodd" stroke-miterlimit="10" viewBox="0 0 1920 1080"><desc>SVG generated by Keynote</desc><defs></defs><g transform="matrix(1.00, 0.00, -0.00, -1.00, 0.0, 1080.0)"><path d="M 0.0 1080.0 L 1920.0 1080.0 L 1920.0 0.0 L 0.0 0.0 Z M 0.0 1080.0 " fill="#FEFFFF"></path><image xlink:href="32909FC486DB59F43050A751D9B5B06A.png" width="231.00" height="74.00" transform="matrix(1.00, 0.00, -0.00, -1.00, 658.5, 651.7)" opacity="0.50"></image><path d="M 662.0 651.0 L 887.0 651.0 L 887.0 583.0 L 662.0 583.0 Z M 661.5 650.7 " fill="#F5D327"></path><g><clipPath id="clip0x7fd08721a220"><path d="M 657.4 582.7 L 890.6 582.7 L 890.6 650.7 L 657.4 650.7 Z M 657.4 582.7 "></path></clipPath><g clip-path="url(#clip0x7fd08721a220)"><text xml:space="preserve" font-family="Inconsolata,Inconsolata" font-size="32.0" fill="#FEFFFE" transform="matrix(1.00, 0.00, -0.00, -1.00, 686.0, 606.3)">P</text><text xml:space="preserve" font-family="Inconsolata,Inconsolata" font-size="32.0" fill="#FEFFFE" transform="matrix(1.00, 0.00, -0.00, -1.00, 702.0, 606.3)">a</text><text xml:space="preserve" font-family="Inconsolata,Inconsolata" font-size="32.0" fill="#FEFFFE" transform="matrix(1.00, 0.00, -0.00, -1.00, 718.0, 606.3)">r</text><text xml:space="preserve" font-family="Inconsolata,Inconsolata" font-size="32.0" fill="#FEFFFE" transform="matrix(1.00, 0.00, -0.00, -1.00, 734.0, 606.3)">t</text><text xml:space="preserve" font-family="Inconsolata,Inconsolata" font-size="32.0" fill="#FEFFFE" transform="matrix(1.00, 0.00, -0.00, -1.00, 750.0, 606.3)">i</text><text xml:space="preserve" font-family="Inconsolata,Inconsolata" font-size="32.0" fill="#FEFFFE" transform="matrix(1.00, 0.00, -0.00, -1.00, 766.0, 606.3)">t</text><text xml:space="preserve" font-family="Inconsolata,Inconsolata" font-size="32.0" fill="#FEFFFE" transform="matrix(1.00, 0.00, -0.00, -1.00, 782.0, 606.3)">i</text><text xml:space="preserve" font-family="Inconsolata,Inconsolata" font-size="32.0" fill="#FEFFFE" transform="matrix(1.00, 0.00, -0.00, -1.00, 798.0, 606.3)">o</text><text xml:space="preserve" font-family="Inconsolata,Inconsolata" font-size="32.0" fill="#FEFFFE" transform="matrix(1.00, 0.00, -0.00, -1.00, 814.0, 606.3)">n</text><text xml:space="preserve" font-family="Inconsolata,Inconsolata" font-size="32.0" fill="#FEFFFE" transform="matrix(1.00, 0.00, -0.00, -1.00, 830.0, 606.3)"> </text><text xml:space="preserve" font-family="Inconsolata,Inconsolata" font-size="32.0" fill="#FEFFFE" transform="matrix(1.00, 0.00, -0.00, -1.00, 846.0, 606.3)">k</text></g></g><text xml:space="preserve" font-family="Helvetica-Light,Helvetica" font-size="50.0" fill="#000000" transform="matrix(1.00, 0.00, -0.00, -1.00, 263.6, 598.2)">T</text><text xml:space="preserve" font-family="Helvetica-Light,Helvetica" font-size="50.0" fill="#000000" transform="matrix(1.00, 0.00, -0.00, -1.00, 291.4, 598.2)">h</text><text xml:space="preserve" font-family="Helvetica-Light,Helvetica" font-size="50.0" fill="#000000" transform="matrix(1.00, 0.00, -0.00, -1.00, 319.2, 598.2)">a</text><text xml:space="preserve" font-family="Helvetica-Light,Helvetica" font-size="50.0" fill="#000000" transform="matrix(1.00, 0.00, -0.00, -1.00, 347.0, 598.2)">t</text><text xml:space="preserve" font-family="Helvetica-Light,Helvetica" font-size="50.0" fill="#000000" transform="matrix(1.00, 0.00, -0.00, -1.00, 360.9, 598.2)">’</text><text xml:space="preserve" font-family="Helvetica-Light,Helvetica" font-size="50.0" fill="#000000" transform="matrix(1.00, 0.00, -0.00, -1.00, 368.3, 598.2)">s</text><text xml:space="preserve" font-family="Helvetica-Light,Helvetica" font-size="50.0" fill="#000000" transform="matrix(1.00, 0.00, -0.00, -1.00, 393.3, 598.2)"> </text><text xml:space="preserve" font-family="Helvetica-Light,Helvetica" font-size="50.0" fill="#000000" transform="matrix(1.00, 0.00, -0.00, -1.00, 407.2, 598.2)">a</text><text xml:space="preserve" font-family="Helvetica-Light,Helvetica" font-size="50.0" fill="#000000" transform="matrix(1.00, 0.00, -0.00, -1.00, 435.0, 598.2)">s</text><text xml:space="preserve" font-family="Helvetica-Light,Helvetica" font-size="50.0" fill="#000000" transform="matrix(1.00, 0.00, -0.00, -1.00, 460.0, 598.2)">s</text><text xml:space="preserve" font-family="Helvetica-Light,Helvetica" font-size="50.0" fill="#000000" transform="matrix(1.00, 0.00, -0.00, -1.00, 485.0, 598.2)">u</text><text xml:space="preserve" font-family="Helvetica-Light,Helvetica" font-size="50.0" fill="#000000" transform="matrix(1.00, 0.00, -0.00, -1.00, 512.8, 598.2)">m</text><text xml:space="preserve" font-family="Helvetica-Light,Helvetica" font-size="50.0" fill="#000000" transform="matrix(1.00, 0.00, -0.00, -1.00, 554.4, 598.2)">i</text><text xml:space="preserve" font-family="Helvetica-Light,Helvetica" font-size="50.0" fill="#000000" transform="matrix(1.00, 0.00, -0.00, -1.00, 565.5, 598.2)">n</text><text xml:space="preserve" font-family="Helvetica-Light,Helvetica" font-size="50.0" fill="#000000" transform="matrix(1.00, 0.00, -0.00, -1.00, 593.3, 598.2)">g</text><text xml:space="preserve" font-family="Helvetica-Light,Helvetica" font-size="50.0" fill="#000000" transform="matrix(1.00, 0.00, -0.00, -1.00, 941.8, 598.2)">h</text><text xml:space="preserve" font-family="Helvetica-Light,Helvetica" font-size="50.0" fill="#000000" transform="matrix(1.00, 0.00, -0.00, -1.00, 969.6, 598.2)">a</text><text xml:space="preserve" font-family="Helvetica-Light,Helvetica" font-size="50.0" fill="#000000" transform="matrix(1.00, 0.00, -0.00, -1.00, 997.4, 598.2)">s</text><text xml:space="preserve" font-family="Helvetica-Light,Helvetica" font-size="50.0" fill="#000000" transform="matrix(1.00, 0.00, -0.00, -1.00, 1022.4, 598.2)"> </text><text xml:space="preserve" font-family="Helvetica-Light,Helvetica" font-size="50.0" fill="#000000" transform="matrix(1.00, 0.00, -0.00, -1.00, 1036.3, 598.2)">a</text><text xml:space="preserve" font-family="Helvetica-Light,Helvetica" font-size="50.0" fill="#000000" transform="matrix(1.00, 0.00, -0.00, -1.00, 1064.1, 598.2)">t</text><text xml:space="preserve" font-family="Helvetica-Light,Helvetica" font-size="50.0" fill="#000000" transform="matrix(1.00, 0.00, -0.00, -1.00, 1078.0, 598.2)"> </text><text xml:space="preserve" font-family="Helvetica-Light,Helvetica" font-size="50.0" fill="#000000" transform="matrix(1.00, 0.00, -0.00, -1.00, 1091.9, 598.2)">m</text><text xml:space="preserve" font-family="Helvetica-Light,Helvetica" font-size="50.0" fill="#000000" transform="matrix(1.00, 0.00, -0.00, -1.00, 1133.6, 598.2)">o</text><text xml:space="preserve" font-family="Helvetica-Light,Helvetica" font-size="50.0" fill="#000000" transform="matrix(1.00, 0.00, -0.00, -1.00, 1161.4, 598.2)">s</text><text xml:space="preserve" font-family="Helvetica-Light,Helvetica" font-size="50.0" fill="#000000" transform="matrix(1.00, 0.00, -0.00, -1.00, 1186.4, 598.2)">t</text><text xml:space="preserve" font-family="Helvetica-Light,Helvetica" font-size="50.0" fill="#000000" transform="matrix(1.00, 0.00, -0.00, -1.00, 1200.3, 598.2)"> </text><text xml:space="preserve" font-family="Helvetica-Light,Helvetica" font-size="50.0" fill="#0264C0" transform="matrix(1.00, 0.00, -0.00, -1.00, 1214.2, 598.2)">B</text><text xml:space="preserve" font-family="Helvetica-Light,Helvetica" font-size="50.0" fill="#000000" transform="matrix(1.00, 0.00, -0.00, -1.00, 1247.5, 598.2)"> </text><text xml:space="preserve" font-family="Helvetica-Light,Helvetica" font-size="50.0" fill="#000000" transform="matrix(1.00, 0.00, -0.00, -1.00, 1261.4, 598.2)">p</text><text xml:space="preserve" font-family="Helvetica-Light,Helvetica" font-size="50.0" fill="#000000" transform="matrix(1.00, 0.00, -0.00, -1.00, 1292.0, 598.2)">a</text><text xml:space="preserve" font-family="Helvetica-Light,Helvetica" font-size="50.0" fill="#000000" transform="matrix(1.00, 0.00, -0.00, -1.00, 1319.8, 598.2)">g</text><text xml:space="preserve" font-family="Helvetica-Light,Helvetica" font-size="50.0" fill="#000000" transform="matrix(1.00, 0.00, -0.00, -1.00, 1350.3, 598.2)">e</text><text xml:space="preserve" font-family="Helvetica-Light,Helvetica" font-size="50.0" fill="#000000" transform="matrix(1.00, 0.00, -0.00, -1.00, 1378.1, 598.2)">s</text><text xml:space="preserve" font-family="Helvetica-Light,Helvetica" font-size="50.0" fill="#000000" transform="matrix(1.00, 0.00, -0.00, -1.00, 1403.1, 598.2)">…</text><text xml:space="preserve" font-family="Helvetica-Light,Helvetica" font-size="70.0" fill="#000000" transform="matrix(1.00, 0.00, -0.00, -1.00, 360.2, 413.8)">.</text><text xml:space="preserve" font-family="Helvetica-Light,Helvetica" font-size="70.0" fill="#000000" transform="matrix(1.00, 0.00, -0.00, -1.00, 379.7, 413.8)">.</text><text xml:space="preserve" font-family="Helvetica-Light,Helvetica" font-size="70.0" fill="#000000" transform="matrix(1.00, 0.00, -0.00, -1.00, 399.1, 413.8)"> </text><text xml:space="preserve" font-family="Helvetica-Light,Helvetica" font-size="70.0" fill="#000000" transform="matrix(1.00, 0.00, -0.00, -1.00, 418.6, 413.8)">b</text><text xml:space="preserve" font-family="Helvetica-Light,Helvetica" font-size="70.0" fill="#000000" transform="matrix(1.00, 0.00, -0.00, -1.00, 461.4, 413.8)">u</text><text xml:space="preserve" font-family="Helvetica-Light,Helvetica" font-size="70.0" fill="#000000" transform="matrix(1.00, 0.00, -0.00, -1.00, 500.3, 413.8)">t</text><text xml:space="preserve" font-family="Helvetica-Light,Helvetica" font-size="70.0" fill="#000000" transform="matrix(1.00, 0.00, -0.00, -1.00, 519.7, 413.8)"> </text><text xml:space="preserve" font-family="Helvetica-Light,Helvetica" font-size="70.0" fill="#000000" transform="matrix(1.00, 0.00, -0.00, -1.00, 539.2, 413.8)">w</text><text xml:space="preserve" font-family="Helvetica-Light,Helvetica" font-size="70.0" fill="#000000" transform="matrix(1.00, 0.00, -0.00, -1.00, 589.7, 413.8)">h</text><text xml:space="preserve" font-family="Helvetica-Light,Helvetica" font-size="70.0" fill="#000000" transform="matrix(1.00, 0.00, -0.00, -1.00, 628.7, 413.8)">a</text><text xml:space="preserve" font-family="Helvetica-Light,Helvetica" font-size="70.0" fill="#000000" transform="matrix(1.00, 0.00, -0.00, -1.00, 667.6, 413.8)">t</text><text xml:space="preserve" font-family="Helvetica-Light,Helvetica" font-size="70.0" fill="#000000" transform="matrix(1.00, 0.00, -0.00, -1.00, 687.0, 413.8)"> </text><text xml:space="preserve" font-family="Helvetica-Light,Helvetica" font-size="70.0" fill="#000000" transform="matrix(1.00, 0.00, -0.00, -1.00, 706.5, 413.8)">i</text><text xml:space="preserve" font-family="Helvetica-Light,Helvetica" font-size="70.0" fill="#000000" transform="matrix(1.00, 0.00, -0.00, -1.00, 722.0, 413.8)">f</text><text xml:space="preserve" font-family="Helvetica-Light,Helvetica" font-size="70.0" fill="#000000" transform="matrix(1.00, 0.00, -0.00, -1.00, 741.5, 413.8)"> </text><text xml:space="preserve" font-family="Helvetica-Light,Helvetica" font-size="70.0" fill="#000000" transform="matrix(1.00, 0.00, -0.00, -1.00, 761.0, 413.8)">i</text><text xml:space="preserve" font-family="Helvetica-Light,Helvetica" font-size="70.0" fill="#000000" transform="matrix(1.00, 0.00, -0.00, -1.00, 776.5, 413.8)">t</text><text xml:space="preserve" font-family="Helvetica-Light,Helvetica" font-size="70.0" fill="#000000" transform="matrix(1.00, 0.00, -0.00, -1.00, 796.0, 413.8)">’</text><text xml:space="preserve" font-family="Helvetica-Light,Helvetica" font-size="70.0" fill="#000000" transform="matrix(1.00, 0.00, -0.00, -1.00, 806.3, 413.8)">s</text><text xml:space="preserve" font-family="Helvetica-Light,Helvetica" font-size="70.0" fill="#000000" transform="matrix(1.00, 0.00, -0.00, -1.00, 841.3, 413.8)"> </text><text xml:space="preserve" font-family="Helvetica-Light,Helvetica" font-size="70.0" fill="#000000" transform="matrix(1.00, 0.00, -0.00, -1.00, 860.8, 413.8)">g</text><text xml:space="preserve" font-family="Helvetica-Light,Helvetica" font-size="70.0" fill="#000000" transform="matrix(1.00, 0.00, -0.00, -1.00, 903.5, 413.8)">r</text><text xml:space="preserve" font-family="Helvetica-Light,Helvetica" font-size="70.0" fill="#000000" transform="matrix(1.00, 0.00, -0.00, -1.00, 925.6, 413.8)">e</text><text xml:space="preserve" font-family="Helvetica-Light,Helvetica" font-size="70.0" fill="#000000" transform="matrix(1.00, 0.00, -0.00, -1.00, 964.5, 413.8)">a</text><text xml:space="preserve" font-family="Helvetica-Light,Helvetica" font-size="70.0" fill="#000000" transform="matrix(1.00, 0.00, -0.00, -1.00, 1003.4, 413.8)">t</text><text xml:space="preserve" font-family="Helvetica-Light,Helvetica" font-size="70.0" fill="#000000" transform="matrix(1.00, 0.00, -0.00, -1.00, 1022.9, 413.8)">e</text><text xml:space="preserve" font-family="Helvetica-Light,Helvetica" font-size="70.0" fill="#000000" transform="matrix(1.00, 0.00, -0.00, -1.00, 1061.8, 413.8)">r</text><text xml:space="preserve" font-family="Helvetica-Light,Helvetica" font-size="70.0" fill="#000000" transform="matrix(1.00, 0.00, -0.00, -1.00, 1085.1, 413.8)"> </text><text xml:space="preserve" font-family="Helvetica-Light,Helvetica" font-size="70.0" fill="#000000" transform="matrix(1.00, 0.00, -0.00, -1.00, 1104.6, 413.8)">t</text><text xml:space="preserve" font-family="Helvetica-Light,Helvetica" font-size="70.0" fill="#000000" transform="matrix(1.00, 0.00, -0.00, -1.00, 1124.0, 413.8)">h</text><text xml:space="preserve" font-family="Helvetica-Light,Helvetica" font-size="70.0" fill="#000000" transform="matrix(1.00, 0.00, -0.00, -1.00, 1163.0, 413.8)">a</text><text xml:space="preserve" font-family="Helvetica-Light,Helvetica" font-size="70.0" fill="#000000" transform="matrix(1.00, 0.00, -0.00, -1.00, 1201.9, 413.8)">n</text><text xml:space="preserve" font-family="Helvetica-Light,Helvetica" font-size="70.0" fill="#000000" transform="matrix(1.00, 0.00, -0.00, -1.00, 1240.8, 413.8)"> </text><text xml:space="preserve" font-family="Helvetica-Light,Helvetica" font-size="70.0" fill="#0264C0" transform="matrix(1.00, 0.00, -0.00, -1.00, 1260.3, 413.8)">B</text><text xml:space="preserve" font-family="Helvetica-Light,Helvetica" font-size="70.0" fill="#000000" transform="matrix(1.00, 0.00, -0.00, -1.00, 1307.0, 413.8)"> </text><text xml:space="preserve" font-family="Helvetica-Light,Helvetica" font-size="70.0" fill="#000000" transform="matrix(1.00, 0.00, -0.00, -1.00, 1326.4, 413.8)">p</text><text xml:space="preserve" font-family="Helvetica-Light,Helvetica" font-size="70.0" fill="#000000" transform="matrix(1.00, 0.00, -0.00, -1.00, 1369.2, 413.8)">a</text><text xml:space="preserve" font-family="Helvetica-Light,Helvetica" font-size="70.0" fill="#000000" transform="matrix(1.00, 0.00, -0.00, -1.00, 1408.1, 413.8)">g</text><text xml:space="preserve" font-family="Helvetica-Light,Helvetica" font-size="70.0" fill="#000000" transform="matrix(1.00, 0.00, -0.00, -1.00, 1450.9, 413.8)">e</text><text xml:space="preserve" font-family="Helvetica-Light,Helvetica" font-size="70.0" fill="#000000" transform="matrix(1.00, 0.00, -0.00, -1.00, 1489.8, 413.8)">s</text><text xml:space="preserve" font-family="Helvetica-Light,Helvetica" font-size="70.0" fill="#000000" transform="matrix(1.00, 0.00, -0.00, -1.00, 1524.8, 413.8)">?</text></g></svg>