<?xml version="1.0" encoding="UTF-8" standalone="no"?><svg xmlns="http://www.w3.org/2000/svg" xmlns:xlink="http://www.w3.org/1999/xlink" clip-rule="evenodd" stroke-miterlimit="10" viewBox="0 0 1920 1080"><desc>SVG generated by Keynote</desc><defs></defs><g transform="matrix(1.00, 0.00, -0.00, -1.00, 0.0, 1080.0)"><path d="M 0.0 1080.0 L 1920.0 1080.0 L 1920.0 0.0 L 0.0 0.0 Z M 0.0 1080.0 " fill="#FEFFFE"></path><g opacity="0.14"><g><clipPath id="clip0x7fd0855c28b0"><path d="M 40.0 218.0 L 571.0 218.0 L 571.0 785.0 L 40.0 785.0 Z M 40.0 218.0 "></path></clipPath><g clip-path="url(#clip0x7fd0855c28b0)"><path d="M 41.5 358.4 L 42.0 644.6 C 42.0 721.3 103.7 783.0 180.4 783.0 L 430.2 783.0 C 506.9 783.0 569.0 721.3 569.0 644.6 L 569.0 358.4 C 569.0 281.8 506.9 220.0 430.2 220.0 L 180.4 220.0 C 103.7 220.0 41.5 281.8 41.5 358.4 Z M 41.5 358.4 " fill="#F5D327"></path></g></g></g><g opacity="0.10"><g><clipPath id="clip0x7fd0855bf4c0"><path d="M 711.0 197.0 L 1895.0 197.0 L 1895.0 785.0 L 711.0 785.0 Z M 711.0 197.0 "></path></clipPath><g clip-path="url(#clip0x7fd0855bf4c0)"><path d="M 712.8 337.2 L 713.0 644.6 C 713.0 721.3 774.9 783.0 851.6 783.0 L 1754.3 783.0 C 1830.9 783.0 1893.0 721.3 1893.0 644.6 L 1893.0 337.2 C 1893.0 260.6 1830.9 198.0 1754.3 198.0 L 851.6 198.0 C 774.9 198.0 712.8 260.6 712.8 337.2 Z M 712.8 337.2 " fill="#51A7F9"></path></g></g></g><image xlink:href="../../A9F2197D-EA01-46FD-989A-C34C7321C18A/assets/0883032A0C268E010C9FFC71111DFFB1.png" width="806.00" height="477.00" transform="matrix(1.00, 0.00, -0.00, -1.00, 973.0, 727.4)" opacity="0.50"></image><path d="M 976.0 301.1 L 976.0 680.8 C 976.0 706.0 996.5 726.0 1021.7 726.0 L 1730.3 726.0 C 1755.5 726.0 1776.0 706.0 1776.0 680.8 L 1776.0 301.1 C 1776.0 275.9 1755.5 255.0 1730.3 255.0 L 1021.7 255.0 C 996.5 255.0 976.0 275.9 976.0 301.1 Z M 976.0 301.1 " fill="#51A7F9"></path><text xml:space="preserve" font-family="Helvetica-Light,Helvetica" font-size="112.0" fill="#000000" transform="matrix(1.00, 0.00, -0.00, -1.00, 293.0, 873.8)">E</text><text xml:space="preserve" font-family="Helvetica-Light,Helvetica" font-size="112.0" fill="#000000" transform="matrix(1.00, 0.00, -0.00, -1.00, 361.4, 873.8)">x</text><text xml:space="preserve" font-family="Helvetica-Light,Helvetica" font-size="112.0" fill="#000000" transform="matrix(1.00, 0.00, -0.00, -1.00, 417.4, 873.8)">t</text><text xml:space="preserve" font-family="Helvetica-Light,Helvetica" font-size="112.0" fill="#000000" transform="matrix(1.00, 0.00, -0.00, -1.00, 448.6, 873.8)">e</text><text xml:space="preserve" font-family="Helvetica-Light,Helvetica" font-size="112.0" fill="#000000" transform="matrix(1.00, 0.00, -0.00, -1.00, 510.8, 873.8)">r</text><text xml:space="preserve" font-family="Helvetica-Light,Helvetica" font-size="112.0" fill="#000000" transform="matrix(1.00, 0.00, -0.00, -1.00, 550.1, 873.8)">n</text><text xml:space="preserve" font-family="Helvetica-Light,Helvetica" font-size="112.0" fill="#000000" transform="matrix(1.00, 0.00, -0.00, -1.00, 612.4, 873.8)">a</text><text xml:space="preserve" font-family="Helvetica-Light,Helvetica" font-size="112.0" fill="#000000" transform="matrix(1.00, 0.00, -0.00, -1.00, 674.7, 873.8)">l</text><text xml:space="preserve" font-family="Helvetica-Light,Helvetica" font-size="112.0" fill="#000000" transform="matrix(1.00, 0.00, -0.00, -1.00, 699.5, 873.8)"> </text><text xml:space="preserve" font-family="Helvetica-Light,Helvetica" font-size="112.0" fill="#000000" transform="matrix(1.00, 0.00, -0.00, -1.00, 730.7, 873.8)">h</text><text xml:space="preserve" font-family="Helvetica-Light,Helvetica" font-size="112.0" fill="#000000" transform="matrix(1.00, 0.00, -0.00, -1.00, 793.0, 873.8)">a</text><text xml:space="preserve" font-family="Helvetica-Light,Helvetica" font-size="112.0" fill="#000000" transform="matrix(1.00, 0.00, -0.00, -1.00, 855.2, 873.8)">s</text><text xml:space="preserve" font-family="Helvetica-Light,Helvetica" font-size="112.0" fill="#000000" transform="matrix(1.00, 0.00, -0.00, -1.00, 911.2, 873.8)">h</text><text xml:space="preserve" font-family="Helvetica-Light,Helvetica" font-size="112.0" fill="#000000" transform="matrix(1.00, 0.00, -0.00, -1.00, 973.5, 873.8)">i</text><text xml:space="preserve" font-family="Helvetica-Light,Helvetica" font-size="112.0" fill="#000000" transform="matrix(1.00, 0.00, -0.00, -1.00, 998.4, 873.8)">n</text><text xml:space="preserve" font-family="Helvetica-Light,Helvetica" font-size="112.0" fill="#000000" transform="matrix(1.00, 0.00, -0.00, -1.00, 1060.6, 873.8)">g</text><text xml:space="preserve" font-family="Helvetica-Light,Helvetica" font-size="112.0" fill="#000000" transform="matrix(1.00, 0.00, -0.00, -1.00, 1129.1, 873.8)">:</text><text xml:space="preserve" font-family="Helvetica-Light,Helvetica" font-size="112.0" fill="#000000" transform="matrix(1.00, 0.00, -0.00, -1.00, 1160.2, 873.8)"> </text><text xml:space="preserve" font-family="Helvetica-Light,Helvetica" font-size="112.0" fill="#000000" transform="matrix(1.00, 0.00, -0.00, -1.00, 1191.3, 873.8)">C</text><text xml:space="preserve" font-family="Helvetica-Light,Helvetica" font-size="112.0" fill="#000000" transform="matrix(1.00, 0.00, -0.00, -1.00, 1272.2, 873.8)">o</text><text xml:space="preserve" font-family="Helvetica-Light,Helvetica" font-size="112.0" fill="#000000" transform="matrix(1.00, 0.00, -0.00, -1.00, 1334.5, 873.8)">n</text><text xml:space="preserve" font-family="Helvetica-Light,Helvetica" font-size="112.0" fill="#000000" transform="matrix(1.00, 0.00, -0.00, -1.00, 1396.7, 873.8)">q</text><text xml:space="preserve" font-family="Helvetica-Light,Helvetica" font-size="112.0" fill="#000000" transform="matrix(1.00, 0.00, -0.00, -1.00, 1465.2, 873.8)">u</text><text xml:space="preserve" font-family="Helvetica-Light,Helvetica" font-size="112.0" fill="#000000" transform="matrix(1.00, 0.00, -0.00, -1.00, 1527.4, 873.8)">e</text><text xml:space="preserve" font-family="Helvetica-Light,Helvetica" font-size="112.0" fill="#000000" transform="matrix(1.00, 0.00, -0.00, -1.00, 1589.7, 873.8)">r</text><image xlink:href="../../A9F2197D-EA01-46FD-989A-C34C7321C18A/assets/4692FA2A8A2A82CFB40E8610D60D3818.png" width="190.00" height="74.00" transform="matrix(1.00, 0.00, -0.00, -1.00, 1558.8, 357.1)" opacity="0.50"></image><path d="M 1562.0 356.0 L 1746.0 356.0 L 1746.0 288.0 L 1562.0 288.0 Z M 1561.8 356.1 " fill="#002451"></path><g><clipPath id="clip0x7fd0870c1360"><path d="M 1557.7 288.1 L 1750.2 288.1 L 1750.2 356.1 L 1557.7 356.1 Z M 1557.7 288.1 "></path></clipPath><g clip-path="url(#clip0x7fd0870c1360)"><text xml:space="preserve" font-family="Inconsolata,Inconsolata" font-size="32.0" fill="#FEFFFE" transform="matrix(1.00, 0.00, -0.00, -1.00, 1597.9, 311.6)">I</text><text xml:space="preserve" font-family="Inconsolata,Inconsolata" font-size="32.0" fill="#FEFFFE" transform="matrix(1.00, 0.00, -0.00, -1.00, 1613.9, 311.6)">n</text><text xml:space="preserve" font-family="Inconsolata,Inconsolata" font-size="32.0" fill="#FEFFFE" transform="matrix(1.00, 0.00, -0.00, -1.00, 1629.9, 311.6)">p</text><text xml:space="preserve" font-family="Inconsolata,Inconsolata" font-size="32.0" fill="#FEFFFE" transform="matrix(1.00, 0.00, -0.00, -1.00, 1645.9, 311.6)">u</text><text xml:space="preserve" font-family="Inconsolata,Inconsolata" font-size="32.0" fill="#FEFFFE" transform="matrix(1.00, 0.00, -0.00, -1.00, 1661.9, 311.6)">t</text><text xml:space="preserve" font-family="Inconsolata,Inconsolata" font-size="32.0" fill="#FEFFFE" transform="matrix(1.00, 0.00, -0.00, -1.00, 1677.9, 311.6)"> </text><text xml:space="preserve" font-family="Inconsolata,Inconsolata" font-size="32.0" fill="#FEFFFE" transform="matrix(1.00, 0.00, -0.00, -1.00, 1693.9, 311.6)">B</text></g></g><text xml:space="preserve" font-family="Helvetica-Light,Helvetica" font-size="50.0" fill="#000000" transform="matrix(1.00, 0.00, -0.00, -1.00, 770.0, 456.6)">R</text><text xml:space="preserve" font-family="Helvetica-Light,Helvetica" font-size="50.0" fill="#000000" transform="matrix(1.00, 0.00, -0.00, -1.00, 803.4, 456.6)">e</text><text xml:space="preserve" font-family="Helvetica-Light,Helvetica" font-size="50.0" fill="#000000" transform="matrix(1.00, 0.00, -0.00, -1.00, 831.2, 456.6)">h</text><text xml:space="preserve" font-family="Helvetica-Light,Helvetica" font-size="50.0" fill="#000000" transform="matrix(1.00, 0.00, -0.00, -1.00, 859.0, 456.6)">a</text><text xml:space="preserve" font-family="Helvetica-Light,Helvetica" font-size="50.0" fill="#000000" transform="matrix(1.00, 0.00, -0.00, -1.00, 886.8, 456.6)">s</text><text xml:space="preserve" font-family="Helvetica-Light,Helvetica" font-size="50.0" fill="#000000" transform="matrix(1.00, 0.00, -0.00, -1.00, 911.8, 456.6)">h</text><text xml:space="preserve" font-family="Helvetica-Light,Helvetica" font-size="50.0" fill="#0264C0" transform="matrix(1.00, 0.00, -0.00, -1.00, 1080.1, 104.3)">B</text><text xml:space="preserve" font-family="Helvetica-Light,Helvetica" font-size="50.0" fill="#0264C0" transform="matrix(1.00, 0.00, -0.00, -1.00, 1113.5, 104.3)">u</text><text xml:space="preserve" font-family="Helvetica-Light,Helvetica" font-size="50.0" fill="#0264C0" transform="matrix(1.00, 0.00, -0.00, -1.00, 1141.3, 104.3)">f</text><text xml:space="preserve" font-family="Helvetica-Light,Helvetica" font-size="50.0" fill="#0264C0" transform="matrix(1.00, 0.00, -0.00, -1.00, 1154.3, 104.3)">f</text><text xml:space="preserve" font-family="Helvetica-Light,Helvetica" font-size="50.0" fill="#0264C0" transform="matrix(1.00, 0.00, -0.00, -1.00, 1168.2, 104.3)">e</text><text xml:space="preserve" font-family="Helvetica-Light,Helvetica" font-size="50.0" fill="#0264C0" transform="matrix(1.00, 0.00, -0.00, -1.00, 1196.0, 104.3)">r</text><text xml:space="preserve" font-family="Helvetica-Light,Helvetica" font-size="50.0" fill="#0264C0" transform="matrix(1.00, 0.00, -0.00, -1.00, 1212.6, 104.3)"> </text><text xml:space="preserve" font-family="Helvetica-Light,Helvetica" font-size="50.0" fill="#0264C0" transform="matrix(1.00, 0.00, -0.00, -1.00, 1226.5, 104.3)">o</text><text xml:space="preserve" font-family="Helvetica-Light,Helvetica" font-size="50.0" fill="#0264C0" transform="matrix(1.00, 0.00, -0.00, -1.00, 1254.3, 104.3)">f</text><text xml:space="preserve" font-family="Helvetica-Light,Helvetica" font-size="50.0" fill="#0264C0" transform="matrix(1.00, 0.00, -0.00, -1.00, 1268.2, 104.3)"> </text><text xml:space="preserve" font-family="Helvetica-Light,Helvetica" font-size="50.0" fill="#0264C0" transform="matrix(1.00, 0.00, -0.00, -1.00, 1282.1, 104.3)">s</text><text xml:space="preserve" font-family="Helvetica-Light,Helvetica" font-size="50.0" fill="#0264C0" transform="matrix(1.00, 0.00, -0.00, -1.00, 1307.1, 104.3)">i</text><text xml:space="preserve" font-family="Helvetica-Light,Helvetica" font-size="50.0" fill="#0264C0" transform="matrix(1.00, 0.00, -0.00, -1.00, 1318.2, 104.3)">z</text><text xml:space="preserve" font-family="Helvetica-Light,Helvetica" font-size="50.0" fill="#0264C0" transform="matrix(1.00, 0.00, -0.00, -1.00, 1343.2, 104.3)">e</text><text xml:space="preserve" font-family="Helvetica-Light,Helvetica" font-size="50.0" fill="#0264C0" transform="matrix(1.00, 0.00, -0.00, -1.00, 1371.0, 104.3)"> </text><text xml:space="preserve" font-family="Helvetica-Light,Helvetica" font-size="50.0" fill="#0264C0" transform="matrix(1.00, 0.00, -0.00, -1.00, 1384.9, 104.3)">B</text><text xml:space="preserve" font-family="Helvetica-Light,Helvetica" font-size="50.0" fill="#0264C0" transform="matrix(1.00, 0.00, -0.00, -1.00, 1418.3, 104.3)"> </text><text xml:space="preserve" font-family="Helvetica-Light,Helvetica" font-size="50.0" fill="#0264C0" transform="matrix(1.00, 0.00, -0.00, -1.00, 1432.2, 104.3)">p</text><text xml:space="preserve" font-family="Helvetica-Light,Helvetica" font-size="50.0" fill="#0264C0" transform="matrix(1.00, 0.00, -0.00, -1.00, 1462.7, 104.3)">a</text><text xml:space="preserve" font-family="Helvetica-Light,Helvetica" font-size="50.0" fill="#0264C0" transform="matrix(1.00, 0.00, -0.00, -1.00, 1490.5, 104.3)">g</text><text xml:space="preserve" font-family="Helvetica-Light,Helvetica" font-size="50.0" fill="#0264C0" transform="matrix(1.00, 0.00, -0.00, -1.00, 1521.1, 104.3)">e</text><text xml:space="preserve" font-family="Helvetica-Light,Helvetica" font-size="50.0" fill="#0264C0" transform="matrix(1.00, 0.00, -0.00, -1.00, 1548.9, 104.3)">s</text><text xml:space="preserve" font-family="Helvetica-Light,Helvetica" font-size="50.0" fill="#000000" transform="matrix(1.00, 0.00, -0.00, -1.00, 256.7, 104.7)">D</text><text xml:space="preserve" font-family="Helvetica-Light,Helvetica" font-size="50.0" fill="#000000" transform="matrix(1.00, 0.00, -0.00, -1.00, 292.8, 104.7)">i</text><text xml:space="preserve" font-family="Helvetica-Light,Helvetica" font-size="50.0" fill="#000000" transform="matrix(1.00, 0.00, -0.00, -1.00, 303.9, 104.7)">s</text><text xml:space="preserve" font-family="Helvetica-Light,Helvetica" font-size="50.0" fill="#000000" transform="matrix(1.00, 0.00, -0.00, -1.00, 328.9, 104.7)">k</text><image xlink:href="../../A9F2197D-EA01-46FD-989A-C34C7321C18A/assets/4692FA2A8A2A82CFB40E8610D60D3818.png" width="190.00" height="74.00" transform="matrix(1.00, 0.00, -0.00, -1.00, 1558.8, 509.1)" opacity="0.50"></image><path d="M 1562.0 508.0 L 1746.0 508.0 L 1746.0 440.0 L 1562.0 440.0 Z M 1561.8 508.1 " fill="#002451"></path><g><clipPath id="clip0x7fd0870e9e50"><path d="M 1557.7 440.1 L 1750.2 440.1 L 1750.2 508.1 L 1557.7 508.1 Z M 1557.7 440.1 "></path></clipPath><g clip-path="url(#clip0x7fd0870e9e50)"><text xml:space="preserve" font-family="Inconsolata,Inconsolata" font-size="32.0" fill="#FEFFFE" transform="matrix(1.00, 0.00, -0.00, -1.00, 1597.9, 463.6)">I</text><text xml:space="preserve" font-family="Inconsolata,Inconsolata" font-size="32.0" fill="#FEFFFE" transform="matrix(1.00, 0.00, -0.00, -1.00, 1613.9, 463.6)">n</text><text xml:space="preserve" font-family="Inconsolata,Inconsolata" font-size="32.0" fill="#FEFFFE" transform="matrix(1.00, 0.00, -0.00, -1.00, 1629.9, 463.6)">p</text><text xml:space="preserve" font-family="Inconsolata,Inconsolata" font-size="32.0" fill="#FEFFFE" transform="matrix(1.00, 0.00, -0.00, -1.00, 1645.9, 463.6)">u</text><text xml:space="preserve" font-family="Inconsolata,Inconsolata" font-size="32.0" fill="#FEFFFE" transform="matrix(1.00, 0.00, -0.00, -1.00, 1661.9, 463.6)">t</text><text xml:space="preserve" font-family="Inconsolata,Inconsolata" font-size="32.0" fill="#FEFFFE" transform="matrix(1.00, 0.00, -0.00, -1.00, 1677.9, 463.6)"> </text><text xml:space="preserve" font-family="Inconsolata,Inconsolata" font-size="32.0" fill="#FEFFFE" transform="matrix(1.00, 0.00, -0.00, -1.00, 1693.9, 463.6)">9</text></g></g><image xlink:href="../../A9F2197D-EA01-46FD-989A-C34C7321C18A/assets/4692FA2A8A2A82CFB40E8610D60D3818.png" width="190.00" height="74.00" transform="matrix(1.00, 0.00, -0.00, -1.00, 1558.8, 693.1)" opacity="0.50"></image><path d="M 1562.0 692.0 L 1746.0 692.0 L 1746.0 624.0 L 1562.0 624.0 Z M 1561.8 692.1 " fill="#002451"></path><g><clipPath id="clip0x7fd087120be0"><path d="M 1557.7 624.1 L 1750.2 624.1 L 1750.2 692.1 L 1557.7 692.1 Z M 1557.7 624.1 "></path></clipPath><g clip-path="url(#clip0x7fd087120be0)"><text xml:space="preserve" font-family="Inconsolata,Inconsolata" font-size="32.0" fill="#FEFFFE" transform="matrix(1.00, 0.00, -0.00, -1.00, 1597.9, 647.6)">I</text><text xml:space="preserve" font-family="Inconsolata,Inconsolata" font-size="32.0" fill="#FEFFFE" transform="matrix(1.00, 0.00, -0.00, -1.00, 1613.9, 647.6)">n</text><text xml:space="preserve" font-family="Inconsolata,Inconsolata" font-size="32.0" fill="#FEFFFE" transform="matrix(1.00, 0.00, -0.00, -1.00, 1629.9, 647.6)">p</text><text xml:space="preserve" font-family="Inconsolata,Inconsolata" font-size="32.0" fill="#FEFFFE" transform="matrix(1.00, 0.00, -0.00, -1.00, 1645.9, 647.6)">u</text><text xml:space="preserve" font-family="Inconsolata,Inconsolata" font-size="32.0" fill="#FEFFFE" transform="matrix(1.00, 0.00, -0.00, -1.00, 1661.9, 647.6)">t</text><text xml:space="preserve" font-family="Inconsolata,Inconsolata" font-size="32.0" fill="#FEFFFE" transform="matrix(1.00, 0.00, -0.00, -1.00, 1677.9, 647.6)"> </text><text xml:space="preserve" font-family="Inconsolata,Inconsolata" font-size="32.0" fill="#FEFFFE" transform="matrix(1.00, 0.00, -0.00, -1.00, 1693.9, 647.6)">7</text></g></g><image xlink:href="../../A9F2197D-EA01-46FD-989A-C34C7321C18A/assets/4692FA2A8A2A82CFB40E8610D60D3818.png" width="190.00" height="74.00" transform="matrix(1.00, 0.00, -0.00, -1.00, 1558.8, 601.1)" opacity="0.50"></image><path d="M 1562.0 600.0 L 1746.0 600.0 L 1746.0 532.0 L 1562.0 532.0 Z M 1561.8 600.1 " fill="#002451"></path><g><clipPath id="clip0x7fd0857fb520"><path d="M 1557.7 532.1 L 1750.2 532.1 L 1750.2 600.1 L 1557.7 600.1 Z M 1557.7 532.1 "></path></clipPath><g clip-path="url(#clip0x7fd0857fb520)"><text xml:space="preserve" font-family="Inconsolata,Inconsolata" font-size="32.0" fill="#FEFFFE" transform="matrix(1.00, 0.00, -0.00, -1.00, 1597.9, 555.6)">I</text><text xml:space="preserve" font-family="Inconsolata,Inconsolata" font-size="32.0" fill="#FEFFFE" transform="matrix(1.00, 0.00, -0.00, -1.00, 1613.9, 555.6)">n</text><text xml:space="preserve" font-family="Inconsolata,Inconsolata" font-size="32.0" fill="#FEFFFE" transform="matrix(1.00, 0.00, -0.00, -1.00, 1629.9, 555.6)">p</text><text xml:space="preserve" font-family="Inconsolata,Inconsolata" font-size="32.0" fill="#FEFFFE" transform="matrix(1.00, 0.00, -0.00, -1.00, 1645.9, 555.6)">u</text><text xml:space="preserve" font-family="Inconsolata,Inconsolata" font-size="32.0" fill="#FEFFFE" transform="matrix(1.00, 0.00, -0.00, -1.00, 1661.9, 555.6)">t</text><text xml:space="preserve" font-family="Inconsolata,Inconsolata" font-size="32.0" fill="#FEFFFE" transform="matrix(1.00, 0.00, -0.00, -1.00, 1677.9, 555.6)"> </text><text xml:space="preserve" font-family="Inconsolata,Inconsolata" font-size="32.0" fill="#FEFFFE" transform="matrix(1.00, 0.00, -0.00, -1.00, 1693.9, 555.6)">8</text></g></g><path d="M -0.1 -0.4 L 55.9 -0.4 " fill="none" stroke="#000000" stroke-width="5.00" stroke-linecap="round" stroke-dasharray="0.0, 15.0" transform="matrix(0.00, 1.00, 1.00, 0.00, 1653.9, 370.1)"></path><path d="M -0.1 -0.4 L 304.2 -0.4 L 310.9 -0.4 " fill="none" stroke="#F5D327" stroke-width="13.00" stroke-linecap="round" stroke-dasharray="0.0, 39.0" transform="matrix(1.00, 0.00, 0.00, -1.00, 380.1, 474.1)"></path><path d="M 684.5 449.9 L 733.7 474.5 L 684.5 499.1 Z M 684.5 449.9 " fill="#F5D327"></path><image xlink:href="../../A9F2197D-EA01-46FD-989A-C34C7321C18A/assets/17B93AC41B70D2C8466B75CAE77B2C1A.png" width="231.00" height="74.00" transform="matrix(1.00, 0.00, -0.00, -1.00, 178.7, 699.7)" opacity="0.50"></image><path d="M 182.0 699.0 L 407.0 699.0 L 407.0 631.0 L 182.0 631.0 Z M 181.7 698.7 " fill="#F5D327"></path><g><clipPath id="clip0x7fd087205c90"><path d="M 177.7 630.7 L 410.8 630.7 L 410.8 698.7 L 177.7 698.7 Z M 177.7 630.7 "></path></clipPath><g clip-path="url(#clip0x7fd087205c90)"><text xml:space="preserve" font-family="Inconsolata,Inconsolata" font-size="32.0" fill="#FEFFFE" transform="matrix(1.00, 0.00, -0.00, -1.00, 206.2, 654.2)">P</text><text xml:space="preserve" font-family="Inconsolata,Inconsolata" font-size="32.0" fill="#FEFFFE" transform="matrix(1.00, 0.00, -0.00, -1.00, 222.2, 654.2)">a</text><text xml:space="preserve" font-family="Inconsolata,Inconsolata" font-size="32.0" fill="#FEFFFE" transform="matrix(1.00, 0.00, -0.00, -1.00, 238.2, 654.2)">r</text><text xml:space="preserve" font-family="Inconsolata,Inconsolata" font-size="32.0" fill="#FEFFFE" transform="matrix(1.00, 0.00, -0.00, -1.00, 254.2, 654.2)">t</text><text xml:space="preserve" font-family="Inconsolata,Inconsolata" font-size="32.0" fill="#FEFFFE" transform="matrix(1.00, 0.00, -0.00, -1.00, 270.2, 654.2)">i</text><text xml:space="preserve" font-family="Inconsolata,Inconsolata" font-size="32.0" fill="#FEFFFE" transform="matrix(1.00, 0.00, -0.00, -1.00, 286.2, 654.2)">t</text><text xml:space="preserve" font-family="Inconsolata,Inconsolata" font-size="32.0" fill="#FEFFFE" transform="matrix(1.00, 0.00, -0.00, -1.00, 302.2, 654.2)">i</text><text xml:space="preserve" font-family="Inconsolata,Inconsolata" font-size="32.0" fill="#FEFFFE" transform="matrix(1.00, 0.00, -0.00, -1.00, 318.2, 654.2)">o</text><text xml:space="preserve" font-family="Inconsolata,Inconsolata" font-size="32.0" fill="#FEFFFE" transform="matrix(1.00, 0.00, -0.00, -1.00, 334.2, 654.2)">n</text><text xml:space="preserve" font-family="Inconsolata,Inconsolata" font-size="32.0" fill="#FEFFFE" transform="matrix(1.00, 0.00, -0.00, -1.00, 350.2, 654.2)"> </text><text xml:space="preserve" font-family="Inconsolata,Inconsolata" font-size="32.0" fill="#FEFFFE" transform="matrix(1.00, 0.00, -0.00, -1.00, 366.2, 654.2)">1</text></g></g><image xlink:href="../../A9F2197D-EA01-46FD-989A-C34C7321C18A/assets/D67594E5485B5B4F9339BA56BF0FD9EB.png" width="231.00" height="74.00" transform="matrix(1.00, 0.00, -0.00, -1.00, 178.7, 609.7)" opacity="0.50"></image><path d="M 182.0 609.0 L 407.0 609.0 L 407.0 541.0 L 182.0 541.0 Z M 181.7 608.7 " fill="#F5D327"></path><g><clipPath id="clip0x7fd0870ed2a0"><path d="M 177.7 540.7 L 410.8 540.7 L 410.8 608.7 L 177.7 608.7 Z M 177.7 540.7 "></path></clipPath><g clip-path="url(#clip0x7fd0870ed2a0)"><text xml:space="preserve" font-family="Inconsolata,Inconsolata" font-size="32.0" fill="#FEFFFE" transform="matrix(1.00, 0.00, -0.00, -1.00, 206.2, 564.2)">P</text><text xml:space="preserve" font-family="Inconsolata,Inconsolata" font-size="32.0" fill="#FEFFFE" transform="matrix(1.00, 0.00, -0.00, -1.00, 222.2, 564.2)">a</text><text xml:space="preserve" font-family="Inconsolata,Inconsolata" font-size="32.0" fill="#FEFFFE" transform="matrix(1.00, 0.00, -0.00, -1.00, 238.2, 564.2)">r</text><text xml:space="preserve" font-family="Inconsolata,Inconsolata" font-size="32.0" fill="#FEFFFE" transform="matrix(1.00, 0.00, -0.00, -1.00, 254.2, 564.2)">t</text><text xml:space="preserve" font-family="Inconsolata,Inconsolata" font-size="32.0" fill="#FEFFFE" transform="matrix(1.00, 0.00, -0.00, -1.00, 270.2, 564.2)">i</text><text xml:space="preserve" font-family="Inconsolata,Inconsolata" font-size="32.0" fill="#FEFFFE" transform="matrix(1.00, 0.00, -0.00, -1.00, 286.2, 564.2)">t</text><text xml:space="preserve" font-family="Inconsolata,Inconsolata" font-size="32.0" fill="#FEFFFE" transform="matrix(1.00, 0.00, -0.00, -1.00, 302.2, 564.2)">i</text><text xml:space="preserve" font-family="Inconsolata,Inconsolata" font-size="32.0" fill="#FEFFFE" transform="matrix(1.00, 0.00, -0.00, -1.00, 318.2, 564.2)">o</text><text xml:space="preserve" font-family="Inconsolata,Inconsolata" font-size="32.0" fill="#FEFFFE" transform="matrix(1.00, 0.00, -0.00, -1.00, 334.2, 564.2)">n</text><text xml:space="preserve" font-family="Inconsolata,Inconsolata" font-size="32.0" fill="#FEFFFE" transform="matrix(1.00, 0.00, -0.00, -1.00, 350.2, 564.2)"> </text><text xml:space="preserve" font-family="Inconsolata,Inconsolata" font-size="32.0" fill="#FEFFFE" transform="matrix(1.00, 0.00, -0.00, -1.00, 366.2, 564.2)">2</text></g></g><image xlink:href="../../A9F2197D-EA01-46FD-989A-C34C7321C18A/assets/12273D741915A1780B3EDFABF0378295.png" width="231.00" height="74.00" transform="matrix(1.00, 0.00, -0.00, -1.00, 178.7, 507.6)" opacity="0.50"></image><path d="M 182.0 507.0 L 407.0 507.0 L 407.0 439.0 L 182.0 439.0 Z M 181.7 506.6 " fill="#F5D327"></path><g><clipPath id="clip0x7fd0870f4f40"><path d="M 177.7 438.6 L 410.8 438.6 L 410.8 506.6 L 177.7 506.6 Z M 177.7 438.6 "></path></clipPath><g clip-path="url(#clip0x7fd0870f4f40)"><text xml:space="preserve" font-family="Inconsolata,Inconsolata" font-size="32.0" fill="#FEFFFE" transform="matrix(1.00, 0.00, -0.00, -1.00, 206.2, 462.1)">P</text><text xml:space="preserve" font-family="Inconsolata,Inconsolata" font-size="32.0" fill="#FEFFFE" transform="matrix(1.00, 0.00, -0.00, -1.00, 222.2, 462.1)">a</text><text xml:space="preserve" font-family="Inconsolata,Inconsolata" font-size="32.0" fill="#FEFFFE" transform="matrix(1.00, 0.00, -0.00, -1.00, 238.2, 462.1)">r</text><text xml:space="preserve" font-family="Inconsolata,Inconsolata" font-size="32.0" fill="#FEFFFE" transform="matrix(1.00, 0.00, -0.00, -1.00, 254.2, 462.1)">t</text><text xml:space="preserve" font-family="Inconsolata,Inconsolata" font-size="32.0" fill="#FEFFFE" transform="matrix(1.00, 0.00, -0.00, -1.00, 270.2, 462.1)">i</text><text xml:space="preserve" font-family="Inconsolata,Inconsolata" font-size="32.0" fill="#FEFFFE" transform="matrix(1.00, 0.00, -0.00, -1.00, 286.2, 462.1)">t</text><text xml:space="preserve" font-family="Inconsolata,Inconsolata" font-size="32.0" fill="#FEFFFE" transform="matrix(1.00, 0.00, -0.00, -1.00, 302.2, 462.1)">i</text><text xml:space="preserve" font-family="Inconsolata,Inconsolata" font-size="32.0" fill="#FEFFFE" transform="matrix(1.00, 0.00, -0.00, -1.00, 318.2, 462.1)">o</text><text xml:space="preserve" font-family="Inconsolata,Inconsolata" font-size="32.0" fill="#FEFFFE" transform="matrix(1.00, 0.00, -0.00, -1.00, 334.2, 462.1)">n</text><text xml:space="preserve" font-family="Inconsolata,Inconsolata" font-size="32.0" fill="#FEFFFE" transform="matrix(1.00, 0.00, -0.00, -1.00, 350.2, 462.1)"> </text><text xml:space="preserve" font-family="Inconsolata,Inconsolata" font-size="32.0" fill="#FEFFFE" transform="matrix(1.00, 0.00, -0.00, -1.00, 366.2, 462.1)">3</text></g></g><image xlink:href="../../A9F2197D-EA01-46FD-989A-C34C7321C18A/assets/452DE05DAC757606C2D8EE5ACB456A84.png" width="231.00" height="74.00" transform="matrix(1.00, 0.00, -0.00, -1.00, 178.7, 361.2)" opacity="0.50"></image><path d="M 182.0 360.0 L 407.0 360.0 L 407.0 292.0 L 182.0 292.0 Z M 181.7 360.2 " fill="#F5D327"></path><g><clipPath id="clip0x7fd0870fa740"><path d="M 177.7 292.2 L 410.8 292.2 L 410.8 360.2 L 177.7 360.2 Z M 177.7 292.2 "></path></clipPath><g clip-path="url(#clip0x7fd0870fa740)"><text xml:space="preserve" font-family="Inconsolata,Inconsolata" font-size="32.0" fill="#FEFFFE" transform="matrix(1.00, 0.00, -0.00, -1.00, 190.2, 315.7)">P</text><text xml:space="preserve" font-family="Inconsolata,Inconsolata" font-size="32.0" fill="#FEFFFE" transform="matrix(1.00, 0.00, -0.00, -1.00, 206.2, 315.7)">a</text><text xml:space="preserve" font-family="Inconsolata,Inconsolata" font-size="32.0" fill="#FEFFFE" transform="matrix(1.00, 0.00, -0.00, -1.00, 222.2, 315.7)">r</text><text xml:space="preserve" font-family="Inconsolata,Inconsolata" font-size="32.0" fill="#FEFFFE" transform="matrix(1.00, 0.00, -0.00, -1.00, 238.2, 315.7)">t</text><text xml:space="preserve" font-family="Inconsolata,Inconsolata" font-size="32.0" fill="#FEFFFE" transform="matrix(1.00, 0.00, -0.00, -1.00, 254.2, 315.7)">i</text><text xml:space="preserve" font-family="Inconsolata,Inconsolata" font-size="32.0" fill="#FEFFFE" transform="matrix(1.00, 0.00, -0.00, -1.00, 270.2, 315.7)">t</text><text xml:space="preserve" font-family="Inconsolata,Inconsolata" font-size="32.0" fill="#FEFFFE" transform="matrix(1.00, 0.00, -0.00, -1.00, 286.2, 315.7)">i</text><text xml:space="preserve" font-family="Inconsolata,Inconsolata" font-size="32.0" fill="#FEFFFE" transform="matrix(1.00, 0.00, -0.00, -1.00, 302.2, 315.7)">o</text><text xml:space="preserve" font-family="Inconsolata,Inconsolata" font-size="32.0" fill="#FEFFFE" transform="matrix(1.00, 0.00, -0.00, -1.00, 318.2, 315.7)">n</text><text xml:space="preserve" font-family="Inconsolata,Inconsolata" font-size="32.0" fill="#FEFFFE" transform="matrix(1.00, 0.00, -0.00, -1.00, 334.2, 315.7)"> </text><text xml:space="preserve" font-family="Inconsolata,Inconsolata" font-size="32.0" fill="#FEFFFE" transform="matrix(1.00, 0.00, -0.00, -1.00, 350.2, 315.7)">B</text><text xml:space="preserve" font-family="Inconsolata,Inconsolata" font-size="32.0" fill="#FEFFFE" transform="matrix(1.00, 0.00, -0.00, -1.00, 366.2, 315.7)">-</text><text xml:space="preserve" font-family="Inconsolata,Inconsolata" font-size="32.0" fill="#FEFFFE" transform="matrix(1.00, 0.00, -0.00, -1.00, 382.2, 315.7)">1</text></g></g><path d="M -0.4 0.3 L 55.6 0.3 " fill="none" stroke="#F5D327" stroke-width="5.00" stroke-linecap="round" stroke-dasharray="0.0, 15.0" transform="matrix(0.00, 1.00, 1.00, 0.00, 294.2, 371.4)"></path><image xlink:href="../../A9F2197D-EA01-46FD-989A-C34C7321C18A/assets/1FF5EF644E807322922C18583CC05A41.png" width="190.00" height="74.00" transform="matrix(1.00, 0.00, -0.00, -1.00, 1286.7, 358.1)" opacity="0.50"></image><path d="M 1290.0 357.0 L 1474.0 357.0 L 1474.0 289.0 L 1290.0 289.0 Z M 1289.7 357.1 " fill="#002451"></path><g><clipPath id="clip0x7fd08720cc00"><path d="M 1285.6 289.1 L 1478.1 289.1 L 1478.1 357.1 L 1285.6 357.1 Z M 1285.6 289.1 "></path></clipPath><g clip-path="url(#clip0x7fd08720cc00)"><text xml:space="preserve" font-family="Inconsolata,Inconsolata" font-size="32.0" fill="#FEFFFE" transform="matrix(1.00, 0.00, -0.00, -1.00, 1325.8, 312.6)">I</text><text xml:space="preserve" font-family="Inconsolata,Inconsolata" font-size="32.0" fill="#FEFFFE" transform="matrix(1.00, 0.00, -0.00, -1.00, 1341.8, 312.6)">n</text><text xml:space="preserve" font-family="Inconsolata,Inconsolata" font-size="32.0" fill="#FEFFFE" transform="matrix(1.00, 0.00, -0.00, -1.00, 1357.8, 312.6)">p</text><text xml:space="preserve" font-family="Inconsolata,Inconsolata" font-size="32.0" fill="#FEFFFE" transform="matrix(1.00, 0.00, -0.00, -1.00, 1373.8, 312.6)">u</text><text xml:space="preserve" font-family="Inconsolata,Inconsolata" font-size="32.0" fill="#FEFFFE" transform="matrix(1.00, 0.00, -0.00, -1.00, 1389.8, 312.6)">t</text><text xml:space="preserve" font-family="Inconsolata,Inconsolata" font-size="32.0" fill="#FEFFFE" transform="matrix(1.00, 0.00, -0.00, -1.00, 1405.8, 312.6)"> </text><text xml:space="preserve" font-family="Inconsolata,Inconsolata" font-size="32.0" fill="#FEFFFE" transform="matrix(1.00, 0.00, -0.00, -1.00, 1421.8, 312.6)">Y</text></g></g><image xlink:href="../../A9F2197D-EA01-46FD-989A-C34C7321C18A/assets/1FF5EF644E807322922C18583CC05A41.png" width="190.00" height="74.00" transform="matrix(1.00, 0.00, -0.00, -1.00, 1286.7, 510.1)" opacity="0.50"></image><path d="M 1290.0 509.0 L 1474.0 509.0 L 1474.0 441.0 L 1290.0 441.0 Z M 1289.7 509.1 " fill="#002451"></path><g><clipPath id="clip0x7fd0873061a0"><path d="M 1285.6 441.1 L 1478.1 441.1 L 1478.1 509.1 L 1285.6 509.1 Z M 1285.6 441.1 "></path></clipPath><g clip-path="url(#clip0x7fd0873061a0)"><text xml:space="preserve" font-family="Inconsolata,Inconsolata" font-size="32.0" fill="#FEFFFE" transform="matrix(1.00, 0.00, -0.00, -1.00, 1325.8, 464.6)">I</text><text xml:space="preserve" font-family="Inconsolata,Inconsolata" font-size="32.0" fill="#FEFFFE" transform="matrix(1.00, 0.00, -0.00, -1.00, 1341.8, 464.6)">n</text><text xml:space="preserve" font-family="Inconsolata,Inconsolata" font-size="32.0" fill="#FEFFFE" transform="matrix(1.00, 0.00, -0.00, -1.00, 1357.8, 464.6)">p</text><text xml:space="preserve" font-family="Inconsolata,Inconsolata" font-size="32.0" fill="#FEFFFE" transform="matrix(1.00, 0.00, -0.00, -1.00, 1373.8, 464.6)">u</text><text xml:space="preserve" font-family="Inconsolata,Inconsolata" font-size="32.0" fill="#FEFFFE" transform="matrix(1.00, 0.00, -0.00, -1.00, 1389.8, 464.6)">t</text><text xml:space="preserve" font-family="Inconsolata,Inconsolata" font-size="32.0" fill="#FEFFFE" transform="matrix(1.00, 0.00, -0.00, -1.00, 1405.8, 464.6)"> </text><text xml:space="preserve" font-family="Inconsolata,Inconsolata" font-size="32.0" fill="#FEFFFE" transform="matrix(1.00, 0.00, -0.00, -1.00, 1421.8, 464.6)">6</text></g></g><image xlink:href="../../A9F2197D-EA01-46FD-989A-C34C7321C18A/assets/1FF5EF644E807322922C18583CC05A41.png" width="190.00" height="74.00" transform="matrix(1.00, 0.00, -0.00, -1.00, 1286.7, 694.1)" opacity="0.50"></image><path d="M 1290.0 693.0 L 1474.0 693.0 L 1474.0 625.0 L 1290.0 625.0 Z M 1289.7 693.1 " fill="#002451"></path><g><clipPath id="clip0x7fd08730c550"><path d="M 1285.6 625.1 L 1478.1 625.1 L 1478.1 693.1 L 1285.6 693.1 Z M 1285.6 625.1 "></path></clipPath><g clip-path="url(#clip0x7fd08730c550)"><text xml:space="preserve" font-family="Inconsolata,Inconsolata" font-size="32.0" fill="#FEFFFE" transform="matrix(1.00, 0.00, -0.00, -1.00, 1325.8, 648.6)">I</text><text xml:space="preserve" font-family="Inconsolata,Inconsolata" font-size="32.0" fill="#FEFFFE" transform="matrix(1.00, 0.00, -0.00, -1.00, 1341.8, 648.6)">n</text><text xml:space="preserve" font-family="Inconsolata,Inconsolata" font-size="32.0" fill="#FEFFFE" transform="matrix(1.00, 0.00, -0.00, -1.00, 1357.8, 648.6)">p</text><text xml:space="preserve" font-family="Inconsolata,Inconsolata" font-size="32.0" fill="#FEFFFE" transform="matrix(1.00, 0.00, -0.00, -1.00, 1373.8, 648.6)">u</text><text xml:space="preserve" font-family="Inconsolata,Inconsolata" font-size="32.0" fill="#FEFFFE" transform="matrix(1.00, 0.00, -0.00, -1.00, 1389.8, 648.6)">t</text><text xml:space="preserve" font-family="Inconsolata,Inconsolata" font-size="32.0" fill="#FEFFFE" transform="matrix(1.00, 0.00, -0.00, -1.00, 1405.8, 648.6)"> </text><text xml:space="preserve" font-family="Inconsolata,Inconsolata" font-size="32.0" fill="#FEFFFE" transform="matrix(1.00, 0.00, -0.00, -1.00, 1421.8, 648.6)">4</text></g></g><image xlink:href="../../A9F2197D-EA01-46FD-989A-C34C7321C18A/assets/1FF5EF644E807322922C18583CC05A41.png" width="190.00" height="74.00" transform="matrix(1.00, 0.00, -0.00, -1.00, 1286.7, 602.1)" opacity="0.50"></image><path d="M 1290.0 601.0 L 1474.0 601.0 L 1474.0 533.0 L 1290.0 533.0 Z M 1289.7 601.1 " fill="#002451"></path><g><clipPath id="clip0x7fd087310310"><path d="M 1285.6 533.1 L 1478.1 533.1 L 1478.1 601.1 L 1285.6 601.1 Z M 1285.6 533.1 "></path></clipPath><g clip-path="url(#clip0x7fd087310310)"><text xml:space="preserve" font-family="Inconsolata,Inconsolata" font-size="32.0" fill="#FEFFFE" transform="matrix(1.00, 0.00, -0.00, -1.00, 1325.8, 556.6)">I</text><text xml:space="preserve" font-family="Inconsolata,Inconsolata" font-size="32.0" fill="#FEFFFE" transform="matrix(1.00, 0.00, -0.00, -1.00, 1341.8, 556.6)">n</text><text xml:space="preserve" font-family="Inconsolata,Inconsolata" font-size="32.0" fill="#FEFFFE" transform="matrix(1.00, 0.00, -0.00, -1.00, 1357.8, 556.6)">p</text><text xml:space="preserve" font-family="Inconsolata,Inconsolata" font-size="32.0" fill="#FEFFFE" transform="matrix(1.00, 0.00, -0.00, -1.00, 1373.8, 556.6)">u</text><text xml:space="preserve" font-family="Inconsolata,Inconsolata" font-size="32.0" fill="#FEFFFE" transform="matrix(1.00, 0.00, -0.00, -1.00, 1389.8, 556.6)">t</text><text xml:space="preserve" font-family="Inconsolata,Inconsolata" font-size="32.0" fill="#FEFFFE" transform="matrix(1.00, 0.00, -0.00, -1.00, 1405.8, 556.6)"> </text><text xml:space="preserve" font-family="Inconsolata,Inconsolata" font-size="32.0" fill="#FEFFFE" transform="matrix(1.00, 0.00, -0.00, -1.00, 1421.8, 556.6)">5</text></g></g><path d="M -0.1 -0.3 L 55.9 -0.3 " fill="none" stroke="#000000" stroke-width="5.00" stroke-linecap="round" stroke-dasharray="0.0, 15.0" transform="matrix(0.00, 1.00, 1.00, 0.00, 1381.8, 371.1)"></path><image xlink:href="../../A9F2197D-EA01-46FD-989A-C34C7321C18A/assets/58F9866ADDDC7E0C98FEFEF4E6B8CE80.png" width="190.00" height="74.00" transform="matrix(1.00, 0.00, -0.00, -1.00, 1014.6, 358.1)" opacity="0.50"></image><path d="M 1018.0 357.0 L 1202.0 357.0 L 1202.0 289.0 L 1018.0 289.0 Z M 1017.6 357.1 " fill="#002451"></path><g><clipPath id="clip0x7fd087316e50"><path d="M 1013.5 289.1 L 1206.0 289.1 L 1206.0 357.1 L 1013.5 357.1 Z M 1013.5 289.1 "></path></clipPath><g clip-path="url(#clip0x7fd087316e50)"><text xml:space="preserve" font-family="Inconsolata,Inconsolata" font-size="32.0" fill="#FEFFFE" transform="matrix(1.00, 0.00, -0.00, -1.00, 1053.7, 312.6)">I</text><text xml:space="preserve" font-family="Inconsolata,Inconsolata" font-size="32.0" fill="#FEFFFE" transform="matrix(1.00, 0.00, -0.00, -1.00, 1069.7, 312.6)">n</text><text xml:space="preserve" font-family="Inconsolata,Inconsolata" font-size="32.0" fill="#FEFFFE" transform="matrix(1.00, 0.00, -0.00, -1.00, 1085.7, 312.6)">p</text><text xml:space="preserve" font-family="Inconsolata,Inconsolata" font-size="32.0" fill="#FEFFFE" transform="matrix(1.00, 0.00, -0.00, -1.00, 1101.7, 312.6)">u</text><text xml:space="preserve" font-family="Inconsolata,Inconsolata" font-size="32.0" fill="#FEFFFE" transform="matrix(1.00, 0.00, -0.00, -1.00, 1117.7, 312.6)">t</text><text xml:space="preserve" font-family="Inconsolata,Inconsolata" font-size="32.0" fill="#FEFFFE" transform="matrix(1.00, 0.00, -0.00, -1.00, 1133.7, 312.6)"> </text><text xml:space="preserve" font-family="Inconsolata,Inconsolata" font-size="32.0" fill="#FEFFFE" transform="matrix(1.00, 0.00, -0.00, -1.00, 1149.7, 312.6)">X</text></g></g><image xlink:href="../../A9F2197D-EA01-46FD-989A-C34C7321C18A/assets/58F9866ADDDC7E0C98FEFEF4E6B8CE80.png" width="190.00" height="74.00" transform="matrix(1.00, 0.00, -0.00, -1.00, 1014.6, 510.1)" opacity="0.50"></image><path d="M 1018.0 509.0 L 1202.0 509.0 L 1202.0 441.0 L 1018.0 441.0 Z M 1017.6 509.1 " fill="#002451"></path><g><clipPath id="clip0x7fd08731bdc0"><path d="M 1013.5 441.1 L 1206.0 441.1 L 1206.0 509.1 L 1013.5 509.1 Z M 1013.5 441.1 "></path></clipPath><g clip-path="url(#clip0x7fd08731bdc0)"><text xml:space="preserve" font-family="Inconsolata,Inconsolata" font-size="32.0" fill="#FEFFFE" transform="matrix(1.00, 0.00, -0.00, -1.00, 1053.7, 464.6)">I</text><text xml:space="preserve" font-family="Inconsolata,Inconsolata" font-size="32.0" fill="#FEFFFE" transform="matrix(1.00, 0.00, -0.00, -1.00, 1069.7, 464.6)">n</text><text xml:space="preserve" font-family="Inconsolata,Inconsolata" font-size="32.0" fill="#FEFFFE" transform="matrix(1.00, 0.00, -0.00, -1.00, 1085.7, 464.6)">p</text><text xml:space="preserve" font-family="Inconsolata,Inconsolata" font-size="32.0" fill="#FEFFFE" transform="matrix(1.00, 0.00, -0.00, -1.00, 1101.7, 464.6)">u</text><text xml:space="preserve" font-family="Inconsolata,Inconsolata" font-size="32.0" fill="#FEFFFE" transform="matrix(1.00, 0.00, -0.00, -1.00, 1117.7, 464.6)">t</text><text xml:space="preserve" font-family="Inconsolata,Inconsolata" font-size="32.0" fill="#FEFFFE" transform="matrix(1.00, 0.00, -0.00, -1.00, 1133.7, 464.6)"> </text><text xml:space="preserve" font-family="Inconsolata,Inconsolata" font-size="32.0" fill="#FEFFFE" transform="matrix(1.00, 0.00, -0.00, -1.00, 1149.7, 464.6)">3</text></g></g><image xlink:href="../../A9F2197D-EA01-46FD-989A-C34C7321C18A/assets/58F9866ADDDC7E0C98FEFEF4E6B8CE80.png" width="190.00" height="74.00" transform="matrix(1.00, 0.00, -0.00, -1.00, 1014.6, 694.1)" opacity="0.50"></image><path d="M 1018.0 693.0 L 1202.0 693.0 L 1202.0 625.0 L 1018.0 625.0 Z M 1017.6 693.1 " fill="#002451"></path><g><clipPath id="clip0x7fd087320d00"><path d="M 1013.5 625.1 L 1206.0 625.1 L 1206.0 693.1 L 1013.5 693.1 Z M 1013.5 625.1 "></path></clipPath><g clip-path="url(#clip0x7fd087320d00)"><text xml:space="preserve" font-family="Inconsolata,Inconsolata" font-size="32.0" fill="#FEFFFE" transform="matrix(1.00, 0.00, -0.00, -1.00, 1053.7, 648.6)">I</text><text xml:space="preserve" font-family="Inconsolata,Inconsolata" font-size="32.0" fill="#FEFFFE" transform="matrix(1.00, 0.00, -0.00, -1.00, 1069.7, 648.6)">n</text><text xml:space="preserve" font-family="Inconsolata,Inconsolata" font-size="32.0" fill="#FEFFFE" transform="matrix(1.00, 0.00, -0.00, -1.00, 1085.7, 648.6)">p</text><text xml:space="preserve" font-family="Inconsolata,Inconsolata" font-size="32.0" fill="#FEFFFE" transform="matrix(1.00, 0.00, -0.00, -1.00, 1101.7, 648.6)">u</text><text xml:space="preserve" font-family="Inconsolata,Inconsolata" font-size="32.0" fill="#FEFFFE" transform="matrix(1.00, 0.00, -0.00, -1.00, 1117.7, 648.6)">t</text><text xml:space="preserve" font-family="Inconsolata,Inconsolata" font-size="32.0" fill="#FEFFFE" transform="matrix(1.00, 0.00, -0.00, -1.00, 1133.7, 648.6)"> </text><text xml:space="preserve" font-family="Inconsolata,Inconsolata" font-size="32.0" fill="#FEFFFE" transform="matrix(1.00, 0.00, -0.00, -1.00, 1149.7, 648.6)">1</text></g></g><image xlink:href="../../A9F2197D-EA01-46FD-989A-C34C7321C18A/assets/58F9866ADDDC7E0C98FEFEF4E6B8CE80.png" width="190.00" height="74.00" transform="matrix(1.00, 0.00, -0.00, -1.00, 1014.6, 602.1)" opacity="0.50"></image><path d="M 1018.0 601.0 L 1202.0 601.0 L 1202.0 533.0 L 1018.0 533.0 Z M 1017.6 601.1 " fill="#002451"></path><g><clipPath id="clip0x7fd0872113f0"><path d="M 1013.5 533.1 L 1206.0 533.1 L 1206.0 601.1 L 1013.5 601.1 Z M 1013.5 533.1 "></path></clipPath><g clip-path="url(#clip0x7fd0872113f0)"><text xml:space="preserve" font-family="Inconsolata,Inconsolata" font-size="32.0" fill="#FEFFFE" transform="matrix(1.00, 0.00, -0.00, -1.00, 1053.7, 556.6)">I</text><text xml:space="preserve" font-family="Inconsolata,Inconsolata" font-size="32.0" fill="#FEFFFE" transform="matrix(1.00, 0.00, -0.00, -1.00, 1069.7, 556.6)">n</text><text xml:space="preserve" font-family="Inconsolata,Inconsolata" font-size="32.0" fill="#FEFFFE" transform="matrix(1.00, 0.00, -0.00, -1.00, 1085.7, 556.6)">p</text><text xml:space="preserve" font-family="Inconsolata,Inconsolata" font-size="32.0" fill="#FEFFFE" transform="matrix(1.00, 0.00, -0.00, -1.00, 1101.7, 556.6)">u</text><text xml:space="preserve" font-family="Inconsolata,Inconsolata" font-size="32.0" fill="#FEFFFE" transform="matrix(1.00, 0.00, -0.00, -1.00, 1117.7, 556.6)">t</text><text xml:space="preserve" font-family="Inconsolata,Inconsolata" font-size="32.0" fill="#FEFFFE" transform="matrix(1.00, 0.00, -0.00, -1.00, 1133.7, 556.6)"> </text><text xml:space="preserve" font-family="Inconsolata,Inconsolata" font-size="32.0" fill="#FEFFFE" transform="matrix(1.00, 0.00, -0.00, -1.00, 1149.7, 556.6)">2</text></g></g><path d="M -0.1 -0.2 L 55.9 -0.2 " fill="none" stroke="#000000" stroke-width="5.00" stroke-linecap="round" stroke-dasharray="0.0, 15.0" transform="matrix(0.00, 1.00, 1.00, 0.00, 1109.7, 371.1)"></path></g></svg>