<?xml version="1.0" encoding="UTF-8" standalone="no"?><svg xmlns="http://www.w3.org/2000/svg" xmlns:xlink="http://www.w3.org/1999/xlink" clip-rule="evenodd" stroke-miterlimit="10" viewBox="0 0 1920 1080"><desc>SVG generated by Keynote</desc><defs></defs><g transform="matrix(1.00, 0.00, -0.00, -1.00, 0.0, 1080.0)"><path d="M 0.0 1080.0 L 1920.0 1080.0 L 1920.0 0.0 L 0.0 0.0 Z M 0.0 1080.0 " fill="#FEFFFF"></path><image xlink:href="6DCE0AA543BF2B73586A482EF41049F2.png" width="1267.00" height="720.00" transform="matrix(1.96, 0.00, -0.00, -1.96, -190.6, 1244.2)"></image><text xml:space="preserve" font-family="Helvetica-Light,Helvetica" font-size="90.0" fill="#FEFFFE" transform="matrix(1.00, 0.00, -0.00, -1.00, 226.4, 125.0)">…</text><text xml:space="preserve" font-family="Helvetica-Light,Helvetica" font-size="90.0" fill="#FEFFFE" transform="matrix(1.00, 0.00, -0.00, -1.00, 316.4, 125.0)"> </text><text xml:space="preserve" font-family="Helvetica-Light,Helvetica" font-size="90.0" fill="#FEFFFE" transform="matrix(1.00, 0.00, -0.00, -1.00, 341.5, 125.0)">a</text><text xml:space="preserve" font-family="Helvetica-Light,Helvetica" font-size="90.0" fill="#FEFFFE" transform="matrix(1.00, 0.00, -0.00, -1.00, 391.5, 125.0)">n</text><text xml:space="preserve" font-family="Helvetica-Light,Helvetica" font-size="90.0" fill="#FEFFFE" transform="matrix(1.00, 0.00, -0.00, -1.00, 441.5, 125.0)">d</text><text xml:space="preserve" font-family="Helvetica-Light,Helvetica" font-size="90.0" fill="#FEFFFE" transform="matrix(1.00, 0.00, -0.00, -1.00, 496.5, 125.0)"> </text><text xml:space="preserve" font-family="Helvetica-Light,Helvetica" font-size="90.0" fill="#FEFFFE" transform="matrix(1.00, 0.00, -0.00, -1.00, 521.6, 125.0)">t</text><text xml:space="preserve" font-family="Helvetica-Light,Helvetica" font-size="90.0" fill="#FEFFFE" transform="matrix(1.00, 0.00, -0.00, -1.00, 546.6, 125.0)">e</text><text xml:space="preserve" font-family="Helvetica-Light,Helvetica" font-size="90.0" fill="#FEFFFE" transform="matrix(1.00, 0.00, -0.00, -1.00, 596.6, 125.0)">x</text><text xml:space="preserve" font-family="Helvetica-Light,Helvetica" font-size="90.0" fill="#FEFFFE" transform="matrix(1.00, 0.00, -0.00, -1.00, 641.6, 125.0)">t</text><text xml:space="preserve" font-family="Helvetica-Light,Helvetica" font-size="90.0" fill="#FEFFFE" transform="matrix(1.00, 0.00, -0.00, -1.00, 666.6, 125.0)"> </text><text xml:space="preserve" font-family="Helvetica-Light,Helvetica" font-size="90.0" fill="#FEFFFE" transform="matrix(1.00, 0.00, -0.00, -1.00, 691.7, 125.0)">e</text><text xml:space="preserve" font-family="Helvetica-Light,Helvetica" font-size="90.0" fill="#FEFFFE" transform="matrix(1.00, 0.00, -0.00, -1.00, 741.7, 125.0)">n</text><text xml:space="preserve" font-family="Helvetica-Light,Helvetica" font-size="90.0" fill="#FEFFFE" transform="matrix(1.00, 0.00, -0.00, -1.00, 791.7, 125.0)">t</text><text xml:space="preserve" font-family="Helvetica-Light,Helvetica" font-size="90.0" fill="#FEFFFE" transform="matrix(1.00, 0.00, -0.00, -1.00, 816.8, 125.0)">r</text><text xml:space="preserve" font-family="Helvetica-Light,Helvetica" font-size="90.0" fill="#FEFFFE" transform="matrix(1.00, 0.00, -0.00, -1.00, 848.3, 125.0)">y</text><text xml:space="preserve" font-family="Helvetica-Light,Helvetica" font-size="90.0" fill="#FEFFFE" transform="matrix(1.00, 0.00, -0.00, -1.00, 893.3, 125.0)"> </text><text xml:space="preserve" font-family="Helvetica-Light,Helvetica" font-size="90.0" fill="#FEFFFE" transform="matrix(1.00, 0.00, -0.00, -1.00, 918.4, 125.0)">w</text><text xml:space="preserve" font-family="Helvetica-Light,Helvetica" font-size="90.0" fill="#FEFFFE" transform="matrix(1.00, 0.00, -0.00, -1.00, 983.3, 125.0)">i</text><text xml:space="preserve" font-family="Helvetica-Light,Helvetica" font-size="90.0" fill="#FEFFFE" transform="matrix(1.00, 0.00, -0.00, -1.00, 1003.3, 125.0)">l</text><text xml:space="preserve" font-family="Helvetica-Light,Helvetica" font-size="90.0" fill="#FEFFFE" transform="matrix(1.00, 0.00, -0.00, -1.00, 1023.3, 125.0)">l</text><text xml:space="preserve" font-family="Helvetica-Light,Helvetica" font-size="90.0" fill="#FEFFFE" transform="matrix(1.00, 0.00, -0.00, -1.00, 1043.3, 125.0)"> </text><text xml:space="preserve" font-family="Helvetica-Light,Helvetica" font-size="90.0" fill="#FEFFFE" transform="matrix(1.00, 0.00, -0.00, -1.00, 1068.3, 125.0)">o</text><text xml:space="preserve" font-family="Helvetica-Light,Helvetica" font-size="90.0" fill="#FEFFFE" transform="matrix(1.00, 0.00, -0.00, -1.00, 1118.3, 125.0)">n</text><text xml:space="preserve" font-family="Helvetica-Light,Helvetica" font-size="90.0" fill="#FEFFFE" transform="matrix(1.00, 0.00, -0.00, -1.00, 1168.4, 125.0)">l</text><text xml:space="preserve" font-family="Helvetica-Light,Helvetica" font-size="90.0" fill="#FEFFFE" transform="matrix(1.00, 0.00, -0.00, -1.00, 1188.4, 125.0)">y</text><text xml:space="preserve" font-family="Helvetica-Light,Helvetica" font-size="90.0" fill="#FEFFFE" transform="matrix(1.00, 0.00, -0.00, -1.00, 1233.4, 125.0)"> </text><text xml:space="preserve" font-family="Helvetica-Light,Helvetica" font-size="90.0" fill="#FEFFFE" transform="matrix(1.00, 0.00, -0.00, -1.00, 1258.4, 125.0)">g</text><text xml:space="preserve" font-family="Helvetica-Light,Helvetica" font-size="90.0" fill="#FEFFFE" transform="matrix(1.00, 0.00, -0.00, -1.00, 1313.4, 125.0)">e</text><text xml:space="preserve" font-family="Helvetica-Light,Helvetica" font-size="90.0" fill="#FEFFFE" transform="matrix(1.00, 0.00, -0.00, -1.00, 1363.4, 125.0)">t</text><text xml:space="preserve" font-family="Helvetica-Bold,Helvetica" font-weight="bold" font-size="90.0" fill="#FEFFFE" transform="matrix(1.00, 0.00, -0.00, -1.00, 1388.4, 125.0)"> </text><text xml:space="preserve" font-family="Helvetica-Bold,Helvetica" font-weight="bold" font-size="90.0" fill="#FEFFFE" transform="matrix(1.00, 0.00, -0.00, -1.00, 1413.4, 125.0)">h</text><text xml:space="preserve" font-family="Helvetica-Bold,Helvetica" font-weight="bold" font-size="90.0" fill="#FEFFFE" transform="matrix(1.00, 0.00, -0.00, -1.00, 1468.4, 125.0)">a</text><text xml:space="preserve" font-family="Helvetica-Bold,Helvetica" font-weight="bold" font-size="90.0" fill="#FEFFFE" transform="matrix(1.00, 0.00, -0.00, -1.00, 1518.4, 125.0)">r</text><text xml:space="preserve" font-family="Helvetica-Bold,Helvetica" font-weight="bold" font-size="90.0" fill="#FEFFFE" transform="matrix(1.00, 0.00, -0.00, -1.00, 1553.4, 125.0)">d</text><text xml:space="preserve" font-family="Helvetica-Bold,Helvetica" font-weight="bold" font-size="90.0" fill="#FEFFFE" transform="matrix(1.00, 0.00, -0.00, -1.00, 1608.4, 125.0)">e</text><text xml:space="preserve" font-family="Helvetica-Bold,Helvetica" font-weight="bold" font-size="90.0" fill="#FEFFFE" transform="matrix(1.00, 0.00, -0.00, -1.00, 1658.4, 125.0)">r</text></g></svg>