<?xml version="1.0" encoding="UTF-8" standalone="no"?><svg xmlns="http://www.w3.org/2000/svg" xmlns:xlink="http://www.w3.org/1999/xlink" clip-rule="evenodd" stroke-miterlimit="10" viewBox="0 0 1920 1080"><desc>SVG generated by Keynote</desc><defs></defs><g transform="matrix(1.00, 0.00, -0.00, -1.00, 0.0, 1080.0)"><path d="M 0.0 1080.0 L 1920.0 1080.0 L 1920.0 0.0 L 0.0 0.0 Z M 0.0 1080.0 " fill="#FEFFFF"></path><text xml:space="preserve" font-family="Helvetica-Light,Helvetica" font-size="60.5" fill="#0264C0" transform="matrix(1.00, 0.00, -0.00, -1.00, 153.8, 928.9)">F</text><text xml:space="preserve" font-family="Helvetica-Light,Helvetica" font-size="60.5" fill="#0264C0" transform="matrix(1.00, 0.00, -0.00, -1.00, 187.5, 928.9)">i</text><text xml:space="preserve" font-family="Helvetica-Light,Helvetica" font-size="60.5" fill="#0264C0" transform="matrix(1.00, 0.00, -0.00, -1.00, 200.9, 928.9)">n</text><text xml:space="preserve" font-family="Helvetica-Light,Helvetica" font-size="60.5" fill="#0264C0" transform="matrix(1.00, 0.00, -0.00, -1.00, 234.5, 928.9)">d</text><text xml:space="preserve" font-family="Helvetica-Light,Helvetica" font-size="60.5" fill="#0264C0" transform="matrix(1.00, 0.00, -0.00, -1.00, 271.5, 928.9)"> </text><text xml:space="preserve" font-family="Helvetica-Light,Helvetica" font-size="60.5" fill="#0264C0" transform="matrix(1.00, 0.00, -0.00, -1.00, 288.3, 928.9)">a</text><text xml:space="preserve" font-family="Helvetica-Light,Helvetica" font-size="60.5" fill="#0264C0" transform="matrix(1.00, 0.00, -0.00, -1.00, 321.9, 928.9)">l</text><text xml:space="preserve" font-family="Helvetica-Light,Helvetica" font-size="60.5" fill="#0264C0" transform="matrix(1.00, 0.00, -0.00, -1.00, 335.3, 928.9)">l</text><text xml:space="preserve" font-family="Helvetica-Light,Helvetica" font-size="60.5" fill="#0264C0" transform="matrix(1.00, 0.00, -0.00, -1.00, 348.8, 928.9)"> </text><text xml:space="preserve" font-family="Helvetica-Light,Helvetica" font-size="60.5" fill="#0264C0" transform="matrix(1.00, 0.00, -0.00, -1.00, 365.6, 928.9)">a</text><text xml:space="preserve" font-family="Helvetica-Light,Helvetica" font-size="60.5" fill="#0264C0" transform="matrix(1.00, 0.00, -0.00, -1.00, 399.2, 928.9)">r</text><text xml:space="preserve" font-family="Helvetica-Light,Helvetica" font-size="60.5" fill="#0264C0" transform="matrix(1.00, 0.00, -0.00, -1.00, 420.4, 928.9)">t</text><text xml:space="preserve" font-family="Helvetica-Light,Helvetica" font-size="60.5" fill="#0264C0" transform="matrix(1.00, 0.00, -0.00, -1.00, 437.2, 928.9)">i</text><text xml:space="preserve" font-family="Helvetica-Light,Helvetica" font-size="60.5" fill="#0264C0" transform="matrix(1.00, 0.00, -0.00, -1.00, 450.7, 928.9)">s</text><text xml:space="preserve" font-family="Helvetica-Light,Helvetica" font-size="60.5" fill="#0264C0" transform="matrix(1.00, 0.00, -0.00, -1.00, 480.9, 928.9)">t</text><text xml:space="preserve" font-family="Helvetica-Light,Helvetica" font-size="60.5" fill="#0264C0" transform="matrix(1.00, 0.00, -0.00, -1.00, 497.7, 928.9)">s</text><text xml:space="preserve" font-family="Helvetica-Light,Helvetica" font-size="60.5" fill="#0264C0" transform="matrix(1.00, 0.00, -0.00, -1.00, 528.0, 928.9)"> </text><text xml:space="preserve" font-family="Helvetica-Light,Helvetica" font-size="60.5" fill="#0264C0" transform="matrix(1.00, 0.00, -0.00, -1.00, 544.8, 928.9)">w</text><text xml:space="preserve" font-family="Helvetica-Light,Helvetica" font-size="60.5" fill="#0264C0" transform="matrix(1.00, 0.00, -0.00, -1.00, 588.4, 928.9)">h</text><text xml:space="preserve" font-family="Helvetica-Light,Helvetica" font-size="60.5" fill="#0264C0" transform="matrix(1.00, 0.00, -0.00, -1.00, 622.1, 928.9)">o</text><text xml:space="preserve" font-family="Helvetica-Light,Helvetica" font-size="60.5" fill="#0264C0" transform="matrix(1.00, 0.00, -0.00, -1.00, 655.7, 928.9)"> </text><text xml:space="preserve" font-family="Helvetica-Light,Helvetica" font-size="60.5" fill="#0264C0" transform="matrix(1.00, 0.00, -0.00, -1.00, 672.5, 928.9)">r</text><text xml:space="preserve" font-family="Helvetica-Light,Helvetica" font-size="60.5" fill="#0264C0" transform="matrix(1.00, 0.00, -0.00, -1.00, 691.6, 928.9)">e</text><text xml:space="preserve" font-family="Helvetica-Light,Helvetica" font-size="60.5" fill="#0264C0" transform="matrix(1.00, 0.00, -0.00, -1.00, 725.2, 928.9)">l</text><text xml:space="preserve" font-family="Helvetica-Light,Helvetica" font-size="60.5" fill="#0264C0" transform="matrix(1.00, 0.00, -0.00, -1.00, 738.6, 928.9)">e</text><text xml:space="preserve" font-family="Helvetica-Light,Helvetica" font-size="60.5" fill="#0264C0" transform="matrix(1.00, 0.00, -0.00, -1.00, 772.2, 928.9)">a</text><text xml:space="preserve" font-family="Helvetica-Light,Helvetica" font-size="60.5" fill="#0264C0" transform="matrix(1.00, 0.00, -0.00, -1.00, 805.9, 928.9)">s</text><text xml:space="preserve" font-family="Helvetica-Light,Helvetica" font-size="60.5" fill="#0264C0" transform="matrix(1.00, 0.00, -0.00, -1.00, 836.1, 928.9)">e</text><text xml:space="preserve" font-family="Helvetica-Light,Helvetica" font-size="60.5" fill="#0264C0" transform="matrix(1.00, 0.00, -0.00, -1.00, 869.7, 928.9)">d</text><text xml:space="preserve" font-family="Helvetica-Light,Helvetica" font-size="60.5" fill="#0264C0" transform="matrix(1.00, 0.00, -0.00, -1.00, 906.7, 928.9)"> </text><text xml:space="preserve" font-family="Helvetica-Light,Helvetica" font-size="60.5" fill="#0264C0" transform="matrix(1.00, 0.00, -0.00, -1.00, 923.5, 928.9)">m</text><text xml:space="preserve" font-family="Helvetica-Light,Helvetica" font-size="60.5" fill="#0264C0" transform="matrix(1.00, 0.00, -0.00, -1.00, 973.9, 928.9)">o</text><text xml:space="preserve" font-family="Helvetica-Light,Helvetica" font-size="60.5" fill="#0264C0" transform="matrix(1.00, 0.00, -0.00, -1.00, 1007.5, 928.9)">r</text><text xml:space="preserve" font-family="Helvetica-Light,Helvetica" font-size="60.5" fill="#0264C0" transform="matrix(1.00, 0.00, -0.00, -1.00, 1026.6, 928.9)">e</text><text xml:space="preserve" font-family="Helvetica-Light,Helvetica" font-size="60.5" fill="#0264C0" transform="matrix(1.00, 0.00, -0.00, -1.00, 1060.2, 928.9)"> </text><text xml:space="preserve" font-family="Helvetica-Light,Helvetica" font-size="60.5" fill="#0264C0" transform="matrix(1.00, 0.00, -0.00, -1.00, 1077.0, 928.9)">s</text><text xml:space="preserve" font-family="Helvetica-Light,Helvetica" font-size="60.5" fill="#0264C0" transform="matrix(1.00, 0.00, -0.00, -1.00, 1107.2, 928.9)">o</text><text xml:space="preserve" font-family="Helvetica-Light,Helvetica" font-size="60.5" fill="#0264C0" transform="matrix(1.00, 0.00, -0.00, -1.00, 1140.9, 928.9)">n</text><text xml:space="preserve" font-family="Helvetica-Light,Helvetica" font-size="60.5" fill="#0264C0" transform="matrix(1.00, 0.00, -0.00, -1.00, 1174.5, 928.9)">g</text><text xml:space="preserve" font-family="Helvetica-Light,Helvetica" font-size="60.5" fill="#0264C0" transform="matrix(1.00, 0.00, -0.00, -1.00, 1211.4, 928.9)">s</text><text xml:space="preserve" font-family="Helvetica-Light,Helvetica" font-size="60.5" fill="#0264C0" transform="matrix(1.00, 0.00, -0.00, -1.00, 1241.7, 928.9)"> </text><text xml:space="preserve" font-family="Helvetica-Light,Helvetica" font-size="60.5" fill="#0264C0" transform="matrix(1.00, 0.00, -0.00, -1.00, 1258.5, 928.9)">i</text><text xml:space="preserve" font-family="Helvetica-Light,Helvetica" font-size="60.5" fill="#0264C0" transform="matrix(1.00, 0.00, -0.00, -1.00, 1271.9, 928.9)">n</text><text xml:space="preserve" font-family="Helvetica-Light,Helvetica" font-size="60.5" fill="#0264C0" transform="matrix(1.00, 0.00, -0.00, -1.00, 1305.6, 928.9)"> </text><text xml:space="preserve" font-family="Helvetica-Light,Helvetica" font-size="60.5" fill="#0264C0" transform="matrix(1.00, 0.00, -0.00, -1.00, 1322.4, 928.9)">2</text><text xml:space="preserve" font-family="Helvetica-Light,Helvetica" font-size="60.5" fill="#0264C0" transform="matrix(1.00, 0.00, -0.00, -1.00, 1356.0, 928.9)">0</text><text xml:space="preserve" font-family="Helvetica-Light,Helvetica" font-size="60.5" fill="#0264C0" transform="matrix(1.00, 0.00, -0.00, -1.00, 1389.6, 928.9)">1</text><text xml:space="preserve" font-family="Helvetica-Light,Helvetica" font-size="60.5" fill="#0264C0" transform="matrix(1.00, 0.00, -0.00, -1.00, 1423.2, 928.9)">4</text><text xml:space="preserve" font-family="Helvetica-Light,Helvetica" font-size="60.5" fill="#0264C0" transform="matrix(1.00, 0.00, -0.00, -1.00, 1456.9, 928.9)"> </text><text xml:space="preserve" font-family="Helvetica-Light,Helvetica" font-size="60.5" fill="#0264C0" transform="matrix(1.00, 0.00, -0.00, -1.00, 1473.7, 928.9)">t</text><text xml:space="preserve" font-family="Helvetica-Light,Helvetica" font-size="60.5" fill="#0264C0" transform="matrix(1.00, 0.00, -0.00, -1.00, 1490.5, 928.9)">h</text><text xml:space="preserve" font-family="Helvetica-Light,Helvetica" font-size="60.5" fill="#0264C0" transform="matrix(1.00, 0.00, -0.00, -1.00, 1524.1, 928.9)">a</text><text xml:space="preserve" font-family="Helvetica-Light,Helvetica" font-size="60.5" fill="#0264C0" transform="matrix(1.00, 0.00, -0.00, -1.00, 1557.8, 928.9)">n</text><text xml:space="preserve" font-family="Helvetica-Light,Helvetica" font-size="60.5" fill="#0264C0" transform="matrix(1.00, 0.00, -0.00, -1.00, 1591.4, 928.9)"> </text><text xml:space="preserve" font-family="Helvetica-Light,Helvetica" font-size="60.5" fill="#0264C0" transform="matrix(1.00, 0.00, -0.00, -1.00, 1608.2, 928.9)">T</text><text xml:space="preserve" font-family="Helvetica-Light,Helvetica" font-size="60.5" fill="#0264C0" transform="matrix(1.00, 0.00, -0.00, -1.00, 1635.1, 928.9)">a</text><text xml:space="preserve" font-family="Helvetica-Light,Helvetica" font-size="60.5" fill="#0264C0" transform="matrix(1.00, 0.00, -0.00, -1.00, 1668.7, 928.9)">y</text><text xml:space="preserve" font-family="Helvetica-Light,Helvetica" font-size="60.5" fill="#0264C0" transform="matrix(1.00, 0.00, -0.00, -1.00, 1699.0, 928.9)">l</text><text xml:space="preserve" font-family="Helvetica-Light,Helvetica" font-size="60.5" fill="#0264C0" transform="matrix(1.00, 0.00, -0.00, -1.00, 1712.4, 928.9)">o</text><text xml:space="preserve" font-family="Helvetica-Light,Helvetica" font-size="60.5" fill="#0264C0" transform="matrix(1.00, 0.00, -0.00, -1.00, 1746.0, 928.9)">r</text><text xml:space="preserve" font-family="Helvetica-Light,Helvetica" font-size="60.5" fill="#0264C0" transform="matrix(1.00, 0.00, -0.00, -1.00, 1766.2, 928.9)"> </text><text xml:space="preserve" font-family="Helvetica-Light,Helvetica" font-size="60.5" fill="#0264C0" transform="matrix(1.00, 0.00, -0.00, -1.00, 148.2, 855.9)">S</text><text xml:space="preserve" font-family="Helvetica-Light,Helvetica" font-size="60.5" fill="#0264C0" transform="matrix(1.00, 0.00, -0.00, -1.00, 185.2, 855.9)">w</text><text xml:space="preserve" font-family="Helvetica-Light,Helvetica" font-size="60.5" fill="#0264C0" transform="matrix(1.00, 0.00, -0.00, -1.00, 228.8, 855.9)">i</text><text xml:space="preserve" font-family="Helvetica-Light,Helvetica" font-size="60.5" fill="#0264C0" transform="matrix(1.00, 0.00, -0.00, -1.00, 242.3, 855.9)">f</text><text xml:space="preserve" font-family="Helvetica-Light,Helvetica" font-size="60.5" fill="#0264C0" transform="matrix(1.00, 0.00, -0.00, -1.00, 259.1, 855.9)">t</text><text xml:space="preserve" font-family="Helvetica-Light,Helvetica" font-size="60.5" fill="#0264C0" transform="matrix(1.00, 0.00, -0.00, -1.00, 275.9, 855.9)">.</text><text xml:space="preserve" font-family="Helvetica-Light,Helvetica" font-size="60.5" fill="#0264C0" transform="matrix(1.00, 0.00, -0.00, -1.00, 292.7, 855.9)"> </text><text xml:space="preserve" font-family="Helvetica-Light,Helvetica" font-size="60.5" fill="#0264C0" transform="matrix(1.00, 0.00, -0.00, -1.00, 309.5, 855.9)">I</text><text xml:space="preserve" font-family="Helvetica-Light,Helvetica" font-size="60.5" fill="#0264C0" transform="matrix(1.00, 0.00, -0.00, -1.00, 326.3, 855.9)">n</text><text xml:space="preserve" font-family="Helvetica-Light,Helvetica" font-size="60.5" fill="#0264C0" transform="matrix(1.00, 0.00, -0.00, -1.00, 359.9, 855.9)">c</text><text xml:space="preserve" font-family="Helvetica-Light,Helvetica" font-size="60.5" fill="#0264C0" transform="matrix(1.00, 0.00, -0.00, -1.00, 393.6, 855.9)">l</text><text xml:space="preserve" font-family="Helvetica-Light,Helvetica" font-size="60.5" fill="#0264C0" transform="matrix(1.00, 0.00, -0.00, -1.00, 407.0, 855.9)">u</text><text xml:space="preserve" font-family="Helvetica-Light,Helvetica" font-size="60.5" fill="#0264C0" transform="matrix(1.00, 0.00, -0.00, -1.00, 440.6, 855.9)">d</text><text xml:space="preserve" font-family="Helvetica-Light,Helvetica" font-size="60.5" fill="#0264C0" transform="matrix(1.00, 0.00, -0.00, -1.00, 477.6, 855.9)">e</text><text xml:space="preserve" font-family="Helvetica-Light,Helvetica" font-size="60.5" fill="#0264C0" transform="matrix(1.00, 0.00, -0.00, -1.00, 511.2, 855.9)"> </text><text xml:space="preserve" font-family="Helvetica-Light,Helvetica" font-size="60.5" fill="#0264C0" transform="matrix(1.00, 0.00, -0.00, -1.00, 528.0, 855.9)">t</text><text xml:space="preserve" font-family="Helvetica-Light,Helvetica" font-size="60.5" fill="#0264C0" transform="matrix(1.00, 0.00, -0.00, -1.00, 544.8, 855.9)">h</text><text xml:space="preserve" font-family="Helvetica-Light,Helvetica" font-size="60.5" fill="#0264C0" transform="matrix(1.00, 0.00, -0.00, -1.00, 578.5, 855.9)">e</text><text xml:space="preserve" font-family="Helvetica-Light,Helvetica" font-size="60.5" fill="#0264C0" transform="matrix(1.00, 0.00, -0.00, -1.00, 612.1, 855.9)"> </text><text xml:space="preserve" font-family="Helvetica-Light,Helvetica" font-size="60.5" fill="#0264C0" transform="matrix(1.00, 0.00, -0.00, -1.00, 628.9, 855.9)">n</text><text xml:space="preserve" font-family="Helvetica-Light,Helvetica" font-size="60.5" fill="#0264C0" transform="matrix(1.00, 0.00, -0.00, -1.00, 662.5, 855.9)">u</text><text xml:space="preserve" font-family="Helvetica-Light,Helvetica" font-size="60.5" fill="#0264C0" transform="matrix(1.00, 0.00, -0.00, -1.00, 696.2, 855.9)">m</text><text xml:space="preserve" font-family="Helvetica-Light,Helvetica" font-size="60.5" fill="#0264C0" transform="matrix(1.00, 0.00, -0.00, -1.00, 746.5, 855.9)">b</text><text xml:space="preserve" font-family="Helvetica-Light,Helvetica" font-size="60.5" fill="#0264C0" transform="matrix(1.00, 0.00, -0.00, -1.00, 783.5, 855.9)">e</text><text xml:space="preserve" font-family="Helvetica-Light,Helvetica" font-size="60.5" fill="#0264C0" transform="matrix(1.00, 0.00, -0.00, -1.00, 817.1, 855.9)">r</text><text xml:space="preserve" font-family="Helvetica-Light,Helvetica" font-size="60.5" fill="#0264C0" transform="matrix(1.00, 0.00, -0.00, -1.00, 837.3, 855.9)"> </text><text xml:space="preserve" font-family="Helvetica-Light,Helvetica" font-size="60.5" fill="#0264C0" transform="matrix(1.00, 0.00, -0.00, -1.00, 854.1, 855.9)">o</text><text xml:space="preserve" font-family="Helvetica-Light,Helvetica" font-size="60.5" fill="#0264C0" transform="matrix(1.00, 0.00, -0.00, -1.00, 887.7, 855.9)">f</text><text xml:space="preserve" font-family="Helvetica-Light,Helvetica" font-size="60.5" fill="#0264C0" transform="matrix(1.00, 0.00, -0.00, -1.00, 904.5, 855.9)"> </text><text xml:space="preserve" font-family="Helvetica-Light,Helvetica" font-size="60.5" fill="#0264C0" transform="matrix(1.00, 0.00, -0.00, -1.00, 921.3, 855.9)">s</text><text xml:space="preserve" font-family="Helvetica-Light,Helvetica" font-size="60.5" fill="#0264C0" transform="matrix(1.00, 0.00, -0.00, -1.00, 951.6, 855.9)">o</text><text xml:space="preserve" font-family="Helvetica-Light,Helvetica" font-size="60.5" fill="#0264C0" transform="matrix(1.00, 0.00, -0.00, -1.00, 985.2, 855.9)">n</text><text xml:space="preserve" font-family="Helvetica-Light,Helvetica" font-size="60.5" fill="#0264C0" transform="matrix(1.00, 0.00, -0.00, -1.00, 1018.8, 855.9)">g</text><text xml:space="preserve" font-family="Helvetica-Light,Helvetica" font-size="60.5" fill="#0264C0" transform="matrix(1.00, 0.00, -0.00, -1.00, 1055.8, 855.9)">s</text><text xml:space="preserve" font-family="Helvetica-Light,Helvetica" font-size="60.5" fill="#0264C0" transform="matrix(1.00, 0.00, -0.00, -1.00, 1086.0, 855.9)"> </text><text xml:space="preserve" font-family="Helvetica-Light,Helvetica" font-size="60.5" fill="#0264C0" transform="matrix(1.00, 0.00, -0.00, -1.00, 1102.8, 855.9)">t</text><text xml:space="preserve" font-family="Helvetica-Light,Helvetica" font-size="60.5" fill="#0264C0" transform="matrix(1.00, 0.00, -0.00, -1.00, 1119.6, 855.9)">h</text><text xml:space="preserve" font-family="Helvetica-Light,Helvetica" font-size="60.5" fill="#0264C0" transform="matrix(1.00, 0.00, -0.00, -1.00, 1153.3, 855.9)">a</text><text xml:space="preserve" font-family="Helvetica-Light,Helvetica" font-size="60.5" fill="#0264C0" transform="matrix(1.00, 0.00, -0.00, -1.00, 1186.9, 855.9)">t</text><text xml:space="preserve" font-family="Helvetica-Light,Helvetica" font-size="60.5" fill="#0264C0" transform="matrix(1.00, 0.00, -0.00, -1.00, 1203.7, 855.9)"> </text><text xml:space="preserve" font-family="Helvetica-Light,Helvetica" font-size="60.5" fill="#0264C0" transform="matrix(1.00, 0.00, -0.00, -1.00, 1220.5, 855.9)">e</text><text xml:space="preserve" font-family="Helvetica-Light,Helvetica" font-size="60.5" fill="#0264C0" transform="matrix(1.00, 0.00, -0.00, -1.00, 1254.1, 855.9)">a</text><text xml:space="preserve" font-family="Helvetica-Light,Helvetica" font-size="60.5" fill="#0264C0" transform="matrix(1.00, 0.00, -0.00, -1.00, 1287.8, 855.9)">c</text><text xml:space="preserve" font-family="Helvetica-Light,Helvetica" font-size="60.5" fill="#0264C0" transform="matrix(1.00, 0.00, -0.00, -1.00, 1321.4, 855.9)">h</text><text xml:space="preserve" font-family="Helvetica-Light,Helvetica" font-size="60.5" fill="#0264C0" transform="matrix(1.00, 0.00, -0.00, -1.00, 1355.0, 855.9)"> </text><text xml:space="preserve" font-family="Helvetica-Light,Helvetica" font-size="60.5" fill="#0264C0" transform="matrix(1.00, 0.00, -0.00, -1.00, 1371.8, 855.9)">a</text><text xml:space="preserve" font-family="Helvetica-Light,Helvetica" font-size="60.5" fill="#0264C0" transform="matrix(1.00, 0.00, -0.00, -1.00, 1405.5, 855.9)">r</text><text xml:space="preserve" font-family="Helvetica-Light,Helvetica" font-size="60.5" fill="#0264C0" transform="matrix(1.00, 0.00, -0.00, -1.00, 1426.7, 855.9)">t</text><text xml:space="preserve" font-family="Helvetica-Light,Helvetica" font-size="60.5" fill="#0264C0" transform="matrix(1.00, 0.00, -0.00, -1.00, 1443.5, 855.9)">i</text><text xml:space="preserve" font-family="Helvetica-Light,Helvetica" font-size="60.5" fill="#0264C0" transform="matrix(1.00, 0.00, -0.00, -1.00, 1456.9, 855.9)">s</text><text xml:space="preserve" font-family="Helvetica-Light,Helvetica" font-size="60.5" fill="#0264C0" transform="matrix(1.00, 0.00, -0.00, -1.00, 1487.2, 855.9)">t</text><text xml:space="preserve" font-family="Helvetica-Light,Helvetica" font-size="60.5" fill="#0264C0" transform="matrix(1.00, 0.00, -0.00, -1.00, 1504.0, 855.9)"> </text><text xml:space="preserve" font-family="Helvetica-Light,Helvetica" font-size="60.5" fill="#0264C0" transform="matrix(1.00, 0.00, -0.00, -1.00, 1520.8, 855.9)">r</text><text xml:space="preserve" font-family="Helvetica-Light,Helvetica" font-size="60.5" fill="#0264C0" transform="matrix(1.00, 0.00, -0.00, -1.00, 1539.9, 855.9)">e</text><text xml:space="preserve" font-family="Helvetica-Light,Helvetica" font-size="60.5" fill="#0264C0" transform="matrix(1.00, 0.00, -0.00, -1.00, 1573.5, 855.9)">l</text><text xml:space="preserve" font-family="Helvetica-Light,Helvetica" font-size="60.5" fill="#0264C0" transform="matrix(1.00, 0.00, -0.00, -1.00, 1586.9, 855.9)">e</text><text xml:space="preserve" font-family="Helvetica-Light,Helvetica" font-size="60.5" fill="#0264C0" transform="matrix(1.00, 0.00, -0.00, -1.00, 1620.5, 855.9)">a</text><text xml:space="preserve" font-family="Helvetica-Light,Helvetica" font-size="60.5" fill="#0264C0" transform="matrix(1.00, 0.00, -0.00, -1.00, 1654.2, 855.9)">s</text><text xml:space="preserve" font-family="Helvetica-Light,Helvetica" font-size="60.5" fill="#0264C0" transform="matrix(1.00, 0.00, -0.00, -1.00, 1684.4, 855.9)">e</text><text xml:space="preserve" font-family="Helvetica-Light,Helvetica" font-size="60.5" fill="#0264C0" transform="matrix(1.00, 0.00, -0.00, -1.00, 1718.0, 855.9)">d</text><text xml:space="preserve" font-family="Helvetica-Light,Helvetica" font-size="60.5" fill="#0264C0" transform="matrix(1.00, 0.00, -0.00, -1.00, 1755.0, 855.9)">.</text><text xml:space="preserve" font-family="Helvetica-Light,Helvetica" font-size="50.0" fill="#000000" transform="matrix(1.00, 0.00, -0.00, -1.00, 183.6, 475.5)">1</text><text xml:space="preserve" font-family="Helvetica-Light,Helvetica" font-size="50.0" fill="#000000" transform="matrix(1.00, 0.00, -0.00, -1.00, 211.4, 475.5)">.</text><text xml:space="preserve" font-family="Helvetica-Light,Helvetica" font-size="50.0" fill="#000000" transform="matrix(1.00, 0.00, -0.00, -1.00, 262.1, 475.5)">F</text><text xml:space="preserve" font-family="Helvetica-Light,Helvetica" font-size="50.0" fill="#000000" transform="matrix(1.00, 0.00, -0.00, -1.00, 289.9, 475.5)">i</text><text xml:space="preserve" font-family="Helvetica-Light,Helvetica" font-size="50.0" fill="#000000" transform="matrix(1.00, 0.00, -0.00, -1.00, 301.0, 475.5)">n</text><text xml:space="preserve" font-family="Helvetica-Light,Helvetica" font-size="50.0" fill="#000000" transform="matrix(1.00, 0.00, -0.00, -1.00, 328.8, 475.5)">d</text><text xml:space="preserve" font-family="Helvetica-Light,Helvetica" font-size="50.0" fill="#000000" transform="matrix(1.00, 0.00, -0.00, -1.00, 359.3, 475.5)"> </text><text xml:space="preserve" font-family="Helvetica-Light,Helvetica" font-size="50.0" fill="#000000" transform="matrix(1.00, 0.00, -0.00, -1.00, 373.2, 475.5)">t</text><text xml:space="preserve" font-family="Helvetica-Light,Helvetica" font-size="50.0" fill="#000000" transform="matrix(1.00, 0.00, -0.00, -1.00, 387.1, 475.5)">h</text><text xml:space="preserve" font-family="Helvetica-Light,Helvetica" font-size="50.0" fill="#000000" transform="matrix(1.00, 0.00, -0.00, -1.00, 414.9, 475.5)">e</text><text xml:space="preserve" font-family="Helvetica-Light,Helvetica" font-size="50.0" fill="#000000" transform="matrix(1.00, 0.00, -0.00, -1.00, 442.7, 475.5)"> </text><text xml:space="preserve" font-family="Helvetica-Light,Helvetica" font-size="50.0" fill="#000000" transform="matrix(1.00, 0.00, -0.00, -1.00, 456.6, 475.5)">n</text><text xml:space="preserve" font-family="Helvetica-Light,Helvetica" font-size="50.0" fill="#000000" transform="matrix(1.00, 0.00, -0.00, -1.00, 484.4, 475.5)">u</text><text xml:space="preserve" font-family="Helvetica-Light,Helvetica" font-size="50.0" fill="#000000" transform="matrix(1.00, 0.00, -0.00, -1.00, 512.2, 475.5)">m</text><text xml:space="preserve" font-family="Helvetica-Light,Helvetica" font-size="50.0" fill="#000000" transform="matrix(1.00, 0.00, -0.00, -1.00, 553.9, 475.5)">b</text><text xml:space="preserve" font-family="Helvetica-Light,Helvetica" font-size="50.0" fill="#000000" transform="matrix(1.00, 0.00, -0.00, -1.00, 584.4, 475.5)">e</text><text xml:space="preserve" font-family="Helvetica-Light,Helvetica" font-size="50.0" fill="#000000" transform="matrix(1.00, 0.00, -0.00, -1.00, 612.2, 475.5)">r</text><text xml:space="preserve" font-family="Helvetica-Light,Helvetica" font-size="50.0" fill="#000000" transform="matrix(1.00, 0.00, -0.00, -1.00, 628.9, 475.5)"> </text><text xml:space="preserve" font-family="Helvetica-Light,Helvetica" font-size="50.0" fill="#000000" transform="matrix(1.00, 0.00, -0.00, -1.00, 642.8, 475.5)">o</text><text xml:space="preserve" font-family="Helvetica-Light,Helvetica" font-size="50.0" fill="#000000" transform="matrix(1.00, 0.00, -0.00, -1.00, 670.6, 475.5)">f</text><text xml:space="preserve" font-family="Helvetica-Light,Helvetica" font-size="50.0" fill="#000000" transform="matrix(1.00, 0.00, -0.00, -1.00, 684.5, 475.5)"> </text><text xml:space="preserve" font-family="Helvetica-Light,Helvetica" font-size="50.0" fill="#000000" transform="matrix(1.00, 0.00, -0.00, -1.00, 698.4, 475.5)">s</text><text xml:space="preserve" font-family="Helvetica-Light,Helvetica" font-size="50.0" fill="#000000" transform="matrix(1.00, 0.00, -0.00, -1.00, 723.4, 475.5)">o</text><text xml:space="preserve" font-family="Helvetica-Light,Helvetica" font-size="50.0" fill="#000000" transform="matrix(1.00, 0.00, -0.00, -1.00, 751.2, 475.5)">n</text><text xml:space="preserve" font-family="Helvetica-Light,Helvetica" font-size="50.0" fill="#000000" transform="matrix(1.00, 0.00, -0.00, -1.00, 779.0, 475.5)">g</text><text xml:space="preserve" font-family="Helvetica-Light,Helvetica" font-size="50.0" fill="#000000" transform="matrix(1.00, 0.00, -0.00, -1.00, 809.5, 475.5)">s</text><text xml:space="preserve" font-family="Helvetica-Light,Helvetica" font-size="50.0" fill="#000000" transform="matrix(1.00, 0.00, -0.00, -1.00, 834.5, 475.5)"> </text><text xml:space="preserve" font-family="Helvetica-Light,Helvetica" font-size="50.0" fill="#000000" transform="matrix(1.00, 0.00, -0.00, -1.00, 848.4, 475.5)">T</text><text xml:space="preserve" font-family="Helvetica-Light,Helvetica" font-size="50.0" fill="#000000" transform="matrix(1.00, 0.00, -0.00, -1.00, 876.2, 475.5)">S</text><text xml:space="preserve" font-family="Helvetica-Light,Helvetica" font-size="50.0" fill="#000000" transform="matrix(1.00, 0.00, -0.00, -1.00, 906.7, 475.5)">w</text><text xml:space="preserve" font-family="Helvetica-Light,Helvetica" font-size="50.0" fill="#000000" transform="matrix(1.00, 0.00, -0.00, -1.00, 942.8, 475.5)">i</text><text xml:space="preserve" font-family="Helvetica-Light,Helvetica" font-size="50.0" fill="#000000" transform="matrix(1.00, 0.00, -0.00, -1.00, 953.9, 475.5)">f</text><text xml:space="preserve" font-family="Helvetica-Light,Helvetica" font-size="50.0" fill="#000000" transform="matrix(1.00, 0.00, -0.00, -1.00, 967.8, 475.5)">t</text><text xml:space="preserve" font-family="Helvetica-Light,Helvetica" font-size="50.0" fill="#000000" transform="matrix(1.00, 0.00, -0.00, -1.00, 981.7, 475.5)"> </text><text xml:space="preserve" font-family="Helvetica-Light,Helvetica" font-size="50.0" fill="#000000" transform="matrix(1.00, 0.00, -0.00, -1.00, 995.6, 475.5)">p</text><text xml:space="preserve" font-family="Helvetica-Light,Helvetica" font-size="50.0" fill="#000000" transform="matrix(1.00, 0.00, -0.00, -1.00, 1026.2, 475.5)">r</text><text xml:space="preserve" font-family="Helvetica-Light,Helvetica" font-size="50.0" fill="#000000" transform="matrix(1.00, 0.00, -0.00, -1.00, 1041.9, 475.5)">o</text><text xml:space="preserve" font-family="Helvetica-Light,Helvetica" font-size="50.0" fill="#000000" transform="matrix(1.00, 0.00, -0.00, -1.00, 1069.7, 475.5)">d</text><text xml:space="preserve" font-family="Helvetica-Light,Helvetica" font-size="50.0" fill="#000000" transform="matrix(1.00, 0.00, -0.00, -1.00, 1100.3, 475.5)">u</text><text xml:space="preserve" font-family="Helvetica-Light,Helvetica" font-size="50.0" fill="#000000" transform="matrix(1.00, 0.00, -0.00, -1.00, 1128.1, 475.5)">c</text><text xml:space="preserve" font-family="Helvetica-Light,Helvetica" font-size="50.0" fill="#000000" transform="matrix(1.00, 0.00, -0.00, -1.00, 1155.9, 475.5)">e</text><text xml:space="preserve" font-family="Helvetica-Light,Helvetica" font-size="50.0" fill="#000000" transform="matrix(1.00, 0.00, -0.00, -1.00, 1183.7, 475.5)">d</text><text xml:space="preserve" font-family="Helvetica-Light,Helvetica" font-size="50.0" fill="#000000" transform="matrix(1.00, 0.00, -0.00, -1.00, 1214.2, 475.5)"> </text><text xml:space="preserve" font-family="Helvetica-Light,Helvetica" font-size="50.0" fill="#000000" transform="matrix(1.00, 0.00, -0.00, -1.00, 1228.1, 475.5)">a</text><text xml:space="preserve" font-family="Helvetica-Light,Helvetica" font-size="50.0" fill="#000000" transform="matrix(1.00, 0.00, -0.00, -1.00, 1255.9, 475.5)">n</text><text xml:space="preserve" font-family="Helvetica-Light,Helvetica" font-size="50.0" fill="#000000" transform="matrix(1.00, 0.00, -0.00, -1.00, 1283.7, 475.5)">d</text><text xml:space="preserve" font-family="Helvetica-Light,Helvetica" font-size="50.0" fill="#000000" transform="matrix(1.00, 0.00, -0.00, -1.00, 1314.3, 475.5)"> </text><text xml:space="preserve" font-family="Helvetica-Light,Helvetica" font-size="50.0" fill="#000000" transform="matrix(1.00, 0.00, -0.00, -1.00, 1328.2, 475.5)">s</text><text xml:space="preserve" font-family="Helvetica-Light,Helvetica" font-size="50.0" fill="#000000" transform="matrix(1.00, 0.00, -0.00, -1.00, 1353.2, 475.5)">t</text><text xml:space="preserve" font-family="Helvetica-Light,Helvetica" font-size="50.0" fill="#000000" transform="matrix(1.00, 0.00, -0.00, -1.00, 1367.1, 475.5)">o</text><text xml:space="preserve" font-family="Helvetica-Light,Helvetica" font-size="50.0" fill="#000000" transform="matrix(1.00, 0.00, -0.00, -1.00, 1394.9, 475.5)">r</text><text xml:space="preserve" font-family="Helvetica-Light,Helvetica" font-size="50.0" fill="#000000" transform="matrix(1.00, 0.00, -0.00, -1.00, 1410.6, 475.5)">e</text><text xml:space="preserve" font-family="Helvetica-Light,Helvetica" font-size="50.0" fill="#000000" transform="matrix(1.00, 0.00, -0.00, -1.00, 1438.4, 475.5)"> </text><text xml:space="preserve" font-family="Helvetica-Light,Helvetica" font-size="50.0" fill="#000000" transform="matrix(1.00, 0.00, -0.00, -1.00, 1452.3, 475.5)">i</text><text xml:space="preserve" font-family="Helvetica-Light,Helvetica" font-size="50.0" fill="#000000" transform="matrix(1.00, 0.00, -0.00, -1.00, 1463.4, 475.5)">n</text><text xml:space="preserve" font-family="Helvetica-Light,Helvetica" font-size="50.0" fill="#000000" transform="matrix(1.00, 0.00, -0.00, -1.00, 1491.2, 475.5)"> </text><text xml:space="preserve" font-family="Helvetica-Light,Helvetica" font-size="50.0" fill="#000000" transform="matrix(1.00, 0.00, -0.00, -1.00, 1505.1, 475.5)">c</text><text xml:space="preserve" font-family="Helvetica-Light,Helvetica" font-size="50.0" fill="#000000" transform="matrix(1.00, 0.00, -0.00, -1.00, 1532.9, 475.5)">o</text><text xml:space="preserve" font-family="Helvetica-Light,Helvetica" font-size="50.0" fill="#000000" transform="matrix(1.00, 0.00, -0.00, -1.00, 1560.7, 475.5)">m</text><text xml:space="preserve" font-family="Helvetica-Light,Helvetica" font-size="50.0" fill="#000000" transform="matrix(1.00, 0.00, -0.00, -1.00, 1602.4, 475.5)">m</text><text xml:space="preserve" font-family="Helvetica-Light,Helvetica" font-size="50.0" fill="#000000" transform="matrix(1.00, 0.00, -0.00, -1.00, 1644.0, 475.5)">o</text><text xml:space="preserve" font-family="Helvetica-Light,Helvetica" font-size="50.0" fill="#000000" transform="matrix(1.00, 0.00, -0.00, -1.00, 1671.8, 475.5)">n</text><text xml:space="preserve" font-family="Helvetica-Light,Helvetica" font-size="50.0" fill="#000000" transform="matrix(1.00, 0.00, -0.00, -1.00, 1699.6, 475.5)"> </text><text xml:space="preserve" font-family="Helvetica-Light,Helvetica" font-size="50.0" fill="#000000" transform="matrix(1.00, 0.00, -0.00, -1.00, 668.0, 415.5)">t</text><text xml:space="preserve" font-family="Helvetica-Light,Helvetica" font-size="50.0" fill="#000000" transform="matrix(1.00, 0.00, -0.00, -1.00, 681.9, 415.5)">a</text><text xml:space="preserve" font-family="Helvetica-Light,Helvetica" font-size="50.0" fill="#000000" transform="matrix(1.00, 0.00, -0.00, -1.00, 709.7, 415.5)">b</text><text xml:space="preserve" font-family="Helvetica-Light,Helvetica" font-size="50.0" fill="#000000" transform="matrix(1.00, 0.00, -0.00, -1.00, 740.2, 415.5)">l</text><text xml:space="preserve" font-family="Helvetica-Light,Helvetica" font-size="50.0" fill="#000000" transform="matrix(1.00, 0.00, -0.00, -1.00, 751.4, 415.5)">e</text><text xml:space="preserve" font-family="Helvetica-Light,Helvetica" font-size="50.0" fill="#000000" transform="matrix(1.00, 0.00, -0.00, -1.00, 779.1, 415.5)"> </text><text xml:space="preserve" font-family="Helvetica-Light,Helvetica" font-size="50.0" fill="#000000" transform="matrix(1.00, 0.00, -0.00, -1.00, 793.0, 415.5)">e</text><text xml:space="preserve" font-family="Helvetica-Light,Helvetica" font-size="50.0" fill="#000000" transform="matrix(1.00, 0.00, -0.00, -1.00, 820.9, 415.5)">x</text><text xml:space="preserve" font-family="Helvetica-Light,Helvetica" font-size="50.0" fill="#000000" transform="matrix(1.00, 0.00, -0.00, -1.00, 845.9, 415.5)">p</text><text xml:space="preserve" font-family="Helvetica-Light,Helvetica" font-size="50.0" fill="#000000" transform="matrix(1.00, 0.00, -0.00, -1.00, 876.4, 415.5)">r</text><text xml:space="preserve" font-family="Helvetica-Light,Helvetica" font-size="50.0" fill="#000000" transform="matrix(1.00, 0.00, -0.00, -1.00, 892.1, 415.5)">e</text><text xml:space="preserve" font-family="Helvetica-Light,Helvetica" font-size="50.0" fill="#000000" transform="matrix(1.00, 0.00, -0.00, -1.00, 920.0, 415.5)">s</text><text xml:space="preserve" font-family="Helvetica-Light,Helvetica" font-size="50.0" fill="#000000" transform="matrix(1.00, 0.00, -0.00, -1.00, 945.0, 415.5)">s</text><text xml:space="preserve" font-family="Helvetica-Light,Helvetica" font-size="50.0" fill="#000000" transform="matrix(1.00, 0.00, -0.00, -1.00, 970.0, 415.5)">i</text><text xml:space="preserve" font-family="Helvetica-Light,Helvetica" font-size="50.0" fill="#000000" transform="matrix(1.00, 0.00, -0.00, -1.00, 981.1, 415.5)">o</text><text xml:space="preserve" font-family="Helvetica-Light,Helvetica" font-size="50.0" fill="#000000" transform="matrix(1.00, 0.00, -0.00, -1.00, 1008.9, 415.5)">n</text><text xml:space="preserve" font-family="Helvetica-Light,Helvetica" font-size="50.0" fill="#000000" transform="matrix(1.00, 0.00, -0.00, -1.00, 1036.7, 415.5)"> </text><text xml:space="preserve" font-family="Helvetica-Light,Helvetica" font-size="50.0" fill="#000000" transform="matrix(1.00, 0.00, -0.00, -1.00, 1050.6, 415.5)">(</text><text xml:space="preserve" font-family="Helvetica-Light,Helvetica" font-size="50.0" fill="#000000" transform="matrix(1.00, 0.00, -0.00, -1.00, 1067.2, 415.5)">W</text><text xml:space="preserve" font-family="Helvetica-Light,Helvetica" font-size="50.0" fill="#000000" transform="matrix(1.00, 0.00, -0.00, -1.00, 1111.7, 415.5)">I</text><text xml:space="preserve" font-family="Helvetica-Light,Helvetica" font-size="50.0" fill="#000000" transform="matrix(1.00, 0.00, -0.00, -1.00, 1125.5, 415.5)">T</text><text xml:space="preserve" font-family="Helvetica-Light,Helvetica" font-size="50.0" fill="#000000" transform="matrix(1.00, 0.00, -0.00, -1.00, 1153.3, 415.5)">H</text><text xml:space="preserve" font-family="Helvetica-Light,Helvetica" font-size="50.0" fill="#000000" transform="matrix(1.00, 0.00, -0.00, -1.00, 1189.5, 415.5)"> </text><text xml:space="preserve" font-family="Helvetica-Light,Helvetica" font-size="50.0" fill="#000000" transform="matrix(1.00, 0.00, -0.00, -1.00, 1203.3, 415.5)">…</text><text xml:space="preserve" font-family="Helvetica-Light,Helvetica" font-size="50.0" fill="#000000" transform="matrix(1.00, 0.00, -0.00, -1.00, 1253.3, 415.5)">)</text><text xml:space="preserve" font-family="Helvetica-Light,Helvetica" font-size="50.0" fill="#000000" transform="matrix(1.00, 0.00, -0.00, -1.00, 1270.0, 415.5)"> </text><text xml:space="preserve" font-family="Helvetica-Light,Helvetica" font-size="50.0" fill="#000000" transform="matrix(1.00, 0.00, -0.00, -1.00, 183.6, 355.5)">2</text><text xml:space="preserve" font-family="Helvetica-Light,Helvetica" font-size="50.0" fill="#000000" transform="matrix(1.00, 0.00, -0.00, -1.00, 211.4, 355.5)">.</text><text xml:space="preserve" font-family="Helvetica-Light,Helvetica" font-size="50.0" fill="#000000" transform="matrix(1.00, 0.00, -0.00, -1.00, 432.0, 355.5)">F</text><text xml:space="preserve" font-family="Helvetica-Light,Helvetica" font-size="50.0" fill="#000000" transform="matrix(1.00, 0.00, -0.00, -1.00, 459.8, 355.5)">i</text><text xml:space="preserve" font-family="Helvetica-Light,Helvetica" font-size="50.0" fill="#000000" transform="matrix(1.00, 0.00, -0.00, -1.00, 470.9, 355.5)">n</text><text xml:space="preserve" font-family="Helvetica-Light,Helvetica" font-size="50.0" fill="#000000" transform="matrix(1.00, 0.00, -0.00, -1.00, 498.7, 355.5)">d</text><text xml:space="preserve" font-family="Helvetica-Light,Helvetica" font-size="50.0" fill="#000000" transform="matrix(1.00, 0.00, -0.00, -1.00, 529.2, 355.5)"> </text><text xml:space="preserve" font-family="Helvetica-Light,Helvetica" font-size="50.0" fill="#000000" transform="matrix(1.00, 0.00, -0.00, -1.00, 543.1, 355.5)">t</text><text xml:space="preserve" font-family="Helvetica-Light,Helvetica" font-size="50.0" fill="#000000" transform="matrix(1.00, 0.00, -0.00, -1.00, 557.0, 355.5)">h</text><text xml:space="preserve" font-family="Helvetica-Light,Helvetica" font-size="50.0" fill="#000000" transform="matrix(1.00, 0.00, -0.00, -1.00, 584.9, 355.5)">e</text><text xml:space="preserve" font-family="Helvetica-Light,Helvetica" font-size="50.0" fill="#000000" transform="matrix(1.00, 0.00, -0.00, -1.00, 612.7, 355.5)"> </text><text xml:space="preserve" font-family="Helvetica-Light,Helvetica" font-size="50.0" fill="#000000" transform="matrix(1.00, 0.00, -0.00, -1.00, 626.6, 355.5)">a</text><text xml:space="preserve" font-family="Helvetica-Light,Helvetica" font-size="50.0" fill="#000000" transform="matrix(1.00, 0.00, -0.00, -1.00, 654.4, 355.5)">r</text><text xml:space="preserve" font-family="Helvetica-Light,Helvetica" font-size="50.0" fill="#000000" transform="matrix(1.00, 0.00, -0.00, -1.00, 671.9, 355.5)">t</text><text xml:space="preserve" font-family="Helvetica-Light,Helvetica" font-size="50.0" fill="#000000" transform="matrix(1.00, 0.00, -0.00, -1.00, 685.8, 355.5)">i</text><text xml:space="preserve" font-family="Helvetica-Light,Helvetica" font-size="50.0" fill="#000000" transform="matrix(1.00, 0.00, -0.00, -1.00, 696.9, 355.5)">s</text><text xml:space="preserve" font-family="Helvetica-Light,Helvetica" font-size="50.0" fill="#000000" transform="matrix(1.00, 0.00, -0.00, -1.00, 721.9, 355.5)">t</text><text xml:space="preserve" font-family="Helvetica-Light,Helvetica" font-size="50.0" fill="#000000" transform="matrix(1.00, 0.00, -0.00, -1.00, 735.8, 355.5)">s</text><text xml:space="preserve" font-family="Helvetica-Light,Helvetica" font-size="50.0" fill="#000000" transform="matrix(1.00, 0.00, -0.00, -1.00, 760.8, 355.5)"> </text><text xml:space="preserve" font-family="Helvetica-Light,Helvetica" font-size="50.0" fill="#000000" transform="matrix(1.00, 0.00, -0.00, -1.00, 774.7, 355.5)">t</text><text xml:space="preserve" font-family="Helvetica-Light,Helvetica" font-size="50.0" fill="#000000" transform="matrix(1.00, 0.00, -0.00, -1.00, 788.6, 355.5)">h</text><text xml:space="preserve" font-family="Helvetica-Light,Helvetica" font-size="50.0" fill="#000000" transform="matrix(1.00, 0.00, -0.00, -1.00, 816.4, 355.5)">a</text><text xml:space="preserve" font-family="Helvetica-Light,Helvetica" font-size="50.0" fill="#000000" transform="matrix(1.00, 0.00, -0.00, -1.00, 844.2, 355.5)">t</text><text xml:space="preserve" font-family="Helvetica-Light,Helvetica" font-size="50.0" fill="#000000" transform="matrix(1.00, 0.00, -0.00, -1.00, 858.1, 355.5)"> </text><text xml:space="preserve" font-family="Helvetica-Light,Helvetica" font-size="50.0" fill="#000000" transform="matrix(1.00, 0.00, -0.00, -1.00, 872.0, 355.5)">h</text><text xml:space="preserve" font-family="Helvetica-Light,Helvetica" font-size="50.0" fill="#000000" transform="matrix(1.00, 0.00, -0.00, -1.00, 899.8, 355.5)">a</text><text xml:space="preserve" font-family="Helvetica-Light,Helvetica" font-size="50.0" fill="#000000" transform="matrix(1.00, 0.00, -0.00, -1.00, 927.6, 355.5)">v</text><text xml:space="preserve" font-family="Helvetica-Light,Helvetica" font-size="50.0" fill="#000000" transform="matrix(1.00, 0.00, -0.00, -1.00, 952.6, 355.5)">e</text><text xml:space="preserve" font-family="Helvetica-Light,Helvetica" font-size="50.0" fill="#000000" transform="matrix(1.00, 0.00, -0.00, -1.00, 980.4, 355.5)"> </text><text xml:space="preserve" font-family="Helvetica-Light,Helvetica" font-size="50.0" fill="#000000" transform="matrix(1.00, 0.00, -0.00, -1.00, 994.3, 355.5)">m</text><text xml:space="preserve" font-family="Helvetica-Light,Helvetica" font-size="50.0" fill="#000000" transform="matrix(1.00, 0.00, -0.00, -1.00, 1035.9, 355.5)">o</text><text xml:space="preserve" font-family="Helvetica-Light,Helvetica" font-size="50.0" fill="#000000" transform="matrix(1.00, 0.00, -0.00, -1.00, 1063.8, 355.5)">r</text><text xml:space="preserve" font-family="Helvetica-Light,Helvetica" font-size="50.0" fill="#000000" transform="matrix(1.00, 0.00, -0.00, -1.00, 1079.5, 355.5)">e</text><text xml:space="preserve" font-family="Helvetica-Light,Helvetica" font-size="50.0" fill="#000000" transform="matrix(1.00, 0.00, -0.00, -1.00, 1107.3, 355.5)"> </text><text xml:space="preserve" font-family="Helvetica-Light,Helvetica" font-size="50.0" fill="#000000" transform="matrix(1.00, 0.00, -0.00, -1.00, 1121.2, 355.5)">s</text><text xml:space="preserve" font-family="Helvetica-Light,Helvetica" font-size="50.0" fill="#000000" transform="matrix(1.00, 0.00, -0.00, -1.00, 1146.2, 355.5)">o</text><text xml:space="preserve" font-family="Helvetica-Light,Helvetica" font-size="50.0" fill="#000000" transform="matrix(1.00, 0.00, -0.00, -1.00, 1174.0, 355.5)">n</text><text xml:space="preserve" font-family="Helvetica-Light,Helvetica" font-size="50.0" fill="#000000" transform="matrix(1.00, 0.00, -0.00, -1.00, 1201.8, 355.5)">g</text><text xml:space="preserve" font-family="Helvetica-Light,Helvetica" font-size="50.0" fill="#000000" transform="matrix(1.00, 0.00, -0.00, -1.00, 1232.3, 355.5)">s</text><text xml:space="preserve" font-family="Helvetica-Light,Helvetica" font-size="50.0" fill="#000000" transform="matrix(1.00, 0.00, -0.00, -1.00, 1257.3, 355.5)"> </text><text xml:space="preserve" font-family="Helvetica-Light,Helvetica" font-size="50.0" fill="#000000" transform="matrix(1.00, 0.00, -0.00, -1.00, 1271.2, 355.5)">t</text><text xml:space="preserve" font-family="Helvetica-Light,Helvetica" font-size="50.0" fill="#000000" transform="matrix(1.00, 0.00, -0.00, -1.00, 1285.1, 355.5)">h</text><text xml:space="preserve" font-family="Helvetica-Light,Helvetica" font-size="50.0" fill="#000000" transform="matrix(1.00, 0.00, -0.00, -1.00, 1312.9, 355.5)">a</text><text xml:space="preserve" font-family="Helvetica-Light,Helvetica" font-size="50.0" fill="#000000" transform="matrix(1.00, 0.00, -0.00, -1.00, 1340.7, 355.5)">n</text><text xml:space="preserve" font-family="Helvetica-Light,Helvetica" font-size="50.0" fill="#000000" transform="matrix(1.00, 0.00, -0.00, -1.00, 1368.5, 355.5)"> </text><text xml:space="preserve" font-family="Helvetica-Light,Helvetica" font-size="50.0" fill="#000000" transform="matrix(1.00, 0.00, -0.00, -1.00, 1382.4, 355.5)">T</text><text xml:space="preserve" font-family="Helvetica-Light,Helvetica" font-size="50.0" fill="#000000" transform="matrix(1.00, 0.00, -0.00, -1.00, 1410.2, 355.5)">S</text><text xml:space="preserve" font-family="Helvetica-Light,Helvetica" font-size="50.0" fill="#000000" transform="matrix(1.00, 0.00, -0.00, -1.00, 1440.8, 355.5)">w</text><text xml:space="preserve" font-family="Helvetica-Light,Helvetica" font-size="50.0" fill="#000000" transform="matrix(1.00, 0.00, -0.00, -1.00, 1476.9, 355.5)">i</text><text xml:space="preserve" font-family="Helvetica-Light,Helvetica" font-size="50.0" fill="#000000" transform="matrix(1.00, 0.00, -0.00, -1.00, 1488.0, 355.5)">f</text><text xml:space="preserve" font-family="Helvetica-Light,Helvetica" font-size="50.0" fill="#000000" transform="matrix(1.00, 0.00, -0.00, -1.00, 1501.9, 355.5)">t</text><text xml:space="preserve" font-family="Helvetica-Light,Helvetica" font-size="50.0" fill="#000000" transform="matrix(1.00, 0.00, -0.00, -1.00, 1515.8, 355.5)">.</text></g></svg>