<?xml version="1.0" encoding="UTF-8" standalone="no"?><svg xmlns="http://www.w3.org/2000/svg" xmlns:xlink="http://www.w3.org/1999/xlink" clip-rule="evenodd" stroke-miterlimit="10" viewBox="0 0 1920 1080"><desc>SVG generated by Keynote</desc><defs></defs><g transform="matrix(1.00, 0.00, -0.00, -1.00, 0.0, 1080.0)"><path d="M 0.0 1080.0 L 1920.0 1080.0 L 1920.0 0.0 L 0.0 0.0 Z M 0.0 1080.0 " fill="#FEFFFE"></path><g><clipPath id="clip0x600000cba880"><path d="M 1037.0 825.0 L 1787.0 825.0 L 1787.0 100.0 L 1037.0 100.0 Z M 1037.0 825.0 "></path></clipPath><g clip-path="url(#clip0x600000cba880)"><image xlink:href="037986C149017C22008B3A65220E443A.jpeg" width="1300.00" height="867.00" transform="matrix(0.84, 0.00, -0.00, -0.84, 868.0, 825.0)"></image></g></g><text xml:space="preserve" font-family="Helvetica-Light,Helvetica" font-size="89.6" fill="#000000" transform="matrix(1.00, 0.00, -0.00, -1.00, 140.8, 881.6)">T</text><text xml:space="preserve" font-family="Helvetica-Light,Helvetica" font-size="89.6" fill="#000000" transform="matrix(1.00, 0.00, -0.00, -1.00, 180.7, 881.6)">e</text><text xml:space="preserve" font-family="Helvetica-Light,Helvetica" font-size="89.6" fill="#000000" transform="matrix(1.00, 0.00, -0.00, -1.00, 230.5, 881.6)">x</text><text xml:space="preserve" font-family="Helvetica-Light,Helvetica" font-size="89.6" fill="#000000" transform="matrix(1.00, 0.00, -0.00, -1.00, 275.3, 881.6)">t</text><text xml:space="preserve" font-family="Helvetica-Light,Helvetica" font-size="89.6" fill="#000000" transform="matrix(1.00, 0.00, -0.00, -1.00, 300.2, 881.6)"> </text><text xml:space="preserve" font-family="Helvetica-Light,Helvetica" font-size="89.6" fill="#000000" transform="matrix(1.00, 0.00, -0.00, -1.00, 325.1, 881.6)">e</text><text xml:space="preserve" font-family="Helvetica-Light,Helvetica" font-size="89.6" fill="#000000" transform="matrix(1.00, 0.00, -0.00, -1.00, 374.9, 881.6)">n</text><text xml:space="preserve" font-family="Helvetica-Light,Helvetica" font-size="89.6" fill="#000000" transform="matrix(1.00, 0.00, -0.00, -1.00, 424.8, 881.6)">t</text><text xml:space="preserve" font-family="Helvetica-Light,Helvetica" font-size="89.6" fill="#000000" transform="matrix(1.00, 0.00, -0.00, -1.00, 449.7, 881.6)">r</text><text xml:space="preserve" font-family="Helvetica-Light,Helvetica" font-size="89.6" fill="#000000" transform="matrix(1.00, 0.00, -0.00, -1.00, 481.1, 881.6)">y</text><text xml:space="preserve" font-family="Helvetica-Light,Helvetica" font-size="89.6" fill="#000000" transform="matrix(1.00, 0.00, -0.00, -1.00, 525.9, 881.6)"> </text><text xml:space="preserve" font-family="Helvetica-Light,Helvetica" font-size="89.6" fill="#000000" transform="matrix(1.00, 0.00, -0.00, -1.00, 550.8, 881.6)">o</text><text xml:space="preserve" font-family="Helvetica-Light,Helvetica" font-size="89.6" fill="#000000" transform="matrix(1.00, 0.00, -0.00, -1.00, 600.6, 881.6)">n</text><text xml:space="preserve" font-family="Helvetica-Light,Helvetica" font-size="89.6" fill="#000000" transform="matrix(1.00, 0.00, -0.00, -1.00, 650.5, 881.6)"> </text><text xml:space="preserve" font-family="Helvetica-Light,Helvetica" font-size="89.6" fill="#000000" transform="matrix(1.00, 0.00, -0.00, -1.00, 675.4, 881.6)">k</text><text xml:space="preserve" font-family="Helvetica-Light,Helvetica" font-size="89.6" fill="#000000" transform="matrix(1.00, 0.00, -0.00, -1.00, 720.2, 881.6)">e</text><text xml:space="preserve" font-family="Helvetica-Light,Helvetica" font-size="89.6" fill="#000000" transform="matrix(1.00, 0.00, -0.00, -1.00, 770.0, 881.6)">y</text><text xml:space="preserve" font-family="Helvetica-Light,Helvetica" font-size="89.6" fill="#000000" transform="matrix(1.00, 0.00, -0.00, -1.00, 814.8, 881.6)">b</text><text xml:space="preserve" font-family="Helvetica-Light,Helvetica" font-size="89.6" fill="#000000" transform="matrix(1.00, 0.00, -0.00, -1.00, 869.5, 881.6)">o</text><text xml:space="preserve" font-family="Helvetica-Light,Helvetica" font-size="89.6" fill="#000000" transform="matrix(1.00, 0.00, -0.00, -1.00, 919.3, 881.6)">a</text><text xml:space="preserve" font-family="Helvetica-Light,Helvetica" font-size="89.6" fill="#000000" transform="matrix(1.00, 0.00, -0.00, -1.00, 969.2, 881.6)">r</text><text xml:space="preserve" font-family="Helvetica-Light,Helvetica" font-size="89.6" fill="#000000" transform="matrix(1.00, 0.00, -0.00, -1.00, 997.4, 881.6)">d</text><text xml:space="preserve" font-family="Helvetica-Light,Helvetica" font-size="89.6" fill="#000000" transform="matrix(1.00, 0.00, -0.00, -1.00, 1052.1, 881.6)">s</text><text xml:space="preserve" font-family="Helvetica-Light,Helvetica" font-size="89.6" fill="#000000" transform="matrix(1.00, 0.00, -0.00, -1.00, 1096.9, 881.6)"> </text><text xml:space="preserve" font-family="Helvetica-Light,Helvetica" font-size="89.6" fill="#000000" transform="matrix(1.00, 0.00, -0.00, -1.00, 1121.8, 881.6)">i</text><text xml:space="preserve" font-family="Helvetica-Light,Helvetica" font-size="89.6" fill="#000000" transform="matrix(1.00, 0.00, -0.00, -1.00, 1141.7, 881.6)">s</text><text xml:space="preserve" font-family="Helvetica-Light,Helvetica" font-size="89.6" fill="#000000" transform="matrix(1.00, 0.00, -0.00, -1.00, 1186.5, 881.6)"> </text><text xml:space="preserve" font-family="Helvetica-Bold,Helvetica" font-weight="bold" font-size="89.6" fill="#000000" transform="matrix(1.00, 0.00, -0.00, -1.00, 1211.4, 881.6)">f</text><text xml:space="preserve" font-family="Helvetica-Bold,Helvetica" font-weight="bold" font-size="89.6" fill="#000000" transform="matrix(1.00, 0.00, -0.00, -1.00, 1241.3, 881.6)">a</text><text xml:space="preserve" font-family="Helvetica-Bold,Helvetica" font-weight="bold" font-size="89.6" fill="#000000" transform="matrix(1.00, 0.00, -0.00, -1.00, 1291.1, 881.6)">s</text><text xml:space="preserve" font-family="Helvetica-Bold,Helvetica" font-weight="bold" font-size="89.6" fill="#000000" transform="matrix(1.00, 0.00, -0.00, -1.00, 1341.0, 881.6)">t</text><text xml:space="preserve" font-family="Helvetica-Bold,Helvetica" font-weight="bold" font-size="89.6" fill="#000000" transform="matrix(1.00, 0.00, -0.00, -1.00, 1370.8, 881.6)"> </text><text xml:space="preserve" font-family="Helvetica-Bold,Helvetica" font-weight="bold" font-size="89.6" fill="#000000" transform="matrix(1.00, 0.00, -0.00, -1.00, 1395.7, 881.6)">a</text><text xml:space="preserve" font-family="Helvetica-Bold,Helvetica" font-weight="bold" font-size="89.6" fill="#000000" transform="matrix(1.00, 0.00, -0.00, -1.00, 1445.5, 881.6)">n</text><text xml:space="preserve" font-family="Helvetica-Bold,Helvetica" font-weight="bold" font-size="89.6" fill="#000000" transform="matrix(1.00, 0.00, -0.00, -1.00, 1500.3, 881.6)">d</text><text xml:space="preserve" font-family="Helvetica-Bold,Helvetica" font-weight="bold" font-size="89.6" fill="#000000" transform="matrix(1.00, 0.00, -0.00, -1.00, 1555.0, 881.6)"> </text><text xml:space="preserve" font-family="Helvetica-Bold,Helvetica" font-weight="bold" font-size="89.6" fill="#000000" transform="matrix(1.00, 0.00, -0.00, -1.00, 1579.8, 881.6)">e</text><text xml:space="preserve" font-family="Helvetica-Bold,Helvetica" font-weight="bold" font-size="89.6" fill="#000000" transform="matrix(1.00, 0.00, -0.00, -1.00, 1629.7, 881.6)">a</text><text xml:space="preserve" font-family="Helvetica-Bold,Helvetica" font-weight="bold" font-size="89.6" fill="#000000" transform="matrix(1.00, 0.00, -0.00, -1.00, 1679.5, 881.6)">s</text><text xml:space="preserve" font-family="Helvetica-Bold,Helvetica" font-weight="bold" font-size="89.6" fill="#000000" transform="matrix(1.00, 0.00, -0.00, -1.00, 1729.4, 881.6)">y</text><text xml:space="preserve" font-family="Helvetica-Light,Helvetica" font-size="33.8" fill="#000000" transform="matrix(1.00, 0.00, -0.00, -1.00, 137.0, 702.3)">•</text><text xml:space="preserve" font-family="Helvetica-Light,Helvetica" font-size="45.0" fill="#000000" transform="matrix(1.00, 0.00, -0.00, -1.00, 181.0, 698.3)">A</text><text xml:space="preserve" font-family="Helvetica-Light,Helvetica" font-size="45.0" fill="#000000" transform="matrix(1.00, 0.00, -0.00, -1.00, 210.2, 698.3)">v</text><text xml:space="preserve" font-family="Helvetica-Light,Helvetica" font-size="45.0" fill="#000000" transform="matrix(1.00, 0.00, -0.00, -1.00, 232.7, 698.3)">e</text><text xml:space="preserve" font-family="Helvetica-Light,Helvetica" font-size="45.0" fill="#000000" transform="matrix(1.00, 0.00, -0.00, -1.00, 257.7, 698.3)">r</text><text xml:space="preserve" font-family="Helvetica-Light,Helvetica" font-size="45.0" fill="#000000" transform="matrix(1.00, 0.00, -0.00, -1.00, 272.7, 698.3)">a</text><text xml:space="preserve" font-family="Helvetica-Light,Helvetica" font-size="45.0" fill="#000000" transform="matrix(1.00, 0.00, -0.00, -1.00, 297.7, 698.3)">g</text><text xml:space="preserve" font-family="Helvetica-Light,Helvetica" font-size="45.0" fill="#000000" transform="matrix(1.00, 0.00, -0.00, -1.00, 325.2, 698.3)">e</text><text xml:space="preserve" font-family="Helvetica-Light,Helvetica" font-size="45.0" fill="#000000" transform="matrix(1.00, 0.00, -0.00, -1.00, 350.2, 698.3)">s</text><text xml:space="preserve" font-family="Helvetica-Light,Helvetica" font-size="45.0" fill="#000000" transform="matrix(1.00, 0.00, -0.00, -1.00, 372.7, 698.3)"> </text><text xml:space="preserve" font-family="Helvetica-Bold,Helvetica" font-weight="bold" font-size="45.0" fill="#000000" transform="matrix(1.00, 0.00, -0.00, -1.00, 385.3, 698.3)">4</text><text xml:space="preserve" font-family="Helvetica-Bold,Helvetica" font-weight="bold" font-size="45.0" fill="#000000" transform="matrix(1.00, 0.00, -0.00, -1.00, 410.3, 698.3)">0</text><text xml:space="preserve" font-family="Helvetica-Bold,Helvetica" font-weight="bold" font-size="45.0" fill="#000000" transform="matrix(1.00, 0.00, -0.00, -1.00, 435.3, 698.3)">w</text><text xml:space="preserve" font-family="Helvetica-Bold,Helvetica" font-weight="bold" font-size="45.0" fill="#000000" transform="matrix(1.00, 0.00, -0.00, -1.00, 470.3, 698.3)">p</text><text xml:space="preserve" font-family="Helvetica-Bold,Helvetica" font-weight="bold" font-size="45.0" fill="#000000" transform="matrix(1.00, 0.00, -0.00, -1.00, 497.8, 698.3)">m</text><text xml:space="preserve" font-family="Helvetica-Light,Helvetica" font-size="45.0" fill="#000000" transform="matrix(1.00, 0.00, -0.00, -1.00, 537.8, 698.3)"> </text><text xml:space="preserve" font-family="Helvetica-Light,Helvetica" font-size="45.0" fill="#000000" transform="matrix(1.00, 0.00, -0.00, -1.00, 550.3, 698.3)">f</text><text xml:space="preserve" font-family="Helvetica-Light,Helvetica" font-size="45.0" fill="#000000" transform="matrix(1.00, 0.00, -0.00, -1.00, 562.8, 698.3)">o</text><text xml:space="preserve" font-family="Helvetica-Light,Helvetica" font-size="45.0" fill="#000000" transform="matrix(1.00, 0.00, -0.00, -1.00, 587.9, 698.3)">r</text><text xml:space="preserve" font-family="Helvetica-Light,Helvetica" font-size="45.0" fill="#000000" transform="matrix(1.00, 0.00, -0.00, -1.00, 602.8, 698.3)"> </text><text xml:space="preserve" font-family="Helvetica-Light,Helvetica" font-size="45.0" fill="#000000" transform="matrix(1.00, 0.00, -0.00, -1.00, 615.3, 698.3)">p</text><text xml:space="preserve" font-family="Helvetica-Light,Helvetica" font-size="45.0" fill="#000000" transform="matrix(1.00, 0.00, -0.00, -1.00, 642.8, 698.3)">o</text><text xml:space="preserve" font-family="Helvetica-Light,Helvetica" font-size="45.0" fill="#000000" transform="matrix(1.00, 0.00, -0.00, -1.00, 667.9, 698.3)">p</text><text xml:space="preserve" font-family="Helvetica-Light,Helvetica" font-size="45.0" fill="#000000" transform="matrix(1.00, 0.00, -0.00, -1.00, 695.4, 698.3)">u</text><text xml:space="preserve" font-family="Helvetica-Light,Helvetica" font-size="45.0" fill="#000000" transform="matrix(1.00, 0.00, -0.00, -1.00, 720.4, 698.3)">l</text><text xml:space="preserve" font-family="Helvetica-Light,Helvetica" font-size="45.0" fill="#000000" transform="matrix(1.00, 0.00, -0.00, -1.00, 730.4, 698.3)">a</text><text xml:space="preserve" font-family="Helvetica-Light,Helvetica" font-size="45.0" fill="#000000" transform="matrix(1.00, 0.00, -0.00, -1.00, 755.4, 698.3)">t</text><text xml:space="preserve" font-family="Helvetica-Light,Helvetica" font-size="45.0" fill="#000000" transform="matrix(1.00, 0.00, -0.00, -1.00, 767.9, 698.3)">i</text><text xml:space="preserve" font-family="Helvetica-Light,Helvetica" font-size="45.0" fill="#000000" transform="matrix(1.00, 0.00, -0.00, -1.00, 777.9, 698.3)">o</text><text xml:space="preserve" font-family="Helvetica-Light,Helvetica" font-size="45.0" fill="#000000" transform="matrix(1.00, 0.00, -0.00, -1.00, 802.9, 698.3)">n</text><text xml:space="preserve" font-family="Helvetica-Light,Helvetica" font-size="45.0" fill="#000000" transform="matrix(1.00, 0.00, -0.00, -1.00, 827.9, 698.3)">;</text><text xml:space="preserve" font-family="Helvetica-Light,Helvetica" font-size="45.0" fill="#000000" transform="matrix(1.00, 0.00, -0.00, -1.00, 840.4, 698.3)"> </text><text xml:space="preserve" font-family="Helvetica-Bold,Helvetica" font-weight="bold" font-size="45.0" fill="#000000" transform="matrix(1.00, 0.00, -0.00, -1.00, 181.0, 644.3)">5</text><text xml:space="preserve" font-family="Helvetica-Bold,Helvetica" font-weight="bold" font-size="45.0" fill="#000000" transform="matrix(1.00, 0.00, -0.00, -1.00, 206.0, 644.3)">0</text><text xml:space="preserve" font-family="Helvetica-Bold,Helvetica" font-weight="bold" font-size="45.0" fill="#000000" transform="matrix(1.00, 0.00, -0.00, -1.00, 231.1, 644.3)">-</text><text xml:space="preserve" font-family="Helvetica-Bold,Helvetica" font-weight="bold" font-size="45.0" fill="#000000" transform="matrix(1.00, 0.00, -0.00, -1.00, 246.1, 644.3)">8</text><text xml:space="preserve" font-family="Helvetica-Bold,Helvetica" font-weight="bold" font-size="45.0" fill="#000000" transform="matrix(1.00, 0.00, -0.00, -1.00, 271.1, 644.3)">0</text><text xml:space="preserve" font-family="Helvetica-Bold,Helvetica" font-weight="bold" font-size="45.0" fill="#000000" transform="matrix(1.00, 0.00, -0.00, -1.00, 296.1, 644.3)">w</text><text xml:space="preserve" font-family="Helvetica-Bold,Helvetica" font-weight="bold" font-size="45.0" fill="#000000" transform="matrix(1.00, 0.00, -0.00, -1.00, 331.1, 644.3)">p</text><text xml:space="preserve" font-family="Helvetica-Bold,Helvetica" font-weight="bold" font-size="45.0" fill="#000000" transform="matrix(1.00, 0.00, -0.00, -1.00, 358.6, 644.3)">m</text><text xml:space="preserve" font-family="Helvetica-Light,Helvetica" font-size="45.0" fill="#000000" transform="matrix(1.00, 0.00, -0.00, -1.00, 398.6, 644.3)"> </text><text xml:space="preserve" font-family="Helvetica-Light,Helvetica" font-size="45.0" fill="#000000" transform="matrix(1.00, 0.00, -0.00, -1.00, 411.1, 644.3)">f</text><text xml:space="preserve" font-family="Helvetica-Light,Helvetica" font-size="45.0" fill="#000000" transform="matrix(1.00, 0.00, -0.00, -1.00, 423.6, 644.3)">o</text><text xml:space="preserve" font-family="Helvetica-Light,Helvetica" font-size="45.0" fill="#000000" transform="matrix(1.00, 0.00, -0.00, -1.00, 448.6, 644.3)">r</text><text xml:space="preserve" font-family="Helvetica-Light,Helvetica" font-size="45.0" fill="#000000" transform="matrix(1.00, 0.00, -0.00, -1.00, 463.6, 644.3)"> </text><text xml:space="preserve" font-family="Helvetica-Light,Helvetica" font-size="45.0" fill="#000000" transform="matrix(1.00, 0.00, -0.00, -1.00, 476.1, 644.3)">p</text><text xml:space="preserve" font-family="Helvetica-Light,Helvetica" font-size="45.0" fill="#000000" transform="matrix(1.00, 0.00, -0.00, -1.00, 503.6, 644.3)">r</text><text xml:space="preserve" font-family="Helvetica-Light,Helvetica" font-size="45.0" fill="#000000" transform="matrix(1.00, 0.00, -0.00, -1.00, 517.8, 644.3)">o</text><text xml:space="preserve" font-family="Helvetica-Light,Helvetica" font-size="45.0" fill="#000000" transform="matrix(1.00, 0.00, -0.00, -1.00, 542.8, 644.3)">f</text><text xml:space="preserve" font-family="Helvetica-Light,Helvetica" font-size="45.0" fill="#000000" transform="matrix(1.00, 0.00, -0.00, -1.00, 555.3, 644.3)">e</text><text xml:space="preserve" font-family="Helvetica-Light,Helvetica" font-size="45.0" fill="#000000" transform="matrix(1.00, 0.00, -0.00, -1.00, 580.4, 644.3)">s</text><text xml:space="preserve" font-family="Helvetica-Light,Helvetica" font-size="45.0" fill="#000000" transform="matrix(1.00, 0.00, -0.00, -1.00, 602.9, 644.3)">s</text><text xml:space="preserve" font-family="Helvetica-Light,Helvetica" font-size="45.0" fill="#000000" transform="matrix(1.00, 0.00, -0.00, -1.00, 625.4, 644.3)">i</text><text xml:space="preserve" font-family="Helvetica-Light,Helvetica" font-size="45.0" fill="#000000" transform="matrix(1.00, 0.00, -0.00, -1.00, 635.3, 644.3)">o</text><text xml:space="preserve" font-family="Helvetica-Light,Helvetica" font-size="45.0" fill="#000000" transform="matrix(1.00, 0.00, -0.00, -1.00, 660.4, 644.3)">n</text><text xml:space="preserve" font-family="Helvetica-Light,Helvetica" font-size="45.0" fill="#000000" transform="matrix(1.00, 0.00, -0.00, -1.00, 685.4, 644.3)">a</text><text xml:space="preserve" font-family="Helvetica-Light,Helvetica" font-size="45.0" fill="#000000" transform="matrix(1.00, 0.00, -0.00, -1.00, 710.4, 644.3)">l</text><text xml:space="preserve" font-family="Helvetica-Light,Helvetica" font-size="45.0" fill="#000000" transform="matrix(1.00, 0.00, -0.00, -1.00, 720.4, 644.3)">s</text><text xml:space="preserve" font-family="Helvetica-Light,Helvetica" font-size="45.0" fill="#000000" transform="matrix(1.00, 0.00, -0.00, -1.00, 742.9, 644.3)"> </text><text xml:space="preserve" font-family="Helvetica-Light,Helvetica" font-size="45.0" fill="#000000" transform="matrix(1.00, 0.00, -0.00, -1.00, 181.0, 590.3)">(</text><text xml:space="preserve" font-family="Helvetica-Light,Helvetica" font-size="45.0" fill="#000000" transform="matrix(1.00, 0.00, -0.00, -1.00, 196.0, 590.3)">W</text><text xml:space="preserve" font-family="Helvetica-Light,Helvetica" font-size="45.0" fill="#000000" transform="matrix(1.00, 0.00, -0.00, -1.00, 236.0, 590.3)">i</text><text xml:space="preserve" font-family="Helvetica-Light,Helvetica" font-size="45.0" fill="#000000" transform="matrix(1.00, 0.00, -0.00, -1.00, 246.0, 590.3)">k</text><text xml:space="preserve" font-family="Helvetica-Light,Helvetica" font-size="45.0" fill="#000000" transform="matrix(1.00, 0.00, -0.00, -1.00, 268.5, 590.3)">i</text><text xml:space="preserve" font-family="Helvetica-Light,Helvetica" font-size="45.0" fill="#000000" transform="matrix(1.00, 0.00, -0.00, -1.00, 278.5, 590.3)">p</text><text xml:space="preserve" font-family="Helvetica-Light,Helvetica" font-size="45.0" fill="#000000" transform="matrix(1.00, 0.00, -0.00, -1.00, 306.0, 590.3)">e</text><text xml:space="preserve" font-family="Helvetica-Light,Helvetica" font-size="45.0" fill="#000000" transform="matrix(1.00, 0.00, -0.00, -1.00, 331.0, 590.3)">d</text><text xml:space="preserve" font-family="Helvetica-Light,Helvetica" font-size="45.0" fill="#000000" transform="matrix(1.00, 0.00, -0.00, -1.00, 358.5, 590.3)">i</text><text xml:space="preserve" font-family="Helvetica-Light,Helvetica" font-size="45.0" fill="#000000" transform="matrix(1.00, 0.00, -0.00, -1.00, 368.5, 590.3)">a</text><text xml:space="preserve" font-family="Helvetica-Light,Helvetica" font-size="45.0" fill="#000000" transform="matrix(1.00, 0.00, -0.00, -1.00, 393.5, 590.3)">)</text><text xml:space="preserve" font-family="Helvetica-Light,Helvetica" font-size="45.0" fill="#000000" transform="matrix(1.00, 0.00, -0.00, -1.00, 408.5, 590.3)"> </text><text xml:space="preserve" font-family="Helvetica-Light,Helvetica" font-size="33.8" fill="#000000" transform="matrix(1.00, 0.00, -0.00, -1.00, 137.0, 495.3)">•</text><text xml:space="preserve" font-family="Helvetica-Light,Helvetica" font-size="45.0" fill="#000000" transform="matrix(1.00, 0.00, -0.00, -1.00, 181.0, 491.3)">L</text><text xml:space="preserve" font-family="Helvetica-Light,Helvetica" font-size="45.0" fill="#000000" transform="matrix(1.00, 0.00, -0.00, -1.00, 206.0, 491.3)">o</text><text xml:space="preserve" font-family="Helvetica-Light,Helvetica" font-size="45.0" fill="#000000" transform="matrix(1.00, 0.00, -0.00, -1.00, 231.0, 491.3)">t</text><text xml:space="preserve" font-family="Helvetica-Light,Helvetica" font-size="45.0" fill="#000000" transform="matrix(1.00, 0.00, -0.00, -1.00, 243.6, 491.3)">s</text><text xml:space="preserve" font-family="Helvetica-Light,Helvetica" font-size="45.0" fill="#000000" transform="matrix(1.00, 0.00, -0.00, -1.00, 266.1, 491.3)"> </text><text xml:space="preserve" font-family="Helvetica-Light,Helvetica" font-size="45.0" fill="#000000" transform="matrix(1.00, 0.00, -0.00, -1.00, 278.6, 491.3)">o</text><text xml:space="preserve" font-family="Helvetica-Light,Helvetica" font-size="45.0" fill="#000000" transform="matrix(1.00, 0.00, -0.00, -1.00, 303.6, 491.3)">f</text><text xml:space="preserve" font-family="Helvetica-Light,Helvetica" font-size="45.0" fill="#000000" transform="matrix(1.00, 0.00, -0.00, -1.00, 316.1, 491.3)"> </text><text xml:space="preserve" font-family="Helvetica-Light,Helvetica" font-size="45.0" fill="#000000" transform="matrix(1.00, 0.00, -0.00, -1.00, 328.6, 491.3)">o</text><text xml:space="preserve" font-family="Helvetica-Light,Helvetica" font-size="45.0" fill="#000000" transform="matrix(1.00, 0.00, -0.00, -1.00, 353.6, 491.3)">p</text><text xml:space="preserve" font-family="Helvetica-Light,Helvetica" font-size="45.0" fill="#000000" transform="matrix(1.00, 0.00, -0.00, -1.00, 381.1, 491.3)">t</text><text xml:space="preserve" font-family="Helvetica-Light,Helvetica" font-size="45.0" fill="#000000" transform="matrix(1.00, 0.00, -0.00, -1.00, 393.6, 491.3)">i</text><text xml:space="preserve" font-family="Helvetica-Light,Helvetica" font-size="45.0" fill="#000000" transform="matrix(1.00, 0.00, -0.00, -1.00, 403.6, 491.3)">o</text><text xml:space="preserve" font-family="Helvetica-Light,Helvetica" font-size="45.0" fill="#000000" transform="matrix(1.00, 0.00, -0.00, -1.00, 428.6, 491.3)">n</text><text xml:space="preserve" font-family="Helvetica-Light,Helvetica" font-size="45.0" fill="#000000" transform="matrix(1.00, 0.00, -0.00, -1.00, 453.7, 491.3)">s</text><text xml:space="preserve" font-family="Helvetica-Light,Helvetica" font-size="45.0" fill="#000000" transform="matrix(1.00, 0.00, -0.00, -1.00, 476.2, 491.3)"> </text><text xml:space="preserve" font-family="Helvetica-Light,Helvetica" font-size="33.8" fill="#000000" transform="matrix(1.00, 0.00, -0.00, -1.00, 181.0, 396.3)">•</text><text xml:space="preserve" font-family="Helvetica-Light,Helvetica" font-size="45.0" fill="#000000" transform="matrix(1.00, 0.00, -0.00, -1.00, 225.0, 392.3)">Q</text><text xml:space="preserve" font-family="Helvetica-Light,Helvetica" font-size="45.0" fill="#000000" transform="matrix(1.00, 0.00, -0.00, -1.00, 260.0, 392.3)">W</text><text xml:space="preserve" font-family="Helvetica-Light,Helvetica" font-size="45.0" fill="#000000" transform="matrix(1.00, 0.00, -0.00, -1.00, 300.0, 392.3)">E</text><text xml:space="preserve" font-family="Helvetica-Light,Helvetica" font-size="45.0" fill="#000000" transform="matrix(1.00, 0.00, -0.00, -1.00, 327.5, 392.3)">R</text><text xml:space="preserve" font-family="Helvetica-Light,Helvetica" font-size="45.0" fill="#000000" transform="matrix(1.00, 0.00, -0.00, -1.00, 356.7, 392.3)">T</text><text xml:space="preserve" font-family="Helvetica-Light,Helvetica" font-size="45.0" fill="#000000" transform="matrix(1.00, 0.00, -0.00, -1.00, 381.7, 392.3)">Y</text><text xml:space="preserve" font-family="Helvetica-Light,Helvetica" font-size="45.0" fill="#000000" transform="matrix(1.00, 0.00, -0.00, -1.00, 409.2, 392.3)"> </text><text xml:space="preserve" font-family="Helvetica-Light,Helvetica" font-size="33.8" fill="#000000" transform="matrix(1.00, 0.00, -0.00, -1.00, 181.0, 297.3)">•</text><text xml:space="preserve" font-family="Helvetica-Light,Helvetica" font-size="45.0" fill="#000000" transform="matrix(1.00, 0.00, -0.00, -1.00, 225.0, 293.3)">D</text><text xml:space="preserve" font-family="Helvetica-Light,Helvetica" font-size="45.0" fill="#000000" transform="matrix(1.00, 0.00, -0.00, -1.00, 257.5, 293.3)">v</text><text xml:space="preserve" font-family="Helvetica-Light,Helvetica" font-size="45.0" fill="#000000" transform="matrix(1.00, 0.00, -0.00, -1.00, 280.0, 293.3)">o</text><text xml:space="preserve" font-family="Helvetica-Light,Helvetica" font-size="45.0" fill="#000000" transform="matrix(1.00, 0.00, -0.00, -1.00, 305.0, 293.3)">r</text><text xml:space="preserve" font-family="Helvetica-Light,Helvetica" font-size="45.0" fill="#000000" transform="matrix(1.00, 0.00, -0.00, -1.00, 320.0, 293.3)">a</text><text xml:space="preserve" font-family="Helvetica-Light,Helvetica" font-size="45.0" fill="#000000" transform="matrix(1.00, 0.00, -0.00, -1.00, 345.0, 293.3)">k</text><text xml:space="preserve" font-family="Helvetica-Light,Helvetica" font-size="45.0" fill="#000000" transform="matrix(1.00, 0.00, -0.00, -1.00, 367.5, 293.3)"> </text><text xml:space="preserve" font-family="Helvetica-Light,Helvetica" font-size="33.8" fill="#000000" transform="matrix(1.00, 0.00, -0.00, -1.00, 181.0, 198.3)">•</text><text xml:space="preserve" font-family="Helvetica-Light,Helvetica" font-size="45.0" fill="#000000" transform="matrix(1.00, 0.00, -0.00, -1.00, 225.0, 194.3)">C</text><text xml:space="preserve" font-family="Helvetica-Light,Helvetica" font-size="45.0" fill="#000000" transform="matrix(1.00, 0.00, -0.00, -1.00, 257.5, 194.3)">o</text><text xml:space="preserve" font-family="Helvetica-Light,Helvetica" font-size="45.0" fill="#000000" transform="matrix(1.00, 0.00, -0.00, -1.00, 282.5, 194.3)">l</text><text xml:space="preserve" font-family="Helvetica-Light,Helvetica" font-size="45.0" fill="#000000" transform="matrix(1.00, 0.00, -0.00, -1.00, 292.5, 194.3)">e</text><text xml:space="preserve" font-family="Helvetica-Light,Helvetica" font-size="45.0" fill="#000000" transform="matrix(1.00, 0.00, -0.00, -1.00, 317.5, 194.3)">m</text><text xml:space="preserve" font-family="Helvetica-Light,Helvetica" font-size="45.0" fill="#000000" transform="matrix(1.00, 0.00, -0.00, -1.00, 355.0, 194.3)">a</text><text xml:space="preserve" font-family="Helvetica-Light,Helvetica" font-size="45.0" fill="#000000" transform="matrix(1.00, 0.00, -0.00, -1.00, 380.0, 194.3)">k</text></g></svg>