<?xml version="1.0" encoding="UTF-8" standalone="no"?><svg xmlns="http://www.w3.org/2000/svg" xmlns:xlink="http://www.w3.org/1999/xlink" clip-rule="evenodd" stroke-miterlimit="10" viewBox="0 0 1920 1080"><desc>SVG generated by Keynote</desc><defs></defs><g transform="matrix(1.00, 0.00, -0.00, -1.00, 0.0, 1080.0)"><path d="M 0.0 1080.0 L 1920.0 1080.0 L 1920.0 0.0 L 0.0 0.0 Z M 0.0 1080.0 " fill="#FEFFFF"></path><text xml:space="preserve" font-family="Helvetica-Light,Helvetica" font-size="112.0" fill="#000000" transform="matrix(1.00, 0.00, -0.00, -1.00, 586.5, 873.8)">E</text><text xml:space="preserve" font-family="Helvetica-Light,Helvetica" font-size="112.0" fill="#000000" transform="matrix(1.00, 0.00, -0.00, -1.00, 654.9, 873.8)">R</text><text xml:space="preserve" font-family="Helvetica-Light,Helvetica" font-size="112.0" fill="#000000" transform="matrix(1.00, 0.00, -0.00, -1.00, 729.6, 873.8)"> </text><text xml:space="preserve" font-family="Helvetica-Light,Helvetica" font-size="112.0" fill="#000000" transform="matrix(1.00, 0.00, -0.00, -1.00, 760.8, 873.8)">C</text><text xml:space="preserve" font-family="Helvetica-Light,Helvetica" font-size="112.0" fill="#000000" transform="matrix(1.00, 0.00, -0.00, -1.00, 841.6, 873.8)">h</text><text xml:space="preserve" font-family="Helvetica-Light,Helvetica" font-size="112.0" fill="#000000" transform="matrix(1.00, 0.00, -0.00, -1.00, 903.9, 873.8)">e</text><text xml:space="preserve" font-family="Helvetica-Light,Helvetica" font-size="112.0" fill="#000000" transform="matrix(1.00, 0.00, -0.00, -1.00, 966.2, 873.8)">a</text><text xml:space="preserve" font-family="Helvetica-Light,Helvetica" font-size="112.0" fill="#000000" transform="matrix(1.00, 0.00, -0.00, -1.00, 1028.4, 873.8)">t</text><text xml:space="preserve" font-family="Helvetica-Light,Helvetica" font-size="112.0" fill="#000000" transform="matrix(1.00, 0.00, -0.00, -1.00, 1059.6, 873.8)">s</text><text xml:space="preserve" font-family="Helvetica-Light,Helvetica" font-size="112.0" fill="#000000" transform="matrix(1.00, 0.00, -0.00, -1.00, 1115.6, 873.8)">h</text><text xml:space="preserve" font-family="Helvetica-Light,Helvetica" font-size="112.0" fill="#000000" transform="matrix(1.00, 0.00, -0.00, -1.00, 1177.8, 873.8)">e</text><text xml:space="preserve" font-family="Helvetica-Light,Helvetica" font-size="112.0" fill="#000000" transform="matrix(1.00, 0.00, -0.00, -1.00, 1240.1, 873.8)">e</text><text xml:space="preserve" font-family="Helvetica-Light,Helvetica" font-size="112.0" fill="#000000" transform="matrix(1.00, 0.00, -0.00, -1.00, 1302.4, 873.8)">t</text><g><clipPath id="clip0x6080018ac0c0"><path d="M 140.0 777.0 L 1780.0 777.0 L 1780.0 140.0 L 140.0 140.0 Z M 140.0 777.0 "></path></clipPath><g clip-path="url(#clip0x6080018ac0c0)"><path d="M 140.0 777.0 L 686.7 777.0 L 686.7 564.7 L 140.0 564.7 Z M 140.0 777.0 " fill="#0264C0"></path><path d="M 686.7 777.0 L 1233.3 777.0 L 1233.3 564.7 L 686.7 564.7 Z M 686.7 777.0 " fill="#0264C0"></path><path d="M 1233.3 777.0 L 1780.0 777.0 L 1780.0 564.7 L 1233.3 564.7 Z M 1233.3 777.0 " fill="#0264C0"></path><path d="M 140.0 564.7 L 686.7 564.7 L 686.7 352.3 L 140.0 352.3 Z M 140.0 564.7 " fill="#388CCE"></path><path d="M 686.7 564.7 L 1233.3 564.7 L 1233.3 352.3 L 686.7 352.3 Z M 686.7 564.7 " fill="#FEFFFE"></path><path d="M 1233.3 564.7 L 1780.0 564.7 L 1780.0 352.3 L 1233.3 352.3 Z M 1233.3 564.7 " fill="#FEFFFE"></path><path d="M 140.0 352.3 L 686.7 352.3 L 686.7 140.0 L 140.0 140.0 Z M 140.0 352.3 " fill="#388CCE"></path><path d="M 686.7 352.3 L 1233.3 352.3 L 1233.3 140.0 L 686.7 140.0 Z M 686.7 352.3 " fill="#E2E5E8"></path><path d="M 1233.3 352.3 L 1780.0 352.3 L 1780.0 140.0 L 1233.3 140.0 Z M 1233.3 352.3 " fill="#E2E5E8"></path></g></g><g><clipPath id="clip0x6080018ac780"><path d="M 140.0 777.0 L 1780.0 777.0 L 1780.0 140.0 L 140.0 140.0 Z M 140.0 777.0 "></path></clipPath><g clip-path="url(#clip0x6080018ac780)"><g><clipPath id="clip0x6080018ac900"><path d="M 686.7 565.2 L 1233.3 565.2 L 1233.3 777.0 L 686.7 777.0 Z M 686.7 565.2 "></path></clipPath><g clip-path="url(#clip0x6080018ac900)"><text xml:space="preserve" font-family="Helvetica-Bold,Helvetica" font-weight="bold" font-size="52.0" fill="#FEFFFE" transform="matrix(1.00, 0.00, -0.00, -1.00, 715.8, 652.0)">P</text><text xml:space="preserve" font-family="Helvetica-Bold,Helvetica" font-weight="bold" font-size="52.0" fill="#FEFFFE" transform="matrix(1.00, 0.00, -0.00, -1.00, 750.5, 652.0)">a</text><text xml:space="preserve" font-family="Helvetica-Bold,Helvetica" font-weight="bold" font-size="52.0" fill="#FEFFFE" transform="matrix(1.00, 0.00, -0.00, -1.00, 779.4, 652.0)">r</text><text xml:space="preserve" font-family="Helvetica-Bold,Helvetica" font-weight="bold" font-size="52.0" fill="#FEFFFE" transform="matrix(1.00, 0.00, -0.00, -1.00, 799.7, 652.0)">t</text><text xml:space="preserve" font-family="Helvetica-Bold,Helvetica" font-weight="bold" font-size="52.0" fill="#FEFFFE" transform="matrix(1.00, 0.00, -0.00, -1.00, 817.0, 652.0)">i</text><text xml:space="preserve" font-family="Helvetica-Bold,Helvetica" font-weight="bold" font-size="52.0" fill="#FEFFFE" transform="matrix(1.00, 0.00, -0.00, -1.00, 831.4, 652.0)">a</text><text xml:space="preserve" font-family="Helvetica-Bold,Helvetica" font-weight="bold" font-size="52.0" fill="#FEFFFE" transform="matrix(1.00, 0.00, -0.00, -1.00, 860.4, 652.0)">l</text><text xml:space="preserve" font-family="Helvetica-Bold,Helvetica" font-weight="bold" font-size="52.0" fill="#FEFFFE" transform="matrix(1.00, 0.00, -0.00, -1.00, 874.8, 652.0)"> </text><text xml:space="preserve" font-family="Helvetica-Bold,Helvetica" font-weight="bold" font-size="52.0" fill="#FEFFFE" transform="matrix(1.00, 0.00, -0.00, -1.00, 889.2, 652.0)">P</text><text xml:space="preserve" font-family="Helvetica-Bold,Helvetica" font-weight="bold" font-size="52.0" fill="#FEFFFE" transform="matrix(1.00, 0.00, -0.00, -1.00, 923.9, 652.0)">a</text><text xml:space="preserve" font-family="Helvetica-Bold,Helvetica" font-weight="bold" font-size="52.0" fill="#FEFFFE" transform="matrix(1.00, 0.00, -0.00, -1.00, 952.9, 652.0)">r</text><text xml:space="preserve" font-family="Helvetica-Bold,Helvetica" font-weight="bold" font-size="52.0" fill="#FEFFFE" transform="matrix(1.00, 0.00, -0.00, -1.00, 973.1, 652.0)">t</text><text xml:space="preserve" font-family="Helvetica-Bold,Helvetica" font-weight="bold" font-size="52.0" fill="#FEFFFE" transform="matrix(1.00, 0.00, -0.00, -1.00, 990.4, 652.0)">i</text><text xml:space="preserve" font-family="Helvetica-Bold,Helvetica" font-weight="bold" font-size="52.0" fill="#FEFFFE" transform="matrix(1.00, 0.00, -0.00, -1.00, 1004.9, 652.0)">c</text><text xml:space="preserve" font-family="Helvetica-Bold,Helvetica" font-weight="bold" font-size="52.0" fill="#FEFFFE" transform="matrix(1.00, 0.00, -0.00, -1.00, 1033.8, 652.0)">i</text><text xml:space="preserve" font-family="Helvetica-Bold,Helvetica" font-weight="bold" font-size="52.0" fill="#FEFFFE" transform="matrix(1.00, 0.00, -0.00, -1.00, 1048.2, 652.0)">p</text><text xml:space="preserve" font-family="Helvetica-Bold,Helvetica" font-weight="bold" font-size="52.0" fill="#FEFFFE" transform="matrix(1.00, 0.00, -0.00, -1.00, 1080.0, 652.0)">a</text><text xml:space="preserve" font-family="Helvetica-Bold,Helvetica" font-weight="bold" font-size="52.0" fill="#FEFFFE" transform="matrix(1.00, 0.00, -0.00, -1.00, 1108.9, 652.0)">t</text><text xml:space="preserve" font-family="Helvetica-Bold,Helvetica" font-weight="bold" font-size="52.0" fill="#FEFFFE" transform="matrix(1.00, 0.00, -0.00, -1.00, 1126.2, 652.0)">i</text><text xml:space="preserve" font-family="Helvetica-Bold,Helvetica" font-weight="bold" font-size="52.0" fill="#FEFFFE" transform="matrix(1.00, 0.00, -0.00, -1.00, 1140.7, 652.0)">o</text><text xml:space="preserve" font-family="Helvetica-Bold,Helvetica" font-weight="bold" font-size="52.0" fill="#FEFFFE" transform="matrix(1.00, 0.00, -0.00, -1.00, 1172.4, 652.0)">n</text></g></g></g></g><g><clipPath id="clip0x6080018ad2c0"><path d="M 140.0 777.0 L 1780.0 777.0 L 1780.0 140.0 L 140.0 140.0 Z M 140.0 777.0 "></path></clipPath><g clip-path="url(#clip0x6080018ad2c0)"><g><clipPath id="clip0x6080018ad440"><path d="M 1233.3 565.2 L 1780.0 565.2 L 1780.0 777.0 L 1233.3 777.0 Z M 1233.3 565.2 "></path></clipPath><g clip-path="url(#clip0x6080018ad440)"><text xml:space="preserve" font-family="Helvetica-Bold,Helvetica" font-weight="bold" font-size="52.0" fill="#FEFFFE" transform="matrix(1.00, 0.00, -0.00, -1.00, 1281.8, 652.0)">T</text><text xml:space="preserve" font-family="Helvetica-Bold,Helvetica" font-weight="bold" font-size="52.0" fill="#FEFFFE" transform="matrix(1.00, 0.00, -0.00, -1.00, 1309.7, 652.0)">o</text><text xml:space="preserve" font-family="Helvetica-Bold,Helvetica" font-weight="bold" font-size="52.0" fill="#FEFFFE" transform="matrix(1.00, 0.00, -0.00, -1.00, 1341.5, 652.0)">t</text><text xml:space="preserve" font-family="Helvetica-Bold,Helvetica" font-weight="bold" font-size="52.0" fill="#FEFFFE" transform="matrix(1.00, 0.00, -0.00, -1.00, 1358.8, 652.0)">a</text><text xml:space="preserve" font-family="Helvetica-Bold,Helvetica" font-weight="bold" font-size="52.0" fill="#FEFFFE" transform="matrix(1.00, 0.00, -0.00, -1.00, 1387.7, 652.0)">l</text><text xml:space="preserve" font-family="Helvetica-Bold,Helvetica" font-weight="bold" font-size="52.0" fill="#FEFFFE" transform="matrix(1.00, 0.00, -0.00, -1.00, 1402.1, 652.0)"> </text><text xml:space="preserve" font-family="Helvetica-Bold,Helvetica" font-weight="bold" font-size="52.0" fill="#FEFFFE" transform="matrix(1.00, 0.00, -0.00, -1.00, 1416.6, 652.0)">P</text><text xml:space="preserve" font-family="Helvetica-Bold,Helvetica" font-weight="bold" font-size="52.0" fill="#FEFFFE" transform="matrix(1.00, 0.00, -0.00, -1.00, 1451.3, 652.0)">a</text><text xml:space="preserve" font-family="Helvetica-Bold,Helvetica" font-weight="bold" font-size="52.0" fill="#FEFFFE" transform="matrix(1.00, 0.00, -0.00, -1.00, 1480.2, 652.0)">r</text><text xml:space="preserve" font-family="Helvetica-Bold,Helvetica" font-weight="bold" font-size="52.0" fill="#FEFFFE" transform="matrix(1.00, 0.00, -0.00, -1.00, 1500.4, 652.0)">t</text><text xml:space="preserve" font-family="Helvetica-Bold,Helvetica" font-weight="bold" font-size="52.0" fill="#FEFFFE" transform="matrix(1.00, 0.00, -0.00, -1.00, 1517.8, 652.0)">i</text><text xml:space="preserve" font-family="Helvetica-Bold,Helvetica" font-weight="bold" font-size="52.0" fill="#FEFFFE" transform="matrix(1.00, 0.00, -0.00, -1.00, 1532.2, 652.0)">c</text><text xml:space="preserve" font-family="Helvetica-Bold,Helvetica" font-weight="bold" font-size="52.0" fill="#FEFFFE" transform="matrix(1.00, 0.00, -0.00, -1.00, 1561.1, 652.0)">i</text><text xml:space="preserve" font-family="Helvetica-Bold,Helvetica" font-weight="bold" font-size="52.0" fill="#FEFFFE" transform="matrix(1.00, 0.00, -0.00, -1.00, 1575.6, 652.0)">p</text><text xml:space="preserve" font-family="Helvetica-Bold,Helvetica" font-weight="bold" font-size="52.0" fill="#FEFFFE" transform="matrix(1.00, 0.00, -0.00, -1.00, 1607.3, 652.0)">a</text><text xml:space="preserve" font-family="Helvetica-Bold,Helvetica" font-weight="bold" font-size="52.0" fill="#FEFFFE" transform="matrix(1.00, 0.00, -0.00, -1.00, 1636.2, 652.0)">t</text><text xml:space="preserve" font-family="Helvetica-Bold,Helvetica" font-weight="bold" font-size="52.0" fill="#FEFFFE" transform="matrix(1.00, 0.00, -0.00, -1.00, 1653.6, 652.0)">i</text><text xml:space="preserve" font-family="Helvetica-Bold,Helvetica" font-weight="bold" font-size="52.0" fill="#FEFFFE" transform="matrix(1.00, 0.00, -0.00, -1.00, 1668.0, 652.0)">o</text><text xml:space="preserve" font-family="Helvetica-Bold,Helvetica" font-weight="bold" font-size="52.0" fill="#FEFFFE" transform="matrix(1.00, 0.00, -0.00, -1.00, 1699.7, 652.0)">n</text></g></g></g></g><g><clipPath id="clip0x6080018add40"><path d="M 140.0 777.0 L 1780.0 777.0 L 1780.0 140.0 L 140.0 140.0 Z M 140.0 777.0 "></path></clipPath><g clip-path="url(#clip0x6080018add40)"><g><clipPath id="clip0x6080018adec0"><path d="M 140.0 352.3 L 686.2 352.3 L 686.2 564.2 L 140.0 564.2 Z M 140.0 352.3 "></path></clipPath><g clip-path="url(#clip0x6080018adec0)"><text xml:space="preserve" font-family="Helvetica-Bold,Helvetica" font-weight="bold" font-size="52.0" fill="#FEFFFE" transform="matrix(1.00, 0.00, -0.00, -1.00, 310.5, 439.1)">N</text><text xml:space="preserve" font-family="Helvetica-Bold,Helvetica" font-weight="bold" font-size="52.0" fill="#FEFFFE" transform="matrix(1.00, 0.00, -0.00, -1.00, 348.1, 439.1)">o</text><text xml:space="preserve" font-family="Helvetica-Bold,Helvetica" font-weight="bold" font-size="52.0" fill="#FEFFFE" transform="matrix(1.00, 0.00, -0.00, -1.00, 379.8, 439.1)">n</text><text xml:space="preserve" font-family="Helvetica-Bold,Helvetica" font-weight="bold" font-size="52.0" fill="#FEFFFE" transform="matrix(1.00, 0.00, -0.00, -1.00, 411.6, 439.1)">-</text><text xml:space="preserve" font-family="Helvetica-Bold,Helvetica" font-weight="bold" font-size="52.0" fill="#FEFFFE" transform="matrix(1.00, 0.00, -0.00, -1.00, 428.9, 439.1)">k</text><text xml:space="preserve" font-family="Helvetica-Bold,Helvetica" font-weight="bold" font-size="52.0" fill="#FEFFFE" transform="matrix(1.00, 0.00, -0.00, -1.00, 457.8, 439.1)">e</text><text xml:space="preserve" font-family="Helvetica-Bold,Helvetica" font-weight="bold" font-size="52.0" fill="#FEFFFE" transform="matrix(1.00, 0.00, -0.00, -1.00, 486.8, 439.1)">y</text></g></g></g></g><g><clipPath id="clip0x6080018ae340"><path d="M 140.0 777.0 L 1780.0 777.0 L 1780.0 140.0 L 140.0 140.0 Z M 140.0 777.0 "></path></clipPath><g clip-path="url(#clip0x6080018ae340)"><g><clipPath id="clip0x6080018ae4c0"><path d="M 687.2 352.3 L 1233.3 352.3 L 1233.3 564.2 L 687.2 564.2 Z M 687.2 352.3 "></path></clipPath><g clip-path="url(#clip0x6080018ae4c0)"><text xml:space="preserve" font-family="Helvetica-Light,Helvetica" font-size="52.0" fill="#000000" transform="matrix(1.00, 0.00, -0.00, -1.00, 849.5, 439.1)">0</text><text xml:space="preserve" font-family="Helvetica-Light,Helvetica" font-size="52.0" fill="#000000" transform="matrix(1.00, 0.00, -0.00, -1.00, 878.4, 439.1)"> </text><text xml:space="preserve" font-family="Helvetica-Light,Helvetica" font-size="52.0" fill="#000000" transform="matrix(1.00, 0.00, -0.00, -1.00, 892.8, 439.1)">o</text><text xml:space="preserve" font-family="Helvetica-Light,Helvetica" font-size="52.0" fill="#000000" transform="matrix(1.00, 0.00, -0.00, -1.00, 921.7, 439.1)">r</text><text xml:space="preserve" font-family="Helvetica-Light,Helvetica" font-size="52.0" fill="#000000" transform="matrix(1.00, 0.00, -0.00, -1.00, 939.1, 439.1)"> </text><text xml:space="preserve" font-family="Helvetica-Light,Helvetica" font-size="52.0" fill="#000000" transform="matrix(1.00, 0.00, -0.00, -1.00, 953.5, 439.1)">m</text><text xml:space="preserve" font-family="Helvetica-Light,Helvetica" font-size="52.0" fill="#000000" transform="matrix(1.00, 0.00, -0.00, -1.00, 996.8, 439.1)">o</text><text xml:space="preserve" font-family="Helvetica-Light,Helvetica" font-size="52.0" fill="#000000" transform="matrix(1.00, 0.00, -0.00, -1.00, 1025.7, 439.1)">r</text><text xml:space="preserve" font-family="Helvetica-Light,Helvetica" font-size="52.0" fill="#000000" transform="matrix(1.00, 0.00, -0.00, -1.00, 1042.1, 439.1)">e</text></g></g></g></g><g><clipPath id="clip0x6080018aea00"><path d="M 140.0 777.0 L 1780.0 777.0 L 1780.0 140.0 L 140.0 140.0 Z M 140.0 777.0 "></path></clipPath><g clip-path="url(#clip0x6080018aea00)"><g><clipPath id="clip0x6080018aeb80"><path d="M 1233.3 352.3 L 1780.0 352.3 L 1780.0 564.2 L 1233.3 564.2 Z M 1233.3 352.3 "></path></clipPath><g clip-path="url(#clip0x6080018aeb80)"><text xml:space="preserve" font-family="Helvetica-Light,Helvetica" font-size="52.0" fill="#000000" transform="matrix(1.00, 0.00, -0.00, -1.00, 1395.9, 439.1)">1</text><text xml:space="preserve" font-family="Helvetica-Light,Helvetica" font-size="52.0" fill="#000000" transform="matrix(1.00, 0.00, -0.00, -1.00, 1424.8, 439.1)"> </text><text xml:space="preserve" font-family="Helvetica-Light,Helvetica" font-size="52.0" fill="#000000" transform="matrix(1.00, 0.00, -0.00, -1.00, 1439.2, 439.1)">o</text><text xml:space="preserve" font-family="Helvetica-Light,Helvetica" font-size="52.0" fill="#000000" transform="matrix(1.00, 0.00, -0.00, -1.00, 1468.2, 439.1)">r</text><text xml:space="preserve" font-family="Helvetica-Light,Helvetica" font-size="52.0" fill="#000000" transform="matrix(1.00, 0.00, -0.00, -1.00, 1485.5, 439.1)"> </text><text xml:space="preserve" font-family="Helvetica-Light,Helvetica" font-size="52.0" fill="#000000" transform="matrix(1.00, 0.00, -0.00, -1.00, 1499.9, 439.1)">m</text><text xml:space="preserve" font-family="Helvetica-Light,Helvetica" font-size="52.0" fill="#000000" transform="matrix(1.00, 0.00, -0.00, -1.00, 1543.2, 439.1)">o</text><text xml:space="preserve" font-family="Helvetica-Light,Helvetica" font-size="52.0" fill="#000000" transform="matrix(1.00, 0.00, -0.00, -1.00, 1572.2, 439.1)">r</text><text xml:space="preserve" font-family="Helvetica-Light,Helvetica" font-size="52.0" fill="#000000" transform="matrix(1.00, 0.00, -0.00, -1.00, 1588.5, 439.1)">e</text></g></g></g></g><g><clipPath id="clip0x6080018af0c0"><path d="M 140.0 777.0 L 1780.0 777.0 L 1780.0 140.0 L 140.0 140.0 Z M 140.0 777.0 "></path></clipPath><g clip-path="url(#clip0x6080018af0c0)"><g><clipPath id="clip0x6080018af240"><path d="M 140.0 140.0 L 686.2 140.0 L 686.2 352.3 L 140.0 352.3 Z M 140.0 140.0 "></path></clipPath><g clip-path="url(#clip0x6080018af240)"><text xml:space="preserve" font-family="Helvetica-Bold,Helvetica" font-weight="bold" font-size="52.0" fill="#FEFFFE" transform="matrix(1.00, 0.00, -0.00, -1.00, 365.4, 227.3)">K</text><text xml:space="preserve" font-family="Helvetica-Bold,Helvetica" font-weight="bold" font-size="52.0" fill="#FEFFFE" transform="matrix(1.00, 0.00, -0.00, -1.00, 403.0, 227.3)">e</text><text xml:space="preserve" font-family="Helvetica-Bold,Helvetica" font-weight="bold" font-size="52.0" fill="#FEFFFE" transform="matrix(1.00, 0.00, -0.00, -1.00, 431.9, 227.3)">y</text></g></g></g></g><g><clipPath id="clip0x6080018af540"><path d="M 140.0 777.0 L 1780.0 777.0 L 1780.0 140.0 L 140.0 140.0 Z M 140.0 777.0 "></path></clipPath><g clip-path="url(#clip0x6080018af540)"><g><clipPath id="clip0x6080018af6c0"><path d="M 687.2 140.0 L 1233.3 140.0 L 1233.3 352.3 L 687.2 352.3 Z M 687.2 140.0 "></path></clipPath><g clip-path="url(#clip0x6080018af6c0)"><text xml:space="preserve" font-family="Helvetica-Light,Helvetica" font-size="52.0" fill="#000000" transform="matrix(1.00, 0.00, -0.00, -1.00, 893.8, 227.3)">0</text><text xml:space="preserve" font-family="Helvetica-Light,Helvetica" font-size="52.0" fill="#000000" transform="matrix(1.00, 0.00, -0.00, -1.00, 922.7, 227.3)"> </text><text xml:space="preserve" font-family="Helvetica-Light,Helvetica" font-size="52.0" fill="#000000" transform="matrix(1.00, 0.00, -0.00, -1.00, 937.1, 227.3)">o</text><text xml:space="preserve" font-family="Helvetica-Light,Helvetica" font-size="52.0" fill="#000000" transform="matrix(1.00, 0.00, -0.00, -1.00, 966.0, 227.3)">r</text><text xml:space="preserve" font-family="Helvetica-Light,Helvetica" font-size="52.0" fill="#000000" transform="matrix(1.00, 0.00, -0.00, -1.00, 983.4, 227.3)"> </text><text xml:space="preserve" font-family="Helvetica-Light,Helvetica" font-size="52.0" fill="#000000" transform="matrix(1.00, 0.00, -0.00, -1.00, 997.8, 227.3)">1</text></g></g></g></g><g><clipPath id="clip0x6080018afae0"><path d="M 140.0 777.0 L 1780.0 777.0 L 1780.0 140.0 L 140.0 140.0 Z M 140.0 777.0 "></path></clipPath><g clip-path="url(#clip0x6080018afae0)"><g><clipPath id="clip0x6080018afc60"><path d="M 1233.3 140.0 L 1780.0 140.0 L 1780.0 352.3 L 1233.3 352.3 Z M 1233.3 140.0 "></path></clipPath><g clip-path="url(#clip0x6080018afc60)"><text xml:space="preserve" font-family="Helvetica-Light,Helvetica" font-size="52.0" fill="#000000" transform="matrix(1.00, 0.00, -0.00, -1.00, 1401.2, 227.3)">E</text><text xml:space="preserve" font-family="Helvetica-Light,Helvetica" font-size="52.0" fill="#000000" transform="matrix(1.00, 0.00, -0.00, -1.00, 1433.0, 227.3)">x</text><text xml:space="preserve" font-family="Helvetica-Light,Helvetica" font-size="52.0" fill="#000000" transform="matrix(1.00, 0.00, -0.00, -1.00, 1459.0, 227.3)">a</text><text xml:space="preserve" font-family="Helvetica-Light,Helvetica" font-size="52.0" fill="#000000" transform="matrix(1.00, 0.00, -0.00, -1.00, 1487.9, 227.3)">c</text><text xml:space="preserve" font-family="Helvetica-Light,Helvetica" font-size="52.0" fill="#000000" transform="matrix(1.00, 0.00, -0.00, -1.00, 1516.8, 227.3)">t</text><text xml:space="preserve" font-family="Helvetica-Light,Helvetica" font-size="52.0" fill="#000000" transform="matrix(1.00, 0.00, -0.00, -1.00, 1531.2, 227.3)">l</text><text xml:space="preserve" font-family="Helvetica-Light,Helvetica" font-size="52.0" fill="#000000" transform="matrix(1.00, 0.00, -0.00, -1.00, 1542.8, 227.3)">y</text><text xml:space="preserve" font-family="Helvetica-Light,Helvetica" font-size="52.0" fill="#000000" transform="matrix(1.00, 0.00, -0.00, -1.00, 1568.8, 227.3)"> </text><text xml:space="preserve" font-family="Helvetica-Light,Helvetica" font-size="52.0" fill="#000000" transform="matrix(1.00, 0.00, -0.00, -1.00, 1583.2, 227.3)">1</text></g></g></g></g><path d="M 0.2 0.5 L 170.2 0.5 " fill="none" stroke="#000000" stroke-width="2.00" transform="matrix(1.00, 0.00, 0.00, -1.00, 874.8, 397.5)"></path><path d="M -0.4 0.5 L 170.6 0.5 " fill="none" stroke="#000000" stroke-width="6.00" transform="matrix(1.00, 0.00, 0.00, -1.00, 1422.4, 397.5)"></path><path d="M 0.4 0.3 L 161.2 0.3 L 162.4 0.3 " fill="none" stroke="#000000" stroke-width="2.00" transform="matrix(1.00, 0.00, 0.00, -1.00, 874.6, 191.3)"></path><path d="M 1036.0 186.2 L 1045.6 191.0 L 1036.0 195.8 Z M 1036.0 186.2 " fill="#000000"></path><path d="M -0.2 -0.2 L 150.4 -0.2 L 152.8 -0.2 " fill="none" stroke="#000000" stroke-width="5.00" transform="matrix(1.00, 0.00, 0.00, -1.00, 1422.2, 191.3)"></path><path d="M 1572.5 181.3 L 1592.9 191.5 L 1572.5 201.7 Z M 1572.5 181.3 " fill="#000000"></path></g></svg>