<?xml version="1.0" encoding="UTF-8" standalone="no"?><svg xmlns="http://www.w3.org/2000/svg" xmlns:xlink="http://www.w3.org/1999/xlink" clip-rule="evenodd" stroke-miterlimit="10" viewBox="0 0 1920 1080"><desc>SVG generated by Keynote</desc><defs></defs><g transform="matrix(1.00, 0.00, -0.00, -1.00, 0.0, 1080.0)"><path d="M 0.0 1080.0 L 1920.0 1080.0 L 1920.0 0.0 L 0.0 0.0 Z M 0.0 1080.0 " fill="#FEFFFF"></path><text xml:space="preserve" font-family="Helvetica-Light,Helvetica" font-size="84.0" fill="#000000" transform="matrix(1.00, 0.00, -0.00, -1.00, 267.1, 574.3)">A</text><text xml:space="preserve" font-family="Helvetica-Light,Helvetica" font-size="84.0" fill="#000000" transform="matrix(1.00, 0.00, -0.00, -1.00, 323.1, 574.3)">n</text><text xml:space="preserve" font-family="Helvetica-Light,Helvetica" font-size="84.0" fill="#000000" transform="matrix(1.00, 0.00, -0.00, -1.00, 369.8, 574.3)">t</text><text xml:space="preserve" font-family="Helvetica-Light,Helvetica" font-size="84.0" fill="#000000" transform="matrix(1.00, 0.00, -0.00, -1.00, 393.2, 574.3)">h</text><text xml:space="preserve" font-family="Helvetica-Light,Helvetica" font-size="84.0" fill="#000000" transform="matrix(1.00, 0.00, -0.00, -1.00, 439.9, 574.3)">o</text><text xml:space="preserve" font-family="Helvetica-Light,Helvetica" font-size="84.0" fill="#000000" transform="matrix(1.00, 0.00, -0.00, -1.00, 486.6, 574.3)">n</text><text xml:space="preserve" font-family="Helvetica-Light,Helvetica" font-size="84.0" fill="#000000" transform="matrix(1.00, 0.00, -0.00, -1.00, 533.3, 574.3)">y</text><text xml:space="preserve" font-family="Helvetica-Light,Helvetica" font-size="84.0" fill="#000000" transform="matrix(1.00, 0.00, -0.00, -1.00, 575.3, 574.3)"> </text><text xml:space="preserve" font-family="Helvetica-Light,Helvetica" font-size="84.0" fill="#000000" transform="matrix(1.00, 0.00, -0.00, -1.00, 598.6, 574.3)">S</text><text xml:space="preserve" font-family="Helvetica-Light,Helvetica" font-size="84.0" fill="#000000" transform="matrix(1.00, 0.00, -0.00, -1.00, 649.9, 574.3)">u</text><text xml:space="preserve" font-family="Helvetica-Light,Helvetica" font-size="84.0" fill="#000000" transform="matrix(1.00, 0.00, -0.00, -1.00, 696.7, 574.3)">t</text><text xml:space="preserve" font-family="Helvetica-Light,Helvetica" font-size="84.0" fill="#000000" transform="matrix(1.00, 0.00, -0.00, -1.00, 720.0, 574.3)">a</text><text xml:space="preserve" font-family="Helvetica-Light,Helvetica" font-size="84.0" fill="#000000" transform="matrix(1.00, 0.00, -0.00, -1.00, 766.7, 574.3)">r</text><text xml:space="preserve" font-family="Helvetica-Light,Helvetica" font-size="84.0" fill="#000000" transform="matrix(1.00, 0.00, -0.00, -1.00, 793.2, 574.3)">d</text><text xml:space="preserve" font-family="Helvetica-Light,Helvetica" font-size="84.0" fill="#000000" transform="matrix(1.00, 0.00, -0.00, -1.00, 844.5, 574.3)">j</text><text xml:space="preserve" font-family="Helvetica-Light,Helvetica" font-size="84.0" fill="#000000" transform="matrix(1.00, 0.00, -0.00, -1.00, 863.1, 574.3)">a</text><text xml:space="preserve" font-family="Helvetica-Light,Helvetica" font-size="44.0" fill="#000000" transform="matrix(1.00, 0.00, -0.00, -1.00, 313.4, 494.1)"> </text><text xml:space="preserve" font-family="Helvetica-Light,Helvetica" font-size="44.0" fill="#000000" transform="matrix(1.00, 0.00, -0.00, -1.00, 325.6, 494.1)">B</text><text xml:space="preserve" font-family="Helvetica-Light,Helvetica" font-size="44.0" fill="#000000" transform="matrix(1.00, 0.00, -0.00, -1.00, 355.0, 494.1)">e</text><text xml:space="preserve" font-family="Helvetica-Light,Helvetica" font-size="44.0" fill="#000000" transform="matrix(1.00, 0.00, -0.00, -1.00, 379.4, 494.1)">r</text><text xml:space="preserve" font-family="Helvetica-Light,Helvetica" font-size="44.0" fill="#000000" transform="matrix(1.00, 0.00, -0.00, -1.00, 394.1, 494.1)">k</text><text xml:space="preserve" font-family="Helvetica-Light,Helvetica" font-size="44.0" fill="#000000" transform="matrix(1.00, 0.00, -0.00, -1.00, 416.1, 494.1)">e</text><text xml:space="preserve" font-family="Helvetica-Light,Helvetica" font-size="44.0" fill="#000000" transform="matrix(1.00, 0.00, -0.00, -1.00, 440.6, 494.1)">l</text><text xml:space="preserve" font-family="Helvetica-Light,Helvetica" font-size="44.0" fill="#000000" transform="matrix(1.00, 0.00, -0.00, -1.00, 450.3, 494.1)">e</text><text xml:space="preserve" font-family="Helvetica-Light,Helvetica" font-size="44.0" fill="#000000" transform="matrix(1.00, 0.00, -0.00, -1.00, 474.8, 494.1)">y</text><text xml:space="preserve" font-family="Helvetica-Light,Helvetica" font-size="44.0" fill="#000000" transform="matrix(1.00, 0.00, -0.00, -1.00, 496.8, 494.1)"> </text><text xml:space="preserve" font-family="Helvetica-Light,Helvetica" font-size="44.0" fill="#000000" transform="matrix(1.00, 0.00, -0.00, -1.00, 509.0, 494.1)">E</text><text xml:space="preserve" font-family="Helvetica-Light,Helvetica" font-size="44.0" fill="#000000" transform="matrix(1.00, 0.00, -0.00, -1.00, 535.9, 494.1)">E</text><text xml:space="preserve" font-family="Helvetica-Light,Helvetica" font-size="44.0" fill="#000000" transform="matrix(1.00, 0.00, -0.00, -1.00, 562.8, 494.1)">C</text><text xml:space="preserve" font-family="Helvetica-Light,Helvetica" font-size="44.0" fill="#000000" transform="matrix(1.00, 0.00, -0.00, -1.00, 594.6, 494.1)">S</text><text xml:space="preserve" font-family="Helvetica-Light,Helvetica" font-size="44.0" fill="#000000" transform="matrix(1.00, 0.00, -0.00, -1.00, 621.4, 494.1)"> </text><text xml:space="preserve" font-family="Helvetica-Light,Helvetica" font-size="44.0" fill="#000000" transform="matrix(1.00, 0.00, -0.00, -1.00, 633.7, 494.1)">B</text><text xml:space="preserve" font-family="Helvetica-Light,Helvetica" font-size="44.0" fill="#000000" transform="matrix(1.00, 0.00, -0.00, -1.00, 663.0, 494.1)">.</text><text xml:space="preserve" font-family="Helvetica-Light,Helvetica" font-size="44.0" fill="#000000" transform="matrix(1.00, 0.00, -0.00, -1.00, 675.2, 494.1)">S</text><text xml:space="preserve" font-family="Helvetica-Light,Helvetica" font-size="44.0" fill="#000000" transform="matrix(1.00, 0.00, -0.00, -1.00, 702.1, 494.1)">.</text><text xml:space="preserve" font-family="Helvetica-Light,Helvetica" font-size="44.0" fill="#000000" transform="matrix(1.00, 0.00, -0.00, -1.00, 714.4, 494.1)"> </text><text xml:space="preserve" font-family="Helvetica-Light,Helvetica" font-size="44.0" fill="#000000" transform="matrix(1.00, 0.00, -0.00, -1.00, 726.6, 494.1)"> </text><text xml:space="preserve" font-family="Helvetica-Light,Helvetica" font-size="44.0" fill="#000000" transform="matrix(1.00, 0.00, -0.00, -1.00, 738.8, 494.1)"> </text><text xml:space="preserve" font-family="Helvetica-Light,Helvetica" font-size="44.0" fill="#000000" transform="matrix(1.00, 0.00, -0.00, -1.00, 751.1, 494.1)"> </text><text xml:space="preserve" font-family="Helvetica-Light,Helvetica" font-size="44.0" fill="#000000" transform="matrix(1.00, 0.00, -0.00, -1.00, 763.3, 494.1)"> </text><text xml:space="preserve" font-family="Helvetica-Light,Helvetica" font-size="44.0" fill="#000000" transform="matrix(1.00, 0.00, -0.00, -1.00, 775.5, 494.1)"> </text><text xml:space="preserve" font-family="Helvetica-Light,Helvetica" font-size="44.0" fill="#000000" transform="matrix(1.00, 0.00, -0.00, -1.00, 787.8, 494.1)">’</text><text xml:space="preserve" font-family="Helvetica-Light,Helvetica" font-size="44.0" fill="#000000" transform="matrix(1.00, 0.00, -0.00, -1.00, 797.5, 494.1)">1</text><text xml:space="preserve" font-family="Helvetica-Light,Helvetica" font-size="44.0" fill="#000000" transform="matrix(1.00, 0.00, -0.00, -1.00, 822.0, 494.1)">4</text><text xml:space="preserve" font-family="Helvetica-Light,Helvetica" font-size="44.0" fill="#000000" transform="matrix(1.00, 0.00, -0.00, -1.00, 846.5, 494.1)"> </text><text xml:space="preserve" font-family="Helvetica-Light,Helvetica" font-size="44.0" fill="#52575F" transform="matrix(1.00, 0.00, -0.00, -1.00, 313.4, 441.1)">(</text><text xml:space="preserve" font-family="Helvetica-Light,Helvetica" font-size="44.0" fill="#52575F" transform="matrix(1.00, 0.00, -0.00, -1.00, 328.0, 441.1)">B</text><text xml:space="preserve" font-family="Helvetica-Light,Helvetica" font-size="44.0" fill="#52575F" transform="matrix(1.00, 0.00, -0.00, -1.00, 357.4, 441.1)">e</text><text xml:space="preserve" font-family="Helvetica-Light,Helvetica" font-size="44.0" fill="#52575F" transform="matrix(1.00, 0.00, -0.00, -1.00, 381.9, 441.1)">r</text><text xml:space="preserve" font-family="Helvetica-Light,Helvetica" font-size="44.0" fill="#52575F" transform="matrix(1.00, 0.00, -0.00, -1.00, 396.5, 441.1)">k</text><text xml:space="preserve" font-family="Helvetica-Light,Helvetica" font-size="44.0" fill="#52575F" transform="matrix(1.00, 0.00, -0.00, -1.00, 418.5, 441.1)">e</text><text xml:space="preserve" font-family="Helvetica-Light,Helvetica" font-size="44.0" fill="#52575F" transform="matrix(1.00, 0.00, -0.00, -1.00, 443.0, 441.1)">l</text><text xml:space="preserve" font-family="Helvetica-Light,Helvetica" font-size="44.0" fill="#52575F" transform="matrix(1.00, 0.00, -0.00, -1.00, 452.7, 441.1)">e</text><text xml:space="preserve" font-family="Helvetica-Light,Helvetica" font-size="44.0" fill="#52575F" transform="matrix(1.00, 0.00, -0.00, -1.00, 477.2, 441.1)">y</text><text xml:space="preserve" font-family="Helvetica-Light,Helvetica" font-size="44.0" fill="#52575F" transform="matrix(1.00, 0.00, -0.00, -1.00, 499.2, 441.1)"> </text><text xml:space="preserve" font-family="Helvetica-Light,Helvetica" font-size="44.0" fill="#52575F" transform="matrix(1.00, 0.00, -0.00, -1.00, 511.4, 441.1)">E</text><text xml:space="preserve" font-family="Helvetica-Light,Helvetica" font-size="44.0" fill="#52575F" transform="matrix(1.00, 0.00, -0.00, -1.00, 538.3, 441.1)">E</text><text xml:space="preserve" font-family="Helvetica-Light,Helvetica" font-size="44.0" fill="#52575F" transform="matrix(1.00, 0.00, -0.00, -1.00, 565.2, 441.1)">C</text><text xml:space="preserve" font-family="Helvetica-Light,Helvetica" font-size="44.0" fill="#52575F" transform="matrix(1.00, 0.00, -0.00, -1.00, 597.0, 441.1)">S</text><text xml:space="preserve" font-family="Helvetica-Light,Helvetica" font-size="44.0" fill="#52575F" transform="matrix(1.00, 0.00, -0.00, -1.00, 623.9, 441.1)"> </text><text xml:space="preserve" font-family="Helvetica-Light,Helvetica" font-size="44.0" fill="#52575F" transform="matrix(1.00, 0.00, -0.00, -1.00, 636.1, 441.1)">M</text><text xml:space="preserve" font-family="Helvetica-Light,Helvetica" font-size="44.0" fill="#52575F" transform="matrix(1.00, 0.00, -0.00, -1.00, 672.7, 441.1)">.</text><text xml:space="preserve" font-family="Helvetica-Light,Helvetica" font-size="44.0" fill="#52575F" transform="matrix(1.00, 0.00, -0.00, -1.00, 685.0, 441.1)">E</text><text xml:space="preserve" font-family="Helvetica-Light,Helvetica" font-size="44.0" fill="#52575F" transform="matrix(1.00, 0.00, -0.00, -1.00, 711.9, 441.1)">n</text><text xml:space="preserve" font-family="Helvetica-Light,Helvetica" font-size="44.0" fill="#52575F" transform="matrix(1.00, 0.00, -0.00, -1.00, 736.3, 441.1)">g</text><text xml:space="preserve" font-family="Helvetica-Light,Helvetica" font-size="44.0" fill="#52575F" transform="matrix(1.00, 0.00, -0.00, -1.00, 763.2, 441.1)">.</text><text xml:space="preserve" font-family="Helvetica-Light,Helvetica" font-size="44.0" fill="#52575F" transform="matrix(1.00, 0.00, -0.00, -1.00, 775.4, 441.1)"> </text><text xml:space="preserve" font-family="Helvetica-Light,Helvetica" font-size="44.0" fill="#52575F" transform="matrix(1.00, 0.00, -0.00, -1.00, 787.7, 441.1)">’</text><text xml:space="preserve" font-family="Helvetica-Light,Helvetica" font-size="44.0" fill="#52575F" transform="matrix(1.00, 0.00, -0.00, -1.00, 797.4, 441.1)">1</text><text xml:space="preserve" font-family="Helvetica-Light,Helvetica" font-size="44.0" fill="#52575F" transform="matrix(1.00, 0.00, -0.00, -1.00, 821.9, 441.1)">5</text><text xml:space="preserve" font-family="Helvetica-Light,Helvetica" font-size="44.0" fill="#52575F" transform="matrix(1.00, 0.00, -0.00, -1.00, 846.4, 441.1)">)</text><image xlink:href="../../A5EA194A-7E60-42E2-9FD9-19136A85E0FB/assets/2496AB94BE9AC46B6513FD2FB8B1DC73.jpeg" width="536.00" height="536.00" transform="matrix(0.61, 0.00, -0.00, -0.61, 1217.0, 1043.0)"></image><image xlink:href="../../A5EA194A-7E60-42E2-9FD9-19136A85E0FB/assets/A422B275ED3FA0D4145691E02FE4E8F3.jpeg" width="1330.00" height="1330.00" transform="matrix(0.25, 0.00, -0.00, -0.25, 1553.0, 1043.0)"></image><image xlink:href="../../A5EA194A-7E60-42E2-9FD9-19136A85E0FB/assets/F99133884879A17D065B403CA3E12F9E.jpeg" width="827.00" height="827.00" transform="matrix(0.40, 0.00, -0.00, -0.40, 1217.0, 704.0)"></image><image xlink:href="../../A5EA194A-7E60-42E2-9FD9-19136A85E0FB/assets/65F33E5AC6B9F6135A5B531D6FA81262.jpeg" width="980.00" height="980.00" transform="matrix(0.34, 0.00, -0.00, -0.33, 1553.0, 704.0)"></image><image xlink:href="../../A5EA194A-7E60-42E2-9FD9-19136A85E0FB/assets/EF6AB7A079661D7F7E1F70997123813D.jpeg" width="1154.00" height="1154.00" transform="matrix(0.29, 0.00, -0.00, -0.29, 1553.0, 366.0)"></image><image xlink:href="../../A5EA194A-7E60-42E2-9FD9-19136A85E0FB/assets/DBAC44CAB4B29F47BEBADAB7CED1D325.jpeg" width="1085.00" height="1085.00" transform="matrix(0.30, 0.00, -0.00, -0.30, 1217.0, 366.0)"></image><text xml:space="preserve" font-family="Helvetica-Light,Helvetica" font-size="35.6" fill="#A6AAA8" transform="matrix(1.00, 0.00, -0.00, -1.00, 331.3, 285.6)">O</text><text xml:space="preserve" font-family="Helvetica-Light,Helvetica" font-size="35.6" fill="#A6AAA8" transform="matrix(1.00, 0.00, -0.00, -1.00, 359.0, 285.6)">f</text><text xml:space="preserve" font-family="Helvetica-Light,Helvetica" font-size="35.6" fill="#A6AAA8" transform="matrix(1.00, 0.00, -0.00, -1.00, 368.3, 285.6)">ﬁ</text><text xml:space="preserve" font-family="Helvetica-Light,Helvetica" font-size="35.6" fill="#A6AAA8" transform="matrix(1.00, 0.00, -0.00, -1.00, 386.1, 285.6)">c</text><text xml:space="preserve" font-family="Helvetica-Light,Helvetica" font-size="35.6" fill="#A6AAA8" transform="matrix(1.00, 0.00, -0.00, -1.00, 405.9, 285.6)">e</text><text xml:space="preserve" font-family="Helvetica-Light,Helvetica" font-size="35.6" fill="#A6AAA8" transform="matrix(1.00, 0.00, -0.00, -1.00, 425.7, 285.6)"> </text><text xml:space="preserve" font-family="Helvetica-Light,Helvetica" font-size="35.6" fill="#A6AAA8" transform="matrix(1.00, 0.00, -0.00, -1.00, 435.6, 285.6)">H</text><text xml:space="preserve" font-family="Helvetica-Light,Helvetica" font-size="35.6" fill="#A6AAA8" transform="matrix(1.00, 0.00, -0.00, -1.00, 461.4, 285.6)">o</text><text xml:space="preserve" font-family="Helvetica-Light,Helvetica" font-size="35.6" fill="#A6AAA8" transform="matrix(1.00, 0.00, -0.00, -1.00, 481.2, 285.6)">u</text><text xml:space="preserve" font-family="Helvetica-Light,Helvetica" font-size="35.6" fill="#A6AAA8" transform="matrix(1.00, 0.00, -0.00, -1.00, 501.0, 285.6)">r</text><text xml:space="preserve" font-family="Helvetica-Light,Helvetica" font-size="35.6" fill="#A6AAA8" transform="matrix(1.00, 0.00, -0.00, -1.00, 512.9, 285.6)">s</text><text xml:space="preserve" font-family="Helvetica-Light,Helvetica" font-size="35.6" fill="#A6AAA8" transform="matrix(1.00, 0.00, -0.00, -1.00, 530.7, 285.6)"> </text><text xml:space="preserve" font-family="Helvetica-Light,Helvetica" font-size="35.6" fill="#000000" transform="matrix(1.00, 0.00, -0.00, -1.00, 331.3, 243.6)">M</text><text xml:space="preserve" font-family="Helvetica-Light,Helvetica" font-size="35.6" fill="#000000" transform="matrix(1.00, 0.00, -0.00, -1.00, 361.0, 243.6)">o</text><text xml:space="preserve" font-family="Helvetica-Light,Helvetica" font-size="35.6" fill="#000000" transform="matrix(1.00, 0.00, -0.00, -1.00, 380.8, 243.6)">n</text><text xml:space="preserve" font-family="Helvetica-Light,Helvetica" font-size="35.6" fill="#000000" transform="matrix(1.00, 0.00, -0.00, -1.00, 400.6, 243.6)">d</text><text xml:space="preserve" font-family="Helvetica-Light,Helvetica" font-size="35.6" fill="#000000" transform="matrix(1.00, 0.00, -0.00, -1.00, 422.4, 243.6)">a</text><text xml:space="preserve" font-family="Helvetica-Light,Helvetica" font-size="35.6" fill="#000000" transform="matrix(1.00, 0.00, -0.00, -1.00, 442.2, 243.6)">y</text><text xml:space="preserve" font-family="Helvetica-Light,Helvetica" font-size="35.6" fill="#000000" transform="matrix(1.00, 0.00, -0.00, -1.00, 460.0, 243.6)"> </text><text xml:space="preserve" font-family="Helvetica-Light,Helvetica" font-size="35.6" fill="#000000" transform="matrix(1.00, 0.00, -0.00, -1.00, 469.9, 243.6)">1</text><text xml:space="preserve" font-family="Helvetica-Light,Helvetica" font-size="35.6" fill="#000000" transform="matrix(1.00, 0.00, -0.00, -1.00, 489.7, 243.6)">:</text><text xml:space="preserve" font-family="Helvetica-Light,Helvetica" font-size="35.6" fill="#000000" transform="matrix(1.00, 0.00, -0.00, -1.00, 499.6, 243.6)">0</text><text xml:space="preserve" font-family="Helvetica-Light,Helvetica" font-size="35.6" fill="#000000" transform="matrix(1.00, 0.00, -0.00, -1.00, 519.4, 243.6)">0</text><text xml:space="preserve" font-family="Helvetica-Light,Helvetica" font-size="35.6" fill="#000000" transform="matrix(1.00, 0.00, -0.00, -1.00, 539.3, 243.6)">p</text><text xml:space="preserve" font-family="Helvetica-Light,Helvetica" font-size="35.6" fill="#000000" transform="matrix(1.00, 0.00, -0.00, -1.00, 561.0, 243.6)">m</text><text xml:space="preserve" font-family="Helvetica-Light,Helvetica" font-size="35.6" fill="#000000" transform="matrix(1.00, 0.00, -0.00, -1.00, 590.7, 243.6)"> </text><text xml:space="preserve" font-family="Helvetica-Light,Helvetica" font-size="35.6" fill="#000000" transform="matrix(1.00, 0.00, -0.00, -1.00, 600.6, 243.6)">-</text><text xml:space="preserve" font-family="Helvetica-Light,Helvetica" font-size="35.6" fill="#000000" transform="matrix(1.00, 0.00, -0.00, -1.00, 612.5, 243.6)"> </text><text xml:space="preserve" font-family="Helvetica-Light,Helvetica" font-size="35.6" fill="#000000" transform="matrix(1.00, 0.00, -0.00, -1.00, 622.4, 243.6)">S</text><text xml:space="preserve" font-family="Helvetica-Light,Helvetica" font-size="35.6" fill="#000000" transform="matrix(1.00, 0.00, -0.00, -1.00, 644.2, 243.6)">o</text><text xml:space="preserve" font-family="Helvetica-Light,Helvetica" font-size="35.6" fill="#000000" transform="matrix(1.00, 0.00, -0.00, -1.00, 664.0, 243.6)">d</text><text xml:space="preserve" font-family="Helvetica-Light,Helvetica" font-size="35.6" fill="#000000" transform="matrix(1.00, 0.00, -0.00, -1.00, 685.8, 243.6)">a</text><text xml:space="preserve" font-family="Helvetica-Light,Helvetica" font-size="35.6" fill="#000000" transform="matrix(1.00, 0.00, -0.00, -1.00, 705.6, 243.6)"> </text><text xml:space="preserve" font-family="Helvetica-Light,Helvetica" font-size="35.6" fill="#000000" transform="matrix(1.00, 0.00, -0.00, -1.00, 715.5, 243.6)">4</text><text xml:space="preserve" font-family="Helvetica-Light,Helvetica" font-size="35.6" fill="#000000" transform="matrix(1.00, 0.00, -0.00, -1.00, 735.3, 243.6)">1</text><text xml:space="preserve" font-family="Helvetica-Light,Helvetica" font-size="35.6" fill="#000000" transform="matrix(1.00, 0.00, -0.00, -1.00, 755.1, 243.6)">1</text><text xml:space="preserve" font-family="Helvetica-Light,Helvetica" font-size="35.6" fill="#000000" transform="matrix(1.00, 0.00, -0.00, -1.00, 775.0, 243.6)"> </text><text xml:space="preserve" font-family="Helvetica-Light,Helvetica" font-size="35.6" fill="#000000" transform="matrix(1.00, 0.00, -0.00, -1.00, 331.3, 201.6)">T</text><text xml:space="preserve" font-family="Helvetica-Light,Helvetica" font-size="35.6" fill="#000000" transform="matrix(1.00, 0.00, -0.00, -1.00, 347.8, 201.6)">u</text><text xml:space="preserve" font-family="Helvetica-Light,Helvetica" font-size="35.6" fill="#000000" transform="matrix(1.00, 0.00, -0.00, -1.00, 367.6, 201.6)">e</text><text xml:space="preserve" font-family="Helvetica-Light,Helvetica" font-size="35.6" fill="#000000" transform="matrix(1.00, 0.00, -0.00, -1.00, 387.4, 201.6)">s</text><text xml:space="preserve" font-family="Helvetica-Light,Helvetica" font-size="35.6" fill="#000000" transform="matrix(1.00, 0.00, -0.00, -1.00, 405.3, 201.6)">d</text><text xml:space="preserve" font-family="Helvetica-Light,Helvetica" font-size="35.6" fill="#000000" transform="matrix(1.00, 0.00, -0.00, -1.00, 427.0, 201.6)">a</text><text xml:space="preserve" font-family="Helvetica-Light,Helvetica" font-size="35.6" fill="#000000" transform="matrix(1.00, 0.00, -0.00, -1.00, 446.8, 201.6)">y</text><text xml:space="preserve" font-family="Helvetica-Light,Helvetica" font-size="35.6" fill="#000000" transform="matrix(1.00, 0.00, -0.00, -1.00, 464.7, 201.6)"> </text><text xml:space="preserve" font-family="Helvetica-Light,Helvetica" font-size="35.6" fill="#000000" transform="matrix(1.00, 0.00, -0.00, -1.00, 474.6, 201.6)">8</text><text xml:space="preserve" font-family="Helvetica-Light,Helvetica" font-size="35.6" fill="#000000" transform="matrix(1.00, 0.00, -0.00, -1.00, 494.4, 201.6)">:</text><text xml:space="preserve" font-family="Helvetica-Light,Helvetica" font-size="35.6" fill="#000000" transform="matrix(1.00, 0.00, -0.00, -1.00, 504.3, 201.6)">3</text><text xml:space="preserve" font-family="Helvetica-Light,Helvetica" font-size="35.6" fill="#000000" transform="matrix(1.00, 0.00, -0.00, -1.00, 524.1, 201.6)">0</text><text xml:space="preserve" font-family="Helvetica-Light,Helvetica" font-size="35.6" fill="#000000" transform="matrix(1.00, 0.00, -0.00, -1.00, 543.9, 201.6)">a</text><text xml:space="preserve" font-family="Helvetica-Light,Helvetica" font-size="35.6" fill="#000000" transform="matrix(1.00, 0.00, -0.00, -1.00, 563.7, 201.6)">m</text><text xml:space="preserve" font-family="Helvetica-Light,Helvetica" font-size="35.6" fill="#000000" transform="matrix(1.00, 0.00, -0.00, -1.00, 593.4, 201.6)"> </text><text xml:space="preserve" font-family="Helvetica-Light,Helvetica" font-size="35.6" fill="#000000" transform="matrix(1.00, 0.00, -0.00, -1.00, 603.3, 201.6)">-</text><text xml:space="preserve" font-family="Helvetica-Light,Helvetica" font-size="35.6" fill="#000000" transform="matrix(1.00, 0.00, -0.00, -1.00, 615.2, 201.6)"> </text><text xml:space="preserve" font-family="Helvetica-Light,Helvetica" font-size="35.6" fill="#000000" transform="matrix(1.00, 0.00, -0.00, -1.00, 625.1, 201.6)">S</text><text xml:space="preserve" font-family="Helvetica-Light,Helvetica" font-size="35.6" fill="#000000" transform="matrix(1.00, 0.00, -0.00, -1.00, 646.9, 201.6)">o</text><text xml:space="preserve" font-family="Helvetica-Light,Helvetica" font-size="35.6" fill="#000000" transform="matrix(1.00, 0.00, -0.00, -1.00, 666.7, 201.6)">d</text><text xml:space="preserve" font-family="Helvetica-Light,Helvetica" font-size="35.6" fill="#000000" transform="matrix(1.00, 0.00, -0.00, -1.00, 688.5, 201.6)">a</text><text xml:space="preserve" font-family="Helvetica-Light,Helvetica" font-size="35.6" fill="#000000" transform="matrix(1.00, 0.00, -0.00, -1.00, 708.3, 201.6)"> </text><text xml:space="preserve" font-family="Helvetica-Light,Helvetica" font-size="35.6" fill="#000000" transform="matrix(1.00, 0.00, -0.00, -1.00, 718.2, 201.6)">6</text><text xml:space="preserve" font-family="Helvetica-Light,Helvetica" font-size="35.6" fill="#000000" transform="matrix(1.00, 0.00, -0.00, -1.00, 738.0, 201.6)">1</text><text xml:space="preserve" font-family="Helvetica-Light,Helvetica" font-size="35.6" fill="#000000" transform="matrix(1.00, 0.00, -0.00, -1.00, 757.8, 201.6)">1</text><text xml:space="preserve" font-family="Helvetica-Light,Helvetica" font-size="35.6" fill="#000000" transform="matrix(1.00, 0.00, -0.00, -1.00, 777.7, 201.6)"> </text></g></svg>