<?xml version="1.0" encoding="UTF-8" standalone="no"?><svg xmlns="http://www.w3.org/2000/svg" xmlns:xlink="http://www.w3.org/1999/xlink" clip-rule="evenodd" stroke-miterlimit="10" viewBox="0 0 1920 1080"><desc>SVG generated by Keynote</desc><defs></defs><g transform="matrix(1.00, 0.00, -0.00, -1.00, 0.0, 1080.0)"><path d="M 0.0 1080.0 L 1920.0 1080.0 L 1920.0 0.0 L 0.0 0.0 Z M 0.0 1080.0 " fill="#FEFFFF"></path><text xml:space="preserve" font-family="Helvetica-Light,Helvetica" font-size="112.0" fill="#000000" transform="matrix(1.00, 0.00, -0.00, -1.00, 563.8, 873.8)">S</text><text xml:space="preserve" font-family="Helvetica-Light,Helvetica" font-size="112.0" fill="#000000" transform="matrix(1.00, 0.00, -0.00, -1.00, 632.2, 873.8)">o</text><text xml:space="preserve" font-family="Helvetica-Light,Helvetica" font-size="112.0" fill="#000000" transform="matrix(1.00, 0.00, -0.00, -1.00, 694.5, 873.8)">r</text><text xml:space="preserve" font-family="Helvetica-Light,Helvetica" font-size="112.0" fill="#000000" transform="matrix(1.00, 0.00, -0.00, -1.00, 733.8, 873.8)">t</text><text xml:space="preserve" font-family="Helvetica-Light,Helvetica" font-size="112.0" fill="#000000" transform="matrix(1.00, 0.00, -0.00, -1.00, 765.0, 873.8)"> </text><text xml:space="preserve" font-family="Helvetica-Light,Helvetica" font-size="112.0" fill="#000000" transform="matrix(1.00, 0.00, -0.00, -1.00, 796.1, 873.8)">M</text><text xml:space="preserve" font-family="Helvetica-Light,Helvetica" font-size="112.0" fill="#000000" transform="matrix(1.00, 0.00, -0.00, -1.00, 889.4, 873.8)">e</text><text xml:space="preserve" font-family="Helvetica-Light,Helvetica" font-size="112.0" fill="#000000" transform="matrix(1.00, 0.00, -0.00, -1.00, 951.7, 873.8)">r</text><text xml:space="preserve" font-family="Helvetica-Light,Helvetica" font-size="112.0" fill="#000000" transform="matrix(1.00, 0.00, -0.00, -1.00, 989.0, 873.8)">g</text><text xml:space="preserve" font-family="Helvetica-Light,Helvetica" font-size="112.0" fill="#000000" transform="matrix(1.00, 0.00, -0.00, -1.00, 1057.4, 873.8)">e</text><text xml:space="preserve" font-family="Helvetica-Light,Helvetica" font-size="112.0" fill="#000000" transform="matrix(1.00, 0.00, -0.00, -1.00, 1119.7, 873.8)"> </text><text xml:space="preserve" font-family="Helvetica-Light,Helvetica" font-size="112.0" fill="#000000" transform="matrix(1.00, 0.00, -0.00, -1.00, 1150.8, 873.8)">J</text><text xml:space="preserve" font-family="Helvetica-Light,Helvetica" font-size="112.0" fill="#000000" transform="matrix(1.00, 0.00, -0.00, -1.00, 1206.8, 873.8)">o</text><text xml:space="preserve" font-family="Helvetica-Light,Helvetica" font-size="112.0" fill="#000000" transform="matrix(1.00, 0.00, -0.00, -1.00, 1269.1, 873.8)">i</text><text xml:space="preserve" font-family="Helvetica-Light,Helvetica" font-size="112.0" fill="#000000" transform="matrix(1.00, 0.00, -0.00, -1.00, 1293.9, 873.8)">n</text><text xml:space="preserve" font-family="Inconsolata,Inconsolata" font-size="75.0" fill="#000000" transform="matrix(1.00, 0.00, -0.00, -1.00, 351.6, 609.6)">e</text><text xml:space="preserve" font-family="Inconsolata,Inconsolata" font-size="75.0" fill="#000000" transform="matrix(1.00, 0.00, -0.00, -1.00, 389.1, 609.6)">x</text><text xml:space="preserve" font-family="Inconsolata,Inconsolata" font-size="75.0" fill="#000000" transform="matrix(1.00, 0.00, -0.00, -1.00, 426.6, 609.6)">t</text><text xml:space="preserve" font-family="Inconsolata,Inconsolata" font-size="75.0" fill="#000000" transform="matrix(1.00, 0.00, -0.00, -1.00, 464.1, 609.6)">e</text><text xml:space="preserve" font-family="Inconsolata,Inconsolata" font-size="75.0" fill="#000000" transform="matrix(1.00, 0.00, -0.00, -1.00, 501.6, 609.6)">r</text><text xml:space="preserve" font-family="Inconsolata,Inconsolata" font-size="75.0" fill="#000000" transform="matrix(1.00, 0.00, -0.00, -1.00, 539.1, 609.6)">n</text><text xml:space="preserve" font-family="Inconsolata,Inconsolata" font-size="75.0" fill="#000000" transform="matrix(1.00, 0.00, -0.00, -1.00, 576.6, 609.6)">a</text><text xml:space="preserve" font-family="Inconsolata,Inconsolata" font-size="75.0" fill="#000000" transform="matrix(1.00, 0.00, -0.00, -1.00, 614.1, 609.6)">l</text><text xml:space="preserve" font-family="Inconsolata,Inconsolata" font-size="75.0" fill="#000000" transform="matrix(1.00, 0.00, -0.00, -1.00, 651.6, 609.6)">_</text><text xml:space="preserve" font-family="Inconsolata,Inconsolata" font-size="75.0" fill="#000000" transform="matrix(1.00, 0.00, -0.00, -1.00, 689.1, 609.6)">s</text><text xml:space="preserve" font-family="Inconsolata,Inconsolata" font-size="75.0" fill="#000000" transform="matrix(1.00, 0.00, -0.00, -1.00, 726.6, 609.6)">o</text><text xml:space="preserve" font-family="Inconsolata,Inconsolata" font-size="75.0" fill="#000000" transform="matrix(1.00, 0.00, -0.00, -1.00, 764.1, 609.6)">r</text><text xml:space="preserve" font-family="Inconsolata,Inconsolata" font-size="75.0" fill="#000000" transform="matrix(1.00, 0.00, -0.00, -1.00, 801.6, 609.6)">t</text><text xml:space="preserve" font-family="Inconsolata,Inconsolata" font-size="75.0" fill="#000000" transform="matrix(1.00, 0.00, -0.00, -1.00, 839.1, 609.6)">(</text><text xml:space="preserve" font-family="Inconsolata,Inconsolata" font-size="75.0" fill="#0264C0" transform="matrix(1.00, 0.00, -0.00, -1.00, 876.6, 609.6)">R</text><text xml:space="preserve" font-family="Inconsolata,Inconsolata" font-size="75.0" fill="#000000" transform="matrix(1.00, 0.00, -0.00, -1.00, 914.1, 609.6)">)</text><text xml:space="preserve" font-family="Inconsolata,Inconsolata" font-size="75.0" fill="#000000" transform="matrix(1.00, 0.00, -0.00, -1.00, 951.6, 609.6)"> </text><text xml:space="preserve" font-family="Inconsolata,Inconsolata" font-size="75.0" fill="#000000" transform="matrix(1.00, 0.00, -0.00, -1.00, 351.6, 526.6)">e</text><text xml:space="preserve" font-family="Inconsolata,Inconsolata" font-size="75.0" fill="#000000" transform="matrix(1.00, 0.00, -0.00, -1.00, 389.1, 526.6)">x</text><text xml:space="preserve" font-family="Inconsolata,Inconsolata" font-size="75.0" fill="#000000" transform="matrix(1.00, 0.00, -0.00, -1.00, 426.6, 526.6)">t</text><text xml:space="preserve" font-family="Inconsolata,Inconsolata" font-size="75.0" fill="#000000" transform="matrix(1.00, 0.00, -0.00, -1.00, 464.1, 526.6)">e</text><text xml:space="preserve" font-family="Inconsolata,Inconsolata" font-size="75.0" fill="#000000" transform="matrix(1.00, 0.00, -0.00, -1.00, 501.6, 526.6)">r</text><text xml:space="preserve" font-family="Inconsolata,Inconsolata" font-size="75.0" fill="#000000" transform="matrix(1.00, 0.00, -0.00, -1.00, 539.1, 526.6)">n</text><text xml:space="preserve" font-family="Inconsolata,Inconsolata" font-size="75.0" fill="#000000" transform="matrix(1.00, 0.00, -0.00, -1.00, 576.6, 526.6)">a</text><text xml:space="preserve" font-family="Inconsolata,Inconsolata" font-size="75.0" fill="#000000" transform="matrix(1.00, 0.00, -0.00, -1.00, 614.1, 526.6)">l</text><text xml:space="preserve" font-family="Inconsolata,Inconsolata" font-size="75.0" fill="#000000" transform="matrix(1.00, 0.00, -0.00, -1.00, 651.6, 526.6)">_</text><text xml:space="preserve" font-family="Inconsolata,Inconsolata" font-size="75.0" fill="#000000" transform="matrix(1.00, 0.00, -0.00, -1.00, 689.1, 526.6)">s</text><text xml:space="preserve" font-family="Inconsolata,Inconsolata" font-size="75.0" fill="#000000" transform="matrix(1.00, 0.00, -0.00, -1.00, 726.6, 526.6)">o</text><text xml:space="preserve" font-family="Inconsolata,Inconsolata" font-size="75.0" fill="#000000" transform="matrix(1.00, 0.00, -0.00, -1.00, 764.1, 526.6)">r</text><text xml:space="preserve" font-family="Inconsolata,Inconsolata" font-size="75.0" fill="#000000" transform="matrix(1.00, 0.00, -0.00, -1.00, 801.6, 526.6)">t</text><text xml:space="preserve" font-family="Inconsolata,Inconsolata" font-size="75.0" fill="#000000" transform="matrix(1.00, 0.00, -0.00, -1.00, 839.1, 526.6)">(</text><text xml:space="preserve" font-family="Inconsolata,Inconsolata" font-size="75.0" fill="#BD5A0C" transform="matrix(1.00, 0.00, -0.00, -1.00, 876.6, 526.6)">S</text><text xml:space="preserve" font-family="Inconsolata,Inconsolata" font-size="75.0" fill="#000000" transform="matrix(1.00, 0.00, -0.00, -1.00, 914.1, 526.6)">)</text><text xml:space="preserve" font-family="Inconsolata,Inconsolata" font-size="75.0" fill="#000000" transform="matrix(1.00, 0.00, -0.00, -1.00, 951.6, 526.6)"> </text><text xml:space="preserve" font-family="Inconsolata,Inconsolata" font-size="75.0" fill="#000000" transform="matrix(1.00, 0.00, -0.00, -1.00, 351.6, 360.6)">m</text><text xml:space="preserve" font-family="Inconsolata,Inconsolata" font-size="75.0" fill="#000000" transform="matrix(1.00, 0.00, -0.00, -1.00, 389.1, 360.6)">a</text><text xml:space="preserve" font-family="Inconsolata,Inconsolata" font-size="75.0" fill="#000000" transform="matrix(1.00, 0.00, -0.00, -1.00, 426.6, 360.6)">t</text><text xml:space="preserve" font-family="Inconsolata,Inconsolata" font-size="75.0" fill="#000000" transform="matrix(1.00, 0.00, -0.00, -1.00, 464.1, 360.6)">c</text><text xml:space="preserve" font-family="Inconsolata,Inconsolata" font-size="75.0" fill="#000000" transform="matrix(1.00, 0.00, -0.00, -1.00, 501.6, 360.6)">h</text><text xml:space="preserve" font-family="Inconsolata,Inconsolata" font-size="75.0" fill="#000000" transform="matrix(1.00, 0.00, -0.00, -1.00, 539.1, 360.6)">i</text><text xml:space="preserve" font-family="Inconsolata,Inconsolata" font-size="75.0" fill="#000000" transform="matrix(1.00, 0.00, -0.00, -1.00, 576.6, 360.6)">n</text><text xml:space="preserve" font-family="Inconsolata,Inconsolata" font-size="75.0" fill="#000000" transform="matrix(1.00, 0.00, -0.00, -1.00, 614.1, 360.6)">g</text><text xml:space="preserve" font-family="Inconsolata,Inconsolata" font-size="75.0" fill="#000000" transform="matrix(1.00, 0.00, -0.00, -1.00, 651.6, 360.6)">_</text><text xml:space="preserve" font-family="Inconsolata,Inconsolata" font-size="75.0" fill="#000000" transform="matrix(1.00, 0.00, -0.00, -1.00, 689.1, 360.6)">s</text><text xml:space="preserve" font-family="Inconsolata,Inconsolata" font-size="75.0" fill="#000000" transform="matrix(1.00, 0.00, -0.00, -1.00, 726.6, 360.6)">c</text><text xml:space="preserve" font-family="Inconsolata,Inconsolata" font-size="75.0" fill="#000000" transform="matrix(1.00, 0.00, -0.00, -1.00, 764.1, 360.6)">a</text><text xml:space="preserve" font-family="Inconsolata,Inconsolata" font-size="75.0" fill="#000000" transform="matrix(1.00, 0.00, -0.00, -1.00, 801.6, 360.6)">n</text><text xml:space="preserve" font-family="Inconsolata,Inconsolata" font-size="75.0" fill="#000000" transform="matrix(1.00, 0.00, -0.00, -1.00, 839.1, 360.6)">_</text><text xml:space="preserve" font-family="Inconsolata,Inconsolata" font-size="75.0" fill="#000000" transform="matrix(1.00, 0.00, -0.00, -1.00, 876.6, 360.6)">w</text><text xml:space="preserve" font-family="Inconsolata,Inconsolata" font-size="75.0" fill="#000000" transform="matrix(1.00, 0.00, -0.00, -1.00, 914.1, 360.6)">i</text><text xml:space="preserve" font-family="Inconsolata,Inconsolata" font-size="75.0" fill="#000000" transform="matrix(1.00, 0.00, -0.00, -1.00, 951.6, 360.6)">t</text><text xml:space="preserve" font-family="Inconsolata,Inconsolata" font-size="75.0" fill="#000000" transform="matrix(1.00, 0.00, -0.00, -1.00, 989.1, 360.6)">h</text><text xml:space="preserve" font-family="Inconsolata,Inconsolata" font-size="75.0" fill="#000000" transform="matrix(1.00, 0.00, -0.00, -1.00, 1026.6, 360.6)">_</text><text xml:space="preserve" font-family="Inconsolata,Inconsolata" font-size="75.0" fill="#000000" transform="matrix(1.00, 0.00, -0.00, -1.00, 1064.1, 360.6)">c</text><text xml:space="preserve" font-family="Inconsolata,Inconsolata" font-size="75.0" fill="#000000" transform="matrix(1.00, 0.00, -0.00, -1.00, 1101.6, 360.6)">u</text><text xml:space="preserve" font-family="Inconsolata,Inconsolata" font-size="75.0" fill="#000000" transform="matrix(1.00, 0.00, -0.00, -1.00, 1139.1, 360.6)">r</text><text xml:space="preserve" font-family="Inconsolata,Inconsolata" font-size="75.0" fill="#000000" transform="matrix(1.00, 0.00, -0.00, -1.00, 1176.6, 360.6)">s</text><text xml:space="preserve" font-family="Inconsolata,Inconsolata" font-size="75.0" fill="#000000" transform="matrix(1.00, 0.00, -0.00, -1.00, 1214.1, 360.6)">o</text><text xml:space="preserve" font-family="Inconsolata,Inconsolata" font-size="75.0" fill="#000000" transform="matrix(1.00, 0.00, -0.00, -1.00, 1251.6, 360.6)">r</text><text xml:space="preserve" font-family="Inconsolata,Inconsolata" font-size="75.0" fill="#000000" transform="matrix(1.00, 0.00, -0.00, -1.00, 1289.1, 360.6)">s</text><text xml:space="preserve" font-family="Inconsolata,Inconsolata" font-size="75.0" fill="#000000" transform="matrix(1.00, 0.00, -0.00, -1.00, 1326.6, 360.6)">(</text><text xml:space="preserve" font-family="Inconsolata,Inconsolata" font-size="75.0" fill="#164E86" transform="matrix(1.00, 0.00, -0.00, -1.00, 1364.1, 360.6)">R</text><text xml:space="preserve" font-family="Inconsolata,Inconsolata" font-size="75.0" fill="#000000" transform="matrix(1.00, 0.00, -0.00, -1.00, 1401.6, 360.6)">,</text><text xml:space="preserve" font-family="Inconsolata,Inconsolata" font-size="75.0" fill="#000000" transform="matrix(1.00, 0.00, -0.00, -1.00, 1439.1, 360.6)"> </text><text xml:space="preserve" font-family="Inconsolata,Inconsolata" font-size="75.0" fill="#BD5A0C" transform="matrix(1.00, 0.00, -0.00, -1.00, 1476.6, 360.6)">S</text><text xml:space="preserve" font-family="Inconsolata,Inconsolata" font-size="75.0" fill="#000000" transform="matrix(1.00, 0.00, -0.00, -1.00, 1514.1, 360.6)">)</text></g></svg>