<?xml version="1.0" encoding="UTF-8" standalone="no"?><svg xmlns="http://www.w3.org/2000/svg" xmlns:xlink="http://www.w3.org/1999/xlink" clip-rule="evenodd" stroke-miterlimit="10" viewBox="0 0 1920 1080"><desc>SVG generated by Keynote</desc><defs></defs><g transform="matrix(1.00, 0.00, -0.00, -1.00, 0.0, 1080.0)"><path d="M 0.0 1080.0 L 1920.0 1080.0 L 1920.0 0.0 L 0.0 0.0 Z M 0.0 1080.0 " fill="#FEFFFF"></path><text xml:space="preserve" font-family="Helvetica-Light,Helvetica" font-size="112.0" fill="#000000" transform="matrix(1.00, 0.00, -0.00, -1.00, 418.5, 562.8)">C</text><text xml:space="preserve" font-family="Helvetica-Light,Helvetica" font-size="112.0" fill="#000000" transform="matrix(1.00, 0.00, -0.00, -1.00, 499.3, 562.8)">o</text><text xml:space="preserve" font-family="Helvetica-Light,Helvetica" font-size="112.0" fill="#000000" transform="matrix(1.00, 0.00, -0.00, -1.00, 561.6, 562.8)">p</text><text xml:space="preserve" font-family="Helvetica-Light,Helvetica" font-size="112.0" fill="#000000" transform="matrix(1.00, 0.00, -0.00, -1.00, 630.0, 562.8)">y</text><text xml:space="preserve" font-family="Helvetica-Light,Helvetica" font-size="112.0" fill="#000000" transform="matrix(1.00, 0.00, -0.00, -1.00, 686.0, 562.8)"> </text><text xml:space="preserve" font-family="Helvetica-Light,Helvetica" font-size="112.0" fill="#000000" transform="matrix(1.00, 0.00, -0.00, -1.00, 717.2, 562.8)">M</text><text xml:space="preserve" font-family="Helvetica-Light,Helvetica" font-size="112.0" fill="#000000" transform="matrix(1.00, 0.00, -0.00, -1.00, 810.5, 562.8)">o</text><text xml:space="preserve" font-family="Helvetica-Light,Helvetica" font-size="112.0" fill="#000000" transform="matrix(1.00, 0.00, -0.00, -1.00, 872.8, 562.8)">v</text><text xml:space="preserve" font-family="Helvetica-Light,Helvetica" font-size="112.0" fill="#000000" transform="matrix(1.00, 0.00, -0.00, -1.00, 928.8, 562.8)">e</text><text xml:space="preserve" font-family="Helvetica-Light,Helvetica" font-size="112.0" fill="#000000" transform="matrix(1.00, 0.00, -0.00, -1.00, 991.0, 562.8)"> </text><text xml:space="preserve" font-family="Helvetica-Light,Helvetica" font-size="112.0" fill="#000000" transform="matrix(1.00, 0.00, -0.00, -1.00, 1022.2, 562.8)">D</text><text xml:space="preserve" font-family="Helvetica-Light,Helvetica" font-size="112.0" fill="#000000" transform="matrix(1.00, 0.00, -0.00, -1.00, 1103.0, 562.8)">e</text><text xml:space="preserve" font-family="Helvetica-Light,Helvetica" font-size="112.0" fill="#000000" transform="matrix(1.00, 0.00, -0.00, -1.00, 1165.3, 562.8)">t</text><text xml:space="preserve" font-family="Helvetica-Light,Helvetica" font-size="112.0" fill="#000000" transform="matrix(1.00, 0.00, -0.00, -1.00, 1196.4, 562.8)">e</text><text xml:space="preserve" font-family="Helvetica-Light,Helvetica" font-size="112.0" fill="#000000" transform="matrix(1.00, 0.00, -0.00, -1.00, 1258.7, 562.8)">c</text><text xml:space="preserve" font-family="Helvetica-Light,Helvetica" font-size="112.0" fill="#000000" transform="matrix(1.00, 0.00, -0.00, -1.00, 1321.0, 562.8)">t</text><text xml:space="preserve" font-family="Helvetica-Light,Helvetica" font-size="112.0" fill="#000000" transform="matrix(1.00, 0.00, -0.00, -1.00, 1352.1, 562.8)">i</text><text xml:space="preserve" font-family="Helvetica-Light,Helvetica" font-size="112.0" fill="#000000" transform="matrix(1.00, 0.00, -0.00, -1.00, 1377.0, 562.8)">o</text><text xml:space="preserve" font-family="Helvetica-Light,Helvetica" font-size="112.0" fill="#000000" transform="matrix(1.00, 0.00, -0.00, -1.00, 1439.2, 562.8)">n</text><text xml:space="preserve" font-family="Helvetica-Light,Helvetica" font-size="44.0" fill="#000000" transform="matrix(1.00, 0.00, -0.00, -1.00, 684.0, 476.1)">A</text><text xml:space="preserve" font-family="Helvetica-Light,Helvetica" font-size="44.0" fill="#000000" transform="matrix(1.00, 0.00, -0.00, -1.00, 713.4, 476.1)">n</text><text xml:space="preserve" font-family="Helvetica-Light,Helvetica" font-size="44.0" fill="#000000" transform="matrix(1.00, 0.00, -0.00, -1.00, 737.8, 476.1)">t</text><text xml:space="preserve" font-family="Helvetica-Light,Helvetica" font-size="44.0" fill="#000000" transform="matrix(1.00, 0.00, -0.00, -1.00, 750.1, 476.1)">h</text><text xml:space="preserve" font-family="Helvetica-Light,Helvetica" font-size="44.0" fill="#000000" transform="matrix(1.00, 0.00, -0.00, -1.00, 774.5, 476.1)">o</text><text xml:space="preserve" font-family="Helvetica-Light,Helvetica" font-size="44.0" fill="#000000" transform="matrix(1.00, 0.00, -0.00, -1.00, 799.0, 476.1)">n</text><text xml:space="preserve" font-family="Helvetica-Light,Helvetica" font-size="44.0" fill="#000000" transform="matrix(1.00, 0.00, -0.00, -1.00, 823.5, 476.1)">y</text><text xml:space="preserve" font-family="Helvetica-Light,Helvetica" font-size="44.0" fill="#000000" transform="matrix(1.00, 0.00, -0.00, -1.00, 845.5, 476.1)"> </text><text xml:space="preserve" font-family="Helvetica-Light,Helvetica" font-size="44.0" fill="#000000" transform="matrix(1.00, 0.00, -0.00, -1.00, 857.7, 476.1)">S</text><text xml:space="preserve" font-family="Helvetica-Light,Helvetica" font-size="44.0" fill="#000000" transform="matrix(1.00, 0.00, -0.00, -1.00, 884.6, 476.1)">u</text><text xml:space="preserve" font-family="Helvetica-Light,Helvetica" font-size="44.0" fill="#000000" transform="matrix(1.00, 0.00, -0.00, -1.00, 909.0, 476.1)">t</text><text xml:space="preserve" font-family="Helvetica-Light,Helvetica" font-size="44.0" fill="#000000" transform="matrix(1.00, 0.00, -0.00, -1.00, 921.3, 476.1)">a</text><text xml:space="preserve" font-family="Helvetica-Light,Helvetica" font-size="44.0" fill="#000000" transform="matrix(1.00, 0.00, -0.00, -1.00, 945.7, 476.1)">r</text><text xml:space="preserve" font-family="Helvetica-Light,Helvetica" font-size="44.0" fill="#000000" transform="matrix(1.00, 0.00, -0.00, -1.00, 959.6, 476.1)">d</text><text xml:space="preserve" font-family="Helvetica-Light,Helvetica" font-size="44.0" fill="#000000" transform="matrix(1.00, 0.00, -0.00, -1.00, 986.5, 476.1)">j</text><text xml:space="preserve" font-family="Helvetica-Light,Helvetica" font-size="44.0" fill="#000000" transform="matrix(1.00, 0.00, -0.00, -1.00, 996.3, 476.1)">a</text><text xml:space="preserve" font-family="Helvetica-Light,Helvetica" font-size="44.0" fill="#000000" transform="matrix(1.00, 0.00, -0.00, -1.00, 1020.7, 476.1)">,</text><text xml:space="preserve" font-family="Helvetica-Light,Helvetica" font-size="44.0" fill="#000000" transform="matrix(1.00, 0.00, -0.00, -1.00, 1033.0, 476.1)"> </text><text xml:space="preserve" font-family="Helvetica-Light,Helvetica" font-size="44.0" fill="#000000" transform="matrix(1.00, 0.00, -0.00, -1.00, 1045.2, 476.1)">K</text><text xml:space="preserve" font-family="Helvetica-Light,Helvetica" font-size="44.0" fill="#000000" transform="matrix(1.00, 0.00, -0.00, -1.00, 1074.5, 476.1)">e</text><text xml:space="preserve" font-family="Helvetica-Light,Helvetica" font-size="44.0" fill="#000000" transform="matrix(1.00, 0.00, -0.00, -1.00, 1099.0, 476.1)">v</text><text xml:space="preserve" font-family="Helvetica-Light,Helvetica" font-size="44.0" fill="#000000" transform="matrix(1.00, 0.00, -0.00, -1.00, 1121.0, 476.1)">i</text><text xml:space="preserve" font-family="Helvetica-Light,Helvetica" font-size="44.0" fill="#000000" transform="matrix(1.00, 0.00, -0.00, -1.00, 1130.8, 476.1)">n</text><text xml:space="preserve" font-family="Helvetica-Light,Helvetica" font-size="44.0" fill="#000000" transform="matrix(1.00, 0.00, -0.00, -1.00, 1155.2, 476.1)"> </text><text xml:space="preserve" font-family="Helvetica-Light,Helvetica" font-size="44.0" fill="#000000" transform="matrix(1.00, 0.00, -0.00, -1.00, 1167.5, 476.1)">T</text><text xml:space="preserve" font-family="Helvetica-Light,Helvetica" font-size="44.0" fill="#000000" transform="matrix(1.00, 0.00, -0.00, -1.00, 1187.0, 476.1)">e</text><text xml:space="preserve" font-family="Helvetica-Light,Helvetica" font-size="44.0" fill="#000000" transform="matrix(1.00, 0.00, -0.00, -1.00, 1211.5, 476.1)">e</text><text xml:space="preserve" font-family="Helvetica-Light,Helvetica" font-size="44.0" fill="#000000" transform="matrix(1.00, 0.00, -0.00, -1.00, 1236.0, 476.1)"> </text><text xml:space="preserve" font-family="Helvetica-Light,Helvetica" font-size="44.0" fill="#A6AAA8" transform="matrix(1.00, 0.00, -0.00, -1.00, 696.7, 423.1)">C</text><text xml:space="preserve" font-family="Helvetica-Light,Helvetica" font-size="44.0" fill="#A6AAA8" transform="matrix(1.00, 0.00, -0.00, -1.00, 728.5, 423.1)">S</text><text xml:space="preserve" font-family="Helvetica-Light,Helvetica" font-size="44.0" fill="#A6AAA8" transform="matrix(1.00, 0.00, -0.00, -1.00, 755.4, 423.1)">2</text><text xml:space="preserve" font-family="Helvetica-Light,Helvetica" font-size="44.0" fill="#A6AAA8" transform="matrix(1.00, 0.00, -0.00, -1.00, 779.8, 423.1)">9</text><text xml:space="preserve" font-family="Helvetica-Light,Helvetica" font-size="44.0" fill="#A6AAA8" transform="matrix(1.00, 0.00, -0.00, -1.00, 804.3, 423.1)">4</text><text xml:space="preserve" font-family="Helvetica-Light,Helvetica" font-size="44.0" fill="#A6AAA8" transform="matrix(1.00, 0.00, -0.00, -1.00, 828.8, 423.1)">-</text><text xml:space="preserve" font-family="Helvetica-Light,Helvetica" font-size="44.0" fill="#A6AAA8" transform="matrix(1.00, 0.00, -0.00, -1.00, 843.4, 423.1)">2</text><text xml:space="preserve" font-family="Helvetica-Light,Helvetica" font-size="44.0" fill="#A6AAA8" transform="matrix(1.00, 0.00, -0.00, -1.00, 867.9, 423.1)">6</text><text xml:space="preserve" font-family="Helvetica-Light,Helvetica" font-size="44.0" fill="#A6AAA8" transform="matrix(1.00, 0.00, -0.00, -1.00, 892.3, 423.1)"> </text><text xml:space="preserve" font-family="Helvetica-Light,Helvetica" font-size="44.0" fill="#A6AAA8" transform="matrix(1.00, 0.00, -0.00, -1.00, 904.6, 423.1)">|</text><text xml:space="preserve" font-family="Helvetica-Light,Helvetica" font-size="44.0" fill="#A6AAA8" transform="matrix(1.00, 0.00, -0.00, -1.00, 914.3, 423.1)"> </text><text xml:space="preserve" font-family="Helvetica-Light,Helvetica" font-size="44.0" fill="#A6AAA8" transform="matrix(1.00, 0.00, -0.00, -1.00, 926.6, 423.1)">P</text><text xml:space="preserve" font-family="Helvetica-Light,Helvetica" font-size="44.0" fill="#A6AAA8" transform="matrix(1.00, 0.00, -0.00, -1.00, 953.5, 423.1)">r</text><text xml:space="preserve" font-family="Helvetica-Light,Helvetica" font-size="44.0" fill="#A6AAA8" transform="matrix(1.00, 0.00, -0.00, -1.00, 967.3, 423.1)">o</text><text xml:space="preserve" font-family="Helvetica-Light,Helvetica" font-size="44.0" fill="#A6AAA8" transform="matrix(1.00, 0.00, -0.00, -1.00, 991.8, 423.1)">f</text><text xml:space="preserve" font-family="Helvetica-Light,Helvetica" font-size="44.0" fill="#A6AAA8" transform="matrix(1.00, 0.00, -0.00, -1.00, 1004.0, 423.1)">e</text><text xml:space="preserve" font-family="Helvetica-Light,Helvetica" font-size="44.0" fill="#A6AAA8" transform="matrix(1.00, 0.00, -0.00, -1.00, 1028.5, 423.1)">s</text><text xml:space="preserve" font-family="Helvetica-Light,Helvetica" font-size="44.0" fill="#A6AAA8" transform="matrix(1.00, 0.00, -0.00, -1.00, 1050.5, 423.1)">s</text><text xml:space="preserve" font-family="Helvetica-Light,Helvetica" font-size="44.0" fill="#A6AAA8" transform="matrix(1.00, 0.00, -0.00, -1.00, 1072.5, 423.1)">o</text><text xml:space="preserve" font-family="Helvetica-Light,Helvetica" font-size="44.0" fill="#A6AAA8" transform="matrix(1.00, 0.00, -0.00, -1.00, 1096.9, 423.1)">r</text><text xml:space="preserve" font-family="Helvetica-Light,Helvetica" font-size="44.0" fill="#A6AAA8" transform="matrix(1.00, 0.00, -0.00, -1.00, 1111.6, 423.1)"> </text><text xml:space="preserve" font-family="Helvetica-Light,Helvetica" font-size="44.0" fill="#A6AAA8" transform="matrix(1.00, 0.00, -0.00, -1.00, 1123.8, 423.1)">E</text><text xml:space="preserve" font-family="Helvetica-Light,Helvetica" font-size="44.0" fill="#A6AAA8" transform="matrix(1.00, 0.00, -0.00, -1.00, 1150.7, 423.1)">f</text><text xml:space="preserve" font-family="Helvetica-Light,Helvetica" font-size="44.0" fill="#A6AAA8" transform="matrix(1.00, 0.00, -0.00, -1.00, 1162.9, 423.1)">r</text><text xml:space="preserve" font-family="Helvetica-Light,Helvetica" font-size="44.0" fill="#A6AAA8" transform="matrix(1.00, 0.00, -0.00, -1.00, 1176.8, 423.1)">o</text><text xml:space="preserve" font-family="Helvetica-Light,Helvetica" font-size="44.0" fill="#A6AAA8" transform="matrix(1.00, 0.00, -0.00, -1.00, 1201.3, 423.1)">s</text></g></svg>