<?xml version="1.0" encoding="UTF-8" standalone="no"?><svg xmlns="http://www.w3.org/2000/svg" xmlns:xlink="http://www.w3.org/1999/xlink" clip-rule="evenodd" stroke-miterlimit="10" viewBox="0 0 1920 1080"><desc>SVG generated by Keynote</desc><defs></defs><g transform="matrix(1.00, 0.00, -0.00, -1.00, 0.0, 1080.0)"><path d="M 0.0 1080.0 L 1920.0 1080.0 L 1920.0 0.0 L 0.0 0.0 Z M 0.0 1080.0 " fill="#FEFFFE"></path><g opacity="0.14"><g><clipPath id="clip0x7fd08702a840"><path d="M 1530.0 208.0 L 1920.0 208.0 L 1920.0 774.0 L 1530.0 774.0 Z M 1530.0 208.0 "></path></clipPath><g clip-path="url(#clip0x7fd08702a840)"><path d="M 1531.6 347.8 L 1532.0 634.0 C 1532.0 710.7 1593.8 773.0 1670.5 773.0 L 2577.4 773.0 C 2654.0 773.0 2716.0 710.7 2716.0 634.0 L 2716.0 347.8 C 2716.0 271.2 2654.0 209.0 2577.4 209.0 L 1670.5 209.0 C 1593.8 209.0 1531.6 271.2 1531.6 347.8 Z M 1531.6 347.8 " fill="#F5D327"></path></g></g></g><g opacity="0.10"><g><clipPath id="clip0x7fd08702ddd0"><path d="M 371.0 197.0 L 1495.0 197.0 L 1495.0 785.0 L 371.0 785.0 Z M 371.0 197.0 "></path></clipPath><g clip-path="url(#clip0x7fd08702ddd0)"><path d="M 372.7 337.2 L 373.0 644.6 C 373.0 721.3 434.8 783.0 511.5 783.0 L 1354.7 783.0 C 1431.3 783.0 1493.0 721.3 1493.0 644.6 L 1493.0 337.2 C 1493.0 260.6 1431.3 198.0 1354.7 198.0 L 511.5 198.0 C 434.8 198.0 372.7 260.6 372.7 337.2 Z M 372.7 337.2 " fill="#51A7F9"></path></g></g></g><image xlink:href="../../2071E324-AE3B-4F19-9629-15308FE44BED/assets/FEB82C4DBC3C520FEE03FB4F9EF1FCF2.png" width="250.00" height="477.00" transform="matrix(1.00, 0.00, -0.00, -1.00, 1188.8, 727.4)" opacity="0.50"></image><path d="M 1191.8 301.1 L 1192.0 680.8 C 1192.0 706.0 1212.3 726.0 1237.5 726.0 L 1390.2 726.0 C 1415.4 726.0 1436.0 706.0 1436.0 680.8 L 1436.0 301.1 C 1436.0 275.9 1415.4 255.0 1390.2 255.0 L 1237.5 255.0 C 1212.3 255.0 1191.8 275.9 1191.8 301.1 Z M 1191.8 301.1 " fill="#51A7F9"></path><text xml:space="preserve" font-family="Helvetica-Light,Helvetica" font-size="112.0" fill="#000000" transform="matrix(1.00, 0.00, -0.00, -1.00, 352.2, 873.8)">E</text><text xml:space="preserve" font-family="Helvetica-Light,Helvetica" font-size="112.0" fill="#000000" transform="matrix(1.00, 0.00, -0.00, -1.00, 420.6, 873.8)">x</text><text xml:space="preserve" font-family="Helvetica-Light,Helvetica" font-size="112.0" fill="#000000" transform="matrix(1.00, 0.00, -0.00, -1.00, 476.6, 873.8)">t</text><text xml:space="preserve" font-family="Helvetica-Light,Helvetica" font-size="112.0" fill="#000000" transform="matrix(1.00, 0.00, -0.00, -1.00, 507.7, 873.8)">e</text><text xml:space="preserve" font-family="Helvetica-Light,Helvetica" font-size="112.0" fill="#000000" transform="matrix(1.00, 0.00, -0.00, -1.00, 570.0, 873.8)">r</text><text xml:space="preserve" font-family="Helvetica-Light,Helvetica" font-size="112.0" fill="#000000" transform="matrix(1.00, 0.00, -0.00, -1.00, 609.3, 873.8)">n</text><text xml:space="preserve" font-family="Helvetica-Light,Helvetica" font-size="112.0" fill="#000000" transform="matrix(1.00, 0.00, -0.00, -1.00, 671.6, 873.8)">a</text><text xml:space="preserve" font-family="Helvetica-Light,Helvetica" font-size="112.0" fill="#000000" transform="matrix(1.00, 0.00, -0.00, -1.00, 733.9, 873.8)">l</text><text xml:space="preserve" font-family="Helvetica-Light,Helvetica" font-size="112.0" fill="#000000" transform="matrix(1.00, 0.00, -0.00, -1.00, 758.7, 873.8)"> </text><text xml:space="preserve" font-family="Helvetica-Light,Helvetica" font-size="112.0" fill="#000000" transform="matrix(1.00, 0.00, -0.00, -1.00, 789.9, 873.8)">h</text><text xml:space="preserve" font-family="Helvetica-Light,Helvetica" font-size="112.0" fill="#000000" transform="matrix(1.00, 0.00, -0.00, -1.00, 852.1, 873.8)">a</text><text xml:space="preserve" font-family="Helvetica-Light,Helvetica" font-size="112.0" fill="#000000" transform="matrix(1.00, 0.00, -0.00, -1.00, 914.4, 873.8)">s</text><text xml:space="preserve" font-family="Helvetica-Light,Helvetica" font-size="112.0" fill="#000000" transform="matrix(1.00, 0.00, -0.00, -1.00, 970.4, 873.8)">h</text><text xml:space="preserve" font-family="Helvetica-Light,Helvetica" font-size="112.0" fill="#000000" transform="matrix(1.00, 0.00, -0.00, -1.00, 1032.7, 873.8)">i</text><text xml:space="preserve" font-family="Helvetica-Light,Helvetica" font-size="112.0" fill="#000000" transform="matrix(1.00, 0.00, -0.00, -1.00, 1057.6, 873.8)">n</text><text xml:space="preserve" font-family="Helvetica-Light,Helvetica" font-size="112.0" fill="#000000" transform="matrix(1.00, 0.00, -0.00, -1.00, 1119.8, 873.8)">g</text><text xml:space="preserve" font-family="Helvetica-Light,Helvetica" font-size="112.0" fill="#000000" transform="matrix(1.00, 0.00, -0.00, -1.00, 1188.3, 873.8)">:</text><text xml:space="preserve" font-family="Helvetica-Light,Helvetica" font-size="112.0" fill="#000000" transform="matrix(1.00, 0.00, -0.00, -1.00, 1219.4, 873.8)"> </text><text xml:space="preserve" font-family="Helvetica-Light,Helvetica" font-size="112.0" fill="#000000" transform="matrix(1.00, 0.00, -0.00, -1.00, 1250.5, 873.8)">D</text><text xml:space="preserve" font-family="Helvetica-Light,Helvetica" font-size="112.0" fill="#000000" transform="matrix(1.00, 0.00, -0.00, -1.00, 1331.4, 873.8)">i</text><text xml:space="preserve" font-family="Helvetica-Light,Helvetica" font-size="112.0" fill="#000000" transform="matrix(1.00, 0.00, -0.00, -1.00, 1356.3, 873.8)">v</text><text xml:space="preserve" font-family="Helvetica-Light,Helvetica" font-size="112.0" fill="#000000" transform="matrix(1.00, 0.00, -0.00, -1.00, 1412.3, 873.8)">i</text><text xml:space="preserve" font-family="Helvetica-Light,Helvetica" font-size="112.0" fill="#000000" transform="matrix(1.00, 0.00, -0.00, -1.00, 1437.1, 873.8)">d</text><text xml:space="preserve" font-family="Helvetica-Light,Helvetica" font-size="112.0" fill="#000000" transform="matrix(1.00, 0.00, -0.00, -1.00, 1505.6, 873.8)">e</text><image xlink:href="../../2071E324-AE3B-4F19-9629-15308FE44BED/assets/23D653C5FDD303009C1B8E2135751D14.png" width="190.00" height="74.00" transform="matrix(1.00, 0.00, -0.00, -1.00, 1218.7, 357.1)" opacity="0.50"></image><path d="M 1222.0 356.0 L 1406.0 356.0 L 1406.0 288.0 L 1222.0 288.0 Z M 1221.7 356.1 " fill="#002451"></path><g><clipPath id="clip0x7fd0855753a0"><path d="M 1217.6 288.1 L 1410.1 288.1 L 1410.1 356.1 L 1217.6 356.1 Z M 1217.6 288.1 "></path></clipPath><g clip-path="url(#clip0x7fd0855753a0)"><text xml:space="preserve" font-family="Inconsolata,Inconsolata" font-size="32.0" fill="#FEFFFE" transform="matrix(1.00, 0.00, -0.00, -1.00, 1233.8, 311.6)">O</text><text xml:space="preserve" font-family="Inconsolata,Inconsolata" font-size="32.0" fill="#FEFFFE" transform="matrix(1.00, 0.00, -0.00, -1.00, 1249.8, 311.6)">u</text><text xml:space="preserve" font-family="Inconsolata,Inconsolata" font-size="32.0" fill="#FEFFFE" transform="matrix(1.00, 0.00, -0.00, -1.00, 1265.8, 311.6)">t</text><text xml:space="preserve" font-family="Inconsolata,Inconsolata" font-size="32.0" fill="#FEFFFE" transform="matrix(1.00, 0.00, -0.00, -1.00, 1281.8, 311.6)">p</text><text xml:space="preserve" font-family="Inconsolata,Inconsolata" font-size="32.0" fill="#FEFFFE" transform="matrix(1.00, 0.00, -0.00, -1.00, 1297.8, 311.6)">u</text><text xml:space="preserve" font-family="Inconsolata,Inconsolata" font-size="32.0" fill="#FEFFFE" transform="matrix(1.00, 0.00, -0.00, -1.00, 1313.8, 311.6)">t</text><text xml:space="preserve" font-family="Inconsolata,Inconsolata" font-size="32.0" fill="#FEFFFE" transform="matrix(1.00, 0.00, -0.00, -1.00, 1329.8, 311.6)"> </text><text xml:space="preserve" font-family="Inconsolata,Inconsolata" font-size="32.0" fill="#FEFFFE" transform="matrix(1.00, 0.00, -0.00, -1.00, 1345.8, 311.6)">B</text><text xml:space="preserve" font-family="Inconsolata,Inconsolata" font-size="32.0" fill="#FEFFFE" transform="matrix(1.00, 0.00, -0.00, -1.00, 1361.8, 311.6)">-</text><text xml:space="preserve" font-family="Inconsolata,Inconsolata" font-size="32.0" fill="#FEFFFE" transform="matrix(1.00, 0.00, -0.00, -1.00, 1377.8, 311.6)">1</text></g></g><path d="M -0.3 0.4 L 450.3 0.4 L 456.7 0.4 " fill="none" stroke="#51A7F9" stroke-width="13.00" transform="matrix(1.00, 0.00, 0.00, -1.00, 683.3, 490.9)"></path><path d="M 1133.5 465.9 L 1182.7 490.5 L 1133.5 515.1 Z M 1133.5 465.9 " fill="#51A7F9"></path><text xml:space="preserve" font-family="Helvetica-Light,Helvetica" font-size="50.0" fill="#000000" transform="matrix(1.00, 0.00, -0.00, -1.00, 874.7, 527.5)">H</text><text xml:space="preserve" font-family="Helvetica-Light,Helvetica" font-size="50.0" fill="#000000" transform="matrix(1.00, 0.00, -0.00, -1.00, 910.8, 527.5)">a</text><text xml:space="preserve" font-family="Helvetica-Light,Helvetica" font-size="50.0" fill="#000000" transform="matrix(1.00, 0.00, -0.00, -1.00, 938.6, 527.5)">s</text><text xml:space="preserve" font-family="Helvetica-Light,Helvetica" font-size="50.0" fill="#000000" transform="matrix(1.00, 0.00, -0.00, -1.00, 963.6, 527.5)">h</text><image xlink:href="../../2071E324-AE3B-4F19-9629-15308FE44BED/assets/9218E621B19B4E7A31E569965638A365.png" width="250.00" height="259.00" transform="matrix(1.00, 0.00, -0.00, -1.00, 477.4, 618.2)" opacity="0.50"></image><path d="M 480.4 410.3 L 480.0 571.6 C 480.0 596.8 500.8 617.0 526.0 617.0 L 678.7 617.0 C 703.9 617.0 724.0 596.8 724.0 571.6 L 724.0 410.3 C 724.0 385.0 703.9 365.0 678.7 365.0 L 526.0 365.0 C 500.8 365.0 480.4 385.0 480.4 410.3 Z M 480.4 410.3 " fill="#51A7F9"></path><image xlink:href="../../2071E324-AE3B-4F19-9629-15308FE44BED/assets/452F1E6049EB87116D307F6F4D4F301A.png" width="190.00" height="190.00" transform="matrix(1.00, 0.00, -0.00, -1.00, 507.2, 584.1)" opacity="0.50"></image><path d="M 510.0 583.0 L 695.0 583.0 L 695.0 399.0 L 510.0 399.0 Z M 510.2 583.1 " fill="#002451"></path><g><clipPath id="clip0x7fd08700dbc0"><path d="M 506.1 398.8 L 698.6 398.8 L 698.6 583.1 L 506.1 583.1 Z M 506.1 398.8 "></path></clipPath><g clip-path="url(#clip0x7fd08700dbc0)"><text xml:space="preserve" font-family="Inconsolata,Inconsolata" font-size="32.0" fill="#FEFFFE" transform="matrix(1.00, 0.00, -0.00, -1.00, 562.4, 480.6)">I</text><text xml:space="preserve" font-family="Inconsolata,Inconsolata" font-size="32.0" fill="#FEFFFE" transform="matrix(1.00, 0.00, -0.00, -1.00, 578.4, 480.6)">n</text><text xml:space="preserve" font-family="Inconsolata,Inconsolata" font-size="32.0" fill="#FEFFFE" transform="matrix(1.00, 0.00, -0.00, -1.00, 594.4, 480.6)">p</text><text xml:space="preserve" font-family="Inconsolata,Inconsolata" font-size="32.0" fill="#FEFFFE" transform="matrix(1.00, 0.00, -0.00, -1.00, 610.4, 480.6)">u</text><text xml:space="preserve" font-family="Inconsolata,Inconsolata" font-size="32.0" fill="#FEFFFE" transform="matrix(1.00, 0.00, -0.00, -1.00, 626.4, 480.6)">t</text></g></g><text xml:space="preserve" font-family="Helvetica-Light,Helvetica" font-size="50.0" fill="#0264C0" transform="matrix(1.00, 0.00, -0.00, -1.00, 686.2, 104.3)">B</text><text xml:space="preserve" font-family="Helvetica-Light,Helvetica" font-size="50.0" fill="#0264C0" transform="matrix(1.00, 0.00, -0.00, -1.00, 719.6, 104.3)">u</text><text xml:space="preserve" font-family="Helvetica-Light,Helvetica" font-size="50.0" fill="#0264C0" transform="matrix(1.00, 0.00, -0.00, -1.00, 747.4, 104.3)">f</text><text xml:space="preserve" font-family="Helvetica-Light,Helvetica" font-size="50.0" fill="#0264C0" transform="matrix(1.00, 0.00, -0.00, -1.00, 760.4, 104.3)">f</text><text xml:space="preserve" font-family="Helvetica-Light,Helvetica" font-size="50.0" fill="#0264C0" transform="matrix(1.00, 0.00, -0.00, -1.00, 774.3, 104.3)">e</text><text xml:space="preserve" font-family="Helvetica-Light,Helvetica" font-size="50.0" fill="#0264C0" transform="matrix(1.00, 0.00, -0.00, -1.00, 802.1, 104.3)">r</text><text xml:space="preserve" font-family="Helvetica-Light,Helvetica" font-size="50.0" fill="#0264C0" transform="matrix(1.00, 0.00, -0.00, -1.00, 818.7, 104.3)"> </text><text xml:space="preserve" font-family="Helvetica-Light,Helvetica" font-size="50.0" fill="#0264C0" transform="matrix(1.00, 0.00, -0.00, -1.00, 832.6, 104.3)">o</text><text xml:space="preserve" font-family="Helvetica-Light,Helvetica" font-size="50.0" fill="#0264C0" transform="matrix(1.00, 0.00, -0.00, -1.00, 860.4, 104.3)">f</text><text xml:space="preserve" font-family="Helvetica-Light,Helvetica" font-size="50.0" fill="#0264C0" transform="matrix(1.00, 0.00, -0.00, -1.00, 874.3, 104.3)"> </text><text xml:space="preserve" font-family="Helvetica-Light,Helvetica" font-size="50.0" fill="#0264C0" transform="matrix(1.00, 0.00, -0.00, -1.00, 888.2, 104.3)">s</text><text xml:space="preserve" font-family="Helvetica-Light,Helvetica" font-size="50.0" fill="#0264C0" transform="matrix(1.00, 0.00, -0.00, -1.00, 913.2, 104.3)">i</text><text xml:space="preserve" font-family="Helvetica-Light,Helvetica" font-size="50.0" fill="#0264C0" transform="matrix(1.00, 0.00, -0.00, -1.00, 924.3, 104.3)">z</text><text xml:space="preserve" font-family="Helvetica-Light,Helvetica" font-size="50.0" fill="#0264C0" transform="matrix(1.00, 0.00, -0.00, -1.00, 949.3, 104.3)">e</text><text xml:space="preserve" font-family="Helvetica-Light,Helvetica" font-size="50.0" fill="#0264C0" transform="matrix(1.00, 0.00, -0.00, -1.00, 977.1, 104.3)"> </text><text xml:space="preserve" font-family="Helvetica-Light,Helvetica" font-size="50.0" fill="#0264C0" transform="matrix(1.00, 0.00, -0.00, -1.00, 991.0, 104.3)">B</text><text xml:space="preserve" font-family="Helvetica-Light,Helvetica" font-size="50.0" fill="#0264C0" transform="matrix(1.00, 0.00, -0.00, -1.00, 1024.4, 104.3)"> </text><text xml:space="preserve" font-family="Helvetica-Light,Helvetica" font-size="50.0" fill="#0264C0" transform="matrix(1.00, 0.00, -0.00, -1.00, 1038.3, 104.3)">p</text><text xml:space="preserve" font-family="Helvetica-Light,Helvetica" font-size="50.0" fill="#0264C0" transform="matrix(1.00, 0.00, -0.00, -1.00, 1068.8, 104.3)">a</text><text xml:space="preserve" font-family="Helvetica-Light,Helvetica" font-size="50.0" fill="#0264C0" transform="matrix(1.00, 0.00, -0.00, -1.00, 1096.6, 104.3)">g</text><text xml:space="preserve" font-family="Helvetica-Light,Helvetica" font-size="50.0" fill="#0264C0" transform="matrix(1.00, 0.00, -0.00, -1.00, 1127.2, 104.3)">e</text><text xml:space="preserve" font-family="Helvetica-Light,Helvetica" font-size="50.0" fill="#0264C0" transform="matrix(1.00, 0.00, -0.00, -1.00, 1155.0, 104.3)">s</text><g opacity="0.14"><g><clipPath id="clip0x7fd08703e180"><path d="M 0.0 208.0 L 336.0 208.0 L 336.0 774.0 L 0.0 774.0 Z M 0.0 208.0 "></path></clipPath><g clip-path="url(#clip0x7fd08703e180)"><path d="M -850.0 347.8 L -850.0 634.0 C -850.0 710.7 -787.9 773.0 -711.2 773.0 L 195.7 773.0 C 272.4 773.0 335.0 710.7 335.0 634.0 L 335.0 347.8 C 335.0 271.2 272.4 209.0 195.7 209.0 L -711.2 209.0 C -787.9 209.0 -850.0 271.2 -850.0 347.8 Z M -850.0 347.8 " fill="#F5D327"></path></g></g></g><text xml:space="preserve" font-family="Helvetica-Light,Helvetica" font-size="50.0" fill="#000000" transform="matrix(1.00, 0.00, -0.00, -1.00, 32.7, 449.5)">D</text><text xml:space="preserve" font-family="Helvetica-Light,Helvetica" font-size="50.0" fill="#000000" transform="matrix(1.00, 0.00, -0.00, -1.00, 68.8, 449.5)">i</text><text xml:space="preserve" font-family="Helvetica-Light,Helvetica" font-size="50.0" fill="#000000" transform="matrix(1.00, 0.00, -0.00, -1.00, 79.9, 449.5)">s</text><text xml:space="preserve" font-family="Helvetica-Light,Helvetica" font-size="50.0" fill="#000000" transform="matrix(1.00, 0.00, -0.00, -1.00, 104.9, 449.5)">k</text><path d="M -0.1 -0.2 L 166.6 -0.2 L 172.9 -0.2 " fill="none" stroke="#F5D327" stroke-width="13.00" stroke-linecap="round" stroke-dasharray="0.0, 39.0" transform="matrix(1.00, 0.00, 0.00, -1.00, 1425.1, 556.3)"></path><path d="M 1591.5 531.9 L 1640.7 556.5 L 1591.5 581.1 Z M 1591.5 531.9 " fill="#F5D327"></path><image xlink:href="../../2071E324-AE3B-4F19-9629-15308FE44BED/assets/23D653C5FDD303009C1B8E2135751D14.png" width="190.00" height="74.00" transform="matrix(1.00, 0.00, -0.00, -1.00, 1218.7, 509.1)" opacity="0.50"></image><path d="M 1222.0 508.0 L 1406.0 508.0 L 1406.0 440.0 L 1222.0 440.0 Z M 1221.7 508.1 " fill="#002451"></path><g><clipPath id="clip0x7fd087043bf0"><path d="M 1217.6 440.1 L 1410.1 440.1 L 1410.1 508.1 L 1217.6 508.1 Z M 1217.6 440.1 "></path></clipPath><g clip-path="url(#clip0x7fd087043bf0)"><text xml:space="preserve" font-family="Inconsolata,Inconsolata" font-size="32.0" fill="#FEFFFE" transform="matrix(1.00, 0.00, -0.00, -1.00, 1249.8, 463.6)">O</text><text xml:space="preserve" font-family="Inconsolata,Inconsolata" font-size="32.0" fill="#FEFFFE" transform="matrix(1.00, 0.00, -0.00, -1.00, 1265.8, 463.6)">u</text><text xml:space="preserve" font-family="Inconsolata,Inconsolata" font-size="32.0" fill="#FEFFFE" transform="matrix(1.00, 0.00, -0.00, -1.00, 1281.8, 463.6)">t</text><text xml:space="preserve" font-family="Inconsolata,Inconsolata" font-size="32.0" fill="#FEFFFE" transform="matrix(1.00, 0.00, -0.00, -1.00, 1297.8, 463.6)">p</text><text xml:space="preserve" font-family="Inconsolata,Inconsolata" font-size="32.0" fill="#FEFFFE" transform="matrix(1.00, 0.00, -0.00, -1.00, 1313.8, 463.6)">u</text><text xml:space="preserve" font-family="Inconsolata,Inconsolata" font-size="32.0" fill="#FEFFFE" transform="matrix(1.00, 0.00, -0.00, -1.00, 1329.8, 463.6)">t</text><text xml:space="preserve" font-family="Inconsolata,Inconsolata" font-size="32.0" fill="#FEFFFE" transform="matrix(1.00, 0.00, -0.00, -1.00, 1345.8, 463.6)"> </text><text xml:space="preserve" font-family="Inconsolata,Inconsolata" font-size="32.0" fill="#FEFFFE" transform="matrix(1.00, 0.00, -0.00, -1.00, 1361.8, 463.6)">3</text></g></g><image xlink:href="../../2071E324-AE3B-4F19-9629-15308FE44BED/assets/23D653C5FDD303009C1B8E2135751D14.png" width="190.00" height="74.00" transform="matrix(1.00, 0.00, -0.00, -1.00, 1218.7, 693.1)" opacity="0.50"></image><path d="M 1222.0 692.0 L 1406.0 692.0 L 1406.0 624.0 L 1222.0 624.0 Z M 1221.7 692.1 " fill="#002451"></path><g><clipPath id="clip0x7fd087049180"><path d="M 1217.6 624.1 L 1410.1 624.1 L 1410.1 692.1 L 1217.6 692.1 Z M 1217.6 624.1 "></path></clipPath><g clip-path="url(#clip0x7fd087049180)"><text xml:space="preserve" font-family="Inconsolata,Inconsolata" font-size="32.0" fill="#FEFFFE" transform="matrix(1.00, 0.00, -0.00, -1.00, 1249.8, 647.6)">O</text><text xml:space="preserve" font-family="Inconsolata,Inconsolata" font-size="32.0" fill="#FEFFFE" transform="matrix(1.00, 0.00, -0.00, -1.00, 1265.8, 647.6)">u</text><text xml:space="preserve" font-family="Inconsolata,Inconsolata" font-size="32.0" fill="#FEFFFE" transform="matrix(1.00, 0.00, -0.00, -1.00, 1281.8, 647.6)">t</text><text xml:space="preserve" font-family="Inconsolata,Inconsolata" font-size="32.0" fill="#FEFFFE" transform="matrix(1.00, 0.00, -0.00, -1.00, 1297.8, 647.6)">p</text><text xml:space="preserve" font-family="Inconsolata,Inconsolata" font-size="32.0" fill="#FEFFFE" transform="matrix(1.00, 0.00, -0.00, -1.00, 1313.8, 647.6)">u</text><text xml:space="preserve" font-family="Inconsolata,Inconsolata" font-size="32.0" fill="#FEFFFE" transform="matrix(1.00, 0.00, -0.00, -1.00, 1329.8, 647.6)">t</text><text xml:space="preserve" font-family="Inconsolata,Inconsolata" font-size="32.0" fill="#FEFFFE" transform="matrix(1.00, 0.00, -0.00, -1.00, 1345.8, 647.6)"> </text><text xml:space="preserve" font-family="Inconsolata,Inconsolata" font-size="32.0" fill="#FEFFFE" transform="matrix(1.00, 0.00, -0.00, -1.00, 1361.8, 647.6)">1</text></g></g><image xlink:href="../../2071E324-AE3B-4F19-9629-15308FE44BED/assets/23D653C5FDD303009C1B8E2135751D14.png" width="190.00" height="74.00" transform="matrix(1.00, 0.00, -0.00, -1.00, 1218.7, 601.1)" opacity="0.50"></image><path d="M 1222.0 600.0 L 1406.0 600.0 L 1406.0 532.0 L 1222.0 532.0 Z M 1221.7 600.1 " fill="#002451"></path><g><clipPath id="clip0x7fd08704e710"><path d="M 1217.6 532.1 L 1410.1 532.1 L 1410.1 600.1 L 1217.6 600.1 Z M 1217.6 532.1 "></path></clipPath><g clip-path="url(#clip0x7fd08704e710)"><text xml:space="preserve" font-family="Inconsolata,Inconsolata" font-size="32.0" fill="#FEFFFE" transform="matrix(1.00, 0.00, -0.00, -1.00, 1249.8, 555.6)">O</text><text xml:space="preserve" font-family="Inconsolata,Inconsolata" font-size="32.0" fill="#FEFFFE" transform="matrix(1.00, 0.00, -0.00, -1.00, 1265.8, 555.6)">u</text><text xml:space="preserve" font-family="Inconsolata,Inconsolata" font-size="32.0" fill="#FEFFFE" transform="matrix(1.00, 0.00, -0.00, -1.00, 1281.8, 555.6)">t</text><text xml:space="preserve" font-family="Inconsolata,Inconsolata" font-size="32.0" fill="#FEFFFE" transform="matrix(1.00, 0.00, -0.00, -1.00, 1297.8, 555.6)">p</text><text xml:space="preserve" font-family="Inconsolata,Inconsolata" font-size="32.0" fill="#FEFFFE" transform="matrix(1.00, 0.00, -0.00, -1.00, 1313.8, 555.6)">u</text><text xml:space="preserve" font-family="Inconsolata,Inconsolata" font-size="32.0" fill="#FEFFFE" transform="matrix(1.00, 0.00, -0.00, -1.00, 1329.8, 555.6)">t</text><text xml:space="preserve" font-family="Inconsolata,Inconsolata" font-size="32.0" fill="#FEFFFE" transform="matrix(1.00, 0.00, -0.00, -1.00, 1345.8, 555.6)"> </text><text xml:space="preserve" font-family="Inconsolata,Inconsolata" font-size="32.0" fill="#FEFFFE" transform="matrix(1.00, 0.00, -0.00, -1.00, 1361.8, 555.6)">2</text></g></g><path d="M -0.1 -0.3 L 55.9 -0.3 " fill="none" stroke="#000000" stroke-width="5.00" stroke-linecap="round" stroke-dasharray="0.0, 15.0" transform="matrix(0.00, 1.00, 1.00, 0.00, 1313.8, 370.1)"></path><path d="M -0.5 0.4 L 166.6 0.4 L 173.5 0.4 " fill="none" stroke="#F5D327" stroke-width="13.00" stroke-linecap="round" stroke-dasharray="0.0, 39.0" transform="matrix(1.00, 0.00, 0.00, -1.00, 234.5, 490.9)"></path><path d="M 401.5 465.9 L 450.7 490.5 L 401.5 515.1 Z M 401.5 465.9 " fill="#F5D327"></path><path d="M -0.1 0.5 L 166.6 0.5 L 172.9 0.5 " fill="none" stroke="#F5D327" stroke-width="13.00" stroke-linecap="round" stroke-dasharray="0.0, 39.0" transform="matrix(1.00, 0.00, 0.00, -1.00, 1425.1, 468.0)"></path><path d="M 1591.5 442.9 L 1640.7 467.5 L 1591.5 492.1 Z M 1591.5 442.9 " fill="#F5D327"></path><path d="M -0.1 0.1 L 166.6 0.1 L 172.9 0.1 " fill="none" stroke="#F5D327" stroke-width="13.00" stroke-linecap="round" stroke-dasharray="0.0, 39.0" transform="matrix(1.00, 0.00, 0.00, -1.00, 1425.1, 315.6)"></path><path d="M 1591.5 290.9 L 1640.7 315.5 L 1591.5 340.1 Z M 1591.5 290.9 " fill="#F5D327"></path><path d="M -0.1 -0.4 L 166.6 -0.4 L 172.9 -0.4 " fill="none" stroke="#F5D327" stroke-width="13.00" stroke-linecap="round" stroke-dasharray="0.0, 39.0" transform="matrix(1.00, 0.00, 0.00, -1.00, 1425.1, 654.1)"></path><path d="M 1591.5 629.9 L 1640.7 654.5 L 1591.5 679.1 Z M 1591.5 629.9 " fill="#F5D327"></path><image xlink:href="../../2071E324-AE3B-4F19-9629-15308FE44BED/assets/B7E222165546B9DD65C9CD660C5866B1.png" width="231.00" height="74.00" transform="matrix(1.00, 0.00, -0.00, -1.00, 1668.8, 689.1)" opacity="0.50"></image><path d="M 1672.0 688.0 L 1897.0 688.0 L 1897.0 620.0 L 1672.0 620.0 Z M 1671.8 688.1 " fill="#F5D327"></path><g><clipPath id="clip0x7fd08576d710"><path d="M 1667.8 620.1 L 1900.9 620.1 L 1900.9 688.1 L 1667.8 688.1 Z M 1667.8 620.1 "></path></clipPath><g clip-path="url(#clip0x7fd08576d710)"><text xml:space="preserve" font-family="Inconsolata,Inconsolata" font-size="32.0" fill="#FEFFFE" transform="matrix(1.00, 0.00, -0.00, -1.00, 1696.3, 643.6)">P</text><text xml:space="preserve" font-family="Inconsolata,Inconsolata" font-size="32.0" fill="#FEFFFE" transform="matrix(1.00, 0.00, -0.00, -1.00, 1712.3, 643.6)">a</text><text xml:space="preserve" font-family="Inconsolata,Inconsolata" font-size="32.0" fill="#FEFFFE" transform="matrix(1.00, 0.00, -0.00, -1.00, 1728.3, 643.6)">r</text><text xml:space="preserve" font-family="Inconsolata,Inconsolata" font-size="32.0" fill="#FEFFFE" transform="matrix(1.00, 0.00, -0.00, -1.00, 1744.3, 643.6)">t</text><text xml:space="preserve" font-family="Inconsolata,Inconsolata" font-size="32.0" fill="#FEFFFE" transform="matrix(1.00, 0.00, -0.00, -1.00, 1760.3, 643.6)">i</text><text xml:space="preserve" font-family="Inconsolata,Inconsolata" font-size="32.0" fill="#FEFFFE" transform="matrix(1.00, 0.00, -0.00, -1.00, 1776.3, 643.6)">t</text><text xml:space="preserve" font-family="Inconsolata,Inconsolata" font-size="32.0" fill="#FEFFFE" transform="matrix(1.00, 0.00, -0.00, -1.00, 1792.3, 643.6)">i</text><text xml:space="preserve" font-family="Inconsolata,Inconsolata" font-size="32.0" fill="#FEFFFE" transform="matrix(1.00, 0.00, -0.00, -1.00, 1808.3, 643.6)">o</text><text xml:space="preserve" font-family="Inconsolata,Inconsolata" font-size="32.0" fill="#FEFFFE" transform="matrix(1.00, 0.00, -0.00, -1.00, 1824.3, 643.6)">n</text><text xml:space="preserve" font-family="Inconsolata,Inconsolata" font-size="32.0" fill="#FEFFFE" transform="matrix(1.00, 0.00, -0.00, -1.00, 1840.3, 643.6)"> </text><text xml:space="preserve" font-family="Inconsolata,Inconsolata" font-size="32.0" fill="#FEFFFE" transform="matrix(1.00, 0.00, -0.00, -1.00, 1856.3, 643.6)">1</text></g></g><image xlink:href="../../2071E324-AE3B-4F19-9629-15308FE44BED/assets/1F5AEC5722BB4259419DC756E36CBF65.png" width="231.00" height="74.00" transform="matrix(1.00, 0.00, -0.00, -1.00, 1668.8, 599.1)" opacity="0.50"></image><path d="M 1672.0 598.0 L 1897.0 598.0 L 1897.0 530.0 L 1672.0 530.0 Z M 1671.8 598.1 " fill="#F5D327"></path><g><clipPath id="clip0x7fd087056310"><path d="M 1667.8 530.1 L 1900.9 530.1 L 1900.9 598.1 L 1667.8 598.1 Z M 1667.8 530.1 "></path></clipPath><g clip-path="url(#clip0x7fd087056310)"><text xml:space="preserve" font-family="Inconsolata,Inconsolata" font-size="32.0" fill="#FEFFFE" transform="matrix(1.00, 0.00, -0.00, -1.00, 1696.3, 553.6)">P</text><text xml:space="preserve" font-family="Inconsolata,Inconsolata" font-size="32.0" fill="#FEFFFE" transform="matrix(1.00, 0.00, -0.00, -1.00, 1712.3, 553.6)">a</text><text xml:space="preserve" font-family="Inconsolata,Inconsolata" font-size="32.0" fill="#FEFFFE" transform="matrix(1.00, 0.00, -0.00, -1.00, 1728.3, 553.6)">r</text><text xml:space="preserve" font-family="Inconsolata,Inconsolata" font-size="32.0" fill="#FEFFFE" transform="matrix(1.00, 0.00, -0.00, -1.00, 1744.3, 553.6)">t</text><text xml:space="preserve" font-family="Inconsolata,Inconsolata" font-size="32.0" fill="#FEFFFE" transform="matrix(1.00, 0.00, -0.00, -1.00, 1760.3, 553.6)">i</text><text xml:space="preserve" font-family="Inconsolata,Inconsolata" font-size="32.0" fill="#FEFFFE" transform="matrix(1.00, 0.00, -0.00, -1.00, 1776.3, 553.6)">t</text><text xml:space="preserve" font-family="Inconsolata,Inconsolata" font-size="32.0" fill="#FEFFFE" transform="matrix(1.00, 0.00, -0.00, -1.00, 1792.3, 553.6)">i</text><text xml:space="preserve" font-family="Inconsolata,Inconsolata" font-size="32.0" fill="#FEFFFE" transform="matrix(1.00, 0.00, -0.00, -1.00, 1808.3, 553.6)">o</text><text xml:space="preserve" font-family="Inconsolata,Inconsolata" font-size="32.0" fill="#FEFFFE" transform="matrix(1.00, 0.00, -0.00, -1.00, 1824.3, 553.6)">n</text><text xml:space="preserve" font-family="Inconsolata,Inconsolata" font-size="32.0" fill="#FEFFFE" transform="matrix(1.00, 0.00, -0.00, -1.00, 1840.3, 553.6)"> </text><text xml:space="preserve" font-family="Inconsolata,Inconsolata" font-size="32.0" fill="#FEFFFE" transform="matrix(1.00, 0.00, -0.00, -1.00, 1856.3, 553.6)">2</text></g></g><image xlink:href="../../2071E324-AE3B-4F19-9629-15308FE44BED/assets/EF739A4EB2FAD72C385A6FDFABB3F0CC.png" width="231.00" height="74.00" transform="matrix(1.00, 0.00, -0.00, -1.00, 1668.8, 497.0)" opacity="0.50"></image><path d="M 1672.0 496.0 L 1897.0 496.0 L 1897.0 428.0 L 1672.0 428.0 Z M 1671.8 496.0 " fill="#F5D327"></path><g><clipPath id="clip0x7fd08000d570"><path d="M 1667.8 428.0 L 1900.9 428.0 L 1900.9 496.0 L 1667.8 496.0 Z M 1667.8 428.0 "></path></clipPath><g clip-path="url(#clip0x7fd08000d570)"><text xml:space="preserve" font-family="Inconsolata,Inconsolata" font-size="32.0" fill="#FEFFFE" transform="matrix(1.00, 0.00, -0.00, -1.00, 1696.3, 451.5)">P</text><text xml:space="preserve" font-family="Inconsolata,Inconsolata" font-size="32.0" fill="#FEFFFE" transform="matrix(1.00, 0.00, -0.00, -1.00, 1712.3, 451.5)">a</text><text xml:space="preserve" font-family="Inconsolata,Inconsolata" font-size="32.0" fill="#FEFFFE" transform="matrix(1.00, 0.00, -0.00, -1.00, 1728.3, 451.5)">r</text><text xml:space="preserve" font-family="Inconsolata,Inconsolata" font-size="32.0" fill="#FEFFFE" transform="matrix(1.00, 0.00, -0.00, -1.00, 1744.3, 451.5)">t</text><text xml:space="preserve" font-family="Inconsolata,Inconsolata" font-size="32.0" fill="#FEFFFE" transform="matrix(1.00, 0.00, -0.00, -1.00, 1760.3, 451.5)">i</text><text xml:space="preserve" font-family="Inconsolata,Inconsolata" font-size="32.0" fill="#FEFFFE" transform="matrix(1.00, 0.00, -0.00, -1.00, 1776.3, 451.5)">t</text><text xml:space="preserve" font-family="Inconsolata,Inconsolata" font-size="32.0" fill="#FEFFFE" transform="matrix(1.00, 0.00, -0.00, -1.00, 1792.3, 451.5)">i</text><text xml:space="preserve" font-family="Inconsolata,Inconsolata" font-size="32.0" fill="#FEFFFE" transform="matrix(1.00, 0.00, -0.00, -1.00, 1808.3, 451.5)">o</text><text xml:space="preserve" font-family="Inconsolata,Inconsolata" font-size="32.0" fill="#FEFFFE" transform="matrix(1.00, 0.00, -0.00, -1.00, 1824.3, 451.5)">n</text><text xml:space="preserve" font-family="Inconsolata,Inconsolata" font-size="32.0" fill="#FEFFFE" transform="matrix(1.00, 0.00, -0.00, -1.00, 1840.3, 451.5)"> </text><text xml:space="preserve" font-family="Inconsolata,Inconsolata" font-size="32.0" fill="#FEFFFE" transform="matrix(1.00, 0.00, -0.00, -1.00, 1856.3, 451.5)">3</text></g></g><image xlink:href="../../2071E324-AE3B-4F19-9629-15308FE44BED/assets/149F6DD1DF40113900A4227A74AF9622.png" width="231.00" height="74.00" transform="matrix(1.00, 0.00, -0.00, -1.00, 1668.8, 350.6)" opacity="0.50"></image><path d="M 1672.0 350.0 L 1897.0 350.0 L 1897.0 282.0 L 1672.0 282.0 Z M 1671.8 349.6 " fill="#F5D327"></path><g><clipPath id="clip0x7fd0857745f0"><path d="M 1667.8 281.6 L 1900.9 281.6 L 1900.9 349.6 L 1667.8 349.6 Z M 1667.8 281.6 "></path></clipPath><g clip-path="url(#clip0x7fd0857745f0)"><text xml:space="preserve" font-family="Inconsolata,Inconsolata" font-size="32.0" fill="#FEFFFE" transform="matrix(1.00, 0.00, -0.00, -1.00, 1680.3, 305.1)">P</text><text xml:space="preserve" font-family="Inconsolata,Inconsolata" font-size="32.0" fill="#FEFFFE" transform="matrix(1.00, 0.00, -0.00, -1.00, 1696.3, 305.1)">a</text><text xml:space="preserve" font-family="Inconsolata,Inconsolata" font-size="32.0" fill="#FEFFFE" transform="matrix(1.00, 0.00, -0.00, -1.00, 1712.3, 305.1)">r</text><text xml:space="preserve" font-family="Inconsolata,Inconsolata" font-size="32.0" fill="#FEFFFE" transform="matrix(1.00, 0.00, -0.00, -1.00, 1728.3, 305.1)">t</text><text xml:space="preserve" font-family="Inconsolata,Inconsolata" font-size="32.0" fill="#FEFFFE" transform="matrix(1.00, 0.00, -0.00, -1.00, 1744.3, 305.1)">i</text><text xml:space="preserve" font-family="Inconsolata,Inconsolata" font-size="32.0" fill="#FEFFFE" transform="matrix(1.00, 0.00, -0.00, -1.00, 1760.3, 305.1)">t</text><text xml:space="preserve" font-family="Inconsolata,Inconsolata" font-size="32.0" fill="#FEFFFE" transform="matrix(1.00, 0.00, -0.00, -1.00, 1776.3, 305.1)">i</text><text xml:space="preserve" font-family="Inconsolata,Inconsolata" font-size="32.0" fill="#FEFFFE" transform="matrix(1.00, 0.00, -0.00, -1.00, 1792.3, 305.1)">o</text><text xml:space="preserve" font-family="Inconsolata,Inconsolata" font-size="32.0" fill="#FEFFFE" transform="matrix(1.00, 0.00, -0.00, -1.00, 1808.3, 305.1)">n</text><text xml:space="preserve" font-family="Inconsolata,Inconsolata" font-size="32.0" fill="#FEFFFE" transform="matrix(1.00, 0.00, -0.00, -1.00, 1824.3, 305.1)"> </text><text xml:space="preserve" font-family="Inconsolata,Inconsolata" font-size="32.0" fill="#FEFFFE" transform="matrix(1.00, 0.00, -0.00, -1.00, 1840.3, 305.1)">B</text><text xml:space="preserve" font-family="Inconsolata,Inconsolata" font-size="32.0" fill="#FEFFFE" transform="matrix(1.00, 0.00, -0.00, -1.00, 1856.3, 305.1)">-</text><text xml:space="preserve" font-family="Inconsolata,Inconsolata" font-size="32.0" fill="#FEFFFE" transform="matrix(1.00, 0.00, -0.00, -1.00, 1872.3, 305.1)">1</text></g></g><text xml:space="preserve" font-family="Inconsolata,Inconsolata" font-size="25.0" fill="#000000" transform="matrix(1.00, 0.00, -0.00, -1.00, 808.1, 435.0)">h</text><text xml:space="preserve" font-family="Inconsolata,Inconsolata" font-size="25.0" fill="#000000" transform="matrix(1.00, 0.00, -0.00, -1.00, 820.6, 435.0)">a</text><text xml:space="preserve" font-family="Inconsolata,Inconsolata" font-size="25.0" fill="#000000" transform="matrix(1.00, 0.00, -0.00, -1.00, 833.1, 435.0)">s</text><text xml:space="preserve" font-family="Inconsolata,Inconsolata" font-size="25.0" fill="#000000" transform="matrix(1.00, 0.00, -0.00, -1.00, 845.6, 435.0)">h</text><text xml:space="preserve" font-family="Inconsolata,Inconsolata" font-size="25.0" fill="#000000" transform="matrix(1.00, 0.00, -0.00, -1.00, 858.1, 435.0)">(</text><text xml:space="preserve" font-family="Inconsolata,Inconsolata" font-size="25.0" fill="#000000" transform="matrix(1.00, 0.00, -0.00, -1.00, 870.6, 435.0)">c</text><text xml:space="preserve" font-family="Inconsolata,Inconsolata" font-size="25.0" fill="#000000" transform="matrix(1.00, 0.00, -0.00, -1.00, 883.1, 435.0)">o</text><text xml:space="preserve" font-family="Inconsolata,Inconsolata" font-size="25.0" fill="#000000" transform="matrix(1.00, 0.00, -0.00, -1.00, 895.6, 435.0)">l</text><text xml:space="preserve" font-family="Inconsolata,Inconsolata" font-size="25.0" fill="#000000" transform="matrix(1.00, 0.00, -0.00, -1.00, 908.1, 435.0)">u</text><text xml:space="preserve" font-family="Inconsolata,Inconsolata" font-size="25.0" fill="#000000" transform="matrix(1.00, 0.00, -0.00, -1.00, 920.6, 435.0)">m</text><text xml:space="preserve" font-family="Inconsolata,Inconsolata" font-size="25.0" fill="#000000" transform="matrix(1.00, 0.00, -0.00, -1.00, 933.1, 435.0)">n</text><text xml:space="preserve" font-family="Inconsolata,Inconsolata" font-size="25.0" fill="#000000" transform="matrix(1.00, 0.00, -0.00, -1.00, 945.6, 435.0)">)</text><text xml:space="preserve" font-family="Inconsolata,Inconsolata" font-size="25.0" fill="#000000" transform="matrix(1.00, 0.00, -0.00, -1.00, 958.1, 435.0)"> </text><text xml:space="preserve" font-family="Inconsolata,Inconsolata" font-size="25.0" fill="#000000" transform="matrix(1.00, 0.00, -0.00, -1.00, 970.6, 435.0)">m</text><text xml:space="preserve" font-family="Inconsolata,Inconsolata" font-size="25.0" fill="#000000" transform="matrix(1.00, 0.00, -0.00, -1.00, 983.1, 435.0)">o</text><text xml:space="preserve" font-family="Inconsolata,Inconsolata" font-size="25.0" fill="#000000" transform="matrix(1.00, 0.00, -0.00, -1.00, 995.6, 435.0)">d</text><text xml:space="preserve" font-family="Inconsolata,Inconsolata" font-size="25.0" fill="#000000" transform="matrix(1.00, 0.00, -0.00, -1.00, 1008.1, 435.0)"> </text><text xml:space="preserve" font-family="Inconsolata,Inconsolata" font-size="25.0" fill="#000000" transform="matrix(1.00, 0.00, -0.00, -1.00, 1020.6, 435.0)">B</text><text xml:space="preserve" font-family="Inconsolata,Inconsolata" font-size="25.0" fill="#000000" transform="matrix(1.00, 0.00, -0.00, -1.00, 1033.1, 435.0)">-</text><text xml:space="preserve" font-family="Inconsolata,Inconsolata" font-size="25.0" fill="#000000" transform="matrix(1.00, 0.00, -0.00, -1.00, 1045.6, 435.0)">1</text><path d="M 0.2 0.2 L 56.2 0.2 " fill="none" stroke="#F5D327" stroke-width="5.00" stroke-linecap="round" stroke-dasharray="0.0, 15.0" transform="matrix(0.00, 1.00, 1.00, 0.00, 1784.3, 360.8)"></path></g></svg>