<?xml version="1.0" encoding="UTF-8" standalone="no"?><svg xmlns="http://www.w3.org/2000/svg" xmlns:xlink="http://www.w3.org/1999/xlink" clip-rule="evenodd" stroke-miterlimit="10" viewBox="0 0 1920 1080"><desc>SVG generated by Keynote</desc><defs></defs><g transform="matrix(1.00, 0.00, -0.00, -1.00, 0.0, 1080.0)"><path d="M 0.0 1080.0 L 1920.0 1080.0 L 1920.0 0.0 L 0.0 0.0 Z M 0.0 1080.0 " fill="#FEFFFF"></path><g opacity="0.14"><g><clipPath id="clip0x6000012b4ac0"><path d="M 1714.0 260.0 L 1920.0 260.0 L 1920.0 752.0 L 1714.0 752.0 Z M 1714.0 260.0 "></path></clipPath><g clip-path="url(#clip0x6000012b4ac0)"><path d="M 1715.7 377.2 L 1716.0 634.2 C 1716.0 698.3 1767.6 750.0 1831.7 750.0 L 1946.5 750.0 C 2010.6 750.0 2063.0 698.3 2063.0 634.2 L 2063.0 377.2 C 2063.0 313.1 2010.6 261.0 1946.5 261.0 L 1831.7 261.0 C 1767.6 261.0 1715.7 313.1 1715.7 377.2 Z M 1715.7 377.2 " fill="#F5D327"></path></g></g></g><g opacity="0.10"><g><clipPath id="clip0x6000012b5c00"><path d="M 1256.0 252.0 L 1606.0 252.0 L 1606.0 744.0 L 1256.0 744.0 Z M 1256.0 252.0 "></path></clipPath><g clip-path="url(#clip0x6000012b5c00)"><path d="M 1257.8 369.1 L 1258.0 626.1 C 1258.0 690.2 1309.8 742.0 1373.9 742.0 L 1488.7 742.0 C 1552.8 742.0 1605.0 690.2 1605.0 626.1 L 1605.0 369.1 C 1605.0 305.0 1552.8 253.0 1488.7 253.0 L 1373.9 253.0 C 1309.8 253.0 1257.8 305.0 1257.8 369.1 Z M 1257.8 369.1 " fill="#51A7F9"></path></g></g></g><g opacity="0.14"><g><clipPath id="clip0x6000012b5e40"><path d="M 809.0 254.0 L 1155.0 254.0 L 1155.0 741.0 L 809.0 741.0 Z M 809.0 254.0 "></path></clipPath><g clip-path="url(#clip0x6000012b5e40)"><path d="M 810.8 370.5 L 811.0 624.6 C 811.0 688.0 862.2 739.0 925.6 739.0 L 1039.2 739.0 C 1102.6 739.0 1154.0 688.0 1154.0 624.6 L 1154.0 370.5 C 1154.0 307.1 1102.6 256.0 1039.2 256.0 L 925.6 256.0 C 862.2 256.0 810.8 307.1 810.8 370.5 Z M 810.8 370.5 " fill="#F5D327"></path></g></g></g><g opacity="0.10"><g><clipPath id="clip0x6000012b60e0"><path d="M 343.0 247.0 L 689.0 247.0 L 689.0 739.0 L 343.0 739.0 Z M 343.0 247.0 "></path></clipPath><g clip-path="url(#clip0x6000012b60e0)"><path d="M 344.4 366.1 L 344.0 620.5 C 344.0 685.3 396.9 738.0 461.7 738.0 L 570.1 738.0 C 634.9 738.0 687.0 685.3 687.0 620.5 L 687.0 366.1 C 687.0 301.3 634.9 249.0 570.1 249.0 L 461.7 249.0 C 396.9 249.0 344.4 301.3 344.4 366.1 Z M 344.4 366.1 " fill="#51A7F9"></path></g></g></g><text xml:space="preserve" font-family="Helvetica-Light,Helvetica" font-size="50.0" fill="#000000" transform="matrix(1.00, 0.00, -0.00, -1.00, 1337.6, 490.7)">C</text><text xml:space="preserve" font-family="Helvetica-Light,Helvetica" font-size="50.0" fill="#000000" transform="matrix(1.00, 0.00, -0.00, -1.00, 1373.7, 490.7)">o</text><text xml:space="preserve" font-family="Helvetica-Light,Helvetica" font-size="50.0" fill="#000000" transform="matrix(1.00, 0.00, -0.00, -1.00, 1401.5, 490.7)">n</text><text xml:space="preserve" font-family="Helvetica-Light,Helvetica" font-size="50.0" fill="#000000" transform="matrix(1.00, 0.00, -0.00, -1.00, 1429.3, 490.7)">q</text><text xml:space="preserve" font-family="Helvetica-Light,Helvetica" font-size="50.0" fill="#000000" transform="matrix(1.00, 0.00, -0.00, -1.00, 1459.8, 490.7)">u</text><text xml:space="preserve" font-family="Helvetica-Light,Helvetica" font-size="50.0" fill="#000000" transform="matrix(1.00, 0.00, -0.00, -1.00, 1487.6, 490.7)">e</text><text xml:space="preserve" font-family="Helvetica-Light,Helvetica" font-size="50.0" fill="#000000" transform="matrix(1.00, 0.00, -0.00, -1.00, 1515.4, 490.7)">r</text><text xml:space="preserve" font-family="Helvetica-Light,Helvetica" font-size="50.0" fill="#000000" transform="matrix(1.00, 0.00, -0.00, -1.00, 1532.1, 490.7)"> </text><text xml:space="preserve" font-family="Helvetica-Light,Helvetica" font-size="50.0" fill="#000000" transform="matrix(1.00, 0.00, -0.00, -1.00, 1333.4, 430.7)">(</text><text xml:space="preserve" font-family="Helvetica-Light,Helvetica" font-size="50.0" fill="#000000" transform="matrix(1.00, 0.00, -0.00, -1.00, 1350.0, 430.7)">R</text><text xml:space="preserve" font-family="Helvetica-Light,Helvetica" font-size="50.0" fill="#000000" transform="matrix(1.00, 0.00, -0.00, -1.00, 1383.4, 430.7)">e</text><text xml:space="preserve" font-family="Helvetica-Light,Helvetica" font-size="50.0" fill="#000000" transform="matrix(1.00, 0.00, -0.00, -1.00, 1411.2, 430.7)">h</text><text xml:space="preserve" font-family="Helvetica-Light,Helvetica" font-size="50.0" fill="#000000" transform="matrix(1.00, 0.00, -0.00, -1.00, 1439.0, 430.7)">a</text><text xml:space="preserve" font-family="Helvetica-Light,Helvetica" font-size="50.0" fill="#000000" transform="matrix(1.00, 0.00, -0.00, -1.00, 1466.8, 430.7)">s</text><text xml:space="preserve" font-family="Helvetica-Light,Helvetica" font-size="50.0" fill="#000000" transform="matrix(1.00, 0.00, -0.00, -1.00, 1491.8, 430.7)">h</text><text xml:space="preserve" font-family="Helvetica-Light,Helvetica" font-size="50.0" fill="#000000" transform="matrix(1.00, 0.00, -0.00, -1.00, 1519.6, 430.7)">)</text><text xml:space="preserve" font-family="Helvetica-Light,Helvetica" font-size="50.0" fill="#000000" transform="matrix(1.00, 0.00, -0.00, -1.00, 933.8, 490.7)">D</text><text xml:space="preserve" font-family="Helvetica-Light,Helvetica" font-size="50.0" fill="#000000" transform="matrix(1.00, 0.00, -0.00, -1.00, 969.9, 490.7)">i</text><text xml:space="preserve" font-family="Helvetica-Light,Helvetica" font-size="50.0" fill="#000000" transform="matrix(1.00, 0.00, -0.00, -1.00, 981.0, 490.7)">s</text><text xml:space="preserve" font-family="Helvetica-Light,Helvetica" font-size="50.0" fill="#000000" transform="matrix(1.00, 0.00, -0.00, -1.00, 1006.0, 490.7)">k</text><text xml:space="preserve" font-family="Helvetica-Light,Helvetica" font-size="50.0" fill="#000000" transform="matrix(1.00, 0.00, -0.00, -1.00, 1031.0, 490.7)"> </text><text xml:space="preserve" font-family="Helvetica-Light,Helvetica" font-size="50.0" fill="#000000" transform="matrix(1.00, 0.00, -0.00, -1.00, 879.2, 430.7)">P</text><text xml:space="preserve" font-family="Helvetica-Light,Helvetica" font-size="50.0" fill="#000000" transform="matrix(1.00, 0.00, -0.00, -1.00, 909.7, 430.7)">a</text><text xml:space="preserve" font-family="Helvetica-Light,Helvetica" font-size="50.0" fill="#000000" transform="matrix(1.00, 0.00, -0.00, -1.00, 937.5, 430.7)">r</text><text xml:space="preserve" font-family="Helvetica-Light,Helvetica" font-size="50.0" fill="#000000" transform="matrix(1.00, 0.00, -0.00, -1.00, 955.1, 430.7)">t</text><text xml:space="preserve" font-family="Helvetica-Light,Helvetica" font-size="50.0" fill="#000000" transform="matrix(1.00, 0.00, -0.00, -1.00, 969.0, 430.7)">i</text><text xml:space="preserve" font-family="Helvetica-Light,Helvetica" font-size="50.0" fill="#000000" transform="matrix(1.00, 0.00, -0.00, -1.00, 980.1, 430.7)">t</text><text xml:space="preserve" font-family="Helvetica-Light,Helvetica" font-size="50.0" fill="#000000" transform="matrix(1.00, 0.00, -0.00, -1.00, 994.0, 430.7)">i</text><text xml:space="preserve" font-family="Helvetica-Light,Helvetica" font-size="50.0" fill="#000000" transform="matrix(1.00, 0.00, -0.00, -1.00, 1005.1, 430.7)">o</text><text xml:space="preserve" font-family="Helvetica-Light,Helvetica" font-size="50.0" fill="#000000" transform="matrix(1.00, 0.00, -0.00, -1.00, 1032.9, 430.7)">n</text><text xml:space="preserve" font-family="Helvetica-Light,Helvetica" font-size="50.0" fill="#000000" transform="matrix(1.00, 0.00, -0.00, -1.00, 1060.7, 430.7)">s</text><text xml:space="preserve" font-family="Helvetica-Light,Helvetica" font-size="50.0" fill="#000000" transform="matrix(1.00, 0.00, -0.00, -1.00, 1823.9, 460.7)">D</text><text xml:space="preserve" font-family="Helvetica-Light,Helvetica" font-size="50.0" fill="#000000" transform="matrix(1.00, 0.00, -0.00, -1.00, 1860.0, 460.7)">i</text><text xml:space="preserve" font-family="Helvetica-Light,Helvetica" font-size="50.0" fill="#000000" transform="matrix(1.00, 0.00, -0.00, -1.00, 1871.1, 460.7)">s</text><text xml:space="preserve" font-family="Helvetica-Light,Helvetica" font-size="50.0" fill="#000000" transform="matrix(1.00, 0.00, -0.00, -1.00, 1896.1, 460.7)">k</text><path d="M -0.4 -0.3 L 141.0 -0.3 L 147.6 -0.3 " fill="none" stroke="#F5D327" stroke-width="13.00" transform="matrix(1.00, 0.00, 0.00, -1.00, 1586.4, 479.2)"></path><path d="M 1727.5 454.9 L 1776.7 479.5 L 1727.5 504.1 Z M 1727.5 454.9 " fill="#F5D327"></path><path d="M -0.5 -0.3 L 107.5 -0.3 L 113.5 -0.3 " fill="none" stroke="#F5D327" stroke-width="13.00" transform="matrix(1.00, 0.00, 0.00, -1.00, 1148.5, 479.2)"></path><path d="M 1255.5 454.9 L 1304.7 479.5 L 1255.5 504.1 Z M 1255.5 454.9 " fill="#F5D327"></path><path d="M -0.1 -0.3 L 143.7 -0.3 L 149.9 -0.3 " fill="none" stroke="#F5D327" stroke-width="13.00" transform="matrix(1.00, 0.00, 0.00, -1.00, 677.1, 479.2)"></path><path d="M 820.5 454.9 L 869.7 479.5 L 820.5 504.1 Z M 820.5 454.9 " fill="#F5D327"></path><text xml:space="preserve" font-family="Helvetica-Light,Helvetica" font-size="50.0" fill="#000000" transform="matrix(1.00, 0.00, -0.00, -1.00, 449.2, 490.7)">D</text><text xml:space="preserve" font-family="Helvetica-Light,Helvetica" font-size="50.0" fill="#000000" transform="matrix(1.00, 0.00, -0.00, -1.00, 485.3, 490.7)">i</text><text xml:space="preserve" font-family="Helvetica-Light,Helvetica" font-size="50.0" fill="#000000" transform="matrix(1.00, 0.00, -0.00, -1.00, 496.4, 490.7)">v</text><text xml:space="preserve" font-family="Helvetica-Light,Helvetica" font-size="50.0" fill="#000000" transform="matrix(1.00, 0.00, -0.00, -1.00, 521.4, 490.7)">i</text><text xml:space="preserve" font-family="Helvetica-Light,Helvetica" font-size="50.0" fill="#000000" transform="matrix(1.00, 0.00, -0.00, -1.00, 532.5, 490.7)">d</text><text xml:space="preserve" font-family="Helvetica-Light,Helvetica" font-size="50.0" fill="#000000" transform="matrix(1.00, 0.00, -0.00, -1.00, 563.1, 490.7)">e</text><text xml:space="preserve" font-family="Helvetica-Light,Helvetica" font-size="50.0" fill="#000000" transform="matrix(1.00, 0.00, -0.00, -1.00, 590.9, 490.7)"> </text><text xml:space="preserve" font-family="Helvetica-Light,Helvetica" font-size="50.0" fill="#000000" transform="matrix(1.00, 0.00, -0.00, -1.00, 445.1, 430.7)">(</text><text xml:space="preserve" font-family="Helvetica-Light,Helvetica" font-size="50.0" fill="#000000" transform="matrix(1.00, 0.00, -0.00, -1.00, 461.7, 430.7)">H</text><text xml:space="preserve" font-family="Helvetica-Light,Helvetica" font-size="50.0" fill="#000000" transform="matrix(1.00, 0.00, -0.00, -1.00, 497.8, 430.7)">a</text><text xml:space="preserve" font-family="Helvetica-Light,Helvetica" font-size="50.0" fill="#000000" transform="matrix(1.00, 0.00, -0.00, -1.00, 525.6, 430.7)">s</text><text xml:space="preserve" font-family="Helvetica-Light,Helvetica" font-size="50.0" fill="#000000" transform="matrix(1.00, 0.00, -0.00, -1.00, 550.6, 430.7)">h</text><text xml:space="preserve" font-family="Helvetica-Light,Helvetica" font-size="50.0" fill="#000000" transform="matrix(1.00, 0.00, -0.00, -1.00, 578.4, 430.7)">)</text><path d="M -0.4 -0.3 L 166.6 -0.3 L 173.6 -0.3 " fill="none" stroke="#F5D327" stroke-width="13.00" transform="matrix(1.00, 0.00, 0.00, -1.00, 197.4, 479.2)"></path><path d="M 364.5 454.9 L 413.7 479.5 L 364.5 504.1 Z M 364.5 454.9 " fill="#F5D327"></path><image xlink:href="../../E526AE67-1150-4C7C-B462-4B2B0D6EFC89/assets/6E031EE818863E07C65B20D6B3AFC4C1.png" width="231.00" height="469.00" transform="matrix(1.00, 0.00, -0.00, -1.00, -7.0, 725.8)" opacity="0.50"></image><path d="M -4.0 725.0 L 221.0 725.0 L 221.0 262.0 L -4.0 262.0 Z M -4.0 724.8 " fill="#F5D327"></path><g><clipPath id="clip0x6080012a9a80"><path d="M -8.1 261.7 L 225.1 261.7 L 225.1 724.8 L -8.1 724.8 Z M -8.1 261.7 "></path></clipPath><g clip-path="url(#clip0x6080012a9a80)"><text xml:space="preserve" font-family="Inconsolata,Inconsolata" font-size="32.0" fill="#FEFFFE" transform="matrix(1.00, 0.00, -0.00, -1.00, 20.5, 482.4)">P</text><text xml:space="preserve" font-family="Inconsolata,Inconsolata" font-size="32.0" fill="#FEFFFE" transform="matrix(1.00, 0.00, -0.00, -1.00, 36.5, 482.4)">a</text><text xml:space="preserve" font-family="Inconsolata,Inconsolata" font-size="32.0" fill="#FEFFFE" transform="matrix(1.00, 0.00, -0.00, -1.00, 52.5, 482.4)">r</text><text xml:space="preserve" font-family="Inconsolata,Inconsolata" font-size="32.0" fill="#FEFFFE" transform="matrix(1.00, 0.00, -0.00, -1.00, 68.5, 482.4)">t</text><text xml:space="preserve" font-family="Inconsolata,Inconsolata" font-size="32.0" fill="#FEFFFE" transform="matrix(1.00, 0.00, -0.00, -1.00, 84.5, 482.4)">i</text><text xml:space="preserve" font-family="Inconsolata,Inconsolata" font-size="32.0" fill="#FEFFFE" transform="matrix(1.00, 0.00, -0.00, -1.00, 100.5, 482.4)">t</text><text xml:space="preserve" font-family="Inconsolata,Inconsolata" font-size="32.0" fill="#FEFFFE" transform="matrix(1.00, 0.00, -0.00, -1.00, 116.5, 482.4)">i</text><text xml:space="preserve" font-family="Inconsolata,Inconsolata" font-size="32.0" fill="#FEFFFE" transform="matrix(1.00, 0.00, -0.00, -1.00, 132.5, 482.4)">o</text><text xml:space="preserve" font-family="Inconsolata,Inconsolata" font-size="32.0" fill="#FEFFFE" transform="matrix(1.00, 0.00, -0.00, -1.00, 148.5, 482.4)">n</text><text xml:space="preserve" font-family="Inconsolata,Inconsolata" font-size="32.0" fill="#FEFFFE" transform="matrix(1.00, 0.00, -0.00, -1.00, 164.5, 482.4)"> </text><text xml:space="preserve" font-family="Inconsolata,Inconsolata" font-size="32.0" fill="#FEFFFE" transform="matrix(1.00, 0.00, -0.00, -1.00, 180.5, 482.4)">k</text></g></g><text xml:space="preserve" font-family="Helvetica-Light,Helvetica" font-size="71.7" fill="#000000" transform="matrix(1.00, 0.00, -0.00, -1.00, 208.4, 931.5)">R</text><text xml:space="preserve" font-family="Helvetica-Light,Helvetica" font-size="71.7" fill="#000000" transform="matrix(1.00, 0.00, -0.00, -1.00, 256.2, 931.5)">e</text><text xml:space="preserve" font-family="Helvetica-Light,Helvetica" font-size="71.7" fill="#000000" transform="matrix(1.00, 0.00, -0.00, -1.00, 296.1, 931.5)">c</text><text xml:space="preserve" font-family="Helvetica-Light,Helvetica" font-size="71.7" fill="#000000" transform="matrix(1.00, 0.00, -0.00, -1.00, 335.9, 931.5)">u</text><text xml:space="preserve" font-family="Helvetica-Light,Helvetica" font-size="71.7" fill="#000000" transform="matrix(1.00, 0.00, -0.00, -1.00, 375.8, 931.5)">r</text><text xml:space="preserve" font-family="Helvetica-Light,Helvetica" font-size="71.7" fill="#000000" transform="matrix(1.00, 0.00, -0.00, -1.00, 399.6, 931.5)">s</text><text xml:space="preserve" font-family="Helvetica-Light,Helvetica" font-size="71.7" fill="#000000" transform="matrix(1.00, 0.00, -0.00, -1.00, 435.5, 931.5)">i</text><text xml:space="preserve" font-family="Helvetica-Light,Helvetica" font-size="71.7" fill="#000000" transform="matrix(1.00, 0.00, -0.00, -1.00, 451.4, 931.5)">v</text><text xml:space="preserve" font-family="Helvetica-Light,Helvetica" font-size="71.7" fill="#000000" transform="matrix(1.00, 0.00, -0.00, -1.00, 487.2, 931.5)">e</text><text xml:space="preserve" font-family="Helvetica-Light,Helvetica" font-size="71.7" fill="#000000" transform="matrix(1.00, 0.00, -0.00, -1.00, 527.1, 931.5)">l</text><text xml:space="preserve" font-family="Helvetica-Light,Helvetica" font-size="71.7" fill="#000000" transform="matrix(1.00, 0.00, -0.00, -1.00, 543.0, 931.5)">y</text><text xml:space="preserve" font-family="Helvetica-Light,Helvetica" font-size="71.7" fill="#000000" transform="matrix(1.00, 0.00, -0.00, -1.00, 578.8, 931.5)"> </text><text xml:space="preserve" font-family="Helvetica-Light,Helvetica" font-size="71.7" fill="#000000" transform="matrix(1.00, 0.00, -0.00, -1.00, 598.8, 931.5)">e</text><text xml:space="preserve" font-family="Helvetica-Light,Helvetica" font-size="71.7" fill="#000000" transform="matrix(1.00, 0.00, -0.00, -1.00, 638.6, 931.5)">x</text><text xml:space="preserve" font-family="Helvetica-Light,Helvetica" font-size="71.7" fill="#000000" transform="matrix(1.00, 0.00, -0.00, -1.00, 674.5, 931.5)">t</text><text xml:space="preserve" font-family="Helvetica-Light,Helvetica" font-size="71.7" fill="#000000" transform="matrix(1.00, 0.00, -0.00, -1.00, 694.4, 931.5)">e</text><text xml:space="preserve" font-family="Helvetica-Light,Helvetica" font-size="71.7" fill="#000000" transform="matrix(1.00, 0.00, -0.00, -1.00, 734.2, 931.5)">r</text><text xml:space="preserve" font-family="Helvetica-Light,Helvetica" font-size="71.7" fill="#000000" transform="matrix(1.00, 0.00, -0.00, -1.00, 759.4, 931.5)">n</text><text xml:space="preserve" font-family="Helvetica-Light,Helvetica" font-size="71.7" fill="#000000" transform="matrix(1.00, 0.00, -0.00, -1.00, 799.3, 931.5)">a</text><text xml:space="preserve" font-family="Helvetica-Light,Helvetica" font-size="71.7" fill="#000000" transform="matrix(1.00, 0.00, -0.00, -1.00, 839.1, 931.5)">l</text><text xml:space="preserve" font-family="Helvetica-Light,Helvetica" font-size="71.7" fill="#000000" transform="matrix(1.00, 0.00, -0.00, -1.00, 855.0, 931.5)"> </text><text xml:space="preserve" font-family="Helvetica-Light,Helvetica" font-size="71.7" fill="#000000" transform="matrix(1.00, 0.00, -0.00, -1.00, 875.0, 931.5)">h</text><text xml:space="preserve" font-family="Helvetica-Light,Helvetica" font-size="71.7" fill="#000000" transform="matrix(1.00, 0.00, -0.00, -1.00, 914.8, 931.5)">a</text><text xml:space="preserve" font-family="Helvetica-Light,Helvetica" font-size="71.7" fill="#000000" transform="matrix(1.00, 0.00, -0.00, -1.00, 954.7, 931.5)">s</text><text xml:space="preserve" font-family="Helvetica-Light,Helvetica" font-size="71.7" fill="#000000" transform="matrix(1.00, 0.00, -0.00, -1.00, 990.5, 931.5)">h</text><text xml:space="preserve" font-family="Helvetica-Light,Helvetica" font-size="71.7" fill="#000000" transform="matrix(1.00, 0.00, -0.00, -1.00, 1030.4, 931.5)"> </text><text xml:space="preserve" font-family="Helvetica-Light,Helvetica" font-size="71.7" fill="#000000" transform="matrix(1.00, 0.00, -0.00, -1.00, 1050.3, 931.5)">w</text><text xml:space="preserve" font-family="Helvetica-Light,Helvetica" font-size="71.7" fill="#000000" transform="matrix(1.00, 0.00, -0.00, -1.00, 1102.0, 931.5)">i</text><text xml:space="preserve" font-family="Helvetica-Light,Helvetica" font-size="71.7" fill="#000000" transform="matrix(1.00, 0.00, -0.00, -1.00, 1117.9, 931.5)">t</text><text xml:space="preserve" font-family="Helvetica-Light,Helvetica" font-size="71.7" fill="#000000" transform="matrix(1.00, 0.00, -0.00, -1.00, 1137.9, 931.5)">h</text><text xml:space="preserve" font-family="Helvetica-Light,Helvetica" font-size="71.7" fill="#000000" transform="matrix(1.00, 0.00, -0.00, -1.00, 1177.7, 931.5)"> </text><text xml:space="preserve" font-family="Helvetica-Light,Helvetica" font-size="71.7" fill="#000000" transform="matrix(1.00, 0.00, -0.00, -1.00, 1197.7, 931.5)">h</text><text xml:space="preserve" font-family="Helvetica-Light,Helvetica" font-size="71.7" fill="#000000" transform="matrix(1.00, 0.00, -0.00, -1.00, 1237.5, 931.5)">o</text><text xml:space="preserve" font-family="Helvetica-Light,Helvetica" font-size="71.7" fill="#000000" transform="matrix(1.00, 0.00, -0.00, -1.00, 1277.4, 931.5)">p</text><text xml:space="preserve" font-family="Helvetica-Light,Helvetica" font-size="71.7" fill="#000000" transform="matrix(1.00, 0.00, -0.00, -1.00, 1321.2, 931.5)">e</text><text xml:space="preserve" font-family="Helvetica-Light,Helvetica" font-size="71.7" fill="#000000" transform="matrix(1.00, 0.00, -0.00, -1.00, 1361.0, 931.5)"> </text><text xml:space="preserve" font-family="Helvetica-Light,Helvetica" font-size="71.7" fill="#000000" transform="matrix(1.00, 0.00, -0.00, -1.00, 1380.9, 931.5)">o</text><text xml:space="preserve" font-family="Helvetica-Light,Helvetica" font-size="71.7" fill="#000000" transform="matrix(1.00, 0.00, -0.00, -1.00, 1420.8, 931.5)">f</text><text xml:space="preserve" font-family="Helvetica-Light,Helvetica" font-size="71.7" fill="#000000" transform="matrix(1.00, 0.00, -0.00, -1.00, 1440.7, 931.5)"> </text><text xml:space="preserve" font-family="Helvetica-Light,Helvetica" font-size="71.7" fill="#000000" transform="matrix(1.00, 0.00, -0.00, -1.00, 1460.6, 931.5)">ï¬</text><text xml:space="preserve" font-family="Helvetica-Light,Helvetica" font-size="71.7" fill="#000000" transform="matrix(1.00, 0.00, -0.00, -1.00, 1496.5, 931.5)">t</text><text xml:space="preserve" font-family="Helvetica-Light,Helvetica" font-size="71.7" fill="#000000" transform="matrix(1.00, 0.00, -0.00, -1.00, 1516.4, 931.5)">t</text><text xml:space="preserve" font-family="Helvetica-Light,Helvetica" font-size="71.7" fill="#000000" transform="matrix(1.00, 0.00, -0.00, -1.00, 1536.3, 931.5)">i</text><text xml:space="preserve" font-family="Helvetica-Light,Helvetica" font-size="71.7" fill="#000000" transform="matrix(1.00, 0.00, -0.00, -1.00, 1552.3, 931.5)">n</text><text xml:space="preserve" font-family="Helvetica-Light,Helvetica" font-size="71.7" fill="#000000" transform="matrix(1.00, 0.00, -0.00, -1.00, 1592.1, 931.5)">g</text><text xml:space="preserve" font-family="Helvetica-Light,Helvetica" font-size="71.7" fill="#000000" transform="matrix(1.00, 0.00, -0.00, -1.00, 1635.9, 931.5)"> </text><text xml:space="preserve" font-family="Helvetica-Light,Helvetica" font-size="71.7" fill="#000000" transform="matrix(1.00, 0.00, -0.00, -1.00, 1655.8, 931.5)">i</text><text xml:space="preserve" font-family="Helvetica-Light,Helvetica" font-size="71.7" fill="#000000" transform="matrix(1.00, 0.00, -0.00, -1.00, 1671.7, 931.5)">n</text><text xml:space="preserve" font-family="Helvetica-Light,Helvetica" font-size="71.7" fill="#000000" transform="matrix(1.00, 0.00, -0.00, -1.00, 1711.6, 931.5)"> </text><text xml:space="preserve" font-family="Helvetica-Light,Helvetica" font-size="71.7" fill="#000000" transform="matrix(1.00, 0.00, -0.00, -1.00, 414.3, 846.5)">s</text><text xml:space="preserve" font-family="Helvetica-Light,Helvetica" font-size="71.7" fill="#000000" transform="matrix(1.00, 0.00, -0.00, -1.00, 450.1, 846.5)">u</text><text xml:space="preserve" font-family="Helvetica-Light,Helvetica" font-size="71.7" fill="#000000" transform="matrix(1.00, 0.00, -0.00, -1.00, 490.0, 846.5)">b</text><text xml:space="preserve" font-family="Helvetica-Light,Helvetica" font-size="71.7" fill="#000000" transform="matrix(1.00, 0.00, -0.00, -1.00, 533.8, 846.5)">-</text><text xml:space="preserve" font-family="Helvetica-Light,Helvetica" font-size="71.7" fill="#000000" transform="matrix(1.00, 0.00, -0.00, -1.00, 557.7, 846.5)">p</text><text xml:space="preserve" font-family="Helvetica-Light,Helvetica" font-size="71.7" fill="#000000" transform="matrix(1.00, 0.00, -0.00, -1.00, 601.5, 846.5)">a</text><text xml:space="preserve" font-family="Helvetica-Light,Helvetica" font-size="71.7" fill="#000000" transform="matrix(1.00, 0.00, -0.00, -1.00, 641.3, 846.5)">r</text><text xml:space="preserve" font-family="Helvetica-Light,Helvetica" font-size="71.7" fill="#000000" transform="matrix(1.00, 0.00, -0.00, -1.00, 666.5, 846.5)">t</text><text xml:space="preserve" font-family="Helvetica-Light,Helvetica" font-size="71.7" fill="#000000" transform="matrix(1.00, 0.00, -0.00, -1.00, 686.4, 846.5)">i</text><text xml:space="preserve" font-family="Helvetica-Light,Helvetica" font-size="71.7" fill="#000000" transform="matrix(1.00, 0.00, -0.00, -1.00, 702.3, 846.5)">t</text><text xml:space="preserve" font-family="Helvetica-Light,Helvetica" font-size="71.7" fill="#000000" transform="matrix(1.00, 0.00, -0.00, -1.00, 722.2, 846.5)">i</text><text xml:space="preserve" font-family="Helvetica-Light,Helvetica" font-size="71.7" fill="#000000" transform="matrix(1.00, 0.00, -0.00, -1.00, 738.2, 846.5)">o</text><text xml:space="preserve" font-family="Helvetica-Light,Helvetica" font-size="71.7" fill="#000000" transform="matrix(1.00, 0.00, -0.00, -1.00, 778.0, 846.5)">n</text><text xml:space="preserve" font-family="Helvetica-Light,Helvetica" font-size="71.7" fill="#000000" transform="matrix(1.00, 0.00, -0.00, -1.00, 817.9, 846.5)">s</text><text xml:space="preserve" font-family="Helvetica-Light,Helvetica" font-size="71.7" fill="#000000" transform="matrix(1.00, 0.00, -0.00, -1.00, 853.7, 846.5)"> </text><text xml:space="preserve" font-family="Helvetica-Light,Helvetica" font-size="71.7" fill="#000000" transform="matrix(1.00, 0.00, -0.00, -1.00, 873.6, 846.5)">c</text><text xml:space="preserve" font-family="Helvetica-Light,Helvetica" font-size="71.7" fill="#000000" transform="matrix(1.00, 0.00, -0.00, -1.00, 913.5, 846.5)">o</text><text xml:space="preserve" font-family="Helvetica-Light,Helvetica" font-size="71.7" fill="#000000" transform="matrix(1.00, 0.00, -0.00, -1.00, 953.3, 846.5)">m</text><text xml:space="preserve" font-family="Helvetica-Light,Helvetica" font-size="71.7" fill="#000000" transform="matrix(1.00, 0.00, -0.00, -1.00, 1013.0, 846.5)">p</text><text xml:space="preserve" font-family="Helvetica-Light,Helvetica" font-size="71.7" fill="#000000" transform="matrix(1.00, 0.00, -0.00, -1.00, 1056.8, 846.5)">l</text><text xml:space="preserve" font-family="Helvetica-Light,Helvetica" font-size="71.7" fill="#000000" transform="matrix(1.00, 0.00, -0.00, -1.00, 1072.8, 846.5)">e</text><text xml:space="preserve" font-family="Helvetica-Light,Helvetica" font-size="71.7" fill="#000000" transform="matrix(1.00, 0.00, -0.00, -1.00, 1112.6, 846.5)">t</text><text xml:space="preserve" font-family="Helvetica-Light,Helvetica" font-size="71.7" fill="#000000" transform="matrix(1.00, 0.00, -0.00, -1.00, 1132.5, 846.5)">e</text><text xml:space="preserve" font-family="Helvetica-Light,Helvetica" font-size="71.7" fill="#000000" transform="matrix(1.00, 0.00, -0.00, -1.00, 1172.4, 846.5)">l</text><text xml:space="preserve" font-family="Helvetica-Light,Helvetica" font-size="71.7" fill="#000000" transform="matrix(1.00, 0.00, -0.00, -1.00, 1188.3, 846.5)">y</text><text xml:space="preserve" font-family="Helvetica-Light,Helvetica" font-size="71.7" fill="#000000" transform="matrix(1.00, 0.00, -0.00, -1.00, 1224.1, 846.5)"> </text><text xml:space="preserve" font-family="Helvetica-Light,Helvetica" font-size="71.7" fill="#000000" transform="matrix(1.00, 0.00, -0.00, -1.00, 1244.1, 846.5)">i</text><text xml:space="preserve" font-family="Helvetica-Light,Helvetica" font-size="71.7" fill="#000000" transform="matrix(1.00, 0.00, -0.00, -1.00, 1260.0, 846.5)">n</text><text xml:space="preserve" font-family="Helvetica-Light,Helvetica" font-size="71.7" fill="#000000" transform="matrix(1.00, 0.00, -0.00, -1.00, 1299.8, 846.5)"> </text><text xml:space="preserve" font-family="Helvetica-Light,Helvetica" font-size="71.7" fill="#000000" transform="matrix(1.00, 0.00, -0.00, -1.00, 1319.8, 846.5)">b</text><text xml:space="preserve" font-family="Helvetica-Light,Helvetica" font-size="71.7" fill="#000000" transform="matrix(1.00, 0.00, -0.00, -1.00, 1363.6, 846.5)">u</text><text xml:space="preserve" font-family="Helvetica-Light,Helvetica" font-size="71.7" fill="#000000" transform="matrix(1.00, 0.00, -0.00, -1.00, 1403.4, 846.5)">f</text><text xml:space="preserve" font-family="Helvetica-Light,Helvetica" font-size="71.7" fill="#000000" transform="matrix(1.00, 0.00, -0.00, -1.00, 1422.0, 846.5)">f</text><text xml:space="preserve" font-family="Helvetica-Light,Helvetica" font-size="71.7" fill="#000000" transform="matrix(1.00, 0.00, -0.00, -1.00, 1442.0, 846.5)">e</text><text xml:space="preserve" font-family="Helvetica-Light,Helvetica" font-size="71.7" fill="#000000" transform="matrix(1.00, 0.00, -0.00, -1.00, 1481.8, 846.5)">r</text></g></svg>