<?xml version="1.0" encoding="UTF-8" standalone="no"?><svg xmlns="http://www.w3.org/2000/svg" xmlns:xlink="http://www.w3.org/1999/xlink" clip-rule="evenodd" stroke-miterlimit="10" viewBox="0 0 1920 1080"><desc>SVG generated by Keynote</desc><defs><pattern id="D5AADF1A-B3E8-4284-B14F-63CF5457A1A7" patternUnits="userSpaceOnUse" width="600" height="600" viewBox="0 0 600 600"><image xlink:href="../../B49DC77F-09BB-449C-9313-EC11A2C405DF/assets/C3C0FC898C94653CAF8AD846D6CCD108.png" width="600.00" height="600.00"></image></pattern></defs><g transform="matrix(1.00, 0.00, -0.00, -1.00, 0.0, 1080.0)"><path d="M 0.0 1080.0 L 1920.0 1080.0 L 1920.0 0.0 L 0.0 0.0 Z M 0.0 1080.0 " fill="#FEFFFF"></path><g><clipPath id="clip0x608000caf780"><path d="M 676.8 100.2 L 1167.0 100.2 L 1167.0 451.3 L 676.8 451.3 Z M 676.8 100.2 "></path></clipPath><g clip-path="url(#clip0x608000caf780)"><image xlink:href="../../3A4FEE44-229D-4996-997A-C893EC7515BC/assets/1BC8A8C37E0543003977F2E282DFD150.png" width="488.00" height="349.00" transform="matrix(1.00, 0.00, -0.00, -1.00, 677.8, 450.3)" opacity="0.50"></image></g></g><g><clipPath id="clip0x608000cafc60"><path d="M 681.0 449.0 L 1163.0 449.0 L 1163.0 106.0 L 681.0 106.0 Z M 680.8 449.3 "></path></clipPath><g clip-path="url(#clip0x608000cafc60)"><g><clipPath id="clip0x608000cb0680"><path d="M 676.8 100.2 L 1167.0 100.2 L 1167.0 451.3 L 676.8 451.3 Z M 676.8 100.2 "></path></clipPath><g clip-path="url(#clip0x608000cb0680)"><path d="M 681.0 106.0 L 1163.0 106.0 L 1163.0 449.0 L 681.0 449.0 Z M 681.0 106.0 " fill="url(#D5AADF1A-B3E8-4284-B14F-63CF5457A1A7)"></path></g></g></g></g><g><clipPath id="clip0x608000cb09e0"><path d="M 670.6 106.2 L 1173.3 106.2 L 1173.3 449.3 L 670.6 449.3 Z M 670.6 106.2 "></path></clipPath><g clip-path="url(#clip0x608000cb09e0)"><text xml:space="preserve" font-family="Helvetica-Bold,Helvetica" font-weight="bold" font-size="57.0" fill="#FEFFFE" transform="matrix(1.00, 0.00, -0.00, -1.00, 828.5, 256.4)">R</text><text xml:space="preserve" font-family="Helvetica-Bold,Helvetica" font-weight="bold" font-size="57.0" fill="#FEFFFE" transform="matrix(1.00, 0.00, -0.00, -1.00, 869.6, 256.4)">e</text><text xml:space="preserve" font-family="Helvetica-Bold,Helvetica" font-weight="bold" font-size="57.0" fill="#FEFFFE" transform="matrix(1.00, 0.00, -0.00, -1.00, 901.4, 256.4)">c</text><text xml:space="preserve" font-family="Helvetica-Bold,Helvetica" font-weight="bold" font-size="57.0" fill="#FEFFFE" transform="matrix(1.00, 0.00, -0.00, -1.00, 933.1, 256.4)">i</text><text xml:space="preserve" font-family="Helvetica-Bold,Helvetica" font-weight="bold" font-size="57.0" fill="#FEFFFE" transform="matrix(1.00, 0.00, -0.00, -1.00, 948.9, 256.4)">p</text><text xml:space="preserve" font-family="Helvetica-Bold,Helvetica" font-weight="bold" font-size="57.0" fill="#FEFFFE" transform="matrix(1.00, 0.00, -0.00, -1.00, 983.7, 256.4)">e</text></g></g><g><clipPath id="clip0x608000cb0e00"><path d="M 531.2 549.1 L 747.8 549.1 L 747.8 636.1 L 531.2 636.1 Z M 531.2 549.1 "></path></clipPath><g clip-path="url(#clip0x608000cb0e00)"><image xlink:href="../../3A4FEE44-229D-4996-997A-C893EC7515BC/assets/9C98F005609DA4DE2BE25CBAC376F576.png" width="215.00" height="85.00" transform="matrix(1.00, 0.00, -0.00, -1.00, 532.2, 635.1)" opacity="0.50"></image></g></g><g><clipPath id="clip0x6000010a3d20"><path d="M 713.3 622.5 C 754.0 607.1 754.0 582.1 713.3 566.6 C 672.5 551.2 606.5 551.2 565.7 566.6 C 525.0 582.1 525.0 607.1 565.7 622.5 C 606.5 638.0 672.5 638.0 713.3 622.5 Z M 713.3 622.5 "></path></clipPath><g clip-path="url(#clip0x6000010a3d20)"><g><clipPath id="clip0x6000010a3c60"><path d="M 531.2 549.1 L 747.8 549.1 L 747.8 636.1 L 531.2 636.1 Z M 531.2 549.1 "></path></clipPath><g clip-path="url(#clip0x6000010a3c60)"><image xlink:href="../../B49DC77F-09BB-449C-9313-EC11A2C405DF/assets/C3C0FC898C94653CAF8AD846D6CCD108.png" width="600.00" height="600.00" transform="matrix(0.50, 0.00, -0.00, -0.50, 535.2, 634.1)"></image></g></g></g></g><g><clipPath id="clip0x6000010a4020"><path d="M 535.2 555.1 L 743.8 555.1 L 743.8 634.1 L 535.2 634.1 Z M 535.2 555.1 "></path></clipPath><g clip-path="url(#clip0x6000010a4020)"><text xml:space="preserve" font-family="Helvetica-Light,Helvetica" font-size="32.0" fill="#FEFFFE" transform="matrix(1.00, 0.00, -0.00, -1.00, 573.1, 582.8)">r</text><text xml:space="preserve" font-family="Helvetica-Light,Helvetica" font-size="32.0" fill="#FEFFFE" transform="matrix(1.00, 0.00, -0.00, -1.00, 583.2, 582.8)">e</text><text xml:space="preserve" font-family="Helvetica-Light,Helvetica" font-size="32.0" fill="#FEFFFE" transform="matrix(1.00, 0.00, -0.00, -1.00, 601.0, 582.8)">c</text><text xml:space="preserve" font-family="Helvetica-Light,Helvetica" font-size="32.0" fill="#FEFFFE" transform="matrix(1.00, 0.00, -0.00, -1.00, 618.8, 582.8)">i</text><text xml:space="preserve" font-family="Helvetica-Light,Helvetica" font-size="32.0" fill="#FEFFFE" transform="matrix(1.00, 0.00, -0.00, -1.00, 625.9, 582.8)">p</text><text xml:space="preserve" font-family="Helvetica-Light,Helvetica" font-size="32.0" fill="#FEFFFE" transform="matrix(1.00, 0.00, -0.00, -1.00, 645.4, 582.8)">e</text><text xml:space="preserve" font-family="Helvetica-Light,Helvetica" font-size="32.0" fill="#FEFFFE" transform="matrix(1.00, 0.00, -0.00, -1.00, 663.2, 582.8)">_</text><text xml:space="preserve" font-family="Helvetica-Light,Helvetica" font-size="32.0" fill="#FEFFFE" transform="matrix(1.00, 0.00, -0.00, -1.00, 679.2, 582.8)">i</text><text xml:space="preserve" font-family="Helvetica-Light,Helvetica" font-size="32.0" fill="#FEFFFE" transform="matrix(1.00, 0.00, -0.00, -1.00, 686.3, 582.8)">d</text><path d="M 37.9 53.7 L 170.7 53.7 " fill="none" stroke="#FEFFFE" stroke-width="1.60" transform="matrix(1.00, 0.00, 0.00, -1.00, 535.2, 634.1)"></path></g></g><g><clipPath id="clip0x6000010a4560"><path d="M 851.7 555.5 L 1068.3 555.5 L 1068.3 642.5 L 851.7 642.5 Z M 851.7 555.5 "></path></clipPath><g clip-path="url(#clip0x6000010a4560)"><image xlink:href="../../3A4FEE44-229D-4996-997A-C893EC7515BC/assets/9C98F005609DA4DE2BE25CBAC376F576.png" width="215.00" height="85.00" transform="matrix(1.00, 0.00, -0.00, -1.00, 852.7, 641.5)" opacity="0.50"></image></g></g><g><clipPath id="clip0x6000010a45c0"><path d="M 1033.8 628.9 C 1074.5 613.5 1074.5 588.5 1033.8 573.1 C 993.0 557.6 927.0 557.6 886.2 573.1 C 845.5 588.5 845.5 613.5 886.2 628.9 C 927.0 644.4 993.0 644.4 1033.8 628.9 Z M 1033.8 628.9 "></path></clipPath><g clip-path="url(#clip0x6000010a45c0)"><g><clipPath id="clip0x6000010a4920"><path d="M 851.7 555.5 L 1068.3 555.5 L 1068.3 642.5 L 851.7 642.5 Z M 851.7 555.5 "></path></clipPath><g clip-path="url(#clip0x6000010a4920)"><image xlink:href="../../B49DC77F-09BB-449C-9313-EC11A2C405DF/assets/C3C0FC898C94653CAF8AD846D6CCD108.png" width="600.00" height="600.00" transform="matrix(0.50, 0.00, -0.00, -0.50, 855.7, 640.5)"></image></g></g></g></g><g><clipPath id="clip0x608000cb0e60"><path d="M 855.7 561.5 L 1064.3 561.5 L 1064.3 640.5 L 855.7 640.5 Z M 855.7 561.5 "></path></clipPath><g clip-path="url(#clip0x608000cb0e60)"><text xml:space="preserve" font-family="Helvetica-Light,Helvetica" font-size="32.0" fill="#FEFFFE" transform="matrix(1.00, 0.00, -0.00, -1.00, 920.0, 589.3)">n</text><text xml:space="preserve" font-family="Helvetica-Light,Helvetica" font-size="32.0" fill="#FEFFFE" transform="matrix(1.00, 0.00, -0.00, -1.00, 937.8, 589.3)">a</text><text xml:space="preserve" font-family="Helvetica-Light,Helvetica" font-size="32.0" fill="#FEFFFE" transform="matrix(1.00, 0.00, -0.00, -1.00, 955.6, 589.3)">m</text><text xml:space="preserve" font-family="Helvetica-Light,Helvetica" font-size="32.0" fill="#FEFFFE" transform="matrix(1.00, 0.00, -0.00, -1.00, 982.2, 589.3)">e</text></g></g><g><clipPath id="clip0x608000cb13a0"><path d="M 1172.2 549.1 L 1388.8 549.1 L 1388.8 636.1 L 1172.2 636.1 Z M 1172.2 549.1 "></path></clipPath><g clip-path="url(#clip0x608000cb13a0)"><image xlink:href="../../3A4FEE44-229D-4996-997A-C893EC7515BC/assets/9C98F005609DA4DE2BE25CBAC376F576.png" width="215.00" height="85.00" transform="matrix(1.00, 0.00, -0.00, -1.00, 1173.2, 635.1)" opacity="0.50"></image></g></g><g><clipPath id="clip0x6000010a4b60"><path d="M 1354.3 622.5 C 1395.0 607.1 1395.0 582.1 1354.3 566.6 C 1313.5 551.2 1247.5 551.2 1206.7 566.6 C 1166.0 582.1 1166.0 607.1 1206.7 622.5 C 1247.5 638.0 1313.5 638.0 1354.3 622.5 Z M 1354.3 622.5 "></path></clipPath><g clip-path="url(#clip0x6000010a4b60)"><g><clipPath id="clip0x6000010a4ce0"><path d="M 1172.2 549.1 L 1388.8 549.1 L 1388.8 636.1 L 1172.2 636.1 Z M 1172.2 549.1 "></path></clipPath><g clip-path="url(#clip0x6000010a4ce0)"><image xlink:href="../../B49DC77F-09BB-449C-9313-EC11A2C405DF/assets/C3C0FC898C94653CAF8AD846D6CCD108.png" width="600.00" height="600.00" transform="matrix(0.50, 0.00, -0.00, -0.50, 1176.2, 634.1)"></image></g></g></g></g><g><clipPath id="clip0x608000cb15e0"><path d="M 1176.2 555.1 L 1384.8 555.1 L 1384.8 634.1 L 1176.2 634.1 Z M 1176.2 555.1 "></path></clipPath><g clip-path="url(#clip0x608000cb15e0)"><text xml:space="preserve" font-family="Helvetica-Light,Helvetica" font-size="32.0" fill="#FEFFFE" transform="matrix(1.00, 0.00, -0.00, -1.00, 1200.5, 582.7)">d</text><text xml:space="preserve" font-family="Helvetica-Light,Helvetica" font-size="32.0" fill="#FEFFFE" transform="matrix(1.00, 0.00, -0.00, -1.00, 1220.0, 582.7)">e</text><text xml:space="preserve" font-family="Helvetica-Light,Helvetica" font-size="32.0" fill="#FEFFFE" transform="matrix(1.00, 0.00, -0.00, -1.00, 1237.8, 582.7)">s</text><text xml:space="preserve" font-family="Helvetica-Light,Helvetica" font-size="32.0" fill="#FEFFFE" transform="matrix(1.00, 0.00, -0.00, -1.00, 1253.8, 582.7)">c</text><text xml:space="preserve" font-family="Helvetica-Light,Helvetica" font-size="32.0" fill="#FEFFFE" transform="matrix(1.00, 0.00, -0.00, -1.00, 1271.6, 582.7)">r</text><text xml:space="preserve" font-family="Helvetica-Light,Helvetica" font-size="32.0" fill="#FEFFFE" transform="matrix(1.00, 0.00, -0.00, -1.00, 1282.3, 582.7)">i</text><text xml:space="preserve" font-family="Helvetica-Light,Helvetica" font-size="32.0" fill="#FEFFFE" transform="matrix(1.00, 0.00, -0.00, -1.00, 1289.4, 582.7)">p</text><text xml:space="preserve" font-family="Helvetica-Light,Helvetica" font-size="32.0" fill="#FEFFFE" transform="matrix(1.00, 0.00, -0.00, -1.00, 1308.9, 582.7)">t</text><text xml:space="preserve" font-family="Helvetica-Light,Helvetica" font-size="32.0" fill="#FEFFFE" transform="matrix(1.00, 0.00, -0.00, -1.00, 1317.8, 582.7)">i</text><text xml:space="preserve" font-family="Helvetica-Light,Helvetica" font-size="32.0" fill="#FEFFFE" transform="matrix(1.00, 0.00, -0.00, -1.00, 1324.9, 582.7)">o</text><text xml:space="preserve" font-family="Helvetica-Light,Helvetica" font-size="32.0" fill="#FEFFFE" transform="matrix(1.00, 0.00, -0.00, -1.00, 1342.7, 582.7)">n</text></g></g><g><clipPath id="clip0x608000cb1be0"><path d="M 698.2 467.6 L 642.4 540.7 L 645.5 543.2 L 701.4 470.0 Z M 698.2 467.6 "></path></clipPath><g clip-path="url(#clip0x608000cb1be0)"><path d="M 0.0 0.0 L 90.1 0.0 " fill="none" stroke="#000000" stroke-width="2.00" transform="matrix(-0.61, 0.79, 0.79, 0.61, 699.2, 469.6)"></path></g></g><g><clipPath id="clip0x608000cb1e20"><path d="M 1160.4 461.8 L 1250.3 551.8 L 1253.1 548.9 L 1163.2 459.0 Z M 1160.4 461.8 "></path></clipPath><g clip-path="url(#clip0x608000cb1e20)"><path d="M 0.0 0.0 L 125.2 0.0 " fill="none" stroke="#000000" stroke-width="2.00" transform="matrix(0.71, 0.71, 0.71, -0.71, 1162.5, 461.1)"></path></g></g><g><clipPath id="clip0x608000cb2060"><path d="M 955.3 461.9 L 955.3 548.9 L 959.3 548.9 L 959.3 461.9 Z M 955.3 461.9 "></path></clipPath><g clip-path="url(#clip0x608000cb2060)"><path d="M 0.1 -0.3 L 85.1 -0.3 " fill="none" stroke="#000000" stroke-width="2.00" transform="matrix(0.00, 1.00, 1.00, 0.00, 957.3, 462.9)"></path></g></g><g><clipPath id="clip0x608000cb22a0"><path d="M 237.0 935.0 L 1739.3 935.0 L 1739.3 749.7 L 237.0 749.7 Z M 237.0 935.0 "></path></clipPath><g clip-path="url(#clip0x608000cb22a0)"><path d="M 237.0 935.0 L 588.4 935.0 L 588.4 842.3 L 237.0 842.3 Z M 237.0 935.0 " fill="#0264C0"></path><path d="M 588.4 935.0 L 1009.9 935.0 L 1009.9 842.3 L 588.4 842.3 Z M 588.4 935.0 " fill="#0264C0"></path><path d="M 1009.9 935.0 L 1739.3 935.0 L 1739.3 842.3 L 1009.9 842.3 Z M 1009.9 935.0 " fill="#0264C0"></path><path d="M 237.0 842.3 L 588.4 842.3 L 588.4 749.7 L 237.0 749.7 Z M 237.0 842.3 " fill="#DCDDE0"></path><path d="M 588.4 842.3 L 1009.9 842.3 L 1009.9 749.7 L 588.4 749.7 Z M 588.4 842.3 " fill="#DCDDE0"></path><path d="M 1009.9 842.3 L 1739.3 842.3 L 1739.3 749.7 L 1009.9 749.7 Z M 1009.9 842.3 " fill="#DCDDE0"></path></g></g><g><clipPath id="clip0x608000cb2720"><path d="M 237.0 935.0 L 1739.3 935.0 L 1739.3 749.7 L 237.0 749.7 Z M 237.0 935.0 "></path></clipPath><g clip-path="url(#clip0x608000cb2720)"><g><clipPath id="clip0x608000cb28a0"><path d="M 237.0 842.8 L 588.4 842.8 L 588.4 935.0 L 237.0 935.0 Z M 237.0 842.8 "></path></clipPath><g clip-path="url(#clip0x608000cb28a0)"><text xml:space="preserve" font-family="Helvetica-Bold,Helvetica" font-weight="bold" font-size="36.0" fill="#FEFFFE" transform="matrix(1.00, 0.00, -0.00, -1.00, 333.7, 875.3)">r</text><text xml:space="preserve" font-family="Helvetica-Bold,Helvetica" font-weight="bold" font-size="36.0" fill="#FEFFFE" transform="matrix(1.00, 0.00, -0.00, -1.00, 347.7, 875.3)">e</text><text xml:space="preserve" font-family="Helvetica-Bold,Helvetica" font-weight="bold" font-size="36.0" fill="#FEFFFE" transform="matrix(1.00, 0.00, -0.00, -1.00, 367.7, 875.3)">c</text><text xml:space="preserve" font-family="Helvetica-Bold,Helvetica" font-weight="bold" font-size="36.0" fill="#FEFFFE" transform="matrix(1.00, 0.00, -0.00, -1.00, 387.7, 875.3)">i</text><text xml:space="preserve" font-family="Helvetica-Bold,Helvetica" font-weight="bold" font-size="36.0" fill="#FEFFFE" transform="matrix(1.00, 0.00, -0.00, -1.00, 397.8, 875.3)">p</text><text xml:space="preserve" font-family="Helvetica-Bold,Helvetica" font-weight="bold" font-size="36.0" fill="#FEFFFE" transform="matrix(1.00, 0.00, -0.00, -1.00, 419.7, 875.3)">e</text><text xml:space="preserve" font-family="Helvetica-Bold,Helvetica" font-weight="bold" font-size="36.0" fill="#FEFFFE" transform="matrix(1.00, 0.00, -0.00, -1.00, 439.8, 875.3)">_</text><text xml:space="preserve" font-family="Helvetica-Bold,Helvetica" font-weight="bold" font-size="36.0" fill="#FEFFFE" transform="matrix(1.00, 0.00, -0.00, -1.00, 459.8, 875.3)">i</text><text xml:space="preserve" font-family="Helvetica-Bold,Helvetica" font-weight="bold" font-size="36.0" fill="#FEFFFE" transform="matrix(1.00, 0.00, -0.00, -1.00, 469.8, 875.3)">d</text></g></g></g></g><g><clipPath id="clip0x608000cb2de0"><path d="M 237.0 935.0 L 1739.3 935.0 L 1739.3 749.7 L 237.0 749.7 Z M 237.0 935.0 "></path></clipPath><g clip-path="url(#clip0x608000cb2de0)"><g><clipPath id="clip0x608000cb2f60"><path d="M 588.4 842.8 L 1009.9 842.8 L 1009.9 935.0 L 588.4 935.0 Z M 588.4 842.8 "></path></clipPath><g clip-path="url(#clip0x608000cb2f60)"><text xml:space="preserve" font-family="Helvetica-Bold,Helvetica" font-weight="bold" font-size="36.0" fill="#FEFFFE" transform="matrix(1.00, 0.00, -0.00, -1.00, 752.2, 875.3)">n</text><text xml:space="preserve" font-family="Helvetica-Bold,Helvetica" font-weight="bold" font-size="36.0" fill="#FEFFFE" transform="matrix(1.00, 0.00, -0.00, -1.00, 774.1, 875.3)">a</text><text xml:space="preserve" font-family="Helvetica-Bold,Helvetica" font-weight="bold" font-size="36.0" fill="#FEFFFE" transform="matrix(1.00, 0.00, -0.00, -1.00, 794.2, 875.3)">m</text><text xml:space="preserve" font-family="Helvetica-Bold,Helvetica" font-weight="bold" font-size="36.0" fill="#FEFFFE" transform="matrix(1.00, 0.00, -0.00, -1.00, 826.2, 875.3)">e</text></g></g></g></g><g><clipPath id="clip0x608000cb32c0"><path d="M 237.0 935.0 L 1739.3 935.0 L 1739.3 749.7 L 237.0 749.7 Z M 237.0 935.0 "></path></clipPath><g clip-path="url(#clip0x608000cb32c0)"><g><clipPath id="clip0x608000cb3440"><path d="M 1009.9 842.8 L 1739.3 842.8 L 1739.3 935.0 L 1009.9 935.0 Z M 1009.9 842.8 "></path></clipPath><g clip-path="url(#clip0x608000cb3440)"><text xml:space="preserve" font-family="Helvetica-Bold,Helvetica" font-weight="bold" font-size="36.0" fill="#FEFFFE" transform="matrix(1.00, 0.00, -0.00, -1.00, 1277.6, 875.3)">d</text><text xml:space="preserve" font-family="Helvetica-Bold,Helvetica" font-weight="bold" font-size="36.0" fill="#FEFFFE" transform="matrix(1.00, 0.00, -0.00, -1.00, 1299.6, 875.3)">e</text><text xml:space="preserve" font-family="Helvetica-Bold,Helvetica" font-weight="bold" font-size="36.0" fill="#FEFFFE" transform="matrix(1.00, 0.00, -0.00, -1.00, 1319.6, 875.3)">s</text><text xml:space="preserve" font-family="Helvetica-Bold,Helvetica" font-weight="bold" font-size="36.0" fill="#FEFFFE" transform="matrix(1.00, 0.00, -0.00, -1.00, 1339.7, 875.3)">c</text><text xml:space="preserve" font-family="Helvetica-Bold,Helvetica" font-weight="bold" font-size="36.0" fill="#FEFFFE" transform="matrix(1.00, 0.00, -0.00, -1.00, 1359.7, 875.3)">r</text><text xml:space="preserve" font-family="Helvetica-Bold,Helvetica" font-weight="bold" font-size="36.0" fill="#FEFFFE" transform="matrix(1.00, 0.00, -0.00, -1.00, 1373.7, 875.3)">i</text><text xml:space="preserve" font-family="Helvetica-Bold,Helvetica" font-weight="bold" font-size="36.0" fill="#FEFFFE" transform="matrix(1.00, 0.00, -0.00, -1.00, 1383.7, 875.3)">p</text><text xml:space="preserve" font-family="Helvetica-Bold,Helvetica" font-weight="bold" font-size="36.0" fill="#FEFFFE" transform="matrix(1.00, 0.00, -0.00, -1.00, 1405.7, 875.3)">t</text><text xml:space="preserve" font-family="Helvetica-Bold,Helvetica" font-weight="bold" font-size="36.0" fill="#FEFFFE" transform="matrix(1.00, 0.00, -0.00, -1.00, 1417.7, 875.3)">i</text><text xml:space="preserve" font-family="Helvetica-Bold,Helvetica" font-weight="bold" font-size="36.0" fill="#FEFFFE" transform="matrix(1.00, 0.00, -0.00, -1.00, 1427.7, 875.3)">o</text><text xml:space="preserve" font-family="Helvetica-Bold,Helvetica" font-weight="bold" font-size="36.0" fill="#FEFFFE" transform="matrix(1.00, 0.00, -0.00, -1.00, 1449.7, 875.3)">n</text></g></g></g></g><g><clipPath id="clip0x608000cb3a40"><path d="M 237.0 935.0 L 1739.3 935.0 L 1739.3 749.7 L 237.0 749.7 Z M 237.0 935.0 "></path></clipPath><g clip-path="url(#clip0x608000cb3a40)"><g><clipPath id="clip0x608000cb3bc0"><path d="M 237.0 749.7 L 588.4 749.7 L 588.4 841.8 L 237.0 841.8 Z M 237.0 749.7 "></path></clipPath><g clip-path="url(#clip0x608000cb3bc0)"><text xml:space="preserve" font-family="Helvetica-Light,Helvetica" font-size="36.0" fill="#000000" transform="matrix(1.00, 0.00, -0.00, -1.00, 402.7, 782.1)">1</text></g></g></g></g><g><clipPath id="clip0x608000cb3e00"><path d="M 237.0 935.0 L 1739.3 935.0 L 1739.3 749.7 L 237.0 749.7 Z M 237.0 935.0 "></path></clipPath><g clip-path="url(#clip0x608000cb3e00)"><g><clipPath id="clip0x608000cb3f80"><path d="M 588.4 749.7 L 1009.9 749.7 L 1009.9 841.8 L 588.4 841.8 Z M 588.4 749.7 "></path></clipPath><g clip-path="url(#clip0x608000cb3f80)"><text xml:space="preserve" font-family="Helvetica-Light,Helvetica" font-size="36.0" fill="#000000" transform="matrix(1.00, 0.00, -0.00, -1.00, 609.1, 782.1)">U</text><text xml:space="preserve" font-family="Helvetica-Light,Helvetica" font-size="36.0" fill="#000000" transform="matrix(1.00, 0.00, -0.00, -1.00, 635.1, 782.1)">l</text><text xml:space="preserve" font-family="Helvetica-Light,Helvetica" font-size="36.0" fill="#000000" transform="matrix(1.00, 0.00, -0.00, -1.00, 643.1, 782.1)">t</text><text xml:space="preserve" font-family="Helvetica-Light,Helvetica" font-size="36.0" fill="#000000" transform="matrix(1.00, 0.00, -0.00, -1.00, 653.1, 782.1)">i</text><text xml:space="preserve" font-family="Helvetica-Light,Helvetica" font-size="36.0" fill="#000000" transform="matrix(1.00, 0.00, -0.00, -1.00, 661.1, 782.1)">m</text><text xml:space="preserve" font-family="Helvetica-Light,Helvetica" font-size="36.0" fill="#000000" transform="matrix(1.00, 0.00, -0.00, -1.00, 691.1, 782.1)">a</text><text xml:space="preserve" font-family="Helvetica-Light,Helvetica" font-size="36.0" fill="#000000" transform="matrix(1.00, 0.00, -0.00, -1.00, 711.1, 782.1)">t</text><text xml:space="preserve" font-family="Helvetica-Light,Helvetica" font-size="36.0" fill="#000000" transform="matrix(1.00, 0.00, -0.00, -1.00, 721.1, 782.1)">e</text><text xml:space="preserve" font-family="Helvetica-Light,Helvetica" font-size="36.0" fill="#000000" transform="matrix(1.00, 0.00, -0.00, -1.00, 741.1, 782.1)"> </text><text xml:space="preserve" font-family="Helvetica-Light,Helvetica" font-size="36.0" fill="#000000" transform="matrix(1.00, 0.00, -0.00, -1.00, 751.1, 782.1)">M</text><text xml:space="preserve" font-family="Helvetica-Light,Helvetica" font-size="36.0" fill="#000000" transform="matrix(1.00, 0.00, -0.00, -1.00, 781.1, 782.1)">a</text><text xml:space="preserve" font-family="Helvetica-Light,Helvetica" font-size="36.0" fill="#000000" transform="matrix(1.00, 0.00, -0.00, -1.00, 801.1, 782.1)">c</text><text xml:space="preserve" font-family="Helvetica-Light,Helvetica" font-size="36.0" fill="#000000" transform="matrix(1.00, 0.00, -0.00, -1.00, 821.2, 782.1)"> </text><text xml:space="preserve" font-family="Helvetica-Light,Helvetica" font-size="36.0" fill="#000000" transform="matrix(1.00, 0.00, -0.00, -1.00, 831.2, 782.1)">&amp;</text><text xml:space="preserve" font-family="Helvetica-Light,Helvetica" font-size="36.0" fill="#000000" transform="matrix(1.00, 0.00, -0.00, -1.00, 855.2, 782.1)"> </text><text xml:space="preserve" font-family="Helvetica-Light,Helvetica" font-size="36.0" fill="#000000" transform="matrix(1.00, 0.00, -0.00, -1.00, 865.2, 782.1)">C</text><text xml:space="preserve" font-family="Helvetica-Light,Helvetica" font-size="36.0" fill="#000000" transform="matrix(1.00, 0.00, -0.00, -1.00, 891.2, 782.1)">h</text><text xml:space="preserve" font-family="Helvetica-Light,Helvetica" font-size="36.0" fill="#000000" transform="matrix(1.00, 0.00, -0.00, -1.00, 911.2, 782.1)">e</text><text xml:space="preserve" font-family="Helvetica-Light,Helvetica" font-size="36.0" fill="#000000" transform="matrix(1.00, 0.00, -0.00, -1.00, 931.2, 782.1)">e</text><text xml:space="preserve" font-family="Helvetica-Light,Helvetica" font-size="36.0" fill="#000000" transform="matrix(1.00, 0.00, -0.00, -1.00, 951.2, 782.1)">s</text><text xml:space="preserve" font-family="Helvetica-Light,Helvetica" font-size="36.0" fill="#000000" transform="matrix(1.00, 0.00, -0.00, -1.00, 969.2, 782.1)">e</text></g></g></g></g><g><clipPath id="clip0x608000cb4940"><path d="M 237.0 935.0 L 1739.3 935.0 L 1739.3 749.7 L 237.0 749.7 Z M 237.0 935.0 "></path></clipPath><g clip-path="url(#clip0x608000cb4940)"><g><clipPath id="clip0x608000cb4ac0"><path d="M 1009.9 749.7 L 1739.3 749.7 L 1739.3 841.8 L 1009.9 841.8 Z M 1009.9 749.7 "></path></clipPath><g clip-path="url(#clip0x608000cb4ac0)"><text xml:space="preserve" font-family="Helvetica-Light,Helvetica" font-size="36.0" fill="#000000" transform="matrix(1.00, 0.00, -0.00, -1.00, 1080.5, 782.1)">T</text><text xml:space="preserve" font-family="Helvetica-Light,Helvetica" font-size="36.0" fill="#000000" transform="matrix(1.00, 0.00, -0.00, -1.00, 1100.5, 782.1)">h</text><text xml:space="preserve" font-family="Helvetica-Light,Helvetica" font-size="36.0" fill="#000000" transform="matrix(1.00, 0.00, -0.00, -1.00, 1120.5, 782.1)">e</text><text xml:space="preserve" font-family="Helvetica-Light,Helvetica" font-size="36.0" fill="#000000" transform="matrix(1.00, 0.00, -0.00, -1.00, 1140.5, 782.1)"> </text><text xml:space="preserve" font-family="Helvetica-Light,Helvetica" font-size="36.0" fill="#000000" transform="matrix(1.00, 0.00, -0.00, -1.00, 1150.6, 782.1)">b</text><text xml:space="preserve" font-family="Helvetica-Light,Helvetica" font-size="36.0" fill="#000000" transform="matrix(1.00, 0.00, -0.00, -1.00, 1172.6, 782.1)">e</text><text xml:space="preserve" font-family="Helvetica-Light,Helvetica" font-size="36.0" fill="#000000" transform="matrix(1.00, 0.00, -0.00, -1.00, 1192.6, 782.1)">s</text><text xml:space="preserve" font-family="Helvetica-Light,Helvetica" font-size="36.0" fill="#000000" transform="matrix(1.00, 0.00, -0.00, -1.00, 1210.6, 782.1)">t</text><text xml:space="preserve" font-family="Helvetica-Light,Helvetica" font-size="36.0" fill="#000000" transform="matrix(1.00, 0.00, -0.00, -1.00, 1220.6, 782.1)"> </text><text xml:space="preserve" font-family="Helvetica-Light,Helvetica" font-size="36.0" fill="#000000" transform="matrix(1.00, 0.00, -0.00, -1.00, 1230.6, 782.1)">m</text><text xml:space="preserve" font-family="Helvetica-Light,Helvetica" font-size="36.0" fill="#000000" transform="matrix(1.00, 0.00, -0.00, -1.00, 1260.6, 782.1)">a</text><text xml:space="preserve" font-family="Helvetica-Light,Helvetica" font-size="36.0" fill="#000000" transform="matrix(1.00, 0.00, -0.00, -1.00, 1280.6, 782.1)">c</text><text xml:space="preserve" font-family="Helvetica-Light,Helvetica" font-size="36.0" fill="#000000" transform="matrix(1.00, 0.00, -0.00, -1.00, 1300.6, 782.1)"> </text><text xml:space="preserve" font-family="Helvetica-Light,Helvetica" font-size="36.0" fill="#000000" transform="matrix(1.00, 0.00, -0.00, -1.00, 1310.6, 782.1)">&amp;</text><text xml:space="preserve" font-family="Helvetica-Light,Helvetica" font-size="36.0" fill="#000000" transform="matrix(1.00, 0.00, -0.00, -1.00, 1334.6, 782.1)"> </text><text xml:space="preserve" font-family="Helvetica-Light,Helvetica" font-size="36.0" fill="#000000" transform="matrix(1.00, 0.00, -0.00, -1.00, 1344.6, 782.1)">c</text><text xml:space="preserve" font-family="Helvetica-Light,Helvetica" font-size="36.0" fill="#000000" transform="matrix(1.00, 0.00, -0.00, -1.00, 1364.6, 782.1)">h</text><text xml:space="preserve" font-family="Helvetica-Light,Helvetica" font-size="36.0" fill="#000000" transform="matrix(1.00, 0.00, -0.00, -1.00, 1384.7, 782.1)">e</text><text xml:space="preserve" font-family="Helvetica-Light,Helvetica" font-size="36.0" fill="#000000" transform="matrix(1.00, 0.00, -0.00, -1.00, 1404.7, 782.1)">e</text><text xml:space="preserve" font-family="Helvetica-Light,Helvetica" font-size="36.0" fill="#000000" transform="matrix(1.00, 0.00, -0.00, -1.00, 1424.7, 782.1)">s</text><text xml:space="preserve" font-family="Helvetica-Light,Helvetica" font-size="36.0" fill="#000000" transform="matrix(1.00, 0.00, -0.00, -1.00, 1442.7, 782.1)">e</text><text xml:space="preserve" font-family="Helvetica-Light,Helvetica" font-size="36.0" fill="#000000" transform="matrix(1.00, 0.00, -0.00, -1.00, 1462.7, 782.1)"> </text><text xml:space="preserve" font-family="Helvetica-Light,Helvetica" font-size="36.0" fill="#000000" transform="matrix(1.00, 0.00, -0.00, -1.00, 1472.7, 782.1)">i</text><text xml:space="preserve" font-family="Helvetica-Light,Helvetica" font-size="36.0" fill="#000000" transform="matrix(1.00, 0.00, -0.00, -1.00, 1480.7, 782.1)">n</text><text xml:space="preserve" font-family="Helvetica-Light,Helvetica" font-size="36.0" fill="#000000" transform="matrix(1.00, 0.00, -0.00, -1.00, 1500.7, 782.1)"> </text><text xml:space="preserve" font-family="Helvetica-Light,Helvetica" font-size="36.0" fill="#000000" transform="matrix(1.00, 0.00, -0.00, -1.00, 1510.7, 782.1)">t</text><text xml:space="preserve" font-family="Helvetica-Light,Helvetica" font-size="36.0" fill="#000000" transform="matrix(1.00, 0.00, -0.00, -1.00, 1520.7, 782.1)">h</text><text xml:space="preserve" font-family="Helvetica-Light,Helvetica" font-size="36.0" fill="#000000" transform="matrix(1.00, 0.00, -0.00, -1.00, 1540.8, 782.1)">e</text><text xml:space="preserve" font-family="Helvetica-Light,Helvetica" font-size="36.0" fill="#000000" transform="matrix(1.00, 0.00, -0.00, -1.00, 1560.8, 782.1)"> </text><text xml:space="preserve" font-family="Helvetica-Light,Helvetica" font-size="36.0" fill="#000000" transform="matrix(1.00, 0.00, -0.00, -1.00, 1570.8, 782.1)">w</text><text xml:space="preserve" font-family="Helvetica-Light,Helvetica" font-size="36.0" fill="#000000" transform="matrix(1.00, 0.00, -0.00, -1.00, 1596.8, 782.1)">o</text><text xml:space="preserve" font-family="Helvetica-Light,Helvetica" font-size="36.0" fill="#000000" transform="matrix(1.00, 0.00, -0.00, -1.00, 1616.8, 782.1)">r</text><text xml:space="preserve" font-family="Helvetica-Light,Helvetica" font-size="36.0" fill="#000000" transform="matrix(1.00, 0.00, -0.00, -1.00, 1628.8, 782.1)">l</text><text xml:space="preserve" font-family="Helvetica-Light,Helvetica" font-size="36.0" fill="#000000" transform="matrix(1.00, 0.00, -0.00, -1.00, 1636.8, 782.1)">d</text><text xml:space="preserve" font-family="Helvetica-Light,Helvetica" font-size="36.0" fill="#000000" transform="matrix(1.00, 0.00, -0.00, -1.00, 1658.8, 782.1)">.</text></g></g></g></g><text xml:space="preserve" font-family="Helvetica-Bold,Helvetica" font-weight="bold" font-size="50.0" fill="#000000" transform="matrix(1.00, 0.00, -0.00, -1.00, 1279.1, 258.5)">R</text><text xml:space="preserve" font-family="Helvetica-Bold,Helvetica" font-weight="bold" font-size="50.0" fill="#000000" transform="matrix(1.00, 0.00, -0.00, -1.00, 1315.2, 258.5)">e</text><text xml:space="preserve" font-family="Helvetica-Bold,Helvetica" font-weight="bold" font-size="50.0" fill="#000000" transform="matrix(1.00, 0.00, -0.00, -1.00, 1343.0, 258.5)">c</text><text xml:space="preserve" font-family="Helvetica-Bold,Helvetica" font-weight="bold" font-size="50.0" fill="#000000" transform="matrix(1.00, 0.00, -0.00, -1.00, 1370.8, 258.5)">i</text><text xml:space="preserve" font-family="Helvetica-Bold,Helvetica" font-weight="bold" font-size="50.0" fill="#000000" transform="matrix(1.00, 0.00, -0.00, -1.00, 1384.7, 258.5)">p</text><text xml:space="preserve" font-family="Helvetica-Bold,Helvetica" font-weight="bold" font-size="50.0" fill="#000000" transform="matrix(1.00, 0.00, -0.00, -1.00, 1415.3, 258.5)">e</text><text xml:space="preserve" font-family="Helvetica-Light,Helvetica" font-size="50.0" fill="#000000" transform="matrix(1.00, 0.00, -0.00, -1.00, 1443.0, 258.5)"> </text><text xml:space="preserve" font-family="Helvetica-Light,Helvetica" font-size="50.0" fill="#000000" transform="matrix(1.00, 0.00, -0.00, -1.00, 1456.9, 258.5)">i</text><text xml:space="preserve" font-family="Helvetica-Light,Helvetica" font-size="50.0" fill="#000000" transform="matrix(1.00, 0.00, -0.00, -1.00, 1468.0, 258.5)">s</text><text xml:space="preserve" font-family="Helvetica-Light,Helvetica" font-size="50.0" fill="#000000" transform="matrix(1.00, 0.00, -0.00, -1.00, 1493.0, 258.5)"> </text><text xml:space="preserve" font-family="Helvetica-Light,Helvetica" font-size="50.0" fill="#000000" transform="matrix(1.00, 0.00, -0.00, -1.00, 1506.9, 258.5)">o</text><text xml:space="preserve" font-family="Helvetica-Light,Helvetica" font-size="50.0" fill="#000000" transform="matrix(1.00, 0.00, -0.00, -1.00, 1534.7, 258.5)">u</text><text xml:space="preserve" font-family="Helvetica-Light,Helvetica" font-size="50.0" fill="#000000" transform="matrix(1.00, 0.00, -0.00, -1.00, 1562.5, 258.5)">r</text><text xml:space="preserve" font-family="Helvetica-Light,Helvetica" font-size="50.0" fill="#000000" transform="matrix(1.00, 0.00, -0.00, -1.00, 1579.2, 258.5)"> </text><text xml:space="preserve" font-family="Helvetica-Light,Helvetica" font-size="50.0" fill="#000000" transform="matrix(1.00, 0.00, -0.00, -1.00, 1593.1, 258.5)">e</text><text xml:space="preserve" font-family="Helvetica-Light,Helvetica" font-size="50.0" fill="#000000" transform="matrix(1.00, 0.00, -0.00, -1.00, 1620.9, 258.5)">n</text><text xml:space="preserve" font-family="Helvetica-Light,Helvetica" font-size="50.0" fill="#000000" transform="matrix(1.00, 0.00, -0.00, -1.00, 1648.7, 258.5)">t</text><text xml:space="preserve" font-family="Helvetica-Light,Helvetica" font-size="50.0" fill="#000000" transform="matrix(1.00, 0.00, -0.00, -1.00, 1662.6, 258.5)">i</text><text xml:space="preserve" font-family="Helvetica-Light,Helvetica" font-size="50.0" fill="#000000" transform="matrix(1.00, 0.00, -0.00, -1.00, 1673.7, 258.5)">t</text><text xml:space="preserve" font-family="Helvetica-Light,Helvetica" font-size="50.0" fill="#000000" transform="matrix(1.00, 0.00, -0.00, -1.00, 1687.6, 258.5)">y</text><text xml:space="preserve" font-family="Helvetica-Light,Helvetica" font-size="50.0" fill="#000000" transform="matrix(1.00, 0.00, -0.00, -1.00, 1712.6, 258.5)"> </text><text xml:space="preserve" font-family="Helvetica-Light,Helvetica" font-size="50.0" fill="#000000" transform="matrix(1.00, 0.00, -0.00, -1.00, 1726.5, 258.5)">h</text><text xml:space="preserve" font-family="Helvetica-Light,Helvetica" font-size="50.0" fill="#000000" transform="matrix(1.00, 0.00, -0.00, -1.00, 1754.3, 258.5)">e</text><text xml:space="preserve" font-family="Helvetica-Light,Helvetica" font-size="50.0" fill="#000000" transform="matrix(1.00, 0.00, -0.00, -1.00, 1782.1, 258.5)">r</text><text xml:space="preserve" font-family="Helvetica-Light,Helvetica" font-size="50.0" fill="#000000" transform="matrix(1.00, 0.00, -0.00, -1.00, 1797.8, 258.5)">e</text><text xml:space="preserve" font-family="Helvetica-Light,Helvetica" font-size="50.0" fill="#000000" transform="matrix(1.00, 0.00, -0.00, -1.00, 1825.6, 258.5)">.</text></g></svg>