<?xml version="1.0" encoding="UTF-8" standalone="no"?><svg xmlns="http://www.w3.org/2000/svg" xmlns:xlink="http://www.w3.org/1999/xlink" clip-rule="evenodd" stroke-miterlimit="10" viewBox="0 0 1920 1080"><desc>SVG generated by Keynote</desc><defs></defs><g transform="matrix(1.00, 0.00, -0.00, -1.00, 0.0, 1080.0)"><path d="M 0.0 1080.0 L 1920.0 1080.0 L 1920.0 0.0 L 0.0 0.0 Z M 0.0 1080.0 " fill="#FEFFFF"></path><text xml:space="preserve" font-family="Helvetica-Light,Helvetica" font-size="99.7" fill="#000000" transform="matrix(1.00, 0.00, -0.00, -1.00, 440.2, 562.9)">H</text><text xml:space="preserve" font-family="Helvetica-Light,Helvetica" font-size="99.7" fill="#000000" transform="matrix(1.00, 0.00, -0.00, -1.00, 512.1, 562.9)">a</text><text xml:space="preserve" font-family="Helvetica-Light,Helvetica" font-size="99.7" fill="#000000" transform="matrix(1.00, 0.00, -0.00, -1.00, 567.6, 562.9)">v</text><text xml:space="preserve" font-family="Helvetica-Light,Helvetica" font-size="99.7" fill="#000000" transform="matrix(1.00, 0.00, -0.00, -1.00, 617.4, 562.9)">e</text><text xml:space="preserve" font-family="Helvetica-Light,Helvetica" font-size="99.7" fill="#000000" transform="matrix(1.00, 0.00, -0.00, -1.00, 672.8, 562.9)"> </text><text xml:space="preserve" font-family="Helvetica-Light,Helvetica" font-size="99.7" fill="#000000" transform="matrix(1.00, 0.00, -0.00, -1.00, 700.5, 562.9)">a</text><text xml:space="preserve" font-family="Helvetica-Light,Helvetica" font-size="99.7" fill="#000000" transform="matrix(1.00, 0.00, -0.00, -1.00, 756.0, 562.9)"> </text><text xml:space="preserve" font-family="Helvetica-Light,Helvetica" font-size="99.7" fill="#000000" transform="matrix(1.00, 0.00, -0.00, -1.00, 783.7, 562.9)">g</text><text xml:space="preserve" font-family="Helvetica-Light,Helvetica" font-size="99.7" fill="#000000" transform="matrix(1.00, 0.00, -0.00, -1.00, 844.6, 562.9)">r</text><text xml:space="preserve" font-family="Helvetica-Light,Helvetica" font-size="99.7" fill="#000000" transform="matrix(1.00, 0.00, -0.00, -1.00, 876.0, 562.9)">e</text><text xml:space="preserve" font-family="Helvetica-Light,Helvetica" font-size="99.7" fill="#000000" transform="matrix(1.00, 0.00, -0.00, -1.00, 931.4, 562.9)">a</text><text xml:space="preserve" font-family="Helvetica-Light,Helvetica" font-size="99.7" fill="#000000" transform="matrix(1.00, 0.00, -0.00, -1.00, 986.8, 562.9)">t</text><text xml:space="preserve" font-family="Helvetica-Light,Helvetica" font-size="99.7" fill="#000000" transform="matrix(1.00, 0.00, -0.00, -1.00, 1014.5, 562.9)"> </text><text xml:space="preserve" font-family="Helvetica-Light,Helvetica" font-size="99.7" fill="#000000" transform="matrix(1.00, 0.00, -0.00, -1.00, 1042.2, 562.9)">w</text><text xml:space="preserve" font-family="Helvetica-Light,Helvetica" font-size="99.7" fill="#000000" transform="matrix(1.00, 0.00, -0.00, -1.00, 1114.2, 562.9)">e</text><text xml:space="preserve" font-family="Helvetica-Light,Helvetica" font-size="99.7" fill="#000000" transform="matrix(1.00, 0.00, -0.00, -1.00, 1169.6, 562.9)">e</text><text xml:space="preserve" font-family="Helvetica-Light,Helvetica" font-size="99.7" fill="#000000" transform="matrix(1.00, 0.00, -0.00, -1.00, 1225.0, 562.9)">k</text><text xml:space="preserve" font-family="Helvetica-Light,Helvetica" font-size="99.7" fill="#000000" transform="matrix(1.00, 0.00, -0.00, -1.00, 1274.9, 562.9)">e</text><text xml:space="preserve" font-family="Helvetica-Light,Helvetica" font-size="99.7" fill="#000000" transform="matrix(1.00, 0.00, -0.00, -1.00, 1330.3, 562.9)">n</text><text xml:space="preserve" font-family="Helvetica-Light,Helvetica" font-size="99.7" fill="#000000" transform="matrix(1.00, 0.00, -0.00, -1.00, 1385.7, 562.9)">d</text><text xml:space="preserve" font-family="Helvetica-Light,Helvetica" font-size="99.7" fill="#000000" transform="matrix(1.00, 0.00, -0.00, -1.00, 1446.6, 562.9)">!</text><text xml:space="preserve" font-family="Helvetica-Light,Helvetica" font-size="99.7" fill="#000000" transform="matrix(1.00, 0.00, -0.00, -1.00, 1479.8, 562.9)"> </text><text xml:space="preserve" font-family="Helvetica-Light,Helvetica" font-size="99.7" fill="#0264C0" transform="matrix(1.00, 0.00, -0.00, -1.00, 144.8, 442.9)">(</text><text xml:space="preserve" font-family="Helvetica-Light,Helvetica" font-size="99.7" fill="#0264C0" transform="matrix(1.00, 0.00, -0.00, -1.00, 178.0, 442.9)">W</text><text xml:space="preserve" font-family="Helvetica-Light,Helvetica" font-size="99.7" fill="#0264C0" transform="matrix(1.00, 0.00, -0.00, -1.00, 266.6, 442.9)">i</text><text xml:space="preserve" font-family="Helvetica-Light,Helvetica" font-size="99.7" fill="#0264C0" transform="matrix(1.00, 0.00, -0.00, -1.00, 288.8, 442.9)">s</text><text xml:space="preserve" font-family="Helvetica-Light,Helvetica" font-size="99.7" fill="#0264C0" transform="matrix(1.00, 0.00, -0.00, -1.00, 338.6, 442.9)">h</text><text xml:space="preserve" font-family="Helvetica-Light,Helvetica" font-size="99.7" fill="#0264C0" transform="matrix(1.00, 0.00, -0.00, -1.00, 394.0, 442.9)"> </text><text xml:space="preserve" font-family="Helvetica-Light,Helvetica" font-size="99.7" fill="#C82505" transform="matrix(1.00, 0.00, -0.00, -1.00, 421.7, 442.9)">A</text><text xml:space="preserve" font-family="Helvetica-Light,Helvetica" font-size="99.7" fill="#C82505" transform="matrix(1.00, 0.00, -0.00, -1.00, 488.2, 442.9)">b</text><text xml:space="preserve" font-family="Helvetica-Light,Helvetica" font-size="99.7" fill="#C82505" transform="matrix(1.00, 0.00, -0.00, -1.00, 549.1, 442.9)">e</text><text xml:space="preserve" font-family="Helvetica-Light,Helvetica" font-size="99.7" fill="#C82505" transform="matrix(1.00, 0.00, -0.00, -1.00, 604.5, 442.9)"> </text><text xml:space="preserve" font-family="Helvetica-Light,Helvetica" font-size="99.7" fill="#C82505" transform="matrix(1.00, 0.00, -0.00, -1.00, 632.3, 442.9)">L</text><text xml:space="preserve" font-family="Helvetica-Light,Helvetica" font-size="99.7" fill="#C82505" transform="matrix(1.00, 0.00, -0.00, -1.00, 687.7, 442.9)">i</text><text xml:space="preserve" font-family="Helvetica-Light,Helvetica" font-size="99.7" fill="#C82505" transform="matrix(1.00, 0.00, -0.00, -1.00, 709.8, 442.9)">n</text><text xml:space="preserve" font-family="Helvetica-Light,Helvetica" font-size="99.7" fill="#C82505" transform="matrix(1.00, 0.00, -0.00, -1.00, 765.2, 442.9)">c</text><text xml:space="preserve" font-family="Helvetica-Light,Helvetica" font-size="99.7" fill="#C82505" transform="matrix(1.00, 0.00, -0.00, -1.00, 820.6, 442.9)">o</text><text xml:space="preserve" font-family="Helvetica-Light,Helvetica" font-size="99.7" fill="#C82505" transform="matrix(1.00, 0.00, -0.00, -1.00, 876.1, 442.9)">l</text><text xml:space="preserve" font-family="Helvetica-Light,Helvetica" font-size="99.7" fill="#C82505" transform="matrix(1.00, 0.00, -0.00, -1.00, 898.2, 442.9)">n</text><text xml:space="preserve" font-family="Helvetica-Light,Helvetica" font-size="99.7" fill="#0264C0" transform="matrix(1.00, 0.00, -0.00, -1.00, 953.6, 442.9)"> </text><text xml:space="preserve" font-family="Helvetica-Light,Helvetica" font-size="99.7" fill="#0264C0" transform="matrix(1.00, 0.00, -0.00, -1.00, 981.3, 442.9)">a</text><text xml:space="preserve" font-family="Helvetica-Light,Helvetica" font-size="99.7" fill="#0264C0" transform="matrix(1.00, 0.00, -0.00, -1.00, 1036.8, 442.9)"> </text><text xml:space="preserve" font-family="Helvetica-Light,Helvetica" font-size="99.7" fill="#0264C0" transform="matrix(1.00, 0.00, -0.00, -1.00, 1064.5, 442.9)">h</text><text xml:space="preserve" font-family="Helvetica-Light,Helvetica" font-size="99.7" fill="#0264C0" transform="matrix(1.00, 0.00, -0.00, -1.00, 1119.9, 442.9)">a</text><text xml:space="preserve" font-family="Helvetica-Light,Helvetica" font-size="99.7" fill="#0264C0" transform="matrix(1.00, 0.00, -0.00, -1.00, 1175.3, 442.9)">p</text><text xml:space="preserve" font-family="Helvetica-Light,Helvetica" font-size="99.7" fill="#0264C0" transform="matrix(1.00, 0.00, -0.00, -1.00, 1236.2, 442.9)">p</text><text xml:space="preserve" font-family="Helvetica-Light,Helvetica" font-size="99.7" fill="#0264C0" transform="matrix(1.00, 0.00, -0.00, -1.00, 1297.1, 442.9)">y</text><text xml:space="preserve" font-family="Helvetica-Light,Helvetica" font-size="99.7" fill="#0264C0" transform="matrix(1.00, 0.00, -0.00, -1.00, 1347.0, 442.9)"> </text><text xml:space="preserve" font-family="Helvetica-Light,Helvetica" font-size="99.7" fill="#0264C0" transform="matrix(1.00, 0.00, -0.00, -1.00, 1374.7, 442.9)">b</text><text xml:space="preserve" font-family="Helvetica-Light,Helvetica" font-size="99.7" fill="#0264C0" transform="matrix(1.00, 0.00, -0.00, -1.00, 1435.6, 442.9)">i</text><text xml:space="preserve" font-family="Helvetica-Light,Helvetica" font-size="99.7" fill="#0264C0" transform="matrix(1.00, 0.00, -0.00, -1.00, 1457.7, 442.9)">r</text><text xml:space="preserve" font-family="Helvetica-Light,Helvetica" font-size="99.7" fill="#0264C0" transform="matrix(1.00, 0.00, -0.00, -1.00, 1492.7, 442.9)">t</text><text xml:space="preserve" font-family="Helvetica-Light,Helvetica" font-size="99.7" fill="#0264C0" transform="matrix(1.00, 0.00, -0.00, -1.00, 1520.4, 442.9)">h</text><text xml:space="preserve" font-family="Helvetica-Light,Helvetica" font-size="99.7" fill="#0264C0" transform="matrix(1.00, 0.00, -0.00, -1.00, 1575.8, 442.9)">d</text><text xml:space="preserve" font-family="Helvetica-Light,Helvetica" font-size="99.7" fill="#0264C0" transform="matrix(1.00, 0.00, -0.00, -1.00, 1636.7, 442.9)">a</text><text xml:space="preserve" font-family="Helvetica-Light,Helvetica" font-size="99.7" fill="#0264C0" transform="matrix(1.00, 0.00, -0.00, -1.00, 1692.1, 442.9)">y</text><text xml:space="preserve" font-family="Helvetica-Light,Helvetica" font-size="99.7" fill="#0264C0" transform="matrix(1.00, 0.00, -0.00, -1.00, 1742.0, 442.9)">)</text></g></svg>