<?xml version="1.0" encoding="UTF-8" standalone="no"?><svg xmlns="http://www.w3.org/2000/svg" xmlns:xlink="http://www.w3.org/1999/xlink" clip-rule="evenodd" stroke-miterlimit="10" viewBox="0 0 1920 1080"><desc>SVG generated by Keynote</desc><defs></defs><g transform="matrix(1.00, 0.00, -0.00, -1.00, 0.0, 1080.0)"><path d="M 0.0 1080.0 L 1920.0 1080.0 L 1920.0 0.0 L 0.0 0.0 Z M 0.0 1080.0 " fill="#FEFFFE"></path><g opacity="0.14"><g><clipPath id="clip0x6000010ae640"><path d="M 1644.0 195.0 L 1920.0 195.0 L 1920.0 783.0 L 1644.0 783.0 Z M 1644.0 195.0 "></path></clipPath><g clip-path="url(#clip0x6000010ae640)"><path d="M 1645.5 334.9 L 1645.0 642.2 C 1645.0 718.9 1707.6 781.0 1784.3 781.0 L 1921.6 781.0 C 1998.3 781.0 2060.0 718.9 2060.0 642.2 L 2060.0 334.9 C 2060.0 258.2 1998.3 196.0 1921.6 196.0 L 1784.3 196.0 C 1707.6 196.0 1645.5 258.2 1645.5 334.9 Z M 1645.5 334.9 " fill="#F5D327"></path></g></g></g><g opacity="0.10"><g><clipPath id="clip0x6000010ae6a0"><path d="M 1195.0 195.0 L 1613.0 195.0 L 1613.0 783.0 L 1195.0 783.0 Z M 1195.0 195.0 "></path></clipPath><g clip-path="url(#clip0x6000010ae6a0)"><path d="M 1196.1 334.9 L 1196.0 642.2 C 1196.0 718.9 1258.3 781.0 1334.9 781.0 L 1472.2 781.0 C 1548.9 781.0 1611.0 718.9 1611.0 642.2 L 1611.0 334.9 C 1611.0 258.2 1548.9 196.0 1472.2 196.0 L 1334.9 196.0 C 1258.3 196.0 1196.1 258.2 1196.1 334.9 Z M 1196.1 334.9 " fill="#51A7F9"></path></g></g></g><g opacity="0.14"><g><clipPath id="clip0x6000010ae940"><path d="M 746.0 199.0 L 1164.0 199.0 L 1164.0 787.0 L 746.0 787.0 Z M 746.0 199.0 "></path></clipPath><g clip-path="url(#clip0x6000010ae940)"><path d="M 747.5 339.6 L 748.0 646.9 C 748.0 723.6 809.7 786.0 886.4 786.0 L 1023.7 786.0 C 1100.3 786.0 1163.0 723.6 1163.0 646.9 L 1163.0 339.6 C 1163.0 262.9 1100.3 201.0 1023.7 201.0 L 886.4 201.0 C 809.7 201.0 747.5 262.9 747.5 339.6 Z M 747.5 339.6 " fill="#F5D327"></path></g></g></g><g opacity="0.10"><g><clipPath id="clip0x6000010aebe0"><path d="M 307.0 199.0 L 715.0 199.0 L 715.0 787.0 L 307.0 787.0 Z M 307.0 199.0 "></path></clipPath><g clip-path="url(#clip0x6000010aebe0)"><path d="M 308.1 339.6 L 308.0 646.9 C 308.0 723.6 370.3 786.0 446.9 786.0 L 575.1 786.0 C 651.8 786.0 714.0 723.6 714.0 646.9 L 714.0 339.6 C 714.0 262.9 651.8 201.0 575.1 201.0 L 446.9 201.0 C 370.3 201.0 308.1 262.9 308.1 339.6 Z M 308.1 339.6 " fill="#51A7F9"></path></g></g></g><g opacity="0.14"><g><clipPath id="clip0x6000010aee80"><path d="M 0.0 195.0 L 276.0 195.0 L 276.0 783.0 L 0.0 783.0 Z M 0.0 195.0 "></path></clipPath><g clip-path="url(#clip0x6000010aee80)"><path d="M -140.4 334.9 L -140.0 642.2 C -140.0 718.9 -78.3 781.0 -1.6 781.0 L 135.7 781.0 C 212.4 781.0 275.0 718.9 275.0 642.2 L 275.0 334.9 C 275.0 258.2 212.4 196.0 135.7 196.0 L -1.6 196.0 C -78.3 196.0 -140.4 258.2 -140.4 334.9 Z M -140.4 334.9 " fill="#F5D327"></path></g></g></g><text xml:space="preserve" font-family="Helvetica-Light,Helvetica" font-size="112.0" fill="#000000" transform="matrix(1.00, 0.00, -0.00, -1.00, 542.0, 873.8)">E</text><text xml:space="preserve" font-family="Helvetica-Light,Helvetica" font-size="112.0" fill="#000000" transform="matrix(1.00, 0.00, -0.00, -1.00, 610.4, 873.8)">x</text><text xml:space="preserve" font-family="Helvetica-Light,Helvetica" font-size="112.0" fill="#000000" transform="matrix(1.00, 0.00, -0.00, -1.00, 666.4, 873.8)">t</text><text xml:space="preserve" font-family="Helvetica-Light,Helvetica" font-size="112.0" fill="#000000" transform="matrix(1.00, 0.00, -0.00, -1.00, 697.5, 873.8)">e</text><text xml:space="preserve" font-family="Helvetica-Light,Helvetica" font-size="112.0" fill="#000000" transform="matrix(1.00, 0.00, -0.00, -1.00, 759.8, 873.8)">r</text><text xml:space="preserve" font-family="Helvetica-Light,Helvetica" font-size="112.0" fill="#000000" transform="matrix(1.00, 0.00, -0.00, -1.00, 799.1, 873.8)">n</text><text xml:space="preserve" font-family="Helvetica-Light,Helvetica" font-size="112.0" fill="#000000" transform="matrix(1.00, 0.00, -0.00, -1.00, 861.4, 873.8)">a</text><text xml:space="preserve" font-family="Helvetica-Light,Helvetica" font-size="112.0" fill="#000000" transform="matrix(1.00, 0.00, -0.00, -1.00, 923.7, 873.8)">l</text><text xml:space="preserve" font-family="Helvetica-Light,Helvetica" font-size="112.0" fill="#000000" transform="matrix(1.00, 0.00, -0.00, -1.00, 948.5, 873.8)"> </text><text xml:space="preserve" font-family="Helvetica-Light,Helvetica" font-size="112.0" fill="#000000" transform="matrix(1.00, 0.00, -0.00, -1.00, 979.7, 873.8)">h</text><text xml:space="preserve" font-family="Helvetica-Light,Helvetica" font-size="112.0" fill="#000000" transform="matrix(1.00, 0.00, -0.00, -1.00, 1041.9, 873.8)">a</text><text xml:space="preserve" font-family="Helvetica-Light,Helvetica" font-size="112.0" fill="#000000" transform="matrix(1.00, 0.00, -0.00, -1.00, 1104.2, 873.8)">s</text><text xml:space="preserve" font-family="Helvetica-Light,Helvetica" font-size="112.0" fill="#000000" transform="matrix(1.00, 0.00, -0.00, -1.00, 1160.2, 873.8)">h</text><text xml:space="preserve" font-family="Helvetica-Light,Helvetica" font-size="112.0" fill="#000000" transform="matrix(1.00, 0.00, -0.00, -1.00, 1222.5, 873.8)">i</text><text xml:space="preserve" font-family="Helvetica-Light,Helvetica" font-size="112.0" fill="#000000" transform="matrix(1.00, 0.00, -0.00, -1.00, 1247.3, 873.8)">n</text><text xml:space="preserve" font-family="Helvetica-Light,Helvetica" font-size="112.0" fill="#000000" transform="matrix(1.00, 0.00, -0.00, -1.00, 1309.6, 873.8)">g</text><text xml:space="preserve" font-family="Helvetica-Light,Helvetica" font-size="50.0" fill="#000000" transform="matrix(1.00, 0.00, -0.00, -1.00, 1311.8, 490.7)">C</text><text xml:space="preserve" font-family="Helvetica-Light,Helvetica" font-size="50.0" fill="#000000" transform="matrix(1.00, 0.00, -0.00, -1.00, 1347.9, 490.7)">o</text><text xml:space="preserve" font-family="Helvetica-Light,Helvetica" font-size="50.0" fill="#000000" transform="matrix(1.00, 0.00, -0.00, -1.00, 1375.7, 490.7)">n</text><text xml:space="preserve" font-family="Helvetica-Light,Helvetica" font-size="50.0" fill="#000000" transform="matrix(1.00, 0.00, -0.00, -1.00, 1403.5, 490.7)">q</text><text xml:space="preserve" font-family="Helvetica-Light,Helvetica" font-size="50.0" fill="#000000" transform="matrix(1.00, 0.00, -0.00, -1.00, 1434.1, 490.7)">u</text><text xml:space="preserve" font-family="Helvetica-Light,Helvetica" font-size="50.0" fill="#000000" transform="matrix(1.00, 0.00, -0.00, -1.00, 1461.9, 490.7)">e</text><text xml:space="preserve" font-family="Helvetica-Light,Helvetica" font-size="50.0" fill="#000000" transform="matrix(1.00, 0.00, -0.00, -1.00, 1489.7, 490.7)">r</text><text xml:space="preserve" font-family="Helvetica-Light,Helvetica" font-size="50.0" fill="#000000" transform="matrix(1.00, 0.00, -0.00, -1.00, 1506.3, 490.7)"> </text><text xml:space="preserve" font-family="Helvetica-Light,Helvetica" font-size="50.0" fill="#000000" transform="matrix(1.00, 0.00, -0.00, -1.00, 1307.6, 430.7)">(</text><text xml:space="preserve" font-family="Helvetica-Light,Helvetica" font-size="50.0" fill="#000000" transform="matrix(1.00, 0.00, -0.00, -1.00, 1324.3, 430.7)">R</text><text xml:space="preserve" font-family="Helvetica-Light,Helvetica" font-size="50.0" fill="#000000" transform="matrix(1.00, 0.00, -0.00, -1.00, 1357.6, 430.7)">e</text><text xml:space="preserve" font-family="Helvetica-Light,Helvetica" font-size="50.0" fill="#000000" transform="matrix(1.00, 0.00, -0.00, -1.00, 1385.4, 430.7)">h</text><text xml:space="preserve" font-family="Helvetica-Light,Helvetica" font-size="50.0" fill="#000000" transform="matrix(1.00, 0.00, -0.00, -1.00, 1413.2, 430.7)">a</text><text xml:space="preserve" font-family="Helvetica-Light,Helvetica" font-size="50.0" fill="#000000" transform="matrix(1.00, 0.00, -0.00, -1.00, 1441.0, 430.7)">s</text><text xml:space="preserve" font-family="Helvetica-Light,Helvetica" font-size="50.0" fill="#000000" transform="matrix(1.00, 0.00, -0.00, -1.00, 1466.0, 430.7)">h</text><text xml:space="preserve" font-family="Helvetica-Light,Helvetica" font-size="50.0" fill="#000000" transform="matrix(1.00, 0.00, -0.00, -1.00, 1493.8, 430.7)">)</text><text xml:space="preserve" font-family="Helvetica-Light,Helvetica" font-size="50.0" fill="#000000" transform="matrix(1.00, 0.00, -0.00, -1.00, 906.4, 490.7)">D</text><text xml:space="preserve" font-family="Helvetica-Light,Helvetica" font-size="50.0" fill="#000000" transform="matrix(1.00, 0.00, -0.00, -1.00, 942.5, 490.7)">i</text><text xml:space="preserve" font-family="Helvetica-Light,Helvetica" font-size="50.0" fill="#000000" transform="matrix(1.00, 0.00, -0.00, -1.00, 953.6, 490.7)">s</text><text xml:space="preserve" font-family="Helvetica-Light,Helvetica" font-size="50.0" fill="#000000" transform="matrix(1.00, 0.00, -0.00, -1.00, 978.6, 490.7)">k</text><text xml:space="preserve" font-family="Helvetica-Light,Helvetica" font-size="50.0" fill="#000000" transform="matrix(1.00, 0.00, -0.00, -1.00, 1003.6, 490.7)"> </text><text xml:space="preserve" font-family="Helvetica-Light,Helvetica" font-size="50.0" fill="#000000" transform="matrix(1.00, 0.00, -0.00, -1.00, 851.8, 430.7)">P</text><text xml:space="preserve" font-family="Helvetica-Light,Helvetica" font-size="50.0" fill="#000000" transform="matrix(1.00, 0.00, -0.00, -1.00, 882.3, 430.7)">a</text><text xml:space="preserve" font-family="Helvetica-Light,Helvetica" font-size="50.0" fill="#000000" transform="matrix(1.00, 0.00, -0.00, -1.00, 910.1, 430.7)">r</text><text xml:space="preserve" font-family="Helvetica-Light,Helvetica" font-size="50.0" fill="#000000" transform="matrix(1.00, 0.00, -0.00, -1.00, 927.7, 430.7)">t</text><text xml:space="preserve" font-family="Helvetica-Light,Helvetica" font-size="50.0" fill="#000000" transform="matrix(1.00, 0.00, -0.00, -1.00, 941.6, 430.7)">i</text><text xml:space="preserve" font-family="Helvetica-Light,Helvetica" font-size="50.0" fill="#000000" transform="matrix(1.00, 0.00, -0.00, -1.00, 952.7, 430.7)">t</text><text xml:space="preserve" font-family="Helvetica-Light,Helvetica" font-size="50.0" fill="#000000" transform="matrix(1.00, 0.00, -0.00, -1.00, 966.6, 430.7)">i</text><text xml:space="preserve" font-family="Helvetica-Light,Helvetica" font-size="50.0" fill="#000000" transform="matrix(1.00, 0.00, -0.00, -1.00, 977.7, 430.7)">o</text><text xml:space="preserve" font-family="Helvetica-Light,Helvetica" font-size="50.0" fill="#000000" transform="matrix(1.00, 0.00, -0.00, -1.00, 1005.5, 430.7)">n</text><text xml:space="preserve" font-family="Helvetica-Light,Helvetica" font-size="50.0" fill="#000000" transform="matrix(1.00, 0.00, -0.00, -1.00, 1033.3, 430.7)">s</text><text xml:space="preserve" font-family="Helvetica-Light,Helvetica" font-size="50.0" fill="#000000" transform="matrix(1.00, 0.00, -0.00, -1.00, 1804.4, 460.7)">D</text><text xml:space="preserve" font-family="Helvetica-Light,Helvetica" font-size="50.0" fill="#000000" transform="matrix(1.00, 0.00, -0.00, -1.00, 1840.5, 460.7)">i</text><text xml:space="preserve" font-family="Helvetica-Light,Helvetica" font-size="50.0" fill="#000000" transform="matrix(1.00, 0.00, -0.00, -1.00, 1851.6, 460.7)">s</text><text xml:space="preserve" font-family="Helvetica-Light,Helvetica" font-size="50.0" fill="#000000" transform="matrix(1.00, 0.00, -0.00, -1.00, 1876.6, 460.7)">k</text><path d="M 0.2 -0.3 L 166.6 -0.3 L 173.2 -0.3 " fill="none" stroke="#F5D327" stroke-width="13.00" transform="matrix(1.00, 0.00, 0.00, -1.00, 1534.8, 479.2)"></path><path d="M 1701.5 454.9 L 1750.7 479.5 L 1701.5 504.1 Z M 1701.5 454.9 " fill="#F5D327"></path><path d="M -0.4 -0.3 L 166.6 -0.3 L 172.6 -0.3 " fill="none" stroke="#F5D327" stroke-width="13.00" transform="matrix(1.00, 0.00, 0.00, -1.00, 1042.4, 479.2)"></path><path d="M 1208.5 454.9 L 1257.7 479.5 L 1208.5 504.1 Z M 1208.5 454.9 " fill="#F5D327"></path><path d="M -0.0 -0.3 L 166.6 -0.3 L 173.0 -0.3 " fill="none" stroke="#F5D327" stroke-width="13.00" transform="matrix(1.00, 0.00, 0.00, -1.00, 618.0, 479.2)"></path><path d="M 784.5 454.9 L 833.7 479.5 L 784.5 504.1 Z M 784.5 454.9 " fill="#F5D327"></path><text xml:space="preserve" font-family="Helvetica-Light,Helvetica" font-size="50.0" fill="#000000" transform="matrix(1.00, 0.00, -0.00, -1.00, 440.2, 490.7)">D</text><text xml:space="preserve" font-family="Helvetica-Light,Helvetica" font-size="50.0" fill="#000000" transform="matrix(1.00, 0.00, -0.00, -1.00, 476.3, 490.7)">i</text><text xml:space="preserve" font-family="Helvetica-Light,Helvetica" font-size="50.0" fill="#000000" transform="matrix(1.00, 0.00, -0.00, -1.00, 487.4, 490.7)">v</text><text xml:space="preserve" font-family="Helvetica-Light,Helvetica" font-size="50.0" fill="#000000" transform="matrix(1.00, 0.00, -0.00, -1.00, 512.4, 490.7)">i</text><text xml:space="preserve" font-family="Helvetica-Light,Helvetica" font-size="50.0" fill="#000000" transform="matrix(1.00, 0.00, -0.00, -1.00, 523.5, 490.7)">d</text><text xml:space="preserve" font-family="Helvetica-Light,Helvetica" font-size="50.0" fill="#000000" transform="matrix(1.00, 0.00, -0.00, -1.00, 554.1, 490.7)">e</text><text xml:space="preserve" font-family="Helvetica-Light,Helvetica" font-size="50.0" fill="#000000" transform="matrix(1.00, 0.00, -0.00, -1.00, 581.9, 490.7)"> </text><text xml:space="preserve" font-family="Helvetica-Light,Helvetica" font-size="50.0" fill="#000000" transform="matrix(1.00, 0.00, -0.00, -1.00, 436.0, 430.7)">(</text><text xml:space="preserve" font-family="Helvetica-Light,Helvetica" font-size="50.0" fill="#000000" transform="matrix(1.00, 0.00, -0.00, -1.00, 452.7, 430.7)">H</text><text xml:space="preserve" font-family="Helvetica-Light,Helvetica" font-size="50.0" fill="#000000" transform="matrix(1.00, 0.00, -0.00, -1.00, 488.8, 430.7)">a</text><text xml:space="preserve" font-family="Helvetica-Light,Helvetica" font-size="50.0" fill="#000000" transform="matrix(1.00, 0.00, -0.00, -1.00, 516.6, 430.7)">s</text><text xml:space="preserve" font-family="Helvetica-Light,Helvetica" font-size="50.0" fill="#000000" transform="matrix(1.00, 0.00, -0.00, -1.00, 541.6, 430.7)">h</text><text xml:space="preserve" font-family="Helvetica-Light,Helvetica" font-size="50.0" fill="#000000" transform="matrix(1.00, 0.00, -0.00, -1.00, 569.4, 430.7)">)</text><text xml:space="preserve" font-family="Helvetica-Light,Helvetica" font-size="50.0" fill="#000000" transform="matrix(1.00, 0.00, -0.00, -1.00, 32.7, 460.7)">D</text><text xml:space="preserve" font-family="Helvetica-Light,Helvetica" font-size="50.0" fill="#000000" transform="matrix(1.00, 0.00, -0.00, -1.00, 68.8, 460.7)">i</text><text xml:space="preserve" font-family="Helvetica-Light,Helvetica" font-size="50.0" fill="#000000" transform="matrix(1.00, 0.00, -0.00, -1.00, 79.9, 460.7)">s</text><text xml:space="preserve" font-family="Helvetica-Light,Helvetica" font-size="50.0" fill="#000000" transform="matrix(1.00, 0.00, -0.00, -1.00, 104.9, 460.7)">k</text><path d="M 0.3 -0.3 L 166.6 -0.3 L 173.3 -0.3 " fill="none" stroke="#F5D327" stroke-width="13.00" transform="matrix(1.00, 0.00, 0.00, -1.00, 168.7, 479.2)"></path><path d="M 335.5 454.9 L 384.7 479.5 L 335.5 504.1 Z M 335.5 454.9 " fill="#F5D327"></path></g></svg>