<?xml version="1.0" encoding="UTF-8" standalone="no"?><svg xmlns="http://www.w3.org/2000/svg" xmlns:xlink="http://www.w3.org/1999/xlink" clip-rule="evenodd" stroke-miterlimit="10" viewBox="0 0 1920 1080"><desc>SVG generated by Keynote</desc><defs></defs><g transform="matrix(1.00, 0.00, -0.00, -1.00, 0.0, 1080.0)"><path d="M 0.0 1080.0 L 1920.0 1080.0 L 1920.0 0.0 L 0.0 0.0 Z M 0.0 1080.0 " fill="#FEFFFF"></path><text xml:space="preserve" font-family="Helvetica-Light,Helvetica" font-size="71.7" fill="#0264C0" transform="matrix(1.00, 0.00, -0.00, -1.00, 246.2, 931.5)">F</text><text xml:space="preserve" font-family="Helvetica-Light,Helvetica" font-size="71.7" fill="#0264C0" transform="matrix(1.00, 0.00, -0.00, -1.00, 286.1, 931.5)">i</text><text xml:space="preserve" font-family="Helvetica-Light,Helvetica" font-size="71.7" fill="#0264C0" transform="matrix(1.00, 0.00, -0.00, -1.00, 302.0, 931.5)">n</text><text xml:space="preserve" font-family="Helvetica-Light,Helvetica" font-size="71.7" fill="#0264C0" transform="matrix(1.00, 0.00, -0.00, -1.00, 341.8, 931.5)">d</text><text xml:space="preserve" font-family="Helvetica-Light,Helvetica" font-size="71.7" fill="#0264C0" transform="matrix(1.00, 0.00, -0.00, -1.00, 385.6, 931.5)"> </text><text xml:space="preserve" font-family="Helvetica-Light,Helvetica" font-size="71.7" fill="#0264C0" transform="matrix(1.00, 0.00, -0.00, -1.00, 405.6, 931.5)">t</text><text xml:space="preserve" font-family="Helvetica-Light,Helvetica" font-size="71.7" fill="#0264C0" transform="matrix(1.00, 0.00, -0.00, -1.00, 425.5, 931.5)">h</text><text xml:space="preserve" font-family="Helvetica-Light,Helvetica" font-size="71.7" fill="#0264C0" transform="matrix(1.00, 0.00, -0.00, -1.00, 465.3, 931.5)">e</text><text xml:space="preserve" font-family="Helvetica-Light,Helvetica" font-size="71.7" fill="#0264C0" transform="matrix(1.00, 0.00, -0.00, -1.00, 505.2, 931.5)"> </text><text xml:space="preserve" font-family="Helvetica-Light,Helvetica" font-size="71.7" fill="#0264C0" transform="matrix(1.00, 0.00, -0.00, -1.00, 525.1, 931.5)">i</text><text xml:space="preserve" font-family="Helvetica-Light,Helvetica" font-size="71.7" fill="#0264C0" transform="matrix(1.00, 0.00, -0.00, -1.00, 541.0, 931.5)">d</text><text xml:space="preserve" font-family="Helvetica-Light,Helvetica" font-size="71.7" fill="#0264C0" transform="matrix(1.00, 0.00, -0.00, -1.00, 584.8, 931.5)"> </text><text xml:space="preserve" font-family="Helvetica-Light,Helvetica" font-size="71.7" fill="#0264C0" transform="matrix(1.00, 0.00, -0.00, -1.00, 604.8, 931.5)">a</text><text xml:space="preserve" font-family="Helvetica-Light,Helvetica" font-size="71.7" fill="#0264C0" transform="matrix(1.00, 0.00, -0.00, -1.00, 644.6, 931.5)">n</text><text xml:space="preserve" font-family="Helvetica-Light,Helvetica" font-size="71.7" fill="#0264C0" transform="matrix(1.00, 0.00, -0.00, -1.00, 684.5, 931.5)">d</text><text xml:space="preserve" font-family="Helvetica-Light,Helvetica" font-size="71.7" fill="#0264C0" transform="matrix(1.00, 0.00, -0.00, -1.00, 728.3, 931.5)"> </text><text xml:space="preserve" font-family="Helvetica-Light,Helvetica" font-size="71.7" fill="#0264C0" transform="matrix(1.00, 0.00, -0.00, -1.00, 748.2, 931.5)">n</text><text xml:space="preserve" font-family="Helvetica-Light,Helvetica" font-size="71.7" fill="#0264C0" transform="matrix(1.00, 0.00, -0.00, -1.00, 788.0, 931.5)">a</text><text xml:space="preserve" font-family="Helvetica-Light,Helvetica" font-size="71.7" fill="#0264C0" transform="matrix(1.00, 0.00, -0.00, -1.00, 827.9, 931.5)">m</text><text xml:space="preserve" font-family="Helvetica-Light,Helvetica" font-size="71.7" fill="#0264C0" transform="matrix(1.00, 0.00, -0.00, -1.00, 887.6, 931.5)">e</text><text xml:space="preserve" font-family="Helvetica-Light,Helvetica" font-size="71.7" fill="#0264C0" transform="matrix(1.00, 0.00, -0.00, -1.00, 927.5, 931.5)"> </text><text xml:space="preserve" font-family="Helvetica-Light,Helvetica" font-size="71.7" fill="#0264C0" transform="matrix(1.00, 0.00, -0.00, -1.00, 947.4, 931.5)">f</text><text xml:space="preserve" font-family="Helvetica-Light,Helvetica" font-size="71.7" fill="#0264C0" transform="matrix(1.00, 0.00, -0.00, -1.00, 967.3, 931.5)">o</text><text xml:space="preserve" font-family="Helvetica-Light,Helvetica" font-size="71.7" fill="#0264C0" transform="matrix(1.00, 0.00, -0.00, -1.00, 1007.2, 931.5)">r</text><text xml:space="preserve" font-family="Helvetica-Light,Helvetica" font-size="71.7" fill="#0264C0" transform="matrix(1.00, 0.00, -0.00, -1.00, 1031.0, 931.5)"> </text><text xml:space="preserve" font-family="Helvetica-Light,Helvetica" font-size="71.7" fill="#0264C0" transform="matrix(1.00, 0.00, -0.00, -1.00, 1051.0, 931.5)">e</text><text xml:space="preserve" font-family="Helvetica-Light,Helvetica" font-size="71.7" fill="#0264C0" transform="matrix(1.00, 0.00, -0.00, -1.00, 1090.8, 931.5)">a</text><text xml:space="preserve" font-family="Helvetica-Light,Helvetica" font-size="71.7" fill="#0264C0" transform="matrix(1.00, 0.00, -0.00, -1.00, 1130.7, 931.5)">c</text><text xml:space="preserve" font-family="Helvetica-Light,Helvetica" font-size="71.7" fill="#0264C0" transform="matrix(1.00, 0.00, -0.00, -1.00, 1170.5, 931.5)">h</text><text xml:space="preserve" font-family="Helvetica-Light,Helvetica" font-size="71.7" fill="#0264C0" transform="matrix(1.00, 0.00, -0.00, -1.00, 1210.4, 931.5)"> </text><text xml:space="preserve" font-family="Helvetica-Light,Helvetica" font-size="71.7" fill="#0264C0" transform="matrix(1.00, 0.00, -0.00, -1.00, 1230.3, 931.5)">a</text><text xml:space="preserve" font-family="Helvetica-Light,Helvetica" font-size="71.7" fill="#0264C0" transform="matrix(1.00, 0.00, -0.00, -1.00, 1270.2, 931.5)">r</text><text xml:space="preserve" font-family="Helvetica-Light,Helvetica" font-size="71.7" fill="#0264C0" transform="matrix(1.00, 0.00, -0.00, -1.00, 1295.3, 931.5)">t</text><text xml:space="preserve" font-family="Helvetica-Light,Helvetica" font-size="71.7" fill="#0264C0" transform="matrix(1.00, 0.00, -0.00, -1.00, 1315.2, 931.5)">i</text><text xml:space="preserve" font-family="Helvetica-Light,Helvetica" font-size="71.7" fill="#0264C0" transform="matrix(1.00, 0.00, -0.00, -1.00, 1331.2, 931.5)">s</text><text xml:space="preserve" font-family="Helvetica-Light,Helvetica" font-size="71.7" fill="#0264C0" transform="matrix(1.00, 0.00, -0.00, -1.00, 1367.0, 931.5)">t</text><text xml:space="preserve" font-family="Helvetica-Light,Helvetica" font-size="71.7" fill="#0264C0" transform="matrix(1.00, 0.00, -0.00, -1.00, 1386.9, 931.5)"> </text><text xml:space="preserve" font-family="Helvetica-Light,Helvetica" font-size="71.7" fill="#0264C0" transform="matrix(1.00, 0.00, -0.00, -1.00, 1406.9, 931.5)">w</text><text xml:space="preserve" font-family="Helvetica-Light,Helvetica" font-size="71.7" fill="#0264C0" transform="matrix(1.00, 0.00, -0.00, -1.00, 1458.6, 931.5)">h</text><text xml:space="preserve" font-family="Helvetica-Light,Helvetica" font-size="71.7" fill="#0264C0" transform="matrix(1.00, 0.00, -0.00, -1.00, 1498.5, 931.5)">o</text><text xml:space="preserve" font-family="Helvetica-Light,Helvetica" font-size="71.7" fill="#0264C0" transform="matrix(1.00, 0.00, -0.00, -1.00, 1538.3, 931.5)"> </text><text xml:space="preserve" font-family="Helvetica-Light,Helvetica" font-size="71.7" fill="#0264C0" transform="matrix(1.00, 0.00, -0.00, -1.00, 1558.2, 931.5)">h</text><text xml:space="preserve" font-family="Helvetica-Light,Helvetica" font-size="71.7" fill="#0264C0" transform="matrix(1.00, 0.00, -0.00, -1.00, 1598.1, 931.5)">a</text><text xml:space="preserve" font-family="Helvetica-Light,Helvetica" font-size="71.7" fill="#0264C0" transform="matrix(1.00, 0.00, -0.00, -1.00, 1637.9, 931.5)">s</text><text xml:space="preserve" font-family="Helvetica-Light,Helvetica" font-size="71.7" fill="#0264C0" transform="matrix(1.00, 0.00, -0.00, -1.00, 1673.8, 931.5)"> </text><text xml:space="preserve" font-family="Helvetica-Light,Helvetica" font-size="71.7" fill="#0264C0" transform="matrix(1.00, 0.00, -0.00, -1.00, 409.6, 846.5)">a</text><text xml:space="preserve" font-family="Helvetica-Light,Helvetica" font-size="71.7" fill="#0264C0" transform="matrix(1.00, 0.00, -0.00, -1.00, 449.4, 846.5)">l</text><text xml:space="preserve" font-family="Helvetica-Light,Helvetica" font-size="71.7" fill="#0264C0" transform="matrix(1.00, 0.00, -0.00, -1.00, 465.3, 846.5)">b</text><text xml:space="preserve" font-family="Helvetica-Light,Helvetica" font-size="71.7" fill="#0264C0" transform="matrix(1.00, 0.00, -0.00, -1.00, 509.1, 846.5)">u</text><text xml:space="preserve" font-family="Helvetica-Light,Helvetica" font-size="71.7" fill="#0264C0" transform="matrix(1.00, 0.00, -0.00, -1.00, 549.0, 846.5)">m</text><text xml:space="preserve" font-family="Helvetica-Light,Helvetica" font-size="71.7" fill="#0264C0" transform="matrix(1.00, 0.00, -0.00, -1.00, 608.7, 846.5)">s</text><text xml:space="preserve" font-family="Helvetica-Light,Helvetica" font-size="71.7" fill="#0264C0" transform="matrix(1.00, 0.00, -0.00, -1.00, 644.5, 846.5)"> </text><text xml:space="preserve" font-family="Helvetica-Light,Helvetica" font-size="71.7" fill="#0264C0" transform="matrix(1.00, 0.00, -0.00, -1.00, 664.5, 846.5)">o</text><text xml:space="preserve" font-family="Helvetica-Light,Helvetica" font-size="71.7" fill="#0264C0" transform="matrix(1.00, 0.00, -0.00, -1.00, 704.3, 846.5)">f</text><text xml:space="preserve" font-family="Helvetica-Light,Helvetica" font-size="71.7" fill="#0264C0" transform="matrix(1.00, 0.00, -0.00, -1.00, 724.2, 846.5)"> </text><text xml:space="preserve" font-family="Helvetica-Light,Helvetica" font-size="71.7" fill="#0264C0" transform="matrix(1.00, 0.00, -0.00, -1.00, 744.2, 846.5)">g</text><text xml:space="preserve" font-family="Helvetica-Light,Helvetica" font-size="71.7" fill="#0264C0" transform="matrix(1.00, 0.00, -0.00, -1.00, 788.0, 846.5)">e</text><text xml:space="preserve" font-family="Helvetica-Light,Helvetica" font-size="71.7" fill="#0264C0" transform="matrix(1.00, 0.00, -0.00, -1.00, 827.8, 846.5)">n</text><text xml:space="preserve" font-family="Helvetica-Light,Helvetica" font-size="71.7" fill="#0264C0" transform="matrix(1.00, 0.00, -0.00, -1.00, 867.7, 846.5)">r</text><text xml:space="preserve" font-family="Helvetica-Light,Helvetica" font-size="71.7" fill="#0264C0" transform="matrix(1.00, 0.00, -0.00, -1.00, 890.3, 846.5)">e</text><text xml:space="preserve" font-family="Helvetica-Light,Helvetica" font-size="71.7" fill="#0264C0" transform="matrix(1.00, 0.00, -0.00, -1.00, 930.1, 846.5)"> </text><text xml:space="preserve" font-family="Helvetica-Light,Helvetica" font-size="71.7" fill="#0264C0" transform="matrix(1.00, 0.00, -0.00, -1.00, 950.0, 846.5)">“</text><text xml:space="preserve" font-family="Helvetica-Light,Helvetica" font-size="71.7" fill="#0264C0" transform="matrix(1.00, 0.00, -0.00, -1.00, 977.9, 846.5)">p</text><text xml:space="preserve" font-family="Helvetica-Light,Helvetica" font-size="71.7" fill="#0264C0" transform="matrix(1.00, 0.00, -0.00, -1.00, 1021.7, 846.5)">o</text><text xml:space="preserve" font-family="Helvetica-Light,Helvetica" font-size="71.7" fill="#0264C0" transform="matrix(1.00, 0.00, -0.00, -1.00, 1061.6, 846.5)">p</text><text xml:space="preserve" font-family="Helvetica-Light,Helvetica" font-size="71.7" fill="#0264C0" transform="matrix(1.00, 0.00, -0.00, -1.00, 1105.4, 846.5)">”</text><text xml:space="preserve" font-family="Helvetica-Light,Helvetica" font-size="71.7" fill="#0264C0" transform="matrix(1.00, 0.00, -0.00, -1.00, 1133.3, 846.5)"> </text><text xml:space="preserve" font-family="Helvetica-Light,Helvetica" font-size="71.7" fill="#0264C0" transform="matrix(1.00, 0.00, -0.00, -1.00, 1153.2, 846.5)">a</text><text xml:space="preserve" font-family="Helvetica-Light,Helvetica" font-size="71.7" fill="#0264C0" transform="matrix(1.00, 0.00, -0.00, -1.00, 1193.0, 846.5)">n</text><text xml:space="preserve" font-family="Helvetica-Light,Helvetica" font-size="71.7" fill="#0264C0" transform="matrix(1.00, 0.00, -0.00, -1.00, 1232.9, 846.5)">d</text><text xml:space="preserve" font-family="Helvetica-Light,Helvetica" font-size="71.7" fill="#0264C0" transform="matrix(1.00, 0.00, -0.00, -1.00, 1276.7, 846.5)"> </text><text xml:space="preserve" font-family="Helvetica-Light,Helvetica" font-size="71.7" fill="#0264C0" transform="matrix(1.00, 0.00, -0.00, -1.00, 1296.6, 846.5)">“</text><text xml:space="preserve" font-family="Helvetica-Light,Helvetica" font-size="71.7" fill="#0264C0" transform="matrix(1.00, 0.00, -0.00, -1.00, 1324.5, 846.5)">r</text><text xml:space="preserve" font-family="Helvetica-Light,Helvetica" font-size="71.7" fill="#0264C0" transform="matrix(1.00, 0.00, -0.00, -1.00, 1347.1, 846.5)">o</text><text xml:space="preserve" font-family="Helvetica-Light,Helvetica" font-size="71.7" fill="#0264C0" transform="matrix(1.00, 0.00, -0.00, -1.00, 1386.9, 846.5)">c</text><text xml:space="preserve" font-family="Helvetica-Light,Helvetica" font-size="71.7" fill="#0264C0" transform="matrix(1.00, 0.00, -0.00, -1.00, 1426.8, 846.5)">k</text><text xml:space="preserve" font-family="Helvetica-Light,Helvetica" font-size="71.7" fill="#0264C0" transform="matrix(1.00, 0.00, -0.00, -1.00, 1462.6, 846.5)">”</text><text xml:space="preserve" font-family="Helvetica-Light,Helvetica" font-size="71.7" fill="#0264C0" transform="matrix(1.00, 0.00, -0.00, -1.00, 1490.5, 846.5)">.</text></g></svg>