<?xml version="1.0" encoding="UTF-8" standalone="no"?><svg xmlns="http://www.w3.org/2000/svg" xmlns:xlink="http://www.w3.org/1999/xlink" clip-rule="evenodd" stroke-miterlimit="10" viewBox="0 0 1920 1080"><desc>SVG generated by Keynote</desc><defs></defs><g transform="matrix(1.00, 0.00, -0.00, -1.00, 0.0, 1080.0)"><path d="M 0.0 1080.0 L 1920.0 1080.0 L 1920.0 0.0 L 0.0 0.0 Z M 0.0 1080.0 " fill="#FEFFFF"></path><text xml:space="preserve" font-family="Helvetica-Light,Helvetica" font-size="73.9" fill="#000000" transform="matrix(1.00, 0.00, -0.00, -1.00, 175.4, 646.0)">I</text><text xml:space="preserve" font-family="Helvetica-Light,Helvetica" font-size="73.9" fill="#000000" transform="matrix(1.00, 0.00, -0.00, -1.00, 196.0, 646.0)">’</text><text xml:space="preserve" font-family="Helvetica-Light,Helvetica" font-size="73.9" fill="#000000" transform="matrix(1.00, 0.00, -0.00, -1.00, 212.4, 646.0)">m</text><text xml:space="preserve" font-family="Helvetica-Light,Helvetica" font-size="73.9" fill="#000000" transform="matrix(1.00, 0.00, -0.00, -1.00, 273.9, 646.0)"> </text><text xml:space="preserve" font-family="Helvetica-Light,Helvetica" font-size="73.9" fill="#000000" transform="matrix(1.00, 0.00, -0.00, -1.00, 294.5, 646.0)">g</text><text xml:space="preserve" font-family="Helvetica-Light,Helvetica" font-size="73.9" fill="#000000" transform="matrix(1.00, 0.00, -0.00, -1.00, 339.7, 646.0)">o</text><text xml:space="preserve" font-family="Helvetica-Light,Helvetica" font-size="73.9" fill="#000000" transform="matrix(1.00, 0.00, -0.00, -1.00, 380.8, 646.0)">i</text><text xml:space="preserve" font-family="Helvetica-Light,Helvetica" font-size="73.9" fill="#000000" transform="matrix(1.00, 0.00, -0.00, -1.00, 397.2, 646.0)">n</text><text xml:space="preserve" font-family="Helvetica-Light,Helvetica" font-size="73.9" fill="#000000" transform="matrix(1.00, 0.00, -0.00, -1.00, 438.3, 646.0)">g</text><text xml:space="preserve" font-family="Helvetica-Light,Helvetica" font-size="73.9" fill="#000000" transform="matrix(1.00, 0.00, -0.00, -1.00, 483.4, 646.0)"> </text><text xml:space="preserve" font-family="Helvetica-Light,Helvetica" font-size="73.9" fill="#000000" transform="matrix(1.00, 0.00, -0.00, -1.00, 504.0, 646.0)">t</text><text xml:space="preserve" font-family="Helvetica-Light,Helvetica" font-size="73.9" fill="#000000" transform="matrix(1.00, 0.00, -0.00, -1.00, 524.5, 646.0)">o</text><text xml:space="preserve" font-family="Helvetica-Light,Helvetica" font-size="73.9" fill="#000000" transform="matrix(1.00, 0.00, -0.00, -1.00, 565.6, 646.0)"> </text><text xml:space="preserve" font-family="Helvetica-Light,Helvetica" font-size="73.9" fill="#000000" transform="matrix(1.00, 0.00, -0.00, -1.00, 586.2, 646.0)">b</text><text xml:space="preserve" font-family="Helvetica-Light,Helvetica" font-size="73.9" fill="#000000" transform="matrix(1.00, 0.00, -0.00, -1.00, 631.4, 646.0)">e</text><text xml:space="preserve" font-family="Helvetica-Light,Helvetica" font-size="73.9" fill="#000000" transform="matrix(1.00, 0.00, -0.00, -1.00, 672.5, 646.0)"> </text><text xml:space="preserve" font-family="Helvetica-Light,Helvetica" font-size="73.9" fill="#000000" transform="matrix(1.00, 0.00, -0.00, -1.00, 693.0, 646.0)">c</text><text xml:space="preserve" font-family="Helvetica-Light,Helvetica" font-size="73.9" fill="#000000" transform="matrix(1.00, 0.00, -0.00, -1.00, 734.1, 646.0)">r</text><text xml:space="preserve" font-family="Helvetica-Light,Helvetica" font-size="73.9" fill="#000000" transform="matrix(1.00, 0.00, -0.00, -1.00, 758.7, 646.0)">a</text><text xml:space="preserve" font-family="Helvetica-Light,Helvetica" font-size="73.9" fill="#000000" transform="matrix(1.00, 0.00, -0.00, -1.00, 799.8, 646.0)">m</text><text xml:space="preserve" font-family="Helvetica-Light,Helvetica" font-size="73.9" fill="#000000" transform="matrix(1.00, 0.00, -0.00, -1.00, 861.4, 646.0)">m</text><text xml:space="preserve" font-family="Helvetica-Light,Helvetica" font-size="73.9" fill="#000000" transform="matrix(1.00, 0.00, -0.00, -1.00, 923.0, 646.0)">i</text><text xml:space="preserve" font-family="Helvetica-Light,Helvetica" font-size="73.9" fill="#000000" transform="matrix(1.00, 0.00, -0.00, -1.00, 939.4, 646.0)">n</text><text xml:space="preserve" font-family="Helvetica-Light,Helvetica" font-size="73.9" fill="#000000" transform="matrix(1.00, 0.00, -0.00, -1.00, 980.5, 646.0)">g</text><text xml:space="preserve" font-family="Helvetica-Light,Helvetica" font-size="73.9" fill="#000000" transform="matrix(1.00, 0.00, -0.00, -1.00, 1025.6, 646.0)"> </text><text xml:space="preserve" font-family="Helvetica-Light,Helvetica" font-size="73.9" fill="#000000" transform="matrix(1.00, 0.00, -0.00, -1.00, 1046.2, 646.0)">t</text><text xml:space="preserve" font-family="Helvetica-Light,Helvetica" font-size="73.9" fill="#000000" transform="matrix(1.00, 0.00, -0.00, -1.00, 1066.7, 646.0)">h</text><text xml:space="preserve" font-family="Helvetica-Light,Helvetica" font-size="73.9" fill="#000000" transform="matrix(1.00, 0.00, -0.00, -1.00, 1107.8, 646.0)">i</text><text xml:space="preserve" font-family="Helvetica-Light,Helvetica" font-size="73.9" fill="#000000" transform="matrix(1.00, 0.00, -0.00, -1.00, 1124.3, 646.0)">s</text><text xml:space="preserve" font-family="Helvetica-Light,Helvetica" font-size="73.9" fill="#000000" transform="matrix(1.00, 0.00, -0.00, -1.00, 1161.2, 646.0)"> </text><text xml:space="preserve" font-family="Helvetica-Light,Helvetica" font-size="73.9" fill="#000000" transform="matrix(1.00, 0.00, -0.00, -1.00, 1181.8, 646.0)">S</text><text xml:space="preserve" font-family="Helvetica-Light,Helvetica" font-size="73.9" fill="#000000" transform="matrix(1.00, 0.00, -0.00, -1.00, 1226.9, 646.0)">a</text><text xml:space="preserve" font-family="Helvetica-Light,Helvetica" font-size="73.9" fill="#000000" transform="matrix(1.00, 0.00, -0.00, -1.00, 1268.0, 646.0)">t</text><text xml:space="preserve" font-family="Helvetica-Light,Helvetica" font-size="73.9" fill="#000000" transform="matrix(1.00, 0.00, -0.00, -1.00, 1288.6, 646.0)">u</text><text xml:space="preserve" font-family="Helvetica-Light,Helvetica" font-size="73.9" fill="#000000" transform="matrix(1.00, 0.00, -0.00, -1.00, 1329.7, 646.0)">r</text><text xml:space="preserve" font-family="Helvetica-Light,Helvetica" font-size="73.9" fill="#000000" transform="matrix(1.00, 0.00, -0.00, -1.00, 1353.0, 646.0)">d</text><text xml:space="preserve" font-family="Helvetica-Light,Helvetica" font-size="73.9" fill="#000000" transform="matrix(1.00, 0.00, -0.00, -1.00, 1398.1, 646.0)">a</text><text xml:space="preserve" font-family="Helvetica-Light,Helvetica" font-size="73.9" fill="#000000" transform="matrix(1.00, 0.00, -0.00, -1.00, 1439.2, 646.0)">y</text><text xml:space="preserve" font-family="Helvetica-Light,Helvetica" font-size="73.9" fill="#000000" transform="matrix(1.00, 0.00, -0.00, -1.00, 1476.2, 646.0)"> </text><text xml:space="preserve" font-family="Helvetica-Light,Helvetica" font-size="73.9" fill="#000000" transform="matrix(1.00, 0.00, -0.00, -1.00, 1496.7, 646.0)">t</text><text xml:space="preserve" font-family="Helvetica-Light,Helvetica" font-size="73.9" fill="#000000" transform="matrix(1.00, 0.00, -0.00, -1.00, 1517.3, 646.0)">o</text><text xml:space="preserve" font-family="Helvetica-Light,Helvetica" font-size="73.9" fill="#000000" transform="matrix(1.00, 0.00, -0.00, -1.00, 1558.4, 646.0)"> </text><text xml:space="preserve" font-family="Helvetica-Light,Helvetica" font-size="73.9" fill="#000000" transform="matrix(1.00, 0.00, -0.00, -1.00, 1578.9, 646.0)">l</text><text xml:space="preserve" font-family="Helvetica-Light,Helvetica" font-size="73.9" fill="#000000" transform="matrix(1.00, 0.00, -0.00, -1.00, 1595.3, 646.0)">e</text><text xml:space="preserve" font-family="Helvetica-Light,Helvetica" font-size="73.9" fill="#000000" transform="matrix(1.00, 0.00, -0.00, -1.00, 1636.4, 646.0)">a</text><text xml:space="preserve" font-family="Helvetica-Light,Helvetica" font-size="73.9" fill="#000000" transform="matrix(1.00, 0.00, -0.00, -1.00, 1677.5, 646.0)">r</text><text xml:space="preserve" font-family="Helvetica-Light,Helvetica" font-size="73.9" fill="#000000" transform="matrix(1.00, 0.00, -0.00, -1.00, 1703.5, 646.0)">n</text><text xml:space="preserve" font-family="Helvetica-Light,Helvetica" font-size="73.9" fill="#000000" transform="matrix(1.00, 0.00, -0.00, -1.00, 1744.6, 646.0)"> </text><text xml:space="preserve" font-family="Helvetica-Light,Helvetica" font-size="73.9" fill="#000000" transform="matrix(1.00, 0.00, -0.00, -1.00, 420.4, 557.0)">s</text><text xml:space="preserve" font-family="Helvetica-Light,Helvetica" font-size="73.9" fill="#000000" transform="matrix(1.00, 0.00, -0.00, -1.00, 457.4, 557.0)">o</text><text xml:space="preserve" font-family="Helvetica-Light,Helvetica" font-size="73.9" fill="#000000" transform="matrix(1.00, 0.00, -0.00, -1.00, 498.5, 557.0)">m</text><text xml:space="preserve" font-family="Helvetica-Light,Helvetica" font-size="73.9" fill="#000000" transform="matrix(1.00, 0.00, -0.00, -1.00, 560.1, 557.0)">e</text><text xml:space="preserve" font-family="Helvetica-Light,Helvetica" font-size="73.9" fill="#000000" transform="matrix(1.00, 0.00, -0.00, -1.00, 601.2, 557.0)"> </text><text xml:space="preserve" font-family="Helvetica-Light,Helvetica" font-size="73.9" fill="#000000" transform="matrix(1.00, 0.00, -0.00, -1.00, 621.7, 557.0)">S</text><text xml:space="preserve" font-family="Helvetica-Light,Helvetica" font-size="73.9" fill="#000000" transform="matrix(1.00, 0.00, -0.00, -1.00, 666.9, 557.0)">c</text><text xml:space="preserve" font-family="Helvetica-Light,Helvetica" font-size="73.9" fill="#000000" transform="matrix(1.00, 0.00, -0.00, -1.00, 708.0, 557.0)">a</text><text xml:space="preserve" font-family="Helvetica-Light,Helvetica" font-size="73.9" fill="#000000" transform="matrix(1.00, 0.00, -0.00, -1.00, 749.1, 557.0)">l</text><text xml:space="preserve" font-family="Helvetica-Light,Helvetica" font-size="73.9" fill="#000000" transform="matrix(1.00, 0.00, -0.00, -1.00, 765.5, 557.0)">a</text><text xml:space="preserve" font-family="Helvetica-Light,Helvetica" font-size="73.9" fill="#000000" transform="matrix(1.00, 0.00, -0.00, -1.00, 806.6, 557.0)">.</text><text xml:space="preserve" font-family="Helvetica-Light,Helvetica" font-size="73.9" fill="#000000" transform="matrix(1.00, 0.00, -0.00, -1.00, 827.1, 557.0)"> </text><text xml:space="preserve" font-family="Helvetica-Light,Helvetica" font-size="73.9" fill="#000000" transform="matrix(1.00, 0.00, -0.00, -1.00, 847.7, 557.0)">F</text><text xml:space="preserve" font-family="Helvetica-Light,Helvetica" font-size="73.9" fill="#000000" transform="matrix(1.00, 0.00, -0.00, -1.00, 888.8, 557.0)">e</text><text xml:space="preserve" font-family="Helvetica-Light,Helvetica" font-size="73.9" fill="#000000" transform="matrix(1.00, 0.00, -0.00, -1.00, 929.9, 557.0)">e</text><text xml:space="preserve" font-family="Helvetica-Light,Helvetica" font-size="73.9" fill="#000000" transform="matrix(1.00, 0.00, -0.00, -1.00, 971.0, 557.0)">l</text><text xml:space="preserve" font-family="Helvetica-Light,Helvetica" font-size="73.9" fill="#000000" transform="matrix(1.00, 0.00, -0.00, -1.00, 987.4, 557.0)"> </text><text xml:space="preserve" font-family="Helvetica-Light,Helvetica" font-size="73.9" fill="#000000" transform="matrix(1.00, 0.00, -0.00, -1.00, 1007.9, 557.0)">f</text><text xml:space="preserve" font-family="Helvetica-Light,Helvetica" font-size="73.9" fill="#000000" transform="matrix(1.00, 0.00, -0.00, -1.00, 1028.5, 557.0)">r</text><text xml:space="preserve" font-family="Helvetica-Light,Helvetica" font-size="73.9" fill="#000000" transform="matrix(1.00, 0.00, -0.00, -1.00, 1051.8, 557.0)">e</text><text xml:space="preserve" font-family="Helvetica-Light,Helvetica" font-size="73.9" fill="#000000" transform="matrix(1.00, 0.00, -0.00, -1.00, 1092.9, 557.0)">e</text><text xml:space="preserve" font-family="Helvetica-Light,Helvetica" font-size="73.9" fill="#000000" transform="matrix(1.00, 0.00, -0.00, -1.00, 1134.0, 557.0)"> </text><text xml:space="preserve" font-family="Helvetica-Light,Helvetica" font-size="73.9" fill="#000000" transform="matrix(1.00, 0.00, -0.00, -1.00, 1154.5, 557.0)">t</text><text xml:space="preserve" font-family="Helvetica-Light,Helvetica" font-size="73.9" fill="#000000" transform="matrix(1.00, 0.00, -0.00, -1.00, 1175.1, 557.0)">o</text><text xml:space="preserve" font-family="Helvetica-Light,Helvetica" font-size="73.9" fill="#000000" transform="matrix(1.00, 0.00, -0.00, -1.00, 1216.2, 557.0)"> </text><text xml:space="preserve" font-family="Helvetica-Light,Helvetica" font-size="73.9" fill="#000000" transform="matrix(1.00, 0.00, -0.00, -1.00, 1236.7, 557.0)">j</text><text xml:space="preserve" font-family="Helvetica-Light,Helvetica" font-size="73.9" fill="#000000" transform="matrix(1.00, 0.00, -0.00, -1.00, 1253.1, 557.0)">o</text><text xml:space="preserve" font-family="Helvetica-Light,Helvetica" font-size="73.9" fill="#000000" transform="matrix(1.00, 0.00, -0.00, -1.00, 1294.2, 557.0)">i</text><text xml:space="preserve" font-family="Helvetica-Light,Helvetica" font-size="73.9" fill="#000000" transform="matrix(1.00, 0.00, -0.00, -1.00, 1310.6, 557.0)">n</text><text xml:space="preserve" font-family="Helvetica-Light,Helvetica" font-size="73.9" fill="#000000" transform="matrix(1.00, 0.00, -0.00, -1.00, 1351.7, 557.0)"> </text><text xml:space="preserve" font-family="Helvetica-Light,Helvetica" font-size="73.9" fill="#000000" transform="matrix(1.00, 0.00, -0.00, -1.00, 1372.3, 557.0)">m</text><text xml:space="preserve" font-family="Helvetica-Light,Helvetica" font-size="73.9" fill="#000000" transform="matrix(1.00, 0.00, -0.00, -1.00, 1433.9, 557.0)">e</text><text xml:space="preserve" font-family="Helvetica-Light,Helvetica" font-size="73.9" fill="#000000" transform="matrix(1.00, 0.00, -0.00, -1.00, 1475.0, 557.0)">!</text><text xml:space="preserve" font-family="Helvetica-Light,Helvetica" font-size="73.9" fill="#000000" transform="matrix(1.00, 0.00, -0.00, -1.00, 1499.6, 557.0)"> </text><text xml:space="preserve" font-family="Helvetica-Light,Helvetica" font-size="73.9" fill="#000000" transform="matrix(1.00, 0.00, -0.00, -1.00, 453.8, 379.0)">a</text><text xml:space="preserve" font-family="Helvetica-Light,Helvetica" font-size="73.9" fill="#000000" transform="matrix(1.00, 0.00, -0.00, -1.00, 494.9, 379.0)">n</text><text xml:space="preserve" font-family="Helvetica-Light,Helvetica" font-size="73.9" fill="#000000" transform="matrix(1.00, 0.00, -0.00, -1.00, 536.0, 379.0)">t</text><text xml:space="preserve" font-family="Helvetica-Light,Helvetica" font-size="73.9" fill="#000000" transform="matrix(1.00, 0.00, -0.00, -1.00, 556.6, 379.0)">h</text><text xml:space="preserve" font-family="Helvetica-Light,Helvetica" font-size="73.9" fill="#000000" transform="matrix(1.00, 0.00, -0.00, -1.00, 597.7, 379.0)">o</text><text xml:space="preserve" font-family="Helvetica-Light,Helvetica" font-size="73.9" fill="#000000" transform="matrix(1.00, 0.00, -0.00, -1.00, 638.8, 379.0)">n</text><text xml:space="preserve" font-family="Helvetica-Light,Helvetica" font-size="73.9" fill="#000000" transform="matrix(1.00, 0.00, -0.00, -1.00, 679.9, 379.0)">y</text><text xml:space="preserve" font-family="Helvetica-Light,Helvetica" font-size="73.9" fill="#000000" transform="matrix(1.00, 0.00, -0.00, -1.00, 716.8, 379.0)">s</text><text xml:space="preserve" font-family="Helvetica-Light,Helvetica" font-size="73.9" fill="#000000" transform="matrix(1.00, 0.00, -0.00, -1.00, 753.8, 379.0)">u</text><text xml:space="preserve" font-family="Helvetica-Light,Helvetica" font-size="73.9" fill="#000000" transform="matrix(1.00, 0.00, -0.00, -1.00, 794.9, 379.0)">t</text><text xml:space="preserve" font-family="Helvetica-Light,Helvetica" font-size="73.9" fill="#000000" transform="matrix(1.00, 0.00, -0.00, -1.00, 815.4, 379.0)">a</text><text xml:space="preserve" font-family="Helvetica-Light,Helvetica" font-size="73.9" fill="#000000" transform="matrix(1.00, 0.00, -0.00, -1.00, 856.5, 379.0)">r</text><text xml:space="preserve" font-family="Helvetica-Light,Helvetica" font-size="73.9" fill="#000000" transform="matrix(1.00, 0.00, -0.00, -1.00, 879.8, 379.0)">d</text><text xml:space="preserve" font-family="Helvetica-Light,Helvetica" font-size="73.9" fill="#000000" transform="matrix(1.00, 0.00, -0.00, -1.00, 925.0, 379.0)">j</text><text xml:space="preserve" font-family="Helvetica-Light,Helvetica" font-size="73.9" fill="#000000" transform="matrix(1.00, 0.00, -0.00, -1.00, 941.4, 379.0)">a</text><text xml:space="preserve" font-family="Helvetica-Light,Helvetica" font-size="73.9" fill="#000000" transform="matrix(1.00, 0.00, -0.00, -1.00, 982.5, 379.0)">@</text><text xml:space="preserve" font-family="Helvetica-Light,Helvetica" font-size="73.9" fill="#000000" transform="matrix(1.00, 0.00, -0.00, -1.00, 1041.6, 379.0)">b</text><text xml:space="preserve" font-family="Helvetica-Light,Helvetica" font-size="73.9" fill="#000000" transform="matrix(1.00, 0.00, -0.00, -1.00, 1086.8, 379.0)">e</text><text xml:space="preserve" font-family="Helvetica-Light,Helvetica" font-size="73.9" fill="#000000" transform="matrix(1.00, 0.00, -0.00, -1.00, 1127.9, 379.0)">r</text><text xml:space="preserve" font-family="Helvetica-Light,Helvetica" font-size="73.9" fill="#000000" transform="matrix(1.00, 0.00, -0.00, -1.00, 1152.5, 379.0)">k</text><text xml:space="preserve" font-family="Helvetica-Light,Helvetica" font-size="73.9" fill="#000000" transform="matrix(1.00, 0.00, -0.00, -1.00, 1189.5, 379.0)">e</text><text xml:space="preserve" font-family="Helvetica-Light,Helvetica" font-size="73.9" fill="#000000" transform="matrix(1.00, 0.00, -0.00, -1.00, 1230.6, 379.0)">l</text><text xml:space="preserve" font-family="Helvetica-Light,Helvetica" font-size="73.9" fill="#000000" transform="matrix(1.00, 0.00, -0.00, -1.00, 1247.0, 379.0)">e</text><text xml:space="preserve" font-family="Helvetica-Light,Helvetica" font-size="73.9" fill="#000000" transform="matrix(1.00, 0.00, -0.00, -1.00, 1288.1, 379.0)">y</text><text xml:space="preserve" font-family="Helvetica-Light,Helvetica" font-size="73.9" fill="#000000" transform="matrix(1.00, 0.00, -0.00, -1.00, 1318.3, 379.0)">.</text><text xml:space="preserve" font-family="Helvetica-Light,Helvetica" font-size="73.9" fill="#000000" transform="matrix(1.00, 0.00, -0.00, -1.00, 1338.8, 379.0)">e</text><text xml:space="preserve" font-family="Helvetica-Light,Helvetica" font-size="73.9" fill="#000000" transform="matrix(1.00, 0.00, -0.00, -1.00, 1379.9, 379.0)">d</text><text xml:space="preserve" font-family="Helvetica-Light,Helvetica" font-size="73.9" fill="#000000" transform="matrix(1.00, 0.00, -0.00, -1.00, 1425.1, 379.0)">u</text><g><clipPath id="clip0x6080014a3180"><path d="M 452.8 370.6 L 1466.2 370.6 L 1466.2 376.3 L 452.8 376.3 Z M 452.8 370.6 "></path></clipPath><g clip-path="url(#clip0x6080014a3180)"><path d="M 313.8 349.5 L 1326.2 349.5 " fill="none" stroke="#000000" stroke-width="3.70" transform="matrix(1.00, 0.00, 0.00, -1.00, 140.0, 723.0)"></path></g></g></g></svg>