<?xml version="1.0" encoding="UTF-8" standalone="no"?><svg xmlns="http://www.w3.org/2000/svg" xmlns:xlink="http://www.w3.org/1999/xlink" clip-rule="evenodd" stroke-miterlimit="10" viewBox="0 0 1920 1080"><desc>SVG generated by Keynote</desc><defs><pattern id="E25023E3-C85B-4DA4-BBCA-3BA70DA36633" patternUnits="userSpaceOnUse" width="600" height="600" viewBox="0 0 600 600"><image xlink:href="../../B49DC77F-09BB-449C-9313-EC11A2C405DF/assets/C3C0FC898C94653CAF8AD846D6CCD108.png" width="600.00" height="600.00"></image></pattern></defs><g transform="matrix(1.00, 0.00, -0.00, -1.00, 0.0, 1080.0)"><path d="M 0.0 1080.0 L 1920.0 1080.0 L 1920.0 0.0 L 0.0 0.0 Z M 0.0 1080.0 " fill="#FEFFFF"></path><g><clipPath id="clip0x6000010a8dc0"><path d="M 676.8 100.2 L 1167.0 100.2 L 1167.0 451.3 L 676.8 451.3 Z M 676.8 100.2 "></path></clipPath><g clip-path="url(#clip0x6000010a8dc0)"><image xlink:href="../../3A4FEE44-229D-4996-997A-C893EC7515BC/assets/1BC8A8C37E0543003977F2E282DFD150.png" width="488.00" height="349.00" transform="matrix(1.00, 0.00, -0.00, -1.00, 677.8, 450.3)" opacity="0.50"></image></g></g><g><clipPath id="clip0x6000010a8b80"><path d="M 681.0 449.0 L 1163.0 449.0 L 1163.0 106.0 L 681.0 106.0 Z M 680.8 449.3 "></path></clipPath><g clip-path="url(#clip0x6000010a8b80)"><g><clipPath id="clip0x6000010a93c0"><path d="M 676.8 100.2 L 1167.0 100.2 L 1167.0 451.3 L 676.8 451.3 Z M 676.8 100.2 "></path></clipPath><g clip-path="url(#clip0x6000010a93c0)"><path d="M 681.0 106.0 L 1163.0 106.0 L 1163.0 449.0 L 681.0 449.0 Z M 681.0 106.0 " fill="url(#E25023E3-C85B-4DA4-BBCA-3BA70DA36633)"></path></g></g></g></g><g><clipPath id="clip0x608000cbe840"><path d="M 670.6 106.2 L 1173.3 106.2 L 1173.3 449.3 L 670.6 449.3 Z M 670.6 106.2 "></path></clipPath><g clip-path="url(#clip0x608000cbe840)"><text xml:space="preserve" font-family="Helvetica-Bold,Helvetica" font-weight="bold" font-size="57.0" fill="#FEFFFE" transform="matrix(1.00, 0.00, -0.00, -1.00, 785.8, 256.4)">F</text><text xml:space="preserve" font-family="Helvetica-Bold,Helvetica" font-weight="bold" font-size="57.0" fill="#FEFFFE" transform="matrix(1.00, 0.00, -0.00, -1.00, 820.6, 256.4)">o</text><text xml:space="preserve" font-family="Helvetica-Bold,Helvetica" font-weight="bold" font-size="57.0" fill="#FEFFFE" transform="matrix(1.00, 0.00, -0.00, -1.00, 855.4, 256.4)">o</text><text xml:space="preserve" font-family="Helvetica-Bold,Helvetica" font-weight="bold" font-size="57.0" fill="#FEFFFE" transform="matrix(1.00, 0.00, -0.00, -1.00, 890.2, 256.4)">d</text><text xml:space="preserve" font-family="Helvetica-Bold,Helvetica" font-weight="bold" font-size="57.0" fill="#FEFFFE" transform="matrix(1.00, 0.00, -0.00, -1.00, 925.0, 256.4)"> </text><text xml:space="preserve" font-family="Helvetica-Bold,Helvetica" font-weight="bold" font-size="57.0" fill="#FEFFFE" transform="matrix(1.00, 0.00, -0.00, -1.00, 940.8, 256.4)">I</text><text xml:space="preserve" font-family="Helvetica-Bold,Helvetica" font-weight="bold" font-size="57.0" fill="#FEFFFE" transform="matrix(1.00, 0.00, -0.00, -1.00, 956.6, 256.4)">t</text><text xml:space="preserve" font-family="Helvetica-Bold,Helvetica" font-weight="bold" font-size="57.0" fill="#FEFFFE" transform="matrix(1.00, 0.00, -0.00, -1.00, 975.6, 256.4)">e</text><text xml:space="preserve" font-family="Helvetica-Bold,Helvetica" font-weight="bold" font-size="57.0" fill="#FEFFFE" transform="matrix(1.00, 0.00, -0.00, -1.00, 1007.3, 256.4)">m</text></g></g><g><clipPath id="clip0x608000cbecc0"><path d="M 531.2 549.1 L 747.8 549.1 L 747.8 636.1 L 531.2 636.1 Z M 531.2 549.1 "></path></clipPath><g clip-path="url(#clip0x608000cbecc0)"><image xlink:href="../../3A4FEE44-229D-4996-997A-C893EC7515BC/assets/9C98F005609DA4DE2BE25CBAC376F576.png" width="215.00" height="85.00" transform="matrix(1.00, 0.00, -0.00, -1.00, 532.2, 635.1)" opacity="0.50"></image></g></g><g><clipPath id="clip0x6000010a9420"><path d="M 713.3 622.5 C 754.0 607.1 754.0 582.1 713.3 566.6 C 672.5 551.2 606.5 551.2 565.7 566.6 C 525.0 582.1 525.0 607.1 565.7 622.5 C 606.5 638.0 672.5 638.0 713.3 622.5 Z M 713.3 622.5 "></path></clipPath><g clip-path="url(#clip0x6000010a9420)"><g><clipPath id="clip0x6000010a9780"><path d="M 531.2 549.1 L 747.8 549.1 L 747.8 636.1 L 531.2 636.1 Z M 531.2 549.1 "></path></clipPath><g clip-path="url(#clip0x6000010a9780)"><image xlink:href="../../B49DC77F-09BB-449C-9313-EC11A2C405DF/assets/C3C0FC898C94653CAF8AD846D6CCD108.png" width="600.00" height="600.00" transform="matrix(0.50, 0.00, -0.00, -0.50, 535.2, 634.1)"></image></g></g></g></g><g><clipPath id="clip0x6000010a99c0"><path d="M 535.2 555.1 L 743.8 555.1 L 743.8 634.1 L 535.2 634.1 Z M 535.2 555.1 "></path></clipPath><g clip-path="url(#clip0x6000010a99c0)"><text xml:space="preserve" font-family="Helvetica-Light,Helvetica" font-size="32.0" fill="#FEFFFE" transform="matrix(1.00, 0.00, -0.00, -1.00, 586.2, 583.3)">f</text><text xml:space="preserve" font-family="Helvetica-Light,Helvetica" font-size="32.0" fill="#FEFFFE" transform="matrix(1.00, 0.00, -0.00, -1.00, 595.0, 583.3)">o</text><text xml:space="preserve" font-family="Helvetica-Light,Helvetica" font-size="32.0" fill="#FEFFFE" transform="matrix(1.00, 0.00, -0.00, -1.00, 612.8, 583.3)">o</text><text xml:space="preserve" font-family="Helvetica-Light,Helvetica" font-size="32.0" fill="#FEFFFE" transform="matrix(1.00, 0.00, -0.00, -1.00, 630.6, 583.3)">d</text><text xml:space="preserve" font-family="Helvetica-Light,Helvetica" font-size="32.0" fill="#FEFFFE" transform="matrix(1.00, 0.00, -0.00, -1.00, 650.2, 583.3)">_</text><text xml:space="preserve" font-family="Helvetica-Light,Helvetica" font-size="32.0" fill="#FEFFFE" transform="matrix(1.00, 0.00, -0.00, -1.00, 666.2, 583.3)">i</text><text xml:space="preserve" font-family="Helvetica-Light,Helvetica" font-size="32.0" fill="#FEFFFE" transform="matrix(1.00, 0.00, -0.00, -1.00, 673.3, 583.3)">d</text><path d="M 51.0 53.2 L 157.7 53.2 " fill="none" stroke="#FEFFFE" stroke-width="1.60" transform="matrix(1.00, 0.00, 0.00, -1.00, 535.2, 634.1)"></path></g></g><g><clipPath id="clip0x6000010a9f00"><path d="M 851.7 555.5 L 1068.3 555.5 L 1068.3 642.5 L 851.7 642.5 Z M 851.7 555.5 "></path></clipPath><g clip-path="url(#clip0x6000010a9f00)"><image xlink:href="../../3A4FEE44-229D-4996-997A-C893EC7515BC/assets/9C98F005609DA4DE2BE25CBAC376F576.png" width="215.00" height="85.00" transform="matrix(1.00, 0.00, -0.00, -1.00, 852.7, 641.5)" opacity="0.50"></image></g></g><g><clipPath id="clip0x608000cbef00"><path d="M 1033.8 628.9 C 1074.5 613.5 1074.5 588.5 1033.8 573.1 C 993.0 557.6 927.0 557.6 886.2 573.1 C 845.5 588.5 845.5 613.5 886.2 628.9 C 927.0 644.4 993.0 644.4 1033.8 628.9 Z M 1033.8 628.9 "></path></clipPath><g clip-path="url(#clip0x608000cbef00)"><g><clipPath id="clip0x608000cbf080"><path d="M 851.7 555.5 L 1068.3 555.5 L 1068.3 642.5 L 851.7 642.5 Z M 851.7 555.5 "></path></clipPath><g clip-path="url(#clip0x608000cbf080)"><image xlink:href="../../B49DC77F-09BB-449C-9313-EC11A2C405DF/assets/C3C0FC898C94653CAF8AD846D6CCD108.png" width="600.00" height="600.00" transform="matrix(0.50, 0.00, -0.00, -0.50, 855.7, 640.5)"></image></g></g></g></g><g><clipPath id="clip0x608000cbf0e0"><path d="M 855.7 561.5 L 1064.3 561.5 L 1064.3 640.5 L 855.7 640.5 Z M 855.7 561.5 "></path></clipPath><g clip-path="url(#clip0x608000cbf0e0)"><text xml:space="preserve" font-family="Helvetica-Light,Helvetica" font-size="32.0" fill="#FEFFFE" transform="matrix(1.00, 0.00, -0.00, -1.00, 920.0, 589.3)">n</text><text xml:space="preserve" font-family="Helvetica-Light,Helvetica" font-size="32.0" fill="#FEFFFE" transform="matrix(1.00, 0.00, -0.00, -1.00, 937.8, 589.3)">a</text><text xml:space="preserve" font-family="Helvetica-Light,Helvetica" font-size="32.0" fill="#FEFFFE" transform="matrix(1.00, 0.00, -0.00, -1.00, 955.6, 589.3)">m</text><text xml:space="preserve" font-family="Helvetica-Light,Helvetica" font-size="32.0" fill="#FEFFFE" transform="matrix(1.00, 0.00, -0.00, -1.00, 982.2, 589.3)">e</text></g></g><g><clipPath id="clip0x608000cbf620"><path d="M 1172.2 549.1 L 1388.8 549.1 L 1388.8 636.1 L 1172.2 636.1 Z M 1172.2 549.1 "></path></clipPath><g clip-path="url(#clip0x608000cbf620)"><image xlink:href="../../3A4FEE44-229D-4996-997A-C893EC7515BC/assets/9C98F005609DA4DE2BE25CBAC376F576.png" width="215.00" height="85.00" transform="matrix(1.00, 0.00, -0.00, -1.00, 1173.2, 635.1)" opacity="0.50"></image></g></g><g><clipPath id="clip0x608000cbf680"><path d="M 1354.3 622.5 C 1395.0 607.1 1395.0 582.1 1354.3 566.6 C 1313.5 551.2 1247.5 551.2 1206.7 566.6 C 1166.0 582.1 1166.0 607.1 1206.7 622.5 C 1247.5 638.0 1313.5 638.0 1354.3 622.5 Z M 1354.3 622.5 "></path></clipPath><g clip-path="url(#clip0x608000cbf680)"><g><clipPath id="clip0x608000cbf9e0"><path d="M 1172.2 549.1 L 1388.8 549.1 L 1388.8 636.1 L 1172.2 636.1 Z M 1172.2 549.1 "></path></clipPath><g clip-path="url(#clip0x608000cbf9e0)"><image xlink:href="../../B49DC77F-09BB-449C-9313-EC11A2C405DF/assets/C3C0FC898C94653CAF8AD846D6CCD108.png" width="600.00" height="600.00" transform="matrix(0.50, 0.00, -0.00, -0.50, 1176.2, 634.1)"></image></g></g></g></g><g><clipPath id="clip0x6000010a9f60"><path d="M 1176.2 555.1 L 1384.8 555.1 L 1384.8 634.1 L 1176.2 634.1 Z M 1176.2 555.1 "></path></clipPath><g clip-path="url(#clip0x6000010a9f60)"><text xml:space="preserve" font-family="Helvetica-Light,Helvetica" font-size="32.0" fill="#FEFFFE" transform="matrix(1.00, 0.00, -0.00, -1.00, 1241.4, 582.6)">ﬂ</text><text xml:space="preserve" font-family="Helvetica-Light,Helvetica" font-size="32.0" fill="#FEFFFE" transform="matrix(1.00, 0.00, -0.00, -1.00, 1257.4, 582.6)">a</text><text xml:space="preserve" font-family="Helvetica-Light,Helvetica" font-size="32.0" fill="#FEFFFE" transform="matrix(1.00, 0.00, -0.00, -1.00, 1275.2, 582.6)">v</text><text xml:space="preserve" font-family="Helvetica-Light,Helvetica" font-size="32.0" fill="#FEFFFE" transform="matrix(1.00, 0.00, -0.00, -1.00, 1291.2, 582.6)">o</text><text xml:space="preserve" font-family="Helvetica-Light,Helvetica" font-size="32.0" fill="#FEFFFE" transform="matrix(1.00, 0.00, -0.00, -1.00, 1309.0, 582.6)">r</text></g></g><g><clipPath id="clip0x6000010aa500"><path d="M 698.2 467.6 L 642.4 540.7 L 645.5 543.2 L 701.4 470.0 Z M 698.2 467.6 "></path></clipPath><g clip-path="url(#clip0x6000010aa500)"><path d="M 0.0 0.0 L 90.1 0.0 " fill="none" stroke="#000000" stroke-width="2.00" transform="matrix(-0.61, 0.79, 0.79, 0.61, 699.2, 469.6)"></path></g></g><g><clipPath id="clip0x6000010aa740"><path d="M 1160.4 461.8 L 1250.3 551.8 L 1253.1 548.9 L 1163.2 459.0 Z M 1160.4 461.8 "></path></clipPath><g clip-path="url(#clip0x6000010aa740)"><path d="M 0.0 0.0 L 125.2 0.0 " fill="none" stroke="#000000" stroke-width="2.00" transform="matrix(0.71, 0.71, 0.71, -0.71, 1162.5, 461.1)"></path></g></g><g><clipPath id="clip0x6000010aa980"><path d="M 955.3 461.9 L 955.3 548.9 L 959.3 548.9 L 959.3 461.9 Z M 955.3 461.9 "></path></clipPath><g clip-path="url(#clip0x6000010aa980)"><path d="M 0.1 -0.3 L 85.1 -0.3 " fill="none" stroke="#000000" stroke-width="2.00" transform="matrix(0.00, 1.00, 1.00, 0.00, 957.3, 462.9)"></path></g></g><g><clipPath id="clip0x6000010aabc0"><path d="M 237.0 974.0 L 1749.4 974.0 L 1749.4 718.2 L 237.0 718.2 Z M 237.0 974.0 "></path></clipPath><g clip-path="url(#clip0x6000010aabc0)"><path d="M 237.0 974.0 L 590.8 974.0 L 590.8 910.1 L 237.0 910.1 Z M 237.0 974.0 " fill="#0264C0"></path><path d="M 590.8 974.0 L 1015.1 974.0 L 1015.1 910.1 L 590.8 910.1 Z M 590.8 974.0 " fill="#0264C0"></path><path d="M 1015.1 974.0 L 1749.4 974.0 L 1749.4 910.1 L 1015.1 910.1 Z M 1015.1 974.0 " fill="#0264C0"></path><path d="M 237.0 910.1 L 590.8 910.1 L 590.8 846.1 L 237.0 846.1 Z M 237.0 910.1 " fill="#FEFFFE"></path><path d="M 590.8 910.1 L 1015.1 910.1 L 1015.1 846.1 L 590.8 846.1 Z M 590.8 910.1 " fill="#FEFFFE"></path><path d="M 1015.1 910.1 L 1749.4 910.1 L 1749.4 846.1 L 1015.1 846.1 Z M 1015.1 910.1 " fill="#FEFFFE"></path><path d="M 237.0 846.1 L 590.8 846.1 L 590.8 782.2 L 237.0 782.2 Z M 237.0 846.1 " fill="#DCDDE0"></path><path d="M 590.8 846.1 L 1015.1 846.1 L 1015.1 782.2 L 590.8 782.2 Z M 590.8 846.1 " fill="#DCDDE0"></path><path d="M 1015.1 846.1 L 1749.4 846.1 L 1749.4 782.2 L 1015.1 782.2 Z M 1015.1 846.1 " fill="#DCDDE0"></path><path d="M 237.0 782.2 L 590.8 782.2 L 590.8 718.2 L 237.0 718.2 Z M 237.0 782.2 " fill="#FEFFFE"></path><path d="M 590.8 782.2 L 1015.1 782.2 L 1015.1 718.2 L 590.8 718.2 Z M 590.8 782.2 " fill="#FEFFFE"></path><path d="M 1015.1 782.2 L 1749.4 782.2 L 1749.4 718.2 L 1015.1 718.2 Z M 1015.1 782.2 " fill="#FEFFFE"></path></g></g><g><clipPath id="clip0x6000010ab340"><path d="M 237.0 974.0 L 1749.4 974.0 L 1749.4 718.2 L 237.0 718.2 Z M 237.0 974.0 "></path></clipPath><g clip-path="url(#clip0x6000010ab340)"><g><clipPath id="clip0x6000010ab4c0"><path d="M 237.0 910.6 L 590.8 910.6 L 590.8 974.0 L 237.0 974.0 Z M 237.0 910.6 "></path></clipPath><g clip-path="url(#clip0x6000010ab4c0)"><text xml:space="preserve" font-family="Helvetica-Bold,Helvetica" font-weight="bold" font-size="36.0" fill="#FEFFFE" transform="matrix(1.00, 0.00, -0.00, -1.00, 348.9, 929.3)">f</text><text xml:space="preserve" font-family="Helvetica-Bold,Helvetica" font-weight="bold" font-size="36.0" fill="#FEFFFE" transform="matrix(1.00, 0.00, -0.00, -1.00, 360.9, 929.3)">o</text><text xml:space="preserve" font-family="Helvetica-Bold,Helvetica" font-weight="bold" font-size="36.0" fill="#FEFFFE" transform="matrix(1.00, 0.00, -0.00, -1.00, 382.9, 929.3)">o</text><text xml:space="preserve" font-family="Helvetica-Bold,Helvetica" font-weight="bold" font-size="36.0" fill="#FEFFFE" transform="matrix(1.00, 0.00, -0.00, -1.00, 404.8, 929.3)">d</text><text xml:space="preserve" font-family="Helvetica-Bold,Helvetica" font-weight="bold" font-size="36.0" fill="#FEFFFE" transform="matrix(1.00, 0.00, -0.00, -1.00, 426.8, 929.3)">_</text><text xml:space="preserve" font-family="Helvetica-Bold,Helvetica" font-weight="bold" font-size="36.0" fill="#FEFFFE" transform="matrix(1.00, 0.00, -0.00, -1.00, 446.9, 929.3)">i</text><text xml:space="preserve" font-family="Helvetica-Bold,Helvetica" font-weight="bold" font-size="36.0" fill="#FEFFFE" transform="matrix(1.00, 0.00, -0.00, -1.00, 456.9, 929.3)">d</text></g></g></g></g><g><clipPath id="clip0x6000010ab940"><path d="M 237.0 974.0 L 1749.4 974.0 L 1749.4 718.2 L 237.0 718.2 Z M 237.0 974.0 "></path></clipPath><g clip-path="url(#clip0x6000010ab940)"><g><clipPath id="clip0x6000010abac0"><path d="M 590.8 910.6 L 1015.1 910.6 L 1015.1 974.0 L 590.8 974.0 Z M 590.8 910.6 "></path></clipPath><g clip-path="url(#clip0x6000010abac0)"><text xml:space="preserve" font-family="Helvetica-Bold,Helvetica" font-weight="bold" font-size="36.0" fill="#FEFFFE" transform="matrix(1.00, 0.00, -0.00, -1.00, 755.9, 929.3)">n</text><text xml:space="preserve" font-family="Helvetica-Bold,Helvetica" font-weight="bold" font-size="36.0" fill="#FEFFFE" transform="matrix(1.00, 0.00, -0.00, -1.00, 777.9, 929.3)">a</text><text xml:space="preserve" font-family="Helvetica-Bold,Helvetica" font-weight="bold" font-size="36.0" fill="#FEFFFE" transform="matrix(1.00, 0.00, -0.00, -1.00, 797.9, 929.3)">m</text><text xml:space="preserve" font-family="Helvetica-Bold,Helvetica" font-weight="bold" font-size="36.0" fill="#FEFFFE" transform="matrix(1.00, 0.00, -0.00, -1.00, 829.9, 929.3)">e</text></g></g></g></g><g><clipPath id="clip0x6000010abe20"><path d="M 237.0 974.0 L 1749.4 974.0 L 1749.4 718.2 L 237.0 718.2 Z M 237.0 974.0 "></path></clipPath><g clip-path="url(#clip0x6000010abe20)"><g><clipPath id="clip0x6000010abfa0"><path d="M 1015.1 910.6 L 1749.4 910.6 L 1749.4 974.0 L 1015.1 974.0 Z M 1015.1 910.6 "></path></clipPath><g clip-path="url(#clip0x6000010abfa0)"><text xml:space="preserve" font-family="Helvetica-Bold,Helvetica" font-weight="bold" font-size="36.0" fill="#FEFFFE" transform="matrix(1.00, 0.00, -0.00, -1.00, 1333.2, 929.3)">ﬂ</text><text xml:space="preserve" font-family="Helvetica-Bold,Helvetica" font-weight="bold" font-size="36.0" fill="#FEFFFE" transform="matrix(1.00, 0.00, -0.00, -1.00, 1355.2, 929.3)">a</text><text xml:space="preserve" font-family="Helvetica-Bold,Helvetica" font-weight="bold" font-size="36.0" fill="#FEFFFE" transform="matrix(1.00, 0.00, -0.00, -1.00, 1375.2, 929.3)">v</text><text xml:space="preserve" font-family="Helvetica-Bold,Helvetica" font-weight="bold" font-size="36.0" fill="#FEFFFE" transform="matrix(1.00, 0.00, -0.00, -1.00, 1395.2, 929.3)">o</text><text xml:space="preserve" font-family="Helvetica-Bold,Helvetica" font-weight="bold" font-size="36.0" fill="#FEFFFE" transform="matrix(1.00, 0.00, -0.00, -1.00, 1417.2, 929.3)">r</text></g></g></g></g><g><clipPath id="clip0x6000010ac360"><path d="M 237.0 974.0 L 1749.4 974.0 L 1749.4 718.2 L 237.0 718.2 Z M 237.0 974.0 "></path></clipPath><g clip-path="url(#clip0x6000010ac360)"><g><clipPath id="clip0x6000010ac4e0"><path d="M 237.0 846.1 L 590.8 846.1 L 590.8 909.6 L 237.0 909.6 Z M 237.0 846.1 "></path></clipPath><g clip-path="url(#clip0x6000010ac4e0)"><text xml:space="preserve" font-family="Helvetica-Light,Helvetica" font-size="36.0" fill="#000000" transform="matrix(1.00, 0.00, -0.00, -1.00, 403.9, 864.8)">1</text></g></g></g></g><g><clipPath id="clip0x6000010ac720"><path d="M 237.0 974.0 L 1749.4 974.0 L 1749.4 718.2 L 237.0 718.2 Z M 237.0 974.0 "></path></clipPath><g clip-path="url(#clip0x6000010ac720)"><g><clipPath id="clip0x6000010ac8a0"><path d="M 590.8 846.1 L 1015.1 846.1 L 1015.1 909.6 L 590.8 909.6 Z M 590.8 846.1 "></path></clipPath><g clip-path="url(#clip0x6000010ac8a0)"><text xml:space="preserve" font-family="Helvetica-Light,Helvetica" font-size="36.0" fill="#000000" transform="matrix(1.00, 0.00, -0.00, -1.00, 677.2, 864.8)">M</text><text xml:space="preserve" font-family="Helvetica-Light,Helvetica" font-size="36.0" fill="#000000" transform="matrix(1.00, 0.00, -0.00, -1.00, 707.2, 864.8)">a</text><text xml:space="preserve" font-family="Helvetica-Light,Helvetica" font-size="36.0" fill="#000000" transform="matrix(1.00, 0.00, -0.00, -1.00, 727.2, 864.8)">c</text><text xml:space="preserve" font-family="Helvetica-Light,Helvetica" font-size="36.0" fill="#000000" transform="matrix(1.00, 0.00, -0.00, -1.00, 747.2, 864.8)">a</text><text xml:space="preserve" font-family="Helvetica-Light,Helvetica" font-size="36.0" fill="#000000" transform="matrix(1.00, 0.00, -0.00, -1.00, 767.3, 864.8)">r</text><text xml:space="preserve" font-family="Helvetica-Light,Helvetica" font-size="36.0" fill="#000000" transform="matrix(1.00, 0.00, -0.00, -1.00, 778.6, 864.8)">o</text><text xml:space="preserve" font-family="Helvetica-Light,Helvetica" font-size="36.0" fill="#000000" transform="matrix(1.00, 0.00, -0.00, -1.00, 798.6, 864.8)">n</text><text xml:space="preserve" font-family="Helvetica-Light,Helvetica" font-size="36.0" fill="#000000" transform="matrix(1.00, 0.00, -0.00, -1.00, 818.6, 864.8)">i</text><text xml:space="preserve" font-family="Helvetica-Light,Helvetica" font-size="36.0" fill="#000000" transform="matrix(1.00, 0.00, -0.00, -1.00, 826.6, 864.8)"> </text><text xml:space="preserve" font-family="Helvetica-Light,Helvetica" font-size="36.0" fill="#000000" transform="matrix(1.00, 0.00, -0.00, -1.00, 836.6, 864.8)">s</text><text xml:space="preserve" font-family="Helvetica-Light,Helvetica" font-size="36.0" fill="#000000" transform="matrix(1.00, 0.00, -0.00, -1.00, 854.6, 864.8)">h</text><text xml:space="preserve" font-family="Helvetica-Light,Helvetica" font-size="36.0" fill="#000000" transform="matrix(1.00, 0.00, -0.00, -1.00, 874.6, 864.8)">e</text><text xml:space="preserve" font-family="Helvetica-Light,Helvetica" font-size="36.0" fill="#000000" transform="matrix(1.00, 0.00, -0.00, -1.00, 894.7, 864.8)">l</text><text xml:space="preserve" font-family="Helvetica-Light,Helvetica" font-size="36.0" fill="#000000" transform="matrix(1.00, 0.00, -0.00, -1.00, 902.6, 864.8)">l</text><text xml:space="preserve" font-family="Helvetica-Light,Helvetica" font-size="36.0" fill="#000000" transform="matrix(1.00, 0.00, -0.00, -1.00, 910.6, 864.8)">s</text></g></g></g></g><g><clipPath id="clip0x6000010ad020"><path d="M 237.0 974.0 L 1749.4 974.0 L 1749.4 718.2 L 237.0 718.2 Z M 237.0 974.0 "></path></clipPath><g clip-path="url(#clip0x6000010ad020)"><g><clipPath id="clip0x6000010ad1a0"><path d="M 1015.1 846.1 L 1749.4 846.1 L 1749.4 909.6 L 1015.1 909.6 Z M 1015.1 846.1 "></path></clipPath><g clip-path="url(#clip0x6000010ad1a0)"><text xml:space="preserve" font-family="Helvetica-Light,Helvetica" font-size="36.0" fill="#000000" transform="matrix(1.00, 0.00, -0.00, -1.00, 1335.2, 864.8)">B</text><text xml:space="preserve" font-family="Helvetica-Light,Helvetica" font-size="36.0" fill="#000000" transform="matrix(1.00, 0.00, -0.00, -1.00, 1359.2, 864.8)">l</text><text xml:space="preserve" font-family="Helvetica-Light,Helvetica" font-size="36.0" fill="#000000" transform="matrix(1.00, 0.00, -0.00, -1.00, 1367.2, 864.8)">a</text><text xml:space="preserve" font-family="Helvetica-Light,Helvetica" font-size="36.0" fill="#000000" transform="matrix(1.00, 0.00, -0.00, -1.00, 1387.2, 864.8)">n</text><text xml:space="preserve" font-family="Helvetica-Light,Helvetica" font-size="36.0" fill="#000000" transform="matrix(1.00, 0.00, -0.00, -1.00, 1407.2, 864.8)">d</text></g></g></g></g><g><clipPath id="clip0x6000010ad560"><path d="M 237.0 974.0 L 1749.4 974.0 L 1749.4 718.2 L 237.0 718.2 Z M 237.0 974.0 "></path></clipPath><g clip-path="url(#clip0x6000010ad560)"><g><clipPath id="clip0x6000010ad6e0"><path d="M 237.0 782.2 L 590.8 782.2 L 590.8 846.1 L 237.0 846.1 Z M 237.0 782.2 "></path></clipPath><g clip-path="url(#clip0x6000010ad6e0)"><text xml:space="preserve" font-family="Helvetica-Light,Helvetica" font-size="36.0" fill="#000000" transform="matrix(1.00, 0.00, -0.00, -1.00, 403.9, 800.4)">2</text></g></g></g></g><g><clipPath id="clip0x6000010ad920"><path d="M 237.0 974.0 L 1749.4 974.0 L 1749.4 718.2 L 237.0 718.2 Z M 237.0 974.0 "></path></clipPath><g clip-path="url(#clip0x6000010ad920)"><g><clipPath id="clip0x6000010adaa0"><path d="M 590.8 782.2 L 1015.1 782.2 L 1015.1 846.1 L 590.8 846.1 Z M 590.8 782.2 "></path></clipPath><g clip-path="url(#clip0x6000010adaa0)"><text xml:space="preserve" font-family="Helvetica-Light,Helvetica" font-size="36.0" fill="#000000" transform="matrix(1.00, 0.00, -0.00, -1.00, 677.9, 800.4)">U</text><text xml:space="preserve" font-family="Helvetica-Light,Helvetica" font-size="36.0" fill="#000000" transform="matrix(1.00, 0.00, -0.00, -1.00, 703.9, 800.4)">n</text><text xml:space="preserve" font-family="Helvetica-Light,Helvetica" font-size="36.0" fill="#000000" transform="matrix(1.00, 0.00, -0.00, -1.00, 723.9, 800.4)">s</text><text xml:space="preserve" font-family="Helvetica-Light,Helvetica" font-size="36.0" fill="#000000" transform="matrix(1.00, 0.00, -0.00, -1.00, 741.9, 800.4)">a</text><text xml:space="preserve" font-family="Helvetica-Light,Helvetica" font-size="36.0" fill="#000000" transform="matrix(1.00, 0.00, -0.00, -1.00, 761.9, 800.4)">l</text><text xml:space="preserve" font-family="Helvetica-Light,Helvetica" font-size="36.0" fill="#000000" transform="matrix(1.00, 0.00, -0.00, -1.00, 769.9, 800.4)">t</text><text xml:space="preserve" font-family="Helvetica-Light,Helvetica" font-size="36.0" fill="#000000" transform="matrix(1.00, 0.00, -0.00, -1.00, 779.9, 800.4)">e</text><text xml:space="preserve" font-family="Helvetica-Light,Helvetica" font-size="36.0" fill="#000000" transform="matrix(1.00, 0.00, -0.00, -1.00, 799.9, 800.4)">d</text><text xml:space="preserve" font-family="Helvetica-Light,Helvetica" font-size="36.0" fill="#000000" transform="matrix(1.00, 0.00, -0.00, -1.00, 821.9, 800.4)"> </text><text xml:space="preserve" font-family="Helvetica-Light,Helvetica" font-size="36.0" fill="#000000" transform="matrix(1.00, 0.00, -0.00, -1.00, 831.9, 800.4)">B</text><text xml:space="preserve" font-family="Helvetica-Light,Helvetica" font-size="36.0" fill="#000000" transform="matrix(1.00, 0.00, -0.00, -1.00, 855.9, 800.4)">u</text><text xml:space="preserve" font-family="Helvetica-Light,Helvetica" font-size="36.0" fill="#000000" transform="matrix(1.00, 0.00, -0.00, -1.00, 876.0, 800.4)">t</text><text xml:space="preserve" font-family="Helvetica-Light,Helvetica" font-size="36.0" fill="#000000" transform="matrix(1.00, 0.00, -0.00, -1.00, 886.0, 800.4)">t</text><text xml:space="preserve" font-family="Helvetica-Light,Helvetica" font-size="36.0" fill="#000000" transform="matrix(1.00, 0.00, -0.00, -1.00, 896.0, 800.4)">e</text><text xml:space="preserve" font-family="Helvetica-Light,Helvetica" font-size="36.0" fill="#000000" transform="matrix(1.00, 0.00, -0.00, -1.00, 916.0, 800.4)">r</text></g></g></g></g><g><clipPath id="clip0x6000010ae220"><path d="M 237.0 974.0 L 1749.4 974.0 L 1749.4 718.2 L 237.0 718.2 Z M 237.0 974.0 "></path></clipPath><g clip-path="url(#clip0x6000010ae220)"><g><clipPath id="clip0x6000010ae3a0"><path d="M 1015.1 782.2 L 1749.4 782.2 L 1749.4 846.1 L 1015.1 846.1 Z M 1015.1 782.2 "></path></clipPath><g clip-path="url(#clip0x6000010ae3a0)"><text xml:space="preserve" font-family="Helvetica-Light,Helvetica" font-size="36.0" fill="#000000" transform="matrix(1.00, 0.00, -0.00, -1.00, 1320.2, 800.4)">B</text><text xml:space="preserve" font-family="Helvetica-Light,Helvetica" font-size="36.0" fill="#000000" transform="matrix(1.00, 0.00, -0.00, -1.00, 1344.2, 800.4)">u</text><text xml:space="preserve" font-family="Helvetica-Light,Helvetica" font-size="36.0" fill="#000000" transform="matrix(1.00, 0.00, -0.00, -1.00, 1364.2, 800.4)">t</text><text xml:space="preserve" font-family="Helvetica-Light,Helvetica" font-size="36.0" fill="#000000" transform="matrix(1.00, 0.00, -0.00, -1.00, 1374.2, 800.4)">t</text><text xml:space="preserve" font-family="Helvetica-Light,Helvetica" font-size="36.0" fill="#000000" transform="matrix(1.00, 0.00, -0.00, -1.00, 1384.2, 800.4)">e</text><text xml:space="preserve" font-family="Helvetica-Light,Helvetica" font-size="36.0" fill="#000000" transform="matrix(1.00, 0.00, -0.00, -1.00, 1404.3, 800.4)">r</text><text xml:space="preserve" font-family="Helvetica-Light,Helvetica" font-size="36.0" fill="#000000" transform="matrix(1.00, 0.00, -0.00, -1.00, 1414.3, 800.4)">-</text><text xml:space="preserve" font-family="Helvetica-Light,Helvetica" font-size="36.0" fill="#000000" transform="matrix(1.00, 0.00, -0.00, -1.00, 1426.3, 800.4)">y</text></g></g></g></g><g><clipPath id="clip0x6000010ae880"><path d="M 237.0 974.0 L 1749.4 974.0 L 1749.4 718.2 L 237.0 718.2 Z M 237.0 974.0 "></path></clipPath><g clip-path="url(#clip0x6000010ae880)"><g><clipPath id="clip0x6000010aea00"><path d="M 237.0 718.2 L 590.8 718.2 L 590.8 782.2 L 237.0 782.2 Z M 237.0 718.2 "></path></clipPath><g clip-path="url(#clip0x6000010aea00)"><text xml:space="preserve" font-family="Helvetica-Light,Helvetica" font-size="36.0" fill="#000000" transform="matrix(1.00, 0.00, -0.00, -1.00, 403.9, 736.5)">3</text></g></g></g></g><g><clipPath id="clip0x6000010aec40"><path d="M 237.0 974.0 L 1749.4 974.0 L 1749.4 718.2 L 237.0 718.2 Z M 237.0 974.0 "></path></clipPath><g clip-path="url(#clip0x6000010aec40)"><g><clipPath id="clip0x6000010aedc0"><path d="M 590.8 718.2 L 1015.1 718.2 L 1015.1 782.2 L 590.8 782.2 Z M 590.8 718.2 "></path></clipPath><g clip-path="url(#clip0x6000010aedc0)"><text xml:space="preserve" font-family="Helvetica-Light,Helvetica" font-size="36.0" fill="#000000" transform="matrix(1.00, 0.00, -0.00, -1.00, 715.9, 736.5)">W</text><text xml:space="preserve" font-family="Helvetica-Light,Helvetica" font-size="36.0" fill="#000000" transform="matrix(1.00, 0.00, -0.00, -1.00, 747.9, 736.5)">h</text><text xml:space="preserve" font-family="Helvetica-Light,Helvetica" font-size="36.0" fill="#000000" transform="matrix(1.00, 0.00, -0.00, -1.00, 767.9, 736.5)">o</text><text xml:space="preserve" font-family="Helvetica-Light,Helvetica" font-size="36.0" fill="#000000" transform="matrix(1.00, 0.00, -0.00, -1.00, 788.0, 736.5)">l</text><text xml:space="preserve" font-family="Helvetica-Light,Helvetica" font-size="36.0" fill="#000000" transform="matrix(1.00, 0.00, -0.00, -1.00, 795.9, 736.5)">e</text><text xml:space="preserve" font-family="Helvetica-Light,Helvetica" font-size="36.0" fill="#000000" transform="matrix(1.00, 0.00, -0.00, -1.00, 816.0, 736.5)"> </text><text xml:space="preserve" font-family="Helvetica-Light,Helvetica" font-size="36.0" fill="#000000" transform="matrix(1.00, 0.00, -0.00, -1.00, 826.0, 736.5)">M</text><text xml:space="preserve" font-family="Helvetica-Light,Helvetica" font-size="36.0" fill="#000000" transform="matrix(1.00, 0.00, -0.00, -1.00, 856.0, 736.5)">i</text><text xml:space="preserve" font-family="Helvetica-Light,Helvetica" font-size="36.0" fill="#000000" transform="matrix(1.00, 0.00, -0.00, -1.00, 863.9, 736.5)">l</text><text xml:space="preserve" font-family="Helvetica-Light,Helvetica" font-size="36.0" fill="#000000" transform="matrix(1.00, 0.00, -0.00, -1.00, 871.9, 736.5)">k</text></g></g></g></g><g><clipPath id="clip0x6000010af360"><path d="M 237.0 974.0 L 1749.4 974.0 L 1749.4 718.2 L 237.0 718.2 Z M 237.0 974.0 "></path></clipPath><g clip-path="url(#clip0x6000010af360)"><g><clipPath id="clip0x6000010af4e0"><path d="M 1015.1 718.2 L 1749.4 718.2 L 1749.4 782.2 L 1015.1 782.2 Z M 1015.1 718.2 "></path></clipPath><g clip-path="url(#clip0x6000010af4e0)"><text xml:space="preserve" font-family="Helvetica-Light,Helvetica" font-size="36.0" fill="#000000" transform="matrix(1.00, 0.00, -0.00, -1.00, 1341.2, 736.5)">M</text><text xml:space="preserve" font-family="Helvetica-Light,Helvetica" font-size="36.0" fill="#000000" transform="matrix(1.00, 0.00, -0.00, -1.00, 1371.2, 736.5)">i</text><text xml:space="preserve" font-family="Helvetica-Light,Helvetica" font-size="36.0" fill="#000000" transform="matrix(1.00, 0.00, -0.00, -1.00, 1379.2, 736.5)">l</text><text xml:space="preserve" font-family="Helvetica-Light,Helvetica" font-size="36.0" fill="#000000" transform="matrix(1.00, 0.00, -0.00, -1.00, 1387.2, 736.5)">k</text><text xml:space="preserve" font-family="Helvetica-Light,Helvetica" font-size="36.0" fill="#000000" transform="matrix(1.00, 0.00, -0.00, -1.00, 1405.2, 736.5)">y</text></g></g></g></g></g></svg>