<?xml version="1.0" encoding="UTF-8" standalone="no"?><svg xmlns="http://www.w3.org/2000/svg" xmlns:xlink="http://www.w3.org/1999/xlink" clip-rule="evenodd" stroke-miterlimit="10" viewBox="0 0 1920 1080"><desc>SVG generated by Keynote</desc><defs></defs><g transform="matrix(1.00, 0.00, -0.00, -1.00, 0.0, 1080.0)"><path d="M 0.0 1080.0 L 1920.0 1080.0 L 1920.0 0.0 L 0.0 0.0 Z M 0.0 1080.0 " fill="#FEFFFF"></path><text xml:space="preserve" font-family="Helvetica-Light,Helvetica" font-size="112.0" fill="#000000" transform="matrix(1.00, 0.00, -0.00, -1.00, 368.8, 498.8)">A</text><text xml:space="preserve" font-family="Helvetica-Light,Helvetica" font-size="112.0" fill="#000000" transform="matrix(1.00, 0.00, -0.00, -1.00, 443.5, 498.8)"> </text><text xml:space="preserve" font-family="Helvetica-Light,Helvetica" font-size="112.0" fill="#000000" transform="matrix(1.00, 0.00, -0.00, -1.00, 474.6, 498.8)">b</text><text xml:space="preserve" font-family="Helvetica-Light,Helvetica" font-size="112.0" fill="#000000" transform="matrix(1.00, 0.00, -0.00, -1.00, 543.0, 498.8)">r</text><text xml:space="preserve" font-family="Helvetica-Light,Helvetica" font-size="112.0" fill="#000000" transform="matrix(1.00, 0.00, -0.00, -1.00, 580.3, 498.8)">i</text><text xml:space="preserve" font-family="Helvetica-Light,Helvetica" font-size="112.0" fill="#000000" transform="matrix(1.00, 0.00, -0.00, -1.00, 605.2, 498.8)">e</text><text xml:space="preserve" font-family="Helvetica-Light,Helvetica" font-size="112.0" fill="#000000" transform="matrix(1.00, 0.00, -0.00, -1.00, 667.5, 498.8)">f</text><text xml:space="preserve" font-family="Helvetica-Light,Helvetica" font-size="112.0" fill="#000000" transform="matrix(1.00, 0.00, -0.00, -1.00, 698.6, 498.8)"> </text><text xml:space="preserve" font-family="Helvetica-Light,Helvetica" font-size="112.0" fill="#000000" transform="matrix(1.00, 0.00, -0.00, -1.00, 729.7, 498.8)">o</text><text xml:space="preserve" font-family="Helvetica-Light,Helvetica" font-size="112.0" fill="#000000" transform="matrix(1.00, 0.00, -0.00, -1.00, 792.0, 498.8)">v</text><text xml:space="preserve" font-family="Helvetica-Light,Helvetica" font-size="112.0" fill="#000000" transform="matrix(1.00, 0.00, -0.00, -1.00, 848.0, 498.8)">e</text><text xml:space="preserve" font-family="Helvetica-Light,Helvetica" font-size="112.0" fill="#000000" transform="matrix(1.00, 0.00, -0.00, -1.00, 910.3, 498.8)">r</text><text xml:space="preserve" font-family="Helvetica-Light,Helvetica" font-size="112.0" fill="#000000" transform="matrix(1.00, 0.00, -0.00, -1.00, 947.6, 498.8)">v</text><text xml:space="preserve" font-family="Helvetica-Light,Helvetica" font-size="112.0" fill="#000000" transform="matrix(1.00, 0.00, -0.00, -1.00, 1003.6, 498.8)">i</text><text xml:space="preserve" font-family="Helvetica-Light,Helvetica" font-size="112.0" fill="#000000" transform="matrix(1.00, 0.00, -0.00, -1.00, 1028.4, 498.8)">e</text><text xml:space="preserve" font-family="Helvetica-Light,Helvetica" font-size="112.0" fill="#000000" transform="matrix(1.00, 0.00, -0.00, -1.00, 1090.7, 498.8)">w</text><text xml:space="preserve" font-family="Helvetica-Light,Helvetica" font-size="112.0" fill="#000000" transform="matrix(1.00, 0.00, -0.00, -1.00, 1171.6, 498.8)"> </text><text xml:space="preserve" font-family="Helvetica-Light,Helvetica" font-size="112.0" fill="#000000" transform="matrix(1.00, 0.00, -0.00, -1.00, 1202.7, 498.8)">o</text><text xml:space="preserve" font-family="Helvetica-Light,Helvetica" font-size="112.0" fill="#000000" transform="matrix(1.00, 0.00, -0.00, -1.00, 1265.0, 498.8)">f</text><text xml:space="preserve" font-family="Helvetica-Light,Helvetica" font-size="112.0" fill="#000000" transform="matrix(1.00, 0.00, -0.00, -1.00, 1296.1, 498.8)"> </text><text xml:space="preserve" font-family="Inconsolata,Inconsolata" font-size="112.0" fill="#000000" transform="matrix(1.00, 0.00, -0.00, -1.00, 1327.2, 498.8)">U</text><text xml:space="preserve" font-family="Inconsolata,Inconsolata" font-size="112.0" fill="#000000" transform="matrix(1.00, 0.00, -0.00, -1.00, 1383.2, 498.8)">n</text><text xml:space="preserve" font-family="Inconsolata,Inconsolata" font-size="112.0" fill="#000000" transform="matrix(1.00, 0.00, -0.00, -1.00, 1439.2, 498.8)">i</text><text xml:space="preserve" font-family="Inconsolata,Inconsolata" font-size="112.0" fill="#000000" transform="matrix(1.00, 0.00, -0.00, -1.00, 1495.2, 498.8)">x</text><text xml:space="preserve" font-family="Helvetica-Light,Helvetica" font-size="50.0" fill="#000000" transform="matrix(1.00, 0.00, -0.00, -1.00, 368.2, 395.9)">(</text><text xml:space="preserve" font-family="Helvetica-Light,Helvetica" font-size="50.0" fill="#000000" transform="matrix(1.00, 0.00, -0.00, -1.00, 384.9, 395.9)">e</text><text xml:space="preserve" font-family="Helvetica-Light,Helvetica" font-size="50.0" fill="#000000" transform="matrix(1.00, 0.00, -0.00, -1.00, 412.7, 395.9)">.</text><text xml:space="preserve" font-family="Helvetica-Light,Helvetica" font-size="50.0" fill="#000000" transform="matrix(1.00, 0.00, -0.00, -1.00, 426.6, 395.9)">g</text><text xml:space="preserve" font-family="Helvetica-Light,Helvetica" font-size="50.0" fill="#000000" transform="matrix(1.00, 0.00, -0.00, -1.00, 457.1, 395.9)">.</text><text xml:space="preserve" font-family="Helvetica-Light,Helvetica" font-size="50.0" fill="#000000" transform="matrix(1.00, 0.00, -0.00, -1.00, 471.0, 395.9)"> </text><text xml:space="preserve" font-family="CourierNewPSMT,Courier New" font-size="50.0" fill="#000000" transform="matrix(1.00, 0.00, -0.00, -1.00, 484.9, 395.9)">c</text><text xml:space="preserve" font-family="CourierNewPSMT,Courier New" font-size="50.0" fill="#000000" transform="matrix(1.00, 0.00, -0.00, -1.00, 514.9, 395.9)">a</text><text xml:space="preserve" font-family="CourierNewPSMT,Courier New" font-size="50.0" fill="#000000" transform="matrix(1.00, 0.00, -0.00, -1.00, 545.0, 395.9)">t</text><text xml:space="preserve" font-family="CourierNewPSMT,Courier New" font-size="50.0" fill="#000000" transform="matrix(1.00, 0.00, -0.00, -1.00, 575.0, 395.9)">,</text><text xml:space="preserve" font-family="CourierNewPSMT,Courier New" font-size="50.0" fill="#000000" transform="matrix(1.00, 0.00, -0.00, -1.00, 605.0, 395.9)"> </text><text xml:space="preserve" font-family="CourierNewPSMT,Courier New" font-size="50.0" fill="#000000" transform="matrix(1.00, 0.00, -0.00, -1.00, 635.0, 395.9)">m</text><text xml:space="preserve" font-family="CourierNewPSMT,Courier New" font-size="50.0" fill="#000000" transform="matrix(1.00, 0.00, -0.00, -1.00, 665.0, 395.9)">a</text><text xml:space="preserve" font-family="CourierNewPSMT,Courier New" font-size="50.0" fill="#000000" transform="matrix(1.00, 0.00, -0.00, -1.00, 695.0, 395.9)">n</text><text xml:space="preserve" font-family="CourierNewPSMT,Courier New" font-size="50.0" fill="#000000" transform="matrix(1.00, 0.00, -0.00, -1.00, 725.0, 395.9)">,</text><text xml:space="preserve" font-family="CourierNewPSMT,Courier New" font-size="50.0" fill="#000000" transform="matrix(1.00, 0.00, -0.00, -1.00, 755.0, 395.9)"> </text><text xml:space="preserve" font-family="CourierNewPSMT,Courier New" font-size="50.0" fill="#000000" transform="matrix(1.00, 0.00, -0.00, -1.00, 785.0, 395.9)">s</text><text xml:space="preserve" font-family="CourierNewPSMT,Courier New" font-size="50.0" fill="#000000" transform="matrix(1.00, 0.00, -0.00, -1.00, 815.0, 395.9)">o</text><text xml:space="preserve" font-family="CourierNewPSMT,Courier New" font-size="50.0" fill="#000000" transform="matrix(1.00, 0.00, -0.00, -1.00, 845.1, 395.9)">r</text><text xml:space="preserve" font-family="CourierNewPSMT,Courier New" font-size="50.0" fill="#000000" transform="matrix(1.00, 0.00, -0.00, -1.00, 875.1, 395.9)">t</text><text xml:space="preserve" font-family="CourierNewPSMT,Courier New" font-size="50.0" fill="#000000" transform="matrix(1.00, 0.00, -0.00, -1.00, 905.1, 395.9)">,</text><text xml:space="preserve" font-family="CourierNewPSMT,Courier New" font-size="50.0" fill="#000000" transform="matrix(1.00, 0.00, -0.00, -1.00, 935.1, 395.9)"> </text><text xml:space="preserve" font-family="CourierNewPSMT,Courier New" font-size="50.0" fill="#000000" transform="matrix(1.00, 0.00, -0.00, -1.00, 965.1, 395.9)">c</text><text xml:space="preserve" font-family="CourierNewPSMT,Courier New" font-size="50.0" fill="#000000" transform="matrix(1.00, 0.00, -0.00, -1.00, 995.1, 395.9)">u</text><text xml:space="preserve" font-family="CourierNewPSMT,Courier New" font-size="50.0" fill="#000000" transform="matrix(1.00, 0.00, -0.00, -1.00, 1025.1, 395.9)">t</text><text xml:space="preserve" font-family="CourierNewPSMT,Courier New" font-size="50.0" fill="#000000" transform="matrix(1.00, 0.00, -0.00, -1.00, 1055.1, 395.9)">,</text><text xml:space="preserve" font-family="CourierNewPSMT,Courier New" font-size="50.0" fill="#000000" transform="matrix(1.00, 0.00, -0.00, -1.00, 1085.1, 395.9)"> </text><text xml:space="preserve" font-family="CourierNewPSMT,Courier New" font-size="50.0" fill="#000000" transform="matrix(1.00, 0.00, -0.00, -1.00, 1115.1, 395.9)">h</text><text xml:space="preserve" font-family="CourierNewPSMT,Courier New" font-size="50.0" fill="#000000" transform="matrix(1.00, 0.00, -0.00, -1.00, 1145.2, 395.9)">e</text><text xml:space="preserve" font-family="CourierNewPSMT,Courier New" font-size="50.0" fill="#000000" transform="matrix(1.00, 0.00, -0.00, -1.00, 1175.2, 395.9)">a</text><text xml:space="preserve" font-family="CourierNewPSMT,Courier New" font-size="50.0" fill="#000000" transform="matrix(1.00, 0.00, -0.00, -1.00, 1205.2, 395.9)">d</text><text xml:space="preserve" font-family="CourierNewPSMT,Courier New" font-size="50.0" fill="#000000" transform="matrix(1.00, 0.00, -0.00, -1.00, 1235.2, 395.9)">,</text><text xml:space="preserve" font-family="CourierNewPSMT,Courier New" font-size="50.0" fill="#000000" transform="matrix(1.00, 0.00, -0.00, -1.00, 1265.2, 395.9)"> </text><text xml:space="preserve" font-family="CourierNewPSMT,Courier New" font-size="50.0" fill="#000000" transform="matrix(1.00, 0.00, -0.00, -1.00, 1295.2, 395.9)">t</text><text xml:space="preserve" font-family="CourierNewPSMT,Courier New" font-size="50.0" fill="#000000" transform="matrix(1.00, 0.00, -0.00, -1.00, 1325.2, 395.9)">a</text><text xml:space="preserve" font-family="CourierNewPSMT,Courier New" font-size="50.0" fill="#000000" transform="matrix(1.00, 0.00, -0.00, -1.00, 1355.2, 395.9)">i</text><text xml:space="preserve" font-family="CourierNewPSMT,Courier New" font-size="50.0" fill="#000000" transform="matrix(1.00, 0.00, -0.00, -1.00, 1385.2, 395.9)">l</text><text xml:space="preserve" font-family="CourierNewPSMT,Courier New" font-size="50.0" fill="#000000" transform="matrix(1.00, 0.00, -0.00, -1.00, 1415.2, 395.9)">,</text><text xml:space="preserve" font-family="CourierNewPSMT,Courier New" font-size="50.0" fill="#000000" transform="matrix(1.00, 0.00, -0.00, -1.00, 1445.3, 395.9)"> </text><text xml:space="preserve" font-family="CourierNewPSMT,Courier New" font-size="50.0" fill="#000000" transform="matrix(1.00, 0.00, -0.00, -1.00, 1475.3, 395.9)">w</text><text xml:space="preserve" font-family="CourierNewPSMT,Courier New" font-size="50.0" fill="#000000" transform="matrix(1.00, 0.00, -0.00, -1.00, 1505.3, 395.9)">c</text><text xml:space="preserve" font-family="Helvetica-Light,Helvetica" font-size="50.0" fill="#000000" transform="matrix(1.00, 0.00, -0.00, -1.00, 1535.1, 395.9)">)</text></g></svg>