<?xml version="1.0" encoding="UTF-8" standalone="no"?><svg xmlns="http://www.w3.org/2000/svg" xmlns:xlink="http://www.w3.org/1999/xlink" clip-rule="evenodd" stroke-miterlimit="10" viewBox="0 0 1920 1080"><desc>SVG generated by Keynote</desc><defs></defs><g transform="matrix(1.00, 0.00, -0.00, -1.00, 0.0, 1080.0)"><path d="M 0.0 1080.0 L 1920.0 1080.0 L 1920.0 0.0 L 0.0 0.0 Z M 0.0 1080.0 " fill="#FEFFFF"></path><g><clipPath id="clip0x600000eb63e0"><path d="M -3.0 1225.0 L 1936.0 1225.0 L 1936.0 291.0 L -3.0 291.0 Z M -3.4 1225.1 "></path></clipPath><g clip-path="url(#clip0x600000eb63e0)"><image xlink:href="68789EC9DFAFAC3C4FFE8635812F874D.jpeg" width="3882.00" height="2588.00" transform="matrix(0.50, 0.00, -0.00, -0.50, -3.0, 1405.0)"></image></g></g><text xml:space="preserve" font-family="Helvetica-Bold,Helvetica" font-weight="bold" font-size="110.9" fill="#000000" transform="matrix(1.00, 0.00, -0.00, -1.00, 55.4, 151.3)">P</text><text xml:space="preserve" font-family="Helvetica-Bold,Helvetica" font-weight="bold" font-size="110.9" fill="#000000" transform="matrix(1.00, 0.00, -0.00, -1.00, 129.4, 151.3)">o</text><text xml:space="preserve" font-family="Helvetica-Bold,Helvetica" font-weight="bold" font-size="110.9" fill="#000000" transform="matrix(1.00, 0.00, -0.00, -1.00, 197.1, 151.3)">t</text><text xml:space="preserve" font-family="Helvetica-Bold,Helvetica" font-weight="bold" font-size="110.9" fill="#000000" transform="matrix(1.00, 0.00, -0.00, -1.00, 234.0, 151.3)">e</text><text xml:space="preserve" font-family="Helvetica-Bold,Helvetica" font-weight="bold" font-size="110.9" fill="#000000" transform="matrix(1.00, 0.00, -0.00, -1.00, 295.7, 151.3)">n</text><text xml:space="preserve" font-family="Helvetica-Bold,Helvetica" font-weight="bold" font-size="110.9" fill="#000000" transform="matrix(1.00, 0.00, -0.00, -1.00, 363.4, 151.3)">t</text><text xml:space="preserve" font-family="Helvetica-Bold,Helvetica" font-weight="bold" font-size="110.9" fill="#000000" transform="matrix(1.00, 0.00, -0.00, -1.00, 400.3, 151.3)">i</text><text xml:space="preserve" font-family="Helvetica-Bold,Helvetica" font-weight="bold" font-size="110.9" fill="#000000" transform="matrix(1.00, 0.00, -0.00, -1.00, 431.1, 151.3)">a</text><text xml:space="preserve" font-family="Helvetica-Bold,Helvetica" font-weight="bold" font-size="110.9" fill="#000000" transform="matrix(1.00, 0.00, -0.00, -1.00, 492.8, 151.3)">l</text><text xml:space="preserve" font-family="Helvetica-Bold,Helvetica" font-weight="bold" font-size="110.9" fill="#000000" transform="matrix(1.00, 0.00, -0.00, -1.00, 523.6, 151.3)"> </text><text xml:space="preserve" font-family="Helvetica-Bold,Helvetica" font-weight="bold" font-size="110.9" fill="#000000" transform="matrix(1.00, 0.00, -0.00, -1.00, 554.4, 151.3)">s</text><text xml:space="preserve" font-family="Helvetica-Bold,Helvetica" font-weight="bold" font-size="110.9" fill="#000000" transform="matrix(1.00, 0.00, -0.00, -1.00, 616.0, 151.3)">o</text><text xml:space="preserve" font-family="Helvetica-Bold,Helvetica" font-weight="bold" font-size="110.9" fill="#000000" transform="matrix(1.00, 0.00, -0.00, -1.00, 683.7, 151.3)">l</text><text xml:space="preserve" font-family="Helvetica-Bold,Helvetica" font-weight="bold" font-size="110.9" fill="#000000" transform="matrix(1.00, 0.00, -0.00, -1.00, 714.5, 151.3)">u</text><text xml:space="preserve" font-family="Helvetica-Bold,Helvetica" font-weight="bold" font-size="110.9" fill="#000000" transform="matrix(1.00, 0.00, -0.00, -1.00, 782.2, 151.3)">t</text><text xml:space="preserve" font-family="Helvetica-Bold,Helvetica" font-weight="bold" font-size="110.9" fill="#000000" transform="matrix(1.00, 0.00, -0.00, -1.00, 819.2, 151.3)">i</text><text xml:space="preserve" font-family="Helvetica-Bold,Helvetica" font-weight="bold" font-size="110.9" fill="#000000" transform="matrix(1.00, 0.00, -0.00, -1.00, 849.9, 151.3)">o</text><text xml:space="preserve" font-family="Helvetica-Bold,Helvetica" font-weight="bold" font-size="110.9" fill="#000000" transform="matrix(1.00, 0.00, -0.00, -1.00, 917.7, 151.3)">n</text><text xml:space="preserve" font-family="Helvetica-Bold,Helvetica" font-weight="bold" font-size="110.9" fill="#000000" transform="matrix(1.00, 0.00, -0.00, -1.00, 985.4, 151.3)">:</text><text xml:space="preserve" font-family="Helvetica-Light,Helvetica" font-size="110.9" fill="#000000" transform="matrix(1.00, 0.00, -0.00, -1.00, 1022.5, 151.3)"> </text><text xml:space="preserve" font-family="Helvetica-Light,Helvetica" font-size="110.9" fill="#000000" transform="matrix(1.00, 0.00, -0.00, -1.00, 1053.3, 151.3)">Q</text><text xml:space="preserve" font-family="Helvetica-Light,Helvetica" font-size="110.9" fill="#000000" transform="matrix(1.00, 0.00, -0.00, -1.00, 1139.6, 151.3)">W</text><text xml:space="preserve" font-family="Helvetica-Light,Helvetica" font-size="110.9" fill="#000000" transform="matrix(1.00, 0.00, -0.00, -1.00, 1238.1, 151.3)">E</text><text xml:space="preserve" font-family="Helvetica-Light,Helvetica" font-size="110.9" fill="#000000" transform="matrix(1.00, 0.00, -0.00, -1.00, 1305.9, 151.3)">R</text><text xml:space="preserve" font-family="Helvetica-Light,Helvetica" font-size="110.9" fill="#000000" transform="matrix(1.00, 0.00, -0.00, -1.00, 1377.8, 151.3)">T</text><text xml:space="preserve" font-family="Helvetica-Light,Helvetica" font-size="110.9" fill="#000000" transform="matrix(1.00, 0.00, -0.00, -1.00, 1439.5, 151.3)">Y</text><text xml:space="preserve" font-family="Helvetica-Light,Helvetica" font-size="110.9" fill="#000000" transform="matrix(1.00, 0.00, -0.00, -1.00, 1507.2, 151.3)"> </text><text xml:space="preserve" font-family="Helvetica-Light,Helvetica" font-size="110.9" fill="#000000" transform="matrix(1.00, 0.00, -0.00, -1.00, 1538.1, 151.3)">g</text><text xml:space="preserve" font-family="Helvetica-Light,Helvetica" font-size="110.9" fill="#000000" transform="matrix(1.00, 0.00, -0.00, -1.00, 1605.8, 151.3)">l</text><text xml:space="preserve" font-family="Helvetica-Light,Helvetica" font-size="110.9" fill="#000000" transform="matrix(1.00, 0.00, -0.00, -1.00, 1630.4, 151.3)">o</text><text xml:space="preserve" font-family="Helvetica-Light,Helvetica" font-size="110.9" fill="#000000" transform="matrix(1.00, 0.00, -0.00, -1.00, 1692.1, 151.3)">v</text><text xml:space="preserve" font-family="Helvetica-Light,Helvetica" font-size="110.9" fill="#000000" transform="matrix(1.00, 0.00, -0.00, -1.00, 1747.5, 151.3)">e</text><text xml:space="preserve" font-family="Helvetica-Light,Helvetica" font-size="110.9" fill="#000000" transform="matrix(1.00, 0.00, -0.00, -1.00, 1809.2, 151.3)">s</text><text xml:space="preserve" font-family="Helvetica-Light,Helvetica" font-size="44.0" fill="#000000" transform="matrix(1.00, 0.00, -0.00, -1.00, 733.8, 69.9)">“</text><text xml:space="preserve" font-family="Helvetica-Light,Helvetica" font-size="44.0" fill="#000000" transform="matrix(1.00, 0.00, -0.00, -1.00, 750.9, 69.9)">I</text><text xml:space="preserve" font-family="Helvetica-Light,Helvetica" font-size="44.0" fill="#000000" transform="matrix(1.00, 0.00, -0.00, -1.00, 763.1, 69.9)">n</text><text xml:space="preserve" font-family="Helvetica-Light,Helvetica" font-size="44.0" fill="#000000" transform="matrix(1.00, 0.00, -0.00, -1.00, 787.6, 69.9)">-</text><text xml:space="preserve" font-family="Helvetica-Light,Helvetica" font-size="44.0" fill="#000000" transform="matrix(1.00, 0.00, -0.00, -1.00, 802.3, 69.9)">p</text><text xml:space="preserve" font-family="Helvetica-Light,Helvetica" font-size="44.0" fill="#000000" transform="matrix(1.00, 0.00, -0.00, -1.00, 829.1, 69.9)">l</text><text xml:space="preserve" font-family="Helvetica-Light,Helvetica" font-size="44.0" fill="#000000" transform="matrix(1.00, 0.00, -0.00, -1.00, 838.9, 69.9)">a</text><text xml:space="preserve" font-family="Helvetica-Light,Helvetica" font-size="44.0" fill="#000000" transform="matrix(1.00, 0.00, -0.00, -1.00, 863.4, 69.9)">c</text><text xml:space="preserve" font-family="Helvetica-Light,Helvetica" font-size="44.0" fill="#000000" transform="matrix(1.00, 0.00, -0.00, -1.00, 887.8, 69.9)">e</text><text xml:space="preserve" font-family="Helvetica-Light,Helvetica" font-size="44.0" fill="#000000" transform="matrix(1.00, 0.00, -0.00, -1.00, 912.3, 69.9)"> </text><text xml:space="preserve" font-family="Helvetica-Light,Helvetica" font-size="44.0" fill="#000000" transform="matrix(1.00, 0.00, -0.00, -1.00, 924.5, 69.9)">t</text><text xml:space="preserve" font-family="Helvetica-Light,Helvetica" font-size="44.0" fill="#000000" transform="matrix(1.00, 0.00, -0.00, -1.00, 936.8, 69.9)">o</text><text xml:space="preserve" font-family="Helvetica-Light,Helvetica" font-size="44.0" fill="#000000" transform="matrix(1.00, 0.00, -0.00, -1.00, 961.2, 69.9)">u</text><text xml:space="preserve" font-family="Helvetica-Light,Helvetica" font-size="44.0" fill="#000000" transform="matrix(1.00, 0.00, -0.00, -1.00, 985.7, 69.9)">c</text><text xml:space="preserve" font-family="Helvetica-Light,Helvetica" font-size="44.0" fill="#000000" transform="matrix(1.00, 0.00, -0.00, -1.00, 1010.2, 69.9)">h</text><text xml:space="preserve" font-family="Helvetica-Light,Helvetica" font-size="44.0" fill="#000000" transform="matrix(1.00, 0.00, -0.00, -1.00, 1034.6, 69.9)"> </text><text xml:space="preserve" font-family="Helvetica-Light,Helvetica" font-size="44.0" fill="#000000" transform="matrix(1.00, 0.00, -0.00, -1.00, 1046.9, 69.9)">t</text><text xml:space="preserve" font-family="Helvetica-Light,Helvetica" font-size="44.0" fill="#000000" transform="matrix(1.00, 0.00, -0.00, -1.00, 1059.1, 69.9)">y</text><text xml:space="preserve" font-family="Helvetica-Light,Helvetica" font-size="44.0" fill="#000000" transform="matrix(1.00, 0.00, -0.00, -1.00, 1081.1, 69.9)">p</text><text xml:space="preserve" font-family="Helvetica-Light,Helvetica" font-size="44.0" fill="#000000" transform="matrix(1.00, 0.00, -0.00, -1.00, 1108.0, 69.9)">i</text><text xml:space="preserve" font-family="Helvetica-Light,Helvetica" font-size="44.0" fill="#000000" transform="matrix(1.00, 0.00, -0.00, -1.00, 1117.7, 69.9)">n</text><text xml:space="preserve" font-family="Helvetica-Light,Helvetica" font-size="44.0" fill="#000000" transform="matrix(1.00, 0.00, -0.00, -1.00, 1142.2, 69.9)">g</text><text xml:space="preserve" font-family="Helvetica-Light,Helvetica" font-size="44.0" fill="#000000" transform="matrix(1.00, 0.00, -0.00, -1.00, 1169.1, 69.9)">”</text></g></svg>