<?xml version="1.0" encoding="UTF-8" standalone="no"?><svg xmlns="http://www.w3.org/2000/svg" xmlns:xlink="http://www.w3.org/1999/xlink" clip-rule="evenodd" stroke-miterlimit="10" viewBox="0 0 1920 1080"><desc>SVG generated by Keynote</desc><defs></defs><g transform="matrix(1.00, 0.00, -0.00, -1.00, 0.0, 1080.0)"><path d="M 0.0 1080.0 L 1920.0 1080.0 L 1920.0 0.0 L 0.0 0.0 Z M 0.0 1080.0 " fill="#FEFFFF"></path><text xml:space="preserve" font-family="Helvetica-Light,Helvetica" font-size="112.0" fill="#0264C0" transform="matrix(1.00, 0.00, -0.00, -1.00, 523.3, 498.8)">F</text><text xml:space="preserve" font-family="Helvetica-Light,Helvetica" font-size="112.0" fill="#0264C0" transform="matrix(1.00, 0.00, -0.00, -1.00, 585.6, 498.8)">i</text><text xml:space="preserve" font-family="Helvetica-Light,Helvetica" font-size="112.0" fill="#0264C0" transform="matrix(1.00, 0.00, -0.00, -1.00, 610.4, 498.8)">l</text><text xml:space="preserve" font-family="Helvetica-Light,Helvetica" font-size="112.0" fill="#0264C0" transform="matrix(1.00, 0.00, -0.00, -1.00, 635.3, 498.8)">e</text><text xml:space="preserve" font-family="Helvetica-Light,Helvetica" font-size="112.0" fill="#0264C0" transform="matrix(1.00, 0.00, -0.00, -1.00, 697.6, 498.8)"> </text><text xml:space="preserve" font-family="Helvetica-Light,Helvetica" font-size="112.0" fill="#0264C0" transform="matrix(1.00, 0.00, -0.00, -1.00, 728.7, 498.8)">p</text><text xml:space="preserve" font-family="Helvetica-Light,Helvetica" font-size="112.0" fill="#0264C0" transform="matrix(1.00, 0.00, -0.00, -1.00, 797.2, 498.8)">a</text><text xml:space="preserve" font-family="Helvetica-Light,Helvetica" font-size="112.0" fill="#0264C0" transform="matrix(1.00, 0.00, -0.00, -1.00, 859.4, 498.8)">g</text><text xml:space="preserve" font-family="Helvetica-Light,Helvetica" font-size="112.0" fill="#0264C0" transform="matrix(1.00, 0.00, -0.00, -1.00, 927.9, 498.8)">e</text><text xml:space="preserve" font-family="Helvetica-Light,Helvetica" font-size="112.0" fill="#0264C0" transform="matrix(1.00, 0.00, -0.00, -1.00, 990.1, 498.8)"> </text><text xml:space="preserve" font-family="Helvetica-Light,Helvetica" font-size="112.0" fill="#0264C0" transform="matrix(1.00, 0.00, -0.00, -1.00, 1021.3, 498.8)">f</text><text xml:space="preserve" font-family="Helvetica-Light,Helvetica" font-size="112.0" fill="#0264C0" transform="matrix(1.00, 0.00, -0.00, -1.00, 1052.4, 498.8)">o</text><text xml:space="preserve" font-family="Helvetica-Light,Helvetica" font-size="112.0" fill="#0264C0" transform="matrix(1.00, 0.00, -0.00, -1.00, 1114.7, 498.8)">r</text><text xml:space="preserve" font-family="Helvetica-Light,Helvetica" font-size="112.0" fill="#0264C0" transform="matrix(1.00, 0.00, -0.00, -1.00, 1154.0, 498.8)">m</text><text xml:space="preserve" font-family="Helvetica-Light,Helvetica" font-size="112.0" fill="#0264C0" transform="matrix(1.00, 0.00, -0.00, -1.00, 1247.3, 498.8)">a</text><text xml:space="preserve" font-family="Helvetica-Light,Helvetica" font-size="112.0" fill="#0264C0" transform="matrix(1.00, 0.00, -0.00, -1.00, 1309.6, 498.8)">t</text><text xml:space="preserve" font-family="Helvetica-Light,Helvetica" font-size="112.0" fill="#0264C0" transform="matrix(1.00, 0.00, -0.00, -1.00, 1340.7, 498.8)">s</text></g></svg>