<?xml version="1.0" encoding="UTF-8" standalone="no"?><svg xmlns="http://www.w3.org/2000/svg" xmlns:xlink="http://www.w3.org/1999/xlink" clip-rule="evenodd" stroke-miterlimit="10" viewBox="0 0 1920 1080"><desc>SVG generated by Keynote</desc><defs></defs><g transform="matrix(1.00, 0.00, -0.00, -1.00, 0.0, 1080.0)"><path d="M 0.0 1080.0 L 1920.0 1080.0 L 1920.0 0.0 L 0.0 0.0 Z M 0.0 1080.0 " fill="#FEFFFF"></path><image xlink:href="../../B1EF594C-12BD-4E74-9E88-A4D89DA12403/assets/E7EADDEC8CC06A841B4900944605B3FF.png" width="2071.00" height="619.00" transform="matrix(1.00, 0.00, -0.00, -1.00, -39.0, 1125.0)" opacity="0.50"></image><path d="M -36.0 1124.0 L 2029.0 1124.0 L 2029.0 511.0 L -36.0 511.0 Z M -36.0 1124.0 " fill="#002451"></path><text xml:space="preserve" font-family="Helvetica-Light,Helvetica" font-size="98.6" fill="#000000" transform="matrix(1.00, 0.00, -0.00, -1.00, 184.4, 353.7)"> </text><text xml:space="preserve" font-family="Helvetica-Light,Helvetica" font-size="98.6" fill="#000000" transform="matrix(1.00, 0.00, -0.00, -1.00, 249.4, 353.7)">H</text><text xml:space="preserve" font-family="Helvetica-Light,Helvetica" font-size="98.6" fill="#000000" transform="matrix(1.00, 0.00, -0.00, -1.00, 320.6, 353.7)">o</text><text xml:space="preserve" font-family="Helvetica-Light,Helvetica" font-size="98.6" fill="#000000" transform="matrix(1.00, 0.00, -0.00, -1.00, 375.4, 353.7)">w</text><text xml:space="preserve" font-family="Helvetica-Light,Helvetica" font-size="98.6" fill="#000000" transform="matrix(1.00, 0.00, -0.00, -1.00, 446.5, 353.7)"> </text><text xml:space="preserve" font-family="Helvetica-Light,Helvetica" font-size="98.6" fill="#000000" transform="matrix(1.00, 0.00, -0.00, -1.00, 473.9, 353.7)">m</text><text xml:space="preserve" font-family="Helvetica-Light,Helvetica" font-size="98.6" fill="#000000" transform="matrix(1.00, 0.00, -0.00, -1.00, 556.0, 353.7)">a</text><text xml:space="preserve" font-family="Helvetica-Light,Helvetica" font-size="98.6" fill="#000000" transform="matrix(1.00, 0.00, -0.00, -1.00, 610.8, 353.7)">n</text><text xml:space="preserve" font-family="Helvetica-Light,Helvetica" font-size="98.6" fill="#000000" transform="matrix(1.00, 0.00, -0.00, -1.00, 665.6, 353.7)">y</text><text xml:space="preserve" font-family="Helvetica-Light,Helvetica" font-size="98.6" fill="#000000" transform="matrix(1.00, 0.00, -0.00, -1.00, 714.9, 353.7)"> </text><text xml:space="preserve" font-family="Helvetica-Light,Helvetica" font-size="98.6" fill="#000000" transform="matrix(1.00, 0.00, -0.00, -1.00, 742.3, 353.7)">d</text><text xml:space="preserve" font-family="Helvetica-Light,Helvetica" font-size="98.6" fill="#000000" transform="matrix(1.00, 0.00, -0.00, -1.00, 802.5, 353.7)">i</text><text xml:space="preserve" font-family="Helvetica-Light,Helvetica" font-size="98.6" fill="#000000" transform="matrix(1.00, 0.00, -0.00, -1.00, 824.4, 353.7)">s</text><text xml:space="preserve" font-family="Helvetica-Light,Helvetica" font-size="98.6" fill="#000000" transform="matrix(1.00, 0.00, -0.00, -1.00, 873.7, 353.7)">k</text><text xml:space="preserve" font-family="Helvetica-Light,Helvetica" font-size="98.6" fill="#000000" transform="matrix(1.00, 0.00, -0.00, -1.00, 923.0, 353.7)"> </text><text xml:space="preserve" font-family="Helvetica-Light,Helvetica" font-size="98.6" fill="#000000" transform="matrix(1.00, 0.00, -0.00, -1.00, 950.4, 353.7)">r</text><text xml:space="preserve" font-family="Helvetica-Light,Helvetica" font-size="98.6" fill="#000000" transform="matrix(1.00, 0.00, -0.00, -1.00, 981.4, 353.7)">e</text><text xml:space="preserve" font-family="Helvetica-Light,Helvetica" font-size="98.6" fill="#000000" transform="matrix(1.00, 0.00, -0.00, -1.00, 1036.2, 353.7)">a</text><text xml:space="preserve" font-family="Helvetica-Light,Helvetica" font-size="98.6" fill="#000000" transform="matrix(1.00, 0.00, -0.00, -1.00, 1091.0, 353.7)">d</text><text xml:space="preserve" font-family="Helvetica-Light,Helvetica" font-size="98.6" fill="#000000" transform="matrix(1.00, 0.00, -0.00, -1.00, 1151.2, 353.7)">s</text><text xml:space="preserve" font-family="Helvetica-Light,Helvetica" font-size="98.6" fill="#000000" transform="matrix(1.00, 0.00, -0.00, -1.00, 1200.5, 353.7)"> </text><text xml:space="preserve" font-family="Helvetica-Light,Helvetica" font-size="98.6" fill="#000000" transform="matrix(1.00, 0.00, -0.00, -1.00, 1227.9, 353.7)">a</text><text xml:space="preserve" font-family="Helvetica-Light,Helvetica" font-size="98.6" fill="#000000" transform="matrix(1.00, 0.00, -0.00, -1.00, 1282.7, 353.7)">r</text><text xml:space="preserve" font-family="Helvetica-Light,Helvetica" font-size="98.6" fill="#000000" transform="matrix(1.00, 0.00, -0.00, -1.00, 1313.8, 353.7)">e</text><text xml:space="preserve" font-family="Helvetica-Light,Helvetica" font-size="98.6" fill="#000000" transform="matrix(1.00, 0.00, -0.00, -1.00, 1368.6, 353.7)"> </text><text xml:space="preserve" font-family="Helvetica-Light,Helvetica" font-size="98.6" fill="#000000" transform="matrix(1.00, 0.00, -0.00, -1.00, 1396.0, 353.7)">n</text><text xml:space="preserve" font-family="Helvetica-Light,Helvetica" font-size="98.6" fill="#000000" transform="matrix(1.00, 0.00, -0.00, -1.00, 1450.8, 353.7)">e</text><text xml:space="preserve" font-family="Helvetica-Light,Helvetica" font-size="98.6" fill="#000000" transform="matrix(1.00, 0.00, -0.00, -1.00, 1505.6, 353.7)">e</text><text xml:space="preserve" font-family="Helvetica-Light,Helvetica" font-size="98.6" fill="#000000" transform="matrix(1.00, 0.00, -0.00, -1.00, 1560.4, 353.7)">d</text><text xml:space="preserve" font-family="Helvetica-Light,Helvetica" font-size="98.6" fill="#000000" transform="matrix(1.00, 0.00, -0.00, -1.00, 1620.6, 353.7)">e</text><text xml:space="preserve" font-family="Helvetica-Light,Helvetica" font-size="98.6" fill="#000000" transform="matrix(1.00, 0.00, -0.00, -1.00, 1675.4, 353.7)">d</text><text xml:space="preserve" font-family="Helvetica-Light,Helvetica" font-size="98.6" fill="#000000" transform="matrix(1.00, 0.00, -0.00, -1.00, 1735.6, 353.7)"> </text><text xml:space="preserve" font-family="Helvetica-Light,Helvetica" font-size="98.6" fill="#000000" transform="matrix(1.00, 0.00, -0.00, -1.00, 160.4, 234.7)">t</text><text xml:space="preserve" font-family="Helvetica-Light,Helvetica" font-size="98.6" fill="#000000" transform="matrix(1.00, 0.00, -0.00, -1.00, 187.8, 234.7)">o</text><text xml:space="preserve" font-family="Helvetica-Light,Helvetica" font-size="98.6" fill="#000000" transform="matrix(1.00, 0.00, -0.00, -1.00, 242.6, 234.7)"> </text><text xml:space="preserve" font-family="Helvetica-Light,Helvetica" font-size="98.6" fill="#000000" transform="matrix(1.00, 0.00, -0.00, -1.00, 270.0, 234.7)">p</text><text xml:space="preserve" font-family="Helvetica-Light,Helvetica" font-size="98.6" fill="#000000" transform="matrix(1.00, 0.00, -0.00, -1.00, 330.2, 234.7)">e</text><text xml:space="preserve" font-family="Helvetica-Light,Helvetica" font-size="98.6" fill="#000000" transform="matrix(1.00, 0.00, -0.00, -1.00, 385.0, 234.7)">r</text><text xml:space="preserve" font-family="Helvetica-Light,Helvetica" font-size="98.6" fill="#000000" transform="matrix(1.00, 0.00, -0.00, -1.00, 419.6, 234.7)">f</text><text xml:space="preserve" font-family="Helvetica-Light,Helvetica" font-size="98.6" fill="#000000" transform="matrix(1.00, 0.00, -0.00, -1.00, 447.0, 234.7)">o</text><text xml:space="preserve" font-family="Helvetica-Light,Helvetica" font-size="98.6" fill="#000000" transform="matrix(1.00, 0.00, -0.00, -1.00, 501.8, 234.7)">r</text><text xml:space="preserve" font-family="Helvetica-Light,Helvetica" font-size="98.6" fill="#000000" transform="matrix(1.00, 0.00, -0.00, -1.00, 536.4, 234.7)">m</text><text xml:space="preserve" font-family="Helvetica-Light,Helvetica" font-size="98.6" fill="#000000" transform="matrix(1.00, 0.00, -0.00, -1.00, 618.5, 234.7)"> </text><text xml:space="preserve" font-family="Helvetica-Light,Helvetica" font-size="98.6" fill="#000000" transform="matrix(1.00, 0.00, -0.00, -1.00, 645.9, 234.7)">H</text><text xml:space="preserve" font-family="Helvetica-Light,Helvetica" font-size="98.6" fill="#000000" transform="matrix(1.00, 0.00, -0.00, -1.00, 717.0, 234.7)">a</text><text xml:space="preserve" font-family="Helvetica-Light,Helvetica" font-size="98.6" fill="#000000" transform="matrix(1.00, 0.00, -0.00, -1.00, 771.8, 234.7)">s</text><text xml:space="preserve" font-family="Helvetica-Light,Helvetica" font-size="98.6" fill="#000000" transform="matrix(1.00, 0.00, -0.00, -1.00, 821.1, 234.7)">h</text><text xml:space="preserve" font-family="Helvetica-Light,Helvetica" font-size="98.6" fill="#000000" transform="matrix(1.00, 0.00, -0.00, -1.00, 875.9, 234.7)"> </text><text xml:space="preserve" font-family="Helvetica-Light,Helvetica" font-size="98.6" fill="#000000" transform="matrix(1.00, 0.00, -0.00, -1.00, 903.3, 234.7)">J</text><text xml:space="preserve" font-family="Helvetica-Light,Helvetica" font-size="98.6" fill="#000000" transform="matrix(1.00, 0.00, -0.00, -1.00, 952.6, 234.7)">o</text><text xml:space="preserve" font-family="Helvetica-Light,Helvetica" font-size="98.6" fill="#000000" transform="matrix(1.00, 0.00, -0.00, -1.00, 1007.4, 234.7)">i</text><text xml:space="preserve" font-family="Helvetica-Light,Helvetica" font-size="98.6" fill="#000000" transform="matrix(1.00, 0.00, -0.00, -1.00, 1029.3, 234.7)">n</text><text xml:space="preserve" font-family="Helvetica-Light,Helvetica" font-size="98.6" fill="#000000" transform="matrix(1.00, 0.00, -0.00, -1.00, 1084.1, 234.7)"> </text><text xml:space="preserve" font-family="Helvetica-Light,Helvetica" font-size="98.6" fill="#000000" transform="matrix(1.00, 0.00, -0.00, -1.00, 1111.5, 234.7)">i</text><text xml:space="preserve" font-family="Helvetica-Light,Helvetica" font-size="98.6" fill="#000000" transform="matrix(1.00, 0.00, -0.00, -1.00, 1133.4, 234.7)">f</text><text xml:space="preserve" font-family="Helvetica-Light,Helvetica" font-size="98.6" fill="#000000" transform="matrix(1.00, 0.00, -0.00, -1.00, 1160.8, 234.7)"> </text><text xml:space="preserve" font-family="Helvetica-Light,Helvetica" font-size="98.6" fill="#000000" transform="matrix(1.00, 0.00, -0.00, -1.00, 1188.2, 234.7)">t</text><text xml:space="preserve" font-family="Helvetica-Light,Helvetica" font-size="98.6" fill="#000000" transform="matrix(1.00, 0.00, -0.00, -1.00, 1215.6, 234.7)">h</text><text xml:space="preserve" font-family="Helvetica-Light,Helvetica" font-size="98.6" fill="#000000" transform="matrix(1.00, 0.00, -0.00, -1.00, 1270.4, 234.7)">e</text><text xml:space="preserve" font-family="Helvetica-Light,Helvetica" font-size="98.6" fill="#000000" transform="matrix(1.00, 0.00, -0.00, -1.00, 1325.2, 234.7)"> </text><text xml:space="preserve" font-family="Helvetica-Light,Helvetica" font-size="98.6" fill="#000000" transform="matrix(1.00, 0.00, -0.00, -1.00, 1352.6, 234.7)">p</text><text xml:space="preserve" font-family="Helvetica-Light,Helvetica" font-size="98.6" fill="#000000" transform="matrix(1.00, 0.00, -0.00, -1.00, 1412.8, 234.7)">a</text><text xml:space="preserve" font-family="Helvetica-Light,Helvetica" font-size="98.6" fill="#000000" transform="matrix(1.00, 0.00, -0.00, -1.00, 1467.6, 234.7)">r</text><text xml:space="preserve" font-family="Helvetica-Light,Helvetica" font-size="98.6" fill="#000000" transform="matrix(1.00, 0.00, -0.00, -1.00, 1502.2, 234.7)">t</text><text xml:space="preserve" font-family="Helvetica-Light,Helvetica" font-size="98.6" fill="#000000" transform="matrix(1.00, 0.00, -0.00, -1.00, 1529.6, 234.7)">i</text><text xml:space="preserve" font-family="Helvetica-Light,Helvetica" font-size="98.6" fill="#000000" transform="matrix(1.00, 0.00, -0.00, -1.00, 1551.5, 234.7)">t</text><text xml:space="preserve" font-family="Helvetica-Light,Helvetica" font-size="98.6" fill="#000000" transform="matrix(1.00, 0.00, -0.00, -1.00, 1578.9, 234.7)">i</text><text xml:space="preserve" font-family="Helvetica-Light,Helvetica" font-size="98.6" fill="#000000" transform="matrix(1.00, 0.00, -0.00, -1.00, 1600.7, 234.7)">o</text><text xml:space="preserve" font-family="Helvetica-Light,Helvetica" font-size="98.6" fill="#000000" transform="matrix(1.00, 0.00, -0.00, -1.00, 1655.5, 234.7)">n</text><text xml:space="preserve" font-family="Helvetica-Light,Helvetica" font-size="98.6" fill="#000000" transform="matrix(1.00, 0.00, -0.00, -1.00, 1710.3, 234.7)">s</text><text xml:space="preserve" font-family="Helvetica-Light,Helvetica" font-size="98.6" fill="#000000" transform="matrix(1.00, 0.00, -0.00, -1.00, 1759.6, 234.7)"> </text><text xml:space="preserve" font-family="Helvetica-Light,Helvetica" font-size="98.6" fill="#000000" transform="matrix(1.00, 0.00, -0.00, -1.00, 353.9, 115.7)">ï¬</text><text xml:space="preserve" font-family="Helvetica-Light,Helvetica" font-size="98.6" fill="#000000" transform="matrix(1.00, 0.00, -0.00, -1.00, 403.2, 115.7)">t</text><text xml:space="preserve" font-family="Helvetica-Light,Helvetica" font-size="98.6" fill="#000000" transform="matrix(1.00, 0.00, -0.00, -1.00, 430.6, 115.7)"> </text><text xml:space="preserve" font-family="Helvetica-Light,Helvetica" font-size="98.6" fill="#000000" transform="matrix(1.00, 0.00, -0.00, -1.00, 458.0, 115.7)">i</text><text xml:space="preserve" font-family="Helvetica-Light,Helvetica" font-size="98.6" fill="#000000" transform="matrix(1.00, 0.00, -0.00, -1.00, 479.9, 115.7)">n</text><text xml:space="preserve" font-family="Helvetica-Light,Helvetica" font-size="98.6" fill="#000000" transform="matrix(1.00, 0.00, -0.00, -1.00, 534.7, 115.7)"> </text><text xml:space="preserve" font-family="Helvetica-Light,Helvetica" font-size="98.6" fill="#000000" transform="matrix(1.00, 0.00, -0.00, -1.00, 562.1, 115.7)">B</text><text xml:space="preserve" font-family="Helvetica-Light,Helvetica" font-size="98.6" fill="#000000" transform="matrix(1.00, 0.00, -0.00, -1.00, 627.8, 115.7)">-</text><text xml:space="preserve" font-family="Helvetica-Light,Helvetica" font-size="98.6" fill="#000000" transform="matrix(1.00, 0.00, -0.00, -1.00, 660.6, 115.7)">2</text><text xml:space="preserve" font-family="Helvetica-Light,Helvetica" font-size="98.6" fill="#000000" transform="matrix(1.00, 0.00, -0.00, -1.00, 715.4, 115.7)"> </text><text xml:space="preserve" font-family="Helvetica-Light,Helvetica" font-size="98.6" fill="#000000" transform="matrix(1.00, 0.00, -0.00, -1.00, 742.8, 115.7)">p</text><text xml:space="preserve" font-family="Helvetica-Light,Helvetica" font-size="98.6" fill="#000000" transform="matrix(1.00, 0.00, -0.00, -1.00, 803.0, 115.7)">a</text><text xml:space="preserve" font-family="Helvetica-Light,Helvetica" font-size="98.6" fill="#000000" transform="matrix(1.00, 0.00, -0.00, -1.00, 857.8, 115.7)">g</text><text xml:space="preserve" font-family="Helvetica-Light,Helvetica" font-size="98.6" fill="#000000" transform="matrix(1.00, 0.00, -0.00, -1.00, 918.1, 115.7)">e</text><text xml:space="preserve" font-family="Helvetica-Light,Helvetica" font-size="98.6" fill="#000000" transform="matrix(1.00, 0.00, -0.00, -1.00, 972.9, 115.7)">s</text><text xml:space="preserve" font-family="Helvetica-Light,Helvetica" font-size="98.6" fill="#000000" transform="matrix(1.00, 0.00, -0.00, -1.00, 1022.1, 115.7)"> </text><text xml:space="preserve" font-family="Helvetica-Light,Helvetica" font-size="98.6" fill="#000000" transform="matrix(1.00, 0.00, -0.00, -1.00, 1049.5, 115.7)">o</text><text xml:space="preserve" font-family="Helvetica-Light,Helvetica" font-size="98.6" fill="#000000" transform="matrix(1.00, 0.00, -0.00, -1.00, 1104.3, 115.7)">f</text><text xml:space="preserve" font-family="Helvetica-Light,Helvetica" font-size="98.6" fill="#000000" transform="matrix(1.00, 0.00, -0.00, -1.00, 1131.7, 115.7)"> </text><text xml:space="preserve" font-family="Helvetica-Light,Helvetica" font-size="98.6" fill="#000000" transform="matrix(1.00, 0.00, -0.00, -1.00, 1159.1, 115.7)">m</text><text xml:space="preserve" font-family="Helvetica-Light,Helvetica" font-size="98.6" fill="#000000" transform="matrix(1.00, 0.00, -0.00, -1.00, 1241.2, 115.7)">e</text><text xml:space="preserve" font-family="Helvetica-Light,Helvetica" font-size="98.6" fill="#000000" transform="matrix(1.00, 0.00, -0.00, -1.00, 1296.0, 115.7)">m</text><text xml:space="preserve" font-family="Helvetica-Light,Helvetica" font-size="98.6" fill="#000000" transform="matrix(1.00, 0.00, -0.00, -1.00, 1378.1, 115.7)">o</text><text xml:space="preserve" font-family="Helvetica-Light,Helvetica" font-size="98.6" fill="#000000" transform="matrix(1.00, 0.00, -0.00, -1.00, 1432.9, 115.7)">r</text><text xml:space="preserve" font-family="Helvetica-Light,Helvetica" font-size="98.6" fill="#000000" transform="matrix(1.00, 0.00, -0.00, -1.00, 1467.5, 115.7)">y</text><text xml:space="preserve" font-family="Helvetica-Light,Helvetica" font-size="98.6" fill="#000000" transform="matrix(1.00, 0.00, -0.00, -1.00, 1516.8, 115.7)">?</text><text xml:space="preserve" font-family="Helvetica-Light,Helvetica" font-size="80.6" fill="#FEFFFE" transform="matrix(1.00, 0.00, -0.00, -1.00, 148.7, 863.5)">L</text><text xml:space="preserve" font-family="Helvetica-Light,Helvetica" font-size="80.6" fill="#FEFFFE" transform="matrix(1.00, 0.00, -0.00, -1.00, 193.5, 863.5)">e</text><text xml:space="preserve" font-family="Helvetica-Light,Helvetica" font-size="80.6" fill="#FEFFFE" transform="matrix(1.00, 0.00, -0.00, -1.00, 238.4, 863.5)">t</text><text xml:space="preserve" font-family="Helvetica-Light,Helvetica" font-size="80.6" fill="#FEFFFE" transform="matrix(1.00, 0.00, -0.00, -1.00, 260.8, 863.5)"> </text><text xml:space="preserve" font-family="Helvetica-Light,Helvetica" font-size="80.6" fill="#FEFFFE" transform="matrix(1.00, 0.00, -0.00, -1.00, 283.2, 863.5)">t</text><text xml:space="preserve" font-family="Helvetica-Light,Helvetica" font-size="80.6" fill="#FEFFFE" transform="matrix(1.00, 0.00, -0.00, -1.00, 305.6, 863.5)">h</text><text xml:space="preserve" font-family="Helvetica-Light,Helvetica" font-size="80.6" fill="#FEFFFE" transform="matrix(1.00, 0.00, -0.00, -1.00, 350.5, 863.5)">e</text><text xml:space="preserve" font-family="Helvetica-Light,Helvetica" font-size="80.6" fill="#FEFFFE" transform="matrix(1.00, 0.00, -0.00, -1.00, 395.3, 863.5)"> </text><text xml:space="preserve" font-family="Helvetica-Light,Helvetica" font-size="80.6" fill="#51A7F9" transform="matrix(1.00, 0.00, -0.00, -1.00, 417.7, 863.5)">U</text><text xml:space="preserve" font-family="Helvetica-Light,Helvetica" font-size="80.6" fill="#51A7F9" transform="matrix(1.00, 0.00, -0.00, -1.00, 475.9, 863.5)">s</text><text xml:space="preserve" font-family="Helvetica-Light,Helvetica" font-size="80.6" fill="#51A7F9" transform="matrix(1.00, 0.00, -0.00, -1.00, 516.3, 863.5)">e</text><text xml:space="preserve" font-family="Helvetica-Light,Helvetica" font-size="80.6" fill="#51A7F9" transform="matrix(1.00, 0.00, -0.00, -1.00, 561.1, 863.5)">r</text><text xml:space="preserve" font-family="Helvetica-Light,Helvetica" font-size="80.6" fill="#51A7F9" transform="matrix(1.00, 0.00, -0.00, -1.00, 588.0, 863.5)">s</text><text xml:space="preserve" font-family="Helvetica-Light,Helvetica" font-size="80.6" fill="#FEFFFE" transform="matrix(1.00, 0.00, -0.00, -1.00, 628.3, 863.5)"> </text><text xml:space="preserve" font-family="Helvetica-Light,Helvetica" font-size="80.6" fill="#FEFFFE" transform="matrix(1.00, 0.00, -0.00, -1.00, 650.7, 863.5)">t</text><text xml:space="preserve" font-family="Helvetica-Light,Helvetica" font-size="80.6" fill="#FEFFFE" transform="matrix(1.00, 0.00, -0.00, -1.00, 673.1, 863.5)">a</text><text xml:space="preserve" font-family="Helvetica-Light,Helvetica" font-size="80.6" fill="#FEFFFE" transform="matrix(1.00, 0.00, -0.00, -1.00, 717.9, 863.5)">b</text><text xml:space="preserve" font-family="Helvetica-Light,Helvetica" font-size="80.6" fill="#FEFFFE" transform="matrix(1.00, 0.00, -0.00, -1.00, 767.2, 863.5)">l</text><text xml:space="preserve" font-family="Helvetica-Light,Helvetica" font-size="80.6" fill="#FEFFFE" transform="matrix(1.00, 0.00, -0.00, -1.00, 785.1, 863.5)">e</text><text xml:space="preserve" font-family="Helvetica-Light,Helvetica" font-size="80.6" fill="#FEFFFE" transform="matrix(1.00, 0.00, -0.00, -1.00, 830.0, 863.5)"> </text><text xml:space="preserve" font-family="Helvetica-Light,Helvetica" font-size="80.6" fill="#FEFFFE" transform="matrix(1.00, 0.00, -0.00, -1.00, 852.4, 863.5)">c</text><text xml:space="preserve" font-family="Helvetica-Light,Helvetica" font-size="80.6" fill="#FEFFFE" transform="matrix(1.00, 0.00, -0.00, -1.00, 897.2, 863.5)">o</text><text xml:space="preserve" font-family="Helvetica-Light,Helvetica" font-size="80.6" fill="#FEFFFE" transform="matrix(1.00, 0.00, -0.00, -1.00, 942.0, 863.5)">n</text><text xml:space="preserve" font-family="Helvetica-Light,Helvetica" font-size="80.6" fill="#FEFFFE" transform="matrix(1.00, 0.00, -0.00, -1.00, 986.9, 863.5)">s</text><text xml:space="preserve" font-family="Helvetica-Light,Helvetica" font-size="80.6" fill="#FEFFFE" transform="matrix(1.00, 0.00, -0.00, -1.00, 1027.2, 863.5)">i</text><text xml:space="preserve" font-family="Helvetica-Light,Helvetica" font-size="80.6" fill="#FEFFFE" transform="matrix(1.00, 0.00, -0.00, -1.00, 1045.1, 863.5)">s</text><text xml:space="preserve" font-family="Helvetica-Light,Helvetica" font-size="80.6" fill="#FEFFFE" transform="matrix(1.00, 0.00, -0.00, -1.00, 1085.4, 863.5)">t</text><text xml:space="preserve" font-family="Helvetica-Light,Helvetica" font-size="80.6" fill="#FEFFFE" transform="matrix(1.00, 0.00, -0.00, -1.00, 1107.8, 863.5)"> </text><text xml:space="preserve" font-family="Helvetica-Light,Helvetica" font-size="80.6" fill="#FEFFFE" transform="matrix(1.00, 0.00, -0.00, -1.00, 1130.3, 863.5)">o</text><text xml:space="preserve" font-family="Helvetica-Light,Helvetica" font-size="80.6" fill="#FEFFFE" transform="matrix(1.00, 0.00, -0.00, -1.00, 1175.1, 863.5)">f</text><text xml:space="preserve" font-family="Helvetica-Light,Helvetica" font-size="80.6" fill="#FEFFFE" transform="matrix(1.00, 0.00, -0.00, -1.00, 1197.5, 863.5)"> </text><text xml:space="preserve" font-family="Helvetica-Bold,Helvetica" font-weight="bold" font-size="80.6" fill="#51A7F9" transform="matrix(1.00, 0.00, -0.00, -1.00, 1219.9, 863.5)">1</text><text xml:space="preserve" font-family="Helvetica-Bold,Helvetica" font-weight="bold" font-size="80.6" fill="#51A7F9" transform="matrix(1.00, 0.00, -0.00, -1.00, 1264.8, 863.5)">0</text><text xml:space="preserve" font-family="Helvetica-Bold,Helvetica" font-weight="bold" font-size="80.6" fill="#51A7F9" transform="matrix(1.00, 0.00, -0.00, -1.00, 1309.7, 863.5)">0</text><text xml:space="preserve" font-family="Helvetica-Bold,Helvetica" font-weight="bold" font-size="80.6" fill="#51A7F9" transform="matrix(1.00, 0.00, -0.00, -1.00, 1354.5, 863.5)"> </text><text xml:space="preserve" font-family="Helvetica-Bold,Helvetica" font-weight="bold" font-size="80.6" fill="#51A7F9" transform="matrix(1.00, 0.00, -0.00, -1.00, 1376.9, 863.5)">p</text><text xml:space="preserve" font-family="Helvetica-Bold,Helvetica" font-weight="bold" font-size="80.6" fill="#51A7F9" transform="matrix(1.00, 0.00, -0.00, -1.00, 1426.2, 863.5)">a</text><text xml:space="preserve" font-family="Helvetica-Bold,Helvetica" font-weight="bold" font-size="80.6" fill="#51A7F9" transform="matrix(1.00, 0.00, -0.00, -1.00, 1471.1, 863.5)">g</text><text xml:space="preserve" font-family="Helvetica-Bold,Helvetica" font-weight="bold" font-size="80.6" fill="#51A7F9" transform="matrix(1.00, 0.00, -0.00, -1.00, 1520.4, 863.5)">e</text><text xml:space="preserve" font-family="Helvetica-Bold,Helvetica" font-weight="bold" font-size="80.6" fill="#51A7F9" transform="matrix(1.00, 0.00, -0.00, -1.00, 1565.2, 863.5)">s</text><text xml:space="preserve" font-family="Helvetica-Light,Helvetica" font-size="80.6" fill="#FEFFFE" transform="matrix(1.00, 0.00, -0.00, -1.00, 1609.9, 863.5)"> </text><text xml:space="preserve" font-family="Helvetica-Light,Helvetica" font-size="80.6" fill="#FEFFFE" transform="matrix(1.00, 0.00, -0.00, -1.00, 1632.4, 863.5)">a</text><text xml:space="preserve" font-family="Helvetica-Light,Helvetica" font-size="80.6" fill="#FEFFFE" transform="matrix(1.00, 0.00, -0.00, -1.00, 1677.2, 863.5)">n</text><text xml:space="preserve" font-family="Helvetica-Light,Helvetica" font-size="80.6" fill="#FEFFFE" transform="matrix(1.00, 0.00, -0.00, -1.00, 1722.0, 863.5)">d</text><text xml:space="preserve" font-family="Helvetica-Light,Helvetica" font-size="80.6" fill="#FEFFFE" transform="matrix(1.00, 0.00, -0.00, -1.00, 1771.3, 863.5)"> </text><text xml:space="preserve" font-family="Helvetica-Light,Helvetica" font-size="80.6" fill="#FEFFFE" transform="matrix(1.00, 0.00, -0.00, -1.00, 198.0, 766.5)">t</text><text xml:space="preserve" font-family="Helvetica-Light,Helvetica" font-size="80.6" fill="#FEFFFE" transform="matrix(1.00, 0.00, -0.00, -1.00, 220.4, 766.5)">h</text><text xml:space="preserve" font-family="Helvetica-Light,Helvetica" font-size="80.6" fill="#FEFFFE" transform="matrix(1.00, 0.00, -0.00, -1.00, 265.2, 766.5)">e</text><text xml:space="preserve" font-family="Helvetica-Light,Helvetica" font-size="80.6" fill="#FEFFFE" transform="matrix(1.00, 0.00, -0.00, -1.00, 310.1, 766.5)"> </text><text xml:space="preserve" font-family="Helvetica-Light,Helvetica" font-size="80.6" fill="#F38F18" transform="matrix(1.00, 0.00, -0.00, -1.00, 332.5, 766.5)">R</text><text xml:space="preserve" font-family="Helvetica-Light,Helvetica" font-size="80.6" fill="#F38F18" transform="matrix(1.00, 0.00, -0.00, -1.00, 386.3, 766.5)">e</text><text xml:space="preserve" font-family="Helvetica-Light,Helvetica" font-size="80.6" fill="#F38F18" transform="matrix(1.00, 0.00, -0.00, -1.00, 431.1, 766.5)">s</text><text xml:space="preserve" font-family="Helvetica-Light,Helvetica" font-size="80.6" fill="#F38F18" transform="matrix(1.00, 0.00, -0.00, -1.00, 471.4, 766.5)">t</text><text xml:space="preserve" font-family="Helvetica-Light,Helvetica" font-size="80.6" fill="#F38F18" transform="matrix(1.00, 0.00, -0.00, -1.00, 493.8, 766.5)">a</text><text xml:space="preserve" font-family="Helvetica-Light,Helvetica" font-size="80.6" fill="#F38F18" transform="matrix(1.00, 0.00, -0.00, -1.00, 538.7, 766.5)">u</text><text xml:space="preserve" font-family="Helvetica-Light,Helvetica" font-size="80.6" fill="#F38F18" transform="matrix(1.00, 0.00, -0.00, -1.00, 583.5, 766.5)">r</text><text xml:space="preserve" font-family="Helvetica-Light,Helvetica" font-size="80.6" fill="#F38F18" transform="matrix(1.00, 0.00, -0.00, -1.00, 610.4, 766.5)">a</text><text xml:space="preserve" font-family="Helvetica-Light,Helvetica" font-size="80.6" fill="#F38F18" transform="matrix(1.00, 0.00, -0.00, -1.00, 655.2, 766.5)">n</text><text xml:space="preserve" font-family="Helvetica-Light,Helvetica" font-size="80.6" fill="#F38F18" transform="matrix(1.00, 0.00, -0.00, -1.00, 700.0, 766.5)">t</text><text xml:space="preserve" font-family="Helvetica-Light,Helvetica" font-size="80.6" fill="#F38F18" transform="matrix(1.00, 0.00, -0.00, -1.00, 722.5, 766.5)">s</text><text xml:space="preserve" font-family="Helvetica-Light,Helvetica" font-size="80.6" fill="#FEFFFE" transform="matrix(1.00, 0.00, -0.00, -1.00, 762.8, 766.5)"> </text><text xml:space="preserve" font-family="Helvetica-Light,Helvetica" font-size="80.6" fill="#FEFFFE" transform="matrix(1.00, 0.00, -0.00, -1.00, 785.2, 766.5)">t</text><text xml:space="preserve" font-family="Helvetica-Light,Helvetica" font-size="80.6" fill="#FEFFFE" transform="matrix(1.00, 0.00, -0.00, -1.00, 807.6, 766.5)">a</text><text xml:space="preserve" font-family="Helvetica-Light,Helvetica" font-size="80.6" fill="#FEFFFE" transform="matrix(1.00, 0.00, -0.00, -1.00, 852.5, 766.5)">b</text><text xml:space="preserve" font-family="Helvetica-Light,Helvetica" font-size="80.6" fill="#FEFFFE" transform="matrix(1.00, 0.00, -0.00, -1.00, 901.7, 766.5)">l</text><text xml:space="preserve" font-family="Helvetica-Light,Helvetica" font-size="80.6" fill="#FEFFFE" transform="matrix(1.00, 0.00, -0.00, -1.00, 919.6, 766.5)">e</text><text xml:space="preserve" font-family="Helvetica-Light,Helvetica" font-size="80.6" fill="#FEFFFE" transform="matrix(1.00, 0.00, -0.00, -1.00, 964.5, 766.5)"> </text><text xml:space="preserve" font-family="Helvetica-Light,Helvetica" font-size="80.6" fill="#FEFFFE" transform="matrix(1.00, 0.00, -0.00, -1.00, 986.9, 766.5)">c</text><text xml:space="preserve" font-family="Helvetica-Light,Helvetica" font-size="80.6" fill="#FEFFFE" transform="matrix(1.00, 0.00, -0.00, -1.00, 1031.7, 766.5)">o</text><text xml:space="preserve" font-family="Helvetica-Light,Helvetica" font-size="80.6" fill="#FEFFFE" transform="matrix(1.00, 0.00, -0.00, -1.00, 1076.6, 766.5)">n</text><text xml:space="preserve" font-family="Helvetica-Light,Helvetica" font-size="80.6" fill="#FEFFFE" transform="matrix(1.00, 0.00, -0.00, -1.00, 1121.4, 766.5)">s</text><text xml:space="preserve" font-family="Helvetica-Light,Helvetica" font-size="80.6" fill="#FEFFFE" transform="matrix(1.00, 0.00, -0.00, -1.00, 1161.7, 766.5)">i</text><text xml:space="preserve" font-family="Helvetica-Light,Helvetica" font-size="80.6" fill="#FEFFFE" transform="matrix(1.00, 0.00, -0.00, -1.00, 1179.6, 766.5)">s</text><text xml:space="preserve" font-family="Helvetica-Light,Helvetica" font-size="80.6" fill="#FEFFFE" transform="matrix(1.00, 0.00, -0.00, -1.00, 1219.9, 766.5)">t</text><text xml:space="preserve" font-family="Helvetica-Light,Helvetica" font-size="80.6" fill="#FEFFFE" transform="matrix(1.00, 0.00, -0.00, -1.00, 1242.3, 766.5)"> </text><text xml:space="preserve" font-family="Helvetica-Light,Helvetica" font-size="80.6" fill="#FEFFFE" transform="matrix(1.00, 0.00, -0.00, -1.00, 1264.8, 766.5)">o</text><text xml:space="preserve" font-family="Helvetica-Light,Helvetica" font-size="80.6" fill="#FEFFFE" transform="matrix(1.00, 0.00, -0.00, -1.00, 1309.6, 766.5)">f</text><text xml:space="preserve" font-family="Helvetica-Light,Helvetica" font-size="80.6" fill="#FEFFFE" transform="matrix(1.00, 0.00, -0.00, -1.00, 1332.0, 766.5)"> </text><text xml:space="preserve" font-family="Helvetica-Bold,Helvetica" font-weight="bold" font-size="80.6" fill="#F38F18" transform="matrix(1.00, 0.00, -0.00, -1.00, 1354.4, 766.5)">5</text><text xml:space="preserve" font-family="Helvetica-Bold,Helvetica" font-weight="bold" font-size="80.6" fill="#F38F18" transform="matrix(1.00, 0.00, -0.00, -1.00, 1399.3, 766.5)">0</text><text xml:space="preserve" font-family="Helvetica-Bold,Helvetica" font-weight="bold" font-size="80.6" fill="#F38F18" transform="matrix(1.00, 0.00, -0.00, -1.00, 1444.2, 766.5)"> </text><text xml:space="preserve" font-family="Helvetica-Bold,Helvetica" font-weight="bold" font-size="80.6" fill="#F38F18" transform="matrix(1.00, 0.00, -0.00, -1.00, 1466.6, 766.5)">p</text><text xml:space="preserve" font-family="Helvetica-Bold,Helvetica" font-weight="bold" font-size="80.6" fill="#F38F18" transform="matrix(1.00, 0.00, -0.00, -1.00, 1515.9, 766.5)">a</text><text xml:space="preserve" font-family="Helvetica-Bold,Helvetica" font-weight="bold" font-size="80.6" fill="#F38F18" transform="matrix(1.00, 0.00, -0.00, -1.00, 1560.7, 766.5)">g</text><text xml:space="preserve" font-family="Helvetica-Bold,Helvetica" font-weight="bold" font-size="80.6" fill="#F38F18" transform="matrix(1.00, 0.00, -0.00, -1.00, 1610.0, 766.5)">e</text><text xml:space="preserve" font-family="Helvetica-Bold,Helvetica" font-weight="bold" font-size="80.6" fill="#F38F18" transform="matrix(1.00, 0.00, -0.00, -1.00, 1654.9, 766.5)">s</text><text xml:space="preserve" font-family="Helvetica-Light,Helvetica" font-size="80.6" fill="#FEFFFE" transform="matrix(1.00, 0.00, -0.00, -1.00, 1699.6, 766.5)">.</text><text xml:space="preserve" font-family="Helvetica-Light,Helvetica" font-size="80.6" fill="#FEFFFE" transform="matrix(1.00, 0.00, -0.00, -1.00, 1722.0, 766.5)"> </text><text xml:space="preserve" font-family="Helvetica-Light,Helvetica" font-size="80.6" fill="#FEFFFE" transform="matrix(1.00, 0.00, -0.00, -1.00, 219.7, 669.5)">W</text><text xml:space="preserve" font-family="Helvetica-Light,Helvetica" font-size="80.6" fill="#FEFFFE" transform="matrix(1.00, 0.00, -0.00, -1.00, 290.0, 669.5)">e</text><text xml:space="preserve" font-family="Helvetica-Light,Helvetica" font-size="80.6" fill="#FEFFFE" transform="matrix(1.00, 0.00, -0.00, -1.00, 334.8, 669.5)"> </text><text xml:space="preserve" font-family="Helvetica-Light,Helvetica" font-size="80.6" fill="#FEFFFE" transform="matrix(1.00, 0.00, -0.00, -1.00, 357.2, 669.5)">h</text><text xml:space="preserve" font-family="Helvetica-Light,Helvetica" font-size="80.6" fill="#FEFFFE" transform="matrix(1.00, 0.00, -0.00, -1.00, 402.0, 669.5)">a</text><text xml:space="preserve" font-family="Helvetica-Light,Helvetica" font-size="80.6" fill="#FEFFFE" transform="matrix(1.00, 0.00, -0.00, -1.00, 446.9, 669.5)">v</text><text xml:space="preserve" font-family="Helvetica-Light,Helvetica" font-size="80.6" fill="#FEFFFE" transform="matrix(1.00, 0.00, -0.00, -1.00, 487.2, 669.5)">e</text><text xml:space="preserve" font-family="Helvetica-Light,Helvetica" font-size="80.6" fill="#FEFFFE" transform="matrix(1.00, 0.00, -0.00, -1.00, 532.0, 669.5)"> </text><text xml:space="preserve" font-family="Helvetica-Bold,Helvetica" font-weight="bold" font-size="80.6" fill="#FEFFFE" transform="matrix(1.00, 0.00, -0.00, -1.00, 554.5, 669.5)">1</text><text xml:space="preserve" font-family="Helvetica-Bold,Helvetica" font-weight="bold" font-size="80.6" fill="#FEFFFE" transform="matrix(1.00, 0.00, -0.00, -1.00, 599.3, 669.5)">2</text><text xml:space="preserve" font-family="Helvetica-Bold,Helvetica" font-weight="bold" font-size="80.6" fill="#FEFFFE" transform="matrix(1.00, 0.00, -0.00, -1.00, 644.2, 669.5)"> </text><text xml:space="preserve" font-family="Helvetica-Bold,Helvetica" font-weight="bold" font-size="80.6" fill="#FEFFFE" transform="matrix(1.00, 0.00, -0.00, -1.00, 666.6, 669.5)">p</text><text xml:space="preserve" font-family="Helvetica-Bold,Helvetica" font-weight="bold" font-size="80.6" fill="#FEFFFE" transform="matrix(1.00, 0.00, -0.00, -1.00, 715.9, 669.5)">a</text><text xml:space="preserve" font-family="Helvetica-Bold,Helvetica" font-weight="bold" font-size="80.6" fill="#FEFFFE" transform="matrix(1.00, 0.00, -0.00, -1.00, 760.7, 669.5)">g</text><text xml:space="preserve" font-family="Helvetica-Bold,Helvetica" font-weight="bold" font-size="80.6" fill="#FEFFFE" transform="matrix(1.00, 0.00, -0.00, -1.00, 810.0, 669.5)">e</text><text xml:space="preserve" font-family="Helvetica-Bold,Helvetica" font-weight="bold" font-size="80.6" fill="#FEFFFE" transform="matrix(1.00, 0.00, -0.00, -1.00, 854.9, 669.5)">s</text><text xml:space="preserve" font-family="Helvetica-Light,Helvetica" font-size="80.6" fill="#FEFFFE" transform="matrix(1.00, 0.00, -0.00, -1.00, 899.6, 669.5)"> </text><text xml:space="preserve" font-family="Helvetica-Light,Helvetica" font-size="80.6" fill="#FEFFFE" transform="matrix(1.00, 0.00, -0.00, -1.00, 922.0, 669.5)">a</text><text xml:space="preserve" font-family="Helvetica-Light,Helvetica" font-size="80.6" fill="#FEFFFE" transform="matrix(1.00, 0.00, -0.00, -1.00, 966.9, 669.5)">l</text><text xml:space="preserve" font-family="Helvetica-Light,Helvetica" font-size="80.6" fill="#FEFFFE" transform="matrix(1.00, 0.00, -0.00, -1.00, 984.8, 669.5)">l</text><text xml:space="preserve" font-family="Helvetica-Light,Helvetica" font-size="80.6" fill="#FEFFFE" transform="matrix(1.00, 0.00, -0.00, -1.00, 1002.7, 669.5)">o</text><text xml:space="preserve" font-family="Helvetica-Light,Helvetica" font-size="80.6" fill="#FEFFFE" transform="matrix(1.00, 0.00, -0.00, -1.00, 1047.5, 669.5)">c</text><text xml:space="preserve" font-family="Helvetica-Light,Helvetica" font-size="80.6" fill="#FEFFFE" transform="matrix(1.00, 0.00, -0.00, -1.00, 1092.3, 669.5)">a</text><text xml:space="preserve" font-family="Helvetica-Light,Helvetica" font-size="80.6" fill="#FEFFFE" transform="matrix(1.00, 0.00, -0.00, -1.00, 1137.2, 669.5)">t</text><text xml:space="preserve" font-family="Helvetica-Light,Helvetica" font-size="80.6" fill="#FEFFFE" transform="matrix(1.00, 0.00, -0.00, -1.00, 1159.6, 669.5)">e</text><text xml:space="preserve" font-family="Helvetica-Light,Helvetica" font-size="80.6" fill="#FEFFFE" transform="matrix(1.00, 0.00, -0.00, -1.00, 1204.4, 669.5)">d</text><text xml:space="preserve" font-family="Helvetica-Light,Helvetica" font-size="80.6" fill="#FEFFFE" transform="matrix(1.00, 0.00, -0.00, -1.00, 1253.7, 669.5)"> </text><text xml:space="preserve" font-family="Helvetica-Light,Helvetica" font-size="80.6" fill="#FEFFFE" transform="matrix(1.00, 0.00, -0.00, -1.00, 1276.1, 669.5)">f</text><text xml:space="preserve" font-family="Helvetica-Light,Helvetica" font-size="80.6" fill="#FEFFFE" transform="matrix(1.00, 0.00, -0.00, -1.00, 1298.5, 669.5)">o</text><text xml:space="preserve" font-family="Helvetica-Light,Helvetica" font-size="80.6" fill="#FEFFFE" transform="matrix(1.00, 0.00, -0.00, -1.00, 1343.4, 669.5)">r</text><text xml:space="preserve" font-family="Helvetica-Light,Helvetica" font-size="80.6" fill="#FEFFFE" transform="matrix(1.00, 0.00, -0.00, -1.00, 1370.2, 669.5)"> </text><text xml:space="preserve" font-family="Helvetica-Light,Helvetica" font-size="80.6" fill="#FEFFFE" transform="matrix(1.00, 0.00, -0.00, -1.00, 1392.6, 669.5)">m</text><text xml:space="preserve" font-family="Helvetica-Light,Helvetica" font-size="80.6" fill="#FEFFFE" transform="matrix(1.00, 0.00, -0.00, -1.00, 1459.8, 669.5)">e</text><text xml:space="preserve" font-family="Helvetica-Light,Helvetica" font-size="80.6" fill="#FEFFFE" transform="matrix(1.00, 0.00, -0.00, -1.00, 1504.7, 669.5)">m</text><text xml:space="preserve" font-family="Helvetica-Light,Helvetica" font-size="80.6" fill="#FEFFFE" transform="matrix(1.00, 0.00, -0.00, -1.00, 1571.8, 669.5)">o</text><text xml:space="preserve" font-family="Helvetica-Light,Helvetica" font-size="80.6" fill="#FEFFFE" transform="matrix(1.00, 0.00, -0.00, -1.00, 1616.7, 669.5)">r</text><text xml:space="preserve" font-family="Helvetica-Light,Helvetica" font-size="80.6" fill="#FEFFFE" transform="matrix(1.00, 0.00, -0.00, -1.00, 1645.0, 669.5)">y</text><text xml:space="preserve" font-family="Helvetica-Light,Helvetica" font-size="80.6" fill="#FEFFFE" transform="matrix(1.00, 0.00, -0.00, -1.00, 1677.9, 669.5)">.</text></g></svg>