<?xml version="1.0" encoding="UTF-8" standalone="no"?><svg xmlns="http://www.w3.org/2000/svg" xmlns:xlink="http://www.w3.org/1999/xlink" clip-rule="evenodd" stroke-miterlimit="10" viewBox="0 0 1920 1080"><desc>SVG generated by Keynote</desc><defs></defs><g transform="matrix(1.00, 0.00, -0.00, -1.00, 0.0, 1080.0)"><path d="M 0.0 1080.0 L 1920.0 1080.0 L 1920.0 0.0 L 0.0 0.0 Z M 0.0 1080.0 " fill="#FEFFFE"></path><g opacity="0.10"><g><clipPath id="clip0x600000ca7ec0"><path d="M 398.0 197.0 L 1522.0 197.0 L 1522.0 785.0 L 398.0 785.0 Z M 398.0 197.0 "></path></clipPath><g clip-path="url(#clip0x600000ca7ec0)"><path d="M 399.6 337.2 L 400.0 644.6 C 400.0 721.3 461.8 783.0 538.4 783.0 L 1381.6 783.0 C 1458.2 783.0 1520.0 721.3 1520.0 644.6 L 1520.0 337.2 C 1520.0 260.6 1458.2 198.0 1381.6 198.0 L 538.4 198.0 C 461.8 198.0 399.6 260.6 399.6 337.2 Z M 399.6 337.2 " fill="#51A7F9"></path></g></g></g><image xlink:href="../../7A891CD6-30C9-495E-B585-30EB97136078/assets/E963ED38151D91B3FD13FCB7AECE2B11.png" width="250.00" height="477.00" transform="matrix(1.00, 0.00, -0.00, -1.00, 467.0, 727.0)" opacity="0.50"></image><path d="M 470.0 300.7 L 470.0 680.3 C 470.0 705.6 490.5 726.0 515.7 726.0 L 668.4 726.0 C 693.6 726.0 714.0 705.6 714.0 680.3 L 714.0 300.7 C 714.0 275.5 693.6 255.0 668.4 255.0 L 515.7 255.0 C 490.5 255.0 470.0 275.5 470.0 300.7 Z M 470.0 300.7 " fill="#51A7F9"></path><text xml:space="preserve" font-family="Helvetica-Light,Helvetica" font-size="89.6" fill="#000000" transform="matrix(1.00, 0.00, -0.00, -1.00, 141.8, 881.6)">L</text><text xml:space="preserve" font-family="Helvetica-Light,Helvetica" font-size="89.6" fill="#000000" transform="matrix(1.00, 0.00, -0.00, -1.00, 191.6, 881.6)">e</text><text xml:space="preserve" font-family="Helvetica-Light,Helvetica" font-size="89.6" fill="#000000" transform="matrix(1.00, 0.00, -0.00, -1.00, 241.5, 881.6)">t</text><text xml:space="preserve" font-family="Helvetica-Light,Helvetica" font-size="89.6" fill="#000000" transform="matrix(1.00, 0.00, -0.00, -1.00, 266.4, 881.6)">’</text><text xml:space="preserve" font-family="Helvetica-Light,Helvetica" font-size="89.6" fill="#000000" transform="matrix(1.00, 0.00, -0.00, -1.00, 279.6, 881.6)">s</text><text xml:space="preserve" font-family="Helvetica-Light,Helvetica" font-size="89.6" fill="#000000" transform="matrix(1.00, 0.00, -0.00, -1.00, 324.4, 881.6)"> </text><text xml:space="preserve" font-family="Helvetica-Light,Helvetica" font-size="89.6" fill="#000000" transform="matrix(1.00, 0.00, -0.00, -1.00, 349.3, 881.6)">s</text><text xml:space="preserve" font-family="Helvetica-Light,Helvetica" font-size="89.6" fill="#000000" transform="matrix(1.00, 0.00, -0.00, -1.00, 394.1, 881.6)">t</text><text xml:space="preserve" font-family="Helvetica-Light,Helvetica" font-size="89.6" fill="#000000" transform="matrix(1.00, 0.00, -0.00, -1.00, 419.0, 881.6)">a</text><text xml:space="preserve" font-family="Helvetica-Light,Helvetica" font-size="89.6" fill="#000000" transform="matrix(1.00, 0.00, -0.00, -1.00, 468.9, 881.6)">r</text><text xml:space="preserve" font-family="Helvetica-Light,Helvetica" font-size="89.6" fill="#000000" transform="matrix(1.00, 0.00, -0.00, -1.00, 500.3, 881.6)">t</text><text xml:space="preserve" font-family="Helvetica-Light,Helvetica" font-size="89.6" fill="#000000" transform="matrix(1.00, 0.00, -0.00, -1.00, 525.2, 881.6)"> </text><text xml:space="preserve" font-family="Helvetica-Light,Helvetica" font-size="89.6" fill="#000000" transform="matrix(1.00, 0.00, -0.00, -1.00, 550.1, 881.6)">w</text><text xml:space="preserve" font-family="Helvetica-Light,Helvetica" font-size="89.6" fill="#000000" transform="matrix(1.00, 0.00, -0.00, -1.00, 614.8, 881.6)">i</text><text xml:space="preserve" font-family="Helvetica-Light,Helvetica" font-size="89.6" fill="#000000" transform="matrix(1.00, 0.00, -0.00, -1.00, 634.7, 881.6)">t</text><text xml:space="preserve" font-family="Helvetica-Light,Helvetica" font-size="89.6" fill="#000000" transform="matrix(1.00, 0.00, -0.00, -1.00, 659.6, 881.6)">h</text><text xml:space="preserve" font-family="Helvetica-Light,Helvetica" font-size="89.6" fill="#000000" transform="matrix(1.00, 0.00, -0.00, -1.00, 709.4, 881.6)"> </text><text xml:space="preserve" font-family="Helvetica-Light,Helvetica" font-size="89.6" fill="#000000" transform="matrix(1.00, 0.00, -0.00, -1.00, 734.3, 881.6)">2</text><text xml:space="preserve" font-family="Helvetica-Light,Helvetica" font-size="89.6" fill="#000000" transform="matrix(1.00, 0.00, -0.00, -1.00, 784.2, 881.6)">-</text><text xml:space="preserve" font-family="Helvetica-Light,Helvetica" font-size="89.6" fill="#000000" transform="matrix(1.00, 0.00, -0.00, -1.00, 814.0, 881.6)">w</text><text xml:space="preserve" font-family="Helvetica-Light,Helvetica" font-size="89.6" fill="#000000" transform="matrix(1.00, 0.00, -0.00, -1.00, 878.7, 881.6)">a</text><text xml:space="preserve" font-family="Helvetica-Light,Helvetica" font-size="89.6" fill="#000000" transform="matrix(1.00, 0.00, -0.00, -1.00, 928.5, 881.6)">y</text><text xml:space="preserve" font-family="Helvetica-Light,Helvetica" font-size="89.6" fill="#000000" transform="matrix(1.00, 0.00, -0.00, -1.00, 973.3, 881.6)"> </text><text xml:space="preserve" font-family="Helvetica-Light,Helvetica" font-size="89.6" fill="#000000" transform="matrix(1.00, 0.00, -0.00, -1.00, 998.2, 881.6)">e</text><text xml:space="preserve" font-family="Helvetica-Light,Helvetica" font-size="89.6" fill="#000000" transform="matrix(1.00, 0.00, -0.00, -1.00, 1048.0, 881.6)">x</text><text xml:space="preserve" font-family="Helvetica-Light,Helvetica" font-size="89.6" fill="#000000" transform="matrix(1.00, 0.00, -0.00, -1.00, 1092.8, 881.6)">t</text><text xml:space="preserve" font-family="Helvetica-Light,Helvetica" font-size="89.6" fill="#000000" transform="matrix(1.00, 0.00, -0.00, -1.00, 1117.7, 881.6)">e</text><text xml:space="preserve" font-family="Helvetica-Light,Helvetica" font-size="89.6" fill="#000000" transform="matrix(1.00, 0.00, -0.00, -1.00, 1167.6, 881.6)">r</text><text xml:space="preserve" font-family="Helvetica-Light,Helvetica" font-size="89.6" fill="#000000" transform="matrix(1.00, 0.00, -0.00, -1.00, 1199.0, 881.6)">n</text><text xml:space="preserve" font-family="Helvetica-Light,Helvetica" font-size="89.6" fill="#000000" transform="matrix(1.00, 0.00, -0.00, -1.00, 1248.8, 881.6)">a</text><text xml:space="preserve" font-family="Helvetica-Light,Helvetica" font-size="89.6" fill="#000000" transform="matrix(1.00, 0.00, -0.00, -1.00, 1298.6, 881.6)">l</text><text xml:space="preserve" font-family="Helvetica-Light,Helvetica" font-size="89.6" fill="#000000" transform="matrix(1.00, 0.00, -0.00, -1.00, 1318.5, 881.6)"> </text><text xml:space="preserve" font-family="Helvetica-Light,Helvetica" font-size="89.6" fill="#000000" transform="matrix(1.00, 0.00, -0.00, -1.00, 1343.4, 881.6)">m</text><text xml:space="preserve" font-family="Helvetica-Light,Helvetica" font-size="89.6" fill="#000000" transform="matrix(1.00, 0.00, -0.00, -1.00, 1418.1, 881.6)">e</text><text xml:space="preserve" font-family="Helvetica-Light,Helvetica" font-size="89.6" fill="#000000" transform="matrix(1.00, 0.00, -0.00, -1.00, 1467.9, 881.6)">r</text><text xml:space="preserve" font-family="Helvetica-Light,Helvetica" font-size="89.6" fill="#000000" transform="matrix(1.00, 0.00, -0.00, -1.00, 1497.7, 881.6)">g</text><text xml:space="preserve" font-family="Helvetica-Light,Helvetica" font-size="89.6" fill="#000000" transform="matrix(1.00, 0.00, -0.00, -1.00, 1552.5, 881.6)">e</text><text xml:space="preserve" font-family="Helvetica-Light,Helvetica" font-size="89.6" fill="#000000" transform="matrix(1.00, 0.00, -0.00, -1.00, 1602.3, 881.6)"> </text><text xml:space="preserve" font-family="Helvetica-Light,Helvetica" font-size="89.6" fill="#000000" transform="matrix(1.00, 0.00, -0.00, -1.00, 1627.2, 881.6)">s</text><text xml:space="preserve" font-family="Helvetica-Light,Helvetica" font-size="89.6" fill="#000000" transform="matrix(1.00, 0.00, -0.00, -1.00, 1672.0, 881.6)">o</text><text xml:space="preserve" font-family="Helvetica-Light,Helvetica" font-size="89.6" fill="#000000" transform="matrix(1.00, 0.00, -0.00, -1.00, 1721.8, 881.6)">r</text><text xml:space="preserve" font-family="Helvetica-Light,Helvetica" font-size="89.6" fill="#000000" transform="matrix(1.00, 0.00, -0.00, -1.00, 1753.3, 881.6)">t</text><image xlink:href="../../7A891CD6-30C9-495E-B585-30EB97136078/assets/52780A047FE2AE3F45E204A114AC44BA.png" width="190.00" height="190.00" transform="matrix(1.00, 0.00, -0.00, -1.00, 496.9, 691.2)" opacity="0.50"></image><path d="M 500.0 690.0 L 684.0 690.0 L 684.0 506.0 L 500.0 506.0 Z M 499.9 690.2 " fill="#002451"></path><g><clipPath id="clip0x608000ca0f00"><path d="M 495.8 505.8 L 688.3 505.8 L 688.3 690.2 L 495.8 690.2 Z M 495.8 505.8 "></path></clipPath><g clip-path="url(#clip0x608000ca0f00)"><text xml:space="preserve" font-family="Inconsolata,Inconsolata" font-size="32.0" fill="#FEFFFE" transform="matrix(1.00, 0.00, -0.00, -1.00, 536.0, 587.7)">I</text><text xml:space="preserve" font-family="Inconsolata,Inconsolata" font-size="32.0" fill="#FEFFFE" transform="matrix(1.00, 0.00, -0.00, -1.00, 552.0, 587.7)">n</text><text xml:space="preserve" font-family="Inconsolata,Inconsolata" font-size="32.0" fill="#FEFFFE" transform="matrix(1.00, 0.00, -0.00, -1.00, 568.0, 587.7)">p</text><text xml:space="preserve" font-family="Inconsolata,Inconsolata" font-size="32.0" fill="#FEFFFE" transform="matrix(1.00, 0.00, -0.00, -1.00, 584.0, 587.7)">u</text><text xml:space="preserve" font-family="Inconsolata,Inconsolata" font-size="32.0" fill="#FEFFFE" transform="matrix(1.00, 0.00, -0.00, -1.00, 600.0, 587.7)">t</text><text xml:space="preserve" font-family="Inconsolata,Inconsolata" font-size="32.0" fill="#FEFFFE" transform="matrix(1.00, 0.00, -0.00, -1.00, 616.0, 587.7)"> </text><text xml:space="preserve" font-family="Inconsolata,Inconsolata" font-size="32.0" fill="#FEFFFE" transform="matrix(1.00, 0.00, -0.00, -1.00, 632.0, 587.7)">1</text></g></g><image xlink:href="../../7A891CD6-30C9-495E-B585-30EB97136078/assets/D201EC51E9FBE286439AE4E172A92622.png" width="190.00" height="190.00" transform="matrix(1.00, 0.00, -0.00, -1.00, 496.9, 477.0)" opacity="0.50"></image><path d="M 500.0 476.0 L 684.0 476.0 L 684.0 292.0 L 500.0 292.0 Z M 499.9 476.0 " fill="#002451"></path><g><clipPath id="clip0x608000ca14a0"><path d="M 495.8 291.7 L 688.3 291.7 L 688.3 476.0 L 495.8 476.0 Z M 495.8 291.7 "></path></clipPath><g clip-path="url(#clip0x608000ca14a0)"><text xml:space="preserve" font-family="Inconsolata,Inconsolata" font-size="32.0" fill="#FEFFFE" transform="matrix(1.00, 0.00, -0.00, -1.00, 536.0, 373.5)">I</text><text xml:space="preserve" font-family="Inconsolata,Inconsolata" font-size="32.0" fill="#FEFFFE" transform="matrix(1.00, 0.00, -0.00, -1.00, 552.0, 373.5)">n</text><text xml:space="preserve" font-family="Inconsolata,Inconsolata" font-size="32.0" fill="#FEFFFE" transform="matrix(1.00, 0.00, -0.00, -1.00, 568.0, 373.5)">p</text><text xml:space="preserve" font-family="Inconsolata,Inconsolata" font-size="32.0" fill="#FEFFFE" transform="matrix(1.00, 0.00, -0.00, -1.00, 584.0, 373.5)">u</text><text xml:space="preserve" font-family="Inconsolata,Inconsolata" font-size="32.0" fill="#FEFFFE" transform="matrix(1.00, 0.00, -0.00, -1.00, 600.0, 373.5)">t</text><text xml:space="preserve" font-family="Inconsolata,Inconsolata" font-size="32.0" fill="#FEFFFE" transform="matrix(1.00, 0.00, -0.00, -1.00, 616.0, 373.5)"> </text><text xml:space="preserve" font-family="Inconsolata,Inconsolata" font-size="32.0" fill="#FEFFFE" transform="matrix(1.00, 0.00, -0.00, -1.00, 632.0, 373.5)">2</text></g></g><path d="M -0.2 0.4 L 450.3 0.4 L 456.8 0.4 " fill="none" stroke="#51A7F9" stroke-width="13.00" transform="matrix(1.00, 0.00, 0.00, -1.00, 710.2, 490.9)"></path><path d="M 1160.5 465.9 L 1209.7 490.5 L 1160.5 515.1 Z M 1160.5 465.9 " fill="#51A7F9"></path><text xml:space="preserve" font-family="Helvetica-Light,Helvetica" font-size="50.0" fill="#000000" transform="matrix(1.00, 0.00, -0.00, -1.00, 838.7, 527.5)">M</text><text xml:space="preserve" font-family="Helvetica-Light,Helvetica" font-size="50.0" fill="#000000" transform="matrix(1.00, 0.00, -0.00, -1.00, 880.4, 527.5)">e</text><text xml:space="preserve" font-family="Helvetica-Light,Helvetica" font-size="50.0" fill="#000000" transform="matrix(1.00, 0.00, -0.00, -1.00, 908.2, 527.5)">r</text><text xml:space="preserve" font-family="Helvetica-Light,Helvetica" font-size="50.0" fill="#000000" transform="matrix(1.00, 0.00, -0.00, -1.00, 924.8, 527.5)">g</text><text xml:space="preserve" font-family="Helvetica-Light,Helvetica" font-size="50.0" fill="#000000" transform="matrix(1.00, 0.00, -0.00, -1.00, 955.4, 527.5)">e</text><text xml:space="preserve" font-family="Helvetica-Light,Helvetica" font-size="50.0" fill="#000000" transform="matrix(1.00, 0.00, -0.00, -1.00, 983.2, 527.5)"> </text><text xml:space="preserve" font-family="Helvetica-Light,Helvetica" font-size="50.0" fill="#000000" transform="matrix(1.00, 0.00, -0.00, -1.00, 997.1, 527.5)">s</text><text xml:space="preserve" font-family="Helvetica-Light,Helvetica" font-size="50.0" fill="#000000" transform="matrix(1.00, 0.00, -0.00, -1.00, 1022.1, 527.5)">o</text><text xml:space="preserve" font-family="Helvetica-Light,Helvetica" font-size="50.0" fill="#000000" transform="matrix(1.00, 0.00, -0.00, -1.00, 1049.9, 527.5)">r</text><text xml:space="preserve" font-family="Helvetica-Light,Helvetica" font-size="50.0" fill="#000000" transform="matrix(1.00, 0.00, -0.00, -1.00, 1067.4, 527.5)">t</text><image xlink:href="../../7A891CD6-30C9-495E-B585-30EB97136078/assets/7BAEB9874A266F347DD6047E7CB10613.png" width="250.00" height="259.00" transform="matrix(1.00, 0.00, -0.00, -1.00, 1232.8, 618.2)" opacity="0.50"></image><path d="M 1235.8 410.3 L 1236.0 571.6 C 1236.0 596.8 1256.3 617.0 1281.5 617.0 L 1434.2 617.0 C 1459.4 617.0 1480.0 596.8 1480.0 571.6 L 1480.0 410.3 C 1480.0 385.0 1459.4 365.0 1434.2 365.0 L 1281.5 365.0 C 1256.3 365.0 1235.8 385.0 1235.8 410.3 Z M 1235.8 410.3 " fill="#51A7F9"></path><image xlink:href="../../7A891CD6-30C9-495E-B585-30EB97136078/assets/097E7F92386E6B69493CEFF1572E0C0F.png" width="190.00" height="190.00" transform="matrix(1.00, 0.00, -0.00, -1.00, 1262.7, 584.1)" opacity="0.50"></image><path d="M 1266.0 583.0 L 1450.0 583.0 L 1450.0 399.0 L 1266.0 399.0 Z M 1265.7 583.1 " fill="#002451"></path><g><clipPath id="clip0x608000ca21c0"><path d="M 1261.6 398.8 L 1454.1 398.8 L 1454.1 583.1 L 1261.6 583.1 Z M 1261.6 398.8 "></path></clipPath><g clip-path="url(#clip0x608000ca21c0)"><text xml:space="preserve" font-family="Inconsolata,Inconsolata" font-size="32.0" fill="#FEFFFE" transform="matrix(1.00, 0.00, -0.00, -1.00, 1309.8, 480.6)">O</text><text xml:space="preserve" font-family="Inconsolata,Inconsolata" font-size="32.0" fill="#FEFFFE" transform="matrix(1.00, 0.00, -0.00, -1.00, 1325.8, 480.6)">u</text><text xml:space="preserve" font-family="Inconsolata,Inconsolata" font-size="32.0" fill="#FEFFFE" transform="matrix(1.00, 0.00, -0.00, -1.00, 1341.8, 480.6)">t</text><text xml:space="preserve" font-family="Inconsolata,Inconsolata" font-size="32.0" fill="#FEFFFE" transform="matrix(1.00, 0.00, -0.00, -1.00, 1357.8, 480.6)">p</text><text xml:space="preserve" font-family="Inconsolata,Inconsolata" font-size="32.0" fill="#FEFFFE" transform="matrix(1.00, 0.00, -0.00, -1.00, 1373.8, 480.6)">u</text><text xml:space="preserve" font-family="Inconsolata,Inconsolata" font-size="32.0" fill="#FEFFFE" transform="matrix(1.00, 0.00, -0.00, -1.00, 1389.8, 480.6)">t</text></g></g><text xml:space="preserve" font-family="Helvetica-Light,Helvetica" font-size="50.0" fill="#0264C0" transform="matrix(1.00, 0.00, -0.00, -1.00, 617.8, 104.3)">B</text><text xml:space="preserve" font-family="Helvetica-Light,Helvetica" font-size="50.0" fill="#0264C0" transform="matrix(1.00, 0.00, -0.00, -1.00, 651.2, 104.3)">u</text><text xml:space="preserve" font-family="Helvetica-Light,Helvetica" font-size="50.0" fill="#0264C0" transform="matrix(1.00, 0.00, -0.00, -1.00, 679.0, 104.3)">f</text><text xml:space="preserve" font-family="Helvetica-Light,Helvetica" font-size="50.0" fill="#0264C0" transform="matrix(1.00, 0.00, -0.00, -1.00, 692.0, 104.3)">f</text><text xml:space="preserve" font-family="Helvetica-Light,Helvetica" font-size="50.0" fill="#0264C0" transform="matrix(1.00, 0.00, -0.00, -1.00, 705.9, 104.3)">e</text><text xml:space="preserve" font-family="Helvetica-Light,Helvetica" font-size="50.0" fill="#0264C0" transform="matrix(1.00, 0.00, -0.00, -1.00, 733.7, 104.3)">r</text><text xml:space="preserve" font-family="Helvetica-Light,Helvetica" font-size="50.0" fill="#0264C0" transform="matrix(1.00, 0.00, -0.00, -1.00, 750.3, 104.3)"> </text><text xml:space="preserve" font-family="Helvetica-Light,Helvetica" font-size="50.0" fill="#0264C0" transform="matrix(1.00, 0.00, -0.00, -1.00, 764.2, 104.3)">o</text><text xml:space="preserve" font-family="Helvetica-Light,Helvetica" font-size="50.0" fill="#0264C0" transform="matrix(1.00, 0.00, -0.00, -1.00, 792.0, 104.3)">f</text><text xml:space="preserve" font-family="Helvetica-Light,Helvetica" font-size="50.0" fill="#0264C0" transform="matrix(1.00, 0.00, -0.00, -1.00, 805.9, 104.3)"> </text><text xml:space="preserve" font-family="Helvetica-Light,Helvetica" font-size="50.0" fill="#0264C0" transform="matrix(1.00, 0.00, -0.00, -1.00, 819.8, 104.3)">s</text><text xml:space="preserve" font-family="Helvetica-Light,Helvetica" font-size="50.0" fill="#0264C0" transform="matrix(1.00, 0.00, -0.00, -1.00, 844.8, 104.3)">i</text><text xml:space="preserve" font-family="Helvetica-Light,Helvetica" font-size="50.0" fill="#0264C0" transform="matrix(1.00, 0.00, -0.00, -1.00, 855.9, 104.3)">z</text><text xml:space="preserve" font-family="Helvetica-Light,Helvetica" font-size="50.0" fill="#0264C0" transform="matrix(1.00, 0.00, -0.00, -1.00, 880.9, 104.3)">e</text><text xml:space="preserve" font-family="Helvetica-Light,Helvetica" font-size="50.0" fill="#0264C0" transform="matrix(1.00, 0.00, -0.00, -1.00, 908.7, 104.3)"> </text><text xml:space="preserve" font-family="Helvetica-Light,Helvetica" font-size="50.0" fill="#0264C0" transform="matrix(1.00, 0.00, -0.00, -1.00, 922.6, 104.3)">3</text><text xml:space="preserve" font-family="Helvetica-Light,Helvetica" font-size="50.0" fill="#0264C0" transform="matrix(1.00, 0.00, -0.00, -1.00, 950.4, 104.3)"> </text><text xml:space="preserve" font-family="Helvetica-Light,Helvetica" font-size="50.0" fill="#0264C0" transform="matrix(1.00, 0.00, -0.00, -1.00, 964.3, 104.3)">p</text><text xml:space="preserve" font-family="Helvetica-Light,Helvetica" font-size="50.0" fill="#0264C0" transform="matrix(1.00, 0.00, -0.00, -1.00, 994.9, 104.3)">a</text><text xml:space="preserve" font-family="Helvetica-Light,Helvetica" font-size="50.0" fill="#0264C0" transform="matrix(1.00, 0.00, -0.00, -1.00, 1022.7, 104.3)">g</text><text xml:space="preserve" font-family="Helvetica-Light,Helvetica" font-size="50.0" fill="#0264C0" transform="matrix(1.00, 0.00, -0.00, -1.00, 1053.2, 104.3)">e</text><text xml:space="preserve" font-family="Helvetica-Light,Helvetica" font-size="50.0" fill="#0264C0" transform="matrix(1.00, 0.00, -0.00, -1.00, 1081.0, 104.3)">s</text><text xml:space="preserve" font-family="Helvetica-Light,Helvetica" font-size="50.0" fill="#0264C0" transform="matrix(1.00, 0.00, -0.00, -1.00, 1106.0, 104.3)"> </text><text xml:space="preserve" font-family="Helvetica-Light,Helvetica" font-size="50.0" fill="#0264C0" transform="matrix(1.00, 0.00, -0.00, -1.00, 1119.9, 104.3)">(</text><text xml:space="preserve" font-family="Helvetica-Light,Helvetica" font-size="50.0" fill="#0264C0" transform="matrix(1.00, 0.00, -0.00, -1.00, 1136.6, 104.3)">M</text><text xml:space="preserve" font-family="Helvetica-Light,Helvetica" font-size="50.0" fill="#0264C0" transform="matrix(1.00, 0.00, -0.00, -1.00, 1178.2, 104.3)">e</text><text xml:space="preserve" font-family="Helvetica-Light,Helvetica" font-size="50.0" fill="#0264C0" transform="matrix(1.00, 0.00, -0.00, -1.00, 1206.0, 104.3)">m</text><text xml:space="preserve" font-family="Helvetica-Light,Helvetica" font-size="50.0" fill="#0264C0" transform="matrix(1.00, 0.00, -0.00, -1.00, 1247.7, 104.3)">o</text><text xml:space="preserve" font-family="Helvetica-Light,Helvetica" font-size="50.0" fill="#0264C0" transform="matrix(1.00, 0.00, -0.00, -1.00, 1275.5, 104.3)">r</text><text xml:space="preserve" font-family="Helvetica-Light,Helvetica" font-size="50.0" fill="#0264C0" transform="matrix(1.00, 0.00, -0.00, -1.00, 1293.0, 104.3)">y</text><text xml:space="preserve" font-family="Helvetica-Light,Helvetica" font-size="50.0" fill="#0264C0" transform="matrix(1.00, 0.00, -0.00, -1.00, 1318.0, 104.3)">)</text><g opacity="0.14"><g><clipPath id="clip0x608000ca2fa0"><path d="M 0.0 208.0 L 363.0 208.0 L 363.0 774.0 L 0.0 774.0 Z M 0.0 208.0 "></path></clipPath><g clip-path="url(#clip0x608000ca2fa0)"><path d="M -823.1 347.8 L -823.0 634.0 C -823.0 710.7 -760.9 773.0 -684.3 773.0 L 222.6 773.0 C 299.3 773.0 361.0 710.7 361.0 634.0 L 361.0 347.8 C 361.0 271.2 299.3 209.0 222.6 209.0 L -684.3 209.0 C -760.9 209.0 -823.1 271.2 -823.1 347.8 Z M -823.1 347.8 " fill="#F5D327"></path></g></g></g><text xml:space="preserve" font-family="Helvetica-Light,Helvetica" font-size="50.0" fill="#000000" transform="matrix(1.00, 0.00, -0.00, -1.00, 59.6, 449.5)">D</text><text xml:space="preserve" font-family="Helvetica-Light,Helvetica" font-size="50.0" fill="#000000" transform="matrix(1.00, 0.00, -0.00, -1.00, 95.7, 449.5)">i</text><text xml:space="preserve" font-family="Helvetica-Light,Helvetica" font-size="50.0" fill="#000000" transform="matrix(1.00, 0.00, -0.00, -1.00, 106.8, 449.5)">s</text><text xml:space="preserve" font-family="Helvetica-Light,Helvetica" font-size="50.0" fill="#000000" transform="matrix(1.00, 0.00, -0.00, -1.00, 131.8, 449.5)">k</text><text xml:space="preserve" font-family="Helvetica-Light,Helvetica" font-size="50.0" fill="#000000" transform="matrix(1.00, 0.00, -0.00, -1.00, 1723.6, 472.4)">D</text><text xml:space="preserve" font-family="Helvetica-Light,Helvetica" font-size="50.0" fill="#000000" transform="matrix(1.00, 0.00, -0.00, -1.00, 1759.7, 472.4)">i</text><text xml:space="preserve" font-family="Helvetica-Light,Helvetica" font-size="50.0" fill="#000000" transform="matrix(1.00, 0.00, -0.00, -1.00, 1770.8, 472.4)">s</text><text xml:space="preserve" font-family="Helvetica-Light,Helvetica" font-size="50.0" fill="#000000" transform="matrix(1.00, 0.00, -0.00, -1.00, 1795.8, 472.4)">k</text><path d="M 0.0 0.5 L 166.6 0.5 L 173.0 0.5 " fill="none" stroke="#F5D327" stroke-width="13.00" transform="matrix(1.00, 0.00, 0.00, -1.00, 258.0, 612.0)"></path><path d="M 424.5 586.9 L 473.7 611.5 L 424.5 636.1 Z M 424.5 586.9 " fill="#F5D327"></path><path d="M 0.0 0.3 L 166.6 0.3 L 173.0 0.3 " fill="none" stroke="#F5D327" stroke-width="13.00" transform="matrix(1.00, 0.00, 0.00, -1.00, 258.0, 383.8)"></path><path d="M 424.5 358.9 L 473.7 383.5 L 424.5 408.1 Z M 424.5 358.9 " fill="#F5D327"></path><path d="M 0.0 0.5 L 166.6 0.5 L 173.0 0.5 " fill="none" stroke="#F5D327" stroke-width="13.00" transform="matrix(1.00, 0.00, 0.00, -1.00, 1452.0, 540.0)"></path><path d="M 1618.5 514.9 L 1667.7 539.5 L 1618.5 564.1 Z M 1618.5 514.9 " fill="#F5D327"></path><g opacity="0.14"><g><clipPath id="clip0x608000ca3b40"><path d="M 1557.0 208.0 L 1920.0 208.0 L 1920.0 774.0 L 1557.0 774.0 Z M 1557.0 208.0 "></path></clipPath><g clip-path="url(#clip0x608000ca3b40)"><path d="M 1558.6 347.8 L 1559.0 634.0 C 1559.0 710.7 1620.7 773.0 1697.4 773.0 L 2604.3 773.0 C 2680.9 773.0 2743.0 710.7 2743.0 634.0 L 2743.0 347.8 C 2743.0 271.2 2680.9 209.0 2604.3 209.0 L 1697.4 209.0 C 1620.7 209.0 1558.6 271.2 1558.6 347.8 Z M 1558.6 347.8 " fill="#F5D327"></path></g></g></g><path d="M 0.0 -0.1 L 166.6 -0.1 L 173.0 -0.1 " fill="none" stroke="#F5D327" stroke-width="13.00" transform="matrix(1.00, 0.00, 0.00, -1.00, 1452.0, 451.4)"></path><path d="M 1618.5 426.9 L 1667.7 451.5 L 1618.5 476.1 Z M 1618.5 426.9 " fill="#F5D327"></path></g></svg>