<?xml version="1.0" encoding="UTF-8" standalone="no"?><svg xmlns="http://www.w3.org/2000/svg" xmlns:xlink="http://www.w3.org/1999/xlink" clip-rule="evenodd" stroke-miterlimit="10" viewBox="0 0 1920 1080"><desc>SVG generated by Keynote</desc><defs></defs><g transform="matrix(1.00, 0.00, -0.00, -1.00, 0.0, 1080.0)"><path d="M 0.0 1080.0 L 1920.0 1080.0 L 1920.0 0.0 L 0.0 0.0 Z M 0.0 1080.0 " fill="#FEFFFF"></path><text xml:space="preserve" font-family="Helvetica-Light,Helvetica" font-size="112.0" fill="#000000" transform="matrix(1.00, 0.00, -0.00, -1.00, 303.4, 873.8)">S</text><text xml:space="preserve" font-family="Helvetica-Light,Helvetica" font-size="112.0" fill="#000000" transform="matrix(1.00, 0.00, -0.00, -1.00, 371.8, 873.8)">i</text><text xml:space="preserve" font-family="Helvetica-Light,Helvetica" font-size="112.0" fill="#000000" transform="matrix(1.00, 0.00, -0.00, -1.00, 396.7, 873.8)">m</text><text xml:space="preserve" font-family="Helvetica-Light,Helvetica" font-size="112.0" fill="#000000" transform="matrix(1.00, 0.00, -0.00, -1.00, 490.0, 873.8)">p</text><text xml:space="preserve" font-family="Helvetica-Light,Helvetica" font-size="112.0" fill="#000000" transform="matrix(1.00, 0.00, -0.00, -1.00, 558.4, 873.8)">l</text><text xml:space="preserve" font-family="Helvetica-Light,Helvetica" font-size="112.0" fill="#000000" transform="matrix(1.00, 0.00, -0.00, -1.00, 583.3, 873.8)">e</text><text xml:space="preserve" font-family="Helvetica-Light,Helvetica" font-size="112.0" fill="#000000" transform="matrix(1.00, 0.00, -0.00, -1.00, 645.6, 873.8)"> </text><text xml:space="preserve" font-family="Helvetica-Light,Helvetica" font-size="112.0" fill="#000000" transform="matrix(1.00, 0.00, -0.00, -1.00, 676.7, 873.8)">N</text><text xml:space="preserve" font-family="Helvetica-Light,Helvetica" font-size="112.0" fill="#000000" transform="matrix(1.00, 0.00, -0.00, -1.00, 757.6, 873.8)">e</text><text xml:space="preserve" font-family="Helvetica-Light,Helvetica" font-size="112.0" fill="#000000" transform="matrix(1.00, 0.00, -0.00, -1.00, 819.8, 873.8)">s</text><text xml:space="preserve" font-family="Helvetica-Light,Helvetica" font-size="112.0" fill="#000000" transform="matrix(1.00, 0.00, -0.00, -1.00, 875.8, 873.8)">t</text><text xml:space="preserve" font-family="Helvetica-Light,Helvetica" font-size="112.0" fill="#000000" transform="matrix(1.00, 0.00, -0.00, -1.00, 907.0, 873.8)">e</text><text xml:space="preserve" font-family="Helvetica-Light,Helvetica" font-size="112.0" fill="#000000" transform="matrix(1.00, 0.00, -0.00, -1.00, 969.2, 873.8)">d</text><text xml:space="preserve" font-family="Helvetica-Light,Helvetica" font-size="112.0" fill="#000000" transform="matrix(1.00, 0.00, -0.00, -1.00, 1037.7, 873.8)"> </text><text xml:space="preserve" font-family="Helvetica-Light,Helvetica" font-size="112.0" fill="#000000" transform="matrix(1.00, 0.00, -0.00, -1.00, 1068.8, 873.8)">L</text><text xml:space="preserve" font-family="Helvetica-Light,Helvetica" font-size="112.0" fill="#000000" transform="matrix(1.00, 0.00, -0.00, -1.00, 1131.1, 873.8)">o</text><text xml:space="preserve" font-family="Helvetica-Light,Helvetica" font-size="112.0" fill="#000000" transform="matrix(1.00, 0.00, -0.00, -1.00, 1193.4, 873.8)">o</text><text xml:space="preserve" font-family="Helvetica-Light,Helvetica" font-size="112.0" fill="#000000" transform="matrix(1.00, 0.00, -0.00, -1.00, 1255.6, 873.8)">p</text><text xml:space="preserve" font-family="Helvetica-Light,Helvetica" font-size="112.0" fill="#000000" transform="matrix(1.00, 0.00, -0.00, -1.00, 1324.1, 873.8)">s</text><text xml:space="preserve" font-family="Helvetica-Light,Helvetica" font-size="112.0" fill="#000000" transform="matrix(1.00, 0.00, -0.00, -1.00, 1380.1, 873.8)"> </text><text xml:space="preserve" font-family="Helvetica-Light,Helvetica" font-size="112.0" fill="#000000" transform="matrix(1.00, 0.00, -0.00, -1.00, 1411.2, 873.8)">J</text><text xml:space="preserve" font-family="Helvetica-Light,Helvetica" font-size="112.0" fill="#000000" transform="matrix(1.00, 0.00, -0.00, -1.00, 1467.2, 873.8)">o</text><text xml:space="preserve" font-family="Helvetica-Light,Helvetica" font-size="112.0" fill="#000000" transform="matrix(1.00, 0.00, -0.00, -1.00, 1529.5, 873.8)">i</text><text xml:space="preserve" font-family="Helvetica-Light,Helvetica" font-size="112.0" fill="#000000" transform="matrix(1.00, 0.00, -0.00, -1.00, 1554.3, 873.8)">n</text><text xml:space="preserve" font-family="Inconsolata,Inconsolata" font-size="75.0" fill="#000000" transform="matrix(1.00, 0.00, -0.00, -1.00, 325.2, 686.1)">f</text><text xml:space="preserve" font-family="Inconsolata,Inconsolata" font-size="75.0" fill="#000000" transform="matrix(1.00, 0.00, -0.00, -1.00, 362.7, 686.1)">o</text><text xml:space="preserve" font-family="Inconsolata,Inconsolata" font-size="75.0" fill="#000000" transform="matrix(1.00, 0.00, -0.00, -1.00, 400.2, 686.1)">r</text><text xml:space="preserve" font-family="Inconsolata,Inconsolata" font-size="75.0" fill="#000000" transform="matrix(1.00, 0.00, -0.00, -1.00, 437.7, 686.1)"> </text><text xml:space="preserve" font-family="Inconsolata,Inconsolata" font-size="75.0" fill="#000000" transform="matrix(1.00, 0.00, -0.00, -1.00, 475.2, 686.1)">e</text><text xml:space="preserve" font-family="Inconsolata,Inconsolata" font-size="75.0" fill="#000000" transform="matrix(1.00, 0.00, -0.00, -1.00, 512.7, 686.1)">a</text><text xml:space="preserve" font-family="Inconsolata,Inconsolata" font-size="75.0" fill="#000000" transform="matrix(1.00, 0.00, -0.00, -1.00, 550.2, 686.1)">c</text><text xml:space="preserve" font-family="Inconsolata,Inconsolata" font-size="75.0" fill="#000000" transform="matrix(1.00, 0.00, -0.00, -1.00, 587.7, 686.1)">h</text><text xml:space="preserve" font-family="Inconsolata,Inconsolata" font-size="75.0" fill="#000000" transform="matrix(1.00, 0.00, -0.00, -1.00, 625.2, 686.1)"> </text><text xml:space="preserve" font-family="Inconsolata,Inconsolata" font-size="75.0" fill="#000000" transform="matrix(1.00, 0.00, -0.00, -1.00, 662.7, 686.1)">r</text><text xml:space="preserve" font-family="Inconsolata,Inconsolata" font-size="75.0" fill="#000000" transform="matrix(1.00, 0.00, -0.00, -1.00, 700.2, 686.1)">e</text><text xml:space="preserve" font-family="Inconsolata,Inconsolata" font-size="75.0" fill="#000000" transform="matrix(1.00, 0.00, -0.00, -1.00, 737.7, 686.1)">c</text><text xml:space="preserve" font-family="Inconsolata,Inconsolata" font-size="75.0" fill="#000000" transform="matrix(1.00, 0.00, -0.00, -1.00, 775.2, 686.1)">o</text><text xml:space="preserve" font-family="Inconsolata,Inconsolata" font-size="75.0" fill="#000000" transform="matrix(1.00, 0.00, -0.00, -1.00, 812.7, 686.1)">r</text><text xml:space="preserve" font-family="Inconsolata,Inconsolata" font-size="75.0" fill="#000000" transform="matrix(1.00, 0.00, -0.00, -1.00, 850.2, 686.1)">d</text><text xml:space="preserve" font-family="Inconsolata,Inconsolata" font-size="75.0" fill="#000000" transform="matrix(1.00, 0.00, -0.00, -1.00, 887.7, 686.1)"> </text><text xml:space="preserve" font-family="Inconsolata,Inconsolata" font-size="75.0" fill="#51A7F9" transform="matrix(1.00, 0.00, -0.00, -1.00, 925.2, 686.1)">r</text><text xml:space="preserve" font-family="Inconsolata,Inconsolata" font-size="75.0" fill="#000000" transform="matrix(1.00, 0.00, -0.00, -1.00, 962.7, 686.1)"> </text><text xml:space="preserve" font-family="Inconsolata,Inconsolata" font-size="75.0" fill="#000000" transform="matrix(1.00, 0.00, -0.00, -1.00, 1000.2, 686.1)">i</text><text xml:space="preserve" font-family="Inconsolata,Inconsolata" font-size="75.0" fill="#000000" transform="matrix(1.00, 0.00, -0.00, -1.00, 1037.7, 686.1)">n</text><text xml:space="preserve" font-family="Inconsolata,Inconsolata" font-size="75.0" fill="#000000" transform="matrix(1.00, 0.00, -0.00, -1.00, 1075.2, 686.1)"> </text><text xml:space="preserve" font-family="Inconsolata,Inconsolata" font-size="75.0" fill="#0264C0" transform="matrix(1.00, 0.00, -0.00, -1.00, 1112.7, 686.1)">R</text><text xml:space="preserve" font-family="Inconsolata,Inconsolata" font-size="75.0" fill="#000000" transform="matrix(1.00, 0.00, -0.00, -1.00, 1150.2, 686.1)">:</text><text xml:space="preserve" font-family="Inconsolata,Inconsolata" font-size="75.0" fill="#000000" transform="matrix(1.00, 0.00, -0.00, -1.00, 1187.7, 686.1)"> </text><text xml:space="preserve" font-family="Inconsolata,Inconsolata" font-size="75.0" fill="#000000" transform="matrix(1.00, 0.00, -0.00, -1.00, 325.2, 603.1)"> </text><text xml:space="preserve" font-family="Inconsolata,Inconsolata" font-size="75.0" fill="#000000" transform="matrix(1.00, 0.00, -0.00, -1.00, 362.7, 603.1)"> </text><text xml:space="preserve" font-family="Inconsolata,Inconsolata" font-size="75.0" fill="#000000" transform="matrix(1.00, 0.00, -0.00, -1.00, 400.2, 603.1)"> </text><text xml:space="preserve" font-family="Inconsolata,Inconsolata" font-size="75.0" fill="#000000" transform="matrix(1.00, 0.00, -0.00, -1.00, 437.7, 603.1)"> </text><text xml:space="preserve" font-family="Inconsolata,Inconsolata" font-size="75.0" fill="#000000" transform="matrix(1.00, 0.00, -0.00, -1.00, 475.2, 603.1)">f</text><text xml:space="preserve" font-family="Inconsolata,Inconsolata" font-size="75.0" fill="#000000" transform="matrix(1.00, 0.00, -0.00, -1.00, 512.7, 603.1)">o</text><text xml:space="preserve" font-family="Inconsolata,Inconsolata" font-size="75.0" fill="#000000" transform="matrix(1.00, 0.00, -0.00, -1.00, 550.2, 603.1)">r</text><text xml:space="preserve" font-family="Inconsolata,Inconsolata" font-size="75.0" fill="#000000" transform="matrix(1.00, 0.00, -0.00, -1.00, 587.7, 603.1)"> </text><text xml:space="preserve" font-family="Inconsolata,Inconsolata" font-size="75.0" fill="#000000" transform="matrix(1.00, 0.00, -0.00, -1.00, 625.2, 603.1)">e</text><text xml:space="preserve" font-family="Inconsolata,Inconsolata" font-size="75.0" fill="#000000" transform="matrix(1.00, 0.00, -0.00, -1.00, 662.7, 603.1)">a</text><text xml:space="preserve" font-family="Inconsolata,Inconsolata" font-size="75.0" fill="#000000" transform="matrix(1.00, 0.00, -0.00, -1.00, 700.2, 603.1)">c</text><text xml:space="preserve" font-family="Inconsolata,Inconsolata" font-size="75.0" fill="#000000" transform="matrix(1.00, 0.00, -0.00, -1.00, 737.7, 603.1)">h</text><text xml:space="preserve" font-family="Inconsolata,Inconsolata" font-size="75.0" fill="#000000" transform="matrix(1.00, 0.00, -0.00, -1.00, 775.2, 603.1)"> </text><text xml:space="preserve" font-family="Inconsolata,Inconsolata" font-size="75.0" fill="#000000" transform="matrix(1.00, 0.00, -0.00, -1.00, 812.7, 603.1)">r</text><text xml:space="preserve" font-family="Inconsolata,Inconsolata" font-size="75.0" fill="#000000" transform="matrix(1.00, 0.00, -0.00, -1.00, 850.2, 603.1)">e</text><text xml:space="preserve" font-family="Inconsolata,Inconsolata" font-size="75.0" fill="#000000" transform="matrix(1.00, 0.00, -0.00, -1.00, 887.7, 603.1)">c</text><text xml:space="preserve" font-family="Inconsolata,Inconsolata" font-size="75.0" fill="#000000" transform="matrix(1.00, 0.00, -0.00, -1.00, 925.2, 603.1)">o</text><text xml:space="preserve" font-family="Inconsolata,Inconsolata" font-size="75.0" fill="#000000" transform="matrix(1.00, 0.00, -0.00, -1.00, 962.7, 603.1)">r</text><text xml:space="preserve" font-family="Inconsolata,Inconsolata" font-size="75.0" fill="#000000" transform="matrix(1.00, 0.00, -0.00, -1.00, 1000.2, 603.1)">d</text><text xml:space="preserve" font-family="Inconsolata,Inconsolata" font-size="75.0" fill="#000000" transform="matrix(1.00, 0.00, -0.00, -1.00, 1037.7, 603.1)"> </text><text xml:space="preserve" font-family="Inconsolata,Inconsolata" font-size="75.0" fill="#F38F18" transform="matrix(1.00, 0.00, -0.00, -1.00, 1075.2, 603.1)">s</text><text xml:space="preserve" font-family="Inconsolata,Inconsolata" font-size="75.0" fill="#000000" transform="matrix(1.00, 0.00, -0.00, -1.00, 1112.7, 603.1)"> </text><text xml:space="preserve" font-family="Inconsolata,Inconsolata" font-size="75.0" fill="#000000" transform="matrix(1.00, 0.00, -0.00, -1.00, 1150.2, 603.1)">i</text><text xml:space="preserve" font-family="Inconsolata,Inconsolata" font-size="75.0" fill="#000000" transform="matrix(1.00, 0.00, -0.00, -1.00, 1187.7, 603.1)">n</text><text xml:space="preserve" font-family="Inconsolata,Inconsolata" font-size="75.0" fill="#000000" transform="matrix(1.00, 0.00, -0.00, -1.00, 1225.2, 603.1)"> </text><text xml:space="preserve" font-family="Inconsolata,Inconsolata" font-size="75.0" fill="#BD5A0C" transform="matrix(1.00, 0.00, -0.00, -1.00, 1262.7, 603.1)">S</text><text xml:space="preserve" font-family="Inconsolata,Inconsolata" font-size="75.0" fill="#000000" transform="matrix(1.00, 0.00, -0.00, -1.00, 1300.2, 603.1)">:</text><text xml:space="preserve" font-family="Inconsolata,Inconsolata" font-size="75.0" fill="#000000" transform="matrix(1.00, 0.00, -0.00, -1.00, 1337.7, 603.1)"> </text><text xml:space="preserve" font-family="Inconsolata,Inconsolata" font-size="75.0" fill="#000000" transform="matrix(1.00, 0.00, -0.00, -1.00, 325.2, 520.1)"> </text><text xml:space="preserve" font-family="Inconsolata,Inconsolata" font-size="75.0" fill="#000000" transform="matrix(1.00, 0.00, -0.00, -1.00, 362.7, 520.1)"> </text><text xml:space="preserve" font-family="Inconsolata,Inconsolata" font-size="75.0" fill="#000000" transform="matrix(1.00, 0.00, -0.00, -1.00, 400.2, 520.1)"> </text><text xml:space="preserve" font-family="Inconsolata,Inconsolata" font-size="75.0" fill="#000000" transform="matrix(1.00, 0.00, -0.00, -1.00, 437.7, 520.1)"> </text><text xml:space="preserve" font-family="Inconsolata,Inconsolata" font-size="75.0" fill="#000000" transform="matrix(1.00, 0.00, -0.00, -1.00, 475.2, 520.1)"> </text><text xml:space="preserve" font-family="Inconsolata,Inconsolata" font-size="75.0" fill="#000000" transform="matrix(1.00, 0.00, -0.00, -1.00, 512.7, 520.1)"> </text><text xml:space="preserve" font-family="Inconsolata,Inconsolata" font-size="75.0" fill="#000000" transform="matrix(1.00, 0.00, -0.00, -1.00, 550.2, 520.1)"> </text><text xml:space="preserve" font-family="Inconsolata,Inconsolata" font-size="75.0" fill="#000000" transform="matrix(1.00, 0.00, -0.00, -1.00, 587.7, 520.1)"> </text><text xml:space="preserve" font-family="Inconsolata,Inconsolata" font-size="75.0" fill="#000000" transform="matrix(1.00, 0.00, -0.00, -1.00, 625.2, 520.1)">i</text><text xml:space="preserve" font-family="Inconsolata,Inconsolata" font-size="75.0" fill="#000000" transform="matrix(1.00, 0.00, -0.00, -1.00, 662.7, 520.1)">f</text><text xml:space="preserve" font-family="Inconsolata,Inconsolata" font-size="75.0" fill="#000000" transform="matrix(1.00, 0.00, -0.00, -1.00, 700.2, 520.1)"> </text><text xml:space="preserve" font-family="Inconsolata,Inconsolata" font-size="75.0" fill="#000000" transform="matrix(1.00, 0.00, -0.00, -1.00, 737.7, 520.1)">t</text><text xml:space="preserve" font-family="Inconsolata,Inconsolata" font-size="75.0" fill="#000000" transform="matrix(1.00, 0.00, -0.00, -1.00, 775.2, 520.1)">h</text><text xml:space="preserve" font-family="Inconsolata,Inconsolata" font-size="75.0" fill="#000000" transform="matrix(1.00, 0.00, -0.00, -1.00, 812.7, 520.1)">e</text><text xml:space="preserve" font-family="Inconsolata,Inconsolata" font-size="75.0" fill="#000000" transform="matrix(1.00, 0.00, -0.00, -1.00, 850.2, 520.1)">t</text><text xml:space="preserve" font-family="Inconsolata,Inconsolata" font-size="75.0" fill="#000000" transform="matrix(1.00, 0.00, -0.00, -1.00, 887.7, 520.1)">a</text><text xml:space="preserve" font-family="Inconsolata,Inconsolata" font-size="75.0" fill="#000000" transform="matrix(1.00, 0.00, -0.00, -1.00, 925.2, 520.1)">(</text><text xml:space="preserve" font-family="Inconsolata,Inconsolata" font-size="75.0" fill="#51A7F9" transform="matrix(1.00, 0.00, -0.00, -1.00, 962.7, 520.1)">r</text><text xml:space="preserve" font-family="Inconsolata,Inconsolata" font-size="75.0" fill="#51A7F9" transform="matrix(1.00, 0.00, -0.00, -1.00, 1000.2, 520.1)">(</text><text xml:space="preserve" font-family="Inconsolata,Inconsolata" font-size="75.0" fill="#51A7F9" transform="matrix(1.00, 0.00, -0.00, -1.00, 1037.7, 520.1)">i</text><text xml:space="preserve" font-family="Inconsolata,Inconsolata" font-size="75.0" fill="#51A7F9" transform="matrix(1.00, 0.00, -0.00, -1.00, 1075.2, 520.1)">)</text><text xml:space="preserve" font-family="Inconsolata,Inconsolata" font-size="75.0" fill="#000000" transform="matrix(1.00, 0.00, -0.00, -1.00, 1112.7, 520.1)">,</text><text xml:space="preserve" font-family="Inconsolata,Inconsolata" font-size="75.0" fill="#000000" transform="matrix(1.00, 0.00, -0.00, -1.00, 1150.2, 520.1)"> </text><text xml:space="preserve" font-family="Inconsolata,Inconsolata" font-size="75.0" fill="#F38F18" transform="matrix(1.00, 0.00, -0.00, -1.00, 1187.7, 520.1)">s</text><text xml:space="preserve" font-family="Inconsolata,Inconsolata" font-size="75.0" fill="#F38F18" transform="matrix(1.00, 0.00, -0.00, -1.00, 1225.2, 520.1)">(</text><text xml:space="preserve" font-family="Inconsolata,Inconsolata" font-size="75.0" fill="#F38F18" transform="matrix(1.00, 0.00, -0.00, -1.00, 1262.7, 520.1)">j</text><text xml:space="preserve" font-family="Inconsolata,Inconsolata" font-size="75.0" fill="#F38F18" transform="matrix(1.00, 0.00, -0.00, -1.00, 1300.2, 520.1)">)</text><text xml:space="preserve" font-family="Inconsolata,Inconsolata" font-size="75.0" fill="#000000" transform="matrix(1.00, 0.00, -0.00, -1.00, 1337.7, 520.1)">)</text><text xml:space="preserve" font-family="Inconsolata,Inconsolata" font-size="75.0" fill="#000000" transform="matrix(1.00, 0.00, -0.00, -1.00, 1375.2, 520.1)">:</text><text xml:space="preserve" font-family="Inconsolata,Inconsolata" font-size="75.0" fill="#000000" transform="matrix(1.00, 0.00, -0.00, -1.00, 1412.7, 520.1)"> </text><text xml:space="preserve" font-family="Inconsolata,Inconsolata" font-size="75.0" fill="#000000" transform="matrix(1.00, 0.00, -0.00, -1.00, 325.2, 437.1)"> </text><text xml:space="preserve" font-family="Inconsolata,Inconsolata" font-size="75.0" fill="#000000" transform="matrix(1.00, 0.00, -0.00, -1.00, 362.7, 437.1)"> </text><text xml:space="preserve" font-family="Inconsolata,Inconsolata" font-size="75.0" fill="#000000" transform="matrix(1.00, 0.00, -0.00, -1.00, 400.2, 437.1)"> </text><text xml:space="preserve" font-family="Inconsolata,Inconsolata" font-size="75.0" fill="#000000" transform="matrix(1.00, 0.00, -0.00, -1.00, 437.7, 437.1)"> </text><text xml:space="preserve" font-family="Inconsolata,Inconsolata" font-size="75.0" fill="#000000" transform="matrix(1.00, 0.00, -0.00, -1.00, 475.2, 437.1)"> </text><text xml:space="preserve" font-family="Inconsolata,Inconsolata" font-size="75.0" fill="#000000" transform="matrix(1.00, 0.00, -0.00, -1.00, 512.7, 437.1)"> </text><text xml:space="preserve" font-family="Inconsolata,Inconsolata" font-size="75.0" fill="#000000" transform="matrix(1.00, 0.00, -0.00, -1.00, 550.2, 437.1)"> </text><text xml:space="preserve" font-family="Inconsolata,Inconsolata" font-size="75.0" fill="#000000" transform="matrix(1.00, 0.00, -0.00, -1.00, 587.7, 437.1)"> </text><text xml:space="preserve" font-family="Inconsolata,Inconsolata" font-size="75.0" fill="#000000" transform="matrix(1.00, 0.00, -0.00, -1.00, 625.2, 437.1)"> </text><text xml:space="preserve" font-family="Inconsolata,Inconsolata" font-size="75.0" fill="#000000" transform="matrix(1.00, 0.00, -0.00, -1.00, 662.7, 437.1)"> </text><text xml:space="preserve" font-family="Inconsolata,Inconsolata" font-size="75.0" fill="#000000" transform="matrix(1.00, 0.00, -0.00, -1.00, 700.2, 437.1)"> </text><text xml:space="preserve" font-family="Inconsolata,Inconsolata" font-size="75.0" fill="#000000" transform="matrix(1.00, 0.00, -0.00, -1.00, 737.7, 437.1)"> </text><text xml:space="preserve" font-family="Inconsolata,Inconsolata" font-size="75.0" fill="#000000" transform="matrix(1.00, 0.00, -0.00, -1.00, 775.2, 437.1)">a</text><text xml:space="preserve" font-family="Inconsolata,Inconsolata" font-size="75.0" fill="#000000" transform="matrix(1.00, 0.00, -0.00, -1.00, 812.7, 437.1)">d</text><text xml:space="preserve" font-family="Inconsolata,Inconsolata" font-size="75.0" fill="#000000" transform="matrix(1.00, 0.00, -0.00, -1.00, 850.2, 437.1)">d</text><text xml:space="preserve" font-family="Inconsolata,Inconsolata" font-size="75.0" fill="#000000" transform="matrix(1.00, 0.00, -0.00, -1.00, 887.7, 437.1)"> </text><text xml:space="preserve" font-family="Inconsolata,Inconsolata" font-size="75.0" fill="#000000" transform="matrix(1.00, 0.00, -0.00, -1.00, 925.2, 437.1)">&lt;</text><text xml:space="preserve" font-family="Inconsolata,Inconsolata" font-size="75.0" fill="#51A7F9" transform="matrix(1.00, 0.00, -0.00, -1.00, 962.7, 437.1)">r</text><text xml:space="preserve" font-family="Inconsolata,Inconsolata" font-size="75.0" fill="#000000" transform="matrix(1.00, 0.00, -0.00, -1.00, 1000.2, 437.1)">,</text><text xml:space="preserve" font-family="Inconsolata,Inconsolata" font-size="75.0" fill="#F38F18" transform="matrix(1.00, 0.00, -0.00, -1.00, 1037.7, 437.1)">s</text><text xml:space="preserve" font-family="Inconsolata,Inconsolata" font-size="75.0" fill="#000000" transform="matrix(1.00, 0.00, -0.00, -1.00, 1075.2, 437.1)">&gt;</text><text xml:space="preserve" font-family="Inconsolata,Inconsolata" font-size="75.0" fill="#000000" transform="matrix(1.00, 0.00, -0.00, -1.00, 1112.7, 437.1)"> </text><text xml:space="preserve" font-family="Inconsolata,Inconsolata" font-size="75.0" fill="#000000" transform="matrix(1.00, 0.00, -0.00, -1.00, 1150.2, 437.1)">t</text><text xml:space="preserve" font-family="Inconsolata,Inconsolata" font-size="75.0" fill="#000000" transform="matrix(1.00, 0.00, -0.00, -1.00, 1187.7, 437.1)">o</text><text xml:space="preserve" font-family="Inconsolata,Inconsolata" font-size="75.0" fill="#000000" transform="matrix(1.00, 0.00, -0.00, -1.00, 1225.2, 437.1)"> </text><text xml:space="preserve" font-family="Inconsolata,Inconsolata" font-size="75.0" fill="#000000" transform="matrix(1.00, 0.00, -0.00, -1.00, 1262.7, 437.1)">r</text><text xml:space="preserve" font-family="Inconsolata,Inconsolata" font-size="75.0" fill="#000000" transform="matrix(1.00, 0.00, -0.00, -1.00, 1300.2, 437.1)">e</text><text xml:space="preserve" font-family="Inconsolata,Inconsolata" font-size="75.0" fill="#000000" transform="matrix(1.00, 0.00, -0.00, -1.00, 1337.7, 437.1)">s</text><text xml:space="preserve" font-family="Inconsolata,Inconsolata" font-size="75.0" fill="#000000" transform="matrix(1.00, 0.00, -0.00, -1.00, 1375.2, 437.1)">u</text><text xml:space="preserve" font-family="Inconsolata,Inconsolata" font-size="75.0" fill="#000000" transform="matrix(1.00, 0.00, -0.00, -1.00, 1412.7, 437.1)">l</text><text xml:space="preserve" font-family="Inconsolata,Inconsolata" font-size="75.0" fill="#000000" transform="matrix(1.00, 0.00, -0.00, -1.00, 1450.2, 437.1)">t</text><text xml:space="preserve" font-family="Inconsolata,Inconsolata" font-size="75.0" fill="#000000" transform="matrix(1.00, 0.00, -0.00, -1.00, 1487.7, 437.1)"> </text><text xml:space="preserve" font-family="Inconsolata,Inconsolata" font-size="75.0" fill="#000000" transform="matrix(1.00, 0.00, -0.00, -1.00, 325.2, 354.1)"> </text><text xml:space="preserve" font-family="Inconsolata,Inconsolata" font-size="75.0" fill="#000000" transform="matrix(1.00, 0.00, -0.00, -1.00, 362.7, 354.1)"> </text><text xml:space="preserve" font-family="Inconsolata,Inconsolata" font-size="75.0" fill="#000000" transform="matrix(1.00, 0.00, -0.00, -1.00, 400.2, 354.1)"> </text><text xml:space="preserve" font-family="Inconsolata,Inconsolata" font-size="75.0" fill="#000000" transform="matrix(1.00, 0.00, -0.00, -1.00, 437.7, 354.1)"> </text><text xml:space="preserve" font-family="Inconsolata,Inconsolata" font-size="75.0" fill="#000000" transform="matrix(1.00, 0.00, -0.00, -1.00, 475.2, 354.1)"> </text><text xml:space="preserve" font-family="Inconsolata,Inconsolata" font-size="75.0" fill="#000000" transform="matrix(1.00, 0.00, -0.00, -1.00, 512.7, 354.1)"> </text><text xml:space="preserve" font-family="Inconsolata,Inconsolata" font-size="75.0" fill="#000000" transform="matrix(1.00, 0.00, -0.00, -1.00, 550.2, 354.1)"> </text><text xml:space="preserve" font-family="Inconsolata,Inconsolata" font-size="75.0" fill="#000000" transform="matrix(1.00, 0.00, -0.00, -1.00, 587.7, 354.1)"> </text><text xml:space="preserve" font-family="Inconsolata,Inconsolata" font-size="75.0" fill="#000000" transform="matrix(1.00, 0.00, -0.00, -1.00, 625.2, 354.1)">e</text><text xml:space="preserve" font-family="Inconsolata,Inconsolata" font-size="75.0" fill="#000000" transform="matrix(1.00, 0.00, -0.00, -1.00, 662.7, 354.1)">n</text><text xml:space="preserve" font-family="Inconsolata,Inconsolata" font-size="75.0" fill="#000000" transform="matrix(1.00, 0.00, -0.00, -1.00, 700.2, 354.1)">d</text><text xml:space="preserve" font-family="Inconsolata,Inconsolata" font-size="75.0" fill="#000000" transform="matrix(1.00, 0.00, -0.00, -1.00, 737.7, 354.1)">i</text><text xml:space="preserve" font-family="Inconsolata,Inconsolata" font-size="75.0" fill="#000000" transform="matrix(1.00, 0.00, -0.00, -1.00, 775.2, 354.1)">f</text><text xml:space="preserve" font-family="Inconsolata,Inconsolata" font-size="75.0" fill="#000000" transform="matrix(1.00, 0.00, -0.00, -1.00, 812.7, 354.1)"> </text><text xml:space="preserve" font-family="Inconsolata,Inconsolata" font-size="75.0" fill="#000000" transform="matrix(1.00, 0.00, -0.00, -1.00, 325.2, 271.1)"> </text><text xml:space="preserve" font-family="Inconsolata,Inconsolata" font-size="75.0" fill="#000000" transform="matrix(1.00, 0.00, -0.00, -1.00, 362.7, 271.1)"> </text><text xml:space="preserve" font-family="Inconsolata,Inconsolata" font-size="75.0" fill="#000000" transform="matrix(1.00, 0.00, -0.00, -1.00, 400.2, 271.1)"> </text><text xml:space="preserve" font-family="Inconsolata,Inconsolata" font-size="75.0" fill="#000000" transform="matrix(1.00, 0.00, -0.00, -1.00, 437.7, 271.1)"> </text><text xml:space="preserve" font-family="Inconsolata,Inconsolata" font-size="75.0" fill="#000000" transform="matrix(1.00, 0.00, -0.00, -1.00, 475.2, 271.1)">e</text><text xml:space="preserve" font-family="Inconsolata,Inconsolata" font-size="75.0" fill="#000000" transform="matrix(1.00, 0.00, -0.00, -1.00, 512.7, 271.1)">n</text><text xml:space="preserve" font-family="Inconsolata,Inconsolata" font-size="75.0" fill="#000000" transform="matrix(1.00, 0.00, -0.00, -1.00, 550.2, 271.1)">d</text><text xml:space="preserve" font-family="Inconsolata,Inconsolata" font-size="75.0" fill="#000000" transform="matrix(1.00, 0.00, -0.00, -1.00, 587.7, 271.1)">f</text><text xml:space="preserve" font-family="Inconsolata,Inconsolata" font-size="75.0" fill="#000000" transform="matrix(1.00, 0.00, -0.00, -1.00, 625.2, 271.1)">o</text><text xml:space="preserve" font-family="Inconsolata,Inconsolata" font-size="75.0" fill="#000000" transform="matrix(1.00, 0.00, -0.00, -1.00, 662.7, 271.1)">r</text><text xml:space="preserve" font-family="Inconsolata,Inconsolata" font-size="75.0" fill="#000000" transform="matrix(1.00, 0.00, -0.00, -1.00, 700.2, 271.1)"> </text><text xml:space="preserve" font-family="Inconsolata,Inconsolata" font-size="75.0" fill="#000000" transform="matrix(1.00, 0.00, -0.00, -1.00, 325.2, 188.1)">e</text><text xml:space="preserve" font-family="Inconsolata,Inconsolata" font-size="75.0" fill="#000000" transform="matrix(1.00, 0.00, -0.00, -1.00, 362.7, 188.1)">n</text><text xml:space="preserve" font-family="Inconsolata,Inconsolata" font-size="75.0" fill="#000000" transform="matrix(1.00, 0.00, -0.00, -1.00, 400.2, 188.1)">d</text><text xml:space="preserve" font-family="Inconsolata,Inconsolata" font-size="75.0" fill="#000000" transform="matrix(1.00, 0.00, -0.00, -1.00, 437.7, 188.1)">f</text><text xml:space="preserve" font-family="Inconsolata,Inconsolata" font-size="75.0" fill="#000000" transform="matrix(1.00, 0.00, -0.00, -1.00, 475.2, 188.1)">o</text><text xml:space="preserve" font-family="Inconsolata,Inconsolata" font-size="75.0" fill="#000000" transform="matrix(1.00, 0.00, -0.00, -1.00, 512.7, 188.1)">r</text></g></svg>