<?xml version="1.0" encoding="UTF-8" standalone="no"?><svg xmlns="http://www.w3.org/2000/svg" xmlns:xlink="http://www.w3.org/1999/xlink" clip-rule="evenodd" stroke-miterlimit="10" viewBox="0 0 1920 1080"><desc>SVG generated by Keynote</desc><defs></defs><g transform="matrix(1.00, 0.00, -0.00, -1.00, 0.0, 1080.0)"><path d="M 0.0 1080.0 L 1920.0 1080.0 L 1920.0 0.0 L 0.0 0.0 Z M 0.0 1080.0 " fill="#FEFFFF"></path><text xml:space="preserve" font-family="Helvetica-Light,Helvetica" font-size="112.0" fill="#0264C0" transform="matrix(1.00, 0.00, -0.00, -1.00, 530.5, 498.8)">S</text><text xml:space="preserve" font-family="Helvetica-Light,Helvetica" font-size="112.0" fill="#0264C0" transform="matrix(1.00, 0.00, -0.00, -1.00, 599.0, 498.8)">i</text><text xml:space="preserve" font-family="Helvetica-Light,Helvetica" font-size="112.0" fill="#0264C0" transform="matrix(1.00, 0.00, -0.00, -1.00, 623.8, 498.8)">n</text><text xml:space="preserve" font-family="Helvetica-Light,Helvetica" font-size="112.0" fill="#0264C0" transform="matrix(1.00, 0.00, -0.00, -1.00, 686.1, 498.8)">g</text><text xml:space="preserve" font-family="Helvetica-Light,Helvetica" font-size="112.0" fill="#0264C0" transform="matrix(1.00, 0.00, -0.00, -1.00, 754.5, 498.8)">l</text><text xml:space="preserve" font-family="Helvetica-Light,Helvetica" font-size="112.0" fill="#0264C0" transform="matrix(1.00, 0.00, -0.00, -1.00, 779.4, 498.8)">e</text><text xml:space="preserve" font-family="Helvetica-Light,Helvetica" font-size="112.0" fill="#0264C0" transform="matrix(1.00, 0.00, -0.00, -1.00, 841.7, 498.8)"> </text><text xml:space="preserve" font-family="Helvetica-Light,Helvetica" font-size="112.0" fill="#0264C0" transform="matrix(1.00, 0.00, -0.00, -1.00, 872.8, 498.8)">T</text><text xml:space="preserve" font-family="Helvetica-Light,Helvetica" font-size="112.0" fill="#0264C0" transform="matrix(1.00, 0.00, -0.00, -1.00, 922.6, 498.8)">a</text><text xml:space="preserve" font-family="Helvetica-Light,Helvetica" font-size="112.0" fill="#0264C0" transform="matrix(1.00, 0.00, -0.00, -1.00, 984.9, 498.8)">b</text><text xml:space="preserve" font-family="Helvetica-Light,Helvetica" font-size="112.0" fill="#0264C0" transform="matrix(1.00, 0.00, -0.00, -1.00, 1053.4, 498.8)">l</text><text xml:space="preserve" font-family="Helvetica-Light,Helvetica" font-size="112.0" fill="#0264C0" transform="matrix(1.00, 0.00, -0.00, -1.00, 1078.2, 498.8)">e</text><text xml:space="preserve" font-family="Helvetica-Light,Helvetica" font-size="112.0" fill="#0264C0" transform="matrix(1.00, 0.00, -0.00, -1.00, 1140.5, 498.8)"> </text><text xml:space="preserve" font-family="Helvetica-Light,Helvetica" font-size="112.0" fill="#0264C0" transform="matrix(1.00, 0.00, -0.00, -1.00, 1171.6, 498.8)">S</text><text xml:space="preserve" font-family="Helvetica-Light,Helvetica" font-size="112.0" fill="#0264C0" transform="matrix(1.00, 0.00, -0.00, -1.00, 1240.1, 498.8)">Q</text><text xml:space="preserve" font-family="Helvetica-Light,Helvetica" font-size="112.0" fill="#0264C0" transform="matrix(1.00, 0.00, -0.00, -1.00, 1327.2, 498.8)">L</text></g></svg>