<?xml version="1.0" encoding="UTF-8" standalone="no"?><svg xmlns="http://www.w3.org/2000/svg" xmlns:xlink="http://www.w3.org/1999/xlink" clip-rule="evenodd" stroke-miterlimit="10" viewBox="0 0 1920 1080"><desc>SVG generated by Keynote</desc><defs></defs><g transform="matrix(1.00, 0.00, -0.00, -1.00, 0.0, 1080.0)"><path d="M 0.0 1080.0 L 1920.0 1080.0 L 1920.0 0.0 L 0.0 0.0 Z M 0.0 1080.0 " fill="#FEFFFF"></path><image xlink:href="37D96AD223EF49AF1448DDB0049AF9E1.png" width="2071.00" height="619.00" transform="matrix(1.00, 0.00, -0.00, -1.00, -50.1, 229.8)" opacity="0.50"></image><path d="M -47.0 229.0 L 2018.0 229.0 L 2018.0 -384.0 L -47.0 -384.0 Z M -47.1 228.8 " fill="#002451"></path><text xml:space="preserve" font-family="Helvetica-Light,Helvetica" font-size="112.0" fill="#000000" transform="matrix(1.00, 0.00, -0.00, -1.00, 290.0, 873.8)">O</text><text xml:space="preserve" font-family="Helvetica-Light,Helvetica" font-size="112.0" fill="#000000" transform="matrix(1.00, 0.00, -0.00, -1.00, 377.2, 873.8)">p</text><text xml:space="preserve" font-family="Helvetica-Light,Helvetica" font-size="112.0" fill="#000000" transform="matrix(1.00, 0.00, -0.00, -1.00, 445.6, 873.8)">t</text><text xml:space="preserve" font-family="Helvetica-Light,Helvetica" font-size="112.0" fill="#000000" transform="matrix(1.00, 0.00, -0.00, -1.00, 476.7, 873.8)">i</text><text xml:space="preserve" font-family="Helvetica-Light,Helvetica" font-size="112.0" fill="#000000" transform="matrix(1.00, 0.00, -0.00, -1.00, 501.6, 873.8)">m</text><text xml:space="preserve" font-family="Helvetica-Light,Helvetica" font-size="112.0" fill="#000000" transform="matrix(1.00, 0.00, -0.00, -1.00, 594.9, 873.8)">i</text><text xml:space="preserve" font-family="Helvetica-Light,Helvetica" font-size="112.0" fill="#000000" transform="matrix(1.00, 0.00, -0.00, -1.00, 619.7, 873.8)">z</text><text xml:space="preserve" font-family="Helvetica-Light,Helvetica" font-size="112.0" fill="#000000" transform="matrix(1.00, 0.00, -0.00, -1.00, 675.7, 873.8)">e</text><text xml:space="preserve" font-family="Helvetica-Light,Helvetica" font-size="112.0" fill="#000000" transform="matrix(1.00, 0.00, -0.00, -1.00, 738.0, 873.8)">d</text><text xml:space="preserve" font-family="Helvetica-Light,Helvetica" font-size="112.0" fill="#000000" transform="matrix(1.00, 0.00, -0.00, -1.00, 806.4, 873.8)"> </text><text xml:space="preserve" font-family="Helvetica-Light,Helvetica" font-size="112.0" fill="#000000" transform="matrix(1.00, 0.00, -0.00, -1.00, 837.6, 873.8)">S</text><text xml:space="preserve" font-family="Helvetica-Light,Helvetica" font-size="112.0" fill="#000000" transform="matrix(1.00, 0.00, -0.00, -1.00, 906.0, 873.8)">o</text><text xml:space="preserve" font-family="Helvetica-Light,Helvetica" font-size="112.0" fill="#000000" transform="matrix(1.00, 0.00, -0.00, -1.00, 968.3, 873.8)">r</text><text xml:space="preserve" font-family="Helvetica-Light,Helvetica" font-size="112.0" fill="#000000" transform="matrix(1.00, 0.00, -0.00, -1.00, 1007.6, 873.8)">t</text><text xml:space="preserve" font-family="Helvetica-Light,Helvetica" font-size="112.0" fill="#000000" transform="matrix(1.00, 0.00, -0.00, -1.00, 1038.7, 873.8)"> </text><text xml:space="preserve" font-family="Helvetica-Light,Helvetica" font-size="112.0" fill="#000000" transform="matrix(1.00, 0.00, -0.00, -1.00, 1069.9, 873.8)">M</text><text xml:space="preserve" font-family="Helvetica-Light,Helvetica" font-size="112.0" fill="#000000" transform="matrix(1.00, 0.00, -0.00, -1.00, 1163.2, 873.8)">e</text><text xml:space="preserve" font-family="Helvetica-Light,Helvetica" font-size="112.0" fill="#000000" transform="matrix(1.00, 0.00, -0.00, -1.00, 1225.4, 873.8)">r</text><text xml:space="preserve" font-family="Helvetica-Light,Helvetica" font-size="112.0" fill="#000000" transform="matrix(1.00, 0.00, -0.00, -1.00, 1262.7, 873.8)">g</text><text xml:space="preserve" font-family="Helvetica-Light,Helvetica" font-size="112.0" fill="#000000" transform="matrix(1.00, 0.00, -0.00, -1.00, 1331.2, 873.8)">e</text><text xml:space="preserve" font-family="Helvetica-Light,Helvetica" font-size="112.0" fill="#000000" transform="matrix(1.00, 0.00, -0.00, -1.00, 1393.4, 873.8)"> </text><text xml:space="preserve" font-family="Helvetica-Light,Helvetica" font-size="112.0" fill="#000000" transform="matrix(1.00, 0.00, -0.00, -1.00, 1424.6, 873.8)">J</text><text xml:space="preserve" font-family="Helvetica-Light,Helvetica" font-size="112.0" fill="#000000" transform="matrix(1.00, 0.00, -0.00, -1.00, 1480.6, 873.8)">o</text><text xml:space="preserve" font-family="Helvetica-Light,Helvetica" font-size="112.0" fill="#000000" transform="matrix(1.00, 0.00, -0.00, -1.00, 1542.8, 873.8)">i</text><text xml:space="preserve" font-family="Helvetica-Light,Helvetica" font-size="112.0" fill="#000000" transform="matrix(1.00, 0.00, -0.00, -1.00, 1567.7, 873.8)">n</text><text xml:space="preserve" font-family="Helvetica-Light,Helvetica" font-size="34.3" fill="#000000" transform="matrix(1.00, 0.00, -0.00, -1.00, 137.0, 747.7)">•</text><text xml:space="preserve" font-family="Helvetica-Light,Helvetica" font-size="45.8" fill="#000000" transform="matrix(1.00, 0.00, -0.00, -1.00, 181.0, 743.3)">F</text><text xml:space="preserve" font-family="Helvetica-Light,Helvetica" font-size="45.8" fill="#000000" transform="matrix(1.00, 0.00, -0.00, -1.00, 206.4, 743.3)">r</text><text xml:space="preserve" font-family="Helvetica-Light,Helvetica" font-size="45.8" fill="#000000" transform="matrix(1.00, 0.00, -0.00, -1.00, 220.9, 743.3)">o</text><text xml:space="preserve" font-family="Helvetica-Light,Helvetica" font-size="45.8" fill="#000000" transform="matrix(1.00, 0.00, -0.00, -1.00, 246.3, 743.3)">m</text><text xml:space="preserve" font-family="Helvetica-Light,Helvetica" font-size="45.8" fill="#000000" transform="matrix(1.00, 0.00, -0.00, -1.00, 284.4, 743.3)"> </text><text xml:space="preserve" font-family="Helvetica-Light,Helvetica" font-size="45.8" fill="#000000" transform="matrix(1.00, 0.00, -0.00, -1.00, 297.1, 743.3)">L</text><text xml:space="preserve" font-family="Helvetica-Light,Helvetica" font-size="45.8" fill="#000000" transform="matrix(1.00, 0.00, -0.00, -1.00, 322.6, 743.3)">e</text><text xml:space="preserve" font-family="Helvetica-Light,Helvetica" font-size="45.8" fill="#000000" transform="matrix(1.00, 0.00, -0.00, -1.00, 348.0, 743.3)">c</text><text xml:space="preserve" font-family="Helvetica-Light,Helvetica" font-size="45.8" fill="#000000" transform="matrix(1.00, 0.00, -0.00, -1.00, 373.5, 743.3)">t</text><text xml:space="preserve" font-family="Helvetica-Light,Helvetica" font-size="45.8" fill="#000000" transform="matrix(1.00, 0.00, -0.00, -1.00, 386.2, 743.3)">u</text><text xml:space="preserve" font-family="Helvetica-Light,Helvetica" font-size="45.8" fill="#000000" transform="matrix(1.00, 0.00, -0.00, -1.00, 411.6, 743.3)">r</text><text xml:space="preserve" font-family="Helvetica-Light,Helvetica" font-size="45.8" fill="#000000" transform="matrix(1.00, 0.00, -0.00, -1.00, 426.0, 743.3)">e</text><text xml:space="preserve" font-family="Helvetica-Light,Helvetica" font-size="45.8" fill="#000000" transform="matrix(1.00, 0.00, -0.00, -1.00, 451.5, 743.3)">:</text><text xml:space="preserve" font-family="Helvetica-Light,Helvetica" font-size="45.8" fill="#000000" transform="matrix(1.00, 0.00, -0.00, -1.00, 464.2, 743.3)"> </text><text xml:space="preserve" font-family="Helvetica-Light,Helvetica" font-size="45.8" fill="#000000" transform="matrix(1.00, 0.00, -0.00, -1.00, 476.9, 743.3)"> </text><text xml:space="preserve" font-family="Helvetica-Light,Helvetica" font-size="34.3" fill="#000000" transform="matrix(1.00, 0.00, -0.00, -1.00, 187.0, 640.8)">•</text><text xml:space="preserve" font-family="Helvetica-Light,Helvetica" font-size="45.8" fill="#000000" transform="matrix(1.00, 0.00, -0.00, -1.00, 231.0, 636.4)">R</text><text xml:space="preserve" font-family="Helvetica-Light,Helvetica" font-size="45.8" fill="#000000" transform="matrix(1.00, 0.00, -0.00, -1.00, 261.5, 636.4)">e</text><text xml:space="preserve" font-family="Helvetica-Light,Helvetica" font-size="45.8" fill="#000000" transform="matrix(1.00, 0.00, -0.00, -1.00, 287.0, 636.4)">a</text><text xml:space="preserve" font-family="Helvetica-Light,Helvetica" font-size="45.8" fill="#000000" transform="matrix(1.00, 0.00, -0.00, -1.00, 312.4, 636.4)">d</text><text xml:space="preserve" font-family="Helvetica-Light,Helvetica" font-size="45.8" fill="#000000" transform="matrix(1.00, 0.00, -0.00, -1.00, 340.4, 636.4)"> </text><text xml:space="preserve" font-family="Helvetica-Light,Helvetica" font-size="45.8" fill="#000000" transform="matrix(1.00, 0.00, -0.00, -1.00, 353.1, 636.4)">r</text><text xml:space="preserve" font-family="Helvetica-Light,Helvetica" font-size="45.8" fill="#000000" transform="matrix(1.00, 0.00, -0.00, -1.00, 367.5, 636.4)">e</text><text xml:space="preserve" font-family="Helvetica-Light,Helvetica" font-size="45.8" fill="#000000" transform="matrix(1.00, 0.00, -0.00, -1.00, 392.9, 636.4)">l</text><text xml:space="preserve" font-family="Helvetica-Light,Helvetica" font-size="45.8" fill="#000000" transform="matrix(1.00, 0.00, -0.00, -1.00, 403.1, 636.4)">a</text><text xml:space="preserve" font-family="Helvetica-Light,Helvetica" font-size="45.8" fill="#000000" transform="matrix(1.00, 0.00, -0.00, -1.00, 428.5, 636.4)">t</text><text xml:space="preserve" font-family="Helvetica-Light,Helvetica" font-size="45.8" fill="#000000" transform="matrix(1.00, 0.00, -0.00, -1.00, 441.3, 636.4)">i</text><text xml:space="preserve" font-family="Helvetica-Light,Helvetica" font-size="45.8" fill="#000000" transform="matrix(1.00, 0.00, -0.00, -1.00, 451.4, 636.4)">o</text><text xml:space="preserve" font-family="Helvetica-Light,Helvetica" font-size="45.8" fill="#000000" transform="matrix(1.00, 0.00, -0.00, -1.00, 476.9, 636.4)">n</text><text xml:space="preserve" font-family="Helvetica-Light,Helvetica" font-size="45.8" fill="#000000" transform="matrix(1.00, 0.00, -0.00, -1.00, 502.3, 636.4)"> </text><text xml:space="preserve" font-family="Helvetica-Light,Helvetica" font-size="45.8" fill="#000000" transform="matrix(1.00, 0.00, -0.00, -1.00, 515.0, 636.4)">R</text><text xml:space="preserve" font-family="Helvetica-Light,Helvetica" font-size="30.5" fill="#000000" transform="matrix(1.00, 0.00, -0.00, -1.00, 545.6, 631.5)">1</text><text xml:space="preserve" font-family="Helvetica-Light,Helvetica" font-size="30.5" fill="#000000" transform="matrix(1.00, 0.00, -0.00, -1.00, 562.5, 631.5)"> </text><text xml:space="preserve" font-family="Helvetica-Light,Helvetica" font-size="45.8" fill="#000000" transform="matrix(1.00, 0.00, -0.00, -1.00, 571.0, 636.4)">a</text><text xml:space="preserve" font-family="Helvetica-Light,Helvetica" font-size="45.8" fill="#000000" transform="matrix(1.00, 0.00, -0.00, -1.00, 596.4, 636.4)">n</text><text xml:space="preserve" font-family="Helvetica-Light,Helvetica" font-size="45.8" fill="#000000" transform="matrix(1.00, 0.00, -0.00, -1.00, 621.9, 636.4)">d</text><text xml:space="preserve" font-family="Helvetica-Light,Helvetica" font-size="45.8" fill="#000000" transform="matrix(1.00, 0.00, -0.00, -1.00, 649.8, 636.4)"> </text><text xml:space="preserve" font-family="Helvetica-Light,Helvetica" font-size="45.8" fill="#000000" transform="matrix(1.00, 0.00, -0.00, -1.00, 662.6, 636.4)">w</text><text xml:space="preserve" font-family="Helvetica-Light,Helvetica" font-size="45.8" fill="#000000" transform="matrix(1.00, 0.00, -0.00, -1.00, 695.6, 636.4)">r</text><text xml:space="preserve" font-family="Helvetica-Light,Helvetica" font-size="45.8" fill="#000000" transform="matrix(1.00, 0.00, -0.00, -1.00, 710.8, 636.4)">i</text><text xml:space="preserve" font-family="Helvetica-Light,Helvetica" font-size="45.8" fill="#000000" transform="matrix(1.00, 0.00, -0.00, -1.00, 721.0, 636.4)">t</text><text xml:space="preserve" font-family="Helvetica-Light,Helvetica" font-size="45.8" fill="#000000" transform="matrix(1.00, 0.00, -0.00, -1.00, 733.7, 636.4)">e</text><text xml:space="preserve" font-family="Helvetica-Light,Helvetica" font-size="45.8" fill="#000000" transform="matrix(1.00, 0.00, -0.00, -1.00, 759.2, 636.4)"> </text><text xml:space="preserve" font-family="Helvetica-Light,Helvetica" font-size="45.8" fill="#000000" transform="matrix(1.00, 0.00, -0.00, -1.00, 771.9, 636.4)">o</text><text xml:space="preserve" font-family="Helvetica-Light,Helvetica" font-size="45.8" fill="#000000" transform="matrix(1.00, 0.00, -0.00, -1.00, 797.3, 636.4)">u</text><text xml:space="preserve" font-family="Helvetica-Light,Helvetica" font-size="45.8" fill="#000000" transform="matrix(1.00, 0.00, -0.00, -1.00, 822.8, 636.4)">t</text><text xml:space="preserve" font-family="Helvetica-Light,Helvetica" font-size="45.8" fill="#000000" transform="matrix(1.00, 0.00, -0.00, -1.00, 835.5, 636.4)"> </text><text xml:space="preserve" font-family="Helvetica-Light,Helvetica" font-size="45.8" fill="#000000" transform="matrix(1.00, 0.00, -0.00, -1.00, 848.2, 636.4)">s</text><text xml:space="preserve" font-family="Helvetica-Light,Helvetica" font-size="45.8" fill="#000000" transform="matrix(1.00, 0.00, -0.00, -1.00, 871.1, 636.4)">o</text><text xml:space="preserve" font-family="Helvetica-Light,Helvetica" font-size="45.8" fill="#000000" transform="matrix(1.00, 0.00, -0.00, -1.00, 896.5, 636.4)">r</text><text xml:space="preserve" font-family="Helvetica-Light,Helvetica" font-size="45.8" fill="#000000" transform="matrix(1.00, 0.00, -0.00, -1.00, 912.6, 636.4)">t</text><text xml:space="preserve" font-family="Helvetica-Light,Helvetica" font-size="45.8" fill="#000000" transform="matrix(1.00, 0.00, -0.00, -1.00, 925.3, 636.4)">e</text><text xml:space="preserve" font-family="Helvetica-Light,Helvetica" font-size="45.8" fill="#000000" transform="matrix(1.00, 0.00, -0.00, -1.00, 950.8, 636.4)">d</text><text xml:space="preserve" font-family="Helvetica-Light,Helvetica" font-size="45.8" fill="#000000" transform="matrix(1.00, 0.00, -0.00, -1.00, 978.7, 636.4)"> </text><text xml:space="preserve" font-family="Helvetica-Light,Helvetica" font-size="45.8" fill="#000000" transform="matrix(1.00, 0.00, -0.00, -1.00, 991.4, 636.4)">r</text><text xml:space="preserve" font-family="Helvetica-Light,Helvetica" font-size="45.8" fill="#000000" transform="matrix(1.00, 0.00, -0.00, -1.00, 1006.7, 636.4)">u</text><text xml:space="preserve" font-family="Helvetica-Light,Helvetica" font-size="45.8" fill="#000000" transform="matrix(1.00, 0.00, -0.00, -1.00, 1032.1, 636.4)">n</text><text xml:space="preserve" font-family="Helvetica-Light,Helvetica" font-size="45.8" fill="#000000" transform="matrix(1.00, 0.00, -0.00, -1.00, 1057.6, 636.4)">s</text><text xml:space="preserve" font-family="Helvetica-Light,Helvetica" font-size="45.8" fill="#000000" transform="matrix(1.00, 0.00, -0.00, -1.00, 1080.4, 636.4)"> </text><text xml:space="preserve" font-family="Helvetica-Light,Helvetica" font-size="45.8" fill="#000000" transform="matrix(1.00, 0.00, -0.00, -1.00, 1093.2, 636.4)">(</text><text xml:space="preserve" font-family="Helvetica-Light,Helvetica" font-size="45.8" fill="#000000" transform="matrix(1.00, 0.00, -0.00, -1.00, 1108.4, 636.4)">p</text><text xml:space="preserve" font-family="Helvetica-Light,Helvetica" font-size="45.8" fill="#000000" transform="matrix(1.00, 0.00, -0.00, -1.00, 1136.4, 636.4)">a</text><text xml:space="preserve" font-family="Helvetica-Light,Helvetica" font-size="45.8" fill="#000000" transform="matrix(1.00, 0.00, -0.00, -1.00, 1161.8, 636.4)">s</text><text xml:space="preserve" font-family="Helvetica-Light,Helvetica" font-size="45.8" fill="#000000" transform="matrix(1.00, 0.00, -0.00, -1.00, 1184.7, 636.4)">s</text><text xml:space="preserve" font-family="Helvetica-Light,Helvetica" font-size="45.8" fill="#000000" transform="matrix(1.00, 0.00, -0.00, -1.00, 1207.6, 636.4)"> </text><text xml:space="preserve" font-family="Helvetica-Light,Helvetica" font-size="45.8" fill="#000000" transform="matrix(1.00, 0.00, -0.00, -1.00, 1220.3, 636.4)">0</text><text xml:space="preserve" font-family="Helvetica-Light,Helvetica" font-size="45.8" fill="#000000" transform="matrix(1.00, 0.00, -0.00, -1.00, 1245.7, 636.4)">)</text><text xml:space="preserve" font-family="Helvetica-Light,Helvetica" font-size="45.8" fill="#000000" transform="matrix(1.00, 0.00, -0.00, -1.00, 1261.0, 636.4)"> </text><text xml:space="preserve" font-family="Helvetica-Light,Helvetica" font-size="34.3" fill="#000000" transform="matrix(1.00, 0.00, -0.00, -1.00, 187.0, 533.9)">•</text><text xml:space="preserve" font-family="Helvetica-Light,Helvetica" font-size="45.8" fill="#000000" transform="matrix(1.00, 0.00, -0.00, -1.00, 231.0, 529.5)">R</text><text xml:space="preserve" font-family="Helvetica-Light,Helvetica" font-size="45.8" fill="#000000" transform="matrix(1.00, 0.00, -0.00, -1.00, 261.5, 529.5)">e</text><text xml:space="preserve" font-family="Helvetica-Light,Helvetica" font-size="45.8" fill="#000000" transform="matrix(1.00, 0.00, -0.00, -1.00, 287.0, 529.5)">a</text><text xml:space="preserve" font-family="Helvetica-Light,Helvetica" font-size="45.8" fill="#000000" transform="matrix(1.00, 0.00, -0.00, -1.00, 312.4, 529.5)">d</text><text xml:space="preserve" font-family="Helvetica-Light,Helvetica" font-size="45.8" fill="#000000" transform="matrix(1.00, 0.00, -0.00, -1.00, 340.4, 529.5)"> </text><text xml:space="preserve" font-family="Helvetica-Light,Helvetica" font-size="45.8" fill="#000000" transform="matrix(1.00, 0.00, -0.00, -1.00, 353.1, 529.5)">r</text><text xml:space="preserve" font-family="Helvetica-Light,Helvetica" font-size="45.8" fill="#000000" transform="matrix(1.00, 0.00, -0.00, -1.00, 367.5, 529.5)">e</text><text xml:space="preserve" font-family="Helvetica-Light,Helvetica" font-size="45.8" fill="#000000" transform="matrix(1.00, 0.00, -0.00, -1.00, 392.9, 529.5)">l</text><text xml:space="preserve" font-family="Helvetica-Light,Helvetica" font-size="45.8" fill="#000000" transform="matrix(1.00, 0.00, -0.00, -1.00, 403.1, 529.5)">a</text><text xml:space="preserve" font-family="Helvetica-Light,Helvetica" font-size="45.8" fill="#000000" transform="matrix(1.00, 0.00, -0.00, -1.00, 428.5, 529.5)">t</text><text xml:space="preserve" font-family="Helvetica-Light,Helvetica" font-size="45.8" fill="#000000" transform="matrix(1.00, 0.00, -0.00, -1.00, 441.3, 529.5)">i</text><text xml:space="preserve" font-family="Helvetica-Light,Helvetica" font-size="45.8" fill="#000000" transform="matrix(1.00, 0.00, -0.00, -1.00, 451.4, 529.5)">o</text><text xml:space="preserve" font-family="Helvetica-Light,Helvetica" font-size="45.8" fill="#000000" transform="matrix(1.00, 0.00, -0.00, -1.00, 476.9, 529.5)">n</text><text xml:space="preserve" font-family="Helvetica-Light,Helvetica" font-size="45.8" fill="#000000" transform="matrix(1.00, 0.00, -0.00, -1.00, 502.3, 529.5)"> </text><text xml:space="preserve" font-family="Helvetica-Light,Helvetica" font-size="45.8" fill="#000000" transform="matrix(1.00, 0.00, -0.00, -1.00, 515.0, 529.5)">R</text><text xml:space="preserve" font-family="Helvetica-Light,Helvetica" font-size="30.5" fill="#000000" transform="matrix(1.00, 0.00, -0.00, -1.00, 545.6, 524.6)">2</text><text xml:space="preserve" font-family="Helvetica-Light,Helvetica" font-size="30.5" fill="#000000" transform="matrix(1.00, 0.00, -0.00, -1.00, 562.5, 524.6)"> </text><text xml:space="preserve" font-family="Helvetica-Light,Helvetica" font-size="45.8" fill="#000000" transform="matrix(1.00, 0.00, -0.00, -1.00, 571.0, 529.5)">a</text><text xml:space="preserve" font-family="Helvetica-Light,Helvetica" font-size="45.8" fill="#000000" transform="matrix(1.00, 0.00, -0.00, -1.00, 596.4, 529.5)">n</text><text xml:space="preserve" font-family="Helvetica-Light,Helvetica" font-size="45.8" fill="#000000" transform="matrix(1.00, 0.00, -0.00, -1.00, 621.9, 529.5)">d</text><text xml:space="preserve" font-family="Helvetica-Light,Helvetica" font-size="45.8" fill="#000000" transform="matrix(1.00, 0.00, -0.00, -1.00, 649.8, 529.5)"> </text><text xml:space="preserve" font-family="Helvetica-Light,Helvetica" font-size="45.8" fill="#000000" transform="matrix(1.00, 0.00, -0.00, -1.00, 662.6, 529.5)">w</text><text xml:space="preserve" font-family="Helvetica-Light,Helvetica" font-size="45.8" fill="#000000" transform="matrix(1.00, 0.00, -0.00, -1.00, 695.6, 529.5)">r</text><text xml:space="preserve" font-family="Helvetica-Light,Helvetica" font-size="45.8" fill="#000000" transform="matrix(1.00, 0.00, -0.00, -1.00, 710.8, 529.5)">i</text><text xml:space="preserve" font-family="Helvetica-Light,Helvetica" font-size="45.8" fill="#000000" transform="matrix(1.00, 0.00, -0.00, -1.00, 721.0, 529.5)">t</text><text xml:space="preserve" font-family="Helvetica-Light,Helvetica" font-size="45.8" fill="#000000" transform="matrix(1.00, 0.00, -0.00, -1.00, 733.7, 529.5)">e</text><text xml:space="preserve" font-family="Helvetica-Light,Helvetica" font-size="45.8" fill="#000000" transform="matrix(1.00, 0.00, -0.00, -1.00, 759.2, 529.5)"> </text><text xml:space="preserve" font-family="Helvetica-Light,Helvetica" font-size="45.8" fill="#000000" transform="matrix(1.00, 0.00, -0.00, -1.00, 771.9, 529.5)">o</text><text xml:space="preserve" font-family="Helvetica-Light,Helvetica" font-size="45.8" fill="#000000" transform="matrix(1.00, 0.00, -0.00, -1.00, 797.3, 529.5)">u</text><text xml:space="preserve" font-family="Helvetica-Light,Helvetica" font-size="45.8" fill="#000000" transform="matrix(1.00, 0.00, -0.00, -1.00, 822.8, 529.5)">t</text><text xml:space="preserve" font-family="Helvetica-Light,Helvetica" font-size="45.8" fill="#000000" transform="matrix(1.00, 0.00, -0.00, -1.00, 835.5, 529.5)"> </text><text xml:space="preserve" font-family="Helvetica-Light,Helvetica" font-size="45.8" fill="#000000" transform="matrix(1.00, 0.00, -0.00, -1.00, 848.2, 529.5)">s</text><text xml:space="preserve" font-family="Helvetica-Light,Helvetica" font-size="45.8" fill="#000000" transform="matrix(1.00, 0.00, -0.00, -1.00, 871.1, 529.5)">o</text><text xml:space="preserve" font-family="Helvetica-Light,Helvetica" font-size="45.8" fill="#000000" transform="matrix(1.00, 0.00, -0.00, -1.00, 896.5, 529.5)">r</text><text xml:space="preserve" font-family="Helvetica-Light,Helvetica" font-size="45.8" fill="#000000" transform="matrix(1.00, 0.00, -0.00, -1.00, 912.6, 529.5)">t</text><text xml:space="preserve" font-family="Helvetica-Light,Helvetica" font-size="45.8" fill="#000000" transform="matrix(1.00, 0.00, -0.00, -1.00, 925.3, 529.5)">e</text><text xml:space="preserve" font-family="Helvetica-Light,Helvetica" font-size="45.8" fill="#000000" transform="matrix(1.00, 0.00, -0.00, -1.00, 950.8, 529.5)">d</text><text xml:space="preserve" font-family="Helvetica-Light,Helvetica" font-size="45.8" fill="#000000" transform="matrix(1.00, 0.00, -0.00, -1.00, 978.7, 529.5)"> </text><text xml:space="preserve" font-family="Helvetica-Light,Helvetica" font-size="45.8" fill="#000000" transform="matrix(1.00, 0.00, -0.00, -1.00, 991.4, 529.5)">r</text><text xml:space="preserve" font-family="Helvetica-Light,Helvetica" font-size="45.8" fill="#000000" transform="matrix(1.00, 0.00, -0.00, -1.00, 1006.7, 529.5)">u</text><text xml:space="preserve" font-family="Helvetica-Light,Helvetica" font-size="45.8" fill="#000000" transform="matrix(1.00, 0.00, -0.00, -1.00, 1032.1, 529.5)">n</text><text xml:space="preserve" font-family="Helvetica-Light,Helvetica" font-size="45.8" fill="#000000" transform="matrix(1.00, 0.00, -0.00, -1.00, 1057.6, 529.5)">s</text><text xml:space="preserve" font-family="Helvetica-Light,Helvetica" font-size="45.8" fill="#000000" transform="matrix(1.00, 0.00, -0.00, -1.00, 1080.4, 529.5)"> </text><text xml:space="preserve" font-family="Helvetica-Light,Helvetica" font-size="45.8" fill="#000000" transform="matrix(1.00, 0.00, -0.00, -1.00, 1093.2, 529.5)">(</text><text xml:space="preserve" font-family="Helvetica-Light,Helvetica" font-size="45.8" fill="#000000" transform="matrix(1.00, 0.00, -0.00, -1.00, 1108.4, 529.5)">p</text><text xml:space="preserve" font-family="Helvetica-Light,Helvetica" font-size="45.8" fill="#000000" transform="matrix(1.00, 0.00, -0.00, -1.00, 1136.4, 529.5)">a</text><text xml:space="preserve" font-family="Helvetica-Light,Helvetica" font-size="45.8" fill="#000000" transform="matrix(1.00, 0.00, -0.00, -1.00, 1161.8, 529.5)">s</text><text xml:space="preserve" font-family="Helvetica-Light,Helvetica" font-size="45.8" fill="#000000" transform="matrix(1.00, 0.00, -0.00, -1.00, 1184.7, 529.5)">s</text><text xml:space="preserve" font-family="Helvetica-Light,Helvetica" font-size="45.8" fill="#000000" transform="matrix(1.00, 0.00, -0.00, -1.00, 1207.6, 529.5)"> </text><text xml:space="preserve" font-family="Helvetica-Light,Helvetica" font-size="45.8" fill="#000000" transform="matrix(1.00, 0.00, -0.00, -1.00, 1220.3, 529.5)">0</text><text xml:space="preserve" font-family="Helvetica-Light,Helvetica" font-size="45.8" fill="#000000" transform="matrix(1.00, 0.00, -0.00, -1.00, 1245.7, 529.5)">)</text><text xml:space="preserve" font-family="Helvetica-Light,Helvetica" font-size="45.8" fill="#000000" transform="matrix(1.00, 0.00, -0.00, -1.00, 1261.0, 529.5)"> </text><text xml:space="preserve" font-family="Helvetica-Light,Helvetica" font-size="34.3" fill="#000000" transform="matrix(1.00, 0.00, -0.00, -1.00, 187.0, 427.0)">•</text><text xml:space="preserve" font-family="Helvetica-Light,Helvetica" font-size="45.8" fill="#000000" transform="matrix(1.00, 0.00, -0.00, -1.00, 231.0, 422.6)">M</text><text xml:space="preserve" font-family="Helvetica-Light,Helvetica" font-size="45.8" fill="#000000" transform="matrix(1.00, 0.00, -0.00, -1.00, 269.1, 422.6)">e</text><text xml:space="preserve" font-family="Helvetica-Light,Helvetica" font-size="45.8" fill="#000000" transform="matrix(1.00, 0.00, -0.00, -1.00, 294.6, 422.6)">r</text><text xml:space="preserve" font-family="Helvetica-Light,Helvetica" font-size="45.8" fill="#000000" transform="matrix(1.00, 0.00, -0.00, -1.00, 309.8, 422.6)">g</text><text xml:space="preserve" font-family="Helvetica-Light,Helvetica" font-size="45.8" fill="#000000" transform="matrix(1.00, 0.00, -0.00, -1.00, 337.8, 422.6)">e</text><text xml:space="preserve" font-family="Helvetica-Light,Helvetica" font-size="45.8" fill="#000000" transform="matrix(1.00, 0.00, -0.00, -1.00, 363.2, 422.6)"> </text><text xml:space="preserve" font-family="Helvetica-Light,Helvetica" font-size="45.8" fill="#000000" transform="matrix(1.00, 0.00, -0.00, -1.00, 375.9, 422.6)">r</text><text xml:space="preserve" font-family="Helvetica-Light,Helvetica" font-size="45.8" fill="#000000" transform="matrix(1.00, 0.00, -0.00, -1.00, 391.2, 422.6)">u</text><text xml:space="preserve" font-family="Helvetica-Light,Helvetica" font-size="45.8" fill="#000000" transform="matrix(1.00, 0.00, -0.00, -1.00, 416.6, 422.6)">n</text><text xml:space="preserve" font-family="Helvetica-Light,Helvetica" font-size="45.8" fill="#000000" transform="matrix(1.00, 0.00, -0.00, -1.00, 442.0, 422.6)">s</text><text xml:space="preserve" font-family="Helvetica-Light,Helvetica" font-size="45.8" fill="#000000" transform="matrix(1.00, 0.00, -0.00, -1.00, 464.9, 422.6)"> </text><text xml:space="preserve" font-family="Helvetica-Light,Helvetica" font-size="45.8" fill="#000000" transform="matrix(1.00, 0.00, -0.00, -1.00, 477.6, 422.6)">o</text><text xml:space="preserve" font-family="Helvetica-Light,Helvetica" font-size="45.8" fill="#000000" transform="matrix(1.00, 0.00, -0.00, -1.00, 503.1, 422.6)">f</text><text xml:space="preserve" font-family="Helvetica-Light,Helvetica" font-size="45.8" fill="#000000" transform="matrix(1.00, 0.00, -0.00, -1.00, 515.8, 422.6)"> </text><text xml:space="preserve" font-family="Helvetica-Light,Helvetica" font-size="45.8" fill="#000000" transform="matrix(1.00, 0.00, -0.00, -1.00, 528.5, 422.6)">R</text><text xml:space="preserve" font-family="Helvetica-Light,Helvetica" font-size="30.5" fill="#000000" transform="matrix(1.00, 0.00, -0.00, -1.00, 559.1, 417.6)">1</text><text xml:space="preserve" font-family="Helvetica-Light,Helvetica" font-size="30.5" fill="#000000" transform="matrix(1.00, 0.00, -0.00, -1.00, 576.0, 417.6)"> </text><text xml:space="preserve" font-family="Helvetica-Light,Helvetica" font-size="45.8" fill="#000000" transform="matrix(1.00, 0.00, -0.00, -1.00, 584.5, 422.6)">a</text><text xml:space="preserve" font-family="Helvetica-Light,Helvetica" font-size="45.8" fill="#000000" transform="matrix(1.00, 0.00, -0.00, -1.00, 609.9, 422.6)">n</text><text xml:space="preserve" font-family="Helvetica-Light,Helvetica" font-size="45.8" fill="#000000" transform="matrix(1.00, 0.00, -0.00, -1.00, 635.4, 422.6)">d</text><text xml:space="preserve" font-family="Helvetica-Light,Helvetica" font-size="45.8" fill="#000000" transform="matrix(1.00, 0.00, -0.00, -1.00, 663.3, 422.6)"> </text><text xml:space="preserve" font-family="Helvetica-Light,Helvetica" font-size="45.8" fill="#000000" transform="matrix(1.00, 0.00, -0.00, -1.00, 676.1, 422.6)">R</text><text xml:space="preserve" font-family="Helvetica-Light,Helvetica" font-size="30.5" fill="#000000" transform="matrix(1.00, 0.00, -0.00, -1.00, 706.6, 417.6)">2</text><text xml:space="preserve" font-family="Helvetica-Light,Helvetica" font-size="30.5" fill="#000000" transform="matrix(1.00, 0.00, -0.00, -1.00, 723.5, 417.6)"> </text><text xml:space="preserve" font-family="Helvetica-Light,Helvetica" font-size="45.8" fill="#000000" transform="matrix(1.00, 0.00, -0.00, -1.00, 732.0, 422.6)">w</text><text xml:space="preserve" font-family="Helvetica-Light,Helvetica" font-size="45.8" fill="#000000" transform="matrix(1.00, 0.00, -0.00, -1.00, 765.1, 422.6)">h</text><text xml:space="preserve" font-family="Helvetica-Light,Helvetica" font-size="45.8" fill="#000000" transform="matrix(1.00, 0.00, -0.00, -1.00, 790.5, 422.6)">i</text><text xml:space="preserve" font-family="Helvetica-Light,Helvetica" font-size="45.8" fill="#000000" transform="matrix(1.00, 0.00, -0.00, -1.00, 800.7, 422.6)">l</text><text xml:space="preserve" font-family="Helvetica-Light,Helvetica" font-size="45.8" fill="#000000" transform="matrix(1.00, 0.00, -0.00, -1.00, 810.8, 422.6)">e</text><text xml:space="preserve" font-family="Helvetica-Light,Helvetica" font-size="45.8" fill="#000000" transform="matrix(1.00, 0.00, -0.00, -1.00, 836.3, 422.6)"> </text><text xml:space="preserve" font-family="Helvetica-Light,Helvetica" font-size="45.8" fill="#000000" transform="matrix(1.00, 0.00, -0.00, -1.00, 849.0, 422.6)">ﬁ</text><text xml:space="preserve" font-family="Helvetica-Light,Helvetica" font-size="45.8" fill="#000000" transform="matrix(1.00, 0.00, -0.00, -1.00, 871.9, 422.6)">n</text><text xml:space="preserve" font-family="Helvetica-Light,Helvetica" font-size="45.8" fill="#000000" transform="matrix(1.00, 0.00, -0.00, -1.00, 897.3, 422.6)">d</text><text xml:space="preserve" font-family="Helvetica-Light,Helvetica" font-size="45.8" fill="#000000" transform="matrix(1.00, 0.00, -0.00, -1.00, 925.3, 422.6)">i</text><text xml:space="preserve" font-family="Helvetica-Light,Helvetica" font-size="45.8" fill="#000000" transform="matrix(1.00, 0.00, -0.00, -1.00, 935.4, 422.6)">n</text><text xml:space="preserve" font-family="Helvetica-Light,Helvetica" font-size="45.8" fill="#000000" transform="matrix(1.00, 0.00, -0.00, -1.00, 960.9, 422.6)">g</text><text xml:space="preserve" font-family="Helvetica-Light,Helvetica" font-size="45.8" fill="#000000" transform="matrix(1.00, 0.00, -0.00, -1.00, 988.8, 422.6)"> </text><text xml:space="preserve" font-family="Helvetica-Light,Helvetica" font-size="45.8" fill="#000000" transform="matrix(1.00, 0.00, -0.00, -1.00, 1001.6, 422.6)">j</text><text xml:space="preserve" font-family="Helvetica-Light,Helvetica" font-size="45.8" fill="#000000" transform="matrix(1.00, 0.00, -0.00, -1.00, 1011.7, 422.6)">o</text><text xml:space="preserve" font-family="Helvetica-Light,Helvetica" font-size="45.8" fill="#000000" transform="matrix(1.00, 0.00, -0.00, -1.00, 1037.2, 422.6)">i</text><text xml:space="preserve" font-family="Helvetica-Light,Helvetica" font-size="45.8" fill="#000000" transform="matrix(1.00, 0.00, -0.00, -1.00, 1047.3, 422.6)">n</text><text xml:space="preserve" font-family="Helvetica-Light,Helvetica" font-size="45.8" fill="#000000" transform="matrix(1.00, 0.00, -0.00, -1.00, 1072.8, 422.6)"> </text><text xml:space="preserve" font-family="Helvetica-Bold,Helvetica" font-weight="bold" font-size="34.3" fill="#000000" transform="matrix(1.00, 0.00, -0.00, -1.00, 187.0, 320.0)">•</text><text xml:space="preserve" font-family="Helvetica-Bold,Helvetica" font-weight="bold" font-size="45.8" fill="#000000" transform="matrix(1.00, 0.00, -0.00, -1.00, 231.0, 315.7)">C</text><text xml:space="preserve" font-family="Helvetica-Bold,Helvetica" font-weight="bold" font-size="45.8" fill="#000000" transform="matrix(1.00, 0.00, -0.00, -1.00, 264.1, 315.7)">l</text><text xml:space="preserve" font-family="Helvetica-Bold,Helvetica" font-weight="bold" font-size="45.8" fill="#000000" transform="matrix(1.00, 0.00, -0.00, -1.00, 276.8, 315.7)">a</text><text xml:space="preserve" font-family="Helvetica-Bold,Helvetica" font-weight="bold" font-size="45.8" fill="#000000" transform="matrix(1.00, 0.00, -0.00, -1.00, 302.2, 315.7)">i</text><text xml:space="preserve" font-family="Helvetica-Bold,Helvetica" font-weight="bold" font-size="45.8" fill="#000000" transform="matrix(1.00, 0.00, -0.00, -1.00, 314.9, 315.7)">m</text><text xml:space="preserve" font-family="Helvetica-Bold,Helvetica" font-weight="bold" font-size="45.8" fill="#000000" transform="matrix(1.00, 0.00, -0.00, -1.00, 355.6, 315.7)">:</text><text xml:space="preserve" font-family="Helvetica-Bold,Helvetica" font-weight="bold" font-size="45.8" fill="#000000" transform="matrix(1.00, 0.00, -0.00, -1.00, 370.9, 315.7)"> </text><text xml:space="preserve" font-family="Helvetica-Bold,Helvetica" font-weight="bold" font-size="45.8" fill="#000000" transform="matrix(1.00, 0.00, -0.00, -1.00, 383.6, 315.7)">I</text><text xml:space="preserve" font-family="Helvetica-Bold,Helvetica" font-weight="bold" font-size="45.8" fill="#000000" transform="matrix(1.00, 0.00, -0.00, -1.00, 396.3, 315.7)">/</text><text xml:space="preserve" font-family="Helvetica-Bold,Helvetica" font-weight="bold" font-size="45.8" fill="#000000" transform="matrix(1.00, 0.00, -0.00, -1.00, 409.0, 315.7)">O</text><text xml:space="preserve" font-family="Helvetica-Bold,Helvetica" font-weight="bold" font-size="45.8" fill="#000000" transform="matrix(1.00, 0.00, -0.00, -1.00, 444.6, 315.7)"> </text><text xml:space="preserve" font-family="Helvetica-Bold,Helvetica" font-weight="bold" font-size="45.8" fill="#000000" transform="matrix(1.00, 0.00, -0.00, -1.00, 457.3, 315.7)">c</text><text xml:space="preserve" font-family="Helvetica-Bold,Helvetica" font-weight="bold" font-size="45.8" fill="#000000" transform="matrix(1.00, 0.00, -0.00, -1.00, 482.7, 315.7)">o</text><text xml:space="preserve" font-family="Helvetica-Bold,Helvetica" font-weight="bold" font-size="45.8" fill="#000000" transform="matrix(1.00, 0.00, -0.00, -1.00, 510.7, 315.7)">s</text><text xml:space="preserve" font-family="Helvetica-Bold,Helvetica" font-weight="bold" font-size="45.8" fill="#000000" transform="matrix(1.00, 0.00, -0.00, -1.00, 536.1, 315.7)">t</text><text xml:space="preserve" font-family="Helvetica-Bold,Helvetica" font-weight="bold" font-size="45.8" fill="#000000" transform="matrix(1.00, 0.00, -0.00, -1.00, 551.4, 315.7)"> </text><text xml:space="preserve" font-family="Helvetica-Bold,Helvetica" font-weight="bold" font-size="45.8" fill="#000000" transform="matrix(1.00, 0.00, -0.00, -1.00, 564.1, 315.7)">=</text><text xml:space="preserve" font-family="Helvetica-Bold,Helvetica" font-weight="bold" font-size="45.8" fill="#000000" transform="matrix(1.00, 0.00, -0.00, -1.00, 590.8, 315.7)"> </text><text xml:space="preserve" font-family="Helvetica-Bold,Helvetica" font-weight="bold" font-size="45.8" fill="#000000" transform="matrix(1.00, 0.00, -0.00, -1.00, 603.5, 315.7)">3</text><text xml:space="preserve" font-family="Helvetica-Bold,Helvetica" font-weight="bold" font-size="45.8" fill="#000000" transform="matrix(1.00, 0.00, -0.00, -1.00, 629.0, 315.7)"> </text><text xml:space="preserve" font-family="Helvetica-Bold,Helvetica" font-weight="bold" font-size="45.8" fill="#000000" transform="matrix(1.00, 0.00, -0.00, -1.00, 641.7, 315.7)">*</text><text xml:space="preserve" font-family="Helvetica-Bold,Helvetica" font-weight="bold" font-size="45.8" fill="#000000" transform="matrix(1.00, 0.00, -0.00, -1.00, 659.5, 315.7)"> </text><text xml:space="preserve" font-family="Helvetica-Bold,Helvetica" font-weight="bold" font-size="45.8" fill="#000000" transform="matrix(1.00, 0.00, -0.00, -1.00, 672.2, 315.7)">[</text><text xml:space="preserve" font-family="Helvetica-Bold,Helvetica" font-weight="bold" font-size="45.8" fill="#000000" transform="matrix(1.00, 0.00, -0.00, -1.00, 687.4, 315.7)">R</text><text xml:space="preserve" font-family="Helvetica-Bold,Helvetica" font-weight="bold" font-size="30.5" fill="#000000" transform="matrix(1.00, 0.00, -0.00, -1.00, 720.5, 310.7)">1</text><text xml:space="preserve" font-family="Helvetica-Bold,Helvetica" font-weight="bold" font-size="45.8" fill="#000000" transform="matrix(1.00, 0.00, -0.00, -1.00, 737.5, 315.7)">]</text><text xml:space="preserve" font-family="Helvetica-Bold,Helvetica" font-weight="bold" font-size="45.8" fill="#000000" transform="matrix(1.00, 0.00, -0.00, -1.00, 752.7, 315.7)"> </text><text xml:space="preserve" font-family="Helvetica-Bold,Helvetica" font-weight="bold" font-size="45.8" fill="#000000" transform="matrix(1.00, 0.00, -0.00, -1.00, 765.4, 315.7)">+</text><text xml:space="preserve" font-family="Helvetica-Bold,Helvetica" font-weight="bold" font-size="45.8" fill="#000000" transform="matrix(1.00, 0.00, -0.00, -1.00, 792.1, 315.7)"> </text><text xml:space="preserve" font-family="Helvetica-Bold,Helvetica" font-weight="bold" font-size="45.8" fill="#000000" transform="matrix(1.00, 0.00, -0.00, -1.00, 804.8, 315.7)">3</text><text xml:space="preserve" font-family="Helvetica-Bold,Helvetica" font-weight="bold" font-size="45.8" fill="#000000" transform="matrix(1.00, 0.00, -0.00, -1.00, 830.3, 315.7)"> </text><text xml:space="preserve" font-family="Helvetica-Bold,Helvetica" font-weight="bold" font-size="45.8" fill="#000000" transform="matrix(1.00, 0.00, -0.00, -1.00, 843.0, 315.7)">*</text><text xml:space="preserve" font-family="Helvetica-Bold,Helvetica" font-weight="bold" font-size="45.8" fill="#000000" transform="matrix(1.00, 0.00, -0.00, -1.00, 860.8, 315.7)"> </text><text xml:space="preserve" font-family="Helvetica-Bold,Helvetica" font-weight="bold" font-size="45.8" fill="#000000" transform="matrix(1.00, 0.00, -0.00, -1.00, 873.5, 315.7)">[</text><text xml:space="preserve" font-family="Helvetica-Bold,Helvetica" font-weight="bold" font-size="45.8" fill="#000000" transform="matrix(1.00, 0.00, -0.00, -1.00, 888.8, 315.7)">R</text><text xml:space="preserve" font-family="Helvetica-Bold,Helvetica" font-weight="bold" font-size="30.5" fill="#000000" transform="matrix(1.00, 0.00, -0.00, -1.00, 921.8, 310.7)">2</text><text xml:space="preserve" font-family="Helvetica-Bold,Helvetica" font-weight="bold" font-size="45.8" fill="#000000" transform="matrix(1.00, 0.00, -0.00, -1.00, 938.8, 315.7)">]</text><text xml:space="preserve" font-family="Helvetica-Bold,Helvetica" font-weight="bold" font-size="44.2" fill="#FEFFFE" transform="matrix(1.00, 0.00, -0.00, -1.00, 137.0, 94.5)">•</text><text xml:space="preserve" font-family="Helvetica-Bold,Helvetica" font-weight="bold" font-size="59.0" fill="#FEFFFE" transform="matrix(1.00, 0.00, -0.00, -1.00, 181.0, 88.9)">H</text><text xml:space="preserve" font-family="Helvetica-Bold,Helvetica" font-weight="bold" font-size="59.0" fill="#FEFFFE" transform="matrix(1.00, 0.00, -0.00, -1.00, 223.6, 88.9)">o</text><text xml:space="preserve" font-family="Helvetica-Bold,Helvetica" font-weight="bold" font-size="59.0" fill="#FEFFFE" transform="matrix(1.00, 0.00, -0.00, -1.00, 259.6, 88.9)">w</text><text xml:space="preserve" font-family="Helvetica-Bold,Helvetica" font-weight="bold" font-size="59.0" fill="#FEFFFE" transform="matrix(1.00, 0.00, -0.00, -1.00, 305.4, 88.9)"> </text><text xml:space="preserve" font-family="Helvetica-Bold,Helvetica" font-weight="bold" font-size="59.0" fill="#FEFFFE" transform="matrix(1.00, 0.00, -0.00, -1.00, 321.8, 88.9)">m</text><text xml:space="preserve" font-family="Helvetica-Bold,Helvetica" font-weight="bold" font-size="59.0" fill="#FEFFFE" transform="matrix(1.00, 0.00, -0.00, -1.00, 374.2, 88.9)">u</text><text xml:space="preserve" font-family="Helvetica-Bold,Helvetica" font-weight="bold" font-size="59.0" fill="#FEFFFE" transform="matrix(1.00, 0.00, -0.00, -1.00, 410.3, 88.9)">c</text><text xml:space="preserve" font-family="Helvetica-Bold,Helvetica" font-weight="bold" font-size="59.0" fill="#FEFFFE" transform="matrix(1.00, 0.00, -0.00, -1.00, 443.1, 88.9)">h</text><text xml:space="preserve" font-family="Helvetica-Bold,Helvetica" font-weight="bold" font-size="59.0" fill="#FEFFFE" transform="matrix(1.00, 0.00, -0.00, -1.00, 479.1, 88.9)"> </text><text xml:space="preserve" font-family="Helvetica-Bold,Helvetica" font-weight="bold" font-size="59.0" fill="#FEFFFE" transform="matrix(1.00, 0.00, -0.00, -1.00, 495.4, 88.9)">m</text><text xml:space="preserve" font-family="Helvetica-Bold,Helvetica" font-weight="bold" font-size="59.0" fill="#FEFFFE" transform="matrix(1.00, 0.00, -0.00, -1.00, 547.9, 88.9)">e</text><text xml:space="preserve" font-family="Helvetica-Bold,Helvetica" font-weight="bold" font-size="59.0" fill="#FEFFFE" transform="matrix(1.00, 0.00, -0.00, -1.00, 580.7, 88.9)">m</text><text xml:space="preserve" font-family="Helvetica-Bold,Helvetica" font-weight="bold" font-size="59.0" fill="#FEFFFE" transform="matrix(1.00, 0.00, -0.00, -1.00, 633.1, 88.9)">o</text><text xml:space="preserve" font-family="Helvetica-Bold,Helvetica" font-weight="bold" font-size="59.0" fill="#FEFFFE" transform="matrix(1.00, 0.00, -0.00, -1.00, 669.1, 88.9)">r</text><text xml:space="preserve" font-family="Helvetica-Bold,Helvetica" font-weight="bold" font-size="59.0" fill="#FEFFFE" transform="matrix(1.00, 0.00, -0.00, -1.00, 692.1, 88.9)">y</text><text xml:space="preserve" font-family="Helvetica-Bold,Helvetica" font-weight="bold" font-size="59.0" fill="#FEFFFE" transform="matrix(1.00, 0.00, -0.00, -1.00, 724.9, 88.9)"> </text><text xml:space="preserve" font-family="Helvetica-Bold,Helvetica" font-weight="bold" font-size="59.0" fill="#FEFFFE" transform="matrix(1.00, 0.00, -0.00, -1.00, 741.2, 88.9)">i</text><text xml:space="preserve" font-family="Helvetica-Bold,Helvetica" font-weight="bold" font-size="59.0" fill="#FEFFFE" transform="matrix(1.00, 0.00, -0.00, -1.00, 757.6, 88.9)">s</text><text xml:space="preserve" font-family="Helvetica-Bold,Helvetica" font-weight="bold" font-size="59.0" fill="#FEFFFE" transform="matrix(1.00, 0.00, -0.00, -1.00, 790.4, 88.9)"> </text><text xml:space="preserve" font-family="Helvetica-Bold,Helvetica" font-weight="bold" font-size="59.0" fill="#FEFFFE" transform="matrix(1.00, 0.00, -0.00, -1.00, 806.8, 88.9)">e</text><text xml:space="preserve" font-family="Helvetica-Bold,Helvetica" font-weight="bold" font-size="59.0" fill="#FEFFFE" transform="matrix(1.00, 0.00, -0.00, -1.00, 839.6, 88.9)">n</text><text xml:space="preserve" font-family="Helvetica-Bold,Helvetica" font-weight="bold" font-size="59.0" fill="#FEFFFE" transform="matrix(1.00, 0.00, -0.00, -1.00, 875.6, 88.9)">o</text><text xml:space="preserve" font-family="Helvetica-Bold,Helvetica" font-weight="bold" font-size="59.0" fill="#FEFFFE" transform="matrix(1.00, 0.00, -0.00, -1.00, 911.6, 88.9)">u</text><text xml:space="preserve" font-family="Helvetica-Bold,Helvetica" font-weight="bold" font-size="59.0" fill="#FEFFFE" transform="matrix(1.00, 0.00, -0.00, -1.00, 947.6, 88.9)">g</text><text xml:space="preserve" font-family="Helvetica-Bold,Helvetica" font-weight="bold" font-size="59.0" fill="#FEFFFE" transform="matrix(1.00, 0.00, -0.00, -1.00, 983.6, 88.9)">h</text><text xml:space="preserve" font-family="Helvetica-Bold,Helvetica" font-weight="bold" font-size="59.0" fill="#FEFFFE" transform="matrix(1.00, 0.00, -0.00, -1.00, 1019.6, 88.9)"> </text><text xml:space="preserve" font-family="Helvetica-Bold,Helvetica" font-weight="bold" font-size="59.0" fill="#FEFFFE" transform="matrix(1.00, 0.00, -0.00, -1.00, 1036.0, 88.9)">i</text><text xml:space="preserve" font-family="Helvetica-Bold,Helvetica" font-weight="bold" font-size="59.0" fill="#FEFFFE" transform="matrix(1.00, 0.00, -0.00, -1.00, 1052.3, 88.9)">n</text><text xml:space="preserve" font-family="Helvetica-Bold,Helvetica" font-weight="bold" font-size="59.0" fill="#FEFFFE" transform="matrix(1.00, 0.00, -0.00, -1.00, 1088.3, 88.9)"> </text><text xml:space="preserve" font-family="Helvetica-Bold,Helvetica" font-weight="bold" font-size="59.0" fill="#FEFFFE" transform="matrix(1.00, 0.00, -0.00, -1.00, 1104.7, 88.9)">t</text><text xml:space="preserve" font-family="Helvetica-Bold,Helvetica" font-weight="bold" font-size="59.0" fill="#FEFFFE" transform="matrix(1.00, 0.00, -0.00, -1.00, 1124.3, 88.9)">e</text><text xml:space="preserve" font-family="Helvetica-Bold,Helvetica" font-weight="bold" font-size="59.0" fill="#FEFFFE" transform="matrix(1.00, 0.00, -0.00, -1.00, 1157.1, 88.9)">r</text><text xml:space="preserve" font-family="Helvetica-Bold,Helvetica" font-weight="bold" font-size="59.0" fill="#FEFFFE" transform="matrix(1.00, 0.00, -0.00, -1.00, 1180.1, 88.9)">m</text><text xml:space="preserve" font-family="Helvetica-Bold,Helvetica" font-weight="bold" font-size="59.0" fill="#FEFFFE" transform="matrix(1.00, 0.00, -0.00, -1.00, 1232.5, 88.9)">s</text><text xml:space="preserve" font-family="Helvetica-Bold,Helvetica" font-weight="bold" font-size="59.0" fill="#FEFFFE" transform="matrix(1.00, 0.00, -0.00, -1.00, 1265.3, 88.9)"> </text><text xml:space="preserve" font-family="Helvetica-Bold,Helvetica" font-weight="bold" font-size="59.0" fill="#FEFFFE" transform="matrix(1.00, 0.00, -0.00, -1.00, 1281.7, 88.9)">o</text><text xml:space="preserve" font-family="Helvetica-Bold,Helvetica" font-weight="bold" font-size="59.0" fill="#FEFFFE" transform="matrix(1.00, 0.00, -0.00, -1.00, 1317.7, 88.9)">f</text><text xml:space="preserve" font-family="Helvetica-Bold,Helvetica" font-weight="bold" font-size="59.0" fill="#FEFFFE" transform="matrix(1.00, 0.00, -0.00, -1.00, 1337.3, 88.9)"> </text><text xml:space="preserve" font-family="Helvetica-Bold,Helvetica" font-weight="bold" font-size="59.0" fill="#FEFFFE" transform="matrix(1.00, 0.00, -0.00, -1.00, 1353.7, 88.9)">R</text><text xml:space="preserve" font-family="Helvetica-Bold,Helvetica" font-weight="bold" font-size="39.3" fill="#FEFFFE" transform="matrix(1.00, 0.00, -0.00, -1.00, 1396.4, 82.5)">1</text><text xml:space="preserve" font-family="Helvetica-Bold,Helvetica" font-weight="bold" font-size="59.0" fill="#FEFFFE" transform="matrix(1.00, 0.00, -0.00, -1.00, 1418.2, 88.9)"> </text><text xml:space="preserve" font-family="Helvetica-Bold,Helvetica" font-weight="bold" font-size="59.0" fill="#FEFFFE" transform="matrix(1.00, 0.00, -0.00, -1.00, 1434.6, 88.9)">a</text><text xml:space="preserve" font-family="Helvetica-Bold,Helvetica" font-weight="bold" font-size="59.0" fill="#FEFFFE" transform="matrix(1.00, 0.00, -0.00, -1.00, 1467.4, 88.9)">n</text><text xml:space="preserve" font-family="Helvetica-Bold,Helvetica" font-weight="bold" font-size="59.0" fill="#FEFFFE" transform="matrix(1.00, 0.00, -0.00, -1.00, 1503.4, 88.9)">d</text><text xml:space="preserve" font-family="Helvetica-Bold,Helvetica" font-weight="bold" font-size="59.0" fill="#FEFFFE" transform="matrix(1.00, 0.00, -0.00, -1.00, 1539.4, 88.9)"> </text><text xml:space="preserve" font-family="Helvetica-Bold,Helvetica" font-weight="bold" font-size="59.0" fill="#FEFFFE" transform="matrix(1.00, 0.00, -0.00, -1.00, 1555.8, 88.9)">R</text><text xml:space="preserve" font-family="Helvetica-Bold,Helvetica" font-weight="bold" font-size="39.3" fill="#FEFFFE" transform="matrix(1.00, 0.00, -0.00, -1.00, 1598.4, 82.5)">2</text><text xml:space="preserve" font-family="Helvetica-Bold,Helvetica" font-weight="bold" font-size="59.0" fill="#FEFFFE" transform="matrix(1.00, 0.00, -0.00, -1.00, 1620.3, 88.9)">?</text></g></svg>