<?xml version="1.0" encoding="UTF-8" standalone="no"?><svg xmlns="http://www.w3.org/2000/svg" xmlns:xlink="http://www.w3.org/1999/xlink" clip-rule="evenodd" stroke-miterlimit="10" viewBox="0 0 1920 1080"><desc>SVG generated by Keynote</desc><defs></defs><g transform="matrix(1.00, 0.00, -0.00, -1.00, 0.0, 1080.0)"><path d="M 0.0 1080.0 L 1920.0 1080.0 L 1920.0 0.0 L 0.0 0.0 Z M 0.0 1080.0 " fill="#FEFFFF"></path><image xlink:href="../../B1EF594C-12BD-4E74-9E88-A4D89DA12403/assets/E7EADDEC8CC06A841B4900944605B3FF.png" width="2071.00" height="619.00" transform="matrix(1.00, 0.00, -0.00, -1.00, -39.0, 1125.0)" opacity="0.50"></image><path d="M -36.0 1124.0 L 2029.0 1124.0 L 2029.0 511.0 L -36.0 511.0 Z M -36.0 1124.0 " fill="#002451"></path><text xml:space="preserve" font-family="Helvetica-Light,Helvetica" font-size="95.2" fill="#000000" transform="matrix(1.00, 0.00, -0.00, -1.00, 156.8, 350.9)"> </text><text xml:space="preserve" font-family="Helvetica-Light,Helvetica" font-size="95.2" fill="#000000" transform="matrix(1.00, 0.00, -0.00, -1.00, 221.8, 350.9)">H</text><text xml:space="preserve" font-family="Helvetica-Light,Helvetica" font-size="95.2" fill="#000000" transform="matrix(1.00, 0.00, -0.00, -1.00, 290.5, 350.9)">o</text><text xml:space="preserve" font-family="Helvetica-Light,Helvetica" font-size="95.2" fill="#000000" transform="matrix(1.00, 0.00, -0.00, -1.00, 343.5, 350.9)">w</text><text xml:space="preserve" font-family="Helvetica-Light,Helvetica" font-size="95.2" fill="#000000" transform="matrix(1.00, 0.00, -0.00, -1.00, 412.2, 350.9)"> </text><text xml:space="preserve" font-family="Helvetica-Light,Helvetica" font-size="95.2" fill="#000000" transform="matrix(1.00, 0.00, -0.00, -1.00, 438.7, 350.9)">m</text><text xml:space="preserve" font-family="Helvetica-Light,Helvetica" font-size="95.2" fill="#000000" transform="matrix(1.00, 0.00, -0.00, -1.00, 518.0, 350.9)">a</text><text xml:space="preserve" font-family="Helvetica-Light,Helvetica" font-size="95.2" fill="#000000" transform="matrix(1.00, 0.00, -0.00, -1.00, 570.9, 350.9)">n</text><text xml:space="preserve" font-family="Helvetica-Light,Helvetica" font-size="95.2" fill="#000000" transform="matrix(1.00, 0.00, -0.00, -1.00, 623.8, 350.9)">y</text><text xml:space="preserve" font-family="Helvetica-Light,Helvetica" font-size="95.2" fill="#000000" transform="matrix(1.00, 0.00, -0.00, -1.00, 671.4, 350.9)"> </text><text xml:space="preserve" font-family="Helvetica-Light,Helvetica" font-size="95.2" fill="#000000" transform="matrix(1.00, 0.00, -0.00, -1.00, 697.9, 350.9)">d</text><text xml:space="preserve" font-family="Helvetica-Light,Helvetica" font-size="95.2" fill="#000000" transform="matrix(1.00, 0.00, -0.00, -1.00, 756.1, 350.9)">i</text><text xml:space="preserve" font-family="Helvetica-Light,Helvetica" font-size="95.2" fill="#000000" transform="matrix(1.00, 0.00, -0.00, -1.00, 777.2, 350.9)">s</text><text xml:space="preserve" font-family="Helvetica-Light,Helvetica" font-size="95.2" fill="#000000" transform="matrix(1.00, 0.00, -0.00, -1.00, 824.8, 350.9)">k</text><text xml:space="preserve" font-family="Helvetica-Light,Helvetica" font-size="95.2" fill="#000000" transform="matrix(1.00, 0.00, -0.00, -1.00, 872.4, 350.9)"> </text><text xml:space="preserve" font-family="Helvetica-Light,Helvetica" font-size="95.2" fill="#000000" transform="matrix(1.00, 0.00, -0.00, -1.00, 898.9, 350.9)">r</text><text xml:space="preserve" font-family="Helvetica-Light,Helvetica" font-size="95.2" fill="#000000" transform="matrix(1.00, 0.00, -0.00, -1.00, 928.9, 350.9)">e</text><text xml:space="preserve" font-family="Helvetica-Light,Helvetica" font-size="95.2" fill="#000000" transform="matrix(1.00, 0.00, -0.00, -1.00, 981.8, 350.9)">a</text><text xml:space="preserve" font-family="Helvetica-Light,Helvetica" font-size="95.2" fill="#000000" transform="matrix(1.00, 0.00, -0.00, -1.00, 1034.7, 350.9)">d</text><text xml:space="preserve" font-family="Helvetica-Light,Helvetica" font-size="95.2" fill="#000000" transform="matrix(1.00, 0.00, -0.00, -1.00, 1092.9, 350.9)">s</text><text xml:space="preserve" font-family="Helvetica-Light,Helvetica" font-size="95.2" fill="#000000" transform="matrix(1.00, 0.00, -0.00, -1.00, 1140.5, 350.9)"> </text><text xml:space="preserve" font-family="Helvetica-Light,Helvetica" font-size="95.2" fill="#000000" transform="matrix(1.00, 0.00, -0.00, -1.00, 1167.0, 350.9)">a</text><text xml:space="preserve" font-family="Helvetica-Light,Helvetica" font-size="95.2" fill="#000000" transform="matrix(1.00, 0.00, -0.00, -1.00, 1219.9, 350.9)">r</text><text xml:space="preserve" font-family="Helvetica-Light,Helvetica" font-size="95.2" fill="#000000" transform="matrix(1.00, 0.00, -0.00, -1.00, 1249.9, 350.9)">e</text><text xml:space="preserve" font-family="Helvetica-Light,Helvetica" font-size="95.2" fill="#000000" transform="matrix(1.00, 0.00, -0.00, -1.00, 1302.8, 350.9)"> </text><text xml:space="preserve" font-family="Helvetica-Light,Helvetica" font-size="95.2" fill="#000000" transform="matrix(1.00, 0.00, -0.00, -1.00, 1329.3, 350.9)">n</text><text xml:space="preserve" font-family="Helvetica-Light,Helvetica" font-size="95.2" fill="#000000" transform="matrix(1.00, 0.00, -0.00, -1.00, 1382.2, 350.9)">e</text><text xml:space="preserve" font-family="Helvetica-Light,Helvetica" font-size="95.2" fill="#000000" transform="matrix(1.00, 0.00, -0.00, -1.00, 1435.1, 350.9)">e</text><text xml:space="preserve" font-family="Helvetica-Light,Helvetica" font-size="95.2" fill="#000000" transform="matrix(1.00, 0.00, -0.00, -1.00, 1488.1, 350.9)">d</text><text xml:space="preserve" font-family="Helvetica-Light,Helvetica" font-size="95.2" fill="#000000" transform="matrix(1.00, 0.00, -0.00, -1.00, 1546.2, 350.9)">e</text><text xml:space="preserve" font-family="Helvetica-Light,Helvetica" font-size="95.2" fill="#000000" transform="matrix(1.00, 0.00, -0.00, -1.00, 1599.2, 350.9)">d</text><text xml:space="preserve" font-family="Helvetica-Light,Helvetica" font-size="95.2" fill="#000000" transform="matrix(1.00, 0.00, -0.00, -1.00, 1657.3, 350.9)"> </text><text xml:space="preserve" font-family="Helvetica-Light,Helvetica" font-size="95.2" fill="#000000" transform="matrix(1.00, 0.00, -0.00, -1.00, 1683.8, 350.9)">t</text><text xml:space="preserve" font-family="Helvetica-Light,Helvetica" font-size="95.2" fill="#000000" transform="matrix(1.00, 0.00, -0.00, -1.00, 1710.3, 350.9)">o</text><text xml:space="preserve" font-family="Helvetica-Light,Helvetica" font-size="95.2" fill="#000000" transform="matrix(1.00, 0.00, -0.00, -1.00, 1763.2, 350.9)"> </text><text xml:space="preserve" font-family="Helvetica-Light,Helvetica" font-size="95.2" fill="#000000" transform="matrix(1.00, 0.00, -0.00, -1.00, 150.7, 236.9)">p</text><text xml:space="preserve" font-family="Helvetica-Light,Helvetica" font-size="95.2" fill="#000000" transform="matrix(1.00, 0.00, -0.00, -1.00, 208.8, 236.9)">e</text><text xml:space="preserve" font-family="Helvetica-Light,Helvetica" font-size="95.2" fill="#000000" transform="matrix(1.00, 0.00, -0.00, -1.00, 261.8, 236.9)">r</text><text xml:space="preserve" font-family="Helvetica-Light,Helvetica" font-size="95.2" fill="#000000" transform="matrix(1.00, 0.00, -0.00, -1.00, 295.2, 236.9)">f</text><text xml:space="preserve" font-family="Helvetica-Light,Helvetica" font-size="95.2" fill="#000000" transform="matrix(1.00, 0.00, -0.00, -1.00, 321.6, 236.9)">o</text><text xml:space="preserve" font-family="Helvetica-Light,Helvetica" font-size="95.2" fill="#000000" transform="matrix(1.00, 0.00, -0.00, -1.00, 374.6, 236.9)">r</text><text xml:space="preserve" font-family="Helvetica-Light,Helvetica" font-size="95.2" fill="#000000" transform="matrix(1.00, 0.00, -0.00, -1.00, 408.0, 236.9)">m</text><text xml:space="preserve" font-family="Helvetica-Light,Helvetica" font-size="95.2" fill="#000000" transform="matrix(1.00, 0.00, -0.00, -1.00, 487.3, 236.9)"> </text><text xml:space="preserve" font-family="Helvetica-Light,Helvetica" font-size="95.2" fill="#000000" transform="matrix(1.00, 0.00, -0.00, -1.00, 513.8, 236.9)">S</text><text xml:space="preserve" font-family="Helvetica-Light,Helvetica" font-size="95.2" fill="#000000" transform="matrix(1.00, 0.00, -0.00, -1.00, 571.9, 236.9)">o</text><text xml:space="preserve" font-family="Helvetica-Light,Helvetica" font-size="95.2" fill="#000000" transform="matrix(1.00, 0.00, -0.00, -1.00, 624.8, 236.9)">r</text><text xml:space="preserve" font-family="Helvetica-Light,Helvetica" font-size="95.2" fill="#000000" transform="matrix(1.00, 0.00, -0.00, -1.00, 658.3, 236.9)">t</text><text xml:space="preserve" font-family="Helvetica-Light,Helvetica" font-size="95.2" fill="#000000" transform="matrix(1.00, 0.00, -0.00, -1.00, 684.7, 236.9)"> </text><text xml:space="preserve" font-family="Helvetica-Light,Helvetica" font-size="95.2" fill="#000000" transform="matrix(1.00, 0.00, -0.00, -1.00, 711.2, 236.9)">M</text><text xml:space="preserve" font-family="Helvetica-Light,Helvetica" font-size="95.2" fill="#000000" transform="matrix(1.00, 0.00, -0.00, -1.00, 790.5, 236.9)">e</text><text xml:space="preserve" font-family="Helvetica-Light,Helvetica" font-size="95.2" fill="#000000" transform="matrix(1.00, 0.00, -0.00, -1.00, 843.4, 236.9)">r</text><text xml:space="preserve" font-family="Helvetica-Light,Helvetica" font-size="95.2" fill="#000000" transform="matrix(1.00, 0.00, -0.00, -1.00, 875.1, 236.9)">g</text><text xml:space="preserve" font-family="Helvetica-Light,Helvetica" font-size="95.2" fill="#000000" transform="matrix(1.00, 0.00, -0.00, -1.00, 933.3, 236.9)">e</text><text xml:space="preserve" font-family="Helvetica-Light,Helvetica" font-size="95.2" fill="#000000" transform="matrix(1.00, 0.00, -0.00, -1.00, 986.2, 236.9)"> </text><text xml:space="preserve" font-family="Helvetica-Light,Helvetica" font-size="95.2" fill="#000000" transform="matrix(1.00, 0.00, -0.00, -1.00, 1012.7, 236.9)">J</text><text xml:space="preserve" font-family="Helvetica-Light,Helvetica" font-size="95.2" fill="#000000" transform="matrix(1.00, 0.00, -0.00, -1.00, 1060.3, 236.9)">o</text><text xml:space="preserve" font-family="Helvetica-Light,Helvetica" font-size="95.2" fill="#000000" transform="matrix(1.00, 0.00, -0.00, -1.00, 1113.2, 236.9)">i</text><text xml:space="preserve" font-family="Helvetica-Light,Helvetica" font-size="95.2" fill="#000000" transform="matrix(1.00, 0.00, -0.00, -1.00, 1134.4, 236.9)">n</text><text xml:space="preserve" font-family="Helvetica-Light,Helvetica" font-size="95.2" fill="#000000" transform="matrix(1.00, 0.00, -0.00, -1.00, 1187.3, 236.9)"> </text><text xml:space="preserve" font-family="Helvetica-Light,Helvetica" font-size="95.2" fill="#000000" transform="matrix(1.00, 0.00, -0.00, -1.00, 1213.8, 236.9)">i</text><text xml:space="preserve" font-family="Helvetica-Light,Helvetica" font-size="95.2" fill="#000000" transform="matrix(1.00, 0.00, -0.00, -1.00, 1234.9, 236.9)">f</text><text xml:space="preserve" font-family="Helvetica-Light,Helvetica" font-size="95.2" fill="#000000" transform="matrix(1.00, 0.00, -0.00, -1.00, 1261.4, 236.9)"> </text><text xml:space="preserve" font-family="Helvetica-Light,Helvetica" font-size="95.2" fill="#000000" transform="matrix(1.00, 0.00, -0.00, -1.00, 1287.8, 236.9)">t</text><text xml:space="preserve" font-family="Helvetica-Light,Helvetica" font-size="95.2" fill="#000000" transform="matrix(1.00, 0.00, -0.00, -1.00, 1314.3, 236.9)">h</text><text xml:space="preserve" font-family="Helvetica-Light,Helvetica" font-size="95.2" fill="#000000" transform="matrix(1.00, 0.00, -0.00, -1.00, 1367.2, 236.9)">e</text><text xml:space="preserve" font-family="Helvetica-Light,Helvetica" font-size="95.2" fill="#000000" transform="matrix(1.00, 0.00, -0.00, -1.00, 1420.1, 236.9)"> </text><text xml:space="preserve" font-family="Helvetica-Light,Helvetica" font-size="95.2" fill="#000000" transform="matrix(1.00, 0.00, -0.00, -1.00, 1446.6, 236.9)">j</text><text xml:space="preserve" font-family="Helvetica-Light,Helvetica" font-size="95.2" fill="#000000" transform="matrix(1.00, 0.00, -0.00, -1.00, 1467.7, 236.9)">o</text><text xml:space="preserve" font-family="Helvetica-Light,Helvetica" font-size="95.2" fill="#000000" transform="matrix(1.00, 0.00, -0.00, -1.00, 1520.7, 236.9)">i</text><text xml:space="preserve" font-family="Helvetica-Light,Helvetica" font-size="95.2" fill="#000000" transform="matrix(1.00, 0.00, -0.00, -1.00, 1541.8, 236.9)">n</text><text xml:space="preserve" font-family="Helvetica-Light,Helvetica" font-size="95.2" fill="#000000" transform="matrix(1.00, 0.00, -0.00, -1.00, 1594.7, 236.9)"> </text><text xml:space="preserve" font-family="Helvetica-Light,Helvetica" font-size="95.2" fill="#000000" transform="matrix(1.00, 0.00, -0.00, -1.00, 1621.2, 236.9)">k</text><text xml:space="preserve" font-family="Helvetica-Light,Helvetica" font-size="95.2" fill="#000000" transform="matrix(1.00, 0.00, -0.00, -1.00, 1668.8, 236.9)">e</text><text xml:space="preserve" font-family="Helvetica-Light,Helvetica" font-size="95.2" fill="#000000" transform="matrix(1.00, 0.00, -0.00, -1.00, 1721.7, 236.9)">y</text><text xml:space="preserve" font-family="Helvetica-Light,Helvetica" font-size="95.2" fill="#000000" transform="matrix(1.00, 0.00, -0.00, -1.00, 1769.3, 236.9)"> </text><text xml:space="preserve" font-family="Helvetica-Light,Helvetica" font-size="95.2" fill="#000000" transform="matrix(1.00, 0.00, -0.00, -1.00, 214.0, 122.9)">h</text><text xml:space="preserve" font-family="Helvetica-Light,Helvetica" font-size="95.2" fill="#000000" transform="matrix(1.00, 0.00, -0.00, -1.00, 266.9, 122.9)">a</text><text xml:space="preserve" font-family="Helvetica-Light,Helvetica" font-size="95.2" fill="#000000" transform="matrix(1.00, 0.00, -0.00, -1.00, 319.9, 122.9)">p</text><text xml:space="preserve" font-family="Helvetica-Light,Helvetica" font-size="95.2" fill="#000000" transform="matrix(1.00, 0.00, -0.00, -1.00, 378.0, 122.9)">p</text><text xml:space="preserve" font-family="Helvetica-Light,Helvetica" font-size="95.2" fill="#000000" transform="matrix(1.00, 0.00, -0.00, -1.00, 436.2, 122.9)">e</text><text xml:space="preserve" font-family="Helvetica-Light,Helvetica" font-size="95.2" fill="#000000" transform="matrix(1.00, 0.00, -0.00, -1.00, 489.1, 122.9)">n</text><text xml:space="preserve" font-family="Helvetica-Light,Helvetica" font-size="95.2" fill="#000000" transform="matrix(1.00, 0.00, -0.00, -1.00, 542.1, 122.9)">s</text><text xml:space="preserve" font-family="Helvetica-Light,Helvetica" font-size="95.2" fill="#000000" transform="matrix(1.00, 0.00, -0.00, -1.00, 589.7, 122.9)"> </text><text xml:space="preserve" font-family="Helvetica-Light,Helvetica" font-size="95.2" fill="#000000" transform="matrix(1.00, 0.00, -0.00, -1.00, 616.1, 122.9)">t</text><text xml:space="preserve" font-family="Helvetica-Light,Helvetica" font-size="95.2" fill="#000000" transform="matrix(1.00, 0.00, -0.00, -1.00, 642.6, 122.9)">o</text><text xml:space="preserve" font-family="Helvetica-Light,Helvetica" font-size="95.2" fill="#000000" transform="matrix(1.00, 0.00, -0.00, -1.00, 695.5, 122.9)"> </text><text xml:space="preserve" font-family="Helvetica-Light,Helvetica" font-size="95.2" fill="#000000" transform="matrix(1.00, 0.00, -0.00, -1.00, 722.0, 122.9)">b</text><text xml:space="preserve" font-family="Helvetica-Light,Helvetica" font-size="95.2" fill="#000000" transform="matrix(1.00, 0.00, -0.00, -1.00, 780.2, 122.9)">e</text><text xml:space="preserve" font-family="Helvetica-Light,Helvetica" font-size="95.2" fill="#000000" transform="matrix(1.00, 0.00, -0.00, -1.00, 833.1, 122.9)"> </text><text xml:space="preserve" font-family="Helvetica-Light,Helvetica" font-size="95.2" fill="#000000" transform="matrix(1.00, 0.00, -0.00, -1.00, 859.6, 122.9)">c</text><text xml:space="preserve" font-family="Helvetica-Light,Helvetica" font-size="95.2" fill="#000000" transform="matrix(1.00, 0.00, -0.00, -1.00, 912.5, 122.9)">o</text><text xml:space="preserve" font-family="Helvetica-Light,Helvetica" font-size="95.2" fill="#000000" transform="matrix(1.00, 0.00, -0.00, -1.00, 965.4, 122.9)">m</text><text xml:space="preserve" font-family="Helvetica-Light,Helvetica" font-size="95.2" fill="#000000" transform="matrix(1.00, 0.00, -0.00, -1.00, 1044.7, 122.9)">p</text><text xml:space="preserve" font-family="Helvetica-Light,Helvetica" font-size="95.2" fill="#000000" transform="matrix(1.00, 0.00, -0.00, -1.00, 1102.9, 122.9)">l</text><text xml:space="preserve" font-family="Helvetica-Light,Helvetica" font-size="95.2" fill="#000000" transform="matrix(1.00, 0.00, -0.00, -1.00, 1124.0, 122.9)">e</text><text xml:space="preserve" font-family="Helvetica-Light,Helvetica" font-size="95.2" fill="#000000" transform="matrix(1.00, 0.00, -0.00, -1.00, 1177.0, 122.9)">t</text><text xml:space="preserve" font-family="Helvetica-Light,Helvetica" font-size="95.2" fill="#000000" transform="matrix(1.00, 0.00, -0.00, -1.00, 1203.4, 122.9)">e</text><text xml:space="preserve" font-family="Helvetica-Light,Helvetica" font-size="95.2" fill="#000000" transform="matrix(1.00, 0.00, -0.00, -1.00, 1256.4, 122.9)">l</text><text xml:space="preserve" font-family="Helvetica-Light,Helvetica" font-size="95.2" fill="#000000" transform="matrix(1.00, 0.00, -0.00, -1.00, 1277.5, 122.9)">y</text><text xml:space="preserve" font-family="Helvetica-Light,Helvetica" font-size="95.2" fill="#000000" transform="matrix(1.00, 0.00, -0.00, -1.00, 1325.1, 122.9)"> </text><text xml:space="preserve" font-family="Helvetica-Light,Helvetica" font-size="95.2" fill="#000000" transform="matrix(1.00, 0.00, -0.00, -1.00, 1351.6, 122.9)">d</text><text xml:space="preserve" font-family="Helvetica-Light,Helvetica" font-size="95.2" fill="#000000" transform="matrix(1.00, 0.00, -0.00, -1.00, 1409.7, 122.9)">i</text><text xml:space="preserve" font-family="Helvetica-Light,Helvetica" font-size="95.2" fill="#000000" transform="matrix(1.00, 0.00, -0.00, -1.00, 1430.9, 122.9)">s</text><text xml:space="preserve" font-family="Helvetica-Light,Helvetica" font-size="95.2" fill="#000000" transform="matrix(1.00, 0.00, -0.00, -1.00, 1478.5, 122.9)">t</text><text xml:space="preserve" font-family="Helvetica-Light,Helvetica" font-size="95.2" fill="#000000" transform="matrix(1.00, 0.00, -0.00, -1.00, 1504.9, 122.9)">i</text><text xml:space="preserve" font-family="Helvetica-Light,Helvetica" font-size="95.2" fill="#000000" transform="matrix(1.00, 0.00, -0.00, -1.00, 1526.1, 122.9)">n</text><text xml:space="preserve" font-family="Helvetica-Light,Helvetica" font-size="95.2" fill="#000000" transform="matrix(1.00, 0.00, -0.00, -1.00, 1579.0, 122.9)">c</text><text xml:space="preserve" font-family="Helvetica-Light,Helvetica" font-size="95.2" fill="#000000" transform="matrix(1.00, 0.00, -0.00, -1.00, 1631.9, 122.9)">t</text><text xml:space="preserve" font-family="Helvetica-Light,Helvetica" font-size="95.2" fill="#000000" transform="matrix(1.00, 0.00, -0.00, -1.00, 1658.4, 122.9)">?</text><text xml:space="preserve" font-family="Helvetica-Light,Helvetica" font-size="80.6" fill="#FEFFFE" transform="matrix(1.00, 0.00, -0.00, -1.00, 148.7, 863.5)">L</text><text xml:space="preserve" font-family="Helvetica-Light,Helvetica" font-size="80.6" fill="#FEFFFE" transform="matrix(1.00, 0.00, -0.00, -1.00, 193.5, 863.5)">e</text><text xml:space="preserve" font-family="Helvetica-Light,Helvetica" font-size="80.6" fill="#FEFFFE" transform="matrix(1.00, 0.00, -0.00, -1.00, 238.4, 863.5)">t</text><text xml:space="preserve" font-family="Helvetica-Light,Helvetica" font-size="80.6" fill="#FEFFFE" transform="matrix(1.00, 0.00, -0.00, -1.00, 260.8, 863.5)"> </text><text xml:space="preserve" font-family="Helvetica-Light,Helvetica" font-size="80.6" fill="#FEFFFE" transform="matrix(1.00, 0.00, -0.00, -1.00, 283.2, 863.5)">t</text><text xml:space="preserve" font-family="Helvetica-Light,Helvetica" font-size="80.6" fill="#FEFFFE" transform="matrix(1.00, 0.00, -0.00, -1.00, 305.6, 863.5)">h</text><text xml:space="preserve" font-family="Helvetica-Light,Helvetica" font-size="80.6" fill="#FEFFFE" transform="matrix(1.00, 0.00, -0.00, -1.00, 350.5, 863.5)">e</text><text xml:space="preserve" font-family="Helvetica-Light,Helvetica" font-size="80.6" fill="#FEFFFE" transform="matrix(1.00, 0.00, -0.00, -1.00, 395.3, 863.5)"> </text><text xml:space="preserve" font-family="Helvetica-Light,Helvetica" font-size="80.6" fill="#51A7F9" transform="matrix(1.00, 0.00, -0.00, -1.00, 417.7, 863.5)">U</text><text xml:space="preserve" font-family="Helvetica-Light,Helvetica" font-size="80.6" fill="#51A7F9" transform="matrix(1.00, 0.00, -0.00, -1.00, 475.9, 863.5)">s</text><text xml:space="preserve" font-family="Helvetica-Light,Helvetica" font-size="80.6" fill="#51A7F9" transform="matrix(1.00, 0.00, -0.00, -1.00, 516.3, 863.5)">e</text><text xml:space="preserve" font-family="Helvetica-Light,Helvetica" font-size="80.6" fill="#51A7F9" transform="matrix(1.00, 0.00, -0.00, -1.00, 561.1, 863.5)">r</text><text xml:space="preserve" font-family="Helvetica-Light,Helvetica" font-size="80.6" fill="#51A7F9" transform="matrix(1.00, 0.00, -0.00, -1.00, 588.0, 863.5)">s</text><text xml:space="preserve" font-family="Helvetica-Light,Helvetica" font-size="80.6" fill="#FEFFFE" transform="matrix(1.00, 0.00, -0.00, -1.00, 628.3, 863.5)"> </text><text xml:space="preserve" font-family="Helvetica-Light,Helvetica" font-size="80.6" fill="#FEFFFE" transform="matrix(1.00, 0.00, -0.00, -1.00, 650.7, 863.5)">t</text><text xml:space="preserve" font-family="Helvetica-Light,Helvetica" font-size="80.6" fill="#FEFFFE" transform="matrix(1.00, 0.00, -0.00, -1.00, 673.1, 863.5)">a</text><text xml:space="preserve" font-family="Helvetica-Light,Helvetica" font-size="80.6" fill="#FEFFFE" transform="matrix(1.00, 0.00, -0.00, -1.00, 717.9, 863.5)">b</text><text xml:space="preserve" font-family="Helvetica-Light,Helvetica" font-size="80.6" fill="#FEFFFE" transform="matrix(1.00, 0.00, -0.00, -1.00, 767.2, 863.5)">l</text><text xml:space="preserve" font-family="Helvetica-Light,Helvetica" font-size="80.6" fill="#FEFFFE" transform="matrix(1.00, 0.00, -0.00, -1.00, 785.1, 863.5)">e</text><text xml:space="preserve" font-family="Helvetica-Light,Helvetica" font-size="80.6" fill="#FEFFFE" transform="matrix(1.00, 0.00, -0.00, -1.00, 830.0, 863.5)"> </text><text xml:space="preserve" font-family="Helvetica-Light,Helvetica" font-size="80.6" fill="#FEFFFE" transform="matrix(1.00, 0.00, -0.00, -1.00, 852.4, 863.5)">c</text><text xml:space="preserve" font-family="Helvetica-Light,Helvetica" font-size="80.6" fill="#FEFFFE" transform="matrix(1.00, 0.00, -0.00, -1.00, 897.2, 863.5)">o</text><text xml:space="preserve" font-family="Helvetica-Light,Helvetica" font-size="80.6" fill="#FEFFFE" transform="matrix(1.00, 0.00, -0.00, -1.00, 942.0, 863.5)">n</text><text xml:space="preserve" font-family="Helvetica-Light,Helvetica" font-size="80.6" fill="#FEFFFE" transform="matrix(1.00, 0.00, -0.00, -1.00, 986.9, 863.5)">s</text><text xml:space="preserve" font-family="Helvetica-Light,Helvetica" font-size="80.6" fill="#FEFFFE" transform="matrix(1.00, 0.00, -0.00, -1.00, 1027.2, 863.5)">i</text><text xml:space="preserve" font-family="Helvetica-Light,Helvetica" font-size="80.6" fill="#FEFFFE" transform="matrix(1.00, 0.00, -0.00, -1.00, 1045.1, 863.5)">s</text><text xml:space="preserve" font-family="Helvetica-Light,Helvetica" font-size="80.6" fill="#FEFFFE" transform="matrix(1.00, 0.00, -0.00, -1.00, 1085.4, 863.5)">t</text><text xml:space="preserve" font-family="Helvetica-Light,Helvetica" font-size="80.6" fill="#FEFFFE" transform="matrix(1.00, 0.00, -0.00, -1.00, 1107.8, 863.5)"> </text><text xml:space="preserve" font-family="Helvetica-Light,Helvetica" font-size="80.6" fill="#FEFFFE" transform="matrix(1.00, 0.00, -0.00, -1.00, 1130.3, 863.5)">o</text><text xml:space="preserve" font-family="Helvetica-Light,Helvetica" font-size="80.6" fill="#FEFFFE" transform="matrix(1.00, 0.00, -0.00, -1.00, 1175.1, 863.5)">f</text><text xml:space="preserve" font-family="Helvetica-Light,Helvetica" font-size="80.6" fill="#FEFFFE" transform="matrix(1.00, 0.00, -0.00, -1.00, 1197.5, 863.5)"> </text><text xml:space="preserve" font-family="Helvetica-Bold,Helvetica" font-weight="bold" font-size="80.6" fill="#51A7F9" transform="matrix(1.00, 0.00, -0.00, -1.00, 1219.9, 863.5)">1</text><text xml:space="preserve" font-family="Helvetica-Bold,Helvetica" font-weight="bold" font-size="80.6" fill="#51A7F9" transform="matrix(1.00, 0.00, -0.00, -1.00, 1264.8, 863.5)">0</text><text xml:space="preserve" font-family="Helvetica-Bold,Helvetica" font-weight="bold" font-size="80.6" fill="#51A7F9" transform="matrix(1.00, 0.00, -0.00, -1.00, 1309.7, 863.5)">0</text><text xml:space="preserve" font-family="Helvetica-Bold,Helvetica" font-weight="bold" font-size="80.6" fill="#51A7F9" transform="matrix(1.00, 0.00, -0.00, -1.00, 1354.5, 863.5)"> </text><text xml:space="preserve" font-family="Helvetica-Bold,Helvetica" font-weight="bold" font-size="80.6" fill="#51A7F9" transform="matrix(1.00, 0.00, -0.00, -1.00, 1376.9, 863.5)">p</text><text xml:space="preserve" font-family="Helvetica-Bold,Helvetica" font-weight="bold" font-size="80.6" fill="#51A7F9" transform="matrix(1.00, 0.00, -0.00, -1.00, 1426.2, 863.5)">a</text><text xml:space="preserve" font-family="Helvetica-Bold,Helvetica" font-weight="bold" font-size="80.6" fill="#51A7F9" transform="matrix(1.00, 0.00, -0.00, -1.00, 1471.1, 863.5)">g</text><text xml:space="preserve" font-family="Helvetica-Bold,Helvetica" font-weight="bold" font-size="80.6" fill="#51A7F9" transform="matrix(1.00, 0.00, -0.00, -1.00, 1520.4, 863.5)">e</text><text xml:space="preserve" font-family="Helvetica-Bold,Helvetica" font-weight="bold" font-size="80.6" fill="#51A7F9" transform="matrix(1.00, 0.00, -0.00, -1.00, 1565.2, 863.5)">s</text><text xml:space="preserve" font-family="Helvetica-Light,Helvetica" font-size="80.6" fill="#FEFFFE" transform="matrix(1.00, 0.00, -0.00, -1.00, 1609.9, 863.5)"> </text><text xml:space="preserve" font-family="Helvetica-Light,Helvetica" font-size="80.6" fill="#FEFFFE" transform="matrix(1.00, 0.00, -0.00, -1.00, 1632.4, 863.5)">a</text><text xml:space="preserve" font-family="Helvetica-Light,Helvetica" font-size="80.6" fill="#FEFFFE" transform="matrix(1.00, 0.00, -0.00, -1.00, 1677.2, 863.5)">n</text><text xml:space="preserve" font-family="Helvetica-Light,Helvetica" font-size="80.6" fill="#FEFFFE" transform="matrix(1.00, 0.00, -0.00, -1.00, 1722.0, 863.5)">d</text><text xml:space="preserve" font-family="Helvetica-Light,Helvetica" font-size="80.6" fill="#FEFFFE" transform="matrix(1.00, 0.00, -0.00, -1.00, 1771.3, 863.5)"> </text><text xml:space="preserve" font-family="Helvetica-Light,Helvetica" font-size="80.6" fill="#FEFFFE" transform="matrix(1.00, 0.00, -0.00, -1.00, 198.0, 766.5)">t</text><text xml:space="preserve" font-family="Helvetica-Light,Helvetica" font-size="80.6" fill="#FEFFFE" transform="matrix(1.00, 0.00, -0.00, -1.00, 220.4, 766.5)">h</text><text xml:space="preserve" font-family="Helvetica-Light,Helvetica" font-size="80.6" fill="#FEFFFE" transform="matrix(1.00, 0.00, -0.00, -1.00, 265.2, 766.5)">e</text><text xml:space="preserve" font-family="Helvetica-Light,Helvetica" font-size="80.6" fill="#FEFFFE" transform="matrix(1.00, 0.00, -0.00, -1.00, 310.1, 766.5)"> </text><text xml:space="preserve" font-family="Helvetica-Light,Helvetica" font-size="80.6" fill="#F38F18" transform="matrix(1.00, 0.00, -0.00, -1.00, 332.5, 766.5)">R</text><text xml:space="preserve" font-family="Helvetica-Light,Helvetica" font-size="80.6" fill="#F38F18" transform="matrix(1.00, 0.00, -0.00, -1.00, 386.3, 766.5)">e</text><text xml:space="preserve" font-family="Helvetica-Light,Helvetica" font-size="80.6" fill="#F38F18" transform="matrix(1.00, 0.00, -0.00, -1.00, 431.1, 766.5)">s</text><text xml:space="preserve" font-family="Helvetica-Light,Helvetica" font-size="80.6" fill="#F38F18" transform="matrix(1.00, 0.00, -0.00, -1.00, 471.4, 766.5)">t</text><text xml:space="preserve" font-family="Helvetica-Light,Helvetica" font-size="80.6" fill="#F38F18" transform="matrix(1.00, 0.00, -0.00, -1.00, 493.8, 766.5)">a</text><text xml:space="preserve" font-family="Helvetica-Light,Helvetica" font-size="80.6" fill="#F38F18" transform="matrix(1.00, 0.00, -0.00, -1.00, 538.7, 766.5)">u</text><text xml:space="preserve" font-family="Helvetica-Light,Helvetica" font-size="80.6" fill="#F38F18" transform="matrix(1.00, 0.00, -0.00, -1.00, 583.5, 766.5)">r</text><text xml:space="preserve" font-family="Helvetica-Light,Helvetica" font-size="80.6" fill="#F38F18" transform="matrix(1.00, 0.00, -0.00, -1.00, 610.4, 766.5)">a</text><text xml:space="preserve" font-family="Helvetica-Light,Helvetica" font-size="80.6" fill="#F38F18" transform="matrix(1.00, 0.00, -0.00, -1.00, 655.2, 766.5)">n</text><text xml:space="preserve" font-family="Helvetica-Light,Helvetica" font-size="80.6" fill="#F38F18" transform="matrix(1.00, 0.00, -0.00, -1.00, 700.0, 766.5)">t</text><text xml:space="preserve" font-family="Helvetica-Light,Helvetica" font-size="80.6" fill="#F38F18" transform="matrix(1.00, 0.00, -0.00, -1.00, 722.5, 766.5)">s</text><text xml:space="preserve" font-family="Helvetica-Light,Helvetica" font-size="80.6" fill="#FEFFFE" transform="matrix(1.00, 0.00, -0.00, -1.00, 762.8, 766.5)"> </text><text xml:space="preserve" font-family="Helvetica-Light,Helvetica" font-size="80.6" fill="#FEFFFE" transform="matrix(1.00, 0.00, -0.00, -1.00, 785.2, 766.5)">t</text><text xml:space="preserve" font-family="Helvetica-Light,Helvetica" font-size="80.6" fill="#FEFFFE" transform="matrix(1.00, 0.00, -0.00, -1.00, 807.6, 766.5)">a</text><text xml:space="preserve" font-family="Helvetica-Light,Helvetica" font-size="80.6" fill="#FEFFFE" transform="matrix(1.00, 0.00, -0.00, -1.00, 852.5, 766.5)">b</text><text xml:space="preserve" font-family="Helvetica-Light,Helvetica" font-size="80.6" fill="#FEFFFE" transform="matrix(1.00, 0.00, -0.00, -1.00, 901.7, 766.5)">l</text><text xml:space="preserve" font-family="Helvetica-Light,Helvetica" font-size="80.6" fill="#FEFFFE" transform="matrix(1.00, 0.00, -0.00, -1.00, 919.6, 766.5)">e</text><text xml:space="preserve" font-family="Helvetica-Light,Helvetica" font-size="80.6" fill="#FEFFFE" transform="matrix(1.00, 0.00, -0.00, -1.00, 964.5, 766.5)"> </text><text xml:space="preserve" font-family="Helvetica-Light,Helvetica" font-size="80.6" fill="#FEFFFE" transform="matrix(1.00, 0.00, -0.00, -1.00, 986.9, 766.5)">c</text><text xml:space="preserve" font-family="Helvetica-Light,Helvetica" font-size="80.6" fill="#FEFFFE" transform="matrix(1.00, 0.00, -0.00, -1.00, 1031.7, 766.5)">o</text><text xml:space="preserve" font-family="Helvetica-Light,Helvetica" font-size="80.6" fill="#FEFFFE" transform="matrix(1.00, 0.00, -0.00, -1.00, 1076.6, 766.5)">n</text><text xml:space="preserve" font-family="Helvetica-Light,Helvetica" font-size="80.6" fill="#FEFFFE" transform="matrix(1.00, 0.00, -0.00, -1.00, 1121.4, 766.5)">s</text><text xml:space="preserve" font-family="Helvetica-Light,Helvetica" font-size="80.6" fill="#FEFFFE" transform="matrix(1.00, 0.00, -0.00, -1.00, 1161.7, 766.5)">i</text><text xml:space="preserve" font-family="Helvetica-Light,Helvetica" font-size="80.6" fill="#FEFFFE" transform="matrix(1.00, 0.00, -0.00, -1.00, 1179.6, 766.5)">s</text><text xml:space="preserve" font-family="Helvetica-Light,Helvetica" font-size="80.6" fill="#FEFFFE" transform="matrix(1.00, 0.00, -0.00, -1.00, 1219.9, 766.5)">t</text><text xml:space="preserve" font-family="Helvetica-Light,Helvetica" font-size="80.6" fill="#FEFFFE" transform="matrix(1.00, 0.00, -0.00, -1.00, 1242.3, 766.5)"> </text><text xml:space="preserve" font-family="Helvetica-Light,Helvetica" font-size="80.6" fill="#FEFFFE" transform="matrix(1.00, 0.00, -0.00, -1.00, 1264.8, 766.5)">o</text><text xml:space="preserve" font-family="Helvetica-Light,Helvetica" font-size="80.6" fill="#FEFFFE" transform="matrix(1.00, 0.00, -0.00, -1.00, 1309.6, 766.5)">f</text><text xml:space="preserve" font-family="Helvetica-Light,Helvetica" font-size="80.6" fill="#FEFFFE" transform="matrix(1.00, 0.00, -0.00, -1.00, 1332.0, 766.5)"> </text><text xml:space="preserve" font-family="Helvetica-Bold,Helvetica" font-weight="bold" font-size="80.6" fill="#F38F18" transform="matrix(1.00, 0.00, -0.00, -1.00, 1354.4, 766.5)">5</text><text xml:space="preserve" font-family="Helvetica-Bold,Helvetica" font-weight="bold" font-size="80.6" fill="#F38F18" transform="matrix(1.00, 0.00, -0.00, -1.00, 1399.3, 766.5)">0</text><text xml:space="preserve" font-family="Helvetica-Bold,Helvetica" font-weight="bold" font-size="80.6" fill="#F38F18" transform="matrix(1.00, 0.00, -0.00, -1.00, 1444.2, 766.5)"> </text><text xml:space="preserve" font-family="Helvetica-Bold,Helvetica" font-weight="bold" font-size="80.6" fill="#F38F18" transform="matrix(1.00, 0.00, -0.00, -1.00, 1466.6, 766.5)">p</text><text xml:space="preserve" font-family="Helvetica-Bold,Helvetica" font-weight="bold" font-size="80.6" fill="#F38F18" transform="matrix(1.00, 0.00, -0.00, -1.00, 1515.9, 766.5)">a</text><text xml:space="preserve" font-family="Helvetica-Bold,Helvetica" font-weight="bold" font-size="80.6" fill="#F38F18" transform="matrix(1.00, 0.00, -0.00, -1.00, 1560.7, 766.5)">g</text><text xml:space="preserve" font-family="Helvetica-Bold,Helvetica" font-weight="bold" font-size="80.6" fill="#F38F18" transform="matrix(1.00, 0.00, -0.00, -1.00, 1610.0, 766.5)">e</text><text xml:space="preserve" font-family="Helvetica-Bold,Helvetica" font-weight="bold" font-size="80.6" fill="#F38F18" transform="matrix(1.00, 0.00, -0.00, -1.00, 1654.9, 766.5)">s</text><text xml:space="preserve" font-family="Helvetica-Light,Helvetica" font-size="80.6" fill="#FEFFFE" transform="matrix(1.00, 0.00, -0.00, -1.00, 1699.6, 766.5)">.</text><text xml:space="preserve" font-family="Helvetica-Light,Helvetica" font-size="80.6" fill="#FEFFFE" transform="matrix(1.00, 0.00, -0.00, -1.00, 1722.0, 766.5)"> </text><text xml:space="preserve" font-family="Helvetica-Light,Helvetica" font-size="80.6" fill="#FEFFFE" transform="matrix(1.00, 0.00, -0.00, -1.00, 219.7, 669.5)">W</text><text xml:space="preserve" font-family="Helvetica-Light,Helvetica" font-size="80.6" fill="#FEFFFE" transform="matrix(1.00, 0.00, -0.00, -1.00, 290.0, 669.5)">e</text><text xml:space="preserve" font-family="Helvetica-Light,Helvetica" font-size="80.6" fill="#FEFFFE" transform="matrix(1.00, 0.00, -0.00, -1.00, 334.8, 669.5)"> </text><text xml:space="preserve" font-family="Helvetica-Light,Helvetica" font-size="80.6" fill="#FEFFFE" transform="matrix(1.00, 0.00, -0.00, -1.00, 357.2, 669.5)">h</text><text xml:space="preserve" font-family="Helvetica-Light,Helvetica" font-size="80.6" fill="#FEFFFE" transform="matrix(1.00, 0.00, -0.00, -1.00, 402.0, 669.5)">a</text><text xml:space="preserve" font-family="Helvetica-Light,Helvetica" font-size="80.6" fill="#FEFFFE" transform="matrix(1.00, 0.00, -0.00, -1.00, 446.9, 669.5)">v</text><text xml:space="preserve" font-family="Helvetica-Light,Helvetica" font-size="80.6" fill="#FEFFFE" transform="matrix(1.00, 0.00, -0.00, -1.00, 487.2, 669.5)">e</text><text xml:space="preserve" font-family="Helvetica-Light,Helvetica" font-size="80.6" fill="#FEFFFE" transform="matrix(1.00, 0.00, -0.00, -1.00, 532.0, 669.5)"> </text><text xml:space="preserve" font-family="Helvetica-Bold,Helvetica" font-weight="bold" font-size="80.6" fill="#FEFFFE" transform="matrix(1.00, 0.00, -0.00, -1.00, 554.5, 669.5)">1</text><text xml:space="preserve" font-family="Helvetica-Bold,Helvetica" font-weight="bold" font-size="80.6" fill="#FEFFFE" transform="matrix(1.00, 0.00, -0.00, -1.00, 599.3, 669.5)">2</text><text xml:space="preserve" font-family="Helvetica-Bold,Helvetica" font-weight="bold" font-size="80.6" fill="#FEFFFE" transform="matrix(1.00, 0.00, -0.00, -1.00, 644.2, 669.5)"> </text><text xml:space="preserve" font-family="Helvetica-Bold,Helvetica" font-weight="bold" font-size="80.6" fill="#FEFFFE" transform="matrix(1.00, 0.00, -0.00, -1.00, 666.6, 669.5)">p</text><text xml:space="preserve" font-family="Helvetica-Bold,Helvetica" font-weight="bold" font-size="80.6" fill="#FEFFFE" transform="matrix(1.00, 0.00, -0.00, -1.00, 715.9, 669.5)">a</text><text xml:space="preserve" font-family="Helvetica-Bold,Helvetica" font-weight="bold" font-size="80.6" fill="#FEFFFE" transform="matrix(1.00, 0.00, -0.00, -1.00, 760.7, 669.5)">g</text><text xml:space="preserve" font-family="Helvetica-Bold,Helvetica" font-weight="bold" font-size="80.6" fill="#FEFFFE" transform="matrix(1.00, 0.00, -0.00, -1.00, 810.0, 669.5)">e</text><text xml:space="preserve" font-family="Helvetica-Bold,Helvetica" font-weight="bold" font-size="80.6" fill="#FEFFFE" transform="matrix(1.00, 0.00, -0.00, -1.00, 854.9, 669.5)">s</text><text xml:space="preserve" font-family="Helvetica-Light,Helvetica" font-size="80.6" fill="#FEFFFE" transform="matrix(1.00, 0.00, -0.00, -1.00, 899.6, 669.5)"> </text><text xml:space="preserve" font-family="Helvetica-Light,Helvetica" font-size="80.6" fill="#FEFFFE" transform="matrix(1.00, 0.00, -0.00, -1.00, 922.0, 669.5)">a</text><text xml:space="preserve" font-family="Helvetica-Light,Helvetica" font-size="80.6" fill="#FEFFFE" transform="matrix(1.00, 0.00, -0.00, -1.00, 966.9, 669.5)">l</text><text xml:space="preserve" font-family="Helvetica-Light,Helvetica" font-size="80.6" fill="#FEFFFE" transform="matrix(1.00, 0.00, -0.00, -1.00, 984.8, 669.5)">l</text><text xml:space="preserve" font-family="Helvetica-Light,Helvetica" font-size="80.6" fill="#FEFFFE" transform="matrix(1.00, 0.00, -0.00, -1.00, 1002.7, 669.5)">o</text><text xml:space="preserve" font-family="Helvetica-Light,Helvetica" font-size="80.6" fill="#FEFFFE" transform="matrix(1.00, 0.00, -0.00, -1.00, 1047.5, 669.5)">c</text><text xml:space="preserve" font-family="Helvetica-Light,Helvetica" font-size="80.6" fill="#FEFFFE" transform="matrix(1.00, 0.00, -0.00, -1.00, 1092.3, 669.5)">a</text><text xml:space="preserve" font-family="Helvetica-Light,Helvetica" font-size="80.6" fill="#FEFFFE" transform="matrix(1.00, 0.00, -0.00, -1.00, 1137.2, 669.5)">t</text><text xml:space="preserve" font-family="Helvetica-Light,Helvetica" font-size="80.6" fill="#FEFFFE" transform="matrix(1.00, 0.00, -0.00, -1.00, 1159.6, 669.5)">e</text><text xml:space="preserve" font-family="Helvetica-Light,Helvetica" font-size="80.6" fill="#FEFFFE" transform="matrix(1.00, 0.00, -0.00, -1.00, 1204.4, 669.5)">d</text><text xml:space="preserve" font-family="Helvetica-Light,Helvetica" font-size="80.6" fill="#FEFFFE" transform="matrix(1.00, 0.00, -0.00, -1.00, 1253.7, 669.5)"> </text><text xml:space="preserve" font-family="Helvetica-Light,Helvetica" font-size="80.6" fill="#FEFFFE" transform="matrix(1.00, 0.00, -0.00, -1.00, 1276.1, 669.5)">f</text><text xml:space="preserve" font-family="Helvetica-Light,Helvetica" font-size="80.6" fill="#FEFFFE" transform="matrix(1.00, 0.00, -0.00, -1.00, 1298.5, 669.5)">o</text><text xml:space="preserve" font-family="Helvetica-Light,Helvetica" font-size="80.6" fill="#FEFFFE" transform="matrix(1.00, 0.00, -0.00, -1.00, 1343.4, 669.5)">r</text><text xml:space="preserve" font-family="Helvetica-Light,Helvetica" font-size="80.6" fill="#FEFFFE" transform="matrix(1.00, 0.00, -0.00, -1.00, 1370.2, 669.5)"> </text><text xml:space="preserve" font-family="Helvetica-Light,Helvetica" font-size="80.6" fill="#FEFFFE" transform="matrix(1.00, 0.00, -0.00, -1.00, 1392.6, 669.5)">m</text><text xml:space="preserve" font-family="Helvetica-Light,Helvetica" font-size="80.6" fill="#FEFFFE" transform="matrix(1.00, 0.00, -0.00, -1.00, 1459.8, 669.5)">e</text><text xml:space="preserve" font-family="Helvetica-Light,Helvetica" font-size="80.6" fill="#FEFFFE" transform="matrix(1.00, 0.00, -0.00, -1.00, 1504.7, 669.5)">m</text><text xml:space="preserve" font-family="Helvetica-Light,Helvetica" font-size="80.6" fill="#FEFFFE" transform="matrix(1.00, 0.00, -0.00, -1.00, 1571.8, 669.5)">o</text><text xml:space="preserve" font-family="Helvetica-Light,Helvetica" font-size="80.6" fill="#FEFFFE" transform="matrix(1.00, 0.00, -0.00, -1.00, 1616.7, 669.5)">r</text><text xml:space="preserve" font-family="Helvetica-Light,Helvetica" font-size="80.6" fill="#FEFFFE" transform="matrix(1.00, 0.00, -0.00, -1.00, 1645.0, 669.5)">y</text><text xml:space="preserve" font-family="Helvetica-Light,Helvetica" font-size="80.6" fill="#FEFFFE" transform="matrix(1.00, 0.00, -0.00, -1.00, 1677.9, 669.5)">.</text></g></svg>