<?xml version="1.0" encoding="UTF-8" standalone="no"?><svg xmlns="http://www.w3.org/2000/svg" xmlns:xlink="http://www.w3.org/1999/xlink" clip-rule="evenodd" stroke-miterlimit="10" viewBox="0 0 1920 1080"><desc>SVG generated by Keynote</desc><defs><pattern id="ED295DDD-4541-4343-8D8A-F65DFD1B0AB6" patternUnits="userSpaceOnUse" width="600" height="600" viewBox="0 0 600 600"><image xlink:href="../../B49DC77F-09BB-449C-9313-EC11A2C405DF/assets/C3C0FC898C94653CAF8AD846D6CCD108.png" width="600.00" height="600.00"></image></pattern><pattern id="8935BC62-E751-49DC-80E7-CFE3E451BA02" patternUnits="userSpaceOnUse" width="600" height="600" viewBox="0 0 600 600"><image xlink:href="../../B49DC77F-09BB-449C-9313-EC11A2C405DF/assets/C3C0FC898C94653CAF8AD846D6CCD108.png" width="600.00" height="600.00"></image></pattern><pattern id="2C5DBF8F-F42A-4A1C-BCBE-77A19902D371" patternUnits="userSpaceOnUse" width="600" height="600" viewBox="0 0 600 600"><image xlink:href="../../8EB76D3D-0DCD-411E-A37A-1DA3BFD3A87D/assets/57C63BC369DF2E161F93135AB5988468.png" width="600.00" height="600.00"></image></pattern></defs><g transform="matrix(1.00, 0.00, -0.00, -1.00, 0.0, 1080.0)"><path d="M 0.0 1080.0 L 1920.0 1080.0 L 1920.0 0.0 L 0.0 0.0 Z M 0.0 1080.0 " fill="#FEFFFF"></path><text xml:space="preserve" font-family="Helvetica-Light,Helvetica" font-size="112.0" fill="#000000" transform="matrix(1.00, 0.00, -0.00, -1.00, 528.5, 873.8)">T</text><text xml:space="preserve" font-family="Helvetica-Light,Helvetica" font-size="112.0" fill="#000000" transform="matrix(1.00, 0.00, -0.00, -1.00, 578.3, 873.8)">e</text><text xml:space="preserve" font-family="Helvetica-Light,Helvetica" font-size="112.0" fill="#000000" transform="matrix(1.00, 0.00, -0.00, -1.00, 640.6, 873.8)">r</text><text xml:space="preserve" font-family="Helvetica-Light,Helvetica" font-size="112.0" fill="#000000" transform="matrix(1.00, 0.00, -0.00, -1.00, 679.9, 873.8)">n</text><text xml:space="preserve" font-family="Helvetica-Light,Helvetica" font-size="112.0" fill="#000000" transform="matrix(1.00, 0.00, -0.00, -1.00, 742.2, 873.8)">a</text><text xml:space="preserve" font-family="Helvetica-Light,Helvetica" font-size="112.0" fill="#000000" transform="matrix(1.00, 0.00, -0.00, -1.00, 804.4, 873.8)">r</text><text xml:space="preserve" font-family="Helvetica-Light,Helvetica" font-size="112.0" fill="#000000" transform="matrix(1.00, 0.00, -0.00, -1.00, 843.7, 873.8)">y</text><text xml:space="preserve" font-family="Helvetica-Light,Helvetica" font-size="112.0" fill="#000000" transform="matrix(1.00, 0.00, -0.00, -1.00, 899.7, 873.8)"> </text><text xml:space="preserve" font-family="Helvetica-Light,Helvetica" font-size="112.0" fill="#000000" transform="matrix(1.00, 0.00, -0.00, -1.00, 930.9, 873.8)">R</text><text xml:space="preserve" font-family="Helvetica-Light,Helvetica" font-size="112.0" fill="#000000" transform="matrix(1.00, 0.00, -0.00, -1.00, 1005.6, 873.8)">e</text><text xml:space="preserve" font-family="Helvetica-Light,Helvetica" font-size="112.0" fill="#000000" transform="matrix(1.00, 0.00, -0.00, -1.00, 1067.9, 873.8)">l</text><text xml:space="preserve" font-family="Helvetica-Light,Helvetica" font-size="112.0" fill="#000000" transform="matrix(1.00, 0.00, -0.00, -1.00, 1092.7, 873.8)">a</text><text xml:space="preserve" font-family="Helvetica-Light,Helvetica" font-size="112.0" fill="#000000" transform="matrix(1.00, 0.00, -0.00, -1.00, 1155.0, 873.8)">t</text><text xml:space="preserve" font-family="Helvetica-Light,Helvetica" font-size="112.0" fill="#000000" transform="matrix(1.00, 0.00, -0.00, -1.00, 1186.1, 873.8)">i</text><text xml:space="preserve" font-family="Helvetica-Light,Helvetica" font-size="112.0" fill="#000000" transform="matrix(1.00, 0.00, -0.00, -1.00, 1211.0, 873.8)">o</text><text xml:space="preserve" font-family="Helvetica-Light,Helvetica" font-size="112.0" fill="#000000" transform="matrix(1.00, 0.00, -0.00, -1.00, 1273.3, 873.8)">n</text><text xml:space="preserve" font-family="Helvetica-Light,Helvetica" font-size="112.0" fill="#000000" transform="matrix(1.00, 0.00, -0.00, -1.00, 1335.5, 873.8)">s</text><image xlink:href="B64F622240CC76E81D2E233A7FC55103.png" width="317.00" height="227.00" transform="matrix(1.00, 0.00, -0.00, -1.00, 167.9, 565.9)" opacity="0.50"></image><g><clipPath id="clip0x6080014bb6c0"><path d="M 171.0 565.0 L 482.0 565.0 L 482.0 344.0 L 171.0 344.0 Z M 170.9 564.9 "></path></clipPath><g clip-path="url(#clip0x6080014bb6c0)"><path d="M 171.0 344.0 L 482.0 344.0 L 482.0 565.0 L 171.0 565.0 Z M 171.0 344.0 " fill="url(#ED295DDD-4541-4343-8D8A-F65DFD1B0AB6)"></path></g></g><g><clipPath id="clip0x600001ab4e80"><path d="M 160.6 343.7 L 492.0 343.7 L 492.0 564.9 L 160.6 564.9 Z M 160.6 343.7 "></path></clipPath><g clip-path="url(#clip0x600001ab4e80)"><text xml:space="preserve" font-family="Helvetica-Bold,Helvetica" font-weight="bold" font-size="57.0" fill="#FEFFFE" transform="matrix(1.00, 0.00, -0.00, -1.00, 232.9, 433.0)">R</text><text xml:space="preserve" font-family="Helvetica-Bold,Helvetica" font-weight="bold" font-size="57.0" fill="#FEFFFE" transform="matrix(1.00, 0.00, -0.00, -1.00, 274.1, 433.0)">e</text><text xml:space="preserve" font-family="Helvetica-Bold,Helvetica" font-weight="bold" font-size="57.0" fill="#FEFFFE" transform="matrix(1.00, 0.00, -0.00, -1.00, 305.8, 433.0)">c</text><text xml:space="preserve" font-family="Helvetica-Bold,Helvetica" font-weight="bold" font-size="57.0" fill="#FEFFFE" transform="matrix(1.00, 0.00, -0.00, -1.00, 337.5, 433.0)">i</text><text xml:space="preserve" font-family="Helvetica-Bold,Helvetica" font-weight="bold" font-size="57.0" fill="#FEFFFE" transform="matrix(1.00, 0.00, -0.00, -1.00, 353.3, 433.0)">p</text><text xml:space="preserve" font-family="Helvetica-Bold,Helvetica" font-weight="bold" font-size="57.0" fill="#FEFFFE" transform="matrix(1.00, 0.00, -0.00, -1.00, 388.2, 433.0)">e</text></g></g><image xlink:href="../../8EB76D3D-0DCD-411E-A37A-1DA3BFD3A87D/assets/38C33C4B0DB84208B0D2E809B500ECD0.png" width="141.00" height="57.00" transform="matrix(1.00, 0.00, -0.00, -1.00, 74.0, 685.1)" opacity="0.50"></image><g><clipPath id="clip0x600001ab6980"><path d="M 191.8 676.6 C 218.1 666.7 218.1 650.5 191.8 640.6 C 165.5 630.6 122.9 630.6 96.7 640.6 C 70.4 650.5 70.4 666.7 96.7 676.6 C 122.9 686.6 165.5 686.6 191.8 676.6 Z M 191.8 676.6 "></path></clipPath><g clip-path="url(#clip0x600001ab6980)"><image xlink:href="../../B49DC77F-09BB-449C-9313-EC11A2C405DF/assets/C3C0FC898C94653CAF8AD846D6CCD108.png" width="600.00" height="600.00" transform="matrix(0.50, 0.00, -0.00, -0.50, 77.0, 684.1)"></image></g></g><g><clipPath id="clip0x600001ab6c80"><path d="M 77.0 633.1 L 211.5 633.1 L 211.5 684.1 L 77.0 684.1 Z M 77.0 633.1 "></path></clipPath><g clip-path="url(#clip0x600001ab6c80)"><text xml:space="preserve" font-family="Helvetica-Light,Helvetica" font-size="20.0" fill="#FEFFFE" transform="matrix(1.00, 0.00, -0.00, -1.00, 102.7, 651.2)">r</text><text xml:space="preserve" font-family="Helvetica-Light,Helvetica" font-size="20.0" fill="#FEFFFE" transform="matrix(1.00, 0.00, -0.00, -1.00, 109.0, 651.2)">e</text><text xml:space="preserve" font-family="Helvetica-Light,Helvetica" font-size="20.0" fill="#FEFFFE" transform="matrix(1.00, 0.00, -0.00, -1.00, 120.2, 651.2)">c</text><text xml:space="preserve" font-family="Helvetica-Light,Helvetica" font-size="20.0" fill="#FEFFFE" transform="matrix(1.00, 0.00, -0.00, -1.00, 131.3, 651.2)">i</text><text xml:space="preserve" font-family="Helvetica-Light,Helvetica" font-size="20.0" fill="#FEFFFE" transform="matrix(1.00, 0.00, -0.00, -1.00, 135.7, 651.2)">p</text><text xml:space="preserve" font-family="Helvetica-Light,Helvetica" font-size="20.0" fill="#FEFFFE" transform="matrix(1.00, 0.00, -0.00, -1.00, 147.9, 651.2)">e</text><text xml:space="preserve" font-family="Helvetica-Light,Helvetica" font-size="20.0" fill="#FEFFFE" transform="matrix(1.00, 0.00, -0.00, -1.00, 159.1, 651.2)">_</text><text xml:space="preserve" font-family="Helvetica-Light,Helvetica" font-size="20.0" fill="#FEFFFE" transform="matrix(1.00, 0.00, -0.00, -1.00, 169.1, 651.2)">i</text><text xml:space="preserve" font-family="Helvetica-Light,Helvetica" font-size="20.0" fill="#FEFFFE" transform="matrix(1.00, 0.00, -0.00, -1.00, 173.5, 651.2)">d</text><path d="M 25.8 34.4 L 108.8 34.4 " fill="none" stroke="#FEFFFE" stroke-width="1.00" transform="matrix(1.00, 0.00, 0.00, -1.00, 77.0, 684.1)"></path></g></g><image xlink:href="../../8EB76D3D-0DCD-411E-A37A-1DA3BFD3A87D/assets/38C33C4B0DB84208B0D2E809B500ECD0.png" width="141.00" height="57.00" transform="matrix(1.00, 0.00, -0.00, -1.00, 280.6, 689.2)" opacity="0.50"></image><g><clipPath id="clip0x600001ab7160"><path d="M 398.5 680.7 C 424.7 670.8 424.7 654.7 398.5 644.7 C 372.2 634.8 329.6 634.8 303.3 644.7 C 277.1 654.7 277.1 670.8 303.3 680.7 C 329.6 690.7 372.2 690.7 398.5 680.7 Z M 398.5 680.7 "></path></clipPath><g clip-path="url(#clip0x600001ab7160)"><image xlink:href="../../B49DC77F-09BB-449C-9313-EC11A2C405DF/assets/C3C0FC898C94653CAF8AD846D6CCD108.png" width="600.00" height="600.00" transform="matrix(0.50, 0.00, -0.00, -0.50, 283.6, 688.2)"></image></g></g><g><clipPath id="clip0x600001ab7580"><path d="M 283.6 637.3 L 418.2 637.3 L 418.2 688.2 L 283.6 688.2 Z M 283.6 637.3 "></path></clipPath><g clip-path="url(#clip0x600001ab7580)"><text xml:space="preserve" font-family="Helvetica-Light,Helvetica" font-size="20.0" fill="#FEFFFE" transform="matrix(1.00, 0.00, -0.00, -1.00, 325.9, 655.1)">n</text><text xml:space="preserve" font-family="Helvetica-Light,Helvetica" font-size="20.0" fill="#FEFFFE" transform="matrix(1.00, 0.00, -0.00, -1.00, 337.0, 655.1)">a</text><text xml:space="preserve" font-family="Helvetica-Light,Helvetica" font-size="20.0" fill="#FEFFFE" transform="matrix(1.00, 0.00, -0.00, -1.00, 348.1, 655.1)">m</text><text xml:space="preserve" font-family="Helvetica-Light,Helvetica" font-size="20.0" fill="#FEFFFE" transform="matrix(1.00, 0.00, -0.00, -1.00, 364.8, 655.1)">e</text></g></g><image xlink:href="../../8EB76D3D-0DCD-411E-A37A-1DA3BFD3A87D/assets/38C33C4B0DB84208B0D2E809B500ECD0.png" width="141.00" height="57.00" transform="matrix(1.00, 0.00, -0.00, -1.00, 487.3, 685.1)" opacity="0.50"></image><g><clipPath id="clip0x6080014bc0e0"><path d="M 605.1 676.6 C 631.4 666.7 631.4 650.5 605.1 640.6 C 578.8 630.6 536.2 630.6 510.0 640.6 C 483.7 650.5 483.7 666.7 510.0 676.6 C 536.2 686.6 578.8 686.6 605.1 676.6 Z M 605.1 676.6 "></path></clipPath><g clip-path="url(#clip0x6080014bc0e0)"><image xlink:href="../../B49DC77F-09BB-449C-9313-EC11A2C405DF/assets/C3C0FC898C94653CAF8AD846D6CCD108.png" width="600.00" height="600.00" transform="matrix(0.50, 0.00, -0.00, -0.50, 490.3, 684.1)"></image></g></g><g><clipPath id="clip0x6080014bc3e0"><path d="M 490.3 633.1 L 624.8 633.1 L 624.8 684.1 L 490.3 684.1 Z M 490.3 633.1 "></path></clipPath><g clip-path="url(#clip0x6080014bc3e0)"><text xml:space="preserve" font-family="Helvetica-Light,Helvetica" font-size="19.0" fill="#FEFFFE" transform="matrix(1.00, 0.00, -0.00, -1.00, 510.0, 651.3)">d</text><text xml:space="preserve" font-family="Helvetica-Light,Helvetica" font-size="19.0" fill="#FEFFFE" transform="matrix(1.00, 0.00, -0.00, -1.00, 521.6, 651.3)">e</text><text xml:space="preserve" font-family="Helvetica-Light,Helvetica" font-size="19.0" fill="#FEFFFE" transform="matrix(1.00, 0.00, -0.00, -1.00, 532.2, 651.3)">s</text><text xml:space="preserve" font-family="Helvetica-Light,Helvetica" font-size="19.0" fill="#FEFFFE" transform="matrix(1.00, 0.00, -0.00, -1.00, 541.7, 651.3)">c</text><text xml:space="preserve" font-family="Helvetica-Light,Helvetica" font-size="19.0" fill="#FEFFFE" transform="matrix(1.00, 0.00, -0.00, -1.00, 552.3, 651.3)">r</text><text xml:space="preserve" font-family="Helvetica-Light,Helvetica" font-size="19.0" fill="#FEFFFE" transform="matrix(1.00, 0.00, -0.00, -1.00, 558.6, 651.3)">i</text><text xml:space="preserve" font-family="Helvetica-Light,Helvetica" font-size="19.0" fill="#FEFFFE" transform="matrix(1.00, 0.00, -0.00, -1.00, 562.8, 651.3)">p</text><text xml:space="preserve" font-family="Helvetica-Light,Helvetica" font-size="19.0" fill="#FEFFFE" transform="matrix(1.00, 0.00, -0.00, -1.00, 574.4, 651.3)">t</text><text xml:space="preserve" font-family="Helvetica-Light,Helvetica" font-size="19.0" fill="#FEFFFE" transform="matrix(1.00, 0.00, -0.00, -1.00, 579.7, 651.3)">i</text><text xml:space="preserve" font-family="Helvetica-Light,Helvetica" font-size="19.0" fill="#FEFFFE" transform="matrix(1.00, 0.00, -0.00, -1.00, 583.9, 651.3)">o</text><text xml:space="preserve" font-family="Helvetica-Light,Helvetica" font-size="19.0" fill="#FEFFFE" transform="matrix(1.00, 0.00, -0.00, -1.00, 594.5, 651.3)">n</text></g></g><path d="M 0.0 0.0 L 58.1 0.0 " fill="none" stroke="#000000" stroke-width="2.00" transform="matrix(-0.61, 0.79, 0.79, 0.61, 182.8, 578.0)"></path><path d="M 0.0 0.0 L 80.7 0.0 " fill="none" stroke="#000000" stroke-width="2.00" transform="matrix(0.71, 0.71, 0.71, -0.71, 481.4, 572.5)"></path><path d="M 0.3 -0.2 L 54.3 -0.2 " fill="none" stroke="#000000" stroke-width="2.00" transform="matrix(0.00, 1.00, 1.00, 0.00, 349.2, 573.7)"></path><image xlink:href="3328C6F5D67FB0888DB0C32683439E63.png" width="317.00" height="227.00" transform="matrix(1.00, 0.00, -0.00, -1.00, 1386.1, 550.5)" opacity="0.50"></image><g><clipPath id="clip0x6080014bcaa0"><path d="M 1389.0 549.0 L 1700.0 549.0 L 1700.0 328.0 L 1389.0 328.0 Z M 1389.1 549.5 "></path></clipPath><g clip-path="url(#clip0x6080014bcaa0)"><path d="M 1389.0 328.0 L 1700.0 328.0 L 1700.0 549.0 L 1389.0 549.0 Z M 1389.0 328.0 " fill="url(#8935BC62-E751-49DC-80E7-CFE3E451BA02)"></path></g></g><g><clipPath id="clip0x600001ab7a60"><path d="M 1378.9 328.3 L 1710.3 328.3 L 1710.3 549.5 L 1378.9 549.5 Z M 1378.9 328.3 "></path></clipPath><g clip-path="url(#clip0x600001ab7a60)"><text xml:space="preserve" font-family="Helvetica-Bold,Helvetica" font-weight="bold" font-size="57.0" fill="#FEFFFE" transform="matrix(1.00, 0.00, -0.00, -1.00, 1408.4, 417.6)">F</text><text xml:space="preserve" font-family="Helvetica-Bold,Helvetica" font-weight="bold" font-size="57.0" fill="#FEFFFE" transform="matrix(1.00, 0.00, -0.00, -1.00, 1443.2, 417.6)">o</text><text xml:space="preserve" font-family="Helvetica-Bold,Helvetica" font-weight="bold" font-size="57.0" fill="#FEFFFE" transform="matrix(1.00, 0.00, -0.00, -1.00, 1478.0, 417.6)">o</text><text xml:space="preserve" font-family="Helvetica-Bold,Helvetica" font-weight="bold" font-size="57.0" fill="#FEFFFE" transform="matrix(1.00, 0.00, -0.00, -1.00, 1512.8, 417.6)">d</text><text xml:space="preserve" font-family="Helvetica-Bold,Helvetica" font-weight="bold" font-size="57.0" fill="#FEFFFE" transform="matrix(1.00, 0.00, -0.00, -1.00, 1547.6, 417.6)"> </text><text xml:space="preserve" font-family="Helvetica-Bold,Helvetica" font-weight="bold" font-size="57.0" fill="#FEFFFE" transform="matrix(1.00, 0.00, -0.00, -1.00, 1563.5, 417.6)">I</text><text xml:space="preserve" font-family="Helvetica-Bold,Helvetica" font-weight="bold" font-size="57.0" fill="#FEFFFE" transform="matrix(1.00, 0.00, -0.00, -1.00, 1579.3, 417.6)">t</text><text xml:space="preserve" font-family="Helvetica-Bold,Helvetica" font-weight="bold" font-size="57.0" fill="#FEFFFE" transform="matrix(1.00, 0.00, -0.00, -1.00, 1598.3, 417.6)">e</text><text xml:space="preserve" font-family="Helvetica-Bold,Helvetica" font-weight="bold" font-size="57.0" fill="#FEFFFE" transform="matrix(1.00, 0.00, -0.00, -1.00, 1630.0, 417.6)">m</text></g></g><image xlink:href="../../8EB76D3D-0DCD-411E-A37A-1DA3BFD3A87D/assets/38C33C4B0DB84208B0D2E809B500ECD0.png" width="141.00" height="57.00" transform="matrix(1.00, 0.00, -0.00, -1.00, 1292.2, 669.7)" opacity="0.50"></image><g><clipPath id="clip0x600001ab7e80"><path d="M 1410.0 661.2 C 1436.3 651.2 1436.3 635.1 1410.0 625.2 C 1383.8 615.2 1341.2 615.2 1314.9 625.2 C 1288.6 635.1 1288.6 651.2 1314.9 661.2 C 1341.2 671.1 1383.8 671.1 1410.0 661.2 Z M 1410.0 661.2 "></path></clipPath><g clip-path="url(#clip0x600001ab7e80)"><image xlink:href="../../B49DC77F-09BB-449C-9313-EC11A2C405DF/assets/C3C0FC898C94653CAF8AD846D6CCD108.png" width="600.00" height="600.00" transform="matrix(0.50, 0.00, -0.00, -0.50, 1295.2, 668.7)"></image></g></g><g><clipPath id="clip0x6080014bce60"><path d="M 1295.2 617.7 L 1429.7 617.7 L 1429.7 668.7 L 1295.2 668.7 Z M 1295.2 617.7 "></path></clipPath><g clip-path="url(#clip0x6080014bce60)"><text xml:space="preserve" font-family="Helvetica-Light,Helvetica" font-size="20.0" fill="#FEFFFE" transform="matrix(1.00, 0.00, -0.00, -1.00, 1329.1, 635.8)">f</text><text xml:space="preserve" font-family="Helvetica-Light,Helvetica" font-size="20.0" fill="#FEFFFE" transform="matrix(1.00, 0.00, -0.00, -1.00, 1334.7, 635.8)">o</text><text xml:space="preserve" font-family="Helvetica-Light,Helvetica" font-size="20.0" fill="#FEFFFE" transform="matrix(1.00, 0.00, -0.00, -1.00, 1345.8, 635.8)">o</text><text xml:space="preserve" font-family="Helvetica-Light,Helvetica" font-size="20.0" fill="#FEFFFE" transform="matrix(1.00, 0.00, -0.00, -1.00, 1356.9, 635.8)">d</text><text xml:space="preserve" font-family="Helvetica-Light,Helvetica" font-size="20.0" fill="#FEFFFE" transform="matrix(1.00, 0.00, -0.00, -1.00, 1369.1, 635.8)">_</text><text xml:space="preserve" font-family="Helvetica-Light,Helvetica" font-size="20.0" fill="#FEFFFE" transform="matrix(1.00, 0.00, -0.00, -1.00, 1379.1, 635.8)">i</text><text xml:space="preserve" font-family="Helvetica-Light,Helvetica" font-size="20.0" fill="#FEFFFE" transform="matrix(1.00, 0.00, -0.00, -1.00, 1383.6, 635.8)">d</text><path d="M 33.9 34.4 L 100.6 34.4 " fill="none" stroke="#FEFFFE" stroke-width="1.00" transform="matrix(1.00, 0.00, 0.00, -1.00, 1295.2, 668.7)"></path></g></g><image xlink:href="../../8EB76D3D-0DCD-411E-A37A-1DA3BFD3A87D/assets/38C33C4B0DB84208B0D2E809B500ECD0.png" width="141.00" height="57.00" transform="matrix(1.00, 0.00, -0.00, -1.00, 1498.8, 673.8)" opacity="0.50"></image><g><clipPath id="clip0x6080014bd280"><path d="M 1616.7 665.3 C 1642.9 655.4 1642.9 639.2 1616.7 629.3 C 1590.4 619.3 1547.8 619.3 1521.5 629.3 C 1495.3 639.2 1495.3 655.4 1521.5 665.3 C 1547.8 675.3 1590.4 675.3 1616.7 665.3 Z M 1616.7 665.3 "></path></clipPath><g clip-path="url(#clip0x6080014bd280)"><image xlink:href="../../B49DC77F-09BB-449C-9313-EC11A2C405DF/assets/C3C0FC898C94653CAF8AD846D6CCD108.png" width="600.00" height="600.00" transform="matrix(0.50, 0.00, -0.00, -0.50, 1501.8, 672.8)"></image></g></g><g><clipPath id="clip0x6080014bd6a0"><path d="M 1501.8 621.8 L 1636.4 621.8 L 1636.4 672.8 L 1501.8 672.8 Z M 1501.8 621.8 "></path></clipPath><g clip-path="url(#clip0x6080014bd6a0)"><text xml:space="preserve" font-family="Helvetica-Light,Helvetica" font-size="21.0" fill="#FEFFFE" transform="matrix(1.00, 0.00, -0.00, -1.00, 1542.9, 639.4)">n</text><text xml:space="preserve" font-family="Helvetica-Light,Helvetica" font-size="21.0" fill="#FEFFFE" transform="matrix(1.00, 0.00, -0.00, -1.00, 1554.5, 639.4)">a</text><text xml:space="preserve" font-family="Helvetica-Light,Helvetica" font-size="21.0" fill="#FEFFFE" transform="matrix(1.00, 0.00, -0.00, -1.00, 1566.2, 639.4)">m</text><text xml:space="preserve" font-family="Helvetica-Light,Helvetica" font-size="21.0" fill="#FEFFFE" transform="matrix(1.00, 0.00, -0.00, -1.00, 1583.7, 639.4)">e</text></g></g><image xlink:href="../../8EB76D3D-0DCD-411E-A37A-1DA3BFD3A87D/assets/38C33C4B0DB84208B0D2E809B500ECD0.png" width="141.00" height="57.00" transform="matrix(1.00, 0.00, -0.00, -1.00, 1705.5, 669.7)" opacity="0.50"></image><g><clipPath id="clip0x6080014bd8e0"><path d="M 1823.3 661.2 C 1849.6 651.2 1849.6 635.1 1823.3 625.2 C 1797.1 615.2 1754.5 615.2 1728.2 625.2 C 1701.9 635.1 1701.9 651.2 1728.2 661.2 C 1754.5 671.1 1797.1 671.1 1823.3 661.2 Z M 1823.3 661.2 "></path></clipPath><g clip-path="url(#clip0x6080014bd8e0)"><image xlink:href="../../B49DC77F-09BB-449C-9313-EC11A2C405DF/assets/C3C0FC898C94653CAF8AD846D6CCD108.png" width="600.00" height="600.00" transform="matrix(0.50, 0.00, -0.00, -0.50, 1708.5, 668.7)"></image></g></g><g><clipPath id="clip0x6080014bdb20"><path d="M 1708.5 617.7 L 1843.0 617.7 L 1843.0 668.7 L 1708.5 668.7 Z M 1708.5 617.7 "></path></clipPath><g clip-path="url(#clip0x6080014bdb20)"><text xml:space="preserve" font-family="Helvetica-Light,Helvetica" font-size="20.0" fill="#FEFFFE" transform="matrix(1.00, 0.00, -0.00, -1.00, 1751.3, 635.6)">ﬂ</text><text xml:space="preserve" font-family="Helvetica-Light,Helvetica" font-size="20.0" fill="#FEFFFE" transform="matrix(1.00, 0.00, -0.00, -1.00, 1761.3, 635.6)">a</text><text xml:space="preserve" font-family="Helvetica-Light,Helvetica" font-size="20.0" fill="#FEFFFE" transform="matrix(1.00, 0.00, -0.00, -1.00, 1772.4, 635.6)">v</text><text xml:space="preserve" font-family="Helvetica-Light,Helvetica" font-size="20.0" fill="#FEFFFE" transform="matrix(1.00, 0.00, -0.00, -1.00, 1782.4, 635.6)">o</text><text xml:space="preserve" font-family="Helvetica-Light,Helvetica" font-size="20.0" fill="#FEFFFE" transform="matrix(1.00, 0.00, -0.00, -1.00, 1793.6, 635.6)">r</text></g></g><path d="M 0.0 0.0 L 58.1 0.0 " fill="none" stroke="#000000" stroke-width="2.00" transform="matrix(-0.61, 0.79, 0.79, 0.61, 1401.0, 562.6)"></path><path d="M 0.0 0.0 L 80.7 0.0 " fill="none" stroke="#000000" stroke-width="2.00" transform="matrix(0.71, 0.71, 0.71, -0.71, 1699.7, 557.1)"></path><path d="M -0.3 -0.4 L 54.7 -0.4 " fill="none" stroke="#000000" stroke-width="2.00" transform="matrix(0.00, 1.00, 1.00, 0.00, 1567.4, 558.3)"></path><image xlink:href="../../8EB76D3D-0DCD-411E-A37A-1DA3BFD3A87D/assets/F48AE92D95300E7B8E65A30D873BE7B0.png" width="429.00" height="331.00" transform="matrix(1.00, 0.00, -0.00, -1.00, 721.9, 619.8)" opacity="0.50"></image><g><clipPath id="clip0x600001ab81e0"><path d="M 724.9 454.3 L 935.5 292.8 L 1146.0 454.3 L 935.5 615.8 Z M 724.9 454.3 "></path></clipPath><g clip-path="url(#clip0x600001ab81e0)"><path d="M 724.9 292.8 L 1146.0 292.8 L 1146.0 615.8 L 724.9 615.8 Z M 724.9 292.8 " fill="url(#2C5DBF8F-F42A-4A1C-BCBE-77A19902D371)"></path></g></g><g><clipPath id="clip0x600001ab85a0"><path d="M 724.9 292.8 L 1146.0 292.8 L 1146.0 615.8 L 724.9 615.8 Z M 724.9 292.8 "></path></clipPath><g clip-path="url(#clip0x600001ab85a0)"><text xml:space="preserve" font-family="Helvetica-Bold,Helvetica" font-weight="bold" font-size="47.0" fill="#FEFFFE" transform="matrix(1.00, 0.00, -0.00, -1.00, 808.8, 437.2)">I</text><text xml:space="preserve" font-family="Helvetica-Bold,Helvetica" font-weight="bold" font-size="47.0" fill="#FEFFFE" transform="matrix(1.00, 0.00, -0.00, -1.00, 821.8, 437.2)">n</text><text xml:space="preserve" font-family="Helvetica-Bold,Helvetica" font-weight="bold" font-size="47.0" fill="#FEFFFE" transform="matrix(1.00, 0.00, -0.00, -1.00, 850.5, 437.2)">g</text><text xml:space="preserve" font-family="Helvetica-Bold,Helvetica" font-weight="bold" font-size="47.0" fill="#FEFFFE" transform="matrix(1.00, 0.00, -0.00, -1.00, 879.2, 437.2)">r</text><text xml:space="preserve" font-family="Helvetica-Bold,Helvetica" font-weight="bold" font-size="47.0" fill="#FEFFFE" transform="matrix(1.00, 0.00, -0.00, -1.00, 897.5, 437.2)">e</text><text xml:space="preserve" font-family="Helvetica-Bold,Helvetica" font-weight="bold" font-size="47.0" fill="#FEFFFE" transform="matrix(1.00, 0.00, -0.00, -1.00, 923.7, 437.2)">d</text><text xml:space="preserve" font-family="Helvetica-Bold,Helvetica" font-weight="bold" font-size="47.0" fill="#FEFFFE" transform="matrix(1.00, 0.00, -0.00, -1.00, 952.4, 437.2)">i</text><text xml:space="preserve" font-family="Helvetica-Bold,Helvetica" font-weight="bold" font-size="47.0" fill="#FEFFFE" transform="matrix(1.00, 0.00, -0.00, -1.00, 965.4, 437.2)">e</text><text xml:space="preserve" font-family="Helvetica-Bold,Helvetica" font-weight="bold" font-size="47.0" fill="#FEFFFE" transform="matrix(1.00, 0.00, -0.00, -1.00, 991.6, 437.2)">n</text><text xml:space="preserve" font-family="Helvetica-Bold,Helvetica" font-weight="bold" font-size="47.0" fill="#FEFFFE" transform="matrix(1.00, 0.00, -0.00, -1.00, 1020.3, 437.2)">t</text><text xml:space="preserve" font-family="Helvetica-Bold,Helvetica" font-weight="bold" font-size="47.0" fill="#FEFFFE" transform="matrix(1.00, 0.00, -0.00, -1.00, 1035.9, 437.2)">s</text></g></g><path d="M 0.2 -0.2 L 202.2 -0.2 " fill="none" stroke="#000000" stroke-width="8.00" transform="matrix(-1.00, 0.00, 0.00, 1.00, 704.2, 450.2)"></path><path d="M 0.5 -0.3 L 201.5 -0.3 " fill="none" stroke="#000000" stroke-width="2.00" transform="matrix(-1.00, 0.00, 0.00, 1.00, 1368.5, 454.3)"></path><image xlink:href="../../F49798D4-0CC2-4941-A241-8EC295A802F5/assets/CBCBD134032B53601A910B9BA2DEE185.png" width="143.00" height="59.00" transform="matrix(1.00, 0.00, -0.00, -1.00, 865.2, 740.0)" opacity="0.50"></image><g><clipPath id="clip0x6080014be480"><path d="M 983.0 728.6 C 1009.3 718.6 1009.3 702.5 983.0 692.5 C 956.7 682.6 914.2 682.6 887.9 692.5 C 861.6 702.5 861.6 718.6 887.9 728.6 C 914.2 738.5 956.7 738.5 983.0 728.6 Z M 983.0 728.6 "></path></clipPath><g clip-path="url(#clip0x6080014be480)"><image xlink:href="../../8EB76D3D-0DCD-411E-A37A-1DA3BFD3A87D/assets/57C63BC369DF2E161F93135AB5988468.png" width="600.00" height="600.00" transform="matrix(0.50, 0.00, -0.00, -0.50, 868.2, 736.0)"></image></g></g><g><clipPath id="clip0x6080014be6c0"><path d="M 868.2 685.1 L 1002.7 685.1 L 1002.7 736.0 L 868.2 736.0 Z M 868.2 685.1 "></path></clipPath><g clip-path="url(#clip0x6080014be6c0)"><text xml:space="preserve" font-family="Helvetica-Light,Helvetica" font-size="23.0" fill="#FEFFFE" transform="matrix(1.00, 0.00, -0.00, -1.00, 894.5, 702.2)">q</text><text xml:space="preserve" font-family="Helvetica-Light,Helvetica" font-size="23.0" fill="#FEFFFE" transform="matrix(1.00, 0.00, -0.00, -1.00, 908.6, 702.2)">u</text><text xml:space="preserve" font-family="Helvetica-Light,Helvetica" font-size="23.0" fill="#FEFFFE" transform="matrix(1.00, 0.00, -0.00, -1.00, 921.4, 702.2)">a</text><text xml:space="preserve" font-family="Helvetica-Light,Helvetica" font-size="23.0" fill="#FEFFFE" transform="matrix(1.00, 0.00, -0.00, -1.00, 934.2, 702.2)">n</text><text xml:space="preserve" font-family="Helvetica-Light,Helvetica" font-size="23.0" fill="#FEFFFE" transform="matrix(1.00, 0.00, -0.00, -1.00, 947.0, 702.2)">t</text><text xml:space="preserve" font-family="Helvetica-Light,Helvetica" font-size="23.0" fill="#FEFFFE" transform="matrix(1.00, 0.00, -0.00, -1.00, 953.4, 702.2)">i</text><text xml:space="preserve" font-family="Helvetica-Light,Helvetica" font-size="23.0" fill="#FEFFFE" transform="matrix(1.00, 0.00, -0.00, -1.00, 958.5, 702.2)">t</text><text xml:space="preserve" font-family="Helvetica-Light,Helvetica" font-size="23.0" fill="#FEFFFE" transform="matrix(1.00, 0.00, -0.00, -1.00, 964.9, 702.2)">y</text></g></g><path d="M -0.5 0.3 L 54.5 0.3 " fill="none" stroke="#000000" stroke-width="2.00" transform="matrix(0.00, 1.00, 1.00, 0.00, 933.7, 621.5)"></path><image xlink:href="../../F49798D4-0CC2-4941-A241-8EC295A802F5/assets/CBCBD134032B53601A910B9BA2DEE185.png" width="143.00" height="59.00" transform="matrix(1.00, 0.00, -0.00, -1.00, 1053.6, 739.7)" opacity="0.50"></image><g><clipPath id="clip0x600001ab89c0"><path d="M 1171.4 728.2 C 1197.7 718.2 1197.7 702.1 1171.4 692.2 C 1145.1 682.2 1102.6 682.2 1076.3 692.2 C 1050.0 702.1 1050.0 718.2 1076.3 728.2 C 1102.6 738.1 1145.1 738.1 1171.4 728.2 Z M 1171.4 728.2 "></path></clipPath><g clip-path="url(#clip0x600001ab89c0)"><image xlink:href="../../8EB76D3D-0DCD-411E-A37A-1DA3BFD3A87D/assets/57C63BC369DF2E161F93135AB5988468.png" width="600.00" height="600.00" transform="matrix(0.50, 0.00, -0.00, -0.50, 1056.6, 735.7)"></image></g></g><g><clipPath id="clip0x600001ab8a20"><path d="M 1056.6 684.7 L 1191.1 684.7 L 1191.1 735.7 L 1056.6 735.7 Z M 1056.6 684.7 "></path></clipPath><g clip-path="url(#clip0x600001ab8a20)"><text xml:space="preserve" font-family="Helvetica-Light,Helvetica" font-size="23.0" fill="#FEFFFE" transform="matrix(1.00, 0.00, -0.00, -1.00, 1091.9, 701.3)">m</text><text xml:space="preserve" font-family="Helvetica-Light,Helvetica" font-size="23.0" fill="#FEFFFE" transform="matrix(1.00, 0.00, -0.00, -1.00, 1111.1, 701.3)">e</text><text xml:space="preserve" font-family="Helvetica-Light,Helvetica" font-size="23.0" fill="#FEFFFE" transform="matrix(1.00, 0.00, -0.00, -1.00, 1123.9, 701.3)">t</text><text xml:space="preserve" font-family="Helvetica-Light,Helvetica" font-size="23.0" fill="#FEFFFE" transform="matrix(1.00, 0.00, -0.00, -1.00, 1130.2, 701.3)">r</text><text xml:space="preserve" font-family="Helvetica-Light,Helvetica" font-size="23.0" fill="#FEFFFE" transform="matrix(1.00, 0.00, -0.00, -1.00, 1137.9, 701.3)">i</text><text xml:space="preserve" font-family="Helvetica-Light,Helvetica" font-size="23.0" fill="#FEFFFE" transform="matrix(1.00, 0.00, -0.00, -1.00, 1143.0, 701.3)">c</text></g></g><path d="M 0.0 0.0 L 145.9 0.0 " fill="none" stroke="#000000" stroke-width="2.00" transform="matrix(0.71, 0.71, 0.71, -0.71, 1019.0, 572.8)"></path><image xlink:href="../../F49798D4-0CC2-4941-A241-8EC295A802F5/assets/CBCBD134032B53601A910B9BA2DEE185.png" width="143.00" height="59.00" transform="matrix(1.00, 0.00, -0.00, -1.00, 699.4, 743.5)" opacity="0.50"></image><g><clipPath id="clip0x6080014bed20"><path d="M 817.2 732.0 C 843.5 722.1 843.5 706.0 817.2 696.0 C 790.9 686.1 748.3 686.1 722.1 696.0 C 695.8 706.0 695.8 722.1 722.1 732.0 C 748.3 742.0 790.9 742.0 817.2 732.0 Z M 817.2 732.0 "></path></clipPath><g clip-path="url(#clip0x6080014bed20)"><image xlink:href="../../8EB76D3D-0DCD-411E-A37A-1DA3BFD3A87D/assets/57C63BC369DF2E161F93135AB5988468.png" width="600.00" height="600.00" transform="matrix(0.50, 0.00, -0.00, -0.50, 702.4, 739.5)"></image></g></g><g><clipPath id="clip0x6080014bef60"><path d="M 702.4 688.5 L 836.9 688.5 L 836.9 739.5 L 702.4 739.5 Z M 702.4 688.5 "></path></clipPath><g clip-path="url(#clip0x6080014bef60)"><text xml:space="preserve" font-family="Helvetica-Light,Helvetica" font-size="19.0" fill="#FEFFFE" transform="matrix(1.00, 0.00, -0.00, -1.00, 731.1, 707.1)">m</text><text xml:space="preserve" font-family="Helvetica-Light,Helvetica" font-size="19.0" fill="#FEFFFE" transform="matrix(1.00, 0.00, -0.00, -1.00, 746.9, 707.1)">u</text><text xml:space="preserve" font-family="Helvetica-Light,Helvetica" font-size="19.0" fill="#FEFFFE" transform="matrix(1.00, 0.00, -0.00, -1.00, 757.5, 707.1)">l</text><text xml:space="preserve" font-family="Helvetica-Light,Helvetica" font-size="19.0" fill="#FEFFFE" transform="matrix(1.00, 0.00, -0.00, -1.00, 761.7, 707.1)">t</text><text xml:space="preserve" font-family="Helvetica-Light,Helvetica" font-size="19.0" fill="#FEFFFE" transform="matrix(1.00, 0.00, -0.00, -1.00, 767.0, 707.1)">i</text><text xml:space="preserve" font-family="Helvetica-Light,Helvetica" font-size="19.0" fill="#FEFFFE" transform="matrix(1.00, 0.00, -0.00, -1.00, 771.2, 707.1)">p</text><text xml:space="preserve" font-family="Helvetica-Light,Helvetica" font-size="19.0" fill="#FEFFFE" transform="matrix(1.00, 0.00, -0.00, -1.00, 782.8, 707.1)">l</text><text xml:space="preserve" font-family="Helvetica-Light,Helvetica" font-size="19.0" fill="#FEFFFE" transform="matrix(1.00, 0.00, -0.00, -1.00, 787.1, 707.1)">i</text><text xml:space="preserve" font-family="Helvetica-Light,Helvetica" font-size="19.0" fill="#FEFFFE" transform="matrix(1.00, 0.00, -0.00, -1.00, 791.3, 707.1)">e</text><text xml:space="preserve" font-family="Helvetica-Light,Helvetica" font-size="19.0" fill="#FEFFFE" transform="matrix(1.00, 0.00, -0.00, -1.00, 801.8, 707.1)">r</text></g></g><path d="M 0.0 0.0 L 137.9 0.0 " fill="none" stroke="#000000" stroke-width="2.00" transform="matrix(-0.59, 0.80, 0.80, 0.59, 849.9, 568.9)"></path></g></svg>