<?xml version="1.0" encoding="UTF-8" standalone="no"?><svg xmlns="http://www.w3.org/2000/svg" xmlns:xlink="http://www.w3.org/1999/xlink" clip-rule="evenodd" stroke-miterlimit="10" viewBox="0 0 1920 1080"><desc>SVG generated by Keynote</desc><defs><pattern id="B3D38BCC-D2C0-44D6-8E45-499C9269E9EE" patternUnits="userSpaceOnUse" width="600" height="600" viewBox="0 0 600 600"><image xlink:href="../../B49DC77F-09BB-449C-9313-EC11A2C405DF/assets/C3C0FC898C94653CAF8AD846D6CCD108.png" width="600.00" height="600.00"></image></pattern><pattern id="8A227322-8527-4578-9C91-2782EE83D3BA" patternUnits="userSpaceOnUse" width="600" height="600" viewBox="0 0 600 600"><image xlink:href="../../B49DC77F-09BB-449C-9313-EC11A2C405DF/assets/C3C0FC898C94653CAF8AD846D6CCD108.png" width="600.00" height="600.00"></image></pattern><pattern id="67722E4C-DC6A-41CA-81B0-AF6B576D1D58" patternUnits="userSpaceOnUse" width="600" height="600" viewBox="0 0 600 600"><image xlink:href="../../8EB76D3D-0DCD-411E-A37A-1DA3BFD3A87D/assets/57C63BC369DF2E161F93135AB5988468.png" width="600.00" height="600.00"></image></pattern></defs><g transform="matrix(1.00, 0.00, -0.00, -1.00, 0.0, 1080.0)"><path d="M 0.0 1080.0 L 1920.0 1080.0 L 1920.0 0.0 L 0.0 0.0 Z M 0.0 1080.0 " fill="#FEFFFF"></path><image xlink:href="../../BE63E53C-5593-422B-901F-10C5CAF969D9/assets/56983E3337DFE21C45ECFF2775DE6E68.png" width="317.00" height="227.00" transform="matrix(1.00, 0.00, -0.00, -1.00, 167.9, 598.7)" opacity="0.50"></image><g><clipPath id="clip0x600001ab0860"><path d="M 171.0 598.0 L 482.0 598.0 L 482.0 376.0 L 171.0 376.0 Z M 170.9 597.7 "></path></clipPath><g clip-path="url(#clip0x600001ab0860)"><path d="M 171.0 376.0 L 482.0 376.0 L 482.0 598.0 L 171.0 598.0 Z M 171.0 376.0 " fill="url(#B3D38BCC-D2C0-44D6-8E45-499C9269E9EE)"></path></g></g><g><clipPath id="clip0x6080014b6380"><path d="M 160.6 376.5 L 492.0 376.5 L 492.0 597.7 L 160.6 597.7 Z M 160.6 376.5 "></path></clipPath><g clip-path="url(#clip0x6080014b6380)"><text xml:space="preserve" font-family="Helvetica-Bold,Helvetica" font-weight="bold" font-size="57.0" fill="#FEFFFE" transform="matrix(1.00, 0.00, -0.00, -1.00, 232.9, 465.8)">R</text><text xml:space="preserve" font-family="Helvetica-Bold,Helvetica" font-weight="bold" font-size="57.0" fill="#FEFFFE" transform="matrix(1.00, 0.00, -0.00, -1.00, 274.1, 465.8)">e</text><text xml:space="preserve" font-family="Helvetica-Bold,Helvetica" font-weight="bold" font-size="57.0" fill="#FEFFFE" transform="matrix(1.00, 0.00, -0.00, -1.00, 305.8, 465.8)">c</text><text xml:space="preserve" font-family="Helvetica-Bold,Helvetica" font-weight="bold" font-size="57.0" fill="#FEFFFE" transform="matrix(1.00, 0.00, -0.00, -1.00, 337.5, 465.8)">i</text><text xml:space="preserve" font-family="Helvetica-Bold,Helvetica" font-weight="bold" font-size="57.0" fill="#FEFFFE" transform="matrix(1.00, 0.00, -0.00, -1.00, 353.3, 465.8)">p</text><text xml:space="preserve" font-family="Helvetica-Bold,Helvetica" font-weight="bold" font-size="57.0" fill="#FEFFFE" transform="matrix(1.00, 0.00, -0.00, -1.00, 388.2, 465.8)">e</text></g></g><image xlink:href="../../8EB76D3D-0DCD-411E-A37A-1DA3BFD3A87D/assets/38C33C4B0DB84208B0D2E809B500ECD0.png" width="141.00" height="57.00" transform="matrix(1.00, 0.00, -0.00, -1.00, 74.0, 717.8)" opacity="0.50"></image><g><clipPath id="clip0x600001aaffc0"><path d="M 191.8 709.4 C 218.1 699.4 218.1 683.3 191.8 673.3 C 165.5 663.4 122.9 663.4 96.7 673.3 C 70.4 683.3 70.4 699.4 96.7 709.4 C 122.9 719.3 165.5 719.3 191.8 709.4 Z M 191.8 709.4 "></path></clipPath><g clip-path="url(#clip0x600001aaffc0)"><image xlink:href="../../B49DC77F-09BB-449C-9313-EC11A2C405DF/assets/C3C0FC898C94653CAF8AD846D6CCD108.png" width="600.00" height="600.00" transform="matrix(0.50, 0.00, -0.00, -0.50, 77.0, 716.8)"></image></g></g><g><clipPath id="clip0x6080014b6c80"><path d="M 77.0 665.9 L 211.5 665.9 L 211.5 716.8 L 77.0 716.8 Z M 77.0 665.9 "></path></clipPath><g clip-path="url(#clip0x6080014b6c80)"><text xml:space="preserve" font-family="Helvetica-Light,Helvetica" font-size="20.0" fill="#FEFFFE" transform="matrix(1.00, 0.00, -0.00, -1.00, 102.7, 684.0)">r</text><text xml:space="preserve" font-family="Helvetica-Light,Helvetica" font-size="20.0" fill="#FEFFFE" transform="matrix(1.00, 0.00, -0.00, -1.00, 109.0, 684.0)">e</text><text xml:space="preserve" font-family="Helvetica-Light,Helvetica" font-size="20.0" fill="#FEFFFE" transform="matrix(1.00, 0.00, -0.00, -1.00, 120.2, 684.0)">c</text><text xml:space="preserve" font-family="Helvetica-Light,Helvetica" font-size="20.0" fill="#FEFFFE" transform="matrix(1.00, 0.00, -0.00, -1.00, 131.3, 684.0)">i</text><text xml:space="preserve" font-family="Helvetica-Light,Helvetica" font-size="20.0" fill="#FEFFFE" transform="matrix(1.00, 0.00, -0.00, -1.00, 135.7, 684.0)">p</text><text xml:space="preserve" font-family="Helvetica-Light,Helvetica" font-size="20.0" fill="#FEFFFE" transform="matrix(1.00, 0.00, -0.00, -1.00, 147.9, 684.0)">e</text><text xml:space="preserve" font-family="Helvetica-Light,Helvetica" font-size="20.0" fill="#FEFFFE" transform="matrix(1.00, 0.00, -0.00, -1.00, 159.1, 684.0)">_</text><text xml:space="preserve" font-family="Helvetica-Light,Helvetica" font-size="20.0" fill="#FEFFFE" transform="matrix(1.00, 0.00, -0.00, -1.00, 169.1, 684.0)">i</text><text xml:space="preserve" font-family="Helvetica-Light,Helvetica" font-size="20.0" fill="#FEFFFE" transform="matrix(1.00, 0.00, -0.00, -1.00, 173.5, 684.0)">d</text><path d="M 25.8 34.4 L 108.8 34.4 " fill="none" stroke="#FEFFFE" stroke-width="1.00" transform="matrix(1.00, 0.00, 0.00, -1.00, 77.0, 716.8)"></path></g></g><image xlink:href="../../8EB76D3D-0DCD-411E-A37A-1DA3BFD3A87D/assets/38C33C4B0DB84208B0D2E809B500ECD0.png" width="141.00" height="57.00" transform="matrix(1.00, 0.00, -0.00, -1.00, 280.6, 722.0)" opacity="0.50"></image><g><clipPath id="clip0x600001aafe40"><path d="M 398.5 713.5 C 424.7 703.6 424.7 687.4 398.5 677.5 C 372.2 667.5 329.6 667.5 303.3 677.5 C 277.1 687.4 277.1 703.6 303.3 713.5 C 329.6 723.5 372.2 723.5 398.5 713.5 Z M 398.5 713.5 "></path></clipPath><g clip-path="url(#clip0x600001aafe40)"><image xlink:href="../../B49DC77F-09BB-449C-9313-EC11A2C405DF/assets/C3C0FC898C94653CAF8AD846D6CCD108.png" width="600.00" height="600.00" transform="matrix(0.50, 0.00, -0.00, -0.50, 283.6, 721.0)"></image></g></g><g><clipPath id="clip0x6080014b8180"><path d="M 283.6 670.0 L 418.2 670.0 L 418.2 721.0 L 283.6 721.0 Z M 283.6 670.0 "></path></clipPath><g clip-path="url(#clip0x6080014b8180)"><text xml:space="preserve" font-family="Helvetica-Light,Helvetica" font-size="20.0" fill="#FEFFFE" transform="matrix(1.00, 0.00, -0.00, -1.00, 325.9, 687.9)">n</text><text xml:space="preserve" font-family="Helvetica-Light,Helvetica" font-size="20.0" fill="#FEFFFE" transform="matrix(1.00, 0.00, -0.00, -1.00, 337.0, 687.9)">a</text><text xml:space="preserve" font-family="Helvetica-Light,Helvetica" font-size="20.0" fill="#FEFFFE" transform="matrix(1.00, 0.00, -0.00, -1.00, 348.1, 687.9)">m</text><text xml:space="preserve" font-family="Helvetica-Light,Helvetica" font-size="20.0" fill="#FEFFFE" transform="matrix(1.00, 0.00, -0.00, -1.00, 364.8, 687.9)">e</text></g></g><image xlink:href="../../8EB76D3D-0DCD-411E-A37A-1DA3BFD3A87D/assets/38C33C4B0DB84208B0D2E809B500ECD0.png" width="141.00" height="57.00" transform="matrix(1.00, 0.00, -0.00, -1.00, 487.3, 717.8)" opacity="0.50"></image><g><clipPath id="clip0x6080014b83c0"><path d="M 605.1 709.4 C 631.4 699.4 631.4 683.3 605.1 673.3 C 578.8 663.4 536.2 663.4 510.0 673.3 C 483.7 683.3 483.7 699.4 510.0 709.4 C 536.2 719.3 578.8 719.3 605.1 709.4 Z M 605.1 709.4 "></path></clipPath><g clip-path="url(#clip0x6080014b83c0)"><image xlink:href="../../B49DC77F-09BB-449C-9313-EC11A2C405DF/assets/C3C0FC898C94653CAF8AD846D6CCD108.png" width="600.00" height="600.00" transform="matrix(0.50, 0.00, -0.00, -0.50, 490.3, 716.8)"></image></g></g><g><clipPath id="clip0x600001ab06e0"><path d="M 490.3 665.9 L 624.8 665.9 L 624.8 716.8 L 490.3 716.8 Z M 490.3 665.9 "></path></clipPath><g clip-path="url(#clip0x600001ab06e0)"><text xml:space="preserve" font-family="Helvetica-Light,Helvetica" font-size="19.0" fill="#FEFFFE" transform="matrix(1.00, 0.00, -0.00, -1.00, 510.0, 684.0)">d</text><text xml:space="preserve" font-family="Helvetica-Light,Helvetica" font-size="19.0" fill="#FEFFFE" transform="matrix(1.00, 0.00, -0.00, -1.00, 521.6, 684.0)">e</text><text xml:space="preserve" font-family="Helvetica-Light,Helvetica" font-size="19.0" fill="#FEFFFE" transform="matrix(1.00, 0.00, -0.00, -1.00, 532.2, 684.0)">s</text><text xml:space="preserve" font-family="Helvetica-Light,Helvetica" font-size="19.0" fill="#FEFFFE" transform="matrix(1.00, 0.00, -0.00, -1.00, 541.7, 684.0)">c</text><text xml:space="preserve" font-family="Helvetica-Light,Helvetica" font-size="19.0" fill="#FEFFFE" transform="matrix(1.00, 0.00, -0.00, -1.00, 552.3, 684.0)">r</text><text xml:space="preserve" font-family="Helvetica-Light,Helvetica" font-size="19.0" fill="#FEFFFE" transform="matrix(1.00, 0.00, -0.00, -1.00, 558.6, 684.0)">i</text><text xml:space="preserve" font-family="Helvetica-Light,Helvetica" font-size="19.0" fill="#FEFFFE" transform="matrix(1.00, 0.00, -0.00, -1.00, 562.8, 684.0)">p</text><text xml:space="preserve" font-family="Helvetica-Light,Helvetica" font-size="19.0" fill="#FEFFFE" transform="matrix(1.00, 0.00, -0.00, -1.00, 574.4, 684.0)">t</text><text xml:space="preserve" font-family="Helvetica-Light,Helvetica" font-size="19.0" fill="#FEFFFE" transform="matrix(1.00, 0.00, -0.00, -1.00, 579.7, 684.0)">i</text><text xml:space="preserve" font-family="Helvetica-Light,Helvetica" font-size="19.0" fill="#FEFFFE" transform="matrix(1.00, 0.00, -0.00, -1.00, 583.9, 684.0)">o</text><text xml:space="preserve" font-family="Helvetica-Light,Helvetica" font-size="19.0" fill="#FEFFFE" transform="matrix(1.00, 0.00, -0.00, -1.00, 594.5, 684.0)">n</text></g></g><path d="M 0.0 0.0 L 58.1 0.0 " fill="none" stroke="#000000" stroke-width="2.00" transform="matrix(-0.61, 0.79, 0.79, 0.61, 182.8, 610.8)"></path><path d="M 0.0 0.0 L 80.7 0.0 " fill="none" stroke="#000000" stroke-width="2.00" transform="matrix(0.71, 0.71, 0.71, -0.71, 481.4, 605.3)"></path><path d="M -0.4 -0.2 L 54.6 -0.2 " fill="none" stroke="#000000" stroke-width="2.00" transform="matrix(0.00, 1.00, 1.00, 0.00, 349.2, 606.4)"></path><image xlink:href="../../BE63E53C-5593-422B-901F-10C5CAF969D9/assets/C59D305104D8C58B2E475D4431147307.png" width="317.00" height="227.00" transform="matrix(1.00, 0.00, -0.00, -1.00, 1386.1, 583.3)" opacity="0.50"></image><g><clipPath id="clip0x600001ab13a0"><path d="M 1389.0 582.0 L 1700.0 582.0 L 1700.0 361.0 L 1389.0 361.0 Z M 1389.1 582.3 "></path></clipPath><g clip-path="url(#clip0x600001ab13a0)"><path d="M 1389.0 361.0 L 1700.0 361.0 L 1700.0 582.0 L 1389.0 582.0 Z M 1389.0 361.0 " fill="url(#8A227322-8527-4578-9C91-2782EE83D3BA)"></path></g></g><g><clipPath id="clip0x6080014b8840"><path d="M 1378.9 361.0 L 1710.3 361.0 L 1710.3 582.3 L 1378.9 582.3 Z M 1378.9 361.0 "></path></clipPath><g clip-path="url(#clip0x6080014b8840)"><text xml:space="preserve" font-family="Helvetica-Bold,Helvetica" font-weight="bold" font-size="57.0" fill="#FEFFFE" transform="matrix(1.00, 0.00, -0.00, -1.00, 1408.4, 450.4)">F</text><text xml:space="preserve" font-family="Helvetica-Bold,Helvetica" font-weight="bold" font-size="57.0" fill="#FEFFFE" transform="matrix(1.00, 0.00, -0.00, -1.00, 1443.2, 450.4)">o</text><text xml:space="preserve" font-family="Helvetica-Bold,Helvetica" font-weight="bold" font-size="57.0" fill="#FEFFFE" transform="matrix(1.00, 0.00, -0.00, -1.00, 1478.0, 450.4)">o</text><text xml:space="preserve" font-family="Helvetica-Bold,Helvetica" font-weight="bold" font-size="57.0" fill="#FEFFFE" transform="matrix(1.00, 0.00, -0.00, -1.00, 1512.8, 450.4)">d</text><text xml:space="preserve" font-family="Helvetica-Bold,Helvetica" font-weight="bold" font-size="57.0" fill="#FEFFFE" transform="matrix(1.00, 0.00, -0.00, -1.00, 1547.6, 450.4)"> </text><text xml:space="preserve" font-family="Helvetica-Bold,Helvetica" font-weight="bold" font-size="57.0" fill="#FEFFFE" transform="matrix(1.00, 0.00, -0.00, -1.00, 1563.5, 450.4)">I</text><text xml:space="preserve" font-family="Helvetica-Bold,Helvetica" font-weight="bold" font-size="57.0" fill="#FEFFFE" transform="matrix(1.00, 0.00, -0.00, -1.00, 1579.3, 450.4)">t</text><text xml:space="preserve" font-family="Helvetica-Bold,Helvetica" font-weight="bold" font-size="57.0" fill="#FEFFFE" transform="matrix(1.00, 0.00, -0.00, -1.00, 1598.3, 450.4)">e</text><text xml:space="preserve" font-family="Helvetica-Bold,Helvetica" font-weight="bold" font-size="57.0" fill="#FEFFFE" transform="matrix(1.00, 0.00, -0.00, -1.00, 1630.0, 450.4)">m</text></g></g><image xlink:href="../../8EB76D3D-0DCD-411E-A37A-1DA3BFD3A87D/assets/38C33C4B0DB84208B0D2E809B500ECD0.png" width="141.00" height="57.00" transform="matrix(1.00, 0.00, -0.00, -1.00, 1292.2, 702.4)" opacity="0.50"></image><g><clipPath id="clip0x6080014b8c60"><path d="M 1410.0 694.0 C 1436.3 684.0 1436.3 667.9 1410.0 657.9 C 1383.8 648.0 1341.2 648.0 1314.9 657.9 C 1288.6 667.9 1288.6 684.0 1314.9 694.0 C 1341.2 703.9 1383.8 703.9 1410.0 694.0 Z M 1410.0 694.0 "></path></clipPath><g clip-path="url(#clip0x6080014b8c60)"><image xlink:href="../../B49DC77F-09BB-449C-9313-EC11A2C405DF/assets/C3C0FC898C94653CAF8AD846D6CCD108.png" width="600.00" height="600.00" transform="matrix(0.50, 0.00, -0.00, -0.50, 1295.2, 701.4)"></image></g></g><g><clipPath id="clip0x600001ab1640"><path d="M 1295.2 650.5 L 1429.7 650.5 L 1429.7 701.4 L 1295.2 701.4 Z M 1295.2 650.5 "></path></clipPath><g clip-path="url(#clip0x600001ab1640)"><text xml:space="preserve" font-family="Helvetica-Light,Helvetica" font-size="20.0" fill="#FEFFFE" transform="matrix(1.00, 0.00, -0.00, -1.00, 1329.1, 668.5)">f</text><text xml:space="preserve" font-family="Helvetica-Light,Helvetica" font-size="20.0" fill="#FEFFFE" transform="matrix(1.00, 0.00, -0.00, -1.00, 1334.7, 668.5)">o</text><text xml:space="preserve" font-family="Helvetica-Light,Helvetica" font-size="20.0" fill="#FEFFFE" transform="matrix(1.00, 0.00, -0.00, -1.00, 1345.8, 668.5)">o</text><text xml:space="preserve" font-family="Helvetica-Light,Helvetica" font-size="20.0" fill="#FEFFFE" transform="matrix(1.00, 0.00, -0.00, -1.00, 1356.9, 668.5)">d</text><text xml:space="preserve" font-family="Helvetica-Light,Helvetica" font-size="20.0" fill="#FEFFFE" transform="matrix(1.00, 0.00, -0.00, -1.00, 1369.1, 668.5)">_</text><text xml:space="preserve" font-family="Helvetica-Light,Helvetica" font-size="20.0" fill="#FEFFFE" transform="matrix(1.00, 0.00, -0.00, -1.00, 1379.1, 668.5)">i</text><text xml:space="preserve" font-family="Helvetica-Light,Helvetica" font-size="20.0" fill="#FEFFFE" transform="matrix(1.00, 0.00, -0.00, -1.00, 1383.6, 668.5)">d</text><path d="M 33.9 34.4 L 100.6 34.4 " fill="none" stroke="#FEFFFE" stroke-width="1.00" transform="matrix(1.00, 0.00, 0.00, -1.00, 1295.2, 701.4)"></path></g></g><image xlink:href="../../8EB76D3D-0DCD-411E-A37A-1DA3BFD3A87D/assets/38C33C4B0DB84208B0D2E809B500ECD0.png" width="141.00" height="57.00" transform="matrix(1.00, 0.00, -0.00, -1.00, 1498.8, 706.6)" opacity="0.50"></image><g><clipPath id="clip0x600001ab1c40"><path d="M 1616.7 698.1 C 1642.9 688.1 1642.9 672.0 1616.7 662.1 C 1590.4 652.1 1547.8 652.1 1521.5 662.1 C 1495.3 672.0 1495.3 688.1 1521.5 698.1 C 1547.8 708.0 1590.4 708.0 1616.7 698.1 Z M 1616.7 698.1 "></path></clipPath><g clip-path="url(#clip0x600001ab1c40)"><image xlink:href="../../B49DC77F-09BB-449C-9313-EC11A2C405DF/assets/C3C0FC898C94653CAF8AD846D6CCD108.png" width="600.00" height="600.00" transform="matrix(0.50, 0.00, -0.00, -0.50, 1501.8, 705.6)"></image></g></g><g><clipPath id="clip0x600001ab1e80"><path d="M 1501.8 654.6 L 1636.4 654.6 L 1636.4 705.6 L 1501.8 705.6 Z M 1501.8 654.6 "></path></clipPath><g clip-path="url(#clip0x600001ab1e80)"><text xml:space="preserve" font-family="Helvetica-Light,Helvetica" font-size="21.0" fill="#FEFFFE" transform="matrix(1.00, 0.00, -0.00, -1.00, 1542.9, 672.1)">n</text><text xml:space="preserve" font-family="Helvetica-Light,Helvetica" font-size="21.0" fill="#FEFFFE" transform="matrix(1.00, 0.00, -0.00, -1.00, 1554.5, 672.1)">a</text><text xml:space="preserve" font-family="Helvetica-Light,Helvetica" font-size="21.0" fill="#FEFFFE" transform="matrix(1.00, 0.00, -0.00, -1.00, 1566.2, 672.1)">m</text><text xml:space="preserve" font-family="Helvetica-Light,Helvetica" font-size="21.0" fill="#FEFFFE" transform="matrix(1.00, 0.00, -0.00, -1.00, 1583.7, 672.1)">e</text></g></g><image xlink:href="../../8EB76D3D-0DCD-411E-A37A-1DA3BFD3A87D/assets/38C33C4B0DB84208B0D2E809B500ECD0.png" width="141.00" height="57.00" transform="matrix(1.00, 0.00, -0.00, -1.00, 1705.5, 702.4)" opacity="0.50"></image><g><clipPath id="clip0x600001ab22a0"><path d="M 1823.3 694.0 C 1849.6 684.0 1849.6 667.9 1823.3 657.9 C 1797.1 648.0 1754.5 648.0 1728.2 657.9 C 1701.9 667.9 1701.9 684.0 1728.2 694.0 C 1754.5 703.9 1797.1 703.9 1823.3 694.0 Z M 1823.3 694.0 "></path></clipPath><g clip-path="url(#clip0x600001ab22a0)"><image xlink:href="../../B49DC77F-09BB-449C-9313-EC11A2C405DF/assets/C3C0FC898C94653CAF8AD846D6CCD108.png" width="600.00" height="600.00" transform="matrix(0.50, 0.00, -0.00, -0.50, 1708.5, 701.4)"></image></g></g><g><clipPath id="clip0x6080014b8ea0"><path d="M 1708.5 650.5 L 1843.0 650.5 L 1843.0 701.4 L 1708.5 701.4 Z M 1708.5 650.5 "></path></clipPath><g clip-path="url(#clip0x6080014b8ea0)"><text xml:space="preserve" font-family="Helvetica-Light,Helvetica" font-size="20.0" fill="#FEFFFE" transform="matrix(1.00, 0.00, -0.00, -1.00, 1751.3, 668.3)">ﬂ</text><text xml:space="preserve" font-family="Helvetica-Light,Helvetica" font-size="20.0" fill="#FEFFFE" transform="matrix(1.00, 0.00, -0.00, -1.00, 1761.3, 668.3)">a</text><text xml:space="preserve" font-family="Helvetica-Light,Helvetica" font-size="20.0" fill="#FEFFFE" transform="matrix(1.00, 0.00, -0.00, -1.00, 1772.4, 668.3)">v</text><text xml:space="preserve" font-family="Helvetica-Light,Helvetica" font-size="20.0" fill="#FEFFFE" transform="matrix(1.00, 0.00, -0.00, -1.00, 1782.4, 668.3)">o</text><text xml:space="preserve" font-family="Helvetica-Light,Helvetica" font-size="20.0" fill="#FEFFFE" transform="matrix(1.00, 0.00, -0.00, -1.00, 1793.6, 668.3)">r</text></g></g><path d="M 0.0 0.0 L 58.1 0.0 " fill="none" stroke="#000000" stroke-width="2.00" transform="matrix(-0.61, 0.79, 0.79, 0.61, 1401.0, 595.4)"></path><path d="M 0.0 0.0 L 80.7 0.0 " fill="none" stroke="#000000" stroke-width="2.00" transform="matrix(0.71, 0.71, 0.71, -0.71, 1699.7, 589.9)"></path><path d="M -0.0 -0.4 L 55.0 -0.4 " fill="none" stroke="#000000" stroke-width="2.00" transform="matrix(0.00, 1.00, 1.00, 0.00, 1567.4, 591.0)"></path><image xlink:href="../../8EB76D3D-0DCD-411E-A37A-1DA3BFD3A87D/assets/F48AE92D95300E7B8E65A30D873BE7B0.png" width="429.00" height="331.00" transform="matrix(1.00, 0.00, -0.00, -1.00, 721.9, 652.6)" opacity="0.50"></image><g><clipPath id="clip0x6080014b94a0"><path d="M 724.9 487.1 L 935.5 325.6 L 1146.0 487.1 L 935.5 648.6 Z M 724.9 487.1 "></path></clipPath><g clip-path="url(#clip0x6080014b94a0)"><path d="M 724.9 325.6 L 1146.0 325.6 L 1146.0 648.6 L 724.9 648.6 Z M 724.9 325.6 " fill="url(#67722E4C-DC6A-41CA-81B0-AF6B576D1D58)"></path></g></g><g><clipPath id="clip0x600001ab2720"><path d="M 724.9 325.6 L 1146.0 325.6 L 1146.0 648.6 L 724.9 648.6 Z M 724.9 325.6 "></path></clipPath><g clip-path="url(#clip0x600001ab2720)"><text xml:space="preserve" font-family="Helvetica-Bold,Helvetica" font-weight="bold" font-size="47.0" fill="#FEFFFE" transform="matrix(1.00, 0.00, -0.00, -1.00, 808.8, 470.0)">I</text><text xml:space="preserve" font-family="Helvetica-Bold,Helvetica" font-weight="bold" font-size="47.0" fill="#FEFFFE" transform="matrix(1.00, 0.00, -0.00, -1.00, 821.8, 470.0)">n</text><text xml:space="preserve" font-family="Helvetica-Bold,Helvetica" font-weight="bold" font-size="47.0" fill="#FEFFFE" transform="matrix(1.00, 0.00, -0.00, -1.00, 850.5, 470.0)">g</text><text xml:space="preserve" font-family="Helvetica-Bold,Helvetica" font-weight="bold" font-size="47.0" fill="#FEFFFE" transform="matrix(1.00, 0.00, -0.00, -1.00, 879.2, 470.0)">r</text><text xml:space="preserve" font-family="Helvetica-Bold,Helvetica" font-weight="bold" font-size="47.0" fill="#FEFFFE" transform="matrix(1.00, 0.00, -0.00, -1.00, 897.5, 470.0)">e</text><text xml:space="preserve" font-family="Helvetica-Bold,Helvetica" font-weight="bold" font-size="47.0" fill="#FEFFFE" transform="matrix(1.00, 0.00, -0.00, -1.00, 923.7, 470.0)">d</text><text xml:space="preserve" font-family="Helvetica-Bold,Helvetica" font-weight="bold" font-size="47.0" fill="#FEFFFE" transform="matrix(1.00, 0.00, -0.00, -1.00, 952.4, 470.0)">i</text><text xml:space="preserve" font-family="Helvetica-Bold,Helvetica" font-weight="bold" font-size="47.0" fill="#FEFFFE" transform="matrix(1.00, 0.00, -0.00, -1.00, 965.4, 470.0)">e</text><text xml:space="preserve" font-family="Helvetica-Bold,Helvetica" font-weight="bold" font-size="47.0" fill="#FEFFFE" transform="matrix(1.00, 0.00, -0.00, -1.00, 991.6, 470.0)">n</text><text xml:space="preserve" font-family="Helvetica-Bold,Helvetica" font-weight="bold" font-size="47.0" fill="#FEFFFE" transform="matrix(1.00, 0.00, -0.00, -1.00, 1020.3, 470.0)">t</text><text xml:space="preserve" font-family="Helvetica-Bold,Helvetica" font-weight="bold" font-size="47.0" fill="#FEFFFE" transform="matrix(1.00, 0.00, -0.00, -1.00, 1035.9, 470.0)">s</text></g></g><path d="M 0.2 -0.0 L 202.2 -0.0 " fill="none" stroke="#000000" stroke-width="8.00" transform="matrix(-1.00, 0.00, 0.00, 1.00, 704.2, 483.0)"></path><path d="M 0.5 -0.1 L 201.5 -0.1 " fill="none" stroke="#000000" stroke-width="2.00" transform="matrix(-1.00, 0.00, 0.00, 1.00, 1368.5, 487.1)"></path><image xlink:href="../../F49798D4-0CC2-4941-A241-8EC295A802F5/assets/CBCBD134032B53601A910B9BA2DEE185.png" width="143.00" height="59.00" transform="matrix(1.00, 0.00, -0.00, -1.00, 865.2, 772.8)" opacity="0.50"></image><g><clipPath id="clip0x6080014b9920"><path d="M 983.0 761.3 C 1009.3 751.4 1009.3 735.2 983.0 725.3 C 956.7 715.3 914.2 715.3 887.9 725.3 C 861.6 735.2 861.6 751.4 887.9 761.3 C 914.2 771.3 956.7 771.3 983.0 761.3 Z M 983.0 761.3 "></path></clipPath><g clip-path="url(#clip0x6080014b9920)"><image xlink:href="../../8EB76D3D-0DCD-411E-A37A-1DA3BFD3A87D/assets/57C63BC369DF2E161F93135AB5988468.png" width="600.00" height="600.00" transform="matrix(0.50, 0.00, -0.00, -0.50, 868.2, 768.8)"></image></g></g><g><clipPath id="clip0x600001ab2d20"><path d="M 868.2 717.8 L 1002.7 717.8 L 1002.7 768.8 L 868.2 768.8 Z M 868.2 717.8 "></path></clipPath><g clip-path="url(#clip0x600001ab2d20)"><text xml:space="preserve" font-family="Helvetica-Light,Helvetica" font-size="23.0" fill="#FEFFFE" transform="matrix(1.00, 0.00, -0.00, -1.00, 894.5, 734.9)">q</text><text xml:space="preserve" font-family="Helvetica-Light,Helvetica" font-size="23.0" fill="#FEFFFE" transform="matrix(1.00, 0.00, -0.00, -1.00, 908.6, 734.9)">u</text><text xml:space="preserve" font-family="Helvetica-Light,Helvetica" font-size="23.0" fill="#FEFFFE" transform="matrix(1.00, 0.00, -0.00, -1.00, 921.4, 734.9)">a</text><text xml:space="preserve" font-family="Helvetica-Light,Helvetica" font-size="23.0" fill="#FEFFFE" transform="matrix(1.00, 0.00, -0.00, -1.00, 934.2, 734.9)">n</text><text xml:space="preserve" font-family="Helvetica-Light,Helvetica" font-size="23.0" fill="#FEFFFE" transform="matrix(1.00, 0.00, -0.00, -1.00, 947.0, 734.9)">t</text><text xml:space="preserve" font-family="Helvetica-Light,Helvetica" font-size="23.0" fill="#FEFFFE" transform="matrix(1.00, 0.00, -0.00, -1.00, 953.4, 734.9)">i</text><text xml:space="preserve" font-family="Helvetica-Light,Helvetica" font-size="23.0" fill="#FEFFFE" transform="matrix(1.00, 0.00, -0.00, -1.00, 958.5, 734.9)">t</text><text xml:space="preserve" font-family="Helvetica-Light,Helvetica" font-size="23.0" fill="#FEFFFE" transform="matrix(1.00, 0.00, -0.00, -1.00, 964.9, 734.9)">y</text></g></g><path d="M -0.3 0.3 L 54.7 0.3 " fill="none" stroke="#000000" stroke-width="2.00" transform="matrix(0.00, 1.00, 1.00, 0.00, 933.7, 654.3)"></path><text xml:space="preserve" font-family="Helvetica-Light,Helvetica" font-size="50.0" fill="#000000" transform="matrix(1.00, 0.00, -0.00, -1.00, 280.1, 130.3)">A</text><text xml:space="preserve" font-family="Helvetica-Light,Helvetica" font-size="50.0" fill="#000000" transform="matrix(1.00, 0.00, -0.00, -1.00, 313.5, 130.3)"> </text><text xml:space="preserve" font-family="Helvetica-Light,Helvetica" font-size="50.0" fill="#000000" transform="matrix(1.00, 0.00, -0.00, -1.00, 327.4, 130.3)">f</text><text xml:space="preserve" font-family="Helvetica-Light,Helvetica" font-size="50.0" fill="#000000" transform="matrix(1.00, 0.00, -0.00, -1.00, 341.3, 130.3)">o</text><text xml:space="preserve" font-family="Helvetica-Light,Helvetica" font-size="50.0" fill="#000000" transform="matrix(1.00, 0.00, -0.00, -1.00, 369.1, 130.3)">o</text><text xml:space="preserve" font-family="Helvetica-Light,Helvetica" font-size="50.0" fill="#000000" transform="matrix(1.00, 0.00, -0.00, -1.00, 396.9, 130.3)">d</text><text xml:space="preserve" font-family="Helvetica-Light,Helvetica" font-size="50.0" fill="#000000" transform="matrix(1.00, 0.00, -0.00, -1.00, 427.4, 130.3)"> </text><text xml:space="preserve" font-family="Helvetica-Light,Helvetica" font-size="50.0" fill="#000000" transform="matrix(1.00, 0.00, -0.00, -1.00, 441.3, 130.3)">i</text><text xml:space="preserve" font-family="Helvetica-Light,Helvetica" font-size="50.0" fill="#000000" transform="matrix(1.00, 0.00, -0.00, -1.00, 452.4, 130.3)">t</text><text xml:space="preserve" font-family="Helvetica-Light,Helvetica" font-size="50.0" fill="#000000" transform="matrix(1.00, 0.00, -0.00, -1.00, 466.3, 130.3)">e</text><text xml:space="preserve" font-family="Helvetica-Light,Helvetica" font-size="50.0" fill="#000000" transform="matrix(1.00, 0.00, -0.00, -1.00, 494.1, 130.3)">m</text><text xml:space="preserve" font-family="Helvetica-Light,Helvetica" font-size="50.0" fill="#000000" transform="matrix(1.00, 0.00, -0.00, -1.00, 535.8, 130.3)"> </text><text xml:space="preserve" font-family="Helvetica-Light,Helvetica" font-size="50.0" fill="#000000" transform="matrix(1.00, 0.00, -0.00, -1.00, 549.7, 130.3)">p</text><text xml:space="preserve" font-family="Helvetica-Light,Helvetica" font-size="50.0" fill="#000000" transform="matrix(1.00, 0.00, -0.00, -1.00, 580.2, 130.3)">a</text><text xml:space="preserve" font-family="Helvetica-Light,Helvetica" font-size="50.0" fill="#000000" transform="matrix(1.00, 0.00, -0.00, -1.00, 608.0, 130.3)">r</text><text xml:space="preserve" font-family="Helvetica-Light,Helvetica" font-size="50.0" fill="#000000" transform="matrix(1.00, 0.00, -0.00, -1.00, 625.6, 130.3)">t</text><text xml:space="preserve" font-family="Helvetica-Light,Helvetica" font-size="50.0" fill="#000000" transform="matrix(1.00, 0.00, -0.00, -1.00, 639.5, 130.3)">i</text><text xml:space="preserve" font-family="Helvetica-Light,Helvetica" font-size="50.0" fill="#000000" transform="matrix(1.00, 0.00, -0.00, -1.00, 650.6, 130.3)">c</text><text xml:space="preserve" font-family="Helvetica-Light,Helvetica" font-size="50.0" fill="#000000" transform="matrix(1.00, 0.00, -0.00, -1.00, 678.4, 130.3)">i</text><text xml:space="preserve" font-family="Helvetica-Light,Helvetica" font-size="50.0" fill="#000000" transform="matrix(1.00, 0.00, -0.00, -1.00, 689.5, 130.3)">p</text><text xml:space="preserve" font-family="Helvetica-Light,Helvetica" font-size="50.0" fill="#000000" transform="matrix(1.00, 0.00, -0.00, -1.00, 720.0, 130.3)">a</text><text xml:space="preserve" font-family="Helvetica-Light,Helvetica" font-size="50.0" fill="#000000" transform="matrix(1.00, 0.00, -0.00, -1.00, 747.8, 130.3)">t</text><text xml:space="preserve" font-family="Helvetica-Light,Helvetica" font-size="50.0" fill="#000000" transform="matrix(1.00, 0.00, -0.00, -1.00, 761.7, 130.3)">e</text><text xml:space="preserve" font-family="Helvetica-Light,Helvetica" font-size="50.0" fill="#000000" transform="matrix(1.00, 0.00, -0.00, -1.00, 789.5, 130.3)">s</text><text xml:space="preserve" font-family="Helvetica-Light,Helvetica" font-size="50.0" fill="#000000" transform="matrix(1.00, 0.00, -0.00, -1.00, 814.5, 130.3)"> </text><text xml:space="preserve" font-family="Helvetica-Light,Helvetica" font-size="50.0" fill="#000000" transform="matrix(1.00, 0.00, -0.00, -1.00, 828.4, 130.3)">i</text><text xml:space="preserve" font-family="Helvetica-Light,Helvetica" font-size="50.0" fill="#000000" transform="matrix(1.00, 0.00, -0.00, -1.00, 839.5, 130.3)">n</text><text xml:space="preserve" font-family="Helvetica-Light,Helvetica" font-size="50.0" fill="#000000" transform="matrix(1.00, 0.00, -0.00, -1.00, 867.3, 130.3)"> </text><text xml:space="preserve" font-family="Helvetica-Light,Helvetica" font-size="50.0" fill="#000000" transform="matrix(1.00, 0.00, -0.00, -1.00, 881.2, 130.3)">0</text><text xml:space="preserve" font-family="Helvetica-Light,Helvetica" font-size="50.0" fill="#000000" transform="matrix(1.00, 0.00, -0.00, -1.00, 909.0, 130.3)"> </text><text xml:space="preserve" font-family="Helvetica-Light,Helvetica" font-size="50.0" fill="#000000" transform="matrix(1.00, 0.00, -0.00, -1.00, 922.9, 130.3)">o</text><text xml:space="preserve" font-family="Helvetica-Light,Helvetica" font-size="50.0" fill="#000000" transform="matrix(1.00, 0.00, -0.00, -1.00, 950.7, 130.3)">r</text><text xml:space="preserve" font-family="Helvetica-Light,Helvetica" font-size="50.0" fill="#000000" transform="matrix(1.00, 0.00, -0.00, -1.00, 967.4, 130.3)"> </text><text xml:space="preserve" font-family="Helvetica-Light,Helvetica" font-size="50.0" fill="#000000" transform="matrix(1.00, 0.00, -0.00, -1.00, 981.3, 130.3)">m</text><text xml:space="preserve" font-family="Helvetica-Light,Helvetica" font-size="50.0" fill="#000000" transform="matrix(1.00, 0.00, -0.00, -1.00, 1022.9, 130.3)">o</text><text xml:space="preserve" font-family="Helvetica-Light,Helvetica" font-size="50.0" fill="#000000" transform="matrix(1.00, 0.00, -0.00, -1.00, 1050.7, 130.3)">r</text><text xml:space="preserve" font-family="Helvetica-Light,Helvetica" font-size="50.0" fill="#000000" transform="matrix(1.00, 0.00, -0.00, -1.00, 1066.5, 130.3)">e</text><text xml:space="preserve" font-family="Helvetica-Light,Helvetica" font-size="50.0" fill="#000000" transform="matrix(1.00, 0.00, -0.00, -1.00, 1094.3, 130.3)"> </text><text xml:space="preserve" font-family="Helvetica-Light,Helvetica" font-size="50.0" fill="#000000" transform="matrix(1.00, 0.00, -0.00, -1.00, 1108.2, 130.3)">i</text><text xml:space="preserve" font-family="Helvetica-Light,Helvetica" font-size="50.0" fill="#000000" transform="matrix(1.00, 0.00, -0.00, -1.00, 1119.3, 130.3)">n</text><text xml:space="preserve" font-family="Helvetica-Light,Helvetica" font-size="50.0" fill="#000000" transform="matrix(1.00, 0.00, -0.00, -1.00, 1147.1, 130.3)">g</text><text xml:space="preserve" font-family="Helvetica-Light,Helvetica" font-size="50.0" fill="#000000" transform="matrix(1.00, 0.00, -0.00, -1.00, 1177.6, 130.3)">r</text><text xml:space="preserve" font-family="Helvetica-Light,Helvetica" font-size="50.0" fill="#000000" transform="matrix(1.00, 0.00, -0.00, -1.00, 1193.4, 130.3)">e</text><text xml:space="preserve" font-family="Helvetica-Light,Helvetica" font-size="50.0" fill="#000000" transform="matrix(1.00, 0.00, -0.00, -1.00, 1221.2, 130.3)">d</text><text xml:space="preserve" font-family="Helvetica-Light,Helvetica" font-size="50.0" fill="#000000" transform="matrix(1.00, 0.00, -0.00, -1.00, 1251.7, 130.3)">i</text><text xml:space="preserve" font-family="Helvetica-Light,Helvetica" font-size="50.0" fill="#000000" transform="matrix(1.00, 0.00, -0.00, -1.00, 1262.8, 130.3)">e</text><text xml:space="preserve" font-family="Helvetica-Light,Helvetica" font-size="50.0" fill="#000000" transform="matrix(1.00, 0.00, -0.00, -1.00, 1290.6, 130.3)">n</text><text xml:space="preserve" font-family="Helvetica-Light,Helvetica" font-size="50.0" fill="#000000" transform="matrix(1.00, 0.00, -0.00, -1.00, 1318.4, 130.3)">t</text><text xml:space="preserve" font-family="Helvetica-Light,Helvetica" font-size="50.0" fill="#000000" transform="matrix(1.00, 0.00, -0.00, -1.00, 1332.3, 130.3)">s</text><text xml:space="preserve" font-family="Helvetica-Light,Helvetica" font-size="50.0" fill="#000000" transform="matrix(1.00, 0.00, -0.00, -1.00, 1357.3, 130.3)"> </text><text xml:space="preserve" font-family="Helvetica-Light,Helvetica" font-size="50.0" fill="#000000" transform="matrix(1.00, 0.00, -0.00, -1.00, 1371.2, 130.3)">f</text><text xml:space="preserve" font-family="Helvetica-Light,Helvetica" font-size="50.0" fill="#000000" transform="matrix(1.00, 0.00, -0.00, -1.00, 1385.1, 130.3)">o</text><text xml:space="preserve" font-family="Helvetica-Light,Helvetica" font-size="50.0" fill="#000000" transform="matrix(1.00, 0.00, -0.00, -1.00, 1412.9, 130.3)">r</text><text xml:space="preserve" font-family="Helvetica-Light,Helvetica" font-size="50.0" fill="#000000" transform="matrix(1.00, 0.00, -0.00, -1.00, 1429.6, 130.3)"> </text><text xml:space="preserve" font-family="Helvetica-Light,Helvetica" font-size="50.0" fill="#000000" transform="matrix(1.00, 0.00, -0.00, -1.00, 1443.5, 130.3)">a</text><text xml:space="preserve" font-family="Helvetica-Light,Helvetica" font-size="50.0" fill="#000000" transform="matrix(1.00, 0.00, -0.00, -1.00, 1471.3, 130.3)"> </text><text xml:space="preserve" font-family="Helvetica-Light,Helvetica" font-size="50.0" fill="#000000" transform="matrix(1.00, 0.00, -0.00, -1.00, 1485.2, 130.3)">r</text><text xml:space="preserve" font-family="Helvetica-Light,Helvetica" font-size="50.0" fill="#000000" transform="matrix(1.00, 0.00, -0.00, -1.00, 1500.9, 130.3)">e</text><text xml:space="preserve" font-family="Helvetica-Light,Helvetica" font-size="50.0" fill="#000000" transform="matrix(1.00, 0.00, -0.00, -1.00, 1528.7, 130.3)">c</text><text xml:space="preserve" font-family="Helvetica-Light,Helvetica" font-size="50.0" fill="#000000" transform="matrix(1.00, 0.00, -0.00, -1.00, 1556.5, 130.3)">i</text><text xml:space="preserve" font-family="Helvetica-Light,Helvetica" font-size="50.0" fill="#000000" transform="matrix(1.00, 0.00, -0.00, -1.00, 1567.6, 130.3)">p</text><text xml:space="preserve" font-family="Helvetica-Light,Helvetica" font-size="50.0" fill="#000000" transform="matrix(1.00, 0.00, -0.00, -1.00, 1598.2, 130.3)">e</text><text xml:space="preserve" font-family="Helvetica-Light,Helvetica" font-size="50.0" fill="#000000" transform="matrix(1.00, 0.00, -0.00, -1.00, 1626.0, 130.3)">.</text></g></svg>