<?xml version="1.0" encoding="UTF-8" standalone="no"?><svg xmlns="http://www.w3.org/2000/svg" xmlns:xlink="http://www.w3.org/1999/xlink" clip-rule="evenodd" stroke-miterlimit="10" viewBox="0 0 1920 1080"><desc>SVG generated by Keynote</desc><defs></defs><g transform="matrix(1.00, 0.00, -0.00, -1.00, 0.0, 1080.0)"><path d="M 0.0 1080.0 L 1920.0 1080.0 L 1920.0 0.0 L 0.0 0.0 Z M 0.0 1080.0 " fill="#FEFFFF"></path><text xml:space="preserve" font-family="Helvetica-Light,Helvetica" font-size="71.7" fill="#000000" transform="matrix(1.00, 0.00, -0.00, -1.00, 140.7, 711.5)">T</text><text xml:space="preserve" font-family="Helvetica-Light,Helvetica" font-size="71.7" fill="#000000" transform="matrix(1.00, 0.00, -0.00, -1.00, 180.5, 711.5)">h</text><text xml:space="preserve" font-family="Helvetica-Light,Helvetica" font-size="71.7" fill="#000000" transform="matrix(1.00, 0.00, -0.00, -1.00, 220.4, 711.5)">i</text><text xml:space="preserve" font-family="Helvetica-Light,Helvetica" font-size="71.7" fill="#000000" transform="matrix(1.00, 0.00, -0.00, -1.00, 236.3, 711.5)">s</text><text xml:space="preserve" font-family="Helvetica-Light,Helvetica" font-size="71.7" fill="#000000" transform="matrix(1.00, 0.00, -0.00, -1.00, 272.1, 711.5)"> </text><text xml:space="preserve" font-family="Helvetica-Light,Helvetica" font-size="71.7" fill="#000000" transform="matrix(1.00, 0.00, -0.00, -1.00, 292.1, 711.5)">c</text><text xml:space="preserve" font-family="Helvetica-Light,Helvetica" font-size="71.7" fill="#000000" transform="matrix(1.00, 0.00, -0.00, -1.00, 331.9, 711.5)">l</text><text xml:space="preserve" font-family="Helvetica-Light,Helvetica" font-size="71.7" fill="#000000" transform="matrix(1.00, 0.00, -0.00, -1.00, 347.8, 711.5)">a</text><text xml:space="preserve" font-family="Helvetica-Light,Helvetica" font-size="71.7" fill="#000000" transform="matrix(1.00, 0.00, -0.00, -1.00, 387.7, 711.5)">s</text><text xml:space="preserve" font-family="Helvetica-Light,Helvetica" font-size="71.7" fill="#000000" transform="matrix(1.00, 0.00, -0.00, -1.00, 423.5, 711.5)">s</text><text xml:space="preserve" font-family="Helvetica-Light,Helvetica" font-size="71.7" fill="#000000" transform="matrix(1.00, 0.00, -0.00, -1.00, 459.4, 711.5)"> </text><text xml:space="preserve" font-family="Helvetica-Light,Helvetica" font-size="71.7" fill="#000000" transform="matrix(1.00, 0.00, -0.00, -1.00, 479.3, 711.5)">w</text><text xml:space="preserve" font-family="Helvetica-Light,Helvetica" font-size="71.7" fill="#000000" transform="matrix(1.00, 0.00, -0.00, -1.00, 531.0, 711.5)">i</text><text xml:space="preserve" font-family="Helvetica-Light,Helvetica" font-size="71.7" fill="#000000" transform="matrix(1.00, 0.00, -0.00, -1.00, 547.0, 711.5)">l</text><text xml:space="preserve" font-family="Helvetica-Light,Helvetica" font-size="71.7" fill="#000000" transform="matrix(1.00, 0.00, -0.00, -1.00, 562.9, 711.5)">l</text><text xml:space="preserve" font-family="Helvetica-Light,Helvetica" font-size="71.7" fill="#000000" transform="matrix(1.00, 0.00, -0.00, -1.00, 578.8, 711.5)"> </text><text xml:space="preserve" font-family="Helvetica-Light,Helvetica" font-size="71.7" fill="#000000" transform="matrix(1.00, 0.00, -0.00, -1.00, 598.7, 711.5)">r</text><text xml:space="preserve" font-family="Helvetica-Light,Helvetica" font-size="71.7" fill="#000000" transform="matrix(1.00, 0.00, -0.00, -1.00, 621.3, 711.5)">e</text><text xml:space="preserve" font-family="Helvetica-Light,Helvetica" font-size="71.7" fill="#000000" transform="matrix(1.00, 0.00, -0.00, -1.00, 661.1, 711.5)">q</text><text xml:space="preserve" font-family="Helvetica-Light,Helvetica" font-size="71.7" fill="#000000" transform="matrix(1.00, 0.00, -0.00, -1.00, 704.9, 711.5)">u</text><text xml:space="preserve" font-family="Helvetica-Light,Helvetica" font-size="71.7" fill="#000000" transform="matrix(1.00, 0.00, -0.00, -1.00, 744.8, 711.5)">i</text><text xml:space="preserve" font-family="Helvetica-Light,Helvetica" font-size="71.7" fill="#000000" transform="matrix(1.00, 0.00, -0.00, -1.00, 760.7, 711.5)">r</text><text xml:space="preserve" font-family="Helvetica-Light,Helvetica" font-size="71.7" fill="#000000" transform="matrix(1.00, 0.00, -0.00, -1.00, 783.3, 711.5)">e</text><text xml:space="preserve" font-family="Helvetica-Light,Helvetica" font-size="71.7" fill="#000000" transform="matrix(1.00, 0.00, -0.00, -1.00, 823.1, 711.5)"> </text><text xml:space="preserve" font-family="Helvetica-Light,Helvetica" font-size="71.7" fill="#000000" transform="matrix(1.00, 0.00, -0.00, -1.00, 843.1, 711.5)">y</text><text xml:space="preserve" font-family="Helvetica-Light,Helvetica" font-size="71.7" fill="#000000" transform="matrix(1.00, 0.00, -0.00, -1.00, 878.9, 711.5)">o</text><text xml:space="preserve" font-family="Helvetica-Light,Helvetica" font-size="71.7" fill="#000000" transform="matrix(1.00, 0.00, -0.00, -1.00, 918.8, 711.5)">u</text><text xml:space="preserve" font-family="Helvetica-Light,Helvetica" font-size="71.7" fill="#000000" transform="matrix(1.00, 0.00, -0.00, -1.00, 958.6, 711.5)"> </text><text xml:space="preserve" font-family="Helvetica-Light,Helvetica" font-size="71.7" fill="#000000" transform="matrix(1.00, 0.00, -0.00, -1.00, 978.5, 711.5)">t</text><text xml:space="preserve" font-family="Helvetica-Light,Helvetica" font-size="71.7" fill="#000000" transform="matrix(1.00, 0.00, -0.00, -1.00, 998.5, 711.5)">o</text><text xml:space="preserve" font-family="Helvetica-Light,Helvetica" font-size="71.7" fill="#000000" transform="matrix(1.00, 0.00, -0.00, -1.00, 1038.3, 711.5)"> </text><text xml:space="preserve" font-family="Helvetica-Light,Helvetica" font-size="71.7" fill="#000000" transform="matrix(1.00, 0.00, -0.00, -1.00, 1058.2, 711.5)">k</text><text xml:space="preserve" font-family="Helvetica-Light,Helvetica" font-size="71.7" fill="#000000" transform="matrix(1.00, 0.00, -0.00, -1.00, 1094.1, 711.5)">n</text><text xml:space="preserve" font-family="Helvetica-Light,Helvetica" font-size="71.7" fill="#000000" transform="matrix(1.00, 0.00, -0.00, -1.00, 1133.9, 711.5)">o</text><text xml:space="preserve" font-family="Helvetica-Light,Helvetica" font-size="71.7" fill="#000000" transform="matrix(1.00, 0.00, -0.00, -1.00, 1173.8, 711.5)">w</text><text xml:space="preserve" font-family="Helvetica-Light,Helvetica" font-size="71.7" fill="#000000" transform="matrix(1.00, 0.00, -0.00, -1.00, 1225.5, 711.5)"> </text><text xml:space="preserve" font-family="Helvetica-Bold,Helvetica" font-weight="bold" font-size="71.7" fill="#000000" transform="matrix(1.00, 0.00, -0.00, -1.00, 1245.5, 711.5)">t</text><text xml:space="preserve" font-family="Helvetica-Bold,Helvetica" font-weight="bold" font-size="71.7" fill="#000000" transform="matrix(1.00, 0.00, -0.00, -1.00, 1269.3, 711.5)">h</text><text xml:space="preserve" font-family="Helvetica-Bold,Helvetica" font-weight="bold" font-size="71.7" fill="#000000" transform="matrix(1.00, 0.00, -0.00, -1.00, 1313.1, 711.5)">e</text><text xml:space="preserve" font-family="Helvetica-Bold,Helvetica" font-weight="bold" font-size="71.7" fill="#000000" transform="matrix(1.00, 0.00, -0.00, -1.00, 1353.0, 711.5)">s</text><text xml:space="preserve" font-family="Helvetica-Bold,Helvetica" font-weight="bold" font-size="71.7" fill="#000000" transform="matrix(1.00, 0.00, -0.00, -1.00, 1392.9, 711.5)">e</text><text xml:space="preserve" font-family="Helvetica-Bold,Helvetica" font-weight="bold" font-size="71.7" fill="#000000" transform="matrix(1.00, 0.00, -0.00, -1.00, 1432.8, 711.5)"> </text><text xml:space="preserve" font-family="Helvetica-Bold,Helvetica" font-weight="bold" font-size="71.7" fill="#000000" transform="matrix(1.00, 0.00, -0.00, -1.00, 1452.7, 711.5)">3</text><text xml:space="preserve" font-family="Helvetica-Bold,Helvetica" font-weight="bold" font-size="71.7" fill="#000000" transform="matrix(1.00, 0.00, -0.00, -1.00, 1492.5, 711.5)"> </text><text xml:space="preserve" font-family="Helvetica-Bold,Helvetica" font-weight="bold" font-size="71.7" fill="#000000" transform="matrix(1.00, 0.00, -0.00, -1.00, 1512.4, 711.5)">p</text><text xml:space="preserve" font-family="Helvetica-Bold,Helvetica" font-weight="bold" font-size="71.7" fill="#000000" transform="matrix(1.00, 0.00, -0.00, -1.00, 1556.2, 711.5)">o</text><text xml:space="preserve" font-family="Helvetica-Bold,Helvetica" font-weight="bold" font-size="71.7" fill="#000000" transform="matrix(1.00, 0.00, -0.00, -1.00, 1600.0, 711.5)">l</text><text xml:space="preserve" font-family="Helvetica-Bold,Helvetica" font-weight="bold" font-size="71.7" fill="#000000" transform="matrix(1.00, 0.00, -0.00, -1.00, 1619.9, 711.5)">i</text><text xml:space="preserve" font-family="Helvetica-Bold,Helvetica" font-weight="bold" font-size="71.7" fill="#000000" transform="matrix(1.00, 0.00, -0.00, -1.00, 1639.8, 711.5)">c</text><text xml:space="preserve" font-family="Helvetica-Bold,Helvetica" font-weight="bold" font-size="71.7" fill="#000000" transform="matrix(1.00, 0.00, -0.00, -1.00, 1679.7, 711.5)">i</text><text xml:space="preserve" font-family="Helvetica-Bold,Helvetica" font-weight="bold" font-size="71.7" fill="#000000" transform="matrix(1.00, 0.00, -0.00, -1.00, 1699.6, 711.5)">e</text><text xml:space="preserve" font-family="Helvetica-Bold,Helvetica" font-weight="bold" font-size="71.7" fill="#000000" transform="matrix(1.00, 0.00, -0.00, -1.00, 1739.4, 711.5)">s</text><text xml:space="preserve" font-family="Helvetica-Light,Helvetica" font-size="39.0" fill="#000000" transform="matrix(1.00, 0.00, -0.00, -1.00, 137.0, 539.0)">•</text><text xml:space="preserve" font-family="Helvetica-Light,Helvetica" font-size="52.0" fill="#000000" transform="matrix(1.00, 0.00, -0.00, -1.00, 187.0, 534.5)">M</text><text xml:space="preserve" font-family="Helvetica-Light,Helvetica" font-size="52.0" fill="#000000" transform="matrix(1.00, 0.00, -0.00, -1.00, 230.3, 534.5)">o</text><text xml:space="preserve" font-family="Helvetica-Light,Helvetica" font-size="52.0" fill="#000000" transform="matrix(1.00, 0.00, -0.00, -1.00, 259.2, 534.5)">s</text><text xml:space="preserve" font-family="Helvetica-Light,Helvetica" font-size="52.0" fill="#000000" transform="matrix(1.00, 0.00, -0.00, -1.00, 285.2, 534.5)">t</text><text xml:space="preserve" font-family="Helvetica-Light,Helvetica" font-size="52.0" fill="#000000" transform="matrix(1.00, 0.00, -0.00, -1.00, 299.7, 534.5)"> </text><text xml:space="preserve" font-family="Helvetica-Light,Helvetica" font-size="52.0" fill="#000000" transform="matrix(1.00, 0.00, -0.00, -1.00, 314.1, 534.5)">R</text><text xml:space="preserve" font-family="Helvetica-Light,Helvetica" font-size="52.0" fill="#000000" transform="matrix(1.00, 0.00, -0.00, -1.00, 348.8, 534.5)">e</text><text xml:space="preserve" font-family="Helvetica-Light,Helvetica" font-size="52.0" fill="#000000" transform="matrix(1.00, 0.00, -0.00, -1.00, 377.7, 534.5)">c</text><text xml:space="preserve" font-family="Helvetica-Light,Helvetica" font-size="52.0" fill="#000000" transform="matrix(1.00, 0.00, -0.00, -1.00, 406.6, 534.5)">e</text><text xml:space="preserve" font-family="Helvetica-Light,Helvetica" font-size="52.0" fill="#000000" transform="matrix(1.00, 0.00, -0.00, -1.00, 435.6, 534.5)">n</text><text xml:space="preserve" font-family="Helvetica-Light,Helvetica" font-size="52.0" fill="#000000" transform="matrix(1.00, 0.00, -0.00, -1.00, 464.5, 534.5)">t</text><text xml:space="preserve" font-family="Helvetica-Light,Helvetica" font-size="52.0" fill="#000000" transform="matrix(1.00, 0.00, -0.00, -1.00, 478.9, 534.5)">l</text><text xml:space="preserve" font-family="Helvetica-Light,Helvetica" font-size="52.0" fill="#000000" transform="matrix(1.00, 0.00, -0.00, -1.00, 490.5, 534.5)">y</text><text xml:space="preserve" font-family="Helvetica-Light,Helvetica" font-size="52.0" fill="#000000" transform="matrix(1.00, 0.00, -0.00, -1.00, 516.5, 534.5)"> </text><text xml:space="preserve" font-family="Helvetica-Light,Helvetica" font-size="52.0" fill="#000000" transform="matrix(1.00, 0.00, -0.00, -1.00, 530.9, 534.5)">U</text><text xml:space="preserve" font-family="Helvetica-Light,Helvetica" font-size="52.0" fill="#000000" transform="matrix(1.00, 0.00, -0.00, -1.00, 568.5, 534.5)">s</text><text xml:space="preserve" font-family="Helvetica-Light,Helvetica" font-size="52.0" fill="#000000" transform="matrix(1.00, 0.00, -0.00, -1.00, 594.5, 534.5)">e</text><text xml:space="preserve" font-family="Helvetica-Light,Helvetica" font-size="52.0" fill="#000000" transform="matrix(1.00, 0.00, -0.00, -1.00, 623.4, 534.5)">d</text><text xml:space="preserve" font-family="Helvetica-Light,Helvetica" font-size="52.0" fill="#000000" transform="matrix(1.00, 0.00, -0.00, -1.00, 655.2, 534.5)"> </text><text xml:space="preserve" font-family="Helvetica-Light,Helvetica" font-size="52.0" fill="#000000" transform="matrix(1.00, 0.00, -0.00, -1.00, 669.6, 534.5)">(</text><text xml:space="preserve" font-family="Helvetica-Light,Helvetica" font-size="52.0" fill="#000000" transform="matrix(1.00, 0.00, -0.00, -1.00, 686.9, 534.5)">M</text><text xml:space="preserve" font-family="Helvetica-Light,Helvetica" font-size="52.0" fill="#000000" transform="matrix(1.00, 0.00, -0.00, -1.00, 730.2, 534.5)">R</text><text xml:space="preserve" font-family="Helvetica-Light,Helvetica" font-size="52.0" fill="#000000" transform="matrix(1.00, 0.00, -0.00, -1.00, 764.9, 534.5)">U</text><text xml:space="preserve" font-family="Helvetica-Light,Helvetica" font-size="52.0" fill="#000000" transform="matrix(1.00, 0.00, -0.00, -1.00, 802.5, 534.5)">)</text><text xml:space="preserve" font-family="Helvetica-Light,Helvetica" font-size="52.0" fill="#000000" transform="matrix(1.00, 0.00, -0.00, -1.00, 819.8, 534.5)"> </text><text xml:space="preserve" font-family="Helvetica-Light,Helvetica" font-size="52.0" fill="#000000" transform="matrix(1.00, 0.00, -0.00, -1.00, 834.2, 534.5)">-</text><text xml:space="preserve" font-family="Helvetica-Light,Helvetica" font-size="52.0" fill="#000000" transform="matrix(1.00, 0.00, -0.00, -1.00, 851.6, 534.5)"> </text><text xml:space="preserve" font-family="Helvetica-LightOblique,Helvetica" font-style="italic" font-size="52.0" fill="#000000" transform="matrix(1.00, 0.00, -0.00, -1.00, 866.0, 534.5)">L</text><text xml:space="preserve" font-family="Helvetica-LightOblique,Helvetica" font-style="italic" font-size="52.0" fill="#000000" transform="matrix(1.00, 0.00, -0.00, -1.00, 894.9, 534.5)">I</text><text xml:space="preserve" font-family="Helvetica-LightOblique,Helvetica" font-style="italic" font-size="52.0" fill="#000000" transform="matrix(1.00, 0.00, -0.00, -1.00, 909.4, 534.5)">F</text><text xml:space="preserve" font-family="Helvetica-LightOblique,Helvetica" font-style="italic" font-size="52.0" fill="#000000" transform="matrix(1.00, 0.00, -0.00, -1.00, 938.3, 534.5)">O</text><text xml:space="preserve" font-family="Helvetica-Light,Helvetica" font-size="52.0" fill="#000000" transform="matrix(1.00, 0.00, -0.00, -1.00, 978.8, 534.5)"> </text><text xml:space="preserve" font-family="Helvetica-Light,Helvetica" font-size="39.0" fill="#000000" transform="matrix(1.00, 0.00, -0.00, -1.00, 137.0, 418.0)">•</text><text xml:space="preserve" font-family="Helvetica-Light,Helvetica" font-size="52.0" fill="#000000" transform="matrix(1.00, 0.00, -0.00, -1.00, 187.0, 413.5)">L</text><text xml:space="preserve" font-family="Helvetica-Light,Helvetica" font-size="52.0" fill="#000000" transform="matrix(1.00, 0.00, -0.00, -1.00, 215.9, 413.5)">e</text><text xml:space="preserve" font-family="Helvetica-Light,Helvetica" font-size="52.0" fill="#000000" transform="matrix(1.00, 0.00, -0.00, -1.00, 244.8, 413.5)">a</text><text xml:space="preserve" font-family="Helvetica-Light,Helvetica" font-size="52.0" fill="#000000" transform="matrix(1.00, 0.00, -0.00, -1.00, 273.7, 413.5)">s</text><text xml:space="preserve" font-family="Helvetica-Light,Helvetica" font-size="52.0" fill="#000000" transform="matrix(1.00, 0.00, -0.00, -1.00, 299.7, 413.5)">t</text><text xml:space="preserve" font-family="Helvetica-Light,Helvetica" font-size="52.0" fill="#000000" transform="matrix(1.00, 0.00, -0.00, -1.00, 314.2, 413.5)"> </text><text xml:space="preserve" font-family="Helvetica-Light,Helvetica" font-size="52.0" fill="#000000" transform="matrix(1.00, 0.00, -0.00, -1.00, 328.6, 413.5)">R</text><text xml:space="preserve" font-family="Helvetica-Light,Helvetica" font-size="52.0" fill="#000000" transform="matrix(1.00, 0.00, -0.00, -1.00, 363.3, 413.5)">e</text><text xml:space="preserve" font-family="Helvetica-Light,Helvetica" font-size="52.0" fill="#000000" transform="matrix(1.00, 0.00, -0.00, -1.00, 392.2, 413.5)">c</text><text xml:space="preserve" font-family="Helvetica-Light,Helvetica" font-size="52.0" fill="#000000" transform="matrix(1.00, 0.00, -0.00, -1.00, 421.2, 413.5)">e</text><text xml:space="preserve" font-family="Helvetica-Light,Helvetica" font-size="52.0" fill="#000000" transform="matrix(1.00, 0.00, -0.00, -1.00, 450.1, 413.5)">n</text><text xml:space="preserve" font-family="Helvetica-Light,Helvetica" font-size="52.0" fill="#000000" transform="matrix(1.00, 0.00, -0.00, -1.00, 479.0, 413.5)">t</text><text xml:space="preserve" font-family="Helvetica-Light,Helvetica" font-size="52.0" fill="#000000" transform="matrix(1.00, 0.00, -0.00, -1.00, 493.4, 413.5)">l</text><text xml:space="preserve" font-family="Helvetica-Light,Helvetica" font-size="52.0" fill="#000000" transform="matrix(1.00, 0.00, -0.00, -1.00, 505.0, 413.5)">y</text><text xml:space="preserve" font-family="Helvetica-Light,Helvetica" font-size="52.0" fill="#000000" transform="matrix(1.00, 0.00, -0.00, -1.00, 531.0, 413.5)"> </text><text xml:space="preserve" font-family="Helvetica-Light,Helvetica" font-size="52.0" fill="#000000" transform="matrix(1.00, 0.00, -0.00, -1.00, 545.4, 413.5)">U</text><text xml:space="preserve" font-family="Helvetica-Light,Helvetica" font-size="52.0" fill="#000000" transform="matrix(1.00, 0.00, -0.00, -1.00, 583.0, 413.5)">s</text><text xml:space="preserve" font-family="Helvetica-Light,Helvetica" font-size="52.0" fill="#000000" transform="matrix(1.00, 0.00, -0.00, -1.00, 609.0, 413.5)">e</text><text xml:space="preserve" font-family="Helvetica-Light,Helvetica" font-size="52.0" fill="#000000" transform="matrix(1.00, 0.00, -0.00, -1.00, 637.9, 413.5)">d</text><text xml:space="preserve" font-family="Helvetica-Light,Helvetica" font-size="52.0" fill="#000000" transform="matrix(1.00, 0.00, -0.00, -1.00, 669.7, 413.5)"> </text><text xml:space="preserve" font-family="Helvetica-Light,Helvetica" font-size="52.0" fill="#000000" transform="matrix(1.00, 0.00, -0.00, -1.00, 684.1, 413.5)">(</text><text xml:space="preserve" font-family="Helvetica-Light,Helvetica" font-size="52.0" fill="#000000" transform="matrix(1.00, 0.00, -0.00, -1.00, 701.4, 413.5)">L</text><text xml:space="preserve" font-family="Helvetica-Light,Helvetica" font-size="52.0" fill="#000000" transform="matrix(1.00, 0.00, -0.00, -1.00, 730.3, 413.5)">R</text><text xml:space="preserve" font-family="Helvetica-Light,Helvetica" font-size="52.0" fill="#000000" transform="matrix(1.00, 0.00, -0.00, -1.00, 765.0, 413.5)">U</text><text xml:space="preserve" font-family="Helvetica-Light,Helvetica" font-size="52.0" fill="#000000" transform="matrix(1.00, 0.00, -0.00, -1.00, 802.6, 413.5)">)</text><text xml:space="preserve" font-family="Helvetica-Light,Helvetica" font-size="52.0" fill="#000000" transform="matrix(1.00, 0.00, -0.00, -1.00, 819.9, 413.5)"> </text><text xml:space="preserve" font-family="Helvetica-Light,Helvetica" font-size="52.0" fill="#000000" transform="matrix(1.00, 0.00, -0.00, -1.00, 834.3, 413.5)">-</text><text xml:space="preserve" font-family="Helvetica-Light,Helvetica" font-size="52.0" fill="#000000" transform="matrix(1.00, 0.00, -0.00, -1.00, 851.7, 413.5)"> </text><text xml:space="preserve" font-family="Helvetica-LightOblique,Helvetica" font-style="italic" font-size="52.0" fill="#000000" transform="matrix(1.00, 0.00, -0.00, -1.00, 866.1, 413.5)">F</text><text xml:space="preserve" font-family="Helvetica-LightOblique,Helvetica" font-style="italic" font-size="52.0" fill="#000000" transform="matrix(1.00, 0.00, -0.00, -1.00, 895.0, 413.5)">I</text><text xml:space="preserve" font-family="Helvetica-LightOblique,Helvetica" font-style="italic" font-size="52.0" fill="#000000" transform="matrix(1.00, 0.00, -0.00, -1.00, 909.5, 413.5)">F</text><text xml:space="preserve" font-family="Helvetica-LightOblique,Helvetica" font-style="italic" font-size="52.0" fill="#000000" transform="matrix(1.00, 0.00, -0.00, -1.00, 938.4, 413.5)">O</text><text xml:space="preserve" font-family="Helvetica-Light,Helvetica" font-size="52.0" fill="#000000" transform="matrix(1.00, 0.00, -0.00, -1.00, 978.9, 413.5)"> </text><text xml:space="preserve" font-family="Helvetica-Light,Helvetica" font-size="39.0" fill="#000000" transform="matrix(1.00, 0.00, -0.00, -1.00, 137.0, 297.0)">•</text><text xml:space="preserve" font-family="Helvetica-Light,Helvetica" font-size="52.0" fill="#000000" transform="matrix(1.00, 0.00, -0.00, -1.00, 187.0, 292.5)">C</text><text xml:space="preserve" font-family="Helvetica-Light,Helvetica" font-size="52.0" fill="#000000" transform="matrix(1.00, 0.00, -0.00, -1.00, 224.5, 292.5)">l</text><text xml:space="preserve" font-family="Helvetica-Light,Helvetica" font-size="52.0" fill="#000000" transform="matrix(1.00, 0.00, -0.00, -1.00, 236.1, 292.5)">o</text><text xml:space="preserve" font-family="Helvetica-Light,Helvetica" font-size="52.0" fill="#000000" transform="matrix(1.00, 0.00, -0.00, -1.00, 265.0, 292.5)">c</text><text xml:space="preserve" font-family="Helvetica-Light,Helvetica" font-size="52.0" fill="#000000" transform="matrix(1.00, 0.00, -0.00, -1.00, 293.9, 292.5)">k</text></g></svg>