<?xml version="1.0" encoding="UTF-8" standalone="no"?><svg xmlns="http://www.w3.org/2000/svg" xmlns:xlink="http://www.w3.org/1999/xlink" clip-rule="evenodd" stroke-miterlimit="10" viewBox="0 0 1920 1080"><desc>SVG generated by Keynote</desc><defs></defs><g transform="matrix(1.00, 0.00, -0.00, -1.00, 0.0, 1080.0)"><path d="M 0.0 1080.0 L 1920.0 1080.0 L 1920.0 0.0 L 0.0 0.0 Z M 0.0 1080.0 " fill="#FEFFFF"></path><image xlink:href="../../120ED145-3ED6-4B0C-BBB7-AB8A67C132A9/assets/A3FC839131DB9061AC6D947178A9D22E.jpeg" width="1200.00" height="800.00" transform="matrix(1.76, 0.00, -0.00, -1.76, -3.0, 1318.0)"></image><image xlink:href="../../120ED145-3ED6-4B0C-BBB7-AB8A67C132A9/assets/EC7B817245E73D8A066418393104D62B.png" width="904.00" height="1179.00" transform="matrix(1.00, 0.00, -0.00, -1.00, -72.3, 1122.8)" opacity="0.50"></image><path d="M -69.0 1122.0 L 828.0 1122.0 L 828.0 -51.0 L -69.0 -51.0 Z M -69.3 1121.8 " fill="#000000" fill-opacity="0.50"></path><text xml:space="preserve" font-family="Helvetica-Light,Helvetica" font-size="86.2" fill="#FEFFFE" transform="matrix(1.00, 0.00, -0.00, -1.00, 43.4, 915.5)">T</text><text xml:space="preserve" font-family="Helvetica-Light,Helvetica" font-size="86.2" fill="#FEFFFE" transform="matrix(1.00, 0.00, -0.00, -1.00, 91.4, 915.5)">h</text><text xml:space="preserve" font-family="Helvetica-Light,Helvetica" font-size="86.2" fill="#FEFFFE" transform="matrix(1.00, 0.00, -0.00, -1.00, 139.3, 915.5)">i</text><text xml:space="preserve" font-family="Helvetica-Light,Helvetica" font-size="86.2" fill="#FEFFFE" transform="matrix(1.00, 0.00, -0.00, -1.00, 158.4, 915.5)">s</text><text xml:space="preserve" font-family="Helvetica-Light,Helvetica" font-size="86.2" fill="#FEFFFE" transform="matrix(1.00, 0.00, -0.00, -1.00, 201.6, 915.5)"> </text><text xml:space="preserve" font-family="Helvetica-Light,Helvetica" font-size="86.2" fill="#FEFFFE" transform="matrix(1.00, 0.00, -0.00, -1.00, 225.5, 915.5)">s</text><text xml:space="preserve" font-family="Helvetica-Light,Helvetica" font-size="86.2" fill="#FEFFFE" transform="matrix(1.00, 0.00, -0.00, -1.00, 268.7, 915.5)">o</text><text xml:space="preserve" font-family="Helvetica-Light,Helvetica" font-size="86.2" fill="#FEFFFE" transform="matrix(1.00, 0.00, -0.00, -1.00, 316.6, 915.5)">l</text><text xml:space="preserve" font-family="Helvetica-Light,Helvetica" font-size="86.2" fill="#FEFFFE" transform="matrix(1.00, 0.00, -0.00, -1.00, 335.8, 915.5)">u</text><text xml:space="preserve" font-family="Helvetica-Light,Helvetica" font-size="86.2" fill="#FEFFFE" transform="matrix(1.00, 0.00, -0.00, -1.00, 383.7, 915.5)">t</text><text xml:space="preserve" font-family="Helvetica-Light,Helvetica" font-size="86.2" fill="#FEFFFE" transform="matrix(1.00, 0.00, -0.00, -1.00, 407.7, 915.5)">i</text><text xml:space="preserve" font-family="Helvetica-Light,Helvetica" font-size="86.2" fill="#FEFFFE" transform="matrix(1.00, 0.00, -0.00, -1.00, 426.8, 915.5)">o</text><text xml:space="preserve" font-family="Helvetica-Light,Helvetica" font-size="86.2" fill="#FEFFFE" transform="matrix(1.00, 0.00, -0.00, -1.00, 474.8, 915.5)">n</text><text xml:space="preserve" font-family="Helvetica-Light,Helvetica" font-size="86.2" fill="#FEFFFE" transform="matrix(1.00, 0.00, -0.00, -1.00, 522.7, 915.5)"> </text><text xml:space="preserve" font-family="Helvetica-Light,Helvetica" font-size="86.2" fill="#FEFFFE" transform="matrix(1.00, 0.00, -0.00, -1.00, 43.4, 812.5)">m</text><text xml:space="preserve" font-family="Helvetica-Light,Helvetica" font-size="86.2" fill="#FEFFFE" transform="matrix(1.00, 0.00, -0.00, -1.00, 115.2, 812.5)">a</text><text xml:space="preserve" font-family="Helvetica-Light,Helvetica" font-size="86.2" fill="#FEFFFE" transform="matrix(1.00, 0.00, -0.00, -1.00, 163.2, 812.5)">k</text><text xml:space="preserve" font-family="Helvetica-Light,Helvetica" font-size="86.2" fill="#FEFFFE" transform="matrix(1.00, 0.00, -0.00, -1.00, 206.3, 812.5)">e</text><text xml:space="preserve" font-family="Helvetica-Light,Helvetica" font-size="86.2" fill="#FEFFFE" transform="matrix(1.00, 0.00, -0.00, -1.00, 254.3, 812.5)">s</text><text xml:space="preserve" font-family="Helvetica-Light,Helvetica" font-size="86.2" fill="#FEFFFE" transform="matrix(1.00, 0.00, -0.00, -1.00, 297.4, 812.5)"> </text><text xml:space="preserve" font-family="Helvetica-Light,Helvetica" font-size="86.2" fill="#FEFFFE" transform="matrix(1.00, 0.00, -0.00, -1.00, 321.4, 812.5)">u</text><text xml:space="preserve" font-family="Helvetica-Light,Helvetica" font-size="86.2" fill="#FEFFFE" transform="matrix(1.00, 0.00, -0.00, -1.00, 369.3, 812.5)">s</text><text xml:space="preserve" font-family="Helvetica-Light,Helvetica" font-size="86.2" fill="#FEFFFE" transform="matrix(1.00, 0.00, -0.00, -1.00, 412.4, 812.5)">e</text><text xml:space="preserve" font-family="Helvetica-Light,Helvetica" font-size="86.2" fill="#FEFFFE" transform="matrix(1.00, 0.00, -0.00, -1.00, 460.4, 812.5)"> </text><text xml:space="preserve" font-family="Helvetica-Light,Helvetica" font-size="86.2" fill="#FEFFFE" transform="matrix(1.00, 0.00, -0.00, -1.00, 484.4, 812.5)">o</text><text xml:space="preserve" font-family="Helvetica-Light,Helvetica" font-size="86.2" fill="#FEFFFE" transform="matrix(1.00, 0.00, -0.00, -1.00, 532.3, 812.5)">f</text><text xml:space="preserve" font-family="Helvetica-Light,Helvetica" font-size="86.2" fill="#FEFFFE" transform="matrix(1.00, 0.00, -0.00, -1.00, 556.3, 812.5)"> </text><text xml:space="preserve" font-family="Helvetica-Bold,Helvetica" font-weight="bold" font-size="86.2" fill="#FEFFFE" transform="matrix(1.00, 0.00, -0.00, -1.00, 43.4, 709.5)">e</text><text xml:space="preserve" font-family="Helvetica-Bold,Helvetica" font-weight="bold" font-size="86.2" fill="#FEFFFE" transform="matrix(1.00, 0.00, -0.00, -1.00, 91.4, 709.5)">x</text><text xml:space="preserve" font-family="Helvetica-Bold,Helvetica" font-weight="bold" font-size="86.2" fill="#FEFFFE" transform="matrix(1.00, 0.00, -0.00, -1.00, 139.4, 709.5)">i</text><text xml:space="preserve" font-family="Helvetica-Bold,Helvetica" font-weight="bold" font-size="86.2" fill="#FEFFFE" transform="matrix(1.00, 0.00, -0.00, -1.00, 163.3, 709.5)">s</text><text xml:space="preserve" font-family="Helvetica-Bold,Helvetica" font-weight="bold" font-size="86.2" fill="#FEFFFE" transform="matrix(1.00, 0.00, -0.00, -1.00, 211.3, 709.5)">t</text><text xml:space="preserve" font-family="Helvetica-Bold,Helvetica" font-weight="bold" font-size="86.2" fill="#FEFFFE" transform="matrix(1.00, 0.00, -0.00, -1.00, 240.0, 709.5)">i</text><text xml:space="preserve" font-family="Helvetica-Bold,Helvetica" font-weight="bold" font-size="86.2" fill="#FEFFFE" transform="matrix(1.00, 0.00, -0.00, -1.00, 263.9, 709.5)">n</text><text xml:space="preserve" font-family="Helvetica-Bold,Helvetica" font-weight="bold" font-size="86.2" fill="#FEFFFE" transform="matrix(1.00, 0.00, -0.00, -1.00, 316.6, 709.5)">g</text><text xml:space="preserve" font-family="Helvetica-Bold,Helvetica" font-weight="bold" font-size="86.2" fill="#FEFFFE" transform="matrix(1.00, 0.00, -0.00, -1.00, 369.3, 709.5)"> </text><text xml:space="preserve" font-family="Helvetica-Bold,Helvetica" font-weight="bold" font-size="86.2" fill="#FEFFFE" transform="matrix(1.00, 0.00, -0.00, -1.00, 393.2, 709.5)">e</text><text xml:space="preserve" font-family="Helvetica-Bold,Helvetica" font-weight="bold" font-size="86.2" fill="#FEFFFE" transform="matrix(1.00, 0.00, -0.00, -1.00, 441.2, 709.5)">f</text><text xml:space="preserve" font-family="Helvetica-Bold,Helvetica" font-weight="bold" font-size="86.2" fill="#FEFFFE" transform="matrix(1.00, 0.00, -0.00, -1.00, 469.9, 709.5)">ï¬</text><text xml:space="preserve" font-family="Helvetica-Bold,Helvetica" font-weight="bold" font-size="86.2" fill="#FEFFFE" transform="matrix(1.00, 0.00, -0.00, -1.00, 522.6, 709.5)">c</text><text xml:space="preserve" font-family="Helvetica-Bold,Helvetica" font-weight="bold" font-size="86.2" fill="#FEFFFE" transform="matrix(1.00, 0.00, -0.00, -1.00, 570.6, 709.5)">i</text><text xml:space="preserve" font-family="Helvetica-Bold,Helvetica" font-weight="bold" font-size="86.2" fill="#FEFFFE" transform="matrix(1.00, 0.00, -0.00, -1.00, 594.5, 709.5)">e</text><text xml:space="preserve" font-family="Helvetica-Bold,Helvetica" font-weight="bold" font-size="86.2" fill="#FEFFFE" transform="matrix(1.00, 0.00, -0.00, -1.00, 642.5, 709.5)">n</text><text xml:space="preserve" font-family="Helvetica-Bold,Helvetica" font-weight="bold" font-size="86.2" fill="#FEFFFE" transform="matrix(1.00, 0.00, -0.00, -1.00, 695.1, 709.5)">t</text><text xml:space="preserve" font-family="Helvetica-Bold,Helvetica" font-weight="bold" font-size="86.2" fill="#FEFFFE" transform="matrix(1.00, 0.00, -0.00, -1.00, 723.9, 709.5)"> </text><text xml:space="preserve" font-family="Helvetica-Bold,Helvetica" font-weight="bold" font-size="86.2" fill="#FEFFFE" transform="matrix(1.00, 0.00, -0.00, -1.00, 43.4, 606.5)">t</text><text xml:space="preserve" font-family="Helvetica-Bold,Helvetica" font-weight="bold" font-size="86.2" fill="#FEFFFE" transform="matrix(1.00, 0.00, -0.00, -1.00, 72.1, 606.5)">y</text><text xml:space="preserve" font-family="Helvetica-Bold,Helvetica" font-weight="bold" font-size="86.2" fill="#FEFFFE" transform="matrix(1.00, 0.00, -0.00, -1.00, 120.1, 606.5)">p</text><text xml:space="preserve" font-family="Helvetica-Bold,Helvetica" font-weight="bold" font-size="86.2" fill="#FEFFFE" transform="matrix(1.00, 0.00, -0.00, -1.00, 172.8, 606.5)">i</text><text xml:space="preserve" font-family="Helvetica-Bold,Helvetica" font-weight="bold" font-size="86.2" fill="#FEFFFE" transform="matrix(1.00, 0.00, -0.00, -1.00, 196.7, 606.5)">n</text><text xml:space="preserve" font-family="Helvetica-Bold,Helvetica" font-weight="bold" font-size="86.2" fill="#FEFFFE" transform="matrix(1.00, 0.00, -0.00, -1.00, 249.4, 606.5)">g</text><text xml:space="preserve" font-family="Helvetica-Bold,Helvetica" font-weight="bold" font-size="86.2" fill="#FEFFFE" transform="matrix(1.00, 0.00, -0.00, -1.00, 302.0, 606.5)"> </text><text xml:space="preserve" font-family="Helvetica-Bold,Helvetica" font-weight="bold" font-size="86.2" fill="#FEFFFE" transform="matrix(1.00, 0.00, -0.00, -1.00, 326.0, 606.5)">s</text><text xml:space="preserve" font-family="Helvetica-Bold,Helvetica" font-weight="bold" font-size="86.2" fill="#FEFFFE" transform="matrix(1.00, 0.00, -0.00, -1.00, 374.0, 606.5)">k</text><text xml:space="preserve" font-family="Helvetica-Bold,Helvetica" font-weight="bold" font-size="86.2" fill="#FEFFFE" transform="matrix(1.00, 0.00, -0.00, -1.00, 421.9, 606.5)">i</text><text xml:space="preserve" font-family="Helvetica-Bold,Helvetica" font-weight="bold" font-size="86.2" fill="#FEFFFE" transform="matrix(1.00, 0.00, -0.00, -1.00, 445.9, 606.5)">l</text><text xml:space="preserve" font-family="Helvetica-Bold,Helvetica" font-weight="bold" font-size="86.2" fill="#FEFFFE" transform="matrix(1.00, 0.00, -0.00, -1.00, 469.8, 606.5)">l</text><text xml:space="preserve" font-family="Helvetica-Bold,Helvetica" font-weight="bold" font-size="86.2" fill="#FEFFFE" transform="matrix(1.00, 0.00, -0.00, -1.00, 493.8, 606.5)">s</text><text xml:space="preserve" font-family="Helvetica-Light,Helvetica" font-size="86.2" fill="#FEFFFE" transform="matrix(1.00, 0.00, -0.00, -1.00, 541.8, 606.5)"> </text><text xml:space="preserve" font-family="Helvetica-Light,Helvetica" font-size="86.2" fill="#FEFFFE" transform="matrix(1.00, 0.00, -0.00, -1.00, 565.8, 606.5)">w</text><text xml:space="preserve" font-family="Helvetica-Light,Helvetica" font-size="86.2" fill="#FEFFFE" transform="matrix(1.00, 0.00, -0.00, -1.00, 628.1, 606.5)">i</text><text xml:space="preserve" font-family="Helvetica-Light,Helvetica" font-size="86.2" fill="#FEFFFE" transform="matrix(1.00, 0.00, -0.00, -1.00, 647.2, 606.5)">t</text><text xml:space="preserve" font-family="Helvetica-Light,Helvetica" font-size="86.2" fill="#FEFFFE" transform="matrix(1.00, 0.00, -0.00, -1.00, 671.2, 606.5)">h</text><text xml:space="preserve" font-family="Helvetica-Light,Helvetica" font-size="86.2" fill="#FEFFFE" transform="matrix(1.00, 0.00, -0.00, -1.00, 719.1, 606.5)"> </text><text xml:space="preserve" font-family="Helvetica-Light,Helvetica" font-size="86.2" fill="#FEFFFE" transform="matrix(1.00, 0.00, -0.00, -1.00, 43.4, 503.5)">a</text><text xml:space="preserve" font-family="Helvetica-Light,Helvetica" font-size="86.2" fill="#FEFFFE" transform="matrix(1.00, 0.00, -0.00, -1.00, 91.4, 503.5)">n</text><text xml:space="preserve" font-family="Helvetica-Light,Helvetica" font-size="86.2" fill="#FEFFFE" transform="matrix(1.00, 0.00, -0.00, -1.00, 139.3, 503.5)"> </text><text xml:space="preserve" font-family="Helvetica-Bold,Helvetica" font-weight="bold" font-size="86.2" fill="#FEFFFE" transform="matrix(1.00, 0.00, -0.00, -1.00, 163.3, 503.5)">i</text><text xml:space="preserve" font-family="Helvetica-Bold,Helvetica" font-weight="bold" font-size="86.2" fill="#FEFFFE" transform="matrix(1.00, 0.00, -0.00, -1.00, 187.2, 503.5)">n</text><text xml:space="preserve" font-family="Helvetica-Bold,Helvetica" font-weight="bold" font-size="86.2" fill="#FEFFFE" transform="matrix(1.00, 0.00, -0.00, -1.00, 239.9, 503.5)">-</text><text xml:space="preserve" font-family="Helvetica-Bold,Helvetica" font-weight="bold" font-size="86.2" fill="#FEFFFE" transform="matrix(1.00, 0.00, -0.00, -1.00, 268.6, 503.5)">p</text><text xml:space="preserve" font-family="Helvetica-Bold,Helvetica" font-weight="bold" font-size="86.2" fill="#FEFFFE" transform="matrix(1.00, 0.00, -0.00, -1.00, 321.3, 503.5)">l</text><text xml:space="preserve" font-family="Helvetica-Bold,Helvetica" font-weight="bold" font-size="86.2" fill="#FEFFFE" transform="matrix(1.00, 0.00, -0.00, -1.00, 345.2, 503.5)">a</text><text xml:space="preserve" font-family="Helvetica-Bold,Helvetica" font-weight="bold" font-size="86.2" fill="#FEFFFE" transform="matrix(1.00, 0.00, -0.00, -1.00, 393.2, 503.5)">c</text><text xml:space="preserve" font-family="Helvetica-Bold,Helvetica" font-weight="bold" font-size="86.2" fill="#FEFFFE" transform="matrix(1.00, 0.00, -0.00, -1.00, 441.2, 503.5)">e</text><text xml:space="preserve" font-family="Helvetica-Bold,Helvetica" font-weight="bold" font-size="86.2" fill="#FEFFFE" transform="matrix(1.00, 0.00, -0.00, -1.00, 489.1, 503.5)"> </text><text xml:space="preserve" font-family="Helvetica-Bold,Helvetica" font-weight="bold" font-size="86.2" fill="#FEFFFE" transform="matrix(1.00, 0.00, -0.00, -1.00, 513.1, 503.5)">t</text><text xml:space="preserve" font-family="Helvetica-Bold,Helvetica" font-weight="bold" font-size="86.2" fill="#FEFFFE" transform="matrix(1.00, 0.00, -0.00, -1.00, 541.8, 503.5)">y</text><text xml:space="preserve" font-family="Helvetica-Bold,Helvetica" font-weight="bold" font-size="86.2" fill="#FEFFFE" transform="matrix(1.00, 0.00, -0.00, -1.00, 589.8, 503.5)">p</text><text xml:space="preserve" font-family="Helvetica-Bold,Helvetica" font-weight="bold" font-size="86.2" fill="#FEFFFE" transform="matrix(1.00, 0.00, -0.00, -1.00, 642.4, 503.5)">i</text><text xml:space="preserve" font-family="Helvetica-Bold,Helvetica" font-weight="bold" font-size="86.2" fill="#FEFFFE" transform="matrix(1.00, 0.00, -0.00, -1.00, 666.4, 503.5)">n</text><text xml:space="preserve" font-family="Helvetica-Bold,Helvetica" font-weight="bold" font-size="86.2" fill="#FEFFFE" transform="matrix(1.00, 0.00, -0.00, -1.00, 719.1, 503.5)">g</text><text xml:space="preserve" font-family="Helvetica-Bold,Helvetica" font-weight="bold" font-size="86.2" fill="#FEFFFE" transform="matrix(1.00, 0.00, -0.00, -1.00, 771.7, 503.5)"> </text><text xml:space="preserve" font-family="Helvetica-Bold,Helvetica" font-weight="bold" font-size="86.2" fill="#FEFFFE" transform="matrix(1.00, 0.00, -0.00, -1.00, 43.4, 400.5)">m</text><text xml:space="preserve" font-family="Helvetica-Bold,Helvetica" font-weight="bold" font-size="86.2" fill="#FEFFFE" transform="matrix(1.00, 0.00, -0.00, -1.00, 120.1, 400.5)">e</text><text xml:space="preserve" font-family="Helvetica-Bold,Helvetica" font-weight="bold" font-size="86.2" fill="#FEFFFE" transform="matrix(1.00, 0.00, -0.00, -1.00, 168.1, 400.5)">t</text><text xml:space="preserve" font-family="Helvetica-Bold,Helvetica" font-weight="bold" font-size="86.2" fill="#FEFFFE" transform="matrix(1.00, 0.00, -0.00, -1.00, 196.8, 400.5)">h</text><text xml:space="preserve" font-family="Helvetica-Bold,Helvetica" font-weight="bold" font-size="86.2" fill="#FEFFFE" transform="matrix(1.00, 0.00, -0.00, -1.00, 249.5, 400.5)">o</text><text xml:space="preserve" font-family="Helvetica-Bold,Helvetica" font-weight="bold" font-size="86.2" fill="#FEFFFE" transform="matrix(1.00, 0.00, -0.00, -1.00, 302.1, 400.5)">d</text><text xml:space="preserve" font-family="Helvetica-Light,Helvetica" font-size="86.2" fill="#FEFFFE" transform="matrix(1.00, 0.00, -0.00, -1.00, 354.8, 400.5)"> </text><text xml:space="preserve" font-family="Helvetica-Light,Helvetica" font-size="86.2" fill="#FEFFFE" transform="matrix(1.00, 0.00, -0.00, -1.00, 378.8, 400.5)">t</text><text xml:space="preserve" font-family="Helvetica-Light,Helvetica" font-size="86.2" fill="#FEFFFE" transform="matrix(1.00, 0.00, -0.00, -1.00, 402.8, 400.5)">h</text><text xml:space="preserve" font-family="Helvetica-Light,Helvetica" font-size="86.2" fill="#FEFFFE" transform="matrix(1.00, 0.00, -0.00, -1.00, 450.7, 400.5)">a</text><text xml:space="preserve" font-family="Helvetica-Light,Helvetica" font-size="86.2" fill="#FEFFFE" transform="matrix(1.00, 0.00, -0.00, -1.00, 498.7, 400.5)">t</text><text xml:space="preserve" font-family="Helvetica-Light,Helvetica" font-size="86.2" fill="#FEFFFE" transform="matrix(1.00, 0.00, -0.00, -1.00, 522.6, 400.5)"> </text><text xml:space="preserve" font-family="Helvetica-Light,Helvetica" font-size="86.2" fill="#FEFFFE" transform="matrix(1.00, 0.00, -0.00, -1.00, 546.6, 400.5)">i</text><text xml:space="preserve" font-family="Helvetica-Light,Helvetica" font-size="86.2" fill="#FEFFFE" transform="matrix(1.00, 0.00, -0.00, -1.00, 565.7, 400.5)">s</text><text xml:space="preserve" font-family="Helvetica-Light,Helvetica" font-size="86.2" fill="#FEFFFE" transform="matrix(1.00, 0.00, -0.00, -1.00, 608.9, 400.5)"> </text><text xml:space="preserve" font-family="Helvetica-Light,Helvetica" font-size="86.2" fill="#FEFFFE" transform="matrix(1.00, 0.00, -0.00, -1.00, 43.4, 297.5)">m</text><text xml:space="preserve" font-family="Helvetica-Light,Helvetica" font-size="86.2" fill="#FEFFFE" transform="matrix(1.00, 0.00, -0.00, -1.00, 115.2, 297.5)">o</text><text xml:space="preserve" font-family="Helvetica-Light,Helvetica" font-size="86.2" fill="#FEFFFE" transform="matrix(1.00, 0.00, -0.00, -1.00, 163.2, 297.5)">r</text><text xml:space="preserve" font-family="Helvetica-Light,Helvetica" font-size="86.2" fill="#FEFFFE" transform="matrix(1.00, 0.00, -0.00, -1.00, 190.4, 297.5)">e</text><text xml:space="preserve" font-family="Helvetica-Light,Helvetica" font-size="86.2" fill="#FEFFFE" transform="matrix(1.00, 0.00, -0.00, -1.00, 238.3, 297.5)"> </text><text xml:space="preserve" font-family="Helvetica-Light,Helvetica" font-size="86.2" fill="#FEFFFE" transform="matrix(1.00, 0.00, -0.00, -1.00, 262.3, 297.5)">a</text><text xml:space="preserve" font-family="Helvetica-Light,Helvetica" font-size="86.2" fill="#FEFFFE" transform="matrix(1.00, 0.00, -0.00, -1.00, 310.2, 297.5)">c</text><text xml:space="preserve" font-family="Helvetica-Light,Helvetica" font-size="86.2" fill="#FEFFFE" transform="matrix(1.00, 0.00, -0.00, -1.00, 358.2, 297.5)">c</text><text xml:space="preserve" font-family="Helvetica-Light,Helvetica" font-size="86.2" fill="#FEFFFE" transform="matrix(1.00, 0.00, -0.00, -1.00, 406.1, 297.5)">e</text><text xml:space="preserve" font-family="Helvetica-Light,Helvetica" font-size="86.2" fill="#FEFFFE" transform="matrix(1.00, 0.00, -0.00, -1.00, 454.1, 297.5)">s</text><text xml:space="preserve" font-family="Helvetica-Light,Helvetica" font-size="86.2" fill="#FEFFFE" transform="matrix(1.00, 0.00, -0.00, -1.00, 497.2, 297.5)">s</text><text xml:space="preserve" font-family="Helvetica-Light,Helvetica" font-size="86.2" fill="#FEFFFE" transform="matrix(1.00, 0.00, -0.00, -1.00, 540.3, 297.5)">i</text><text xml:space="preserve" font-family="Helvetica-Light,Helvetica" font-size="86.2" fill="#FEFFFE" transform="matrix(1.00, 0.00, -0.00, -1.00, 559.5, 297.5)">b</text><text xml:space="preserve" font-family="Helvetica-Light,Helvetica" font-size="86.2" fill="#FEFFFE" transform="matrix(1.00, 0.00, -0.00, -1.00, 612.2, 297.5)">l</text><text xml:space="preserve" font-family="Helvetica-Light,Helvetica" font-size="86.2" fill="#FEFFFE" transform="matrix(1.00, 0.00, -0.00, -1.00, 631.3, 297.5)">e</text><text xml:space="preserve" font-family="Helvetica-Light,Helvetica" font-size="86.2" fill="#FEFFFE" transform="matrix(1.00, 0.00, -0.00, -1.00, 679.3, 297.5)"> </text><text xml:space="preserve" font-family="Helvetica-Light,Helvetica" font-size="86.2" fill="#FEFFFE" transform="matrix(1.00, 0.00, -0.00, -1.00, 703.2, 297.5)">i</text><text xml:space="preserve" font-family="Helvetica-Light,Helvetica" font-size="86.2" fill="#FEFFFE" transform="matrix(1.00, 0.00, -0.00, -1.00, 722.4, 297.5)">n</text><text xml:space="preserve" font-family="Helvetica-Light,Helvetica" font-size="86.2" fill="#FEFFFE" transform="matrix(1.00, 0.00, -0.00, -1.00, 770.3, 297.5)"> </text><text xml:space="preserve" font-family="Helvetica-Light,Helvetica" font-size="86.2" fill="#FEFFFE" transform="matrix(1.00, 0.00, -0.00, -1.00, 43.4, 194.5)">d</text><text xml:space="preserve" font-family="Helvetica-Light,Helvetica" font-size="86.2" fill="#FEFFFE" transform="matrix(1.00, 0.00, -0.00, -1.00, 96.1, 194.5)">i</text><text xml:space="preserve" font-family="Helvetica-Light,Helvetica" font-size="86.2" fill="#FEFFFE" transform="matrix(1.00, 0.00, -0.00, -1.00, 115.2, 194.5)">f</text><text xml:space="preserve" font-family="Helvetica-Light,Helvetica" font-size="86.2" fill="#FEFFFE" transform="matrix(1.00, 0.00, -0.00, -1.00, 137.7, 194.5)">f</text><text xml:space="preserve" font-family="Helvetica-Light,Helvetica" font-size="86.2" fill="#FEFFFE" transform="matrix(1.00, 0.00, -0.00, -1.00, 161.6, 194.5)">e</text><text xml:space="preserve" font-family="Helvetica-Light,Helvetica" font-size="86.2" fill="#FEFFFE" transform="matrix(1.00, 0.00, -0.00, -1.00, 209.6, 194.5)">r</text><text xml:space="preserve" font-family="Helvetica-Light,Helvetica" font-size="86.2" fill="#FEFFFE" transform="matrix(1.00, 0.00, -0.00, -1.00, 236.8, 194.5)">e</text><text xml:space="preserve" font-family="Helvetica-Light,Helvetica" font-size="86.2" fill="#FEFFFE" transform="matrix(1.00, 0.00, -0.00, -1.00, 284.7, 194.5)">n</text><text xml:space="preserve" font-family="Helvetica-Light,Helvetica" font-size="86.2" fill="#FEFFFE" transform="matrix(1.00, 0.00, -0.00, -1.00, 332.7, 194.5)">t</text><text xml:space="preserve" font-family="Helvetica-Light,Helvetica" font-size="86.2" fill="#FEFFFE" transform="matrix(1.00, 0.00, -0.00, -1.00, 356.6, 194.5)"> </text><text xml:space="preserve" font-family="Helvetica-Light,Helvetica" font-size="86.2" fill="#FEFFFE" transform="matrix(1.00, 0.00, -0.00, -1.00, 380.6, 194.5)">c</text><text xml:space="preserve" font-family="Helvetica-Light,Helvetica" font-size="86.2" fill="#FEFFFE" transform="matrix(1.00, 0.00, -0.00, -1.00, 428.6, 194.5)">o</text><text xml:space="preserve" font-family="Helvetica-Light,Helvetica" font-size="86.2" fill="#FEFFFE" transform="matrix(1.00, 0.00, -0.00, -1.00, 476.5, 194.5)">m</text><text xml:space="preserve" font-family="Helvetica-Light,Helvetica" font-size="86.2" fill="#FEFFFE" transform="matrix(1.00, 0.00, -0.00, -1.00, 548.3, 194.5)">p</text><text xml:space="preserve" font-family="Helvetica-Light,Helvetica" font-size="86.2" fill="#FEFFFE" transform="matrix(1.00, 0.00, -0.00, -1.00, 601.0, 194.5)">u</text><text xml:space="preserve" font-family="Helvetica-Light,Helvetica" font-size="86.2" fill="#FEFFFE" transform="matrix(1.00, 0.00, -0.00, -1.00, 649.0, 194.5)">t</text><text xml:space="preserve" font-family="Helvetica-Light,Helvetica" font-size="86.2" fill="#FEFFFE" transform="matrix(1.00, 0.00, -0.00, -1.00, 673.0, 194.5)">i</text><text xml:space="preserve" font-family="Helvetica-Light,Helvetica" font-size="86.2" fill="#FEFFFE" transform="matrix(1.00, 0.00, -0.00, -1.00, 692.1, 194.5)">n</text><text xml:space="preserve" font-family="Helvetica-Light,Helvetica" font-size="86.2" fill="#FEFFFE" transform="matrix(1.00, 0.00, -0.00, -1.00, 740.1, 194.5)">g</text><text xml:space="preserve" font-family="Helvetica-Light,Helvetica" font-size="86.2" fill="#FEFFFE" transform="matrix(1.00, 0.00, -0.00, -1.00, 792.7, 194.5)"> </text><text xml:space="preserve" font-family="Helvetica-Light,Helvetica" font-size="86.2" fill="#FEFFFE" transform="matrix(1.00, 0.00, -0.00, -1.00, 43.4, 91.5)">e</text><text xml:space="preserve" font-family="Helvetica-Light,Helvetica" font-size="86.2" fill="#FEFFFE" transform="matrix(1.00, 0.00, -0.00, -1.00, 91.4, 91.5)">n</text><text xml:space="preserve" font-family="Helvetica-Light,Helvetica" font-size="86.2" fill="#FEFFFE" transform="matrix(1.00, 0.00, -0.00, -1.00, 139.3, 91.5)">v</text><text xml:space="preserve" font-family="Helvetica-Light,Helvetica" font-size="86.2" fill="#FEFFFE" transform="matrix(1.00, 0.00, -0.00, -1.00, 182.4, 91.5)">i</text><text xml:space="preserve" font-family="Helvetica-Light,Helvetica" font-size="86.2" fill="#FEFFFE" transform="matrix(1.00, 0.00, -0.00, -1.00, 201.6, 91.5)">r</text><text xml:space="preserve" font-family="Helvetica-Light,Helvetica" font-size="86.2" fill="#FEFFFE" transform="matrix(1.00, 0.00, -0.00, -1.00, 228.7, 91.5)">o</text><text xml:space="preserve" font-family="Helvetica-Light,Helvetica" font-size="86.2" fill="#FEFFFE" transform="matrix(1.00, 0.00, -0.00, -1.00, 276.7, 91.5)">n</text><text xml:space="preserve" font-family="Helvetica-Light,Helvetica" font-size="86.2" fill="#FEFFFE" transform="matrix(1.00, 0.00, -0.00, -1.00, 324.6, 91.5)">m</text><text xml:space="preserve" font-family="Helvetica-Light,Helvetica" font-size="86.2" fill="#FEFFFE" transform="matrix(1.00, 0.00, -0.00, -1.00, 396.5, 91.5)">e</text><text xml:space="preserve" font-family="Helvetica-Light,Helvetica" font-size="86.2" fill="#FEFFFE" transform="matrix(1.00, 0.00, -0.00, -1.00, 444.4, 91.5)">n</text><text xml:space="preserve" font-family="Helvetica-Light,Helvetica" font-size="86.2" fill="#FEFFFE" transform="matrix(1.00, 0.00, -0.00, -1.00, 492.4, 91.5)">t</text><text xml:space="preserve" font-family="Helvetica-Light,Helvetica" font-size="86.2" fill="#FEFFFE" transform="matrix(1.00, 0.00, -0.00, -1.00, 516.3, 91.5)">s</text><text xml:space="preserve" font-family="Helvetica-Light,Helvetica" font-size="86.2" fill="#FEFFFE" transform="matrix(1.00, 0.00, -0.00, -1.00, 559.5, 91.5)">.</text></g></svg>