<?xml version="1.0" encoding="UTF-8" standalone="no"?><svg xmlns="http://www.w3.org/2000/svg" xmlns:xlink="http://www.w3.org/1999/xlink" clip-rule="evenodd" stroke-miterlimit="10" viewBox="0 0 1920 1080"><desc>SVG generated by Keynote</desc><defs></defs><g transform="matrix(1.00, 0.00, -0.00, -1.00, 0.0, 1080.0)"><path d="M 0.0 1080.0 L 1920.0 1080.0 L 1920.0 0.0 L 0.0 0.0 Z M 0.0 1080.0 " fill="#FEFFFF"></path><image xlink:href="../../2180DC56-5219-475B-9046-D882D08002DE/assets/2014BDBABB609DE09D58D13BCB7C28F2.png" width="550.00" height="825.00" transform="matrix(1.00, 0.00, -0.00, -1.00, 109.0, 928.0)"></image><image xlink:href="../../972DC1DF-4077-40DF-9C31-DA172C909F3C/assets/B0E44C1080A6D04FBB3BC44DDCD67334.png" width="380.00" height="278.00" transform="matrix(0.69, 0.00, -0.00, -0.69, 1350.0, 825.0)"></image><image xlink:href="../../972DC1DF-4077-40DF-9C31-DA172C909F3C/assets/19B1E7025B062F9ED083A17AF14BE2DE.png" width="1400.00" height="1363.00" transform="matrix(0.13, 0.00, -0.00, -0.13, 1635.0, 650.0)"></image><image xlink:href="../../972DC1DF-4077-40DF-9C31-DA172C909F3C/assets/0CE51F8191E65CDBD04D6FA06E214D3E.png" width="220.00" height="220.00" transform="matrix(1.00, 0.00, -0.00, -1.00, 1618.0, 292.0)"></image><image xlink:href="../../972DC1DF-4077-40DF-9C31-DA172C909F3C/assets/33138CD8EB35A2656CB44FFE933BC1DA.png" width="2221.00" height="1666.00" transform="matrix(0.14, 0.00, -0.00, -0.14, 1328.0, 464.0)"></image><text xml:space="preserve" font-family="Helvetica-Light,Helvetica" font-size="65.0" fill="#000000" transform="matrix(1.00, 0.00, -0.00, -1.00, 280.9, 964.9)">R</text><text xml:space="preserve" font-family="Helvetica-Light,Helvetica" font-size="65.0" fill="#000000" transform="matrix(1.00, 0.00, -0.00, -1.00, 324.2, 964.9)">e</text><text xml:space="preserve" font-family="Helvetica-Light,Helvetica" font-size="65.0" fill="#000000" transform="matrix(1.00, 0.00, -0.00, -1.00, 360.4, 964.9)">c</text><text xml:space="preserve" font-family="Helvetica-Light,Helvetica" font-size="65.0" fill="#000000" transform="matrix(1.00, 0.00, -0.00, -1.00, 396.5, 964.9)">i</text><text xml:space="preserve" font-family="Helvetica-Light,Helvetica" font-size="65.0" fill="#000000" transform="matrix(1.00, 0.00, -0.00, -1.00, 410.9, 964.9)">p</text><text xml:space="preserve" font-family="Helvetica-Light,Helvetica" font-size="65.0" fill="#000000" transform="matrix(1.00, 0.00, -0.00, -1.00, 450.6, 964.9)">e</text><text xml:space="preserve" font-family="Helvetica-Light,Helvetica" font-size="65.0" fill="#000000" transform="matrix(1.00, 0.00, -0.00, -1.00, 1404.8, 964.9)">F</text><text xml:space="preserve" font-family="Helvetica-Light,Helvetica" font-size="65.0" fill="#000000" transform="matrix(1.00, 0.00, -0.00, -1.00, 1440.9, 964.9)">o</text><text xml:space="preserve" font-family="Helvetica-Light,Helvetica" font-size="65.0" fill="#000000" transform="matrix(1.00, 0.00, -0.00, -1.00, 1477.1, 964.9)">o</text><text xml:space="preserve" font-family="Helvetica-Light,Helvetica" font-size="65.0" fill="#000000" transform="matrix(1.00, 0.00, -0.00, -1.00, 1513.2, 964.9)">d</text><text xml:space="preserve" font-family="Helvetica-Light,Helvetica" font-size="65.0" fill="#000000" transform="matrix(1.00, 0.00, -0.00, -1.00, 1552.9, 964.9)"> </text><text xml:space="preserve" font-family="Helvetica-Light,Helvetica" font-size="65.0" fill="#000000" transform="matrix(1.00, 0.00, -0.00, -1.00, 1571.0, 964.9)">I</text><text xml:space="preserve" font-family="Helvetica-Light,Helvetica" font-size="65.0" fill="#000000" transform="matrix(1.00, 0.00, -0.00, -1.00, 1589.1, 964.9)">t</text><text xml:space="preserve" font-family="Helvetica-Light,Helvetica" font-size="65.0" fill="#000000" transform="matrix(1.00, 0.00, -0.00, -1.00, 1607.1, 964.9)">e</text><text xml:space="preserve" font-family="Helvetica-Light,Helvetica" font-size="65.0" fill="#000000" transform="matrix(1.00, 0.00, -0.00, -1.00, 1643.3, 964.9)">m</text><text xml:space="preserve" font-family="Helvetica-Light,Helvetica" font-size="65.0" fill="#000000" transform="matrix(1.00, 0.00, -0.00, -1.00, 1697.4, 964.9)">s</text><path d="M 0.0 0.0 L 626.3 0.0 " fill="none" stroke="#A6AAA8" stroke-width="2.00" transform="matrix(1.00, 0.07, 0.07, -1.00, 703.6, 655.3)"></path><path d="M 0.4 0.5 L 886.4 0.5 " fill="none" stroke="#A6AAA8" stroke-width="2.00" transform="matrix(1.00, 0.00, 0.00, -1.00, 703.6, 518.5)"></path><path d="M 0.0 0.0 L 977.0 0.0 " fill="none" stroke="#A6AAA8" stroke-width="2.00" transform="matrix(0.96, -0.27, -0.27, -0.96, 703.6, 376.4)"></path><text xml:space="preserve" font-family="Helvetica-Light,Helvetica" font-size="25.0" fill="#000000" transform="matrix(1.00, 0.00, -0.00, -1.00, 995.2, 376.4)">N</text><text xml:space="preserve" font-family="Helvetica-Light,Helvetica" font-size="25.0" fill="#000000" transform="matrix(1.00, 0.00, -0.00, -1.00, 1013.3, 376.4)">o</text><text xml:space="preserve" font-family="Helvetica-Light,Helvetica" font-size="25.0" fill="#000000" transform="matrix(1.00, 0.00, -0.00, -1.00, 1027.2, 376.4)"> </text><text xml:space="preserve" font-family="Helvetica-Light,Helvetica" font-size="25.0" fill="#000000" transform="matrix(1.00, 0.00, -0.00, -1.00, 1034.1, 376.4)">b</text><text xml:space="preserve" font-family="Helvetica-Light,Helvetica" font-size="25.0" fill="#000000" transform="matrix(1.00, 0.00, -0.00, -1.00, 1049.4, 376.4)">r</text><text xml:space="preserve" font-family="Helvetica-Light,Helvetica" font-size="25.0" fill="#000000" transform="matrix(1.00, 0.00, -0.00, -1.00, 1057.3, 376.4)">o</text><text xml:space="preserve" font-family="Helvetica-Light,Helvetica" font-size="25.0" fill="#000000" transform="matrix(1.00, 0.00, -0.00, -1.00, 1071.2, 376.4)">c</text><text xml:space="preserve" font-family="Helvetica-Light,Helvetica" font-size="25.0" fill="#000000" transform="matrix(1.00, 0.00, -0.00, -1.00, 1085.1, 376.4)">c</text><text xml:space="preserve" font-family="Helvetica-Light,Helvetica" font-size="25.0" fill="#000000" transform="matrix(1.00, 0.00, -0.00, -1.00, 1099.0, 376.4)">o</text><text xml:space="preserve" font-family="Helvetica-Light,Helvetica" font-size="25.0" fill="#000000" transform="matrix(1.00, 0.00, -0.00, -1.00, 1112.9, 376.4)">l</text><text xml:space="preserve" font-family="Helvetica-Light,Helvetica" font-size="25.0" fill="#000000" transform="matrix(1.00, 0.00, -0.00, -1.00, 1118.4, 376.4)">i</text><text xml:space="preserve" font-family="Helvetica-Light,Helvetica" font-size="25.0" fill="#000000" transform="matrix(1.00, 0.00, -0.00, -1.00, 1124.0, 376.4)"> </text><text xml:space="preserve" font-family="Helvetica-Light,Helvetica" font-size="25.0" fill="#000000" transform="matrix(1.00, 0.00, -0.00, -1.00, 1130.9, 376.4)">i</text><text xml:space="preserve" font-family="Helvetica-Light,Helvetica" font-size="25.0" fill="#000000" transform="matrix(1.00, 0.00, -0.00, -1.00, 1136.5, 376.4)">n</text><text xml:space="preserve" font-family="Helvetica-Light,Helvetica" font-size="25.0" fill="#000000" transform="matrix(1.00, 0.00, -0.00, -1.00, 1150.4, 376.4)"> </text><text xml:space="preserve" font-family="Helvetica-Light,Helvetica" font-size="25.0" fill="#000000" transform="matrix(1.00, 0.00, -0.00, -1.00, 1157.3, 376.4)">m</text><text xml:space="preserve" font-family="Helvetica-Light,Helvetica" font-size="25.0" fill="#000000" transform="matrix(1.00, 0.00, -0.00, -1.00, 1178.1, 376.4)">a</text><text xml:space="preserve" font-family="Helvetica-Light,Helvetica" font-size="25.0" fill="#000000" transform="matrix(1.00, 0.00, -0.00, -1.00, 1192.0, 376.4)">c</text><text xml:space="preserve" font-family="Helvetica-Light,Helvetica" font-size="25.0" fill="#000000" transform="matrix(1.00, 0.00, -0.00, -1.00, 1205.9, 376.4)"> </text><text xml:space="preserve" font-family="Helvetica-Light,Helvetica" font-size="25.0" fill="#000000" transform="matrix(1.00, 0.00, -0.00, -1.00, 1212.9, 376.4)">a</text><text xml:space="preserve" font-family="Helvetica-Light,Helvetica" font-size="25.0" fill="#000000" transform="matrix(1.00, 0.00, -0.00, -1.00, 1226.8, 376.4)">n</text><text xml:space="preserve" font-family="Helvetica-Light,Helvetica" font-size="25.0" fill="#000000" transform="matrix(1.00, 0.00, -0.00, -1.00, 1240.7, 376.4)">d</text><text xml:space="preserve" font-family="Helvetica-Light,Helvetica" font-size="25.0" fill="#000000" transform="matrix(1.00, 0.00, -0.00, -1.00, 1256.0, 376.4)"> </text><text xml:space="preserve" font-family="Helvetica-Light,Helvetica" font-size="25.0" fill="#000000" transform="matrix(1.00, 0.00, -0.00, -1.00, 1262.9, 376.4)">c</text><text xml:space="preserve" font-family="Helvetica-Light,Helvetica" font-size="25.0" fill="#000000" transform="matrix(1.00, 0.00, -0.00, -1.00, 1276.8, 376.4)">h</text><text xml:space="preserve" font-family="Helvetica-Light,Helvetica" font-size="25.0" fill="#000000" transform="matrix(1.00, 0.00, -0.00, -1.00, 1290.7, 376.4)">e</text><text xml:space="preserve" font-family="Helvetica-Light,Helvetica" font-size="25.0" fill="#000000" transform="matrix(1.00, 0.00, -0.00, -1.00, 1304.6, 376.4)">e</text><text xml:space="preserve" font-family="Helvetica-Light,Helvetica" font-size="25.0" fill="#000000" transform="matrix(1.00, 0.00, -0.00, -1.00, 1318.5, 376.4)">s</text><text xml:space="preserve" font-family="Helvetica-Light,Helvetica" font-size="25.0" fill="#000000" transform="matrix(1.00, 0.00, -0.00, -1.00, 1331.0, 376.4)">e</text><text xml:space="preserve" font-family="Helvetica-Light,Helvetica" font-size="25.0" fill="#000000" transform="matrix(1.00, 0.00, -0.00, -1.00, 1344.9, 376.4)">!</text><text xml:space="preserve" font-family="Helvetica-Light,Helvetica" font-size="25.0" fill="#000000" transform="matrix(1.00, 0.00, -0.00, -1.00, 1353.2, 376.4)"> </text><text xml:space="preserve" font-family="Helvetica-Light,Helvetica" font-size="25.0" fill="#000000" transform="matrix(1.00, 0.00, -0.00, -1.00, 1067.9, 346.4)">B</text><text xml:space="preserve" font-family="Helvetica-Light,Helvetica" font-size="25.0" fill="#000000" transform="matrix(1.00, 0.00, -0.00, -1.00, 1084.6, 346.4)">u</text><text xml:space="preserve" font-family="Helvetica-Light,Helvetica" font-size="25.0" fill="#000000" transform="matrix(1.00, 0.00, -0.00, -1.00, 1098.5, 346.4)">t</text><text xml:space="preserve" font-family="Helvetica-Light,Helvetica" font-size="25.0" fill="#000000" transform="matrix(1.00, 0.00, -0.00, -1.00, 1105.5, 346.4)"> </text><text xml:space="preserve" font-family="Helvetica-Light,Helvetica" font-size="25.0" fill="#000000" transform="matrix(1.00, 0.00, -0.00, -1.00, 1112.4, 346.4)">s</text><text xml:space="preserve" font-family="Helvetica-Light,Helvetica" font-size="25.0" fill="#000000" transform="matrix(1.00, 0.00, -0.00, -1.00, 1124.9, 346.4)">t</text><text xml:space="preserve" font-family="Helvetica-Light,Helvetica" font-size="25.0" fill="#000000" transform="matrix(1.00, 0.00, -0.00, -1.00, 1131.9, 346.4)">i</text><text xml:space="preserve" font-family="Helvetica-Light,Helvetica" font-size="25.0" fill="#000000" transform="matrix(1.00, 0.00, -0.00, -1.00, 1137.4, 346.4)">l</text><text xml:space="preserve" font-family="Helvetica-Light,Helvetica" font-size="25.0" fill="#000000" transform="matrix(1.00, 0.00, -0.00, -1.00, 1143.0, 346.4)">l</text><text xml:space="preserve" font-family="Helvetica-Light,Helvetica" font-size="25.0" fill="#000000" transform="matrix(1.00, 0.00, -0.00, -1.00, 1148.5, 346.4)"> </text><text xml:space="preserve" font-family="Helvetica-Light,Helvetica" font-size="25.0" fill="#000000" transform="matrix(1.00, 0.00, -0.00, -1.00, 1155.5, 346.4)">a</text><text xml:space="preserve" font-family="Helvetica-Light,Helvetica" font-size="25.0" fill="#000000" transform="matrix(1.00, 0.00, -0.00, -1.00, 1169.4, 346.4)"> </text><text xml:space="preserve" font-family="Helvetica-Light,Helvetica" font-size="25.0" fill="#000000" transform="matrix(1.00, 0.00, -0.00, -1.00, 1176.3, 346.4)">f</text><text xml:space="preserve" font-family="Helvetica-Light,Helvetica" font-size="25.0" fill="#000000" transform="matrix(1.00, 0.00, -0.00, -1.00, 1183.3, 346.4)">o</text><text xml:space="preserve" font-family="Helvetica-Light,Helvetica" font-size="25.0" fill="#000000" transform="matrix(1.00, 0.00, -0.00, -1.00, 1197.2, 346.4)">o</text><text xml:space="preserve" font-family="Helvetica-Light,Helvetica" font-size="25.0" fill="#000000" transform="matrix(1.00, 0.00, -0.00, -1.00, 1211.1, 346.4)">d</text><text xml:space="preserve" font-family="Helvetica-Light,Helvetica" font-size="25.0" fill="#000000" transform="matrix(1.00, 0.00, -0.00, -1.00, 1226.3, 346.4)"> </text><text xml:space="preserve" font-family="Helvetica-Light,Helvetica" font-size="25.0" fill="#000000" transform="matrix(1.00, 0.00, -0.00, -1.00, 1233.3, 346.4)">i</text><text xml:space="preserve" font-family="Helvetica-Light,Helvetica" font-size="25.0" fill="#000000" transform="matrix(1.00, 0.00, -0.00, -1.00, 1238.8, 346.4)">t</text><text xml:space="preserve" font-family="Helvetica-Light,Helvetica" font-size="25.0" fill="#000000" transform="matrix(1.00, 0.00, -0.00, -1.00, 1245.8, 346.4)">e</text><text xml:space="preserve" font-family="Helvetica-Light,Helvetica" font-size="25.0" fill="#000000" transform="matrix(1.00, 0.00, -0.00, -1.00, 1259.7, 346.4)">m</text></g></svg>